<?xml version="1.0" encoding="utf-8"?>
<!-- Generator: Adobe Illustrator 24.3.0, SVG Export Plug-In . SVG Version: 6.00 Build 0)  -->
<svg version="1.1" id="Livello_1" xmlns="http://www.w3.org/2000/svg" xmlns:xlink="http://www.w3.org/1999/xlink" x="0px" y="0px"
	 viewBox="0 0 2929.6 1721.9" style="enable-background:new 0 0 2929.6 1721.9;" xml:space="preserve">
<g id="Livello_2_1_">
	<g id="svg205">
		<g>
			<path d="M0,1721.9V884.2h154.2v837.7H0z"/>
			<path d="M135.7,1721.9V884.2h276.5v837.7H135.7z M172,1564h203.1v-84.5h-51.9v-312.9h51.9v-84.5H172v84.5h51.9v312.8H172V1564z"
				/>
			<path d="M397.4,1721.9V884.2h309.9v837.7H397.4z M699.8,1460.2l-69.7-21.5c-3,24.7-9,39.7-18.2,44.8c-9.1,5.2-16.7,7.8-22.6,7.8
				c-24.7,0-37.1-14.6-37.1-43.7v-149.8h120.1v-68.2H552.3v-101.6h-95.6v101.6h-47.4v68.2h47.4v166.1c0,34.6,11,61.2,33,79.7
				c22,18.5,51.5,27.8,88.6,27.8C649.9,1571.4,690.4,1534.3,699.8,1460.2L699.8,1460.2z"/>
			<path d="M692.4,1721.9V884.2h390.7v837.7H692.4z M750.2,1253.3l-14.8,86.7l76.4,8.2l12.6-47.4c7.6-3.8,15.7-6.5,24.1-7.8
				c9-1.3,18-1.9,27.1-1.8c27.2,0,43.1,8.2,47.8,24.5c4.7,16.4,7,33.4,7,50.4v11.1c-15.3-2-33.6-3-54.9-3c-38.1,0-73.5,6.7-106.4,20
				c-32.9,13.3-49.3,40.5-49.3,81.6c0,35.1,11.1,59.8,33.4,74.1s45.5,21.5,69.7,21.5c27.2,0,49.5-6.9,67.1-20.8
				c17.6-13.8,31-29.2,40.4-46v0.7c4.9,44,29.4,66,73.4,66c20.8,0,40.8-5.2,60-15.6l-0.7-50.4c-4.6,1.4-9.3,2.2-14.1,2.2
				c-15.3,0-23-8.6-23-25.9v-145.3c0-38.1-13.1-66.5-39.3-85.3c-26.2-18.8-57.3-28.1-93.3-28.1c-27.2,0-50.5,2.1-70,6.3
				C803.8,1233.5,779.5,1241.5,750.2,1253.3z M930.4,1427.6c-2.5,26.2-11,45.4-25.6,57.4c-14.6,12.1-30.3,18.2-47.1,18.2
				c-14.3,0-24.5-3.7-30.4-11.1c-5.9-7.4-8.9-16.6-8.9-27.4c0-18.3,6.4-30.5,19.3-36.7s27.7-9.3,44.5-9.3c8.1,0,16.1,0.5,24.1,1.5
				c8.2,1,16.2,2,24.1,3L930.4,1427.6z"/>
			<path d="M1067.5,1721.9V884.2h225.4v837.7H1067.5z M1088.3,1564h184.6v-71.9h-44.5v-438.1h-143.8v72.7h48.2v365.5h-44.5
				L1088.3,1564z"/>
			<path d="M1276.6,1721.9V884.2h236.5v837.7H1276.6z M1307.7,1564h184.6v-71.9h-44.5v-262.4H1304v72.7h48.2v189.8h-44.5
				L1307.7,1564z M1348.5,1071v99.3h95.6V1071L1348.5,1071z"/>
			<path d="M1498.2,1721.9V884.2h390.7v837.7H1498.2z M1556.1,1253.3l-14.8,86.7l76.4,8.2l12.6-47.4c7.6-3.8,15.7-6.5,24.1-7.8
				c9-1.3,18-1.9,27.1-1.8c27.2,0,43.1,8.2,47.8,24.5c4.7,16.4,7,33.4,7,50.4v11.1c-15.3-2-33.6-3-54.9-3c-38.1,0-73.5,6.7-106.4,20
				c-32.9,13.3-49.3,40.5-49.3,81.6c0,35.1,11.1,59.8,33.4,74.1s45.5,21.5,69.7,21.5c27.2,0,49.5-6.9,67.1-20.8
				c17.6-13.8,31-29.2,40.4-46v0.7c4.9,44,29.4,66,73.4,66c20.8,0,40.8-5.2,60.1-15.6l-0.7-50.4c-4.6,1.4-9.3,2.2-14.1,2.2
				c-15.3,0-23-8.6-23-25.9v-145.3c0-38.1-13.1-66.5-39.3-85.3s-57.3-28.1-93.3-28.1c-27.2,0-50.5,2.1-70.1,6.3
				S1585.2,1241.5,1556.1,1253.3L1556.1,1253.3z M1736.2,1427.6c-2.5,26.2-11,45.4-25.6,57.4c-14.6,12.1-30.3,18.2-47.1,18.2
				c-14.3,0-24.5-3.7-30.4-11.1c-5.9-7.4-8.9-16.6-8.9-27.4c0-18.3,6.4-30.5,19.3-36.7c12.8-6.2,27.7-9.3,44.5-9.3
				c8.1,0,16.1,0.5,24.1,1.5c8.2,1,16.2,2,24.1,3V1427.6z"/>
			<path d="M1869.6,1721.9V884.2h154.2v837.7H1869.6z"/>
		</g>
		<g id="g8">
			<path id="path2-2" d="M1093,372.2c-53.6,0-87,39.8-87,108.8c0,63.4,29.3,112.2,86.1,112.2c54.5,0,90.2-44,90.2-113.8
				C1182.4,405.4,1142.5,372.2,1093,372.2L1093,372.2z"/>
			<path id="path4" d="M2530,556.6c0,23.6,11.4,42.4,43,42.4c37.4,0,77.2-26.8,79.7-87.7c-17-2.5-35.7-4.8-52.9-4.8
				C2562.4,506.3,2529.9,516.8,2530,556.6L2530,556.6z"/>
			<path id="path6-4" d="M0,0v837.7h2929.6V0H0z M852.3,665.6H698.7V459.2c0-63.4-21.1-87.7-62.5-87.7c-50.4,0-70.8,35.7-70.8,87
				v127.4h48.8v79.7H460.7V459.2c0-63.4-21.1-87.7-62.5-87.7c-50.4,0-70.8,35.7-70.8,87v127.4h69.9v79.7H173.9v-79.7h48.8V378.6
				h-48.8V299h153.5v55.2c22-39,60.2-62.5,111.3-62.5c52.9,0,101.5,25.2,119.5,78.8c20.4-48.8,61.8-78.8,119.5-78.8
				c65.8,0,126,39.8,126,126.7v167.5h48.8L852.3,665.6z M1088.9,673.6c-112.9,0-191-69-191-186c0-107.2,65-195.8,196.7-195.8
				s195.8,88.5,195.8,190.9C1290.5,599.7,1206,673.7,1088.9,673.6L1088.9,673.6z M1679.9,665.6h-320.2l-10.5-55.2l201.6-231.6
				h-114.5l-16.2,56.8l-75.6-8.2l13-128.5h321.8l8.2,55.2l-203.3,231.7h118.7l17.1-56.8l82.9,8L1679.9,665.6z M1889.1,665.6h-109.7
				V533.9h109.7L1889.1,665.6z M1889.1,430.6h-109.7V299h109.7L1889.1,430.6z M1957.6,665.6l158.5-559.1h103.3l-158.5,559.1H1957.6z
				 M2170.6,665.6L2329,106.5h103.3l-158.5,559.1H2170.6z M2733.1,673.6c-48.8,0-75.6-28.4-80.4-73.1
				c-21.1,37.3-58.4,73.1-117.8,73.1c-52.9,0-112.9-28.4-112.9-104.9c0-90.2,87-111.3,170.6-111.3c20.4,0,41.4,0.9,60.2,3.2v-12.1
				c0-37.4-0.9-82-60.2-82c-22,0-39,1.6-56.1,10.5l-11.9,41.3l-83.6-8.9l14.4-84.4c64.2-26.1,96.7-33.2,156.9-33.2
				c78.8,0,145.4,40.6,145.4,124.4v159.3c0,21.1,8.2,28.4,25.2,28.4c5.2-0.1,10.4-0.9,15.4-2.5l0.9,55.2
				C2779.4,667.2,2755.8,673.7,2733.1,673.6L2733.1,673.6z"/>
		</g>
	</g>
</g>
</svg>
