<svg xmlns="http://www.w3.org/2000/svg" viewBox="0 0 2929.58 1721.94"><defs><style>.cls-1{isolation:isolate;}.cls-2{fill:#fff;}</style></defs><g id="Livello_2" data-name="Livello 2"><g id="svg205"><g class="cls-1"><path class="cls-2" d="M0,1721.94V884.24H154.2v837.7Z"/><path class="cls-2" d="M135.6,1721.94V884.24H412.1v837.7ZM171.9,1564H375v-84.5H323.1v-312.8H375v-84.5H171.9v84.5h51.9v312.8H171.9Z"/><path class="cls-2" d="M397.3,1721.94V884.24H707.2v837.7Zm302.5-261.7-69.7-21.5c-3,24.7-9,39.7-18.2,44.9s-16.7,7.8-22.6,7.8q-37,0-37.1-43.7V1298H672.3v-68.2H552.2v-101.6H456.6v101.6H409.2V1298h47.4v166.1q0,51.9,33,79.7t88.6,27.8Q685.6,1571.34,699.8,1460.24Z"/><path class="cls-2" d="M692.4,1721.94V884.24H1083v837.7Zm57.8-468.6L735.4,1340l76.4,8.2,12.6-47.4a80.85,80.85,0,0,1,24.1-7.8,186.82,186.82,0,0,1,27.1-1.9q40.8,0,47.8,24.5a181,181,0,0,1,7,50.4v11.1q-22.95-3-54.9-3-57.15,0-106.4,20t-49.3,81.5q0,52.65,33.4,74.1c22.2,14.3,45.5,21.5,69.7,21.5,27.2,0,49.5-6.9,67.1-20.8s31-29.2,40.4-46v.7q7.35,66,73.4,66,31.2,0,60-15.6l-.7-50.4a48,48,0,0,1-14.1,2.2c-15.3,0-23-8.6-23-25.9v-145.3q0-57.15-39.3-85.3t-93.4-28.2c-27.2,0-50.5,2.1-70.1,6.3C803.7,1233.54,779.3,1241.54,750.2,1253.34Zm180.1,174.3c-2.5,26.2-11,45.3-25.6,57.5s-30.3,18.2-47.1,18.2c-14.3,0-24.5-3.7-30.4-11.1s-8.9-16.6-8.9-27.4c0-18.3,6.4-30.5,19.3-36.7s27.7-9.3,44.5-9.3a198.59,198.59,0,0,1,24.1,1.5c8.2,1,16.2,2,24.1,3v4.3Z"/><path class="cls-2" d="M1067.5,1721.94V884.24h225.4v837.7Zm20.7-157.9h184.6v-71.9h-44.5V1054H1084.5v72.7h48.2v365.5h-44.5Z"/><path class="cls-2" d="M1276.5,1721.94V884.24H1513v837.7Zm31.2-157.9h184.6v-71.9h-44.5v-262.4H1304v72.7h48.2v189.8h-44.5Zm40.7-493v99.3H1444V1071Z"/><path class="cls-2" d="M1498.2,1721.94V884.24h390.7v837.7Zm57.8-468.6-14.8,86.7,76.4,8.2,12.6-47.4a80.85,80.85,0,0,1,24.1-7.8,186.82,186.82,0,0,1,27.1-1.9q40.8,0,47.8,24.5a181,181,0,0,1,7,50.4v11.1q-23-3-54.9-3-57.15,0-106.4,20t-49.3,81.5q0,52.65,33.4,74.1c22.2,14.3,45.5,21.5,69.7,21.5,27.2,0,49.5-6.9,67.1-20.8s31-29.2,40.4-46v.7q7.35,66,73.4,66,31.2,0,60-15.6l-.7-50.4a48,48,0,0,1-14.1,2.2c-15.3,0-23-8.6-23-25.9v-145.3q0-57.15-39.3-85.3t-93.4-28.2c-27.2,0-50.5,2.1-70.1,6.3C1609.5,1233.54,1585.2,1241.54,1556,1253.34Zm180.1,174.3c-2.5,26.2-11,45.3-25.6,57.5s-30.3,18.2-47.1,18.2c-14.3,0-24.5-3.7-30.4-11.1s-8.9-16.6-8.9-27.4c0-18.3,6.4-30.5,19.3-36.7s27.7-9.3,44.5-9.3a198.59,198.59,0,0,1,24.1,1.5c8.2,1,16.2,2,24.1,3v4.3Z"/><path class="cls-2" d="M1869.6,1721.94V884.24h154.2v837.7Z"/></g><g id="g8"><path id="path2-2" class="cls-2" d="M1093,372.2c-53.61,0-87,39.84-87,108.83,0,63.43,29.3,112.21,86.13,112.21,54.49,0,90.23-44,90.23-113.82,0-74-39.84-107.22-89.35-107.22Z"/><path id="path4" class="cls-2" d="M2530,556.62c0,23.58,11.42,42.33,43.06,42.33,37.35,0,77.2-26.81,79.69-87.74-17-2.49-35.74-4.84-52.88-4.84-37.35-.14-69.87,10.4-69.87,50.25Z"/><path id="path6-4" class="cls-2" d="M0,0V837.71H2929.58V0ZM852.38,665.6H698.72V459.21c0-63.43-21.09-87.74-62.54-87.74-50.39,0-70.75,35.74-70.75,87V585.91H614.2V665.6H460.69V459.21c0-63.43-21.09-87.74-62.54-87.74-50.39,0-70.75,35.74-70.75,87V585.91h69.87V665.6H173.89V585.91h48.78V378.65H173.89V299H327.4v55.22c22-39,60.2-62.54,111.32-62.54,52.88,0,101.51,25.19,119.53,78.8,20.36-48.77,61.81-78.8,119.52-78.8,65.77,0,126,39.84,126,126.7V585.91h48.77l-.14,79.69Zm236.56,8c-112.94,0-191-69-191-186,0-107.22,65-195.84,196.72-195.84s195.84,88.48,195.84,190.86C1290.49,599.68,1206,673.65,1088.94,673.65Zm591-8h-320.2l-10.55-55.23,201.55-231.58H1436.24L1420,435.63l-75.58-8.21,13-128.46h321.81l8.21,55.22L1484.14,585.91h118.64l17.14-56.83,82.91,8Zm209.17,0H1779.44V533.91h109.71Zm0-235H1779.44V299h109.71Zm68.55,235,158.49-559.11h103.26L2061,665.6Zm213,0L2329,106.49h103.27L2273.8,665.6Zm562.47,8c-48.77,0-75.58-28.41-80.41-73.09-21.1,37.35-58.45,73.09-117.77,73.09-52.88,0-112.94-28.41-112.94-104.88,0-90.23,87-111.32,170.65-111.32,20.36,0,41.45.88,60.2,3.22V448.52c0-37.36-.88-82-60.2-82-22,0-39,1.61-56.1,10.54l-11.87,41.31-83.63-8.93L2455.43,325c64.16-26.07,96.68-33.25,156.88-33.25,78.8,0,145.45,40.58,145.45,124.36V575.37c0,21.09,8.2,28.41,25.19,28.41a55,55,0,0,0,15.38-2.49l.88,55.22c-19.77,10.7-43.35,17.14-66.06,17.14Z"/></g></g></g></svg>