<?xml version="1.0" encoding="UTF-8" standalone="no"?>
<!-- Generator: Adobe Illustrator 24.3.0, SVG Export Plug-In . SVG Version: 6.00 Build 0)  -->

<svg
   version="1.1"
   id="svg205"
   inkscape:export-filename="D:\Documents\xampp\htdocs\img\opengraph\logo-opengraph.png"
   inkscape:export-xdpi="96"
   inkscape:export-ydpi="96"
   inkscape:version="1.1 (c68e22c387, 2021-05-23)"
   sodipodi:docname="logo-opengraph.svg"
   x="0px"
   y="0px"
   viewBox="0 0 1200 629.99999"
   xml:space="preserve"
   width="1200"
   height="630"
   xmlns:inkscape="http://www.inkscape.org/namespaces/inkscape"
   xmlns:sodipodi="http://sodipodi.sourceforge.net/DTD/sodipodi-0.dtd"
   xmlns="http://www.w3.org/2000/svg"
   xmlns:svg="http://www.w3.org/2000/svg"><defs
   id="defs83" /><sodipodi:namedview
   id="namedview81"
   pagecolor="#ffffff"
   bordercolor="#666666"
   borderopacity="1.0"
   inkscape:pageshadow="2"
   inkscape:pageopacity="0.0"
   inkscape:pagecheckerboard="0"
   showgrid="false"
   inkscape:zoom="0.86730198"
   inkscape:cx="714.86059"
   inkscape:cy="403.55033"
   inkscape:window-width="1920"
   inkscape:window-height="1002"
   inkscape:window-x="-8"
   inkscape:window-y="-8"
   inkscape:window-maximized="1"
   inkscape:current-layer="svg205" />
<style
   type="text/css"
   id="style2">
	.st0{enable-background:new    ;}
	.st1{fill:#FFFFFF;}
	.st2{fill:#007CFF;}
	.st3{fill:#FF2300;}
	.st4{fill:#00BB00;stroke:#00BB00;stroke-miterlimit:10;}
	.st5{fill:#00BB00;}
</style>
<rect
   style="fill:#333333;fill-opacity:1;fill-rule:evenodd;stroke-width:0.214006"
   id="rect107"
   width="1200"
   height="630"
   x="0"
   y="0" />

<g
   id="g1180"
   transform="matrix(0.16394856,0,0,0.16394856,200.00001,173.84849)"><g
     class="st0"
     id="g20">
	<path
   class="st1"
   d="M 1950,1721.9 V 884.2 h 154.2 v 837.7 z"
   id="path4" />
	<path
   class="st1"
   d="M 2085.6,1721.9 V 884.2 h 276.5 v 837.7 z M 2121.9,1564 H 2325 v -84.5 h -51.9 v -312.8 h 51.9 v -84.5 h -203.1 v 84.5 h 51.9 v 312.8 h -51.9 z"
   id="path6" />
	<path
   class="st1"
   d="M 2347.3,1721.9 V 884.2 h 309.9 v 837.7 z m 302.5,-261.7 -69.7,-21.5 c -3,24.7 -9,39.7 -18.2,44.9 -9.2,5.2 -16.7,7.8 -22.6,7.8 -24.7,0 -37.1,-14.6 -37.1,-43.7 V 1298 h 120.1 v -68.2 h -120.1 v -101.6 h -95.6 v 101.6 h -47.4 v 68.2 h 47.4 v 166.1 c 0,34.6 11,61.2 33,79.7 22,18.5 51.5,27.8 88.6,27.8 71.6,-0.2 112.2,-37.3 121.6,-111.4 z"
   id="path8" />
	<path
   class="st1"
   d="M 2642.4,1721.9 V 884.2 H 3033 v 837.7 z m 57.8,-468.6 -14.8,86.7 76.4,8.2 12.6,-47.4 c 7.9,-4 15.9,-6.5 24.1,-7.8 8.2,-1.2 17.2,-1.9 27.1,-1.9 27.2,0 43.1,8.2 47.8,24.5 4.7,16.3 7,33.1 7,50.4 v 11.1 c -15.3,-2 -33.6,-3 -54.9,-3 -38.1,0 -73.5,6.7 -106.4,20 -32.9,13.3 -49.3,40.5 -49.3,81.5 0,35.1 11.1,59.8 33.4,74.1 22.2,14.3 45.5,21.5 69.7,21.5 27.2,0 49.5,-6.9 67.1,-20.8 17.5,-13.8 31,-29.2 40.4,-46 v 0.7 c 4.9,44 29.4,66 73.4,66 20.8,0 40.8,-5.2 60,-15.6 l -0.7,-50.4 c -4.9,1.5 -9.6,2.2 -14.1,2.2 -15.3,0 -23,-8.6 -23,-25.9 v -145.3 c 0,-38.1 -13.1,-66.5 -39.3,-85.3 -26.2,-18.8 -57.3,-28.2 -93.4,-28.2 -27.2,0 -50.5,2.1 -70.1,6.3 -19.5,4.6 -43.9,12.6 -73,24.4 z m 180.1,174.3 c -2.5,26.2 -11,45.3 -25.6,57.5 -14.6,12.1 -30.3,18.2 -47.1,18.2 -14.3,0 -24.5,-3.7 -30.4,-11.1 -5.9,-7.4 -8.9,-16.6 -8.9,-27.4 0,-18.3 6.4,-30.5 19.3,-36.7 12.8,-6.2 27.7,-9.3 44.5,-9.3 7.9,0 15.9,0.5 24.1,1.5 8.2,1 16.2,2 24.1,3 z"
   id="path10" />
	<path
   class="st1"
   d="M 3017.5,1721.9 V 884.2 h 225.4 v 837.7 z m 20.7,-157.9 h 184.6 v -71.9 h -44.5 V 1054 h -143.8 v 72.7 h 48.2 v 365.5 h -44.5 z"
   id="path12" />
	<path
   class="st1"
   d="M 3226.5,1721.9 V 884.2 H 3463 v 837.7 z m 31.2,-157.9 h 184.6 v -71.9 h -44.5 V 1229.7 H 3254 v 72.7 h 48.2 v 189.8 h -44.5 z m 40.7,-493 v 99.3 H 3394 V 1071 Z"
   id="path14" />
	<path
   class="st1"
   d="M 3448.2,1721.9 V 884.2 h 390.7 v 837.7 z m 57.8,-468.6 -14.8,86.7 76.4,8.2 12.6,-47.4 c 7.9,-4 15.9,-6.5 24.1,-7.8 8.2,-1.2 17.2,-1.9 27.1,-1.9 27.2,0 43.1,8.2 47.8,24.5 4.7,16.3 7,33.1 7,50.4 v 11.1 c -15.3,-2 -33.6,-3 -54.9,-3 -38.1,0 -73.5,6.7 -106.4,20 -32.9,13.3 -49.3,40.5 -49.3,81.5 0,35.1 11.1,59.8 33.4,74.1 22.2,14.3 45.5,21.5 69.7,21.5 27.2,0 49.5,-6.9 67.1,-20.8 17.5,-13.8 31,-29.2 40.4,-46 v 0.7 c 4.9,44 29.4,66 73.4,66 20.8,0 40.8,-5.2 60,-15.6 l -0.7,-50.4 c -4.9,1.5 -9.6,2.2 -14.1,2.2 -15.3,0 -23,-8.6 -23,-25.9 v -145.3 c 0,-38.1 -13.1,-66.5 -39.3,-85.3 -26.2,-18.8 -57.3,-28.2 -93.4,-28.2 -27.2,0 -50.5,2.1 -70.1,6.3 -19.5,4.6 -43.8,12.6 -73,24.4 z m 180.1,174.3 c -2.5,26.2 -11,45.3 -25.6,57.5 -14.6,12.1 -30.3,18.2 -47.1,18.2 -14.3,0 -24.5,-3.7 -30.4,-11.1 -5.9,-7.4 -8.9,-16.6 -8.9,-27.4 0,-18.3 6.4,-30.5 19.3,-36.7 12.8,-6.2 27.7,-9.3 44.5,-9.3 7.9,0 15.9,0.5 24.1,1.5 8.2,1 16.2,2 24.1,3 z"
   id="path16" />
	<path
   class="st1"
   d="M 3819.6,1721.9 V 884.2 h 154.2 v 837.7 z"
   id="path18" />
</g><g
     id="g8"
     transform="matrix(1.4647787,0,0,1.4647787,-100.08243,-546.11372)"
     inkscape:export-filename="Z:\Documents\Mozilla\Logo\Png\Tricolore\mozita logo tricolore-azzurro.png"
     inkscape:export-xdpi="59.022247"
     inkscape:export-ydpi="59.022247">
	<path
   id="path2-2"
   inkscape:connector-curvature="0"
   class="st1"
   d="m 2145.8,626.9 c -36.6,0 -59.4,27.2 -59.4,74.3 0,43.3 20,76.6 58.8,76.6 37.2,0 61.6,-30 61.6,-77.7 0,-50.5 -27.2,-73.2 -61,-73.2 z" />
	<path
   id="path23"
   inkscape:connector-curvature="0"
   class="st1"
   d="m 3126.8,752.8 c 0,16.1 7.8,28.9 29.4,28.9 25.5,0 52.7,-18.3 54.4,-59.9 -11.6,-1.7 -24.4,-3.3 -36.1,-3.3 -25.5,-0.1 -47.7,7.1 -47.7,34.3 z" />
	<path
   id="path6-4"
   inkscape:connector-curvature="0"
   class="st1"
   d="m 1399.6,372.8 v 571.9 h 2000 V 372.8 Z m 581.9,454.4 H 1876.6 V 686.3 c 0,-43.3 -14.4,-59.9 -42.7,-59.9 -34.4,0 -48.3,24.4 -48.3,59.4 v 87 h 33.3 v 54.4 H 1714.1 V 686.3 c 0,-43.3 -14.4,-59.9 -42.7,-59.9 -34.4,0 -48.3,24.4 -48.3,59.4 v 87 h 47.7 v 54.4 h -152.5 v -54.4 h 33.3 V 631.3 h -33.3 v -54.4 h 104.8 v 37.7 c 15,-26.6 41.1,-42.7 76,-42.7 36.1,0 69.3,17.2 81.6,53.8 13.9,-33.3 42.2,-53.8 81.6,-53.8 44.9,0 86,27.2 86,86.5 v 114.4 h 33.3 z m 161.5,5.5 c -77.1,0 -130.4,-47.1 -130.4,-127 0,-73.2 44.4,-133.7 134.3,-133.7 89.9,0 133.7,60.4 133.7,130.3 0,79.9 -57.7,130.4 -137.6,130.4 z m 403.5,-5.5 h -218.6 l -7.2,-37.7 137.6,-158.1 h -78.2 l -11.1,38.8 -51.6,-5.6 8.9,-87.7 H 2546 l 5.6,37.7 -138.8,158.2 h 81 l 11.7,-38.8 56.6,5.5 z m 142.8,0 h -74.9 v -89.9 h 74.9 z m 0,-160.4 h -74.9 v -89.9 h 74.9 z m 46.8,160.4 108.2,-381.7 h 70.5 l -108.2,381.7 z m 145.4,0 108.1,-381.7 h 70.5 l -108.2,381.7 z m 384,5.5 c -33.3,0 -51.6,-19.4 -54.9,-49.9 -14.4,25.5 -39.9,49.9 -80.4,49.9 -36.1,0 -77.1,-19.4 -77.1,-71.6 0,-61.6 59.4,-76 116.5,-76 13.9,0 28.3,0.6 41.1,2.2 V 679 c 0,-25.5 -0.6,-56 -41.1,-56 -15,0 -26.6,1.1 -38.3,7.2 l -8.1,28.2 -57.1,-6.1 9.8,-57.6 c 43.8,-17.8 66,-22.7 107.1,-22.7 53.8,0 99.3,27.7 99.3,84.9 v 108.7 c 0,14.4 5.6,19.4 17.2,19.4 3.3,0 6.7,-0.6 10.5,-1.7 l 0.6,37.7 c -13.5,7.3 -29.6,11.7 -45.1,11.7 z" />
</g><g
     id="g78">
	
		<g
   id="Sfondo_2_"
   transform="translate(-25,-92)"
   inkscape:export-filename="Z:\Documents\Mozilla\Icon\Png\Tricolour\tricolour 33x30.png"
   inkscape:export-xdpi="1.6044568"
   inkscape:export-ydpi="1.6044568">
		<g
   id="g30">
			<path
   id="Sfondo2_1_"
   inkscape:connector-curvature="0"
   class="st1"
   d="m 890,1812.9 c -474.9,0 -860,-385.1 -860,-860 0,-474.9 385.1,-860 860,-860 474.9,0 860,385.1 860,860 0,474.9 -385.1,860 -860,860 z" />
			<path
   class="st1"
   d="m 890,1817.9 c -116.8,0 -230,-22.9 -336.7,-68 C 450.3,1706.3 357.8,1644 278.3,1564.5 198.9,1485.1 136.5,1392.6 92.9,1289.5 47.9,1183 25,1069.7 25,953 25,836.3 47.9,723 93,616.3 136.6,513.3 198.9,420.8 278.4,341.3 357.9,261.8 450.3,199.5 553.4,155.9 660,110.8 773.2,88 890,88 c 116.8,0 230,22.9 336.7,68 103,43.6 195.5,105.9 275,185.4 79.5,79.5 141.8,171.9 185.4,275 45.1,106.6 68,219.9 68,336.7 0,116.8 -22.9,230 -68,336.7 -43.6,103 -105.9,195.5 -185.4,275 -79.4,79.4 -171.9,141.8 -275,185.4 -106.7,44.9 -219.9,67.7 -336.7,67.7 z M 890,98 C 418.6,98 35,481.5 35,953 c 0,471.4 383.6,855 855,855 471.4,0 855,-383.6 855,-855 C 1745,481.5 1361.4,98 890,98 Z"
   id="path28" />
		</g>
		<path
   id="Sfondo1_2_"
   inkscape:connector-curvature="0"
   class="st2"
   d="M 890,1764.6 C 441.7,1764.6 78.3,1401.2 78.3,952.9 78.3,504.6 441.7,141.3 890,141.3 c 448.3,0 811.7,363.4 811.7,811.7 0,448.3 -363.4,811.6 -811.7,811.6 z" />
	</g>
	
		<g
   id="Dinosauro_1_"
   transform="translate(-25,-92)"
   inkscape:export-filename="Z:\Documents\Mozilla\Icon\Png\Tricolour\tricolour 33x30.png"
   inkscape:export-xdpi="1.6044568"
   inkscape:export-ydpi="1.6044568">
		<g
   id="g133_1_">
			<path
   id="path129_1_"
   inkscape:connector-curvature="0"
   class="st1"
   d="m 770.6,697.7 c 3,-0.2 6.1,0.2 9,0.9 6.5,3.5 2.1,11.3 0.5,17.1 -34.5,103.9 -54.3,188.8 -114.8,195.8 -84,16.4 -139,-52.5 -103.5,-77.1 56.9,-34.2 56.9,-34.2 88.8,-55.9 C 676,758.2 699,735 726,716.8 c 13.5,-9.2 28.2,-17.6 44.6,-19.1 z" />
			<path
   id="path131_1_"
   inkscape:connector-curvature="0"
   class="st1"
   d="m 665.3,911.5 c -84,16.4 -139,-52.5 -103.5,-77.1 56.9,-34.2 56.9,-34.2 88.8,-55.9 29.4,-22.6 92.5,-89.3 129,-79.9 6.5,3.5 2.1,11.3 0.5,17.1 -34.5,103.8 -54.2,188.7 -114.8,195.8" />
		</g>
		<g
   id="g139_1_">
			<path
   id="path135_1_"
   inkscape:connector-curvature="0"
   class="st1"
   d="m 549.5,1297.7 11.1,9.2" />
			<path
   id="path137_1_"
   inkscape:connector-curvature="0"
   class="st1"
   d="m 549.5,1297.7 11.1,9.2" />
		</g>
		<path
   id="path141_1_"
   inkscape:connector-curvature="0"
   class="st1"
   d="m 514,1390.5 v 0" />
		<g
   id="g147_1_">
			<path
   id="path143_1_"
   inkscape:connector-curvature="0"
   class="st1"
   d="m 519.1,1390.5 c -4.7,-1.4 -5.1,-1.8 -5.1,-5 0,-36.5 11.4,-59.6 35.6,-87.8 8.1,28.7 36.5,47.1 59.2,65.2 1.8,1.4 -46.9,23.3 -86,27.6" />
			<path
   id="path145_1_"
   inkscape:connector-curvature="0"
   class="st1"
   d="m 519.1,1390.5 c -4.7,-1.4 -5.1,-1.8 -5.1,-5 0,-36.5 11.4,-59.6 35.6,-87.8 8.1,28.7 36.5,47.1 59.2,65.2 1.8,1.4 -46.9,23.3 -86,27.6" />
		</g>
		<g
   id="g153_1_">
			<path
   id="path149_1_"
   inkscape:connector-curvature="0"
   class="st1"
   d="m 935.3,160.4 c 15.9,0.7 25.8,9.5 31.8,23.5 18.7,45.2 20.8,55.3 29.5,69.8 23.6,39.3 43.3,65.2 37,63.7 -66.8,-15.4 -121,-29.7 -198.6,-17.5 -28.1,4.4 -52,15.7 -77.6,27.7 22.5,-50 59.1,-94.3 101,-129.2 21.9,-18.3 47.6,-36.7 76.9,-38 z" />
			<path
   id="path151_1_"
   inkscape:connector-curvature="0"
   class="st1"
   d="m 757.3,327.6 c 33.7,-82.7 177,-223.1 209.8,-143.7 18.7,45.2 20.8,55.3 29.5,69.8 23.6,39.3 43.3,65.2 37,63.7 -66.8,-15.4 -121,-29.7 -198.6,-17.5 -28.1,4.4 -52,15.7 -77.7,27.7" />
		</g>
		<g
   id="g159_1_">
			<path
   id="path155_1_"
   inkscape:connector-curvature="0"
   class="st1"
   d="m 1321.9,512.4 c 12.5,0 70.9,1.6 53.7,28.2 -15.2,22.1 -18.2,48.7 -29.4,63.8 -16.1,-26.7 -16.1,-26.7 -59.8,-88.3 11.6,-2.8 23.6,-3.4 35.5,-3.7 z" />
			<path
   id="path157_1_"
   inkscape:connector-curvature="0"
   class="st1"
   d="m 1346.1,604.4 c -16.1,-26.7 -16.1,-26.7 -59.8,-88.3 34.2,-8.4 108.8,-4.2 89.1,24.4 -15.1,22.3 -18.1,48.8 -29.3,63.9" />
		</g>
		<g
   id="g165_1_">
			<path
   id="path161_1_"
   inkscape:connector-curvature="0"
   class="st1"
   d="m 910.4,370.6 c 41.4,0 82.8,6 121.6,20.6 202.5,78.4 302.2,303.5 394.3,482.8 50.7,109.5 50.7,109.5 70.7,156.6 -0.5,0 -1,0 -1,0.5 C 1426.2,885.1 1350.8,741 1259.2,607 1210.4,544.7 1159.6,481.9 1087,446 968.6,387.5 859.7,385.7 737.1,451.8 665.5,490.5 597.5,560.2 555.6,631.3 c -49,83.1 -88.9,136.9 -121,242.9 -23.4,77.2 -35,111.3 -41.7,149.5 -28.6,163.4 -25.8,224.2 -10.8,316 9,55 36.7,99.1 72.5,124.3 16.4,11.5 52.2,21.5 59.3,22.7 63.6,10.7 95.8,2.8 157.6,-14.3 172.7,-64.7 303.1,-195.4 359.6,-367.3 26.1,-114.1 31.7,-248.6 -38.4,-348.8 0,-0.5 0,-0.5 0.5,-0.5 18.1,5.5 32.4,21 41.3,37 27.6,49.7 36.1,131.4 36.1,188.6 0,144.6 -16.1,170.3 -50.3,256.2 -30.4,55.4 -57.4,97.8 -107.2,150.2 -25.3,26.5 -86.8,69.3 -87.3,69.8 -97.3,63.3 -222.5,120.1 -340.7,93.3 -25.3,-5.7 -49.5,-17.9 -66.4,-33.7 -153.2,-142.6 -86.3,-419.3 -37.3,-594 15,-53.7 35.9,-101.5 51.7,-137.3 63.4,-143 132.7,-262.4 287.8,-363.2 44.3,-28.5 95.9,-44.1 148.1,-49.6 18.2,-2.2 23.2,-1.9 41.4,-2.5 z" />
			<path
   id="path163_1_"
   inkscape:connector-curvature="0"
   class="st1"
   d="m 1497,1030.7 c -0.5,0 -1,0 -1,0.5 -69.8,-146 -145.2,-290.1 -236.8,-424.1 -48.8,-62.3 -99.6,-125.1 -172.2,-161 -118.4,-58.5 -227.3,-60.3 -349.9,5.8 -71.6,38.6 -139.6,108.3 -181.5,179.4 -49,83.1 -88.9,136.9 -121,242.9 -23.4,77.2 -35,111.3 -41.7,149.5 -28.6,163.4 -25.8,224.2 -10.8,316 9,55 36.7,99.1 72.5,124.3 16.4,11.5 52.2,21.5 59.3,22.7 63.6,10.7 95.8,2.8 157.6,-14.3 172.7,-64.7 303.1,-195.4 359.6,-367.3 26.1,-114.1 31.7,-248.6 -38.4,-348.8 0,-0.5 0,-0.5 0.5,-0.5 18.1,5.5 32.4,21 41.3,37 27.6,49.7 36.1,131.4 36.1,188.6 0,144.6 -16.1,170.3 -50.3,256.2 -30.4,55.4 -57.4,97.8 -107.2,150.2 -25.3,26.5 -86.8,69.3 -87.3,69.8 -97.3,63.3 -222.5,120.1 -340.7,93.3 -25.3,-5.7 -49.5,-17.9 -66.4,-33.7 -153.2,-142.6 -86.3,-419.3 -37.3,-594 15,-53.7 35.9,-101.5 51.7,-137.3 63.4,-143 132.7,-262.4 287.8,-363.2 93.1,-60.3 226.1,-64.2 311.2,-31.2 202.5,78.4 302.2,303.5 394.3,482.8 50.7,109.3 50.7,109.3 70.6,156.4" />
		</g>
		<g
   id="g171_1_">
			<path
   id="path167_1_"
   inkscape:connector-curvature="0"
   class="st1"
   d="m 1237,323.6 c 14.3,0.1 8.2,-0.2 18.5,0.4 6.3,1.5 22.5,2.6 25.9,14 1.4,4.5 3.9,5.2 -16.9,55.6 -6.5,15.7 -12.8,37.7 -20.6,70.4 -4.1,-1.4 -43.6,-43 -67.2,-60.7 -12.2,-9.8 -57.4,-41.5 -68.1,-47.4 -4.2,-2.4 82.3,-26.3 82.3,-26.3 11.4,-2.7 23,-4.4 34.7,-5.3 3.8,-0.4 7.6,-0.5 11.4,-0.7 z" />
			<path
   id="path169_1_"
   inkscape:connector-curvature="0"
   class="st1"
   d="m 1108.6,355.9 c -4.2,-2.4 82.3,-26.3 82.3,-26.3 0,0 30.9,-8 64.7,-5.5 6.3,1.5 22.5,2.6 25.9,14 1.4,4.5 3.9,5.2 -16.9,55.6 -6.5,15.7 -12.8,37.7 -20.6,70.4 -4.1,-1.4 -43.6,-43 -67.2,-60.7 -12.3,-10 -57.5,-41.6 -68.2,-47.5 z" />
		</g>
		<g
   id="g177_1_">
			<path
   id="path173_1_"
   inkscape:connector-curvature="0"
   class="st1"
   d="m 1080.8,817.6 c 12.8,0.2 25.5,2.1 38,4.1 41.3,3.9 44.6,13.4 40.5,15.7 -19.3,11.1 -17.6,8.8 -37.3,25.8 -14.5,12.6 -36,41.8 -36.3,36.5 -0.3,-5.3 -3.7,-29.6 -6.3,-44.3 -2.7,-14.7 -8.3,-31.5 -9.1,-34.7 -0.4,-3.4 8.7,-3 10.5,-3.1 z" />
			<path
   id="path175_1_"
   inkscape:connector-curvature="0"
   class="st1"
   d="m 1070.4,820.8 c 1,3.2 6.6,20 9.1,34.7 2.7,14.7 6,39.1 6.3,44.3 0.3,5.2 21.8,-24 36.3,-36.5 19.7,-17 18,-14.7 37.3,-25.8 4.1,-2.4 0.8,-11.8 -40.5,-15.7 -21.7,-3.7 -50.2,-6.6 -48.5,-1 z" />
		</g>
	</g>
	<g
   id="Anelli_1_"
   transform="translate(-25,-92)"
   inkscape:export-xdpi="9.0919218"
   inkscape:export-ydpi="9.0919218">
		<g
   id="g63">
			<path
   id="Rosso_2_"
   inkscape:connector-curvature="0"
   class="st3"
   d="m 1777.2,551.3 h 5.5 l 2.7,0.1 h 2.3 l 4.5,0.1 4.5,0.1 4.4,0.2 4.4,0.2 4.3,0.3 4.2,0.3 4.2,0.3 4.1,0.4 4,0.4 4,0.5 3.9,0.5 3.9,0.5 3.8,0.6 3.7,0.6 3.7,0.7 3.6,0.7 3.5,0.7 3.5,0.8 3.4,0.8 3.3,0.9 3.3,0.9 3.2,0.9 3.1,1 3.1,1 3,1.1 3,1.1 2.9,1.1 2.9,1.2 2.9,1.2 2.8,1.3 2.7,1.3 2.7,1.3 2.6,1.4 2.5,1.4 2.5,1.5 2.4,1.5 2.3,1.5 2.3,1.6 2.2,1.6 2.1,1.7 2.1,1.7 2,1.7 1.9,1.8 1.9,1.8 1.8,1.9 1.7,1.9 1.7,1.9 1.6,2 1.5,2 1.5,2.1 1.4,2.1 1.3,2.2 1.2,2.2 1.2,2.2 1.1,2.3 1,2.3 1,2.4 0.9,2.4 0.8,2.4 0.8,2.5 0.7,2.5 0.6,2.6 0.6,2.6 0.3,1.3 v 0 l 0.2,1.2 0.4,2.4 0.4,2.4 0.3,2.4 0.3,2.4 0.3,2.5 0.2,2.5 0.2,2.5 0.2,2.5 0.1,2.5 0.1,2.5 0.1,2.5 v 2.5 2.6 2.6 2.6 l -0.1,2.6 -0.1,2.6 -0.2,3.8 -0.4,5.1 -0.5,5.2 -0.6,5.2 -0.7,5.2 -0.8,5.2 -0.9,5.3 -1,5.3 -1.1,5.3 -1.2,5.3 -1.3,5.3 -1.4,5.3 -1.5,5.3 -1.5,5.4 -1.6,5.4 -1.7,5.4 -1.8,5.4 -1.8,5.3 -1.9,5.3 -2,5.3 -2,5.3 -2.1,5.3 -2.1,5.3 -2.2,5.3 -2.2,5.2 -2.3,5.2 -2.3,5.2 -2.4,5.2 -2.4,5.1 -2.5,5.1 -2.5,5.1 -2.5,5 -2.6,5 -2.6,4.9 -2.6,4.9 -2.6,4.8 -2.7,4.8 -2.7,4.7 -2.7,4.7 -2.7,4.6 -2.7,4.5 -2.7,4.5 -2.7,4.4 -2.7,4.3 -2.7,4.3 -2.7,4.2 -2.7,4.1 -2.7,4 -2.7,4 -2.7,3.9 -2.6,3.8 -2.6,3.7 -2.6,3.6 -2.6,3.5 -2.5,3.4 -1.2,1.7 v 0 l -2.8,3.7 -5.5,7.5 -5.5,7.4 -5.5,7.4 -5.6,7.3 -5.6,7.3 -5.6,7.2 -5.6,7.2 -5.6,7.1 -5.7,7 -5.7,7 -5.7,6.9 -5.7,6.9 -5.7,6.8 -5.7,6.8 -5.7,6.7 -5.7,6.7 -5.7,6.6 -5.7,6.6 -5.7,6.5 -5.7,6.4 -5.7,6.4 -5.7,6.3 -5.7,6.3 -5.7,6.2 -5.7,6.2 -5.7,6.1 -5.7,6.1 -5.7,6 -5.7,5.9 -5.7,5.9 -5.7,5.8 -5.7,5.8 -5.7,5.7 -5.7,5.7 -5.7,5.6 -5.7,5.5 -5.6,5.5 -5.6,5.4 -5.6,5.4 -5.6,5.3 -5.6,5.3 -5.6,5.2 -5.5,5.1 -5.5,5.1 -5.5,5 -5.5,5 -5.5,4.9 -5.4,4.9 -5.4,4.8 -5.4,4.7 -5.3,4.7 -5.3,4.6 -5.3,4.6 -5.3,4.5 -5.2,4.5 -5.2,4.4 -5.1,4.3 -5.1,4.3 -5.1,4.2 -5,4.2 -5,4.1 -5,4 -4.9,4 -4.9,3.9 -4.8,3.9 -4.8,3.8 -4.7,3.7 -4.7,3.7 -4.7,3.6 -4.6,3.6 -4.6,3.5 -4.5,3.5 -4.5,3.4 -4.4,3.3 -4.3,3.3 -4.3,3.2 -4.2,3.1 -4.2,3.1 -4.1,3 -4.1,3 -4,2.9 -3.9,2.9 -3.9,2.9 -3.8,2.8 -3.8,2.8 -3.7,2.7 -3.6,2.6 -3.6,2.6 -3.5,2.5 -3.4,2.5 -3.3,2.4 -3.3,2.3 -3.2,2.3 -3.1,2.2 -3.1,2.2 -3,2.1 -2.9,2 -2.9,2 -2.9,1.9 -2.8,1.8 -2.7,1.8 -2.6,1.7 -2.5,1.7 -2.4,1.6 -2.4,1.5 -2.3,1.5 -1.6,1.1 -1.1,0.7 -1,0.7 -1,0.7 -1,0.6 -1,0.6 -1,0.6 -0.9,0.6 -0.9,0.6 -0.9,0.6 -0.9,0.5 -0.8,0.5 -0.8,0.5 -0.8,0.5 -0.8,0.5 -0.8,0.5 -0.7,0.5 -0.7,0.4 -0.7,0.4 -0.7,0.4 -0.6,0.4 -0.6,0.4 -0.6,0.4 -0.6,0.3 -0.5,0.3 -0.5,0.3 -0.5,0.3 -0.5,0.3 -0.4,0.3 -0.4,0.2 -0.4,0.2 -0.4,0.2 -0.3,0.2 -0.3,0.2 -0.3,0.2 -0.2,0.1 -0.2,0.1 -0.2,0.1 -0.2,0.1 -0.1,0.1 -0.1,0.1 h -0.1 v 0 0 l -8.2,4.9 -16.4,9.8 -16.5,9.8 -16.5,9.7 -16.5,9.7 -12.4,7.2 -8.3,4.8 -8.3,4.7 -8.2,4.7 -8.2,4.7 -8.2,4.6 -8.1,4.6 -8.1,4.6 -8,4.5 -8,4.5 -7.9,4.4 -7.8,4.4 -7.8,4.3 -7.7,4.3 -7.6,4.2 -5.6,3.1 -3.7,2.1 -3.7,2.1 -3.6,2.1 -3.6,2.1 -3.6,2.1 -3.6,2 -3.5,2 -3.5,2 -3.5,2 -3.4,2 -3.4,1.9 -3.4,1.9 -3.4,1.9 -3.3,1.9 -3.3,1.9 -3.3,1.8 -3.2,1.8 -3.2,1.8 -3.1,1.8 -3.1,1.8 -3.1,1.7 -3,1.7 -3,1.7 -3,1.7 -2.9,1.7 -2.9,1.6 -2.9,1.6 -2.9,1.6 -2.9,1.6 -2.8,1.5 -2.8,1.5 -2.7,1.5 -2.7,1.5 -2.6,1.4 -2.6,1.4 -2.5,1.4 -2.5,1.4 -2.5,1.3 -2.4,1.3 -2.4,1.3 -2.3,1.2 -2.3,1.2 -2.2,1.2 -2.2,1.2 -2.1,1.1 -2,1.1 -2,1.1 -1.9,1 -1.9,1 -1.8,1 -1.8,1 -1.7,0.9 -1.7,0.9 -1.6,0.9 -1.5,0.8 -1.5,0.8 -1.4,0.8 -1.4,0.7 -1.3,0.7 -1.2,0.7 -1.2,0.6 -1.1,0.6 -1,0.6 -1,0.5 -0.9,0.5 -0.8,0.5 -0.8,0.4 -0.7,0.4 -0.6,0.3 -0.6,0.3 -0.5,0.3 -0.4,0.2 -0.4,0.2 -0.3,0.2 -0.2,0.1 -0.2,0.1 h -0.1 v 0 l -0.3,0.1 c -0.3,0.2 -0.2,0.1 -0.4,0.2 -0.9,0.4 -0.4,0.2 -1.6,0.6 -1.1,0.4 -0.6,0.3 -1.4,0.5 -0.8,0.3 -0.3,0.1 -1.5,0.4 -1.2,0.3 -0.7,0.2 -1.5,0.3 -0.8,0.2 -0.3,0.1 -1.4,0.2 -1.2,0.2 -0.7,0.1 -1.6,0.1 -0.3,0 -0.1,0 -0.4,0 h -0.3 -0.3 -0.3 -0.2 c -0.3,0 -0.2,0 -0.3,-0.1 -0.6,-0.1 -0.3,0 -0.8,-0.3 -0.5,-0.2 -0.4,0 -0.5,-0.3 -0.2,-0.2 -0.2,0 -0.1,-0.4 -0.1,-0.4 -0.1,-0.2 0.1,-0.5 0.1,-0.4 0,-0.1 0.5,-0.6 0.4,-0.5 0.2,-0.3 0.7,-0.7 0.2,-0.1 0.1,-0.1 0.3,-0.2 l 0.2,-0.1 v 0 0 l 0.1,-0.1 0.1,-0.1 0.2,-0.1 0.2,-0.1 0.3,-0.2 0.3,-0.2 0.4,-0.2 0.4,-0.2 0.4,-0.3 0.5,-0.3 0.5,-0.3 0.6,-0.4 0.6,-0.4 0.7,-0.4 0.7,-0.4 0.7,-0.5 0.8,-0.5 0.8,-0.5 0.9,-0.5 0.9,-0.6 0.9,-0.6 1,-0.6 1,-0.6 1.1,-0.7 1.1,-0.7 1.1,-0.7 1.2,-0.7 1.2,-0.8 1.2,-0.8 1.3,-0.8 1.3,-0.8 1.4,-0.8 1.4,-0.9 1.4,-0.9 1.5,-0.9 1.5,-0.9 1.5,-1 1.6,-1 1.6,-1 1.6,-1 1.7,-1 1.7,-1.1 1.7,-1.1 1.8,-1.1 1.8,-1.1 1.8,-1.2 1.9,-1.2 1.9,-1.2 1.9,-1.2 2,-1.2 2,-1.3 2,-1.3 2,-1.3 2.1,-1.3 2.1,-1.3 2.1,-1.3 2.2,-1.4 2.2,-1.4 2.2,-1.4 2.2,-1.4 2.3,-1.4 2.3,-1.5 2.3,-1.5 2.3,-1.5 2.4,-1.5 2.4,-1.5 2.4,-1.5 2.5,-1.6 2.5,-1.6 2.5,-1.6 2.5,-1.6 2.5,-1.6 2.6,-1.6 2.6,-1.7 2.6,-1.7 2.6,-1.7 3.9,-2.6 5.3,-3.4 5.4,-3.4 5.5,-3.5 5.6,-3.6 5.6,-3.6 5.7,-3.7 5.8,-3.7 5.8,-3.8 5.9,-3.8 6,-3.9 6,-3.9 6.1,-4 6.1,-4 6.2,-4.1 6.2,-4.1 6.3,-4.1 6.3,-4.2 6.4,-4.2 6.4,-4.3 6.5,-4.3 6.5,-4.3 6.5,-4.4 6.6,-4.4 6.6,-4.4 6.6,-4.5 6.6,-4.5 6.7,-4.5 6.7,-4.5 10,-6.9 13.4,-9.2 13.5,-9.3 13.5,-9.4 13.5,-9.4 13.4,-9.5 13.4,-9.5 13.3,-9.6 13.2,-9.6 13.1,-9.6 9.7,-7.2 6.4,-4.8 6.4,-4.8 6.4,-4.8 6.3,-4.8 6.3,-4.8 6.2,-4.7 6.2,-4.7 6.1,-4.7 6,-4.7 6,-4.7 5.9,-4.7 5.9,-4.7 5.8,-4.6 5.7,-4.6 5.6,-4.6 5.6,-4.6 5.5,-4.6 5.4,-4.5 5.3,-4.5 5.2,-4.5 5.2,-4.4 5.1,-4.4 5,-4.4 4.9,-4.3 4.8,-4.3 4.7,-4.3 4.6,-4.2 4.5,-4.2 3.3,-3.1 2.2,-2.1 2.2,-2.1 2.1,-2.1 2.1,-2.1 2.1,-2.1 2.1,-2.1 2,-2.1 2,-2 2,-2 1.9,-2 1.9,-2 1.9,-2 1.8,-2 1.8,-2 1.8,-2 1.8,-1.9 1.7,-1.9 1.7,-1.9 1.7,-1.9 1.6,-1.9 1.6,-1.9 0.8,-0.9 c 0.1,-0.1 0.2,-0.2 0.3,-0.3 l 2.2,-2 4.2,-4 4.2,-4 4.2,-4 4.1,-4 4.1,-4 4,-4 4,-4 6,-6.1 5.9,-6.1 3.9,-4 3.8,-4 3.8,-4 3.8,-4 3.7,-4 3.7,-4 3.6,-4 3.6,-4 3.6,-4 3.5,-4 3.5,-4 3.5,-4 3.4,-3.9 3.4,-3.9 3.4,-3.9 3.3,-3.9 3.3,-3.9 3.2,-3.9 3.2,-3.9 3.2,-3.9 3.1,-3.9 3.1,-3.8 3.1,-3.8 3,-3.8 3,-3.8 3,-3.8 2.9,-3.8 2.9,-3.8 2.9,-3.7 2.9,-3.7 2.9,-3.7 2.8,-3.7 2.8,-3.7 2.8,-3.6 2.7,-3.6 2.7,-3.6 2.7,-3.6 2.6,-3.6 2.6,-3.5 2.6,-3.5 2.5,-3.5 2.5,-3.5 2.5,-3.4 2.4,-3.4 2.4,-3.4 2.4,-3.4 2.3,-3.3 2.3,-3.3 2.3,-3.3 2.2,-3.2 2.2,-3.2 2.2,-3.2 2.1,-3.1 2.1,-3.1 2.1,-3.1 2,-3.1 2,-3 1.9,-3 1.9,-2.9 1.9,-2.9 1.8,-2.9 1.8,-2.9 1.8,-2.9 1.7,-2.9 1.7,-2.8 1.7,-2.8 1.6,-2.8 1.6,-2.7 1.6,-2.7 1.5,-2.6 1.5,-2.6 1.5,-2.5 1.4,-2.5 1.4,-2.5 1.4,-2.4 1.3,-2.4 1.3,-2.3 1.3,-2.3 1.2,-2.2 1.2,-2.2 1.2,-2.1 1.1,-2.1 1.1,-2 1.1,-2 1.1,-2 1,-1.9 1,-1.8 1,-1.8 0.9,-1.7 0.9,-1.7 0.9,-1.6 0.8,-1.6 0.8,-1.5 0.8,-1.5 0.7,-1.4 0.7,-1.4 0.7,-1.3 0.6,-1.3 0.6,-1.2 0.6,-1.1 0.5,-1.1 0.5,-1 0.5,-1 0.4,-0.9 0.4,-0.8 0.4,-0.8 0.3,-0.7 0.3,-0.7 0.3,-0.6 0.2,-0.5 0.2,-0.5 0.2,-0.4 0.2,-0.3 0.1,-0.3 0.1,-0.2 0.1,-0.1 v -0.1 -3.7 -0.1 l 0.1,-0.2 0.1,-0.2 0.1,-0.3 0.1,-0.3 0.2,-0.4 0.2,-0.4 0.2,-0.5 0.2,-0.5 0.2,-0.6 0.3,-0.6 0.3,-0.7 0.3,-0.7 0.3,-0.8 0.3,-0.8 0.3,-0.9 0.4,-0.9 0.4,-1 0.4,-1 0.4,-1 0.4,-1.1 0.4,-1.1 0.4,-1.2 0.4,-1.2 0.5,-1.2 0.5,-1.3 0.5,-1.3 0.5,-1.3 0.5,-1.4 0.5,-1.4 0.5,-1.5 0.5,-1.5 0.5,-1.5 0.5,-1.6 0.8,-2.4 1.1,-3.2 1.1,-3.3 1.1,-3.4 1.1,-3.5 1.1,-3.6 1.1,-3.7 1.1,-3.8 1.1,-3.9 1.1,-4 1.1,-4.1 1,-4.1 1,-4.2 1,-4.2 0.9,-4.3 0.9,-4.3 0.8,-4.4 0.8,-4.4 0.7,-4.4 0.7,-4.5 0.6,-4.5 0.6,-4.5 0.5,-4.5 0.4,-4.5 0.3,-4.5 0.2,-4.5 0.2,-4.4 0.1,-4.4 v -4.4 l -0.1,-4.4 -0.2,-3.2 -0.2,-2.2 -0.2,-2.2 -0.2,-2.2 -0.2,-2.2 -0.3,-2.2 -0.3,-2.1 -0.3,-2.1 -0.4,-2.1 -0.4,-2.1 -0.4,-2.1 -0.5,-2.1 -0.5,-2 -0.5,-2 -0.6,-2 -0.6,-2 -0.6,-2 -0.7,-1.9 -0.7,-1.9 -0.7,-1.9 -0.8,-1.9 -0.8,-1.8 -0.8,-1.8 -0.9,-1.8 -0.9,-1.8 -1,-1.7 -1,-1.7 -1,-1.7 -1.1,-1.6 -1.1,-1.6 -1.2,-1.6 -1.2,-1.5 -0.6,-0.8 -0.9,-1 -1.8,-2.1 -1.8,-2.1 -1.9,-2 -2,-2 -2,-2 -2.1,-2 -2.2,-1.9 -2.2,-1.9 -2.3,-1.9 -2.4,-1.8 -2.5,-1.8 -2.6,-1.8 -2.7,-1.7 -2.8,-1.7 -2.9,-1.7 -2.2,-1.2 -1.5,-0.8 -1.5,-0.8 -1.6,-0.8 -1.6,-0.8 -1.6,-0.8 -1.7,-0.8 -1.7,-0.7 -1.7,-0.7 -1.8,-0.7 -1.8,-0.7 -1.8,-0.7 -1.8,-0.7 -1.9,-0.7 -1.9,-0.7 -1.9,-0.6 -2,-0.6 -2,-0.6 -2,-0.6 -2.1,-0.6 -2.1,-0.6 -2.2,-0.6 -2.2,-0.6 -2.2,-0.5 -2.3,-0.5 -2.3,-0.5 -2.3,-0.5 -2.4,-0.5 -2.4,-0.5 -2.5,-0.5 -2.5,-0.4 -2.6,-0.4 -1.3,-0.2 v 0 l -1.3,-0.2 -2.6,-0.4 -2.6,-0.4 -2.5,-0.4 -2.4,-0.4 -2.3,-0.3 -2.3,-0.3 -2.2,-0.3 -2.1,-0.3 -2.1,-0.3 -2,-0.3 -1.9,-0.2 -1.9,-0.2 -1.8,-0.2 -1.8,-0.2 -1.7,-0.2 -1.6,-0.2 -1.6,-0.2 -1.5,-0.1 -1.5,-0.1 -1.4,-0.1 -1.3,-0.1 -1.3,-0.1 -1.2,-0.1 -1.2,-0.1 -1.1,-0.1 -1.1,-0.1 h -1 -1 -0.9 -0.9 -0.8 -0.8 -0.7 -0.7 -0.6 -0.6 -0.5 -0.5 -0.4 -0.5 -0.6 -0.1 -0.1 l -0.2,0.1 h -0.2 -0.1 c -2.3,0.4 -5.6,1.4 -7.7,0 -0.1,-0.1 -0.1,-0.3 -0.2,-0.4 -0.1,-0.7 0.9,-1.7 2.6,-2.6 v 0 l 0.7,-0.3 1,-0.5 1.2,-0.5 1.3,-0.4 1.4,-0.4 1.3,-0.3 1.3,-0.3 h 0.2 l 0.4,-0.1 0.8,-0.2 0.9,-0.2 0.9,-0.2 1,-0.2 1.1,-0.2 1.1,-0.2 1.2,-0.2 1.2,-0.3 1.3,-0.3 1.4,-0.3 1.4,-0.3 1.5,-0.3 1.5,-0.3 1.6,-0.3 1.6,-0.3 1.7,-0.3 1.7,-0.3 1.8,-0.3 1.8,-0.3 1.9,-0.3 1.9,-0.3 2,-0.3 2,-0.3 2.1,-0.3 2.1,-0.3 2.1,-0.3 2.2,-0.3 2.2,-0.3 2.3,-0.3 2.3,-0.3 2.3,-0.3 2.4,-0.3 2.4,-0.3 2.4,-0.3 2.5,-0.3 2.5,-0.2 3.7,-0.3 5,-0.4 5.1,-0.4 5.2,-0.3 5.3,-0.3 5.4,-0.2 5.4,-0.1 z m -105.8,17.5 z" />
			<path
   class="st3"
   d="m 923.5,1664 c -0.2,0 -0.3,0 -0.5,0 0,0 -0.1,0 -0.2,0 h -1.5 c -0.7,0 -1.4,-0.1 -1.9,-0.3 -0.4,-0.1 -0.8,-0.3 -1.2,-0.5 -1,-0.3 -1.8,-0.9 -2.4,-1.7 -0.9,-1 -1.3,-2.3 -1.2,-3.6 0,-1 0.2,-2 0.7,-2.8 0.3,-0.7 0.8,-1.2 1.3,-1.7 0.3,-0.4 0.6,-0.6 1,-1 l 0.7,-0.5 v 0 l 0.3,-0.3 3.4,-2 1.4,-0.9 1.2,-0.7 0.7,-0.5 15.7,-9.8 1.3,-0.7 2.8,-1.8 2.8,-1.7 1.5,-1 13.2,-8.2 1.8,-1.2 5.7,-3.6 1.9,-1.1 5.9,-3.8 17.1,-10.7 6.7,-4.4 22,-13.9 16.9,-11 10.9,-7 22.7,-14.7 5.7,-3.8 17.9,-11.7 30.9,-20.4 6.2,-4.2 6.4,-4.2 6.3,-4.3 13,-8.7 6.4,-4.4 13.2,-8.9 13.1,-9 13.4,-9.1 10,-6.9 26.8,-18.6 26.9,-18.9 26.7,-19 13.2,-9.6 13.2,-9.6 22.8,-16.8 19.1,-14.4 31,-23.7 12,-9.4 23.2,-18.6 11.2,-9.2 16.2,-13.6 5.2,-4.5 5.2,-4.5 5.1,-4.4 9.9,-8.7 4.8,-4.3 9.3,-8.5 12.1,-11.4 8.2,-8.2 2,-2.1 3.9,-3.9 5.5,-5.8 5.3,-5.9 1.7,-1.8 4.9,-5.5 4.6,-5.3 2.1,-1.9 12.6,-12 8.2,-8 8,-8 6,-6.1 21.3,-22.2 7.4,-8 10.9,-12 20.9,-23.8 6.6,-7.8 9.7,-11.7 3.1,-3.9 6.3,-7.7 9.1,-11.4 5.8,-7.6 3,-3.8 5.7,-7.4 5.5,-7.4 2.8,-3.7 7.9,-10.8 2.5,-3.6 5.1,-7.1 4.9,-7 2.5,-3.5 13.8,-20.2 12.6,-19.1 1.9,-3.1 2,-3.1 1.8,-3 3.7,-5.9 1.7,-2.9 3.5,-5.7 1.6,-2.8 3.3,-5.5 7.6,-13.1 1.5,-2.5 11.4,-20.4 9.1,-16.8 0.8,-1.5 10.9,-22.3 0.1,-0.3 0.7,-1.6 0.3,-0.8 0.9,-1.9 1,-2.6 1.5,-3.6 1.6,-4.7 1.9,-4.8 2.4,-7 1.3,-3.9 2.1,-6.5 2.1,-6.9 2.1,-7.3 2.1,-7.7 2.1,-8 2.9,-12.4 1.7,-8.5 1.6,-8.7 1.4,-8.8 1.2,-8.9 0.5,-4.4 0.4,-4.4 0.3,-4.4 0.4,-8.8 0.1,-4.3 v -4.3 l -0.1,-4.3 -0.2,-3.1 -0.8,-8.5 -0.8,-6 -1.1,-6 -1.4,-5.7 -1.7,-5.6 -2,-5.4 -2.2,-5.1 -1.6,-3.3 -2.8,-4.7 -2,-2.9 -1.1,-1.4 -1.7,-2.1 -0.8,-0.9 -3.5,-4 -1.7,-1.8 -3.8,-3.8 -1.9,-1.8 -4.2,-3.6 -2.1,-1.8 -2.3,-1.7 -2.4,-1.7 -2.4,-1.7 -2.6,-1.6 -5.4,-3.2 -4.9,-2.7 -6.1,-3 -10.2,-4 -3.5,-1.3 -7.6,-2.3 -8.2,-2.3 -13.5,-2.9 -2.3,-0.5 -17.3,-2.7 -24.6,-3.1 -11.2,-0.9 h -9.1 l -0.2,0.1 h -1 c -0.2,0 -0.4,0.1 -0.6,0.1 -2.7,0.5 -6.9,1.4 -10.3,-1 l -0.4,-0.3 -0.4,-0.4 c -0.3,-0.3 -0.6,-0.6 -0.7,-0.9 l -0.6,-0.6 -0.2,-1.7 c -0.2,-1.7 0.1,-5 5.2,-7.7 l 2.1,-1 1.6,-0.7 3,-0.9 6.8,-1.5 3.3,-0.6 5.2,-1.2 9.6,-1.8 17.6,-2.7 20.9,-2.7 16.4,-1.3 10.5,-0.6 5.5,-0.2 5.9,-0.1 4.7,0.7 h 5.3 l 2.6,0.1 h 2.3 l 9.2,0.2 9,0.4 12.9,0.9 8.3,0.8 12,1.5 7.7,1.2 11.1,2.1 7.2,1.6 10.1,2.7 6.5,2 9.3,3.3 5.9,2.4 8.3,4 5.2,2.9 2.5,1.5 2.4,1.5 2.5,1.6 2.3,1.6 2.4,1.7 4.2,3.4 2.2,1.9 3.9,3.7 1.9,2 3.5,3.9 1.7,2.1 1.5,2.1 1.6,2.2 1.5,2.3 1.4,2.3 2.5,4.6 1.2,2.4 2.1,4.9 0.9,2.5 1.6,5 0.7,2.7 1.5,6.7 1,6.1 0.9,7.4 0.6,7.6 0.3,7.6 v 10.3 l -0.4,9.1 -0.4,5.1 -0.5,5.3 -0.6,5.3 -0.7,5.3 -0.8,5.3 -0.9,5.4 -1,5.4 -1.1,5.4 -1.2,5.4 -1.3,5.4 -1.4,5.4 -3,10.8 -1.6,5.5 -1.7,5.5 -3.6,10.8 -1.9,5.4 -4,10.7 -4.2,10.7 -4.4,10.6 -4.6,10.5 -4.8,10.4 -6.9,14.7 -7.7,14.9 -2.6,4.9 -8,14.4 -8,13.7 -2.7,4.5 -5.3,8.7 -2.7,4.3 -2.7,4.2 -5.3,8.1 -7.8,11.6 -2.6,3.7 -9,12.5 -5.5,7.5 -11,14.8 -11.2,14.6 -11.2,14.4 -5.6,7.1 -11.4,14 -11.4,13.8 -11.4,13.6 -11.4,13.4 -11.4,13.2 -5.7,6.5 -11.4,12.8 -11.4,12.6 -11.4,12.4 -11.4,12.2 -5.7,6 -11.4,11.8 -11.4,11.6 -11.4,11.4 -5.7,5.6 -5.7,5.5 -5.6,5.5 -11.2,10.8 -11.2,10.6 -16.6,15.5 -11,10.1 -5.5,4.9 -5.4,4.9 -5.4,4.8 -5.4,4.8 -5.3,4.7 -10.7,9.3 -5.3,4.6 -5.2,4.5 -15.5,13.1 -5.2,4.3 -5,4.2 -5.1,4.2 -5.1,4.1 -4.9,4 -5,4 -4.8,3.9 -14.3,11.4 -4.8,3.7 -4.6,3.6 -4.7,3.6 -4.5,3.5 -17.7,13.4 -20.8,15.4 -19.3,13.9 -17.7,12.5 -3.3,2.3 -9.5,6.6 -8.9,6.1 -15.7,10.4 -2.4,1.5 -12.7,8.3 -4.5,2.7 -1,0.7 -6.3,3.8 -0.4,0.3 -2.5,1.4 -1.1,1.1 h -0.8 l -7,4.2 -16.4,9.8 -16.5,9.8 -33,19.5 -20.7,12 -64.8,37.1 -62.7,35.2 -14.2,7.8 -3.5,2 -26.8,14.6 -6.3,3.6 -12.2,6.7 -3,1.7 -17,9.2 -15.4,8.5 -18,9.6 -20.6,11.2 -2.4,1.3 -1.4,0.8 -2,1 -1.2,0.7 -1.6,0.8 -1.1,0.7 -5.7,3 h -0.2 c -0.5,0.2 -0.7,0.3 -1.1,0.4 l -0.5,0.2 c -0.2,0.1 -0.3,0.1 -0.3,0.1 -0.4,0.2 -0.7,0.3 -1.2,0.4 -0.4,0.2 -0.7,0.3 -1.2,0.3 -0.1,0 -0.2,0 -0.5,0.1 l -0.5,0.1 c -0.5,0.1 -0.7,0.2 -1.3,0.2 -0.5,0.1 -0.8,0.2 -1.3,0.2 -0.1,0 -0.2,0 -0.3,0 -1.2,-0.2 -1.7,-0.1 -2.2,-0.1 z m -6.3,-1.5 z m -1.3,-8.3 z m 5.6,-0.4 z m -4.4,-0.9 c 0,0 -0.1,0.1 -0.2,0.2 0.1,-0.1 0.1,-0.1 0.2,-0.2 z m 66.2,-30 -5.3,3.5 37.3,-20.3 12.1,-6.7 3.2,-1.7 12.8,-7.1 3.3,-1.8 31,-17.2 3.6,-2 10.9,-6.2 20.7,-11.5 46.9,-26.5 48.8,-28 20.6,-12 33,-19.4 40.8,-24.4 0.2,-0.2 0.7,-0.4 20.2,-12.4 2,-1.4 1,-0.6 1.6,-1.1 2.3,-1.5 2.4,-1.5 10,-6.6 5.6,-3.6 2.8,-1.9 6,-4.1 16.1,-11.2 3.4,-2.4 14.6,-10.2 19.5,-14.1 21,-15.6 4.3,-3.3 9,-6.8 4.5,-3.5 4.7,-3.6 4.6,-3.6 4.8,-3.7 14.2,-11.3 4.8,-3.9 5,-4 4.9,-4 5.1,-4.1 5,-4.1 5,-4.2 5.1,-4.3 15.4,-13 5.2,-4.5 5.3,-4.6 10.6,-9.2 5.3,-4.7 5.4,-4.7 5.4,-4.8 5.4,-4.9 5.5,-4.9 11,-10 16.6,-15.4 11.2,-10.6 11.2,-10.8 5.6,-5.5 5.7,-5.5 5.7,-5.6 11.4,-11.4 11.4,-11.6 11.4,-11.8 5.7,-6 11.4,-12.2 11.4,-12.4 11.4,-12.6 11.4,-12.7 5.7,-6.5 11.4,-13.1 11.4,-13.3 11.4,-13.5 11.4,-13.7 11.4,-13.9 5.6,-7 11.2,-14.3 11.2,-14.5 11,-14.7 9.4,-12.8 7.6,-10.6 2.5,-3.7 10.5,-15.8 2.6,-4.1 2.6,-4.2 5.3,-8.6 5.3,-8.9 5.3,-9.1 7.9,-14.2 7.6,-14.5 2.5,-5 7.3,-15.1 4.7,-10.2 4.5,-10.3 4.3,-10.4 4.1,-10.5 3.9,-10.5 1.8,-5.2 3.5,-10.6 1.6,-5.3 1.5,-5.3 2.9,-10.7 1.4,-5.2 1.3,-5.2 1.2,-5.2 1.1,-5.2 1,-5.2 0.9,-5.2 0.8,-5.1 0.7,-5.1 0.6,-5.1 0.5,-5.1 0.4,-5 0.4,-8.7 v -9.9 l -0.3,-7.2 -0.6,-7.2 -0.9,-7 -0.9,-5.6 -1.4,-6.1 -0.6,-2.3 -1.5,-4.6 -0.8,-2.2 -1.9,-4.4 -1,-2.1 -2.3,-4.1 -1.2,-2 -1.3,-1.9 -1.4,-1.9 -1.4,-1.9 -1.4,-1.8 -3.2,-3.6 -1.6,-1.7 -3.5,-3.4 -1.8,-1.5 -4,-3.2 -2,-1.5 -2.2,-1.5 -2.2,-1.4 -4.6,-2.8 -4.8,-2.6 -7.8,-3.7 -5.5,-2.3 -8.8,-3.2 -6.1,-1.9 -9.7,-2.6 -6.8,-1.5 -10.7,-2 -7.4,-1.2 -11.8,-1.5 -8,-0.8 -12.6,-0.9 -8.7,-0.4 -13.9,-0.3 h -5.8 l -4.6,-0.7 -5,0.1 -5.3,0.2 -10.4,0.6 -16.2,1.3 -26.6,3.5 -15.5,2.5 1.8,0.1 25.1,3.2 17.7,2.8 14,3 2.4,0.6 8.5,2.4 8.1,2.5 10.9,4.2 3.7,1.5 6.6,3.3 5.3,2.9 2.9,1.7 2.8,1.7 2.9,1.8 2.6,1.8 2.5,1.8 2.6,2 2.3,1.9 4.5,3.9 2.2,2.1 4,4 2,2.2 4.6,5.4 0.5,0.7 1.2,1.5 1.3,1.7 2.4,3.4 3.1,5.3 1.9,3.7 2.5,5.7 2.2,5.9 1.8,6.1 1.5,6.3 1.2,6.4 0.9,6.5 0.8,8.8 0.2,3.4 0.1,4.5 v 4.5 l -0.1,4.5 -0.4,9 -0.3,4.6 -0.4,4.6 -0.5,4.6 -1.2,9.1 -1.4,9.1 -1.6,9 -1.8,8.8 -3,12.7 -2.2,8.2 -2.2,7.8 -2.2,7.4 -2.2,7.1 -6,18 -2.3,6 -1.3,3.6 -4.4,10.7 v 1.3 l -0.8,0.8 -0.4,0.6 -1.4,3.1 -9,17.8 -4.6,8.4 -5.4,9.9 -6.1,10.9 -1.3,2.4 -13.3,23 -10.4,17.1 -3.7,5.9 -1.9,3.1 -2,3 -2,3.2 -12.7,19.2 -14.7,20.9 -2.5,3.5 -4.9,7 -5.2,7.2 -2.5,3.6 -8,11 -2.8,3.7 -5.5,7.4 -5.8,7.5 -3,3.8 -5.9,7.6 -9.2,11.6 -6.3,7.7 -3.1,3.9 -9.8,11.9 -6.7,7.9 -21,23.9 -11,12.1 -7.5,8.1 -11.5,12.1 -15.9,16.3 -8.1,8.1 -8.3,8.1 -12.8,12.2 -2.2,2 -0.6,0.7 -3.2,3.8 -5.1,5.7 -1.7,1.8 -5.4,5.9 -5.7,6 -3.9,3.9 -2,2.1 -8.3,8.3 -7.7,7.3 -4.5,4.2 -9.4,8.6 -4.9,4.4 -10,8.8 -5.1,4.5 -5.2,4.5 -5.2,4.5 -5.3,4.6 -10.9,9.2 -11.2,9.3 -5.7,4.6 -29.6,23.5 -6.1,4.7 -44.2,33.6 -22.8,16.8 -13.2,9.6 -13.3,9.6 -26.8,19.1 -27,18.9 -26.9,18.6 -10,6.9 -13.4,9.1 -13.1,9 -13.2,8.9 -6.5,4.4 -13,8.7 -6.4,4.3 -6.4,4.3 -6.3,4.2 -6.3,4.2 -24.6,16.3 -23.7,15.5 -5.8,3.8 -16.9,11 -27.9,18 -4.9,3.1 -23.8,15.2 -2.2,1.4 z"
   id="path61" />
		</g>
		<g
   id="g68">
			<path
   id="Bianco_1_"
   inkscape:connector-curvature="0"
   class="st1"
   d="m 1694.8,418 5.3,0.1 2.6,0.1 h 2.3 l 4.4,0.1 4.4,0.2 4.3,0.2 4.2,0.2 4.2,0.3 4.1,0.3 4.1,0.4 4,0.4 3.9,0.4 3.9,0.5 3.8,0.5 3.8,0.6 3.7,0.6 3.6,0.7 3.6,0.7 3.5,0.7 3.4,0.8 3.4,0.8 3.3,0.9 3.3,0.9 3.2,1 3.1,1 3.1,1 3,1.1 2.9,1.1 2.9,1.2 2.9,1.2 2.8,1.3 2.8,1.3 2.7,1.3 2.7,1.4 2.6,1.4 2.5,1.5 2.5,1.5 2.4,1.6 2.3,1.6 2.3,1.6 2.2,1.7 2.1,1.7 2.1,1.8 2,1.8 1.9,1.9 1.9,1.9 1.8,1.9 1.7,2 1.7,2 1.6,2.1 1.5,2.1 1.5,2.2 1.4,2.2 1.3,2.2 1.3,2.3 1.2,2.3 1.1,2.4 1.1,2.4 1,2.5 0.9,2.5 0.9,2.6 0.8,2.6 0.7,2.6 0.7,2.7 0.6,2.7 0.5,2.8 0.2,1.4 v 0 l 0.2,1.3 0.4,2.6 0.4,2.6 0.3,2.6 0.3,2.6 0.3,2.6 0.2,2.6 0.2,2.7 0.2,2.7 0.1,2.7 0.1,2.7 0.1,2.7 v 2.7 2.7 2.7 2.7 l -0.1,2.8 -0.1,2.8 -0.2,4.1 -0.4,5.5 -0.5,5.5 -0.6,5.6 -0.7,5.6 -0.8,5.6 -0.9,5.6 -1,5.7 -1.1,5.7 -1.2,5.7 -1.2,5.7 -1.3,5.7 -1.4,5.7 -1.5,5.7 -1.6,5.7 -1.6,5.7 -1.7,5.7 -1.8,5.7 -1.8,5.7 -1.9,5.7 -2,5.7 -2,5.7 -2.1,5.6 -2.1,5.6 -2.2,5.6 -2.2,5.6 -2.3,5.5 -2.3,5.5 -2.4,5.5 -2.4,5.4 -2.4,5.4 -2.5,5.4 -2.5,5.3 -2.5,5.3 -2.5,5.2 -2.6,5.2 -2.6,5.1 -2.6,5 -2.6,5 -2.6,4.9 -2.6,4.9 -2.6,4.8 -2.6,4.7 -2.6,4.6 -2.6,4.6 -2.6,4.5 -2.6,4.4 -2.6,4.3 -2.6,4.2 -2.6,4.1 -2.6,4.1 -2.5,4 -2.5,3.9 -2.5,3.8 -2.5,3.7 -1.2,1.8 v 0 l -2.7,4 -5.3,8 -5.4,7.9 -5.4,7.9 -5.4,7.8 -5.4,7.8 -5.4,7.7 -5.5,7.6 -5.5,7.6 -5.5,7.5 -5.5,7.5 -5.5,7.4 -5.5,7.4 -5.5,7.3 -5.6,7.2 -5.6,7.2 -5.6,7.1 -5.6,7.1 -5.6,7 -5.6,6.9 -5.6,6.9 -5.6,6.8 -5.6,6.8 -5.6,6.7 -5.6,6.6 -5.6,6.6 -5.6,6.5 -5.6,6.5 -5.6,6.4 -5.6,6.3 -5.6,6.3 -5.6,6.2 -5.5,6.2 -5.5,6.1 -5.5,6 -5.5,6 -5.5,5.9 -5.5,5.9 -5.5,5.8 -5.5,5.7 -5.4,5.7 -5.4,5.6 -5.4,5.6 -5.4,5.5 -5.4,5.4 -5.3,5.4 -5.3,5.3 -5.3,5.3 -5.3,5.2 -5.2,5.1 -5.2,5.1 -5.2,5 -5.2,4.9 -5.1,4.9 -5.1,4.8 -5.1,4.8 -5,4.7 -5,4.6 -5,4.6 -4.9,4.5 -4.9,4.4 -4.9,4.4 -4.8,4.3 -4.8,4.3 -4.7,4.2 -4.7,4.1 -4.7,4.1 -4.6,4 -4.6,3.9 -4.5,3.9 -4.5,3.8 -4.4,3.8 -4.4,3.7 -4.3,3.6 -4.3,3.6 -4.2,3.5 -4.2,3.4 -4.1,3.4 -4.1,3.3 -4,3.2 -3.9,3.2 -3.9,3.1 -3.8,3 -3.8,3 -3.7,2.9 -3.6,2.9 -3.6,2.9 -3.5,2.8 -3.5,2.8 -3.4,2.7 -3.3,2.6 -3.3,2.6 -3.2,2.5 -3.1,2.4 -3,2.4 -3,2.3 -2.9,2.2 -2.9,2.2 -2.8,2.1 -2.8,2 -2.7,2 -2.6,1.9 -2.5,1.8 -2.5,1.8 -2.4,1.7 -2.3,1.6 -1.7,1.2 -1.1,0.8 -1.1,0.8 -1,0.7 -1,0.7 -1,0.7 -1,0.7 -1,0.7 -0.9,0.7 -0.9,0.6 -0.9,0.6 -0.9,0.6 -0.8,0.6 -0.8,0.6 -0.8,0.6 -0.8,0.5 -0.8,0.5 -0.7,0.5 -0.7,0.5 -0.7,0.5 -0.7,0.4 -0.6,0.4 -0.6,0.4 -0.6,0.4 -0.6,0.4 -0.5,0.4 -0.5,0.3 -0.5,0.3 -0.5,0.3 -0.4,0.3 -0.4,0.3 -0.4,0.3 -0.4,0.2 -0.3,0.2 -0.3,0.2 -0.3,0.2 -0.3,0.2 -0.2,0.2 -0.2,0.1 -0.2,0.1 -0.2,0.1 -0.1,0.1 -0.1,0.1 h -0.1 v 0 0 l -8,5.2 -15.9,10.5 -16,10.4 -16.1,10.4 -16.1,10.3 -12.1,7.7 -8.1,5.1 -8,5.1 -8,5 -8,5 -7.9,5 -7.9,4.9 -7.9,4.9 -7.8,4.8 -7.8,4.8 -7.7,4.7 -7.6,4.7 -7.6,4.6 -7.5,4.6 -5.5,3.4 -3.6,2.3 -3.6,2.3 -3.6,2.3 -3.6,2.2 -3.5,2.2 -3.5,2.2 -3.5,2.2 -3.5,2.2 -3.4,2.2 -3.4,2.1 -3.4,2.1 -3.3,2.1 -3.3,2.1 -3.3,2.1 -3.3,2 -3.2,2 -3.2,2 -3.2,2 -3.1,2 -3.1,1.9 -3.1,1.9 -3,1.9 -3,1.9 -3,1.8 -2.9,1.8 -2.9,1.8 -2.9,1.8 -2.9,1.7 -2.9,1.7 -2.8,1.7 -2.8,1.7 -2.7,1.6 -2.7,1.6 -2.7,1.6 -2.6,1.6 -2.6,1.5 -2.5,1.5 -2.5,1.5 -2.4,1.5 -2.4,1.4 -2.3,1.4 -2.3,1.4 -2.2,1.3 -2.2,1.3 -2.1,1.3 -2.1,1.2 -2,1.2 -2,1.2 -1.9,1.1 -1.9,1.1 -1.8,1.1 -1.8,1.1 -1.7,1 -1.7,1 -1.6,1 -1.6,0.9 -1.5,0.9 -1.4,0.8 -1.4,0.8 -1.3,0.8 -1.3,0.7 -1.2,0.7 -1.1,0.7 -1.1,0.6 -1,0.6 -1,0.6 -0.9,0.5 -0.8,0.5 -0.8,0.4 -0.7,0.4 -0.6,0.4 -0.6,0.3 -0.5,0.3 -0.4,0.2 -0.4,0.2 -0.3,0.2 -0.2,0.1 -0.1,0.1 h -0.1 v 0 l -0.3,0.1 c -0.3,0.2 -0.2,0.1 -0.4,0.2 -0.8,0.4 -0.3,0.2 -1.5,0.6 -1.1,0.5 -0.6,0.3 -1.4,0.5 -0.7,0.3 -0.3,0.1 -1.5,0.4 -1.2,0.3 -0.7,0.2 -1.5,0.4 -0.8,0.2 -0.3,0.1 -1.5,0.2 -1.2,0.2 -0.7,0.2 -1.6,0.2 -0.3,0 -0.1,0 -0.5,0 h 1.8 -0.3 -0.3 -0.2 c -0.3,0 -0.2,0 -0.4,0 -0.6,-0.1 -0.3,0 -0.9,-0.3 -0.6,-0.2 -0.5,0 -0.6,-0.3 -0.3,-0.1 -0.2,0 -0.2,-0.4 -0.2,-0.4 -0.2,-0.2 0,-0.5 0,-0.3 0,-0.1 0.4,-0.6 0.3,-0.5 0.1,-0.3 0.6,-0.7 0.1,-0.1 0,-0.1 0.3,-0.2 l 0.2,-0.1 v 0 0 l 0.1,-0.1 0.1,-0.1 0.2,-0.1 0.2,-0.1 0.3,-0.2 0.3,-0.2 0.3,-0.2 0.4,-0.3 0.4,-0.3 0.5,-0.3 0.5,-0.3 0.6,-0.4 0.6,-0.4 0.6,-0.4 0.7,-0.5 0.7,-0.5 0.8,-0.5 0.8,-0.5 0.8,-0.6 0.9,-0.6 0.9,-0.6 1,-0.6 1,-0.7 1,-0.7 1.1,-0.7 1.1,-0.8 1.1,-0.8 1.2,-0.8 1.2,-0.8 1.3,-0.9 1.3,-0.9 1.3,-0.9 1.4,-0.9 1.4,-0.9 1.4,-1 1.5,-1 1.5,-1 1.5,-1 1.6,-1.1 1.6,-1.1 1.6,-1.1 1.7,-1.1 1.7,-1.2 1.7,-1.2 1.8,-1.2 1.8,-1.2 1.8,-1.2 1.8,-1.3 1.9,-1.3 1.9,-1.3 1.9,-1.3 2,-1.4 2,-1.4 2,-1.4 2,-1.4 2.1,-1.4 2.1,-1.5 2.1,-1.5 2.2,-1.5 2.2,-1.5 2.2,-1.5 2.2,-1.6 2.3,-1.6 2.3,-1.6 2.3,-1.6 2.3,-1.6 2.4,-1.7 2.4,-1.7 2.4,-1.7 2.4,-1.7 2.5,-1.7 2.5,-1.7 2.5,-1.8 2.5,-1.8 2.5,-1.8 2.6,-1.8 3.8,-2.7 5.2,-3.6 5.2,-3.7 5.3,-3.7 5.4,-3.8 5.5,-3.9 5.5,-3.9 5.6,-4 5.7,-4 5.7,-4.1 5.8,-4.1 5.9,-4.2 5.9,-4.2 6,-4.3 6,-4.3 6.1,-4.4 6.1,-4.4 6.2,-4.5 6.2,-4.5 6.3,-4.6 6.3,-4.6 6.3,-4.6 6.4,-4.7 6.4,-4.7 6.4,-4.7 6.4,-4.8 6.5,-4.8 6.5,-4.8 6.5,-4.9 9.7,-7.4 13.1,-9.9 13.1,-10 13.1,-10 13.1,-10.1 13.1,-10.1 13,-10.2 12.9,-10.2 12.8,-10.2 12.7,-10.2 9.4,-7.7 6.3,-5.1 6.2,-5.1 6.2,-5.1 6.1,-5.1 6.1,-5.1 6,-5.1 6,-5.1 5.9,-5.1 5.9,-5 5.8,-5 5.8,-5 5.7,-5 5.6,-5 5.6,-4.9 5.5,-4.9 5.4,-4.9 5.3,-4.9 5.3,-4.8 5.2,-4.8 5.1,-4.8 5,-4.8 4.9,-4.7 4.8,-4.7 4.7,-4.7 4.7,-4.6 4.6,-4.6 4.5,-4.5 4.4,-4.5 3.2,-3.3 2.1,-2.3 2.1,-2.3 2.1,-2.2 2.1,-2.2 2,-2.2 2,-2.2 2,-2.2 1.9,-2.2 1.9,-2.2 1.9,-2.2 1.9,-2.1 1.8,-2.1 1.8,-2.1 1.8,-2.1 1.7,-2.1 1.7,-2.1 1.7,-2.1 1.6,-2.1 1.6,-2 1.6,-2 1.5,-2 0.8,-1 c 0.1,-0.1 0.2,-0.2 0.2,-0.3 l 2.1,-2.2 4.1,-4.3 4.1,-4.3 4,-4.3 4,-4.3 4,-4.3 5.9,-6.5 7.8,-8.6 5.7,-6.5 3.8,-4.3 3.7,-4.3 3.7,-4.3 3.6,-4.3 3.6,-4.3 3.6,-4.3 3.5,-4.3 3.5,-4.3 3.5,-4.2 3.4,-4.2 3.4,-4.2 3.4,-4.2 3.3,-4.2 3.3,-4.2 3.3,-4.2 3.2,-4.2 3.2,-4.2 3.2,-4.2 3.1,-4.2 3.1,-4.1 3.1,-4.1 3,-4.1 3,-4.1 2.9,-4.1 2.9,-4.1 2.9,-4 2.9,-4 2.9,-4 2.9,-4 2.8,-4 2.8,-4 2.8,-3.9 2.7,-3.9 2.7,-3.9 2.7,-3.9 2.6,-3.8 2.6,-3.8 2.6,-3.8 2.5,-3.8 2.5,-3.8 2.5,-3.7 2.4,-3.7 2.4,-3.7 2.4,-3.6 2.3,-3.6 2.3,-3.6 2.3,-3.6 2.2,-3.5 2.2,-3.5 2.2,-3.5 2.1,-3.4 2.1,-3.4 2.1,-3.4 2,-3.3 2,-3.3 2,-3.3 1.9,-3.2 1.9,-3.2 1.9,-3.2 1.8,-3.1 1.8,-3.1 1.8,-3 1.7,-3 1.7,-3 1.7,-2.9 1.6,-2.9 1.6,-2.9 1.6,-2.9 1.5,-2.9 1.5,-2.8 1.5,-2.8 1.4,-2.7 1.4,-2.7 1.4,-2.6 1.3,-2.6 1.3,-2.5 1.3,-2.5 1.2,-2.4 1.2,-2.4 1.2,-2.3 1.1,-2.3 1.1,-2.2 1.1,-2.2 1.1,-2.1 1,-2.1 1,-2 1,-2 0.9,-1.9 0.9,-1.9 0.9,-1.8 0.8,-1.8 0.8,-1.7 0.8,-1.6 0.7,-1.6 0.7,-1.5 0.7,-1.5 0.6,-1.4 0.6,-1.3 0.6,-1.3 0.6,-1.2 0.5,-1.2 0.5,-1.1 0.5,-1 0.4,-1 0.4,-0.9 0.4,-0.8 0.3,-0.8 0.3,-0.7 0.3,-0.6 0.2,-0.6 0.2,-0.5 0.2,-0.4 0.2,-0.4 0.1,-0.3 0.1,-0.2 0.1,-0.1 v -0.1 -0.1 -0.1 l 0.1,-0.2 0.1,-0.2 0.1,-0.3 0.1,-0.3 0.2,-0.4 0.2,-0.5 0.2,-0.5 0.2,-0.6 0.2,-0.6 0.2,-0.7 0.3,-0.7 0.3,-0.8 0.3,-0.8 0.3,-0.9 0.3,-0.9 0.3,-1 0.4,-1 0.4,-1.1 0.4,-1.1 0.4,-1.2 0.4,-1.2 0.4,-1.2 0.4,-1.3 0.4,-1.3 0.5,-1.4 0.5,-1.4 0.5,-1.4 0.5,-1.5 0.5,-1.5 0.5,-1.6 0.5,-1.6 0.5,-1.6 0.5,-1.7 0.8,-2.6 1.1,-3.4 1.1,-3.5 1.1,-3.7 1.1,-3.8 1.1,-3.9 1.1,-4 1.1,-4.1 1.1,-4.2 1.1,-4.3 1,-4.3 1,-4.4 1,-4.5 0.9,-4.5 0.9,-4.6 0.9,-4.6 0.8,-4.7 0.8,-4.7 0.7,-4.7 0.7,-4.8 0.6,-4.8 0.5,-4.8 0.5,-4.8 0.4,-4.8 0.3,-4.8 0.2,-4.8 0.1,-4.8 0.1,-4.7 v -4.7 l -0.1,-4.7 -0.2,-3.5 -0.1,-2.4 -0.2,-2.3 -0.2,-2.3 -0.2,-2.3 -0.3,-2.3 -0.3,-2.3 -0.3,-2.3 -0.3,-2.2 -0.4,-2.2 -0.4,-2.2 -0.4,-2.2 -0.5,-2.2 -0.5,-2.2 -0.5,-2.1 -0.6,-2.1 -0.6,-2.1 -0.6,-2.1 -0.7,-2 -0.7,-2 -0.7,-2 -0.8,-2 -0.8,-1.9 -0.9,-1.9 -0.9,-1.9 -0.9,-1.8 -1,-1.8 -1,-1.8 -1.1,-1.7 -1.1,-1.7 -1.1,-1.7 -1.2,-1.7 -0.6,-0.8 -0.8,-1.1 -1.7,-2.2 -1.8,-2.2 -1.9,-2.1 -1.9,-2.1 -2,-2.1 -2,-2 -2.1,-2 -2.2,-2 -2.3,-1.9 -2.3,-1.9 -2.4,-1.9 -2.5,-1.8 -2.6,-1.8 -2.7,-1.8 -2.8,-1.7 -2.9,-1.7 -2.9,-1.7 -2.3,-1.2 -1.6,-0.8 -1.6,-0.8 -1.6,-0.8 -1.7,-0.8 -1.7,-0.8 -1.7,-0.8 -1.8,-0.7 -1.8,-0.7 -1.8,-0.7 -1.9,-0.7 -1.9,-0.7 -1.9,-0.7 -2,-0.7 -2,-0.7 -2,-0.7 -2.1,-0.7 -2.1,-0.6 -2.1,-0.6 -2.2,-0.6 -2.2,-0.6 -2.2,-0.6 -2.3,-0.6 -2.3,-0.6 -2.4,-0.6 -2.4,-0.6 -2.4,-0.5 -2.5,-0.5 -1.3,-0.3 v 0 l -1.3,-0.3 -2.5,-0.5 -2.4,-0.5 -2.4,-0.5 -2.3,-0.4 -2.2,-0.4 -2.2,-0.4 -2.1,-0.4 -2.1,-0.4 -2,-0.3 -2,-0.3 -1.9,-0.3 -1.9,-0.3 -1.8,-0.3 -1.8,-0.2 -1.7,-0.2 -1.7,-0.2 -1.6,-0.2 -1.6,-0.2 -1.5,-0.2 -1.5,-0.1 -1.4,-0.1 -1.4,-0.1 -1.3,-0.1 -1.3,-0.1 -1.2,-0.1 -1.2,-0.1 -1.1,-0.1 h -1.1 -1 -1 -1 -0.9 -0.9 -0.8 -0.8 -0.7 -0.7 -0.6 -0.6 -0.6 -0.5 -0.6 l -0.8,0.1 -0.6,0.1 h -0.4 -0.3 v 0 h -0.2 -0.2 -0.1 v 0 c -4.2,1 -7.6,0.7 -7.5,-0.7 0.1,-1.2 2.6,-2.7 5.9,-3.7 v 0 l 0.6,-0.2 0.8,-0.2 0.9,-0.2 1,-0.2 0.5,-0.1 h 0.2 l 0.6,-0.1 0.7,-0.1 0.8,-0.2 0.8,-0.2 0.9,-0.2 1,-0.2 1,-0.2 1.1,-0.2 1.2,-0.2 1.2,-0.2 1.3,-0.3 1.4,-0.3 1.4,-0.3 1.5,-0.3 1.5,-0.3 1.6,-0.3 1.7,-0.3 1.7,-0.3 1.8,-0.3 1.8,-0.3 1.9,-0.3 1.9,-0.3 2,-0.3 2,-0.3 2,-0.3 2.1,-0.3 2.1,-0.3 2.2,-0.3 2.2,-0.3 2.2,-0.3 2.3,-0.3 2.3,-0.3 2.4,-0.3 3.5,-0.4 4.8,-0.5 4.9,-0.5 5,-0.5 5.1,-0.4 5.2,-0.4 5.2,-0.3 5.3,-0.2 5.3,-0.2 5.4,-0.1 z" />
			<path
   class="st1"
   d="m 862.8,1605.5 h -2.4 l -0.6,-0.1 c -0.6,-0.1 -1.1,-0.2 -1.6,-0.5 -0.8,-0.2 -1.6,-0.6 -2.2,-1.2 -0.9,-0.8 -1.6,-1.9 -1.8,-3.1 -0.3,-1.2 -0.2,-2.4 0.3,-3.5 0.2,-0.6 0.6,-1.2 1,-1.7 0.4,-0.6 0.7,-1 1.2,-1.3 0.3,-0.3 0.6,-0.5 1,-0.8 l 0.2,-0.2 1.3,-0.8 1.1,-0.8 2.5,-1.6 1.6,-1.1 1.4,-0.9 0.8,-0.6 6.7,-4.5 1.2,-0.9 8.9,-6 1.4,-1 10.8,-7.3 3.4,-2.4 5.2,-3.5 1.8,-1.3 17.5,-12.1 2.2,-1.5 6.4,-4.4 2.2,-1.6 42.4,-29.7 5.2,-3.7 21.7,-15.4 5.6,-4 5.7,-4.1 5.7,-4.1 29.6,-21.2 43.4,-31.7 19.2,-14.1 6.3,-4.8 13,-9.7 29.2,-22.2 26.1,-20 26.1,-20.2 12.9,-10.2 12.9,-10.2 12.8,-10.2 28.4,-23 12.4,-10.2 12.2,-10.2 12,-10.2 5.9,-5.1 5.9,-5 11.6,-10 5.7,-5 5.6,-5 5.6,-4.9 5.5,-4.9 5.4,-4.9 5.3,-4.9 5.3,-4.8 5.2,-4.8 5.1,-4.8 9.9,-9.5 4.8,-4.7 4.7,-4.7 4.8,-4.7 9.1,-9.1 7.6,-7.8 4.2,-4.5 4.1,-4.3 5.8,-6.4 5.6,-6.5 1.8,-2 5.2,-6.1 4.9,-6.1 1.6,-2.1 3.1,-3.9 1.4,-1.9 v -0.3 l 11.7,-12.3 12,-12.9 5.9,-6.4 7.7,-8.6 16.9,-19.4 10.9,-12.9 7,-8.6 3.6,-4.3 10.3,-12.6 10,-12.6 9.7,-12.6 3.1,-4.2 6.3,-8.3 6,-8.2 5.9,-8.2 3,-4.1 8.5,-12 5.5,-8 2.8,-4 15.6,-23.2 4.9,-7.6 2.5,-3.8 4.7,-7.4 2.4,-3.7 13.2,-21.4 12,-20.3 10.9,-19 9.7,-17.6 15.9,-30.5 3.2,-6.6 1.1,-2.1 7.9,-16.4 3.9,-8.6 0.5,-1 1.1,-2.4 0.4,-0.8 0.9,-2.1 0.3,-0.6 1.6,-3.7 v -0.2 l 1.3,-3 0.7,-2.1 0.8,-2 1,-2.9 1.1,-2.9 5.8,-17.7 1.3,-4.2 2.2,-7 2.1,-7.5 2.1,-7.9 3.2,-12.5 2.9,-13.1 2.6,-13.6 1.6,-9.3 1.4,-9.4 0.6,-4.7 1,-9.5 0.4,-4.7 0.3,-4.7 0.2,-4.7 0.2,-9.4 v -4.6 l -0.1,-4.6 -0.3,-5.8 -0.6,-6.6 -1.1,-8.7 -1.1,-6.3 -1.4,-6.1 -1.7,-5.9 -2,-5.7 -1.5,-3.5 -2.5,-5.2 -1.8,-3.3 -3.1,-4.8 -2.4,-3.3 -1.6,-2.1 -1.6,-2 -3.6,-4 -1.9,-2 -1.9,-1.9 -2,-1.9 -2,-1.8 -4.4,-3.6 -2.2,-1.8 -2.4,-1.7 -2.5,-1.7 -2.5,-1.7 -2.7,-1.6 -5.6,-3.2 -6.8,-3.4 -4.8,-2.3 -10.7,-4 -7.7,-2.7 -10.5,-2.9 -9,-2.3 -14.4,-3 -19.9,-3.4 -9.5,-1.2 -10,-0.8 h -11.4 l -0.9,0.1 h -1 c -5.1,1.1 -8.7,0.7 -11,-1.2 -1.4,-1.2 -2.2,-3 -2,-4.8 0.3,-3.6 3.4,-6.2 9.3,-8.1 l 0.9,-0.3 3.9,-0.8 h 0.6 l 0.4,-0.1 4.4,-1 3.4,-0.6 7,-1.5 8.6,-1.5 20.4,-3 6.9,-0.9 8.5,-0.9 10.1,-1 10.3,-0.8 5.3,-0.3 10.7,-0.4 5.7,-0.1 5.3,0.3 14.6,0.3 13.1,0.6 8.5,0.6 12.2,1.2 7.9,1 7.7,1.2 11,2.1 7,1.6 6.9,1.8 9.8,3 6.2,2.2 6,2.5 8.4,3.9 5.5,2.9 5.1,3.1 2.4,1.6 4.8,3.3 2.3,1.7 2.2,1.8 2.2,1.8 2.2,2 3.8,3.8 1.9,2.1 3.5,4.1 1.7,2.2 1.5,2.2 1.6,2.3 1.5,2.3 1.3,2.2 1.4,2.5 1.3,2.5 2.3,4.9 1,2.6 1.8,5.2 0.8,2.7 1.4,5.4 0.6,2.9 0.9,5.5 0.8,5.3 0.9,7.9 0.6,8.1 0.3,8.1 v 10.8 l -0.4,9.8 -0.4,5.5 -0.5,5.6 -0.6,5.7 -0.7,5.7 -0.8,5.7 -0.9,5.7 -1,5.8 -1.1,5.8 -2.4,11.5 -1.3,5.8 -1.4,5.8 -1.5,5.8 -3.2,11.5 -1.7,5.8 -3.6,11.5 -1.9,5.8 -4,11.6 -4.1,11.2 -4.4,11.4 -4.5,11 -7.1,16.4 -7.4,16.1 -2.5,5.2 -5.2,10.4 -10.3,19.9 -5.2,9.6 -7.7,13.8 -5.2,8.8 -2.6,4.3 -10.1,16.3 -2.5,3.9 -6.3,9.6 -5.3,8 -10.9,15.8 -10.8,15.6 -5.4,7.7 -11.1,15.2 -11,15 -11,14.8 -5.5,7.3 -11.3,14.4 -11.2,14.2 -5.6,7 -11.2,13.8 -11.2,13.6 -5.6,6.7 -11.2,13.2 -11.2,13 -5.6,6.4 -11.2,12.6 -5.6,6.2 -5.5,6.2 -5.5,6.1 -11,12 -11,11.8 -5.5,5.8 -5.5,5.7 -5.4,5.7 -10.8,11.2 -5.4,5.5 -5.4,5.4 -5.3,5.4 -10.6,10.6 -15.8,15.5 -5.2,5 -5.2,4.9 -5.1,4.9 -15.3,14.4 -15,13.8 -24.2,21.8 -14.1,12.3 -4.7,4 -4.5,3.9 -4.6,3.9 -4.4,3.8 -17.4,14.6 -4.3,3.5 -4.1,3.4 -23.8,19.1 -3.7,3 -3.6,2.9 -14.2,11.1 -17.1,12.5 -11.7,8.7 -2.8,2 -10.1,7.4 -19.5,13.8 -2,1.3 -1.8,1.3 -2.6,1.7 -0.9,0.6 -1.4,0.9 -1.1,0.9 -1,0.6 -0.4,0.4 -0.6,0.3 -1.1,1.1 h -0.7 l -6.7,4.4 -15.9,10.5 -16.1,10.4 -16.1,10.4 -16.1,10.3 -20.2,12.8 -7.9,5.1 -16,10 -7.8,5 -31.3,19.5 -7.7,4.7 -7.5,4.7 -7.6,4.6 -23.8,14.8 -17.8,10.8 -3.5,2.2 -6.9,4.1 -10.1,6.2 -9.8,5.9 -3.2,2 -3.2,2 -6.3,3.7 -6.1,3.8 -8.9,5.3 -2.9,1.8 -19.1,11.4 -2.6,1.6 -7.4,4.4 -2.4,1.5 -11.1,6.6 -2.2,1.3 -9.7,5.7 -8.6,5.2 -5.7,3.3 -1.5,0.9 -2.2,1.2 -1.3,0.8 -8.5,4.8 -1.1,1.1 h -1.1 c -0.4,0.2 -0.7,0.3 -1.2,0.5 l -0.4,0.2 c -0.5,0.2 -0.9,0.4 -1.6,0.6 -0.4,0.2 -0.8,0.3 -1.3,0.4 -0.1,0 -0.2,0 -0.5,0.1 -0.5,0.1 -0.6,0.2 -0.7,0.2 -0.1,0 -0.3,0.1 -0.8,0.2 l -0.2,0.1 c -0.5,0.1 -0.9,0.2 -1.5,0.2 -0.1,0 -0.2,0 -0.4,0 -0.2,0 -0.3,0 -0.3,0.1 -0.6,0.1 -1,0.1 -1.7,0.1 z m -4.2,-0.5 c 0.1,0 0.2,0 0.2,0 0,0 -0.1,0 -0.2,0 z m -3.4,-9.1 z m 0.6,-0.9 c 0,0 -0.1,0 0,0 0,0.1 0,0.1 0,0 z m 55.9,-26.2 -1.4,1 10.8,-6.4 2.3,-1.4 5,-3 2.6,-1.5 2.5,-1.5 19.2,-11.4 2.8,-1.7 6,-3.6 3.1,-1.8 6,-3.7 6.3,-3.7 3.1,-1.9 9.8,-5.9 3.4,-2 10,-6.2 6.9,-4.1 3.4,-2.1 14.2,-8.7 3.7,-2.2 23.8,-14.8 7.6,-4.6 7.5,-4.7 23.2,-14.4 15.7,-9.8 7.8,-5 15.9,-10 7.9,-5.1 20.2,-12.8 16.1,-10.3 16.1,-10.4 16,-10.4 23.7,-15.6 0.2,-0.2 0.5,-0.2 12.4,-8.3 1.8,-1.3 2.5,-1.7 0.9,-0.7 18.2,-12.9 10.6,-7.8 2.8,-2.1 6,-4.4 3,-2.3 13.1,-9.9 14.1,-11 3.6,-2.9 15.4,-12.2 3.9,-3.2 8.2,-6.6 4.1,-3.4 4.3,-3.5 17.2,-14.5 4.4,-3.8 4.6,-3.9 4.5,-3.9 4.7,-4 14,-12.2 24.1,-21.7 14.9,-13.7 15.2,-14.3 5.1,-4.9 5.2,-4.9 5.2,-5 15.7,-15.4 10.6,-10.6 5.3,-5.4 5.4,-5.4 5.4,-5.5 10.8,-11.2 5.4,-5.7 5.5,-5.7 5.5,-5.8 11,-11.8 11,-12 5.5,-6.1 5.5,-6.2 5.6,-6.2 11.2,-12.6 5.6,-6.4 11.2,-12.9 11.2,-13.1 5.6,-6.7 11.2,-13.5 11.2,-13.7 5.6,-7 11.2,-14.1 11.2,-14.3 5.5,-7.2 11,-14.7 11,-14.9 11,-15.1 5.4,-7.6 10.8,-15.5 10.8,-15.7 11.5,-17.4 2.4,-3.8 2.4,-3.9 10.1,-16.4 2.5,-4.3 5.1,-8.9 7.6,-13.9 7.6,-14.6 7.6,-15.1 2.5,-5.2 7.3,-15.7 2.4,-5.4 7,-16.2 4.5,-10.9 4.3,-11.2 4.1,-11.1 3.9,-11.3 1.8,-5.6 3.5,-11.3 1.6,-5.6 3.1,-11.3 1.5,-5.6 1.4,-5.6 1.3,-5.6 2.3,-11.3 1.1,-5.6 1,-5.6 0.9,-5.5 0.8,-5.5 0.7,-5.5 0.6,-5.5 0.5,-5.4 0.4,-5.4 0.4,-9.4 v -10.4 l -0.3,-7.8 -0.6,-7.7 -0.9,-7.5 -1.2,-7.6 -0.5,-2.6 -0.5,-2.5 -1.3,-5 -0.7,-2.4 -1.7,-4.8 -0.9,-2.3 -2.1,-4.5 -1.1,-2.1 -2.4,-4.2 -1.3,-2 -1.4,-2 -1.4,-2 -1.4,-1.9 -3.2,-3.7 -1.6,-1.7 -3.6,-3.6 -1.8,-1.6 -2,-1.7 -2,-1.6 -2,-1.6 -4.4,-3.1 -2.2,-1.5 -4.7,-2.8 -5,-2.6 -7.9,-3.7 -5.6,-2.3 -5.8,-2.1 -9.3,-2.9 -6.5,-1.7 -6.7,-1.5 -10.6,-2 -7.4,-1.2 -7.6,-1 -12,-1.2 -8.2,-0.6 -12.9,-0.6 -14.7,-0.3 -5,-0.3 -5.2,0.1 -10.5,0.4 -5.1,0.3 -10.2,0.8 -18.2,1.9 -23.2,3.2 -7.5,1.2 1.1,0.1 9.9,1.2 20.3,3.5 14.7,3.1 15.8,4.2 4.4,1.3 8,2.8 11.4,4.3 9.8,4.8 2.5,1.3 5.9,3.4 3,1.8 2.7,1.8 2.6,1.8 2.7,2 2.4,1.9 4.7,3.9 2.2,2 2.2,2.1 2.1,2.1 2.1,2.2 3.9,4.3 1.9,2.3 3.2,4.2 1.3,1.8 3.4,5.3 2.1,3.7 2.8,5.8 1.7,4.1 2.2,6.2 1.8,6.4 1.5,6.7 1.2,6.7 1.2,9.2 0.6,7 0.3,6 0.1,4.8 v 4.8 l -0.2,9.6 -0.2,4.9 -0.3,4.9 -0.4,4.9 -1,9.7 -0.6,4.9 -1.4,9.6 -1.6,9.6 -2.7,13.9 -3,13.4 -3.3,12.7 -2.2,8 -2.2,7.6 -6,19.2 -1.4,4 -2,6.2 -4.2,11.7 v 1.3 l -0.8,0.9 -0.3,0.7 -0.3,0.8 -0.6,1.2 -0.5,1.2 -0.6,1.4 -0.5,1.3 -0.9,1.8 -0.6,1.4 -1.7,3.5 -0.6,1.5 -4.5,9.7 -17.4,34.7 -7.1,13.4 -1.5,2.9 -9.8,17.8 -16.8,29.1 -12.7,21 -6.8,10.9 -2.4,3.7 -4.7,7.4 -2.5,3.8 -4.9,7.6 -15.7,23.4 -2.8,4 -5.5,8 -8.6,12.2 -3,4.1 -5.9,8.2 -6.1,8.3 -6.3,8.3 -3.1,4.2 -9.8,12.7 -10.1,12.7 -10.4,12.7 -3.6,4.3 -7,8.6 -11,13 -7.5,8.7 -9.6,10.8 -7.8,8.7 -5.9,6.5 -12.1,13 -10,10.4 c -0.1,0.2 -0.3,0.4 -0.4,0.5 l -0.6,0.8 -1.5,2 -3.1,3.9 -1.6,2.1 -5.1,6.3 -5.4,6.3 -1.8,2 -5.6,6.5 -6,6.6 -4.1,4.3 -4.2,4.6 -7.7,7.9 -9.2,9.2 -4.8,4.7 -4.7,4.7 -4.9,4.8 -10,9.6 -5.1,4.8 -5.2,4.8 -5.3,4.8 -5.3,4.9 -5.4,4.9 -5.5,4.9 -5.6,4.9 -5.6,5 -5.7,5 -11.6,10.1 -5.9,5 -5.9,5.1 -12,10.2 -12.2,10.2 -12.4,10.2 -15.8,12.8 -12.7,10.2 -12.8,10.2 -12.9,10.2 -13,10.2 -26.2,20.3 -26.2,20.1 -29.3,22.2 -13,9.7 -6.4,4.8 -50.5,37.1 -36,26 -5.8,4.1 -5.7,4.1 -5.7,4.1 -22,15.7 -5.3,3.7 -5.2,3.7 -42.4,29.7 -2.2,1.6 -6.4,4.4 -4.2,3 -2,1.3 z"
   id="path66" />
		</g>
		<g
   id="g73">
			<path
   id="Verde_1_"
   inkscape:connector-curvature="0"
   class="st4"
   d="m 1598.8,285 h 2.8 2.7 l 2.7,0.1 h 1.2 2.2 l 4.2,0.1 4.2,0.2 4.1,0.2 4.1,0.3 4,0.3 3.9,0.3 3.9,0.4 3.8,0.4 3.8,0.5 3.7,0.5 3.6,0.6 3.6,0.6 3.5,0.7 3.5,0.7 3.4,0.7 3.3,0.8 3.3,0.8 3.2,0.9 3.2,0.9 3.1,1 3,1 3,1.1 2.9,1.1 2.9,1.1 2.9,1.2 2.8,1.2 2.8,1.3 2.7,1.3 2.7,1.4 2.6,1.4 2.5,1.5 2.5,1.5 2.4,1.6 2.3,1.6 2.3,1.6 2.2,1.7 2.2,1.7 2.1,1.8 2,1.8 2,1.9 1.9,1.9 1.8,2 1.8,2 1.7,2.1 1.7,2.1 1.6,2.2 1.5,2.2 1.5,2.2 1.4,2.3 1.3,2.3 1.3,2.4 1.2,2.4 1.2,2.5 1.1,2.5 1,2.6 1,2.6 0.9,2.7 0.8,2.7 0.8,2.8 0.7,2.8 0.6,2.9 0.6,2.9 0.5,2.9 0.2,1.5 v 0 l 0.2,1.4 0.4,2.7 0.3,2.7 0.3,2.8 0.3,2.8 0.3,2.8 0.2,2.8 0.2,2.8 0.2,2.8 0.1,2.8 0.1,2.9 0.1,2.9 v 2.9 2.9 2.9 2.9 l -0.1,4.3 -0.2,5.8 -0.4,5.8 -0.5,5.9 -0.6,5.9 -0.7,5.9 -0.8,6 -0.8,6 -0.9,6 -1,6 -1.1,6 -1.2,6.1 -1.3,6.1 -1.3,6.1 -1.4,6.1 -1.5,6.1 -1.6,6.1 -1.6,6.1 -1.7,6.1 -1.8,6.1 -1.8,6.1 -1.9,6 -1.9,6 -2,6 -2,6 -2.1,6 -2.1,5.9 -2.2,5.9 -2.2,5.9 -2.3,5.8 -2.3,5.8 -2.3,5.7 -2.3,5.7 -2.4,5.7 -2.4,5.6 -2.4,5.5 -2.4,5.5 -2.5,5.4 -2.5,5.4 -2.5,5.3 -2.5,5.2 -2.5,5.2 -2.5,5.1 -2.5,5 -2.5,4.9 -2.5,4.9 -2.5,4.8 -2.5,4.7 -2.5,4.6 -2.5,4.5 -2.5,4.4 -2.4,4.3 -2.4,4.2 -2.4,4.1 -2.4,4 -2.4,3.9 -1.2,1.9 v 0 l -2.6,4.2 -5.1,8.5 -5.1,8.4 -5.1,8.4 -5.2,8.3 -5.2,8.3 -5.2,8.2 -5.2,8.1 -5.2,8.1 -5.2,8 -5.3,7.9 -5.3,7.9 -5.3,7.8 -5.3,7.8 -5.3,7.7 -5.3,7.6 -5.3,7.6 -5.3,7.5 -5.3,7.4 -5.3,7.4 -5.3,7.3 -5.3,7.3 -5.3,7.2 -5.3,7.1 -5.3,7.1 -5.3,7 -5.3,6.9 -5.3,6.9 -5.3,6.8 -5.3,6.8 -5.3,6.7 -5.3,6.6 -5.3,6.6 -5.3,6.5 -5.3,6.4 -5.3,6.4 -5.3,6.3 -5.2,6.2 -5.2,6.2 -5.2,6.1 -5.2,6 -5.2,6 -5.2,5.9 -5.1,5.8 -5.1,5.8 -5.1,5.7 -5.1,5.7 -5.1,5.6 -5,5.5 -5,5.5 -5,5.4 -5,5.3 -4.9,5.3 -4.9,5.2 -4.9,5.1 -4.8,5.1 -4.8,5 -4.8,4.9 -4.7,4.9 -4.7,4.8 -4.7,4.7 -4.6,4.7 -4.6,4.6 -4.6,4.5 -4.5,4.5 -4.5,4.4 -4.4,4.3 -4.4,4.3 -4.4,4.2 -4.3,4.1 -4.3,4.1 -4.2,4 -4.2,3.9 -4.1,3.9 -4.1,3.8 -4,3.7 -4,3.7 -3.9,3.6 -3.9,3.5 -3.8,3.4 -3.8,3.4 -3.7,3.3 -3.7,3.2 -3.6,3.2 -3.5,3.1 -3.5,3 -3.4,3 -3.4,2.9 -3.3,2.9 -3.2,2.9 -3.2,2.8 -3.1,2.7 -3,2.7 -3,2.6 -2.9,2.5 -2.9,2.4 -2.9,2.4 -2.8,2.3 -2.7,2.2 -2.6,2.2 -2.6,2.1 -2.5,2 -2.4,2 -2.3,1.9 -2.3,1.8 -1.6,1.3 -1.1,0.9 -1.1,0.8 -1,0.8 -1,0.8 -1,0.8 -1,0.8 -1,0.7 -0.9,0.7 -0.9,0.7 -0.9,0.7 -0.9,0.7 -0.8,0.7 -0.8,0.6 -0.8,0.6 -0.8,0.6 -0.8,0.6 -0.7,0.6 -0.7,0.5 -0.7,0.5 -0.7,0.5 -0.7,0.5 -0.6,0.5 -0.6,0.5 -0.6,0.4 -0.6,0.4 -0.5,0.4 -0.5,0.4 -0.5,0.4 -0.5,0.3 -0.4,0.3 -0.4,0.3 -0.4,0.3 -0.4,0.3 -0.4,0.3 -0.3,0.2 -0.3,0.2 -0.3,0.2 -0.3,0.2 -0.2,0.2 -0.2,0.2 -0.2,0.1 -0.2,0.1 -0.1,0.1 -0.1,0.1 h -0.1 v 0 0 l -7.6,5.6 -15.2,11.1 -15.3,11.1 -15.3,11.1 -15.3,11 -11.5,8.2 -7.7,5.4 -7.7,5.4 -7.7,5.4 -7.6,5.3 -7.6,5.3 -7.5,5.2 -7.5,5.2 -7.5,5.2 -7.4,5.1 -7.3,5 -7.3,5 -7.2,4.9 -7.1,4.9 -5.3,3.6 -3.5,2.4 -3.4,2.4 -3.4,2.4 -3.4,2.4 -3.4,2.4 -3.3,2.3 -3.3,2.3 -3.3,2.3 -3.3,2.3 -3.2,2.3 -3.2,2.3 -3.2,2.2 -3.2,2.2 -3.1,2.2 -3.1,2.2 -3.1,2.1 -3,2.1 -3,2.1 -3,2.1 -3,2.1 -2.9,2 -2.9,2 -2.9,2 -2.9,2 -2.9,1.9 -2.8,1.9 -2.8,1.9 -2.8,1.9 -2.7,1.8 -2.7,1.8 -2.7,1.8 -2.6,1.7 -2.6,1.7 -2.5,1.7 -2.5,1.7 -2.5,1.6 -2.4,1.6 -2.4,1.6 -2.3,1.5 -2.3,1.5 -2.2,1.5 -2.2,1.4 -2.1,1.4 -2.1,1.4 -2,1.4 -2,1.3 -2,1.3 -1.9,1.3 -1.9,1.2 -1.8,1.2 -1.8,1.2 -1.7,1.1 -1.6,1.1 -1.6,1 -1.5,1 -1.5,1 -1.4,0.9 -1.4,0.9 -1.3,0.9 -1.3,0.8 -1.2,0.8 -1.1,0.8 -1.1,0.7 -1,0.7 -1,0.6 -0.9,0.6 -0.8,0.6 -0.8,0.5 -0.7,0.5 -0.7,0.4 -0.6,0.4 -0.5,0.3 -0.5,0.3 -0.4,0.3 -0.3,0.2 -0.3,0.2 -0.2,0.1 -0.1,0.1 h -0.1 v 0 l -0.3,0.2 c -0.3,0.2 -0.2,0.1 -0.4,0.2 -0.7,0.4 -0.3,0.2 -1.4,0.6 -1,0.5 -0.6,0.3 -1.3,0.5 -0.7,0.3 -0.2,0.1 -1.4,0.4 -1.2,0.4 -0.7,0.3 -1.5,0.4 -0.7,0.2 -0.3,0.1 -1.5,0.3 -1.3,0.2 -0.7,0.2 -1.6,0.3 -0.3,0 -0.1,0 -0.5,0 h -0.3 1 -0.3 -0.3 c -0.4,0 -0.2,0 -0.4,0 -0.6,0 -0.3,0 -1,-0.2 -0.7,-0.1 -0.5,0 -0.7,-0.2 -0.3,-0.1 -0.2,0 -0.3,-0.4 -0.3,-0.3 -0.3,-0.2 -0.2,-0.4 -0.1,-0.3 -0.1,-0.1 0.2,-0.5 0.2,-0.5 0.1,-0.3 0.4,-0.6 0.1,-0.2 0,-0.1 0.3,-0.2 l 0.2,-0.2 v 0 0 l 0.1,-0.1 0.1,-0.1 0.2,-0.1 0.2,-0.2 0.3,-0.2 0.3,-0.2 0.3,-0.2 0.4,-0.3 0.4,-0.3 0.5,-0.3 0.5,-0.4 0.5,-0.4 0.6,-0.4 0.6,-0.5 0.7,-0.5 0.7,-0.5 0.7,-0.5 0.8,-0.6 0.8,-0.6 0.8,-0.6 0.9,-0.7 0.9,-0.7 1,-0.7 1,-0.7 1,-0.8 1.1,-0.8 1.1,-0.8 1.1,-0.9 1.2,-0.9 1.2,-0.9 1.2,-0.9 1.3,-1 1.3,-1 1.3,-1 1.4,-1 1.4,-1.1 1.4,-1.1 1.5,-1.1 1.5,-1.1 1.5,-1.2 1.6,-1.2 1.6,-1.2 1.6,-1.2 1.6,-1.3 1.7,-1.3 1.7,-1.3 1.7,-1.3 1.8,-1.4 1.8,-1.4 1.8,-1.4 1.8,-1.4 1.9,-1.4 1.9,-1.5 1.9,-1.5 2,-1.5 2,-1.5 2,-1.6 2,-1.6 2.1,-1.6 2.1,-1.6 2.1,-1.6 2.1,-1.7 2.2,-1.7 2.2,-1.7 2.2,-1.7 2.2,-1.7 2.3,-1.8 2.3,-1.8 2.3,-1.8 2.3,-1.8 2.3,-1.8 2.4,-1.9 2.4,-1.9 2.4,-1.9 2.4,-1.9 2.5,-1.9 3.6,-2.9 4.9,-3.9 5,-3.9 5.1,-4 5.2,-4.1 5.2,-4.1 5.3,-4.2 5.4,-4.2 5.4,-4.3 5.5,-4.4 5.5,-4.4 5.6,-4.5 5.7,-4.5 5.7,-4.6 5.8,-4.6 5.8,-4.7 5.9,-4.7 5.9,-4.8 5.9,-4.8 6,-4.9 6,-4.9 6,-4.9 6.1,-5 6.1,-5 6.1,-5 6.1,-5.1 6.2,-5.1 6.2,-5.1 6.2,-5.2 9.3,-7.9 12.5,-10.5 12.5,-10.6 12.5,-10.7 12.5,-10.7 12.5,-10.8 12.4,-10.8 12.4,-10.9 12.3,-10.9 12.2,-10.9 9,-8.2 6,-5.4 5.9,-5.4 5.9,-5.4 5.9,-5.4 5.8,-5.4 5.8,-5.4 5.7,-5.4 5.7,-5.4 5.6,-5.4 5.6,-5.4 5.5,-5.3 5.4,-5.3 5.4,-5.3 5.3,-5.3 5.2,-5.2 5.2,-5.2 5.1,-5.2 5,-5.2 5,-5.1 4.9,-5.1 4.8,-5.1 4.7,-5 4.6,-5 4.5,-5 4.4,-4.9 4.3,-4.9 4.3,-4.8 4.2,-4.8 4.1,-4.7 3,-3.5 2,-2.4 2,-2.4 1.9,-2.4 1.9,-2.4 1.9,-2.3 1.9,-2.3 1.8,-2.3 1.8,-2.3 1.8,-2.3 1.8,-2.3 1.7,-2.3 1.7,-2.2 1.7,-2.2 1.6,-2.2 1.6,-2.2 1.6,-2.2 1.5,-2.2 1.5,-2.2 1.5,-2.1 0.7,-1.1 c 0.1,-0.1 0.1,-0.2 0.2,-0.2 l 2,-2.3 3.9,-4.5 3.9,-4.6 3.9,-4.6 5.8,-6.9 7.6,-9.1 7.5,-9.1 7.3,-9.1 7.2,-9.1 5.3,-6.9 3.4,-4.5 3.4,-4.5 3.4,-4.5 3.3,-4.5 3.3,-4.5 3.3,-4.5 3.2,-4.5 3.2,-4.5 3.2,-4.5 3.1,-4.5 3.1,-4.5 3.1,-4.5 3,-4.4 3,-4.4 3,-4.4 2.9,-4.4 2.9,-4.4 2.9,-4.4 2.9,-4.4 2.9,-4.3 2.9,-4.3 2.8,-4.3 2.8,-4.3 2.8,-4.3 2.7,-4.3 2.7,-4.2 2.7,-4.2 2.6,-4.2 2.6,-4.2 2.6,-4.1 2.6,-4.1 2.5,-4.1 2.5,-4.1 2.5,-4 2.4,-4 2.4,-4 2.4,-4 2.3,-3.9 2.3,-3.9 2.3,-3.9 2.2,-3.9 2.2,-3.8 2.2,-3.8 2.1,-3.8 2.1,-3.7 2.1,-3.7 2,-3.7 2,-3.6 2,-3.6 1.9,-3.6 1.9,-3.5 1.9,-3.5 1.8,-3.4 1.8,-3.4 1.8,-3.4 1.8,-3.3 1.7,-3.3 1.7,-3.2 1.7,-3.2 1.6,-3.2 1.6,-3.1 1.6,-3.1 1.5,-3 1.5,-3 1.5,-2.9 1.4,-2.9 1.4,-2.9 1.4,-2.9 1.3,-2.8 1.3,-2.8 1.3,-2.7 1.3,-2.7 1.2,-2.6 1.2,-2.6 1.2,-2.5 1.1,-2.5 1.1,-2.4 1.1,-2.4 1,-2.3 1,-2.3 1,-2.2 0.9,-2.2 0.9,-2.1 0.9,-2 0.9,-2 0.8,-1.9 0.8,-1.9 0.8,-1.8 0.7,-1.7 0.7,-1.7 0.7,-1.6 0.6,-1.6 0.6,-1.5 0.6,-1.4 0.6,-1.4 0.5,-1.3 0.5,-1.2 0.5,-1.2 0.4,-1.1 0.4,-1 0.4,-1 0.3,-0.9 0.3,-0.8 0.3,-0.7 0.3,-0.7 0.2,-0.6 0.2,-0.5 0.2,-0.5 0.1,-0.4 0.1,-0.3 0.1,-0.2 0.1,-0.2 v -0.1 -0.1 -0.1 l 0.1,-0.2 0.1,-0.2 0.1,-0.3 0.1,-0.4 0.1,-0.4 0.2,-0.5 0.2,-0.5 0.2,-0.6 0.2,-0.7 0.2,-0.7 0.3,-0.8 0.3,-0.8 0.3,-0.9 0.3,-0.9 0.3,-1 0.3,-1 0.3,-1.1 0.4,-1.1 0.4,-1.2 0.4,-1.2 0.4,-1.3 0.4,-1.3 0.4,-1.4 0.4,-1.4 0.4,-1.4 0.4,-1.5 0.5,-1.5 0.5,-1.6 0.5,-1.6 0.5,-1.7 0.5,-1.7 0.5,-1.7 0.5,-1.8 0.5,-1.8 0.5,-1.8 0.8,-2.8 1,-3.8 1,-3.9 1,-4 1,-4.1 1,-4.2 1,-4.4 1,-4.4 1,-4.5 1,-4.6 1,-4.7 0.9,-4.8 0.9,-4.8 0.9,-4.9 0.8,-4.9 0.8,-5 0.7,-5 0.7,-5 0.6,-5.1 0.6,-5.1 0.5,-5.1 0.4,-5.1 0.4,-5.1 0.3,-5.1 0.2,-5.1 0.1,-5.1 0.1,-5 v -5 l -0.1,-5 -0.2,-3.7 -0.1,-2.5 -0.2,-2.5 -0.2,-2.5 -0.2,-2.5 -0.2,-2.4 -0.3,-2.4 -0.3,-2.4 -0.3,-2.4 -0.4,-2.4 -0.4,-2.4 -0.4,-2.3 -0.5,-2.3 -0.5,-2.3 -0.5,-2.3 -0.5,-2.2 -0.6,-2.2 -0.6,-2.2 -0.6,-2.2 -0.7,-2.1 -0.7,-2.1 -0.8,-2.1 -0.8,-2.1 -0.8,-2 -0.9,-2 -0.9,-2 -0.9,-1.9 -1,-1.9 -1,-1.9 -1.1,-1.8 -1.1,-1.8 -1.1,-1.8 -0.6,-0.9 -0.8,-1.2 -1.7,-2.3 -1.7,-2.3 -1.8,-2.3 -1.8,-2.2 -1.9,-2.2 -2,-2.2 -2,-2.1 -2.1,-2.1 -2.2,-2.1 -2.2,-2 -2.3,-2 -2.4,-2 -2.5,-1.9 -2.6,-1.9 -2.7,-1.8 -2.8,-1.8 -2.9,-1.8 -2.2,-1.3 -1.5,-0.9 -1.5,-0.8 -1.6,-0.8 -1.6,-0.8 -1.6,-0.8 -1.7,-0.8 -1.7,-0.8 -1.7,-0.8 -1.8,-0.8 -1.8,-0.8 -1.8,-0.8 -1.8,-0.7 -1.9,-0.7 -1.9,-0.7 -1.9,-0.7 -2,-0.7 -2,-0.7 -2,-0.7 -2.1,-0.7 -2.1,-0.7 -2.1,-0.6 -2.2,-0.6 -2.2,-0.6 -2.3,-0.6 -2.3,-0.6 -2.3,-0.6 -2.4,-0.6 -1.2,-0.3 -2.4,-0.5 -4.7,-1 -4.7,-0.9 -4.7,-0.8 -4.6,-0.8 -4.6,-0.7 -4.5,-0.6 -4.5,-0.5 -4.4,-0.5 -4.3,-0.4 -3.2,-0.3 -2.1,-0.2 -2.1,-0.1 -2.1,-0.1 -2.1,-0.1 -2,-0.1 -2,-0.1 -2,-0.1 -1.9,-0.1 -1.9,-0.1 h -1.9 -1.8 -1.8 -1.8 -1.7 -1.7 -1.6 -1.6 -1.5 -1.5 -1.5 -1.4 -1.4 -1.3 -1.3 -1.2 -1.1 -1.1 -1 -1 -0.9 -0.9 -0.8 -0.7 -0.7 -0.6 -0.5 -0.5 -0.4 -0.3 -0.3 -0.2 -0.1 v 0 0 c -3.3,0.3 -5.1,-0.5 -4,-1.9 1.2,-1.6 5.4,-3.3 9.4,-3.9 v 0 0 h 0.1 0.1 0.2 l 0.4,-0.1 0.5,-0.1 0.7,-0.1 0.8,-0.1 0.9,-0.1 1,-0.1 1.1,-0.2 1.2,-0.2 1.3,-0.2 1.4,-0.2 1.5,-0.2 1.6,-0.2 1.7,-0.2 1.8,-0.2 1.9,-0.3 2,-0.3 2.1,-0.3 2.1,-0.3 2.2,-0.3 2.3,-0.3 2.4,-0.3 2.4,-0.3 2.5,-0.3 2.6,-0.3 2.6,-0.3 2.7,-0.3 2.7,-0.3 2.8,-0.3 2.8,-0.3 2.8,-0.3 2.9,-0.3 4.3,-0.5 5.9,-0.6 6,-0.6 6.1,-0.6 6.1,-0.5 6.1,-0.5 6.2,-0.5 6.1,-0.4 6.1,-0.4 4.5,-0.2 3,-0.1 2.9,-0.1 2.9,-0.1 2.9,-0.1 2.9,-0.1 2.9,-0.1 h 2.9 z" />
			<path
   class="st5"
   d="M 806.7,1546.6 H 804 c -0.6,0 -1.2,0 -2.1,-0.3 -0.8,-0.1 -1.5,-0.3 -2.1,-0.7 -0.9,-0.5 -1.7,-1.2 -2.2,-2.2 -0.6,-0.9 -0.9,-1.9 -0.9,-3 0,-1.1 0.3,-2.2 1,-3.2 0.2,-0.4 0.4,-0.7 0.8,-1.1 0.3,-0.4 0.8,-0.8 1.2,-1.1 l 0.4,-0.4 1.4,-0.9 14.6,-10.8 1.1,-0.9 14.4,-10.9 1.5,-1.2 4.6,-3.5 1.6,-1.3 21.6,-16.6 4,-3.2 6.1,-4.7 2.1,-1.7 35.5,-27.7 4.9,-3.9 31.3,-24.7 39.2,-31.4 5.8,-4.7 5.9,-4.7 48,-39.4 6.1,-5.1 12.4,-10.2 28,-23.6 12.5,-10.6 24.9,-21.4 12.5,-10.8 12.4,-10.8 12.4,-10.9 12.3,-10.9 27.2,-24.4 17.7,-16.2 11.6,-10.8 11.4,-10.8 16.7,-16.1 10.8,-10.6 15.7,-15.7 5.1,-5.2 5,-5.2 5,-5.1 4.9,-5.1 9.5,-10.1 4.6,-5 8.9,-9.9 4.3,-4.9 4.4,-4.9 11.3,-13 3.8,-4.6 3.8,-4.7 3.7,-4.5 7,-8.9 1.7,-2.3 3.3,-4.3 4.6,-6.4 3,-4.4 1.4,-2 1.1,-1.6 c 0.2,-0.2 0.3,-0.4 0.5,-0.6 l 5.6,-6.4 13.6,-16.1 7.5,-9.1 7.4,-9.1 7.2,-9.1 7.2,-9.1 15.6,-20.4 10,-13.5 9.7,-13.5 18.5,-26.8 8.8,-13.2 2.8,-4.4 5.7,-8.7 8.2,-12.9 2.6,-4.3 5.3,-8.5 5.1,-8.4 5.1,-8.3 4.9,-8.2 2.5,-4.1 13.8,-23.8 12.6,-22.8 18.5,-35.3 14.1,-28.3 12.7,-26.9 6.1,-13.8 1.8,-4.2 4.1,-9.4 7,-17.1 0.7,-1.9 1.2,-3.1 v -0.4 l 0.5,-1.2 0.3,-1 0.5,-1.2 0.5,-1.7 1.1,-3.1 1,-3.2 1.1,-3.3 1.9,-6.5 0.5,-1.7 1.4,-4.5 3.7,-12.9 2.9,-11.7 2,-8.3 3.9,-17.9 1,-4.6 2.6,-14.5 1.6,-9.8 1.4,-9.9 1.2,-10.2 0.5,-5 0.8,-10.1 0.3,-5 0.2,-5 0.2,-10 v -4.9 l -0.1,-4.8 -0.3,-6.1 -0.8,-9.5 -0.9,-6.9 -1.1,-6.7 -1.9,-8.7 -1.7,-6.2 -1.3,-3.9 -2.3,-5.8 -2.5,-5.5 -1.8,-3.5 -3.6,-5.9 -0.7,-1.1 -3.2,-4.4 -1.7,-2.2 -1.7,-2.1 -1.8,-2.1 -1.9,-2.1 -1.9,-2 -2,-2 -2.1,-2 -2.1,-1.9 -2.2,-1.9 -2.2,-1.9 -2.4,-1.8 -2.4,-1.7 -2.6,-1.7 -2.7,-1.7 -2.7,-1.7 -3.5,-2.1 -5.9,-3 -10.1,-4.6 -7.2,-2.7 -9.8,-3.4 -6.2,-1.7 -10.1,-2.6 -6.9,-1.4 -4.6,-0.9 -9.2,-1.6 -4.6,-0.7 -4.4,-0.6 -8.9,-1 -9.4,-0.9 -15.6,-0.8 h -35.1 c -4.5,0.3 -7.5,-0.8 -8.9,-3.4 -1.1,-2.1 -0.9,-4.5 0.7,-6.5 2.7,-3.5 9.2,-5.3 12.7,-5.8 l 14.4,-2 1.7,-0.2 10.1,-1.5 14.6,-1.8 20.7,-2.3 18.1,-1.8 18.5,-1.5 12.4,-0.8 22.3,-0.8 h 3.3 l 3.1,0.6 h 5.1 l 3.6,0.1 h 2.3 l 4.3,0.1 8.5,0.4 12.2,0.9 7.9,0.8 7.7,1 7.4,1.2 10.7,2.1 6.9,1.6 6.7,1.8 6.4,2 9.2,3.3 5.8,2.4 5.6,2.7 5.5,2.9 5.1,3.1 2.4,1.6 4.8,3.3 4.5,3.5 2.2,1.8 2.1,1.9 2.1,2 2,2.1 3.7,4.1 3.5,4.3 1.7,2.3 3.1,4.5 1.5,2.4 2.7,4.8 2.5,5 1.2,2.7 2,5.3 0.9,2.8 1.6,5.6 0.7,3 1.2,5.9 0.5,3 0.8,5.6 1.2,11.1 0.6,8.4 0.3,8.6 v 11.5 l -0.1,4.3 -0.2,6 -0.4,5.8 -0.5,6 -0.6,6 -0.7,6 -1.6,12.1 -0.9,6.1 -1,6.1 -1.1,6.1 -1.2,6.2 -2.6,12.3 -1.4,6.2 -1.5,6.2 -3.2,12.3 -1.7,6.2 -3.6,12.3 -3.8,12.1 -4,12.1 -4.2,12 -4.4,12 -9.1,23 -4.8,11.4 -4.8,11.1 -7.4,16.2 -7.4,15.6 -7.4,14.9 -5,9.6 -5,9.2 -7.2,13 -4.8,8.2 -2.4,4.1 -1.2,1.9 -7.6,12.6 -10.2,16.7 -10.5,16.6 -5.2,8.2 -10.4,16.1 -5.2,8 -10.7,15.8 -10.6,15.6 -5.3,7.7 -10.6,15.2 -5.3,7.5 -10.6,14.8 -10.6,14.6 -5.3,7.2 -10.6,14.2 -5.3,7 -10.6,13.8 -10.6,13.6 -5.3,6.7 -10.6,13.2 -5.3,6.5 -10.6,12.8 -15.7,18.7 -5.2,6.1 -10.4,12 -15.5,17.5 -10.3,11.4 -15.2,16.6 -5,5.4 -5,5.3 -4.9,5.3 -4.9,5.2 -4.9,5.1 -4.8,5.1 -4.8,5 -4.9,5 -4.7,4.9 -4.8,4.9 -4.8,4.8 -4.6,4.7 -4.7,4.7 -4.7,4.6 -4.5,4.5 -13.4,13.1 -17.3,16.6 -4.3,4 -4.1,3.9 -16.2,15 -15.4,13.8 -3.8,3.3 -7.1,6.4 -3.6,3.1 -3.4,3 -6.9,5.9 -3.2,2.8 -6.5,5.5 -3,2.6 -14.6,12.1 -2.7,2.2 -2.6,2.2 -14.7,11.9 -1,0.7 -4.1,3.3 -0.9,0.6 -3.3,2.6 -1,0.8 -13.9,10.3 -0.6,0.6 -0.4,0.2 -1.1,1.1 h -0.5 l -6.2,4.6 -15.3,11.1 -30.7,22.2 -15.3,11 -34.5,24.4 -44.9,31.4 -34.1,23.5 -3.6,2.4 -33.6,23 -6.5,4.3 -6.3,4.3 -3.1,2.1 -23.9,16.1 -2.8,1.9 -16.2,10.9 -5.1,3.4 -5,3.4 -2.5,1.6 -11.4,7.6 -2.1,1.3 -4,2.7 -2.1,1.4 -3.9,2.5 -2,1.3 -1.8,1.1 -6.9,4.6 -1.5,0.9 -7.1,4.7 -2.2,1.4 -1.3,0.9 -3.7,2.4 -1,0.7 -4.5,2.9 -1.1,1.1 H 817 c -0.4,0.2 -0.7,0.3 -1.2,0.5 -0.1,0 -0.2,0.1 -0.3,0.1 -0.6,0.3 -1,0.5 -1.6,0.6 -0.4,0.1 -0.7,0.3 -1.2,0.4 -0.1,0 -0.2,0 -0.4,0.1 -0.2,0.1 -0.3,0.1 -0.4,0.1 -0.6,0.2 -0.9,0.3 -1.5,0.4 -0.4,0.1 -0.6,0.1 -1,0.2 l -0.6,0.1 c -0.2,0 -0.3,0.1 -0.4,0.1 -0.4,0.1 -0.8,0.2 -1.4,0.3 z m 1.8,-0.3 z m 8,-2.4 z m -10.3,-1.1 z m -4.7,-8.5 c -0.1,0 -0.1,0 0,0 -0.1,0 -0.1,0 0,0 z m 44,-21.2 -0.4,0.3 0.3,-0.2 3.9,-2.5 2,-1.4 4.2,-2.8 2.1,-1.3 2.2,-1.5 11.7,-7.7 4.9,-3.3 13.1,-8.7 8.2,-5.6 2.9,-1.9 2.8,-1.9 24.2,-16.3 6.2,-4.3 6.5,-4.3 6.4,-4.5 36,-24.5 7.1,-4.9 21.7,-15 29.8,-20.7 38.1,-26.8 11.5,-8.1 15.3,-11 30.6,-22.2 15.2,-11.1 22.5,-16.7 0.9,-0.8 3.7,-2.9 0.9,-0.6 4,-3.2 1,-0.7 2.6,-2.1 2.3,-1.8 29.2,-24.1 3,-2.6 6.4,-5.4 3.2,-2.8 6.8,-5.8 3.4,-3 3.6,-3.1 7.1,-6.3 3.8,-3.3 15.3,-13.7 16.1,-14.9 4.1,-3.9 4.3,-4 17.2,-16.5 13.3,-13 4.5,-4.5 4.7,-4.6 4.6,-4.6 4.6,-4.7 4.8,-4.8 4.7,-4.8 4.7,-4.9 4.9,-5 4.8,-5 4.8,-5.1 4.9,-5.1 4.9,-5.2 4.9,-5.3 5,-5.3 5,-5.4 15.1,-16.6 10.2,-11.4 15.4,-17.5 10.4,-12 5.2,-6.1 15.7,-18.6 10.6,-12.7 5.3,-6.5 10.6,-13.1 5.3,-6.7 10.6,-13.5 10.6,-13.7 5.3,-7 10.6,-14.1 5.3,-7.1 10.6,-14.5 10.6,-14.7 5.3,-7.4 10.6,-15.1 5.3,-7.6 10.6,-15.5 10.6,-15.7 5.2,-7.9 10.4,-16.1 5.2,-8.1 10.4,-16.5 10.2,-16.6 11.2,-18.4 4.7,-8.1 7.1,-12.9 4.9,-9.1 4.9,-9.5 7.3,-14.8 7.3,-15.5 7.3,-16 7,-16.5 2.3,-5.7 9,-22.9 4.3,-11.7 4.1,-11.8 3.9,-11.9 3.7,-11.9 3.5,-12.1 1.7,-6 3.1,-12.1 1.5,-6 1.4,-6 2.5,-12.1 1.2,-6 1.1,-5.9 1,-5.9 0.9,-5.9 1.6,-11.9 0.7,-5.8 0.6,-5.8 0.5,-5.8 0.4,-5.6 0.3,-9.9 v -11.2 l -0.3,-8.3 -0.6,-8.1 -1.2,-10.7 -0.8,-5.4 -0.5,-2.7 -1.1,-5.5 -0.6,-2.6 -1.5,-5.2 -0.8,-2.5 -1.9,-4.9 -1,-2.3 -2.3,-4.6 -2.4,-4.4 -1.3,-2.1 -2.8,-4.2 -1.5,-2 -3.2,-3.9 -3.4,-3.7 -1.7,-1.7 -1.9,-1.8 -1.9,-1.7 -1.9,-1.6 -4.1,-3.2 -4.4,-3.1 -2.2,-1.5 -4.7,-2.8 -5,-2.6 -5.2,-2.5 -5.4,-2.3 -8.7,-3.2 -6,-1.9 -6.3,-1.7 -6.5,-1.5 -10.3,-2 -7.1,-1.2 -7.4,-1 -7.6,-0.8 -11.9,-0.9 -8.2,-0.4 -10.1,-0.2 h -5.8 l -3.1,-0.6 h -2.3 l -21.9,0.8 -12.1,0.8 -18.3,1.5 -17.9,1.8 -31.3,3.5 15.7,0.8 9.6,0.9 9.1,1 4.5,0.6 4.8,0.7 9.4,1.6 4.8,0.9 8.4,1.8 13.6,3.6 2.3,0.7 10.1,3.5 7.8,2.9 10.5,4.8 6.5,3.3 6.6,4 2.8,1.8 2.9,1.9 2.6,1.9 2.7,2.1 2.4,2 2.3,2 2.3,2 2.2,2.1 2.1,2.2 2,2.1 2,2.3 2,2.3 1.8,2.2 1.9,2.4 3.5,4.7 1.5,2.2 3.4,5.6 2.1,3.9 2.8,6.1 2.5,6.4 1.5,4.4 1.8,6.7 2,9.2 1.2,7.2 0.9,7.3 0.8,9.9 0.3,6.3 0.1,5 v 5.1 l -0.2,10.2 -0.2,5.2 -0.3,5.2 -0.8,10.3 -0.5,5.2 -1.2,10.4 -1.4,10 -1.6,10 -2.7,14.8 -3,13.9 -3,13.1 -3,12.2 -1,4 -4.8,16.3 -0.5,1.4 -2,6.9 -3.1,9.8 -0.7,1.9 -0.6,1.8 -0.3,0.7 -0.2,0.9 v 0.4 l -0.5,1.2 -0.2,0.6 -6.8,17.3 -7.1,16.4 -0.9,2.3 -6.2,14 -12.8,27.1 -14.2,28.5 -10.8,20.7 -1.9,3.7 -12.1,22.3 -13.3,23.5 -7.1,12.1 -17.6,29.1 -5.4,8.5 -2.6,4.3 -8.3,13 -5.7,8.7 -2.8,4.4 -8.9,13.3 -18.6,26.9 -9.8,13.6 -10.1,13.6 -10.4,13.6 -5.3,6.9 -7.2,9.2 -7.3,9.2 -7.5,9.2 -7.6,9.2 -13.7,16.2 -6,6.8 -0.6,0.9 -1.4,2 -3,4.4 -4.8,6.6 -3.3,4.3 -1.7,2.3 -7.2,9.1 -3.7,4.5 -3.8,4.8 -3.9,4.7 -3.1,3.6 -8.4,9.6 -4.4,4.9 -4.3,4.9 -9,10 -4.7,5.1 -9.6,10.2 -4.9,5.1 -5,5.1 -5,5.2 -5.1,5.2 -15.8,15.8 -10.8,10.6 -16.7,16.2 -11.4,10.8 -11.6,10.8 -17.7,16.2 -15.1,13.6 -12.2,10.9 -12.3,10.9 -12.4,10.9 -12.4,10.8 -12.5,10.8 -25,21.4 -12.5,10.6 -28,23.6 -12.4,10.3 -6.1,5.1 -48.1,39.5 -5.9,4.7 -5.8,4.7 -5.8,4.7 -5.7,4.6 -5.7,4.6 -22,17.7 -5.4,4.3 -34.4,27.2 -2.5,1.9 -41.6,32.6 -3.9,2.9 -3.8,3 -1.8,1.3 z m 538.3,-500.7 z M 1455.1,304 Z m -1.7,-6.3 z"
   id="path71" />
		</g>
	</g>
	<path
   class="st1"
   d="m 1583.4,465.4 c -0.8,-1.9 -5.1,-11.4 -6.7,-15.5 l -0.1,-0.1 c -11.1,-29.5 -46.1,-80.6 -89.1,-130 -49.1,-56.4 -101.4,-102.4 -143.4,-126.2 l 19.7,-34.9 c 102.5,58 224.7,209 250.2,276.8 0.9,2.3 3.9,9.2 5.8,13.3 z"
   id="path76" />
</g></g>
</svg>
