<?xml version="1.0" encoding="UTF-8"?>
<svg width="245px" height="303px" viewBox="0 0 245 303" version="1.1" xmlns="http://www.w3.org/2000/svg" xmlns:xlink="http://www.w3.org/1999/xlink">
    <title>Riot Logo White</title>
    <desc>Created with Sketch.</desc>
    <g id="Page-1" stroke="none" stroke-width="1" fill="none" fill-rule="evenodd">
        <g id="Riot-Logo-White" transform="translate(4.000000, 4.000000)">
            <path d="M86.1425849,84.2020859 L86.1425849,126.893219 L129.37194,126.848586 C129.920908,126.848586 130.42181,126.833708 130.920183,126.801474 C142.286609,126.050157 151.171294,116.704576 151.171294,105.526576 C151.171294,93.7658716 141.413825,84.2020859 129.414947,84.2020859 L86.1425849,84.2020859 Z M43.3888336,295.061616 C19.7781376,295.061616 0.635082213,276.301025 0.635082213,253.156514 L0.635082213,173.291341 C0.480763939,171.843259 0.397222769,170.370382 0.397222769,168.880147 C0.394750474,167.362637 0.475704323,165.864963 0.635082213,164.387127 L0.635082213,42.2969838 C0.635082213,19.1524736 19.7781376,0.389402187 43.3888336,0.389402187 L129.414947,0.389402187 C188.561853,0.389402187 236.681326,47.5537185 236.681326,105.526576 C236.681326,160.645423 192.758804,206.718719 136.688144,210.41827 C134.305065,210.579443 131.848622,210.66127 129.414947,210.66127 L86.1425849,210.703423 L86.1425849,253.156514 C86.1425849,276.301025 67.0020593,295.061616 43.3888336,295.061616 L43.3888336,295.061616 Z" id="Fill-1"></path>
            <path d="M86.1425849,84.2020859 L86.1425849,126.893219 L129.37194,126.848586 C129.920908,126.848586 130.42181,126.833708 130.920183,126.801474 C142.286609,126.050157 151.171294,116.704576 151.171294,105.526576 C151.171294,93.7658716 141.413825,84.2020859 129.414947,84.2020859 L86.1425849,84.2020859 Z M43.3888336,295.061616 C19.7781376,295.061616 0.635082213,276.301025 0.635082213,253.156514 L0.635082213,42.2969838 C0.635082213,19.1524736 19.7781376,0.389402187 43.3888336,0.389402187 L129.414947,0.389402187 C188.561853,0.389402187 236.681326,47.5537185 236.681326,105.526576 C236.681326,160.645423 192.758804,206.718719 136.688144,210.41827 C134.305065,210.579443 131.848622,210.66127 129.414947,210.66127 L86.1425849,210.703423 L86.1425849,253.156514 C86.1425849,276.301025 67.0020593,295.061616 43.3888336,295.061616 Z" id="Stroke-3" stroke="#737373" stroke-width="7.57286622"></path>
            <path d="M43.3890866,253.155771 L43.3890866,42.2962399 L129.4152,42.2962399 C165.042483,42.2962399 193.925298,70.6057399 193.925298,105.525832 C193.925298,138.997842 167.390144,166.394852 133.817065,168.609128 C132.359896,168.705832 130.895137,168.755424 129.4152,168.755424 L43.3890866,168.755424" id="Stroke-5" stroke="#737373" stroke-width="7.57286622" stroke-linecap="round"></path>
            <path d="M168.827328,144.561054 L229.251787,229.080422 C242.803967,248.034422 238.111174,274.16684 218.775853,287.445054 C211.30786,292.57533 202.749521,295.037564 194.277194,295.037564 C180.803438,295.037564 167.547245,288.813789 159.226708,277.177064 L98.802249,192.657697 C85.2525986,173.703697 89.945392,147.571279 109.280713,134.293064 C128.616034,121.004932 155.277678,125.607054 168.827328,144.561054 Z M78.6186836,18.2627961 C85.1734156,27.4298471 87.6905743,38.5532961 85.707205,49.5701226 C83.7213059,60.5943879 77.4726807,70.1978471 68.112392,76.6175103 C48.7871904,89.8709287 22.0547116,85.2564083 8.52276987,66.3296838 C1.96803793,57.1626328 -0.549120806,46.0416634 1.4367783,35.0198777 C3.42014759,23.998092 9.66877279,14.3921532 19.0315914,7.97496953 C38.3567929,-5.27844883 65.0867419,-0.663928426 78.6186836,18.2627961 Z" id="Combined-Shape" fill="#737373"></path>
        </g>
    </g>
</svg>