<?xml version="1.0" encoding="UTF-8" standalone="no"?>
<svg
   xmlns:dc="http://purl.org/dc/elements/1.1/"
   xmlns:cc="http://creativecommons.org/ns#"
   xmlns:rdf="http://www.w3.org/1999/02/22-rdf-syntax-ns#"
   xmlns:svg="http://www.w3.org/2000/svg"
   xmlns="http://www.w3.org/2000/svg"
   xmlns:sodipodi="http://sodipodi.sourceforge.net/DTD/sodipodi-0.dtd"
   xmlns:inkscape="http://www.inkscape.org/namespaces/inkscape"
   version="1.1"
   x="0"
   y="0"
   width="2929.5576"
   height="1721.8707"
   viewBox="0 0 2929.5576 1721.8707"
   id="svg205"
   sodipodi:docname="mozita logo nero.svg"
   inkscape:version="0.92.4 (5da689c313, 2019-01-14)"
   inkscape:export-filename="Z:\Documents\Mozilla\Logo\Png\Monocolore\mozita logo nero.png"
   inkscape:export-xdpi="10.230179"
   inkscape:export-ydpi="10.230179">
  <metadata
     id="metadata209">
    <rdf:RDF>
      <cc:Work
         rdf:about="">
        <dc:format>image/svg+xml</dc:format>
        <dc:type
           rdf:resource="http://purl.org/dc/dcmitype/StillImage" />
        <dc:title />
      </cc:Work>
    </rdf:RDF>
  </metadata>
  <sodipodi:namedview
     pagecolor="#ffffff"
     bordercolor="#666666"
     borderopacity="1"
     objecttolerance="10"
     gridtolerance="10"
     guidetolerance="10"
     inkscape:pageopacity="0"
     inkscape:pageshadow="2"
     inkscape:window-width="1536"
     inkscape:window-height="801"
     id="namedview207"
     showgrid="false"
     inkscape:zoom="0.125"
     inkscape:cx="-172.76555"
     inkscape:cy="1099.4442"
     inkscape:window-x="-8"
     inkscape:window-y="-8"
     inkscape:window-maximized="1"
     inkscape:current-layer="g4746" />
  <defs
     id="defs118">
    <clipPath
       id="Clip_1">
      <path
         d="M -11,56 H 1856 V 1923 H -11 Z m 933.5,61 C 440.632,117 50,507.632 50,989.5 50,1471.369 440.632,1862 922.5,1862 1404.368,1862 1795,1471.369 1795,989.5 1795,507.632 1404.368,117 922.5,117 Z"
         id="path2"
         inkscape:connector-curvature="0" />
    </clipPath>
    <radialGradient
       id="Gradient_1"
       gradientUnits="userSpaceOnUse"
       cx="1363.5"
       cy="1850.5"
       r="1773.201">
      <stop
         offset="0"
         stop-color="#0095DD"
         id="stop14" />
      <stop
         offset="1"
         stop-color="#00539F"
         id="stop16" />
    </radialGradient>
  </defs>
  <g
     id="g4746"
     inkscape:export-filename="Z:\Documents\Mozilla\Logo\Png\Colorato\mozita logo chiaro.png"
     inkscape:export-xdpi="59.022247"
     inkscape:export-ydpi="59.022247"
     transform="translate(-1949.959,-1.0289532e-6)" />
  <text
     xml:space="preserve"
     style="font-style:normal;font-weight:normal;font-size:768px;line-height:1.14999998;font-family:sans-serif;letter-spacing:0px;word-spacing:0px;fill:#000000;fill-opacity:1;stroke:none"
     x="11.12"
     y="1563.9667"
     id="text870"
     inkscape:export-filename="Z:\Documents\Mozilla\Testo\Png\Monocolore\mozita logo nero.png"
     inkscape:export-xdpi="55.753315"
     inkscape:export-ydpi="55.753315"><tspan
       sodipodi:role="line"
       x="11.12"
       y="1563.9667"
       style="font-style:normal;font-variant:normal;font-weight:bold;font-stretch:normal;font-size:741.33331299px;line-height:1.14999998;font-family:'Zilla Slab Highlight';-inkscape-font-specification:'Zilla Slab Highlight Bold';letter-spacing:0px;word-spacing:0px;fill:#000000;fill-opacity:1"
       id="tspan872"> Italia </tspan></text>
  <g
     id="g8"
     transform="matrix(1.4647787,0,0,1.4647787,-2050.0414,-546.11372)"
     inkscape:export-filename="Z:\Documents\Mozilla\Testo\Png\Monocolore\mozita logo nero.png"
     inkscape:export-xdpi="55.753315"
     inkscape:export-ydpi="55.753315"
     style="fill:#000000;fill-opacity:1">
    <path
       inkscape:connector-curvature="0"
       d="m 2145.7572,626.9302 c -36.6,0 -59.4,27.20001 -59.4,74.30002 0,43.3 19.9999,76.60001 58.8,76.60001 37.2,0 61.6,-30.00001 61.6,-77.70002 0,-50.49999 -27.2001,-73.20001 -61,-73.20001 z"
       id="path2-2"
       style="fill:#000000;fill-opacity:1;stroke-width:1.00000012" />
    <path
       inkscape:connector-curvature="0"
       d="m 3126.7572,752.83022 c 0,16.10001 7.8001,28.90001 29.4,28.90001 25.5001,0 52.7001,-18.30001 54.4,-59.90001 -11.5999,-1.70001 -24.4,-3.3 -36.0999,-3.3 -25.5001,-0.10004 -47.7001,7.1 -47.7001,34.3 z"
       id="path4"
       style="fill:#000000;fill-opacity:1;stroke-width:1.00000012" />
    <path
       inkscape:connector-curvature="0"
       d="M 1399.5571,372.83019 V 944.73023 H 3399.5573 V 372.83019 Z m 581.9001,454.40004 h -104.9 V 686.33021 c 0,-43.30001 -14.3999,-59.89999 -42.7001,-59.89999 -34.3999,0 -48.2999,24.39999 -48.2999,59.4 v 87 h 33.3 v 54.40001 H 1714.0571 V 686.33021 c 0,-43.30001 -14.3999,-59.89999 -42.6999,-59.89999 -34.4,0 -48.3,24.39999 -48.3,59.4 v 87 h 47.7 v 54.40001 h -152.5 v -54.40001 h 33.3 V 631.33021 h -33.3 V 576.9302 h 104.8 v 37.70001 c 15,-26.6 41.1,-42.7 76,-42.7 36.1001,0 69.3,17.2 81.6,53.8 13.9001,-33.3 42.2,-53.8 81.5999,-53.8 44.9001,0 86,27.2 86,86.5 v 114.40001 h 33.3 v 54.40001 z m 161.4999,5.49999 c -77.0999,0 -130.3999,-47.1 -130.3999,-127 0,-73.2 44.4,-133.70001 134.3,-133.70001 89.9,0 133.6999,60.4 133.6999,130.30001 0,79.90001 -57.7,130.4 -137.6,130.4 z m 403.5001,-5.49999 h -218.6 l -7.2,-37.70001 137.6,-158.10001 h -78.2 l -11.1,38.8 -51.6,-5.6 8.9,-87.70001 h 219.7 l 5.6,37.70001 -138.8,158.20001 h 80.9999 l 11.7001,-38.8 56.5999,5.49999 z m 142.8,0 h -74.9 v -89.90001 h 74.9 z m 0,-160.40002 h -74.9 V 576.9302 h 74.9 z m 46.8,160.40002 108.2,-381.70004 h 70.5001 l -108.2,381.70004 z m 145.4001,0 108.0999,-381.70004 h 70.5 l -108.2,381.70004 z m 384,5.49999 c -33.3,0 -51.6001,-19.4 -54.9001,-49.9 -14.3999,25.50001 -39.9,49.9 -80.4,49.9 -36.1,0 -77.0999,-19.4 -77.0999,-71.6 0,-61.60001 59.4,-76 116.5,-76 13.8999,0 28.3,0.6 41.0999,2.19999 v -8.29999 c 0,-25.50001 -0.5999,-56 -41.0999,-56 -15.0001,0 -26.6001,1.09999 -38.3,7.19998 l -8.1001,28.20001 -57.1,-6.09999 9.8001,-57.60001 c 43.8,-17.80001 66,-22.7 107.1,-22.7 53.8,0 99.2999,27.7 99.2999,84.9 v 108.70002 c 0,14.39999 5.6,19.4 17.2001,19.4 3.3,0 6.7,-0.6 10.4999,-1.70001 l 0.6,37.70001 c -13.5,7.3 -29.5999,11.69999 -45.0999,11.69999 z"
       id="path6-4"
       style="fill:#000000;fill-opacity:1;stroke-width:1.00000012" />
  </g>
</svg>
