<?xml version="1.0" encoding="UTF-8" standalone="no"?>
<!DOCTYPE svg PUBLIC "-//W3C//DTD SVG 1.1//EN" "http://www.w3.org/Graphics/SVG/1.1/DTD/svg11.dtd">
<svg width="100%" height="100%" viewBox="0 0 77 80" version="1.1" xmlns="http://www.w3.org/2000/svg" xmlns:xlink="http://www.w3.org/1999/xlink" xml:space="preserve" xmlns:serif="http://www.serif.com/" style="fill-rule:evenodd;clip-rule:evenodd;stroke-linejoin:round;stroke-miterlimit:2;">
    <g id="Icon" transform="matrix(1,0,0,1,-1.21,-0.4325)">
        <path d="M75.36,27.1C73.69,23.08 70.3,18.73 67.63,17.35C69.8,21.6 71.05,25.86 71.53,29.04L71.53,29.1C67.18,18.25 59.79,13.87 53.76,4.34C53.45,3.86 53.15,3.37 52.85,2.86C52.68,2.57 52.54,2.31 52.43,2.06C52.18,1.58 51.99,1.07 51.86,0.54C51.86,0.52 51.85,0.49 51.84,0.47C51.82,0.45 51.8,0.44 51.78,0.44C51.76,0.43 51.73,0.43 51.71,0.44L51.69,0.45C51.68,0.45 51.67,0.46 51.66,0.46L51.67,0.44C41.98,6.12 38.7,16.6 38.4,21.84C34.54,22.1 30.84,23.53 27.8,25.92C27.48,25.65 27.15,25.4 26.8,25.17C25.92,22.1 25.89,18.85 26.69,15.76C22.73,17.56 19.66,20.41 17.42,22.92L17.43,22.92C15.9,20.99 16.01,14.61 16.1,13.28C16.08,13.2 14.96,13.86 14.82,13.96C13.47,14.92 12.21,16 11.06,17.19C9.74,18.53 8.54,19.97 7.46,21.5C4.98,25.01 3.22,28.98 2.28,33.17C2.26,33.25 2.25,33.34 2.23,33.42C2.16,33.76 1.9,35.45 1.85,35.82L1.85,35.9C1.51,37.65 1.3,39.43 1.22,41.21L1.22,41.41C1.22,62.68 18.46,79.92 39.73,79.92C58.78,79.92 74.59,66.09 77.69,47.93C77.76,47.44 77.81,46.94 77.87,46.45C78.62,39.84 77.76,32.9 75.36,27.1ZM30.97,57.24C31.15,57.33 31.32,57.42 31.5,57.5L31.53,57.52C31.34,57.43 31.16,57.33 30.97,57.24ZM71.55,29.11L71.55,29.07L71.55,29.11Z" style="fill:url(#_Linear1);fill-rule:nonzero;"/>
        <path d="M75.36,27.1C73.69,23.08 70.3,18.73 67.63,17.35C69.8,21.6 71.05,25.86 71.53,29.04L71.53,29.12C75.16,38.97 73.18,48.99 70.33,55.11C65.92,64.58 55.23,74.29 38.52,73.81C20.45,73.29 4.54,59.89 1.57,42.33C1.02,39.56 1.57,38.15 1.84,35.91C1.51,37.64 1.38,38.14 1.21,41.22L1.21,41.42C1.21,62.69 18.45,79.92 39.72,79.92C58.77,79.92 74.58,66.09 77.68,47.93C77.75,47.44 77.8,46.94 77.86,46.45C78.62,39.84 77.76,32.9 75.36,27.1Z" style="fill:url(#_Radial2);fill-rule:nonzero;"/>
        <path d="M75.36,27.1C73.69,23.08 70.3,18.73 67.63,17.35C69.8,21.6 71.05,25.86 71.53,29.04L71.53,29.12C75.16,38.97 73.18,48.99 70.33,55.11C65.92,64.58 55.23,74.29 38.52,73.81C20.45,73.29 4.54,59.89 1.57,42.33C1.02,39.56 1.57,38.15 1.84,35.91C1.51,37.64 1.38,38.14 1.21,41.22L1.21,41.42C1.21,62.69 18.45,79.92 39.72,79.92C58.77,79.92 74.58,66.09 77.68,47.93C77.75,47.44 77.8,46.94 77.86,46.45C78.62,39.84 77.76,32.9 75.36,27.1Z" style="fill:url(#_Radial3);fill-rule:nonzero;"/>
        <path d="M56.65,31.62L56.89,31.8C55.92,30.08 54.72,28.51 53.32,27.13C41.34,15.16 50.17,1.17 51.67,0.47L51.68,0.45C42.01,6.12 38.72,16.6 38.42,21.84C38.87,21.81 39.32,21.77 39.77,21.77C46.99,21.77 53.28,25.74 56.65,31.62Z" style="fill:url(#_Radial4);fill-rule:nonzero;"/>
        <path d="M39.87,34.01C39.81,34.97 36.42,38.27 35.24,38.27C24.29,38.27 22.51,44.89 22.51,44.89C22.99,50.47 26.88,55.06 31.58,57.49C31.79,57.6 32.01,57.7 32.23,57.8C32.61,57.97 32.98,58.12 33.36,58.26C34.97,58.83 36.66,59.16 38.37,59.23C57.57,60.13 61.28,36.28 47.43,29.36C50.98,28.74 54.66,30.17 56.72,31.61C53.35,25.73 47.07,21.76 39.85,21.76C39.39,21.76 38.94,21.8 38.5,21.83C34.64,22.09 30.94,23.52 27.9,25.91C28.49,26.41 29.15,27.07 30.55,28.45C33.16,31.03 39.86,33.7 39.87,34.01Z" style="fill:url(#_Radial5);fill-rule:nonzero;"/>
        <path d="M39.87,34.01C39.81,34.97 36.42,38.27 35.24,38.27C24.29,38.27 22.51,44.89 22.51,44.89C22.99,50.47 26.88,55.06 31.58,57.49C31.79,57.6 32.01,57.7 32.23,57.8C32.61,57.97 32.98,58.12 33.36,58.26C34.97,58.83 36.66,59.16 38.37,59.23C57.57,60.13 61.28,36.28 47.43,29.36C50.98,28.74 54.66,30.17 56.72,31.61C53.35,25.73 47.07,21.76 39.85,21.76C39.39,21.76 38.94,21.8 38.5,21.83C34.64,22.09 30.94,23.52 27.9,25.91C28.49,26.41 29.15,27.07 30.55,28.45C33.16,31.03 39.86,33.7 39.87,34.01Z" style="fill:url(#_Radial6);fill-rule:nonzero;"/>
        <path d="M26.02,24.64C26.33,24.84 26.59,25.01 26.82,25.17C25.94,22.1 25.91,18.85 26.71,15.76C22.75,17.56 19.68,20.41 17.44,22.92C17.63,22.93 23.21,22.81 26.02,24.64Z" style="fill:url(#_Radial7);fill-rule:nonzero;"/>
        <path d="M1.57,42.33C4.54,59.88 20.46,73.3 38.53,73.81C55.25,74.28 65.94,64.58 70.34,55.11C73.19,48.99 75.17,38.97 71.54,29.12L71.54,29.04L71.54,29.1C72.91,38.02 68.37,46.65 61.28,52.5L61.26,52.55C47.44,63.8 34.22,59.34 31.54,57.51C31.36,57.42 31.17,57.33 30.98,57.23C22.92,53.38 19.59,46.04 20.31,39.74C13.51,39.74 11.19,34 11.19,34C11.19,34 17.3,29.64 25.35,33.43C32.81,36.94 39.81,34 39.81,34C39.8,33.69 33.09,31.02 30.49,28.45C29.09,27.08 28.43,26.41 27.84,25.91C27.52,25.64 27.19,25.39 26.84,25.16C26.61,25 26.35,24.83 26.04,24.63C23.23,22.8 17.65,22.91 17.46,22.91L17.45,22.91C15.92,20.98 16.03,14.6 16.12,13.27C16.1,13.19 14.98,13.85 14.84,13.95C13.49,14.91 12.23,15.99 11.08,17.18C9.76,18.52 8.56,19.96 7.48,21.49C5,25 3.24,28.96 2.3,33.16C2.26,33.25 0.89,39.23 1.57,42.33Z" style="fill:url(#_Radial8);fill-rule:nonzero;"/>
        <path d="M53.31,27.13C54.71,28.51 55.92,30.08 56.88,31.8C57.09,31.96 57.29,32.12 57.46,32.27C66.19,40.31 61.62,51.69 61.28,52.5C68.37,46.65 72.91,38.02 71.54,29.1C67.19,18.25 59.8,13.87 53.78,4.34C53.47,3.86 53.17,3.37 52.87,2.86C52.7,2.57 52.56,2.31 52.45,2.06C52.2,1.58 52.01,1.07 51.88,0.54C51.88,0.52 51.87,0.49 51.86,0.47C51.84,0.45 51.82,0.44 51.8,0.44C51.78,0.43 51.75,0.43 51.73,0.44L51.71,0.45C51.7,0.45 51.69,0.46 51.68,0.46C50.17,1.18 41.34,15.16 53.31,27.13Z" style="fill:url(#_Radial9);fill-rule:nonzero;"/>
        <path d="M57.47,32.27C57.3,32.12 57.1,31.96 56.89,31.8L56.65,31.62C54.6,30.18 50.91,28.75 47.36,29.37C61.21,36.3 57.49,60.14 38.3,59.24C36.59,59.17 34.9,58.85 33.29,58.27C32.91,58.13 32.54,57.97 32.16,57.81C31.94,57.71 31.72,57.61 31.51,57.5L31.54,57.52C34.22,59.35 47.45,63.81 61.26,52.56L61.28,52.51C61.62,51.69 66.19,40.31 57.47,32.27Z" style="fill:url(#_Radial10);fill-rule:nonzero;"/>
        <path d="M22.44,44.9C22.44,44.9 24.22,38.28 35.17,38.28C36.35,38.28 39.74,34.98 39.8,34.02C39.8,34.02 32.8,36.96 25.34,33.45C17.3,29.66 11.18,34.02 11.18,34.02C11.18,34.02 13.5,39.76 20.3,39.76C19.59,46.05 22.91,53.4 30.97,57.25C31.15,57.34 31.32,57.43 31.5,57.51C26.8,55.07 22.92,50.48 22.44,44.9Z" style="fill:url(#_Radial11);fill-rule:nonzero;"/>
        <path d="M75.36,27.1C73.69,23.08 70.3,18.73 67.63,17.35C69.8,21.6 71.05,25.86 71.53,29.04L71.53,29.1C67.18,18.25 59.79,13.87 53.76,4.34C53.45,3.86 53.15,3.37 52.85,2.86C52.68,2.57 52.54,2.31 52.43,2.06C52.18,1.58 51.99,1.07 51.86,0.54C51.86,0.52 51.85,0.49 51.84,0.47C51.82,0.45 51.8,0.44 51.78,0.44C51.76,0.43 51.73,0.43 51.71,0.44L51.69,0.45C51.68,0.45 51.67,0.46 51.66,0.46L51.67,0.44C41.99,6.12 38.7,16.6 38.4,21.84C38.85,21.81 39.3,21.77 39.75,21.77C46.97,21.77 53.26,25.74 56.62,31.62C54.57,30.18 50.88,28.75 47.33,29.37C61.18,36.3 57.46,60.14 38.27,59.24C36.56,59.17 34.87,58.85 33.26,58.27C32.88,58.13 32.51,57.97 32.13,57.81C31.91,57.71 31.69,57.61 31.48,57.5L31.51,57.52C31.33,57.43 31.14,57.34 30.95,57.24C31.13,57.33 31.3,57.42 31.48,57.5C26.78,55.07 22.89,50.48 22.41,44.9C22.41,44.9 24.19,38.28 35.14,38.28C36.32,38.28 39.71,34.98 39.77,34.02C39.76,33.71 33.05,31.04 30.45,28.47C29.05,27.1 28.39,26.43 27.8,25.93C27.48,25.66 27.15,25.41 26.8,25.18C25.92,22.11 25.89,18.86 26.69,15.77C22.73,17.57 19.66,20.42 17.42,22.93C15.89,21 16,14.62 16.09,13.29C16.07,13.21 14.95,13.87 14.81,13.97C13.46,14.93 12.2,16.01 11.05,17.2C9.73,18.54 8.53,19.98 7.45,21.51C4.97,25.02 3.21,28.99 2.27,33.18C2.25,33.26 2.24,33.35 2.22,33.43C2.15,33.77 1.82,35.49 1.78,35.86C1.48,37.64 1.29,39.43 1.21,41.23L1.21,41.43C1.21,62.7 18.45,79.94 39.72,79.94C58.77,79.94 74.58,66.11 77.68,47.95C77.75,47.46 77.8,46.96 77.86,46.47C78.62,39.84 77.76,32.9 75.36,27.1ZM71.55,29.07L71.55,29.11L71.55,29.07Z" style="fill:url(#_Linear12);fill-rule:nonzero;"/>
    </g>
    <defs>
        <linearGradient id="_Linear1" x1="0" y1="0" x2="1" y2="0" gradientUnits="userSpaceOnUse" gradientTransform="matrix(-66.6327,41.9732,-41.9732,-66.6327,74.2531,20.8513)"><stop offset="0" style="stop-color:rgb(150,88,249);stop-opacity:1"/><stop offset="0.13" style="stop-color:rgb(147,86,244);stop-opacity:1"/><stop offset="0.29" style="stop-color:rgb(137,81,229);stop-opacity:1"/><stop offset="0.46" style="stop-color:rgb(122,73,205);stop-opacity:1"/><stop offset="0.64" style="stop-color:rgb(100,61,171);stop-opacity:1"/><stop offset="0.82" style="stop-color:rgb(73,46,129);stop-opacity:1"/><stop offset="1" style="stop-color:rgb(41,29,79);stop-opacity:1"/></linearGradient>
        <radialGradient id="_Radial2" cx="0" cy="0" r="1" gradientUnits="userSpaceOnUse" gradientTransform="matrix(-31.1703,74.0102,78.1573,32.9169,64.6668,13.0909)"><stop offset="0" style="stop-color:rgb(150,88,249);stop-opacity:1"/><stop offset="0.65" style="stop-color:rgb(41,29,79);stop-opacity:1"/><stop offset="1" style="stop-color:rgb(41,29,79);stop-opacity:1"/></radialGradient>
        <radialGradient id="_Radial3" cx="0" cy="0" r="1" gradientUnits="userSpaceOnUse" gradientTransform="matrix(80.2147,0,0,-80.2147,46.2577,49.7609)"><stop offset="0" style="stop-color:rgb(171,113,255);stop-opacity:0"/><stop offset="0.25" style="stop-color:rgb(171,113,255);stop-opacity:0"/><stop offset="0.42" style="stop-color:rgb(148,98,224);stop-opacity:0.18"/><stop offset="0.73" style="stop-color:rgb(87,59,141);stop-opacity:0.65"/><stop offset="0.94" style="stop-color:rgb(41,29,79);stop-opacity:1"/><stop offset="1" style="stop-color:rgb(41,29,79);stop-opacity:1"/></radialGradient>
        <radialGradient id="_Radial4" cx="0" cy="0" r="1" gradientUnits="userSpaceOnUse" gradientTransform="matrix(57.9869,0,0,-57.9869,55.9257,-1.22813)"><stop offset="0" style="stop-color:rgb(150,88,249);stop-opacity:1"/><stop offset="0.18" style="stop-color:rgb(150,88,249);stop-opacity:1"/><stop offset="0.33" style="stop-color:rgb(126,72,234);stop-opacity:1"/><stop offset="0.37" style="stop-color:rgb(117,66,229);stop-opacity:1"/><stop offset="0.41" style="stop-color:rgb(106,61,208);stop-opacity:1"/><stop offset="0.48" style="stop-color:rgb(83,50,162);stop-opacity:1"/><stop offset="0.56" style="stop-color:rgb(65,41,126);stop-opacity:1"/><stop offset="0.63" style="stop-color:rgb(52,34,100);stop-opacity:1"/><stop offset="0.69" style="stop-color:rgb(44,30,84);stop-opacity:1"/><stop offset="0.74" style="stop-color:rgb(41,29,79);stop-opacity:1"/><stop offset="1" style="stop-color:rgb(41,29,79);stop-opacity:1"/></radialGradient>
        <radialGradient id="_Radial5" cx="0" cy="0" r="1" gradientUnits="userSpaceOnUse" gradientTransform="matrix(38.2275,0,0,-38.2275,28.6532,59.2382)"><stop offset="0" style="stop-color:rgb(147,88,252);stop-opacity:1"/><stop offset="0.07" style="stop-color:rgb(147,88,252);stop-opacity:1"/><stop offset="0.13" style="stop-color:rgb(152,87,248);stop-opacity:1"/><stop offset="0.21" style="stop-color:rgb(167,85,235);stop-opacity:1"/><stop offset="0.3" style="stop-color:rgb(191,82,215);stop-opacity:1"/><stop offset="0.39" style="stop-color:rgb(225,78,186);stop-opacity:1"/><stop offset="0.42" style="stop-color:rgb(239,76,175);stop-opacity:1"/><stop offset="0.74" style="stop-color:rgb(255,117,131);stop-opacity:1"/><stop offset="0.97" style="stop-color:rgb(255,183,83);stop-opacity:1"/><stop offset="1" style="stop-color:rgb(255,183,83);stop-opacity:1"/></radialGradient>
        <radialGradient id="_Radial6" cx="0" cy="0" r="1" gradientUnits="userSpaceOnUse" gradientTransform="matrix(19.6584,-4.8639,-5.71396,-23.094,37.8651,31.8319)"><stop offset="0" style="stop-color:rgb(255,182,83);stop-opacity:0.3"/><stop offset="0.22" style="stop-color:rgb(255,182,83);stop-opacity:0.3"/><stop offset="0.34" style="stop-color:rgb(255,128,122);stop-opacity:0.5"/><stop offset="0.44" style="stop-color:rgb(255,119,129);stop-opacity:0.48"/><stop offset="0.57" style="stop-color:rgb(255,92,148);stop-opacity:0.43"/><stop offset="0.64" style="stop-color:rgb(255,74,162);stop-opacity:0.4"/><stop offset="0.86" style="stop-color:rgb(150,88,249);stop-opacity:0.3"/><stop offset="1" style="stop-color:rgb(150,88,249);stop-opacity:0.3"/></radialGradient>
        <radialGradient id="_Radial7" cx="0" cy="0" r="1" gradientUnits="userSpaceOnUse" gradientTransform="matrix(27.4794,0,0,-27.4794,45.2438,13.692)"><stop offset="0" style="stop-color:rgb(150,88,249);stop-opacity:1"/><stop offset="0.03" style="stop-color:rgb(150,88,249);stop-opacity:1"/><stop offset="0.62" style="stop-color:rgb(117,66,229);stop-opacity:1"/><stop offset="0.72" style="stop-color:rgb(99,57,194);stop-opacity:1"/><stop offset="0.93" style="stop-color:rgb(55,36,107);stop-opacity:1"/><stop offset="1" style="stop-color:rgb(41,29,79);stop-opacity:1"/></radialGradient>
        <radialGradient id="_Radial8" cx="0" cy="0" r="1" gradientUnits="userSpaceOnUse" gradientTransform="matrix(-25.0794,109.854,86.2266,19.6852,49.6116,-19.6845)"><stop offset="0" style="stop-color:rgb(171,113,255);stop-opacity:1"/><stop offset="0.2" style="stop-color:rgb(171,113,255);stop-opacity:1"/><stop offset="0.29" style="stop-color:rgb(164,107,252);stop-opacity:1"/><stop offset="0.41" style="stop-color:rgb(144,89,242);stop-opacity:1"/><stop offset="0.54" style="stop-color:rgb(117,66,229);stop-opacity:1"/><stop offset="0.64" style="stop-color:rgb(98,57,191);stop-opacity:1"/><stop offset="0.94" style="stop-color:rgb(41,29,79);stop-opacity:1"/><stop offset="1" style="stop-color:rgb(41,29,79);stop-opacity:1"/></radialGradient>
        <radialGradient id="_Radial9" cx="0" cy="0" r="1" gradientUnits="userSpaceOnUse" gradientTransform="matrix(9.01432,85.399,56.1342,-5.92525,51.9456,14.8797)"><stop offset="0" style="stop-color:rgb(150,88,249);stop-opacity:1"/><stop offset="0.09" style="stop-color:rgb(150,88,249);stop-opacity:1"/><stop offset="0.14" style="stop-color:rgb(140,81,243);stop-opacity:1"/><stop offset="0.26" style="stop-color:rgb(117,66,229);stop-opacity:1"/><stop offset="0.29" style="stop-color:rgb(110,62,214);stop-opacity:1"/><stop offset="0.4" style="stop-color:rgb(85,51,166);stop-opacity:1"/><stop offset="0.5" style="stop-color:rgb(66,41,128);stop-opacity:1"/><stop offset="0.59" style="stop-color:rgb(52,35,101);stop-opacity:1"/><stop offset="0.67" style="stop-color:rgb(44,30,85);stop-opacity:1"/><stop offset="0.74" style="stop-color:rgb(41,29,79);stop-opacity:1"/><stop offset="1" style="stop-color:rgb(41,29,79);stop-opacity:1"/></radialGradient>
        <radialGradient id="_Radial10" cx="0" cy="0" r="1" gradientUnits="userSpaceOnUse" gradientTransform="matrix(73.186,0,0,-73.186,44.5945,23.87)"><stop offset="0" style="stop-color:rgb(150,88,249);stop-opacity:1"/><stop offset="0.12" style="stop-color:rgb(145,85,246);stop-opacity:1"/><stop offset="0.25" style="stop-color:rgb(131,76,238);stop-opacity:1"/><stop offset="0.34" style="stop-color:rgb(117,66,229);stop-opacity:1"/><stop offset="0.78" style="stop-color:rgb(41,29,79);stop-opacity:1"/><stop offset="1" style="stop-color:rgb(41,29,79);stop-opacity:1"/></radialGradient>
        <radialGradient id="_Radial11" cx="0" cy="0" r="1" gradientUnits="userSpaceOnUse" gradientTransform="matrix(79.9368,0,0,-79.9368,63.9167,28.1447)"><stop offset="0" style="stop-color:rgb(150,88,249);stop-opacity:1"/><stop offset="0.19" style="stop-color:rgb(150,88,249);stop-opacity:1"/><stop offset="0.49" style="stop-color:rgb(131,75,237);stop-opacity:1"/><stop offset="0.66" style="stop-color:rgb(117,66,229);stop-opacity:1"/><stop offset="0.7" style="stop-color:rgb(107,61,210);stop-opacity:1"/><stop offset="0.79" style="stop-color:rgb(82,49,159);stop-opacity:1"/><stop offset="0.91" style="stop-color:rgb(41,29,79);stop-opacity:1"/><stop offset="1" style="stop-color:rgb(41,29,79);stop-opacity:1"/></radialGradient>
        <linearGradient id="_Linear12" x1="0" y1="0" x2="1" y2="0" gradientUnits="userSpaceOnUse" gradientTransform="matrix(-54.3927,54.3926,-54.3926,-54.3927,69.491,12.4249)"><stop offset="0" style="stop-color:rgb(144,89,255);stop-opacity:0.9"/><stop offset="0.61" style="stop-color:rgb(41,29,79);stop-opacity:0"/><stop offset="1" style="stop-color:rgb(41,29,79);stop-opacity:0"/></linearGradient>
    </defs>
</svg>
