<svg xmlns="http://www.w3.org/2000/svg" xmlns:xlink="http://www.w3.org/1999/xlink" id="Icon" x="0" y="0" version="1.1" viewBox="0 0 500 500" xml:space="preserve" style="enable-background:new 0 0 500 500"><style type="text/css">.st0{fill:none;stroke:#000;stroke-width:61.9433;stroke-linecap:round;stroke-linejoin:round;stroke-miterlimit:10}.st1{fill:url(#SVGID_1_)}.st2{fill:url(#SVGID_2_)}.st3{fill:none}.st4{fill:url(#SVGID_3_)}.st5{fill:url(#SVGID_4_)}.st6{opacity:.9;fill:url(#SVGID_5_)}.st7{fill:url(#SVGID_6_)}</style><g><path d="M250,250" class="st0"/><linearGradient id="SVGID_1_" x1="349.243" x2="170.712" y1="78.105" y2="387.33" gradientUnits="userSpaceOnUse"><stop offset="0" style="stop-color:#ff980e"/><stop offset=".207" style="stop-color:#ff7139"/><stop offset=".363" style="stop-color:#ff5854"/><stop offset=".456" style="stop-color:#ff4f5e"/><stop offset=".693" style="stop-color:#ff3750"/><stop offset=".858" style="stop-color:#f92261"/><stop offset="1" style="stop-color:#f5156c"/></linearGradient><path d="M250,475c-21.4,0-41.2-7.1-55.8-19.9c0,0-0.1,0-0.1-0.1c-54.6-48.6-100.6-94.6-149.2-149.2c0,0,0-0.1-0.1-0.1 C32.1,291.2,25,271.4,25,250s7.1-41.2,19.9-55.8c0,0,0-0.1,0.1-0.1c48.6-54.6,94.6-100.6,149.2-149.2c0,0,0.1,0,0.1-0.1 C208.8,32.1,228.6,25,250,25c21.4,0,41.2,7.1,55.8,19.9c0,0,0.1,0,0.1,0.1c54.6,48.6,100.6,94.6,149.2,149.2c0,0,0,0.1,0.1,0.1 c12.8,14.5,19.9,34.3,19.9,55.8s-7.1,41.2-19.9,55.8c0,0,0,0.1-0.1,0.1c-9.2,10.4-15.3,17.1-24.5,27.1c-8.5,9.1-22.7,9.7-31.9,1.2 c-9.1-8.5-9.7-22.7-1.2-31.9c9-9.7,14.9-16.2,23.9-26.3c11.5-13.1,11.5-38.7,0-51.8C374,170.9,329.1,126,275.9,78.6 c-13.1-11.5-38.7-11.5-51.8,0C170.9,126,126,170.9,78.6,224.1c-11.5,13.1-11.5,38.7,0,51.8c47.4,53.2,92.2,98.1,145.5,145.5 c13.1,11.5,38.6,11.5,51.7,0c18.4-16.6,36.1-32.3,53.7-49.2l-57.2-60c-0.1-0.1-0.1-0.1-0.2-0.2c-8.2-8.4-12.6-20-12-31.7 c0.6-11.7,6.1-22.8,15-30.4l0.7-0.6c10.9-9.2,16.9-22.7,16.3-37c-0.2-4.3-0.9-8.5-2.3-12.6c-7-20.8-25.2-28.2-40-28.2 c-14.7,0-32.9,7.4-40,28.2c-1.4,4.1-2.2,8.3-2.3,12.6c-0.5,14.3,5.4,27.8,16.3,37l0.3,0.2c9,7.6,14.4,18.6,15,30.3 c0.6,11.7-3.7,23.2-11.9,31.7l-22,22.6c-8.6,9-22.9,9.2-31.9,0.6c-9-8.6-9.2-22.9-0.6-31.9l17.2-17.7c1.5-1.6,1.5-4.1-0.1-5.6 c-18.5-18-28.5-42.8-27.5-68.8c0.3-8.6,1.9-17.1,4.6-25.3c12.1-35.8,44.5-58.9,82.7-58.9s70.6,23.1,82.7,58.9 c2.8,8.2,4.3,16.7,4.6,25.3c1,26.3-9.1,51.2-27.9,69.2c-1.6,1.5-1.6,4-0.1,5.6l62.7,65.4c5.7,5.8,8.9,13.4,8.9,21.6 c0,8.2-3.2,15.8-9,21.5c-21.2,21-43.3,40.6-65.8,61c-0.1,0.1-0.1,0.1-0.2,0.2C291.2,467.9,271.4,475,250,475z" class="st1"/><linearGradient id="SVGID_2_" x1="356.736" x2="173.691" y1="65.127" y2="382.17" gradientUnits="userSpaceOnUse"><stop offset="0" style="stop-color:#fff44f;stop-opacity:.8"/><stop offset=".4" style="stop-color:#fff44f;stop-opacity:.3"/><stop offset=".9" style="stop-color:#fff44f;stop-opacity:0"/></linearGradient><path d="M250,475c-21.4,0-41.2-7.1-55.8-19.9c0,0-0.1,0-0.1-0.1c-54.6-48.6-100.6-94.6-149.2-149.2c0,0,0-0.1-0.1-0.1 C32.1,291.2,25,271.4,25,250s7.1-41.2,19.9-55.8c0,0,0-0.1,0.1-0.1c48.6-54.6,94.6-100.6,149.2-149.2c0,0,0.1,0,0.1-0.1 C208.8,32.1,228.6,25,250,25c21.4,0,41.2,7.1,55.8,19.9c0,0,0.1,0,0.1,0.1c54.6,48.6,100.6,94.6,149.2,149.2c0,0,0,0.1,0.1,0.1 c12.8,14.5,19.9,34.3,19.9,55.8s-7.1,41.2-19.9,55.8c0,0,0,0.1-0.1,0.1c-9.2,10.4-15.3,17.1-24.5,27.1c-8.5,9.1-22.7,9.7-31.9,1.2 c-9.1-8.5-9.7-22.7-1.2-31.9c9-9.7,14.9-16.2,23.9-26.3c11.5-13.1,11.5-38.7,0-51.8C374,170.9,329.1,126,275.9,78.6 c-13.1-11.5-38.7-11.5-51.8,0C170.9,126,126,170.9,78.6,224.1c-11.5,13.1-11.5,38.7,0,51.8c47.4,53.2,92.2,98.1,145.5,145.5 c13.1,11.5,38.6,11.5,51.7,0c18.4-16.6,36.1-32.3,53.7-49.2l-57.2-60c-0.1-0.1-0.1-0.1-0.2-0.2c-8.2-8.4-12.6-20-12-31.7 c0.6-11.7,6.1-22.8,15-30.4l0.7-0.6c10.9-9.2,16.9-22.7,16.3-37c-0.2-4.3-0.9-8.5-2.3-12.6c-7-20.8-25.2-28.2-40-28.2 c-14.7,0-32.9,7.4-40,28.2c-1.4,4.1-2.2,8.3-2.3,12.6c-0.5,14.3,5.4,27.8,16.3,37l0.3,0.2c9,7.6,14.4,18.6,15,30.3 c0.6,11.7-3.7,23.2-11.9,31.7l-22,22.6c-8.6,9-22.9,9.2-31.9,0.6c-9-8.6-9.2-22.9-0.6-31.9l17.2-17.7c1.5-1.6,1.5-4.1-0.1-5.6 c-18.5-18-28.5-42.8-27.5-68.8c0.3-8.6,1.9-17.1,4.6-25.3c12.1-35.8,44.5-58.9,82.7-58.9s70.6,23.1,82.7,58.9 c2.8,8.2,4.3,16.7,4.6,25.3c1,26.3-9.1,51.2-27.9,69.2c-1.6,1.5-1.6,4-0.1,5.6l62.7,65.4c5.7,5.8,8.9,13.4,8.9,21.6 c0,8.2-3.2,15.8-9,21.5c-21.2,21-43.3,40.6-65.8,61c-0.1,0.1-0.1,0.1-0.2,0.2C291.2,467.9,271.4,475,250,475z" class="st2"/><path d="M80.9,221.6l73.4-77.5C129.5,168.7,105.5,194,80.9,221.6z" class="st3"/><g><g><linearGradient id="SVGID_3_" x1="105.929" x2="357.911" y1="420.152" y2="185.519" gradientUnits="userSpaceOnUse"><stop offset="0" style="stop-color:#3a8ee6"/><stop offset=".281" style="stop-color:#706df6"/><stop offset=".44" style="stop-color:#9059ff"/><stop offset=".641" style="stop-color:#a34df5"/><stop offset=".999" style="stop-color:#c139e6"/></linearGradient><path d="M447.5,250.9c-14.6-15.1-28.7-29.6-26.1-26.8c11.5,13.1,11.5,38.7,0,51.8c-9,10.1-14.9,16.7-23.9,26.3 c-8.5,9.1-7.9,23.4,1.2,31.9c9.1,8.5,23.4,7.9,31.9-1.2c6.4-6.9,11.2-12.2,16.6-18.2c0.3-0.3,0.9-1,1.7-2 C464.6,294.9,464,268,447.5,250.9z M329.5,372.2c-17.6,16.9-35.3,32.6-53.7,49.2c-13.1,11.4-38.7,11.4-51.7,0 C170.9,374,126,329.1,78.7,275.9c-11.5-13.1-11.5-38.7,0-51.8c0.8-0.8,1.5-1.7,2.3-2.5l-28.4,29.8c-16.4,17.2-16.8,44.2-0.9,61.9 c4.3,4.8,7.7,8.6,9.2,10.2c42.9,47.1,84.7,88.3,133.4,131.6c0,0,0.1,0,0.1,0.1c14.5,12.8,34.3,19.9,55.8,19.9s41.2-7.1,55.8-19.9 c0.1-0.1,0.2-0.1,0.2-0.2c10.9-9.9,21.8-19.6,32.4-29.4c12.2-11.2,12.9-30.3,1.5-42.4L329.5,372.2z" class="st4"/></g></g><linearGradient id="SVGID_4_" x1="451.399" x2="388.063" y1="252.731" y2="316.067" gradientUnits="userSpaceOnUse"><stop offset="0" style="stop-color:#6e008b;stop-opacity:.5"/><stop offset=".5" style="stop-color:#c846cb;stop-opacity:0"/></linearGradient><path d="M447.5,250.9c-14.6-15.1-28.7-29.6-26.1-26.8c11.5,13.1,11.5,38.7,0,51.8c-9,10.1-14.9,16.7-23.9,26.3 c-8.5,9.1-7.9,23.4,1.2,31.9c9.1,8.5,23.4,7.9,31.9-1.2c6.4-6.9,11.2-12.2,16.6-18.2c0.3-0.3,0.9-1,1.7-2 C464.6,294.9,464,268,447.5,250.9z" class="st5"/><linearGradient id="SVGID_5_" x1="135.692" x2="44.901" y1="328.767" y2="268.379" gradientUnits="userSpaceOnUse"><stop offset=".136" style="stop-color:#6a2bea;stop-opacity:0"/><stop offset=".299" style="stop-color:#662ce6;stop-opacity:9.459748e-02"/><stop offset=".469" style="stop-color:#592fdb;stop-opacity:.1926"/><stop offset=".641" style="stop-color:#4534c9;stop-opacity:.2923"/><stop offset=".815" style="stop-color:#283baf;stop-opacity:.393"/><stop offset=".989" style="stop-color:#03448d;stop-opacity:.4936"/><stop offset="1" style="stop-color:#00458b;stop-opacity:.5"/></linearGradient><path d="M131.6,332.9c-17.7-18.2-35.1-37-52.9-57c-11.5-13.1-11.5-38.7,0-51.8c0.8-0.8,1.5-1.7,2.3-2.5l-28.4,29.8 c-16.4,17.2-16.8,44.2-0.9,61.9c4.3,4.8,7.7,8.6,9.2,10.2c23.5,25.8,46.6,49.8,70.8,73.3V332.9z" class="st6"/><linearGradient id="SVGID_6_" x1="351.601" x2="272.071" y1="390.251" y2="445.772" gradientUnits="userSpaceOnUse"><stop offset="0" style="stop-color:#6e008b;stop-opacity:.5"/><stop offset=".405" style="stop-color:#3a8ee6;stop-opacity:0"/></linearGradient><path d="M339.9,383.2l-10.4-11c-17.6,16.9-35.3,32.6-53.7,49.2c-5.8,5.1-14.1,7.9-22.7,8.5v45.1 c20.2-0.7,38.8-7.6,52.6-19.8c0.1-0.1,0.2-0.1,0.2-0.2c10.9-9.9,21.8-19.6,32.4-29.4C350.7,414.3,351.3,395.2,339.9,383.2z" class="st7"/></g></svg>