<?xml version="1.0" encoding="UTF-8" standalone="no"?>
<!DOCTYPE svg PUBLIC "-//W3C//DTD SVG 1.1//EN" "http://www.w3.org/Graphics/SVG/1.1/DTD/svg11.dtd">
<svg width="100%" height="100%" viewBox="0 0 32 32" version="1.1" xmlns="http://www.w3.org/2000/svg" xmlns:xlink="http://www.w3.org/1999/xlink" xml:space="preserve" xmlns:serif="http://www.serif.com/" style="fill-rule:evenodd;clip-rule:evenodd;stroke-linejoin:round;stroke-miterlimit:2;">
    <g>
        <g transform="matrix(1,0,0,1,0,0.06465)">
            <path d="M0,8.966L0,22.905C0,27.304 3.582,30.871 8,30.871C10.828,30.871 13.313,29.41 14.736,27.205C15.455,25.892 16.364,25.892 17.264,27.205C18.687,29.41 21.172,30.871 24,30.871C28.418,30.871 32,27.304 32,22.905C32,18.506 28.418,14.94 24,14.94C21.495,14.94 19.258,16.086 17.791,17.882C17.253,18.54 16,19.104 15.955,17.384C15.955,15.725 15.997,9.439 16,8.991C16,8.972 16,8.956 16,8.938C15.985,4.551 12.409,1 8,1C3.582,1 0,4.566 0,8.966Z" style="fill:url(#_Linear1);fill-rule:nonzero;"/>
        </g>
    </g>
    <defs>
        <linearGradient id="_Linear1" x1="0" y1="0" x2="1" y2="0" gradientUnits="userSpaceOnUse" gradientTransform="matrix(11.679,41.2119,-41.2119,11.679,5.59091,1)"><stop offset="0" style="stop-color:rgb(106,225,217);stop-opacity:1"/><stop offset="1" style="stop-color:rgb(152,152,255);stop-opacity:1"/></linearGradient>
    </defs>
</svg>
