<?xml version="1.0" encoding="UTF-8" standalone="no"?>
<!DOCTYPE svg PUBLIC "-//W3C//DTD SVG 1.1//EN" "http://www.w3.org/Graphics/SVG/1.1/DTD/svg11.dtd">
<svg width="100%" height="100%" viewBox="0 0 79 79" version="1.1" xmlns="http://www.w3.org/2000/svg" xmlns:xlink="http://www.w3.org/1999/xlink" xml:space="preserve" xmlns:serif="http://www.serif.com/" style="fill-rule:evenodd;clip-rule:evenodd;stroke-linejoin:round;stroke-miterlimit:2;">
    <g transform="matrix(1,0,0,1,0.208434,-0.502493)">
        <path d="M74.75,30.31C67.28,22.42 54.07,25.56 50.97,35.97L27.62,35.97C27.34,35.04 26.97,34.14 26.51,33.29L32.58,27.22C36.89,29.55 42.1,29.48 46.35,27.03C55.76,21.6 55.76,8.02 46.36,2.58C36.94,-2.85 25.18,3.94 25.18,14.8C25.18,17.15 25.76,19.45 26.88,21.52L20.81,27.59C17.76,25.94 14.21,25.47 10.83,26.28C0.25,28.79 -3.63,41.81 3.84,49.7C11.3,57.59 24.52,54.45 27.62,44.04L50.97,44.04C51.25,44.97 51.62,45.87 52.08,46.72L46,52.8C39.41,49.24 31.19,51.44 27.27,57.82C21.58,67.07 28.04,79.02 38.9,79.33C49.76,79.63 56.88,68.07 51.71,58.51L57.78,52.44C60.83,54.09 64.38,54.56 67.76,53.75C78.33,51.22 82.21,38.21 74.75,30.31ZM39.29,8.76C41.45,8.76 43.45,9.91 44.53,11.79C46.86,15.82 43.95,20.86 39.29,20.86C37.13,20.86 35.13,19.71 34.05,17.84C31.73,13.8 34.64,8.76 39.29,8.76ZM14.09,46.06C11.93,46.06 9.93,44.91 8.85,43.04C6.52,39.01 9.43,33.97 14.09,33.97C16.25,33.97 18.25,35.12 19.33,36.99C21.66,41.02 18.75,46.06 14.09,46.06ZM36.27,70.45C34.4,69.37 33.25,67.37 33.25,65.21C33.25,60.55 38.29,57.64 42.32,59.97C44.19,61.05 45.34,63.05 45.34,65.21C45.34,69.87 40.3,72.78 36.27,70.45ZM61.47,45.25C59.6,44.17 58.44,42.17 58.45,40.01C58.45,35.35 63.49,32.44 67.52,34.77C69.39,35.85 70.54,37.85 70.54,40.01C70.54,44.67 65.5,47.58 61.47,45.25Z" style="fill-rule:nonzero;"/>
    </g>
</svg>
