<?xml version="1.0" encoding="utf-8"?>
<!-- Generator: Adobe Illustrator 24.3.0, SVG Export Plug-In . SVG Version: 6.00 Build 0)  -->
<svg version="1.1" id="Livello_1" xmlns="http://www.w3.org/2000/svg" xmlns:xlink="http://www.w3.org/1999/xlink" x="0px" y="0px"
	 viewBox="0 0 128 128" style="enable-background:new 0 0 128 128;" xml:space="preserve">
<style type="text/css">
	.st0{fill:#06067D;}
	.st1{fill:#272793;}
	.st2{fill:#1B1B8B;}
	.st3{fill:#2388FF;}
	.st4{fill:#FFFFFF;}
	.st5{fill:#ACD5FF;}
	.st6{fill:#80BEFF;}
	.st7{fill:#0E0E82;}
	.st8{fill:#4DA1FF;}
	.st9{fill:#C8E0F9;}
	.st10{fill:#88BEF9;}
	.st11{fill:#50A0F8;}
	.st12{fill:#C5DEF9;}
	.st13{fill:#5454B7;}
	.st14{fill:#8788FE;}
	.st15{fill:#8B8CFE;}
	.st16{fill:#3F3FAB;}
	.st17{fill:#6EB4FF;}
	.st18{fill:#C2DDF9;}
	.st19{fill:#595AFD;}
	.st20{fill:#5252FE;}
	.st21{fill:#1D1DE3;}
	.st22{fill:#0202DE;}
	.st23{fill:#7CB9F9;}
	.st24{fill:#BFDBF9;}
	.st25{fill:#A4CBF6;}
	.st26{fill:#9BC7F6;}
	.st27{fill:#BDDAF9;}
	.st28{fill:#5CA5F6;}
	.st29{fill:#C1DCF8;}
	.st30{fill:#56A2F6;}
	.st31{fill:#C6DFF8;}
	.st32{fill:#2C2CE5;}
	.st33{fill:#1111E2;}
</style>
<path class="st0" d="M41.7,4.9C54.5,0.1,68.8-0.4,82,3.1c16,4.3,29.5,15.7,37.9,29.9c5,8.6,7.4,18.5,8.1,28.4v6
	c-0.9,11.5-4.3,23-11.2,32.5c-11.4,16.4-30.6,27.7-50.8,27.4c-14.6,0.7-29.4-4.3-40.7-13.6c0.4-0.3,1.3-0.9,1.7-1.2
	c2.2,1.6,4.5,3.3,6.8,4.7c7.8,4.7,16.7,7.6,25.7,8.1c6.5,0.2,13,0.3,19.3-1.3c16.3-3.7,30.3-15,38.8-29.2c4.1-6.8,6.7-14.5,7.6-22.4
	c0.3-2.7,0.5-5.5,0.6-8.2c-0.2-3.2-0.4-6.4-0.8-9.6c-6.8,0.9-13.3,3.1-19.6,6c1.1-6.5,0.5-13.2-1.4-19.4c-1.2-4.8-5.3-8.6-10-9.8
	c3.2-3.2,8.3-8.1,4.9-12.9c1-0.7,2.1-1.5,3.1-2.2c-5.2-4.4-11.2-8-17.8-10c-16-5.1-34.2-4.2-49,4C24.8,15.9,16.5,25,10.6,35.3
	c-3.8,6.5-5.4,14-6.5,21.4c-0.4,2.3-0.5,4.7-0.5,7c0,2.4,0.2,4.8,0.4,7.2c1.2,14,8,27.2,18,36.9c-0.6,0.4-1.2,0.8-1.8,1.1
	c-8.3-8.1-14.5-18.5-17.1-29.8c-3.4-14.9-1.8-31.1,5.4-44.6C15.8,21.3,27.5,10.3,41.7,4.9z"/>
<path class="st1" d="M35.3,10.2c14.8-8.2,33-9.1,49-4c-11,5.4-22.6,9.3-33.7,14.4c-5.4,2.3-11.2,3.9-16.4,6.6
	c-4.5,2.4-9.5,3.8-14.1,5.9c-2.8,1.2-5.6,2.7-8.6,3.3c-0.2-0.3-0.7-0.8-1-1.1C16.5,25,24.8,15.9,35.3,10.2z"/>
<path class="st2" d="M84.3,6.2c6.6,2,12.6,5.6,17.8,10c-1,0.7-2.1,1.4-3.1,2.2c-4.6-4.5-11.7-2.6-16.7,0c-5.5,2.7-8.7,8.3-11.2,13.6
	c-1.5,0.1-3,0.1-4.3,0.8c-12.6,5.7-25.5,10.5-38.2,15.8c-3.7,1.8-7.6,2.9-11.5,4.2c1.1,0.4,2.1,0.8,3.2,1.1
	c-2.1,0.3-4.2,0.7-6.4,1.1c-3.3,0.4-6.5,1.1-9.8,1.9c1-7.4,2.7-14.9,6.5-21.4c0.2,0.3,0.7,0.9,1,1.1c3-0.7,5.8-2.1,8.6-3.3
	c4.6-2.1,9.6-3.6,14.1-5.9c5.2-2.7,11-4.2,16.4-6.6C61.7,15.5,73.3,11.6,84.3,6.2z"/>
<path class="st3" d="M76.6,25.6c3.7-5.1,10-8.3,16.3-8c1.9,0,3.9,0.9,5.1,2.5c1.1,4.2-2.8,7.4-5.3,10.2c0.2,0.7,0.6,2,0.7,2.6
	c-1.2,0-2.3-0.2-3.4-0.4c-0.3-2.9,1.8-4.8,3.4-6.8c1.3-1.5,2.3-3.2,2.6-5.2L96,20.5c-2.9-2.2-6.8-1-9.9,0C80,22.5,76.5,28.4,74,34
	c-3.4,7.8-4.6,16.3-7.7,24.2c-1.9,2.4-2.8,5.4-4.1,8.1c-3.5,7.2-7.4,14.2-12.5,20.4c-2.4,3.2-5.3,6-7.6,9.2c4.2-1.8,8-4.6,12-6.9
	c7.6-4.5,15-9.6,20.8-16.4l0.3,1c-1.1,2.1-2.5,4.1-2.9,6.5c1.2,0.6,2.5,1.2,3.7,1.8c-1.2,0.9-2.4,1.8-3.6,2.6
	c0.2-2.3-0.1-4.7-1.2-6.8c-3.6,4.1-8.3,6.7-12.8,9.6c-1.4,0.9-1.5,2.8-2.2,4.1c-1.2,0.1-2.4,0-3.6-0.1c-1,1-2,2-3.1,3
	c-3.4-0.1-5.6,2.9-8.4,4.3c-0.8,0.6-1.5,1.4-2.2,2.2c-11,8.8-22.8,18.6-37.2,20.3l0.8-0.8c21.4-8.3,38.7-24.8,51.2-43.7
	c6.1-9.2,10.9-19.2,13.8-29.8C69.7,39.5,72.1,31.9,76.6,25.6z"/>
<path class="st4" d="M86.1,20.5c3.1-1,7.1-2.2,9.9,0c-3.6,0.5-7.4,0.2-10.7,1.9c-4.7,2.3-7.8,6.9-9.7,11.7c-2,4.9-4.6,9.7-5.3,15
	c-1.1,3.8-3,7.3-3.9,11.1c0-0.5,0-1.4-0.1-1.9c3.1-7.9,4.3-16.4,7.7-24.2C76.5,28.4,80,22.5,86.1,20.5z"/>
<path class="st5" d="M96,20.5l0.1,0.1c-0.4,1.9-1.3,3.7-2.6,5.2c-6.7,1.1-11.3,6.9-17.9,8.3c1.9-4.7,5-9.4,9.7-11.7
	C88.6,20.6,92.4,21,96,20.5z"/>
<path class="st6" d="M75.6,34c6.6-1.4,11.3-7.2,17.9-8.3c-1.7,2-3.8,3.9-3.4,6.8c-1.7-0.2-3.3-0.1-4.9,0c-0.3,3.4-0.1,6.8-0.7,10.1
	c-4.6,2.5-8.8,6.1-14.2,6.4C71,43.7,73.6,38.9,75.6,34z"/>
<path class="st7" d="M66.7,32.6c1.3-0.7,2.9-0.7,4.3-0.8c-3.7,7.7-4.9,16.3-8.3,24.2c-2.9,0.5-5.6,1.5-8.4,2.5
	c-10.9-3.9-22.6-5.6-34.2-4.8c-1.1-0.3-2.2-0.7-3.2-1.1c3.9-1.3,7.8-2.4,11.5-4.2C41.2,43.1,54.1,38.3,66.7,32.6z"/>
<path class="st8" d="M85.1,32.5c1.6-0.1,3.3-0.2,4.9,0c1.1,0.2,2.3,0.4,3.4,0.4c5.1,0.5,8.5,5.4,9.5,10.1
	c2.9,11.7,1.5,25.2-6.3,34.8c-7.9,9.8-19.9,15-31.7,18.3c-8.5,2.3-17.2,4-26,4.9c0.7-0.8,1.3-1.5,2.2-2.2c0.4,0.2,1.1,0.6,1.5,0.8
	c8.4-1.2,16.7-3.1,24.9-5.3c0.4-0.1,1.2-0.4,1.5-0.5c1.5-0.5,3-1,4.5-1.6c1-0.4,2-0.8,2.9-1.3c1.3-0.6,2.6-1.2,3.9-1.9
	c0.9-0.5,1.8-1,2.7-1.5c1.8-1,3.7-2.1,5.3-3.4c0.7-0.6,1.4-1.1,2.1-1.7c2.4-2.2,4.9-4.4,6.6-7.2l0.3-0.4c2.1-3.4,4.2-7,4.8-11
	c0-0.2,0.1-0.7,0.1-0.9c1.1-6.4,1.4-13.1-0.4-19.4c-0.1-0.2-0.2-0.6-0.2-0.9c-0.6-3.6-3.5-6.2-6.4-8.1c-3.2-0.3-6.4,0-9.6,0.1
	c2.7,1.1,5.7,0.3,8.5,0.8c0.1,0.4,0.2,1.3,0.3,1.8c-2.4-0.3-4.9-0.9-7.3-0.3c-0.1,0.6-0.4,1.7-0.6,2.3c-0.7,4.6-0.4,9.3-1.6,13.8
	c-0.8,3.3-2.4,6.5-2.5,10c-0.1,2.9,0.7,5.8,1.3,8.6c1.4,0,2.9-0.1,4.3-0.1c-1.3,1.6-2.5,3.2-3.9,4.8c-1.3-2.6-2.3-5.8-5.1-7.2
	c-0.5,2.3-0.6,4.6-0.4,6.9c1.1,0.7,2.2,1.5,3.4,2.2c-1.3,1.1-2.7,2.2-4.1,3.3c-0.7-2.7-1.6-5.3-2.9-7.8l-0.3-1
	c2.3-3.2,4.5-6.6,6.1-10.3c-6.8,4.3-13.7,8.7-21,12.2c1.6-5,5.2-9.2,6.4-14.4c0.9-3.8,2.7-7.4,3.9-11.1c5.4-0.3,9.6-4,14.2-6.4
	C85,39.2,84.8,35.8,85.1,32.5z"/>
<path class="st9" d="M85.8,34.7c3.2-0.1,6.4-0.4,9.6-0.1c2.9,1.9,5.8,4.5,6.4,8.1c-2,0-4.7,0.5-6-1.4c-0.7-1.3-0.9-2.7-1.2-4
	c-0.1-0.4-0.2-1.3-0.3-1.8C91.4,35,88.5,35.8,85.8,34.7z"/>
<path class="st10" d="M87.3,36.8c2.4-0.6,4.9,0.1,7.3,0.3c0.3,1.4,0.5,2.8,1.2,4c1.4,1.9,4,1.4,6,1.4c0.1,0.2,0.2,0.7,0.2,0.9
	c-2.1-0.1-4.2-0.1-6.4-0.1c-1.2,4.7,3.1,7.4,6.5,9.4c-2.2-0.5-4.4-1-6.7-1.5c-0.1,1.6-0.1,3.2-0.1,4.9c1.9,2.7,4.4,4.7,6.9,6.7
	c0,0.2-0.1,0.7-0.1,0.9c-2.6-1.7-5.2-4-8.4-4.2c-1.7,5.4,2.3,10.1,3.5,15.1l-0.3,0.4c-2-2.4-4.1-4.7-6.3-6.9c-0.7,0.7-1.3,1.5-2,2.2
	l-0.6,0.8c-1.4,0.1-2.9,0.1-4.3,0.1c-0.5-2.9-1.3-5.7-1.3-8.6c3.1,1,5.7,3.1,8.2,5.1c0.3-1.1,0.5-2.2,0.8-3.3
	c-4.2,0.2-8-4.5-5.7-8.4c3.1,0.6,6.1,1.8,9.1,2.7c-0.7-3-4.3-2.9-6.4-4.5c-1.7-0.8-1.2-3-1.6-4.6c3.1,0,6.2,0.7,9.2,1
	c-1.7-3.4-6.3-2.1-8.7-4.6c-0.2-1-0.4-2-0.5-3c2.8-0.2,5.6-0.2,8.4-0.3c-0.4-2.3-2.8-1.4-4.5-1.8c-1.7,0-3-1.2-4.3-2.1
	C86.8,38.6,87.1,37.4,87.3,36.8z"/>
<path class="st11" d="M85.1,53c1.2-4.5,0.9-9.2,1.6-13.8c1.3,0.9,2.6,2,4.3,2.1c1.6,0.4,4.1-0.5,4.5,1.8c-2.8,0.1-5.6,0.1-8.4,0.3
	c0.1,1,0.3,2,0.5,3c2.4,2.5,6.9,1.3,8.7,4.6c-3.1-0.3-6.1-1-9.2-1c0.4,1.5-0.2,3.7,1.6,4.6c2.1,1.6,5.7,1.5,6.4,4.5
	c-3.1-0.9-6-2.1-9.1-2.7c-2.3,3.9,1.5,8.6,5.7,8.4c-0.2,1.1-0.5,2.2-0.8,3.3c-2.5-2.1-5-4.2-8.2-5.1C82.8,59.5,84.4,56.3,85.1,53z"
	/>
<path class="st12" d="M102.2,52.8c-3.4-2-7.8-4.7-6.5-9.4c2.1,0,4.2,0.1,6.4,0.1c1.8,6.3,1.4,13,0.4,19.4c-2.5-2-5-4.1-6.9-6.7
	c0-1.6,0-3.2,0.1-4.9C97.7,51.8,99.9,52.3,102.2,52.8z"/>
<path class="st13" d="M13.9,54.8c2.1-0.4,4.3-0.8,6.4-1.1c11.6-0.8,23.2,0.9,34.2,4.8l-0.6,0.2c-7.1,2.3-15,2-22.1-0.3
	C26,56.2,20,54.6,13.9,54.8z"/>
<path class="st14" d="M4.1,56.7c3.2-0.8,6.5-1.5,9.8-1.9c6.1-0.2,12.1,1.5,17.8,3.6c7.1,2.3,15,2.6,22.1,0.3c2.4,0.4,4.7,1.2,7,1.9
	c-2.1,4.5-4.4,8.8-7,13c-7.1-1.2-14.1-3.1-20.9-5.6c-9.2-3.7-19.4-4.9-29.3-4.4C3.6,61.3,3.7,59,4.1,56.7z"/>
<path class="st15" d="M105.6,60.4c6.2-2.9,12.8-5.1,19.6-6c0.3,3.2,0.6,6.4,0.8,9.6c-6.9-0.6-14-0.7-20.9,0.2
	C105.2,63,105.4,61.7,105.6,60.4z"/>
<path class="st16" d="M54.4,58.5c2.7-1,5.5-2.1,8.4-2.5c-0.6,1.6-1.3,3.1-2,4.7c-2.3-0.7-4.6-1.5-7-1.9L54.4,58.5z"/>
<path class="st17" d="M62.2,66.3c1.4-2.7,2.2-5.7,4.1-8.1c0,0.5,0,1.4,0.1,1.9c-1.2,5.2-4.8,9.4-6.4,14.4c7.3-3.4,14.2-7.8,21-12.2
	c-1.7,3.6-3.8,7-6.1,10.3C69.1,79.4,61.7,84.6,54,89c-4,2.3-7.7,5-12,6.9c2.3-3.3,5.2-6.1,7.6-9.2C54.8,80.5,58.8,73.5,62.2,66.3z"
	/>
<path class="st18" d="M93.8,59.7c3.2,0.1,5.8,2.5,8.4,4.2c-0.7,4-2.7,7.6-4.8,11C96.2,69.8,92.1,65.1,93.8,59.7z"/>
<path class="st19" d="M3.6,63.7c9.9-0.5,20.1,0.6,29.3,4.4c-5.8,1.9-11.6,4.3-17.8,4.2c-3.8,0.1-7.4-0.7-11.1-1.3
	C3.7,68.5,3.6,66.1,3.6,63.7z"/>
<path class="st20" d="M105,64.2c6.9-0.9,13.9-0.8,20.9-0.2c-0.1,2.7-0.3,5.5-0.6,8.2c-7.2-0.9-13.8-4.3-20.9-5.7
	C104.6,66,104.8,64.8,105,64.2z"/>
<path class="st21" d="M71.3,95.9c14.3-4.7,28.7-14.1,33.1-29.3c7.1,1.3,13.7,4.7,20.9,5.7c-0.9,7.9-3.5,15.6-7.6,22.4
	c-4.8-0.3-8.4,3.5-12.4,5.6C96.8,105,88.4,110,80,114.9c-6.7,3.6-13.1,7.9-20.4,10.3c-9.1-0.5-18-3.4-25.7-8.1
	c11-4.4,20.4-11.9,31-17C67.2,99,70.2,98.6,71.3,95.9z"/>
<path class="st22" d="M32.9,68.1c6.8,2.5,13.8,4.4,20.9,5.6c-8.5,13.2-19.1,25-31.8,34.2c-10.1-9.7-16.9-22.9-18-36.9
	c3.7,0.6,7.3,1.5,11.1,1.3C21.2,72.3,27.1,69.9,32.9,68.1z"/>
<path class="st23" d="M79.1,69c2.8,1.3,3.8,4.6,5.1,7.2c-0.2,0.1-0.5,0.4-0.6,0.6l-0.9,0.8l-0.7,0.6c-1.1-0.7-2.2-1.4-3.4-2.2
	C78.5,73.6,78.6,71.2,79.1,69z"/>
<path class="st24" d="M88.8,70.7c0.7-0.8,1.3-1.5,2-2.2c2.2,2.2,4.3,4.5,6.3,6.9c-1.7,2.8-4.2,5-6.6,7.2
	C90.4,78.5,89.7,74.5,88.8,70.7z"/>
<path class="st25" d="M88.2,71.4l0.6-0.8c0.9,3.9,1.6,7.8,1.7,11.8c-0.7,0.6-1.4,1.2-2.1,1.7c-1.4-2.6-3-5.2-4.9-7.4
	c0.2-0.2,0.5-0.4,0.6-0.6C85.6,74.7,86.9,73,88.2,71.4z"/>
<path class="st26" d="M75.1,73.6c1.3,2.5,2.2,5.1,2.9,7.8c1.4-1,2.7-2.2,4.1-3.3l0.7-0.6c-0.2,3.4,0,6.7,0.4,10.1
	c-0.9,0.5-1.8,1-2.7,1.5c-0.8-2.6-1.7-5.2-3.3-7.4c-1,3-1.1,6.2-0.6,9.2c-1,0.4-2,0.9-2.9,1.3c-0.3-2.4-0.7-4.7-1.7-6.9
	c-2,2.4-2.6,5.5-2.8,8.5c-0.4,0.1-1.2,0.4-1.5,0.5c-0.2-2.1-0.5-4.1-0.8-6.1c-3.4,1.5-6.8,2.8-10.5,3.4c0.7-1.3,0.8-3.2,2.2-4.1
	c4.5-2.9,9.2-5.5,12.8-9.6c1.1,2.1,1.4,4.4,1.2,6.8c1.2-0.9,2.4-1.8,3.6-2.6c-1.2-0.6-2.5-1.2-3.7-1.8
	C72.6,77.7,74.1,75.7,75.1,73.6z"/>
<path class="st27" d="M83.6,76.8c1.9,2.3,3.5,4.8,4.9,7.4c-1.6,1.3-3.5,2.4-5.3,3.4c-0.5-3.3-0.7-6.7-0.4-10.1L83.6,76.8z"/>
<path class="st24" d="M77.2,81.7c1.6,2.2,2.4,4.8,3.3,7.4c-1.3,0.6-2.6,1.3-3.9,1.9C76.1,87.8,76.2,84.7,77.2,81.7z"/>
<path class="st28" d="M66.7,83.3c2-0.5,3.5,0,4.3,1.6c-1.6,1.1-3.3,3-5.4,2.2C65.9,85.8,66.3,84.6,66.7,83.3z"/>
<path class="st29" d="M69.1,93.8c0.2-3,0.8-6.1,2.8-8.5c1,2.2,1.4,4.5,1.7,6.9C72.1,92.8,70.6,93.3,69.1,93.8z"/>
<path class="st30" d="M61.4,87c1.5-1.5,3.5,1.1,1.3,1.8C61.1,90.3,59.4,87.9,61.4,87z"/>
<path class="st31" d="M56.2,91.5c3.7-0.6,7.1-1.9,10.5-3.4c0.4,2,0.6,4.1,0.8,6.1c-8.2,2.2-16.5,4.1-24.9,5.3
	c-0.4-0.2-1.1-0.6-1.5-0.8c2.8-1.4,5-4.4,8.4-4.3c1-1,2.1-2,3.1-3C53.8,91.5,55,91.6,56.2,91.5z"/>
<path class="st32" d="M105.3,100.2c4-2.1,7.6-5.9,12.4-5.6c-8.5,14.2-22.5,25.5-38.8,29.2c-6.3,1.6-12.9,1.5-19.3,1.3
	c7.3-2.3,13.7-6.7,20.4-10.3C88.4,110,96.8,105,105.3,100.2z"/>
<path class="st33" d="M40.3,102.5c10.5-1.2,21-3.1,31-6.6c-1.1,2.7-4.2,3.1-6.5,4.1c-10.6,5.1-20,12.7-31,17
	c-2.4-1.4-4.6-3.1-6.8-4.7C31.5,109.2,35.8,105.6,40.3,102.5z"/>
</svg>
