<svg fill="none" viewBox="0 0 750 750" xmlns="http://www.w3.org/2000/svg" xmlns:xlink="http://www.w3.org/1999/xlink">
    <linearGradient id="a" gradientUnits="userSpaceOnUse" x1="146.185" x2="639.58502" y1="155.649" y2="615.86902">
        <stop offset="0" stop-color="#1b91f3"/>
        <stop offset="1" stop-color="#0b68cb"/>
    </linearGradient>
    <linearGradient id="b" gradientUnits="userSpaceOnUse" x1="283.47501" x2="461.01501" y1="273.45801" y2="75.818298">
        <stop offset="0" stop-color="#0f5db0"/>
        <stop offset="1" stop-color="#0f5db0" stop-opacity="0"/>
    </linearGradient>
    <linearGradient id="c" gradientUnits="userSpaceOnUse" x1="594.625" x2="512.07501" y1="416.55899" y2="619.24902">
        <stop offset="0" stop-color="#e247c4" stop-opacity="0"/>
        <stop offset="1" stop-color="#e247c4" stop-opacity=".64"/>
    </linearGradient>
    <linearGradient id="d" gradientUnits="userSpaceOnUse" x1="82.7155" x2="155.44501" y1="234.78999" y2="527.51001">
        <stop offset=".1" stop-color="#ef3acc"/>
        <stop offset="1" stop-color="#ef3acc" stop-opacity="0"/>
    </linearGradient>
    <linearGradient id="e" gradientUnits="userSpaceOnUse" x1="374.70499" x2="374.70499" y1="273.95001" y2="569.94897">
        <stop offset="0" stop-color="#fff"/>
        <stop offset=".91" stop-color="#bee1fe"/>
        <stop offset="1" stop-color="#96cefd"/>
    </linearGradient>
    <linearGradient id="f" gradientUnits="userSpaceOnUse" x1="380.245" x2="380.245" y1="441.44901" y2="565.44897">
        <stop offset="0" stop-color="#bce0fd"/>
        <stop offset="1" stop-color="#88ccfc"/>
    </linearGradient>
    <radialGradient id="g" cx="0" cy="0"
                    gradientTransform="matrix(117.92992 271.44954 -260.03887 112.97261 145.274 314)"
                    gradientUnits="userSpaceOnUse" r="1">
        <stop offset=".53" stop-color="#0b4186" stop-opacity="0"/>
        <stop offset="1" stop-color="#0b4186" stop-opacity=".45"/>
    </radialGradient>
    <radialGradient id="h" cx="0" cy="0"
                    gradientTransform="matrix(-38.950414 -49.859637 82.506525 -64.454205 383.705 192.449)"
                    gradientUnits="userSpaceOnUse" r="1">
        <stop offset="0" stop-color="#ef3acc" stop-opacity="0"/>
        <stop offset="1" stop-color="#ef3acc" stop-opacity=".64"/>
    </radialGradient>
    <radialGradient id="i" cx="0" cy="0"
                    gradientTransform="matrix(200.50032 -415.91019 513.77136 247.67684 242.704 551.15)"
                    gradientUnits="userSpaceOnUse" r="1">
        <stop offset=".02" stop-color="#094188"/>
        <stop offset=".97" stop-color="#0b4186" stop-opacity="0"/>
    </radialGradient>
    <filter id="j" color-interpolation-filters="sRGB" filterUnits="userSpaceOnUse" height="198.416" width="341.88"
            x="201.47501" y="276.15799">
        <feFlood flood-opacity="0" result="BackgroundImageFix"/>
        <feBlend in="SourceGraphic" in2="BackgroundImageFix" result="shape"/>
        <feGaussianBlur result="effect1_foregroundBlur_106_1002" stdDeviation="16"/>
    </filter>
    <mask id="k" height="276" maskUnits="userSpaceOnUse" width="345" x="202" y="297">
        <path d="m546.835 362.969c0 77.57-77.07 140.45-172.13 140.45-4.59 0-12.3-1.18-15.11 3.4-2.81 4.56 3.38 11.6 6.95 15.63 37.16 42.04 91.07 47.33 105.22 48.72l2.23.22c-124.88 12.08-271.38-67.7-271.42-206.37-.131-23.089 6.295-45.74 18.53-65.32l134.08 121.78c9.54 8.66 25.61 8.66 35.15 0l136.62-124.09c12.7 19.58 19.88 41.9 19.88 65.58z"
              fill="#fff"/>
    </mask>
    <path d="m314.805 154.949h.06c22.04-77.0499 118.08-114.6599 215.95-114.6599 67.63 0 128.341 21.41 169.961 55.4-24.838 1.1712-49.362 6.0449-72.76 14.4599 33.63 12.5 62.519 31.73 83.929 55.52-16.153-2.78-32.532-4.019-48.919-3.7 40.276 58.343 61.794 127.585 61.68 198.48 0 193.3-156.701 350-350.001 350-190.32 0-349.9999-159.35-349.9999-350 0-30.11 4-61.2 11.77-90.36 2.04-6.12 4.88-11.99 8.65-14.14 4.72-2.69 9.02 5.33 9.71 7.94 5.1177 19.17 12.0039 37.823 20.57 55.72-.75-39.96 16.32-76.36 39.7999-107.84 15.66-20.99 30.18-40.44 36.88-96.57.45-3.77 4.02-6.48 7.63-5.3 50.96 16.68 78.2 101.54 73.97 172.5 28.15 4.03 28.02-25.38 28.02-25.38-9-27.66-3-79.07 53-102.07z"
          fill="url(#a)"/>
    <path d="m713.254 271.32c8.51 192.5-149.74 358.47-342.71 358.47-180.65 0-328.6792-139.63-342.0692-316.85-2.3889 16.596-3.6452 33.334-3.76 50.1 1.37 189.62 160.6592 347.41 349.9992 347.41 193.3 0 350-156.7 350-350 0-30.8-3.99-60.67-11.46-89.13z"
          fill="url(#g)" opacity=".9"/>
    <path d="m366.175 180.459c-3.77-6.67-21.18-16.54-28.79-18.26 28.8-92.2499 175.521-120.5699 265.321-104.2499 37.37 6.8 83.91 27.16 98.07 37.74-41.62-33.99-102.341-55.4-169.961-55.4-97.87 0-193.91 37.61-215.95 114.6599h-.16c-56 23-62 74.43-53 102.08 8.64-32.99 49.75-73.53 104.47-76.57z"
          fill="url(#h)"/>
    <path d="m467.885 116.748c-78.62 15.47-104.31 20.53-130.62 45.54 29.55-78.2297 104.98-94.0897 194.86-58.43-21.391 4.41-42.805 8.71-64.24 12.9z"
          fill="url(#b)"/>
    <path d="m43.7049 259.38c-21.48 87.94-4.88 191.3 92.6991 278.04-29.05-31.77-64.5191-149.07 13.75-232.87 5.27-5.65 14.34-1.5 14.63 6.22 6.45 174.16 146.98 280.53 309 260.64-50.2-2.82-216.22-60.97-92.72-83.97 64.55-12.03 165.76-30.88 165.76-121.7 0-147.22-113.83-190.26-182.86-183.86-47.24 4.38-89.29 34.36-102.23 75.13 4.97 16.07-14.84 27.32-28.05 25.43 4.24-70.95-23-155.86-73.97-172.54-3.6-1.18-7.18 1.53-7.63 5.3-6.7 56.13-21.22 75.58-36.87 96.57-23.4891 31.49-40.5591 67.88-39.8091 107.84-8.5659-17.897-15.4521-36.55-20.57-55.72-.57-2.16-3.7-8.19-7.48-8.47-2.05-.15-3.14 1.85-3.65 3.96z"
          fill="url(#i)"/>
    <path d="m337.695 496.349c95.04 77.17 286.17 19.31 286.17-168.32-77.16 116.96-175.44 197.64-286.16 168.32z"
          fill="url(#c)"/>
    <path d="m150.155 304.55c.864-.967 1.953-1.706 3.17-2.153 1.217-.446 2.526-.586 3.81-.407-70.0595 85.45-13.549 235.52 25.231 272.39 2.17 6.14-36.791-25.79-42.161-33.26-29.5-25.03-71.7795-149.06 9.95-236.57z"
          fill="url(#d)"/>
    <path d="m374.705 503.419c95.06 0 172.13-62.879 172.13-140.449s-77.07-140.45-172.13-140.45c-81.1 0-172.17 52.76-172.13 142.5.04 138.67 146.54 218.45 271.42 206.37-9.38-1.09-67.9-4.2-107.45-48.94-3.57-4.03-9.76-11.07-6.95-15.64 2.8-4.57 10.52-3.4 15.1-3.4z"
          fill="url(#e)"/>
    <path d="m528.085 299.15-136.04 130.18c-12.07 8.58-24.92 9.2-37.6 1.42l-133.43-131.12c3.807-6.118 8.087-11.929 12.8-17.38l14 13.1c35.04 32.84 63.37 59.37 103.3 93.45 18.02 15.38 23.62 15.08 41.3 0 45.68-39 79.09-68.5 122.52-107.29 4.841 5.526 9.235 11.428 13.14 17.65z"
          fill="#fff" opacity=".6"/>
    <g mask="url(#k)">
        <path d="m162.705 200.979h435.07v394.47h-435.07z" fill="url(#f)" opacity=".7"/>
        <g filter="url(#j)">
            <path clip-rule="evenodd"
                  d="m334.745 422.298c-25.35-26.38-101.27-114.03-101.27-114.03l5.87.26 118.86 88.77c8.9 6.47 21.6 6.4 30.42-.15l116.55-88.5 6.18-.49s-73.44 85.57-101.57 113.76-49.69 26.76-75.04.38z"
                  fill="#458fcd" fill-rule="evenodd"/>
        </g>
    </g>
    <path d="m398.855 152.258c18.42-5.8 16.8-24.03 16.8-24.03s-9.21-10.85-27.46-4.84c-17.08 5.63-19.73 17.8-19.73 17.8s9.33 17.7 30.39 11.07z"
          fill="#fff"/>
</svg>