<?xml version="1.0" encoding="utf-8"?>
<!-- Generator: Adobe Illustrator 24.3.0, SVG Export Plug-In . SVG Version: 6.00 Build 0)  -->
<svg version="1.1"
	 id="svg205" inkscape:version="0.92.4 (5da689c313, 2019-01-14)" sodipodi:docname="mozita dark.svg" xmlns:cc="http://creativecommons.org/ns#" xmlns:dc="http://purl.org/dc/elements/1.1/" xmlns:inkscape="http://www.inkscape.org/namespaces/inkscape" xmlns:rdf="http://www.w3.org/1999/02/22-rdf-syntax-ns#" xmlns:sodipodi="http://sodipodi.sourceforge.net/DTD/sodipodi-0.dtd" xmlns:svg="http://www.w3.org/2000/svg"
	 xmlns="http://www.w3.org/2000/svg" xmlns:xlink="http://www.w3.org/1999/xlink" x="0px" y="0px" viewBox="0 0 1980.1 1795"
	 style="enable-background:new 0 0 1980.1 1795;" xml:space="preserve">
<style type="text/css">
	.st0{clip-path:url(#SVGID_2_);fill:none;stroke:#007CFF;stroke-width:50;}
	.st1{fill:none;stroke:#007CFF;stroke-width:50;}
	.st2{fill:#007CFF;}
</style>
<sodipodi:namedview  bordercolor="#666666" borderopacity="1" gridtolerance="10" guidetolerance="10" id="namedview207" inkscape:current-layer="svg205" inkscape:cx="540.81897" inkscape:cy="1095.115" inkscape:pageopacity="0" inkscape:pageshadow="2" inkscape:window-height="801" inkscape:window-maximized="1" inkscape:window-width="1536" inkscape:window-x="-8" inkscape:window-y="-8" inkscape:zoom="0.23366337" objecttolerance="10" pagecolor="#ffffff" showgrid="false">
	</sodipodi:namedview>
<g id="Fondo" transform="translate(-25,-92)" inkscape:export-xdpi="9.0919218" inkscape:export-ydpi="9.0919218">
	<g id="g126">
		<g>
			<defs>
				<path id="SVGID_1_" d="M-11,56h1867v1867H-11V56z M922.5,117C440.6,117,50,507.6,50,989.5c0,481.9,390.6,872.5,872.5,872.5
					S1795,1471.4,1795,989.5C1795,507.6,1404.4,117,922.5,117z"/>
			</defs>
			<clipPath id="SVGID_2_">
				<use xlink:href="#SVGID_1_"  style="overflow:visible;"/>
			</clipPath>
			<path id="path120" inkscape:connector-curvature="0" class="st0" d="M922.5,117c481.9,0,872.5,390.6,872.5,872.5
				c0,481.9-390.6,872.5-872.5,872.5S50,1471.4,50,989.5C50,507.6,440.6,117,922.5,117z"/>
		</g>
		<path id="path122" inkscape:connector-curvature="0" class="st1" d="M922.5,1854.5c-477.7,0-865-387.3-865-865s387.3-865,865-865
			s865,387.3,865,865S1400.2,1854.5,922.5,1854.5z"/>
		<path id="path124" inkscape:connector-curvature="0" class="st1" d="M922.5,1854.5c-477.7,0-865-387.3-865-865s387.3-865,865-865
			s865,387.3,865,865S1400.2,1854.5,922.5,1854.5z"/>
	</g>
</g>
<g id="Dinosauro" transform="translate(-25,-92)" inkscape:export-xdpi="9.0919218" inkscape:export-ydpi="9.0919218">
	<g id="g133">
		<path id="path129" inkscape:connector-curvature="0" class="st2" d="M801,729.8c3.1-0.2,6.2,0.2,9.2,0.9
			c6.6,3.6,2.1,11.5,0.5,17.4c-35.1,105.7-55.2,192.1-116.8,199.2c-85.5,16.7-141.4-53.4-105.3-78.4c57.9-34.8,57.9-34.8,90.3-56.9
			c25.8-20.7,49.2-44.3,76.7-62.8C769.4,739.9,784.3,731.3,801,729.8z"/>
		<path id="path131" inkscape:connector-curvature="0" class="st2" d="M693.9,947.3c-85.5,16.7-141.4-53.4-105.3-78.4
			c57.9-34.8,57.9-34.8,90.3-56.9c29.9-23,94.1-90.9,131.3-81.3c6.6,3.6,2.1,11.5,0.5,17.4C775.6,853.7,755.5,940.1,693.9,947.3"/>
	</g>
	<g id="g139">
		<path id="path135" inkscape:connector-curvature="0" class="st2" d="M576.1,1340.3l11.3,9.4"/>
		<path id="path137" inkscape:connector-curvature="0" class="st2" d="M576.1,1340.3l11.3,9.4"/>
	</g>
	<path id="path141" inkscape:connector-curvature="0" class="st2" d="M539.9,1434.7L539.9,1434.7"/>
	<g id="g147">
		<path id="path143" inkscape:connector-curvature="0" class="st2" d="M545.1,1434.7c-4.8-1.4-5.2-1.8-5.2-5.1
			c0-37.1,11.6-60.6,36.2-89.3c8.2,29.2,37.1,47.9,60.2,66.3c1.8,1.4-47.7,23.7-87.5,28.1"/>
		<path id="path145" inkscape:connector-curvature="0" class="st2" d="M545.1,1434.7c-4.8-1.4-5.2-1.8-5.2-5.1
			c0-37.1,11.6-60.6,36.2-89.3c8.2,29.2,37.1,47.9,60.2,66.3c1.8,1.4-47.7,23.7-87.5,28.1"/>
	</g>
	<g id="g153">
		<path id="path149" inkscape:connector-curvature="0" class="st2" d="M968.6,183.1c16.2,0.7,26.2,9.7,32.4,23.9
			c19,46,21.2,56.3,30,71c24,40,44.1,66.3,37.6,64.8c-68-15.7-123.1-30.2-202.1-17.8c-28.6,4.5-52.9,16-79,28.2
			c22.9-50.9,60.1-95.9,102.8-131.5C912.6,203.2,938.8,184.5,968.6,183.1z"/>
		<path id="path151" inkscape:connector-curvature="0" class="st2" d="M787.5,353.2c34.3-84.1,180.1-227,213.5-146.2
			c19,46,21.2,56.3,30,71c24,40,44.1,66.3,37.6,64.8c-68-15.7-123.1-30.2-202.1-17.8C837.9,329.5,813.6,341,787.5,353.2"/>
	</g>
	<g id="g159">
		<path id="path155" inkscape:connector-curvature="0" class="st2" d="M1361.9,541.3c12.7,0,72.1,1.6,54.6,28.7
			c-15.5,22.5-18.5,49.5-29.9,64.9c-16.4-27.2-16.4-27.2-60.8-89.8C1337.6,542.2,1349.8,541.6,1361.9,541.3z"/>
		<path id="path157" inkscape:connector-curvature="0" class="st2" d="M1386.6,634.9c-16.4-27.2-16.4-27.2-60.8-89.8
			c34.8-8.5,110.7-4.3,90.7,24.8C1401,592.5,1398,619.5,1386.6,634.9"/>
	</g>
	<g id="g165">
		<path id="path161" inkscape:connector-curvature="0" class="st2" d="M943.3,397c42.1,0,84.2,6.1,123.7,21
			c206,79.8,307.5,308.8,401.2,491.2c51.6,111.4,51.6,111.4,71.9,159.3c-0.5,0-1,0-1,0.5c-71-148.5-147.7-295.2-240.9-431.5
			c-49.7-63.4-101.3-127.3-175.2-163.8c-120.5-59.5-231.3-61.4-356,5.9C694.2,519,625,589.9,582.3,662.2
			c-49.9,84.6-90.4,139.3-123.1,247.1c-23.8,78.5-35.6,113.2-42.4,152.1c-29.1,166.3-26.3,228.1-11,321.5
			c9.2,56,37.3,100.8,73.8,126.5c16.7,11.7,53.1,21.9,60.3,23.1c64.7,10.9,97.5,2.8,160.3-14.6c175.7-65.8,308.4-198.8,365.9-373.7
			c26.6-116.1,32.3-252.9-39.1-354.9c0-0.5,0-0.5,0.5-0.5c18.4,5.6,33,21.4,42,37.6c28.1,50.6,36.7,133.7,36.7,191.9
			c0,147.1-16.4,173.3-51.2,260.7c-30.9,56.4-58.4,99.5-109.1,152.8c-25.7,27-88.3,70.5-88.8,71c-99,64.4-226.4,122.2-346.6,94.9
			c-25.7-5.8-50.4-18.2-67.6-34.3C287,1418.3,355.1,1136.8,404.9,959c15.3-54.6,36.5-103.3,52.6-139.7
			c64.5-145.5,135-267,292.8-369.5c45.1-29,97.6-44.9,150.7-50.5C919.7,397.3,924.7,397.6,943.3,397L943.3,397z"/>
		<path id="path163" inkscape:connector-curvature="0" class="st2" d="M1540.1,1068.6c-0.5,0-1,0-1,0.5
			c-71-148.5-147.7-295.2-240.9-431.5c-49.7-63.4-101.3-127.3-175.2-163.8c-120.5-59.5-231.3-61.4-356,5.9
			C694.2,519,625,589.9,582.3,662.2c-49.9,84.6-90.4,139.3-123.1,247.1c-23.8,78.5-35.6,113.2-42.4,152.1
			c-29.1,166.3-26.3,228.1-11,321.5c9.2,56,37.3,100.8,73.8,126.5c16.7,11.7,53.1,21.9,60.3,23.1c64.7,10.9,97.5,2.8,160.3-14.6
			c175.7-65.8,308.4-198.8,365.9-373.7c26.6-116.1,32.3-252.9-39.1-354.9c0-0.5,0-0.5,0.5-0.5c18.4,5.6,33,21.4,42,37.6
			c28.1,50.6,36.7,133.7,36.7,191.9c0,147.1-16.4,173.3-51.2,260.7c-30.9,56.4-58.4,99.5-109.1,152.8c-25.7,27-88.3,70.5-88.8,71
			c-99,64.4-226.4,122.2-346.6,94.9c-25.7-5.8-50.4-18.2-67.6-34.3C287,1418.3,355.1,1136.8,404.9,959
			c15.3-54.6,36.5-103.3,52.6-139.7c64.5-145.5,135-267,292.8-369.5c94.7-61.4,230-65.3,316.6-31.7
			c206,79.8,307.5,308.8,401.2,491.2C1519.8,1020.7,1519.8,1020.7,1540.1,1068.6"/>
	</g>
	<g id="g171">
		<path id="path167" inkscape:connector-curvature="0" class="st2" d="M1275.6,349.2c14.6,0.1,8.3-0.2,18.8,0.4
			c6.4,1.5,22.9,2.6,26.4,14.2c1.4,4.6,4,5.3-17.2,56.6c-6.6,16-13,38.4-21,71.6c-4.2-1.4-44.4-43.8-68.4-61.8
			c-12.4-10-58.4-42.2-69.3-48.2c-4.3-2.4,83.7-26.8,83.7-26.8c11.6-2.7,23.4-4.5,35.3-5.4C1267.8,349.5,1271.7,349.4,1275.6,349.2
			L1275.6,349.2z"/>
		<path id="path169" inkscape:connector-curvature="0" class="st2" d="M1144.9,382c-4.3-2.4,83.7-26.8,83.7-26.8s31.4-8.1,65.8-5.6
			c6.4,1.5,22.9,2.6,26.4,14.2c1.4,4.6,4,5.3-17.2,56.6c-6.6,16-13,38.4-21,71.6c-4.2-1.4-44.4-43.8-68.4-61.8
			C1201.8,420.2,1155.8,388,1144.9,382L1144.9,382z"/>
	</g>
	<g id="g177">
		<path id="path173" inkscape:connector-curvature="0" class="st2" d="M1116.6,851.8c13,0.2,25.9,2.1,38.7,4.2
			c42,4,45.4,13.6,41.2,16c-19.6,11.3-17.9,9-37.9,26.3c-14.8,12.8-36.6,42.5-36.9,37.1s-3.8-30.1-6.4-45.1
			c-2.7-15-8.4-32.1-9.3-35.3C1105.5,851.5,1114.8,851.9,1116.6,851.8z"/>
		<path id="path175" inkscape:connector-curvature="0" class="st2" d="M1106,855c1,3.3,6.7,20.3,9.3,35.3c2.7,15,6.1,39.8,6.4,45.1
			s22.2-24.4,36.9-37.1c20-17.3,18.3-15,37.9-26.3c4.2-2.4,0.8-12-41.2-16C1133.3,852.3,1104.3,849.3,1106,855z"/>
	</g>
</g>
<g id="Anelli" transform="translate(-25,-92)" inkscape:export-xdpi="9.0919218" inkscape:export-ydpi="9.0919218">
	<path id="path180" inkscape:connector-curvature="0" class="st2" d="M1825.2,580.8l5.6,0l2.7,0.1l2.3,0l4.6,0.1l4.6,0.1l4.5,0.2
		l4.5,0.2l4.4,0.3l4.3,0.3l4.3,0.3l4.2,0.4l4.1,0.4l4.1,0.5l4,0.5l4,0.5l3.9,0.6l3.8,0.6l3.8,0.7l3.7,0.7l3.6,0.7l3.6,0.8l3.5,0.8
		l3.4,0.9l3.4,0.9l3.3,0.9l3.2,1l3.2,1l3.1,1.1l3.1,1.1l3,1.1l2.9,1.2l2.9,1.2l2.8,1.3l2.7,1.3l2.7,1.3l2.6,1.4l2.5,1.4l2.5,1.5
		l2.4,1.5l2.3,1.5l2.3,1.6l2.2,1.6l2.1,1.7l2.1,1.7l2,1.7l1.9,1.8l1.9,1.8l1.8,1.9l1.7,1.9l1.7,1.9l1.6,2l1.5,2l1.5,2.1l1.4,2.1
		l1.3,2.2l1.2,2.2l1.2,2.2l1.1,2.3l1,2.3l1,2.4l0.9,2.4l0.8,2.4l0.8,2.5l0.7,2.5l0.6,2.6l0.6,2.6l0.3,1.3c0,0,0,0,0,0l0.2,1.2
		l0.4,2.4l0.4,2.4l0.3,2.4l0.3,2.4l0.3,2.5l0.2,2.5l0.2,2.5l0.2,2.5l0.1,2.5l0.1,2.5l0.1,2.5l0,2.5l0,2.6l0,2.6l0,2.6l-0.1,2.6
		l-0.1,2.6l-0.2,3.9l-0.4,5.2l-0.5,5.3l-0.6,5.3l-0.7,5.3l-0.8,5.3l-0.9,5.4l-1,5.4l-1.1,5.4l-1.2,5.4l-1.3,5.4l-1.4,5.4l-1.5,5.4
		l-1.5,5.5l-1.6,5.5l-1.7,5.5l-1.8,5.5l-1.8,5.4l-1.9,5.4l-2,5.4l-2,5.4l-2.1,5.4l-2.1,5.4l-2.2,5.4l-2.2,5.3l-2.3,5.3l-2.3,5.3
		l-2.4,5.3l-2.4,5.2l-2.5,5.2l-2.5,5.2l-2.5,5.1l-2.6,5.1l-2.6,5l-2.6,5l-2.6,4.9l-2.7,4.9l-2.7,4.8l-2.7,4.8l-2.7,4.7l-2.7,4.6
		l-2.7,4.6l-2.7,4.5l-2.7,4.4l-2.7,4.4l-2.7,4.3l-2.7,4.2l-2.7,4.1l-2.7,4.1l-2.7,4l-2.6,3.9l-2.6,3.8l-2.6,3.7l-2.6,3.6l-2.5,3.5
		l-1.2,1.7l0,0l-2.8,3.8l-5.6,7.6l-5.6,7.5l-5.6,7.5l-5.7,7.4l-5.7,7.4l-5.7,7.3l-5.7,7.3l-5.7,7.2l-5.8,7.1l-5.8,7.1l-5.8,7l-5.8,7
		l-5.8,6.9l-5.8,6.9l-5.8,6.8l-5.8,6.8l-5.8,6.7l-5.8,6.7l-5.8,6.6l-5.8,6.5l-5.8,6.5l-5.8,6.4l-5.8,6.4l-5.8,6.3l-5.8,6.3l-5.8,6.2
		l-5.8,6.2l-5.8,6.1l-5.8,6l-5.8,6l-5.8,5.9l-5.8,5.9l-5.8,5.8l-5.8,5.8l-5.8,5.7l-5.8,5.6l-5.7,5.6l-5.7,5.5l-5.7,5.5l-5.7,5.4
		l-5.7,5.4l-5.7,5.3l-5.6,5.2l-5.6,5.2l-5.6,5.1l-5.6,5.1l-5.6,5l-5.5,5l-5.5,4.9l-5.5,4.8l-5.4,4.8l-5.4,4.7l-5.4,4.7l-5.4,4.6
		l-5.3,4.6l-5.3,4.5l-5.2,4.4l-5.2,4.4l-5.2,4.3l-5.1,4.3l-5.1,4.2l-5.1,4.1l-5,4.1l-5,4l-4.9,4l-4.9,3.9l-4.8,3.8l-4.8,3.8
		l-4.8,3.7l-4.7,3.7l-4.7,3.6l-4.6,3.6l-4.6,3.5l-4.5,3.4l-4.4,3.4l-4.4,3.3l-4.3,3.2l-4.3,3.2l-4.2,3.1l-4.2,3.1l-4.1,3l-4,2.9
		l-4,2.9l-3.9,2.8l-3.9,2.8l-3.8,2.7l-3.7,2.6l-3.7,2.6l-3.6,2.5l-3.5,2.5l-3.4,2.4l-3.4,2.3l-3.3,2.3l-3.2,2.2l-3.2,2.2l-3.1,2.1
		l-3,2l-2.9,2l-2.9,1.9l-2.8,1.8l-2.7,1.8l-2.6,1.7l-2.5,1.7l-2.4,1.6l-2.4,1.5l-2.3,1.5l-1.6,1.1l-1.1,0.7l-1,0.7l-1,0.7l-1,0.6
		l-1,0.6l-1,0.6l-0.9,0.6l-0.9,0.6l-0.9,0.6l-0.9,0.5l-0.8,0.5l-0.8,0.5l-0.8,0.5l-0.8,0.5l-0.8,0.5l-0.7,0.5l-0.7,0.4l-0.7,0.4
		l-0.7,0.4l-0.6,0.4l-0.6,0.4l-0.6,0.4l-0.6,0.3l-0.5,0.3l-0.5,0.3l-0.5,0.3l-0.5,0.3l-0.4,0.3l-0.4,0.2l-0.4,0.2l-0.4,0.2l-0.3,0.2
		l-0.3,0.2l-0.3,0.2l-0.2,0.1l-0.2,0.1l-0.2,0.1l-0.2,0.1l-0.1,0.1l-0.1,0.1l-0.1,0l0,0l0,0l-8.3,5l-16.7,10l-16.8,10l-16.8,9.9
		l-16.8,9.9l-12.6,7.3l-8.4,4.9l-8.4,4.8l-8.3,4.8l-8.3,4.8l-8.3,4.7l-8.2,4.7l-8.2,4.7l-8.1,4.6l-8.1,4.6l-8,4.5l-7.9,4.5l-7.9,4.4
		l-7.8,4.4l-7.7,4.3l-5.7,3.2l-3.8,2.1l-3.8,2.1l-3.7,2.1l-3.7,2.1l-3.7,2.1l-3.7,2l-3.6,2l-3.6,2l-3.6,2l-3.5,2l-3.5,1.9l-3.5,1.9
		l-3.5,1.9l-3.4,1.9l-3.4,1.9l-3.4,1.8l-3.3,1.8l-3.3,1.8l-3.2,1.8l-3.2,1.8l-3.2,1.7l-3.1,1.7l-3.1,1.7l-3.1,1.7l-3,1.7l-3,1.6
		l-2.9,1.6l-2.9,1.6l-2.9,1.6l-2.8,1.5l-2.8,1.5l-2.7,1.5l-2.7,1.5l-2.6,1.4l-2.6,1.4l-2.5,1.4l-2.5,1.4l-2.5,1.3l-2.4,1.3l-2.4,1.3
		l-2.3,1.2l-2.3,1.2l-2.2,1.2l-2.2,1.2l-2.1,1.1l-2,1.1l-2,1.1l-1.9,1l-1.9,1l-1.8,1l-1.8,1l-1.7,0.9l-1.7,0.9l-1.6,0.9l-1.5,0.8
		l-1.5,0.8l-1.4,0.8l-1.4,0.7l-1.3,0.7l-1.2,0.7l-1.2,0.6l-1.1,0.6l-1,0.6l-1,0.5l-0.9,0.5l-0.8,0.5l-0.8,0.4l-0.7,0.4l-0.6,0.3
		l-0.6,0.3l-0.5,0.3l-0.4,0.2l-0.4,0.2l-0.3,0.2l-0.2,0.1l-0.2,0.1l-0.1,0h0l-0.3,0.1c-0.3,0.2-0.2,0.1-0.4,0.2
		c-0.9,0.4-0.4,0.2-1.6,0.6c-1.1,0.4-0.6,0.3-1.4,0.5c-0.8,0.3-0.3,0.1-1.5,0.4c-1.2,0.3-0.7,0.2-1.5,0.3c-0.8,0.2-0.3,0.1-1.4,0.2
		c-1.2,0.2-0.7,0.1-1.6,0.1c-0.3,0-0.1,0-0.4,0h-0.3l-0.3,0l-0.3,0l-0.2,0c-0.3,0-0.2,0-0.3-0.1c-0.6-0.1-0.3,0-0.8-0.3
		c-0.5-0.2-0.4,0-0.5-0.3c-0.2-0.2-0.2,0-0.1-0.4c-0.1-0.4-0.1-0.2,0.1-0.5c0.1-0.4,0-0.1,0.5-0.6c0.4-0.5,0.2-0.3,0.7-0.7
		c0.2-0.1,0.1-0.1,0.3-0.2l0.2-0.1h0l0,0l0.1-0.1l0.1-0.1l0.2-0.1l0.2-0.1l0.3-0.2l0.3-0.2l0.4-0.2l0.4-0.2l0.4-0.3l0.5-0.3l0.5-0.3
		l0.6-0.4l0.6-0.4l0.7-0.4l0.7-0.4l0.7-0.5l0.8-0.5l0.8-0.5l0.9-0.5l0.9-0.6l0.9-0.6l1-0.6l1-0.6l1.1-0.7l1.1-0.7l1.1-0.7l1.2-0.7
		l1.2-0.8l1.2-0.8l1.3-0.8l1.3-0.8l1.4-0.8l1.4-0.9l1.4-0.9l1.5-0.9l1.5-0.9l1.5-1l1.6-1l1.6-1l1.6-1l1.7-1l1.7-1.1l1.7-1.1l1.8-1.1
		l1.8-1.1l1.8-1.2l1.9-1.2l1.9-1.2l1.9-1.2l2-1.2l2-1.3l2-1.3l2-1.3l2.1-1.3l2.1-1.3l2.1-1.3l2.2-1.4l2.2-1.4l2.2-1.4l2.2-1.4
		l2.3-1.4l2.3-1.5l2.3-1.5l2.3-1.5l2.4-1.5l2.4-1.5l2.4-1.5l2.5-1.6l2.5-1.6l2.5-1.6l2.5-1.6l2.5-1.6l2.6-1.6l2.6-1.7l2.6-1.7
		l2.6-1.7l4-2.6l5.4-3.5l5.5-3.5l5.6-3.6l5.7-3.7l5.7-3.7l5.8-3.8l5.9-3.8l5.9-3.9l6-3.9l6.1-4l6.1-4l6.2-4.1l6.2-4.1l6.3-4.2
		l6.3-4.2l6.4-4.2l6.4-4.3l6.5-4.3l6.5-4.4l6.6-4.4l6.6-4.4l6.6-4.5l6.7-4.5l6.7-4.5l6.7-4.6l6.7-4.6l6.8-4.6l6.8-4.6l10.2-7
		l13.6-9.4l13.7-9.5l13.7-9.6l13.7-9.6l13.6-9.7l13.6-9.7l13.5-9.8l13.4-9.8l13.3-9.8l9.9-7.3l6.5-4.9l6.5-4.9l6.5-4.9l6.4-4.9
		l6.4-4.9l6.3-4.8l6.3-4.8l6.2-4.8l6.1-4.8l6.1-4.8l6-4.8l6-4.8l5.9-4.7l5.8-4.7l5.7-4.7l5.7-4.7l5.6-4.7l5.5-4.6l5.4-4.6l5.3-4.6
		l5.3-4.5l5.2-4.5l5.1-4.5l5-4.4l4.9-4.4l4.8-4.4l4.7-4.3l4.6-4.3l3.4-3.2l2.2-2.1l2.2-2.1l2.1-2.1l2.1-2.1l2.1-2.1l2.1-2.1l2-2.1
		l2-2l2-2l1.9-2l1.9-2l1.9-2l1.8-2l1.8-2l1.8-2l1.8-1.9l1.7-1.9l1.7-1.9l1.7-1.9l1.6-1.9l1.6-1.9l0.8-0.9c0.1-0.1,0.2-0.2,0.3-0.3
		l2.2-2l4.3-4.1l4.3-4.1l4.3-4.1l4.2-4.1l4.2-4.1l4.1-4.1l4.1-4.1l6.1-6.2l6-6.2l4-4.1l3.9-4.1l3.9-4.1l3.9-4.1l3.8-4.1l3.8-4.1
		l3.7-4.1l3.7-4.1l3.7-4.1l3.6-4.1l3.6-4.1l3.6-4.1l3.5-4l3.5-4l3.5-4l3.4-4l3.4-4l3.3-4l3.3-4l3.3-4l3.2-4l3.2-3.9l3.2-3.9l3.1-3.9
		l3.1-3.9l3.1-3.9l3-3.9l3-3.9l3-3.8l2.9-3.8l2.9-3.8l2.8-3.8l2.8-3.8l2.8-3.7l2.7-3.7l2.7-3.7l2.7-3.7l2.6-3.7l2.6-3.6l2.6-3.6
		l2.5-3.6l2.5-3.6l2.5-3.5l2.4-3.5l2.4-3.5l2.4-3.5l2.3-3.4l2.3-3.4l2.3-3.4l2.2-3.3l2.2-3.3l2.2-3.3l2.1-3.2l2.1-3.2l2.1-3.2l2-3.2
		l2-3.1l1.9-3.1l1.9-3l1.9-3l1.8-3l1.8-2.9l1.8-2.9l1.7-2.9l1.7-2.8l1.7-2.8l1.6-2.8l1.6-2.7l1.6-2.7l1.5-2.6l1.5-2.6l1.5-2.5
		l1.4-2.5l1.4-2.5l1.4-2.4l1.3-2.4l1.3-2.3l1.3-2.3l1.2-2.2l1.2-2.2l1.2-2.1l1.1-2.1l1.1-2l1.1-2l1.1-2l1-1.9l1-1.8l1-1.8l0.9-1.7
		l0.9-1.7l0.9-1.6l0.8-1.6l0.8-1.5l0.8-1.5l0.7-1.4l0.7-1.4l0.7-1.3l0.6-1.3l0.6-1.2l0.6-1.1l0.5-1.1l0.5-1l0.5-1l0.4-0.9l0.4-0.8
		l0.4-0.8l0.3-0.7l0.3-0.7l0.3-0.6l0.2-0.5l0.2-0.5l0.2-0.4l0.2-0.3l0.1-0.3l0.1-0.2l0.1-0.1l0-0.1l0-0.1l0-0.1l0.1-0.2l0.1-0.2
		l0.1-0.3l0.1-0.3l0.2-0.4l0.2-0.4l0.2-0.5l0.2-0.5l0.2-0.6l0.3-0.6l0.3-0.7l0.3-0.7l0.3-0.8l0.3-0.8l0.3-0.9l0.4-0.9l0.4-1l0.4-1
		l0.4-1l0.4-1.1l0.4-1.1l0.4-1.2l0.4-1.2l0.5-1.2l0.5-1.3l0.5-1.3l0.5-1.3l0.5-1.4l0.5-1.4l0.5-1.5l0.5-1.5l0.5-1.5l0.5-1.6l0.8-2.4
		l1.1-3.3l1.1-3.4l1.1-3.5l1.1-3.6l1.1-3.7l1.1-3.8l1.1-3.9l1.1-4l1.1-4.1l1.1-4.2l1-4.2l1-4.3l1-4.3l0.9-4.4l0.9-4.4l0.8-4.5
		l0.8-4.5l0.7-4.5l0.7-4.6l0.6-4.6l0.6-4.6l0.5-4.6l0.4-4.6l0.3-4.6l0.2-4.6l0.2-4.5l0.1-4.5l0-4.5l-0.1-4.5l-0.2-3.3l-0.2-2.2
		l-0.2-2.2l-0.2-2.2l-0.2-2.2l-0.3-2.2l-0.3-2.1l-0.3-2.1l-0.4-2.1l-0.4-2.1l-0.4-2.1l-0.5-2.1l-0.5-2l-0.5-2l-0.6-2l-0.6-2l-0.6-2
		l-0.7-1.9l-0.7-1.9l-0.7-1.9l-0.8-1.9l-0.8-1.8l-0.8-1.8l-0.9-1.8l-0.9-1.8l-1-1.7l-1-1.7l-1-1.7l-1.1-1.6l-1.1-1.6l-1.2-1.6
		l-1.2-1.5l-0.6-0.8l-0.9-1l-1.8-2.1l-1.8-2.1l-1.9-2l-2-2l-2-2l-2.1-2l-2.2-1.9l-2.2-1.9l-2.3-1.9l-2.4-1.8l-2.5-1.8l-2.6-1.8
		l-2.7-1.7l-2.8-1.7l-2.9-1.7l-2.2-1.2l-1.5-0.8l-1.5-0.8l-1.6-0.8l-1.6-0.8l-1.6-0.8l-1.7-0.8l-1.7-0.7l-1.7-0.7l-1.8-0.7l-1.8-0.7
		l-1.8-0.7l-1.8-0.7l-1.9-0.7l-1.9-0.7l-1.9-0.6l-2-0.6l-2-0.6l-2-0.6l-2.1-0.6l-2.1-0.6l-2.2-0.6l-2.2-0.6l-2.2-0.5l-2.3-0.5
		l-2.3-0.5l-2.3-0.5l-2.4-0.5l-2.4-0.5l-2.5-0.5l-2.5-0.4l-2.6-0.4l-1.3-0.2l0,0l-1.3-0.2l-2.6-0.4l-2.6-0.4l-2.5-0.4l-2.4-0.4
		l-2.3-0.3l-2.3-0.3l-2.2-0.3l-2.1-0.3l-2.1-0.3l-2-0.3l-1.9-0.2l-1.9-0.2l-1.8-0.2l-1.8-0.2l-1.7-0.2l-1.6-0.2l-1.6-0.2l-1.5-0.1
		l-1.5-0.1l-1.4-0.1l-1.3-0.1l-1.3-0.1l-1.2-0.1l-1.2-0.1l-1.1-0.1l-1.1-0.1l-1,0l-1,0l-0.9,0l-0.9,0l-0.8,0l-0.8,0l-0.7,0l-0.7,0
		l-0.6,0l-0.6,0l-0.5,0l-0.5,0l-0.4,0l-0.5,0l-0.6,0l-0.1,0l-0.1,0l-0.2,0.1l-0.2,0l-0.1,0c-2.3,0.4-5.7,1.4-7.8,0
		c-0.1-0.1-0.1-0.3-0.2-0.4c-0.1-0.7,0.9-1.7,2.6-2.6l0,0l0.7-0.3l1-0.5l1.2-0.5l1.3-0.4l1.4-0.4l1.3-0.3l1.3-0.3l0.2,0l0.4-0.1
		l0.8-0.2l0.9-0.2l0.9-0.2l1-0.2l1.1-0.2l1.1-0.2l1.2-0.2l1.2-0.3l1.3-0.3l1.4-0.3l1.4-0.3l1.5-0.3l1.5-0.3l1.6-0.3l1.6-0.3l1.7-0.3
		l1.7-0.3l1.8-0.3l1.8-0.3l1.9-0.3l1.9-0.3l2-0.3l2-0.3l2.1-0.3l2.1-0.3l2.1-0.3l2.2-0.3l2.2-0.3l2.3-0.3l2.3-0.3l2.3-0.3l2.4-0.3
		l2.4-0.3l2.4-0.3l2.5-0.3l2.5-0.2l3.8-0.3l5.1-0.4l5.2-0.4l5.3-0.3l5.4-0.3l5.5-0.2l5.5-0.1L1825.2,580.8z M1717.5,598.6
		L1717.5,598.6L1717.5,598.6L1717.5,598.6L1717.5,598.6z"/>
	<path id="path188" inkscape:connector-curvature="0" class="st2" d="M1741.3,445.2l5.4,0.1l2.6,0.1l2.3,0l4.5,0.1l4.5,0.2l4.4,0.2
		l4.3,0.2l4.3,0.3l4.2,0.3l4.2,0.4l4.1,0.4l4,0.4l4,0.5l3.9,0.5l3.9,0.6l3.8,0.6l3.7,0.7l3.7,0.7l3.6,0.7l3.5,0.8l3.5,0.8l3.4,0.9
		l3.4,0.9l3.3,1l3.2,1l3.2,1l3.1,1.1l3,1.1l3,1.2l2.9,1.2l2.8,1.3l2.8,1.3l2.7,1.3l2.7,1.4l2.6,1.4l2.5,1.5l2.5,1.5l2.4,1.6l2.3,1.6
		l2.3,1.6l2.2,1.7l2.1,1.7l2.1,1.8l2,1.8l1.9,1.9l1.9,1.9l1.8,1.9l1.7,2l1.7,2l1.6,2.1l1.5,2.1l1.5,2.2l1.4,2.2l1.3,2.2l1.3,2.3
		l1.2,2.3l1.1,2.4l1.1,2.4l1,2.5l0.9,2.5l0.9,2.6l0.8,2.6l0.7,2.6l0.7,2.7l0.6,2.7l0.5,2.8l0.2,1.4c0,0,0,0,0,0l0.2,1.3l0.4,2.6
		l0.4,2.6l0.3,2.6l0.3,2.6l0.3,2.6l0.2,2.6l0.2,2.7l0.2,2.7l0.1,2.7l0.1,2.7l0.1,2.7l0,2.7l0,2.7l0,2.7l0,2.7l-0.1,2.8l-0.1,2.8
		l-0.2,4.2l-0.4,5.6l-0.5,5.6l-0.6,5.7l-0.7,5.7l-0.8,5.7l-0.9,5.7l-1,5.8l-1.1,5.8l-1.2,5.8l-1.2,5.8l-1.3,5.8l-1.4,5.8l-1.5,5.8
		l-1.6,5.8l-1.6,5.8l-1.7,5.8l-1.8,5.8l-1.8,5.8l-1.9,5.8l-2,5.8l-2,5.8l-2.1,5.7l-2.1,5.7l-2.2,5.7l-2.2,5.7l-2.3,5.6l-2.3,5.6
		l-2.4,5.6l-2.4,5.5l-2.4,5.5l-2.5,5.5l-2.5,5.4l-2.5,5.4l-2.5,5.3l-2.6,5.3l-2.6,5.2l-2.6,5.1l-2.6,5.1l-2.6,5l-2.6,5l-2.6,4.9
		l-2.6,4.8l-2.6,4.7l-2.6,4.7l-2.6,4.6l-2.6,4.5l-2.6,4.4l-2.6,4.3l-2.6,4.2l-2.6,4.2l-2.5,4.1l-2.5,4l-2.5,3.9l-2.5,3.8l-1.2,1.8
		c0,0,0,0,0,0l-2.7,4.1l-5.4,8.1l-5.5,8l-5.5,8l-5.5,7.9l-5.5,7.9l-5.5,7.8l-5.6,7.7l-5.6,7.7l-5.6,7.6l-5.6,7.6l-5.6,7.5l-5.6,7.5
		l-5.6,7.4l-5.7,7.3l-5.7,7.3l-5.7,7.2l-5.7,7.2l-5.7,7.1l-5.7,7l-5.7,7l-5.7,6.9l-5.7,6.9l-5.7,6.8l-5.7,6.7l-5.7,6.7l-5.7,6.6
		l-5.7,6.6l-5.7,6.5l-5.7,6.4l-5.7,6.4l-5.7,6.3l-5.6,6.3l-5.6,6.2l-5.6,6.1l-5.6,6.1l-5.6,6l-5.6,6l-5.6,5.9l-5.6,5.8l-5.5,5.8
		l-5.5,5.7l-5.5,5.7l-5.5,5.6l-5.5,5.5l-5.4,5.5l-5.4,5.4l-5.4,5.4l-5.4,5.3l-5.3,5.2l-5.3,5.2l-5.3,5.1l-5.3,5l-5.2,5l-5.2,4.9
		l-5.2,4.9l-5.1,4.8l-5.1,4.7l-5.1,4.7l-5,4.6l-5,4.5l-5,4.5l-4.9,4.4l-4.9,4.4l-4.8,4.3l-4.8,4.2l-4.8,4.2l-4.7,4.1l-4.7,4l-4.6,4
		l-4.6,3.9l-4.5,3.9l-4.5,3.8l-4.4,3.7l-4.4,3.7l-4.3,3.6l-4.3,3.5l-4.2,3.5l-4.2,3.4l-4.1,3.3l-4,3.3l-4,3.2l-3.9,3.1l-3.9,3.1
		l-3.8,3l-3.7,3l-3.7,2.9l-3.6,2.8l-3.6,2.8l-3.5,2.7l-3.4,2.6l-3.4,2.6l-3.3,2.5l-3.2,2.4l-3.1,2.4l-3.1,2.3l-3,2.2l-2.9,2.2
		l-2.8,2.1l-2.8,2l-2.7,2l-2.6,1.9l-2.5,1.8l-2.5,1.8l-2.4,1.7l-2.3,1.6l-1.7,1.2l-1.1,0.8l-1.1,0.8l-1,0.7l-1,0.7l-1,0.7l-1,0.7
		l-1,0.7l-0.9,0.7l-0.9,0.6l-0.9,0.6l-0.9,0.6l-0.8,0.6l-0.8,0.6l-0.8,0.6l-0.8,0.5l-0.8,0.5l-0.7,0.5l-0.7,0.5l-0.7,0.5l-0.7,0.4
		l-0.6,0.4l-0.6,0.4l-0.6,0.4l-0.6,0.4l-0.5,0.4l-0.5,0.3l-0.5,0.3l-0.5,0.3l-0.4,0.3l-0.4,0.3l-0.4,0.3l-0.4,0.2l-0.3,0.2l-0.3,0.2
		l-0.3,0.2l-0.3,0.2l-0.2,0.2l-0.2,0.1l-0.2,0.1l-0.2,0.1l-0.1,0.1l-0.1,0.1l-0.1,0l0,0v0l-8.1,5.3l-16.2,10.7l-16.3,10.6
		l-16.4,10.6l-16.4,10.5l-12.3,7.8l-8.2,5.2l-8.1,5.2l-8.1,5.1l-8.1,5.1l-8,5.1l-8,5l-8,5l-7.9,4.9l-7.9,4.9l-7.8,4.8l-7.7,4.8
		l-7.7,4.7l-7.6,4.7l-5.6,3.5l-3.7,2.3l-3.7,2.3l-3.7,2.3l-3.7,2.2l-3.6,2.2l-3.6,2.2l-3.6,2.2l-3.6,2.2l-3.5,2.2l-3.5,2.1l-3.5,2.1
		l-3.4,2.1l-3.4,2.1l-3.4,2.1l-3.4,2l-3.3,2l-3.3,2l-3.3,2l-3.2,2l-3.2,1.9l-3.2,1.9l-3.1,1.9l-3.1,1.9l-3.1,1.8l-3,1.8l-3,1.8
		l-2.9,1.8l-2.9,1.7l-2.9,1.7l-2.8,1.7l-2.8,1.7l-2.7,1.6l-2.7,1.6l-2.7,1.6l-2.6,1.6l-2.6,1.5l-2.5,1.5l-2.5,1.5l-2.4,1.5l-2.4,1.4
		l-2.3,1.4l-2.3,1.4l-2.2,1.3l-2.2,1.3l-2.1,1.3l-2.1,1.2l-2,1.2l-2,1.2l-1.9,1.1l-1.9,1.1l-1.8,1.1l-1.8,1.1l-1.7,1l-1.7,1l-1.6,1
		l-1.6,0.9l-1.5,0.9l-1.4,0.8l-1.4,0.8l-1.3,0.8l-1.3,0.7l-1.2,0.7l-1.1,0.7l-1.1,0.6l-1,0.6l-1,0.6l-0.9,0.5l-0.8,0.5l-0.8,0.4
		l-0.7,0.4l-0.6,0.4l-0.6,0.3l-0.5,0.3l-0.4,0.2l-0.4,0.2l-0.3,0.2l-0.2,0.1l-0.1,0.1l-0.1,0h0l-0.3,0.1c-0.3,0.2-0.2,0.1-0.4,0.2
		c-0.8,0.4-0.3,0.2-1.5,0.6c-1.1,0.5-0.6,0.3-1.4,0.5c-0.7,0.3-0.3,0.1-1.5,0.4c-1.2,0.3-0.7,0.2-1.5,0.4c-0.8,0.2-0.3,0.1-1.5,0.2
		c-1.2,0.2-0.7,0.2-1.6,0.2c-0.3,0-0.1,0-0.5,0l-0.3,0l-0.3,0h-0.3l-0.2,0c-0.3,0-0.2,0-0.4,0c-0.6-0.1-0.3,0-0.9-0.3
		c-0.6-0.2-0.5,0-0.6-0.3c-0.3-0.1-0.2,0-0.2-0.4c-0.2-0.4-0.2-0.2,0-0.5c0-0.3,0-0.1,0.4-0.6c0.3-0.5,0.1-0.3,0.6-0.7
		c0.1-0.1,0-0.1,0.3-0.2l0.2-0.1h0l0,0l0.1-0.1l0.1-0.1l0.2-0.1l0.2-0.1l0.3-0.2l0.3-0.2l0.3-0.2l0.4-0.3l0.4-0.3l0.5-0.3l0.5-0.3
		l0.6-0.4l0.6-0.4l0.6-0.4l0.7-0.5l0.7-0.5l0.8-0.5l0.8-0.5l0.8-0.6l0.9-0.6l0.9-0.6l1-0.6l1-0.7l1-0.7l1.1-0.7l1.1-0.8l1.1-0.8
		l1.2-0.8l1.2-0.8l1.3-0.9l1.3-0.9l1.3-0.9l1.4-0.9l1.4-0.9l1.4-1l1.5-1l1.5-1l1.5-1l1.6-1.1l1.6-1.1l1.6-1.1l1.7-1.1l1.7-1.2
		l1.7-1.2l1.8-1.2l1.8-1.2l1.8-1.2l1.8-1.3l1.9-1.3l1.9-1.3l1.9-1.3l2-1.4l2-1.4l2-1.4l2-1.4l2.1-1.4l2.1-1.5l2.1-1.5l2.2-1.5
		l2.2-1.5l2.2-1.5l2.2-1.6l2.3-1.6l2.3-1.6l2.3-1.6l2.3-1.6l2.4-1.7l2.4-1.7l2.4-1.7l2.4-1.7l2.5-1.7l2.5-1.7l2.5-1.8l2.5-1.8
		l2.5-1.8l2.6-1.8l3.9-2.7l5.3-3.7l5.3-3.8l5.4-3.8l5.5-3.9l5.6-4l5.6-4l5.7-4.1l5.8-4.1l5.8-4.2l5.9-4.2l6-4.3l6-4.3l6.1-4.4
		l6.1-4.4l6.2-4.5l6.2-4.5l6.3-4.6l6.3-4.6l6.4-4.7l6.4-4.7l6.4-4.7l6.5-4.8l6.5-4.8l6.5-4.8l6.5-4.9l6.6-4.9l6.6-4.9l6.6-5l9.9-7.5
		l13.3-10.1l13.3-10.2l13.3-10.2l13.3-10.3l13.3-10.3l13.2-10.4l13.1-10.4l13-10.4l12.9-10.4l9.6-7.8l6.4-5.2l6.3-5.2l6.3-5.2
		l6.2-5.2l6.2-5.2l6.1-5.2l6.1-5.2l6-5.2l6-5.1l5.9-5.1l5.9-5.1l5.8-5.1l5.7-5.1l5.7-5l5.6-5l5.5-5l5.4-5l5.4-4.9l5.3-4.9l5.2-4.9
		l5.1-4.9l5-4.8l4.9-4.8l4.8-4.8l4.8-4.7l4.7-4.7l4.6-4.6l4.5-4.6l3.3-3.4l2.1-2.3l2.1-2.3l2.1-2.2l2.1-2.2l2-2.2l2-2.2l2-2.2
		l1.9-2.2l1.9-2.2l1.9-2.2l1.9-2.1l1.8-2.1l1.8-2.1l1.8-2.1l1.7-2.1l1.7-2.1l1.7-2.1l1.6-2.1l1.6-2l1.6-2l1.5-2l0.8-1
		c0.1-0.1,0.2-0.2,0.2-0.3l2.1-2.2l4.2-4.4l4.2-4.4l4.1-4.4l4.1-4.4l4.1-4.4l6-6.6l7.9-8.8l5.8-6.6l3.9-4.4l3.8-4.4l3.8-4.4l3.7-4.4
		l3.7-4.4l3.7-4.4l3.6-4.4l3.6-4.4l3.6-4.3l3.5-4.3l3.5-4.3l3.5-4.3l3.4-4.3l3.4-4.3l3.4-4.3l3.3-4.3l3.3-4.3l3.3-4.3l3.2-4.3
		l3.2-4.2l3.2-4.2l3.1-4.2l3.1-4.2l3-4.2l3-4.2l3-4.1l2.9-4.1l2.9-4.1l2.9-4.1l2.8-4.1l2.8-4.1l2.8-4l2.7-4l2.7-4l2.7-4l2.6-3.9
		l2.6-3.9l2.6-3.9l2.5-3.9l2.5-3.9l2.5-3.8l2.4-3.8l2.4-3.8l2.4-3.7l2.3-3.7l2.3-3.7l2.3-3.7l2.2-3.6l2.2-3.6l2.2-3.6l2.1-3.5
		l2.1-3.5l2.1-3.5l2-3.4l2-3.4l2-3.4l1.9-3.3l1.9-3.3l1.9-3.3l1.8-3.2l1.8-3.2l1.8-3.1l1.7-3.1l1.7-3.1l1.7-3l1.6-3l1.6-2.9l1.6-2.9
		l1.5-2.9l1.5-2.8l1.5-2.8l1.4-2.7l1.4-2.7l1.4-2.6l1.3-2.6l1.3-2.5l1.3-2.5l1.2-2.4l1.2-2.4l1.2-2.3l1.1-2.3l1.1-2.2l1.1-2.2
		l1.1-2.1l1-2.1l1-2l1-2l0.9-1.9l0.9-1.9l0.9-1.8l0.8-1.8l0.8-1.7l0.8-1.6l0.7-1.6l0.7-1.5l0.7-1.5l0.6-1.4l0.6-1.3l0.6-1.3l0.6-1.2
		l0.5-1.2l0.5-1.1l0.5-1l0.4-1l0.4-0.9l0.4-0.8l0.3-0.8l0.3-0.7l0.3-0.6l0.2-0.6l0.2-0.5l0.2-0.4l0.2-0.4l0.1-0.3l0.1-0.2l0.1-0.1
		l0-0.1l0-0.1l0-0.1l0.1-0.2l0.1-0.2l0.1-0.3l0.1-0.3l0.2-0.4l0.2-0.5l0.2-0.5l0.2-0.6l0.2-0.6l0.2-0.7l0.3-0.7l0.3-0.8l0.3-0.8
		l0.3-0.9l0.3-0.9l0.3-1l0.4-1l0.4-1.1l0.4-1.1l0.4-1.2l0.4-1.2l0.4-1.2l0.4-1.3l0.4-1.3l0.5-1.4l0.5-1.4l0.5-1.4l0.5-1.5l0.5-1.5
		l0.5-1.6l0.5-1.6l0.5-1.6l0.5-1.7l0.8-2.6l1.1-3.5l1.1-3.6l1.1-3.8l1.1-3.9l1.1-4l1.1-4.1l1.1-4.2l1.1-4.3l1.1-4.4l1-4.4l1-4.5
		l1-4.6l0.9-4.6l0.9-4.7l0.9-4.7l0.8-4.8l0.8-4.8l0.7-4.8l0.7-4.9l0.6-4.9l0.5-4.9l0.5-4.9l0.4-4.9l0.3-4.9l0.2-4.9l0.1-4.9l0.1-4.8
		l0-4.8l-0.1-4.8l-0.2-3.6l-0.1-2.4l-0.2-2.3l-0.2-2.3l-0.2-2.3l-0.3-2.3l-0.3-2.3l-0.3-2.3l-0.3-2.2l-0.4-2.2l-0.4-2.2l-0.4-2.2
		l-0.5-2.2l-0.5-2.2l-0.5-2.1l-0.6-2.1l-0.6-2.1l-0.6-2.1l-0.7-2l-0.7-2l-0.7-2l-0.8-2l-0.8-1.9l-0.9-1.9l-0.9-1.9l-0.9-1.8l-1-1.8
		l-1-1.8l-1.1-1.7l-1.1-1.7l-1.1-1.7l-1.2-1.7l-0.6-0.8l-0.8-1.1l-1.7-2.2l-1.8-2.2l-1.9-2.1l-1.9-2.1l-2-2.1l-2-2l-2.1-2l-2.2-2
		l-2.3-1.9l-2.3-1.9l-2.4-1.9l-2.5-1.8l-2.6-1.8l-2.7-1.8l-2.8-1.7l-2.9-1.7l-3-1.7l-2.3-1.2l-1.6-0.8l-1.6-0.8l-1.6-0.8l-1.7-0.8
		l-1.7-0.8l-1.7-0.8l-1.8-0.7l-1.8-0.7l-1.8-0.7l-1.9-0.7l-1.9-0.7l-1.9-0.7l-2-0.7l-2-0.7l-2-0.7l-2.1-0.7l-2.1-0.6l-2.1-0.6
		l-2.2-0.6l-2.2-0.6l-2.2-0.6l-2.3-0.6l-2.3-0.6l-2.4-0.6l-2.4-0.6l-2.4-0.5l-2.5-0.5l-1.3-0.3l0,0l-1.3-0.3l-2.5-0.5l-2.4-0.5
		l-2.4-0.5l-2.3-0.4l-2.2-0.4l-2.2-0.4l-2.1-0.4l-2.1-0.4l-2-0.3l-2-0.3l-1.9-0.3l-1.9-0.3l-1.8-0.3l-1.8-0.2l-1.7-0.2l-1.7-0.2
		l-1.6-0.2l-1.6-0.2l-1.5-0.2l-1.5-0.1l-1.4-0.1l-1.4-0.1l-1.3-0.1l-1.3-0.1l-1.2-0.1l-1.2-0.1l-1.1-0.1l-1.1,0l-1,0l-1,0l-1,0
		l-0.9,0l-0.9,0l-0.8,0l-0.8,0l-0.7,0l-0.7,0l-0.6,0l-0.6,0l-0.6,0l-0.5,0l-0.6,0l-0.8,0.1l-0.6,0.1l-0.4,0l-0.3,0l0,0l-0.2,0
		l-0.2,0l-0.1,0l0,0c-4.3,1-7.7,0.7-7.6-0.7c0.1-1.2,2.6-2.7,6-3.8l0,0l0.6-0.2l0.8-0.2l0.9-0.2l1-0.2l0.5-0.1l0.2,0l0.6-0.1
		l0.7-0.1l0.8-0.2l0.8-0.2l0.9-0.2l1-0.2l1-0.2l1.1-0.2l1.2-0.2l1.2-0.2l1.3-0.3l1.4-0.3l1.4-0.3l1.5-0.3l1.5-0.3l1.6-0.3l1.7-0.3
		l1.7-0.3l1.8-0.3l1.8-0.3l1.9-0.3l1.9-0.3l2-0.3l2-0.3l2-0.3l2.1-0.3l2.1-0.3l2.2-0.3l2.2-0.3l2.2-0.3l2.3-0.3l2.3-0.3l2.4-0.3
		l3.6-0.4l4.9-0.5l5-0.5l5.1-0.5l5.2-0.4l5.3-0.4l5.3-0.3l5.4-0.2l5.4-0.2l5.5-0.1L1741.3,445.2z"/>
	<path id="path196" inkscape:connector-curvature="0" class="st2" d="M1643.7,309.9l2.8,0l2.7,0l2.7,0.1l1.2,0l2.2,0l4.3,0.1
		l4.3,0.2l4.2,0.2l4.2,0.3l4.1,0.3l4,0.3l4,0.4l3.9,0.4l3.9,0.5l3.8,0.5l3.7,0.6l3.7,0.6l3.6,0.7l3.6,0.7l3.5,0.7l3.4,0.8l3.4,0.8
		l3.3,0.9l3.3,0.9l3.2,1l3.1,1l3.1,1.1l3,1.1l3,1.1l2.9,1.2l2.8,1.2l2.8,1.3l2.7,1.3l2.7,1.4l2.6,1.4l2.5,1.5l2.5,1.5l2.4,1.6
		l2.3,1.6l2.3,1.6l2.2,1.7l2.2,1.7l2.1,1.8l2,1.8l2,1.9l1.9,1.9l1.8,2l1.8,2l1.7,2.1l1.7,2.1l1.6,2.2l1.5,2.2l1.5,2.2l1.4,2.3
		l1.3,2.3l1.3,2.4l1.2,2.4l1.2,2.5l1.1,2.5l1,2.6l1,2.6l0.9,2.7l0.8,2.7l0.8,2.8l0.7,2.8l0.6,2.9l0.6,2.9l0.5,2.9l0.2,1.5
		c0,0,0,0,0,0l0.2,1.4l0.4,2.7l0.3,2.7l0.3,2.8l0.3,2.8l0.3,2.8l0.2,2.8l0.2,2.8l0.2,2.8l0.1,2.8l0.1,2.9l0.1,2.9l0,2.9l0,2.9l0,2.9
		l0,2.9l-0.1,4.4l-0.2,5.9l-0.4,5.9l-0.5,6l-0.6,6l-0.7,6l-0.8,6.1l-0.8,6.1l-0.9,6.1l-1,6.1l-1.1,6.1l-1.2,6.2l-1.3,6.2l-1.3,6.2
		l-1.4,6.2l-1.5,6.2l-1.6,6.2l-1.6,6.2l-1.7,6.2l-1.8,6.2l-1.8,6.2l-1.9,6.1l-1.9,6.1l-2,6.1l-2,6.1l-2.1,6.1l-2.1,6l-2.2,6l-2.2,6
		l-2.3,5.9l-2.3,5.9l-2.3,5.8l-2.3,5.8l-2.4,5.8l-2.4,5.7l-2.4,5.6l-2.4,5.6l-2.5,5.5l-2.5,5.5l-2.5,5.4l-2.5,5.3l-2.5,5.3l-2.5,5.2
		l-2.5,5.1l-2.5,5l-2.5,5l-2.5,4.9l-2.5,4.8l-2.5,4.7l-2.5,4.6l-2.5,4.5l-2.4,4.4l-2.4,4.3l-2.4,4.2l-2.4,4.1l-2.4,4l-1.2,1.9v0
		l-2.6,4.3l-5.2,8.6l-5.2,8.5l-5.2,8.5l-5.3,8.4l-5.3,8.4l-5.3,8.3l-5.3,8.2l-5.3,8.2l-5.3,8.1l-5.4,8l-5.4,8l-5.4,7.9l-5.4,7.9
		l-5.4,7.8l-5.4,7.7l-5.4,7.7l-5.4,7.6l-5.4,7.5l-5.4,7.5l-5.4,7.4l-5.4,7.4l-5.4,7.3l-5.4,7.2l-5.4,7.2l-5.4,7.1l-5.4,7l-5.4,7
		l-5.4,6.9l-5.4,6.9l-5.4,6.8l-5.4,6.7l-5.4,6.7l-5.4,6.6l-5.4,6.5l-5.4,6.5l-5.4,6.4l-5.3,6.3l-5.3,6.3l-5.3,6.2l-5.3,6.1l-5.3,6.1
		l-5.3,6l-5.2,5.9l-5.2,5.9l-5.2,5.8l-5.2,5.8l-5.2,5.7l-5.1,5.6l-5.1,5.6l-5.1,5.5l-5.1,5.4l-5,5.4l-5,5.3l-5,5.2l-4.9,5.2
		l-4.9,5.1l-4.9,5l-4.8,5l-4.8,4.9l-4.8,4.8l-4.7,4.8l-4.7,4.7l-4.7,4.6l-4.6,4.6l-4.6,4.5l-4.5,4.4l-4.5,4.4l-4.5,4.3l-4.4,4.2
		l-4.4,4.2l-4.3,4.1l-4.3,4l-4.2,4l-4.2,3.9l-4.1,3.8l-4.1,3.8l-4,3.7l-4,3.6l-3.9,3.5l-3.9,3.5l-3.8,3.4l-3.8,3.3l-3.7,3.3
		l-3.6,3.2l-3.6,3.1l-3.5,3.1l-3.5,3l-3.4,2.9l-3.3,2.9l-3.3,2.8l-3.2,2.7l-3.1,2.7l-3.1,2.6l-3,2.5l-2.9,2.4l-2.9,2.4l-2.8,2.3
		l-2.7,2.2l-2.6,2.2l-2.6,2.1l-2.5,2l-2.4,2l-2.3,1.9l-2.3,1.8l-1.6,1.3l-1.1,0.9l-1.1,0.8l-1,0.8l-1,0.8l-1,0.8l-1,0.8l-1,0.7
		l-0.9,0.7l-0.9,0.7l-0.9,0.7l-0.9,0.7l-0.8,0.7l-0.8,0.6l-0.8,0.6l-0.8,0.6l-0.8,0.6l-0.7,0.6l-0.7,0.5l-0.7,0.5l-0.7,0.5l-0.7,0.5
		l-0.6,0.5l-0.6,0.5l-0.6,0.4l-0.6,0.4l-0.5,0.4l-0.5,0.4l-0.5,0.4l-0.5,0.3l-0.4,0.3l-0.4,0.3l-0.4,0.3l-0.4,0.3l-0.4,0.3l-0.3,0.2
		l-0.3,0.2l-0.3,0.2l-0.3,0.2l-0.2,0.2l-0.2,0.2l-0.2,0.1l-0.2,0.1l-0.1,0.1l-0.1,0.1l-0.1,0l0,0v0l-7.7,5.7l-15.5,11.3l-15.6,11.3
		l-15.6,11.3l-15.6,11.2l-11.7,8.3l-7.8,5.5l-7.8,5.5l-7.8,5.5l-7.7,5.4l-7.7,5.4l-7.6,5.3l-7.6,5.3l-7.6,5.3l-7.5,5.2l-7.4,5.1
		l-7.4,5.1l-7.3,5l-7.2,5l-5.4,3.7l-3.6,2.4l-3.5,2.4l-3.5,2.4l-3.5,2.4l-3.5,2.4l-3.4,2.3l-3.4,2.3l-3.4,2.3l-3.4,2.3l-3.3,2.3
		l-3.3,2.3l-3.3,2.2l-3.3,2.2l-3.2,2.2l-3.2,2.2l-3.2,2.1l-3.1,2.1l-3.1,2.1l-3.1,2.1l-3.1,2.1l-3,2l-3,2l-3,2l-2.9,2l-2.9,1.9
		l-2.8,1.9l-2.8,1.9l-2.8,1.9l-2.7,1.8l-2.7,1.8l-2.7,1.8l-2.6,1.7l-2.6,1.7l-2.5,1.7l-2.5,1.7l-2.5,1.6l-2.4,1.6l-2.4,1.6l-2.3,1.5
		l-2.3,1.5l-2.2,1.5l-2.2,1.4l-2.1,1.4l-2.1,1.4l-2,1.4l-2,1.3l-2,1.3l-1.9,1.3l-1.9,1.2l-1.8,1.2l-1.8,1.2l-1.7,1.1l-1.6,1.1
		l-1.6,1l-1.5,1l-1.5,1l-1.4,0.9l-1.4,0.9l-1.3,0.9l-1.3,0.8l-1.2,0.8l-1.1,0.8l-1.1,0.7l-1,0.7l-1,0.6l-0.9,0.6l-0.8,0.6l-0.8,0.5
		l-0.7,0.5l-0.7,0.4l-0.6,0.4l-0.5,0.3l-0.5,0.3l-0.4,0.3l-0.3,0.2l-0.3,0.2l-0.2,0.1l-0.1,0.1l-0.1,0h0l-0.3,0.2
		c-0.3,0.2-0.2,0.1-0.4,0.2c-0.7,0.4-0.3,0.2-1.4,0.6c-1,0.5-0.6,0.3-1.3,0.5c-0.7,0.3-0.2,0.1-1.4,0.4c-1.2,0.4-0.7,0.3-1.5,0.4
		c-0.7,0.2-0.3,0.1-1.5,0.3c-1.3,0.2-0.7,0.2-1.6,0.3c-0.3,0-0.1,0-0.5,0l-0.3,0H836l-0.3,0l-0.3,0c-0.4,0-0.2,0-0.4,0
		c-0.6,0-0.3,0-1-0.2c-0.7-0.1-0.5,0-0.7-0.2c-0.3-0.1-0.2,0-0.3-0.4c-0.3-0.3-0.3-0.2-0.2-0.4c-0.1-0.3-0.1-0.1,0.2-0.5
		c0.2-0.5,0.1-0.3,0.4-0.6c0.1-0.2,0-0.1,0.3-0.2l0.2-0.2h0l0,0l0.1-0.1l0.1-0.1l0.2-0.1l0.2-0.2l0.3-0.2l0.3-0.2l0.3-0.2l0.4-0.3
		l0.4-0.3l0.5-0.3l0.5-0.4l0.5-0.4l0.6-0.4l0.6-0.5l0.7-0.5l0.7-0.5l0.7-0.5l0.8-0.6l0.8-0.6l0.8-0.6l0.9-0.7l0.9-0.7l1-0.7l1-0.7
		l1-0.8l1.1-0.8l1.1-0.8l1.1-0.9l1.2-0.9l1.2-0.9l1.2-0.9l1.3-1l1.3-1l1.3-1l1.4-1l1.4-1.1l1.4-1.1l1.5-1.1l1.5-1.1l1.5-1.2l1.6-1.2
		l1.6-1.2l1.6-1.2l1.6-1.3l1.7-1.3l1.7-1.3l1.7-1.3l1.8-1.4l1.8-1.4l1.8-1.4l1.8-1.4l1.9-1.4l1.9-1.5l1.9-1.5l2-1.5l2-1.5l2-1.6
		l2-1.6l2.1-1.6l2.1-1.6l2.1-1.6l2.1-1.7l2.2-1.7l2.2-1.7l2.2-1.7l2.2-1.7l2.3-1.8l2.3-1.8l2.3-1.8l2.3-1.8l2.3-1.8l2.4-1.9l2.4-1.9
		l2.4-1.9l2.4-1.9l2.5-1.9l3.7-2.9l5-4l5.1-4l5.2-4.1l5.3-4.2l5.3-4.2l5.4-4.3l5.5-4.3l5.5-4.4l5.6-4.5l5.6-4.5l5.7-4.6l5.8-4.6
		l5.8-4.7l5.9-4.7l5.9-4.8l6-4.8l6-4.9l6-4.9l6.1-5l6.1-5l6.1-5l6.2-5.1l6.2-5.1l6.2-5.1l6.2-5.2l6.3-5.2l6.3-5.2l6.3-5.3l9.5-8
		l12.7-10.7l12.7-10.8l12.7-10.9l12.7-10.9l12.7-11l12.6-11l12.6-11.1l12.5-11.1l12.4-11.1l9.2-8.3l6.1-5.5l6-5.5l6-5.5l6-5.5
		l5.9-5.5l5.9-5.5l5.8-5.5l5.8-5.5l5.7-5.5l5.7-5.5l5.6-5.4l5.5-5.4l5.5-5.4l5.4-5.4l5.3-5.3l5.3-5.3l5.2-5.3l5.1-5.3l5.1-5.2l5-5.2
		l4.9-5.2l4.8-5.1l4.7-5.1l4.6-5.1l4.5-5l4.4-5l4.4-4.9l4.3-4.9l4.2-4.8l3.1-3.6l2-2.4l2-2.4l1.9-2.4l1.9-2.4l1.9-2.3l1.9-2.3
		l1.8-2.3l1.8-2.3l1.8-2.3l1.8-2.3l1.7-2.3l1.7-2.2l1.7-2.2l1.6-2.2l1.6-2.2l1.6-2.2l1.5-2.2l1.5-2.2l1.5-2.1l0.7-1.1
		c0.1-0.1,0.1-0.2,0.2-0.2l2-2.3l4-4.6l4-4.7l4-4.7l5.9-7l7.7-9.3l7.6-9.3l7.4-9.3l7.3-9.3l5.4-7l3.5-4.6l3.5-4.6l3.5-4.6l3.4-4.6
		l3.4-4.6l3.4-4.6l3.3-4.6l3.3-4.6l3.3-4.6l3.2-4.6l3.2-4.6l3.2-4.6l3.1-4.5l3.1-4.5l3.1-4.5l3-4.5l3-4.5l3-4.5l2.9-4.5l2.9-4.4
		l2.9-4.4l2.8-4.4l2.8-4.4l2.8-4.4l2.7-4.4l2.7-4.3l2.7-4.3l2.6-4.3l2.6-4.3l2.6-4.2l2.6-4.2l2.5-4.2l2.5-4.2l2.5-4.1l2.4-4.1
		l2.4-4.1l2.4-4.1l2.3-4l2.3-4l2.3-4l2.2-4l2.2-3.9l2.2-3.9l2.1-3.9l2.1-3.8l2.1-3.8l2-3.8l2-3.7l2-3.7l1.9-3.7l1.9-3.6l1.9-3.6
		l1.8-3.5l1.8-3.5l1.8-3.5l1.8-3.4l1.7-3.4l1.7-3.3l1.7-3.3l1.6-3.3l1.6-3.2l1.6-3.2l1.5-3.1l1.5-3.1l1.5-3l1.4-3l1.4-2.9l1.4-2.9
		l1.3-2.8l1.3-2.8l1.3-2.7l1.3-2.7l1.2-2.6l1.2-2.6l1.2-2.5l1.1-2.5l1.1-2.4l1.1-2.4l1-2.3l1-2.3l1-2.2l0.9-2.2l0.9-2.1l0.9-2l0.9-2
		l0.8-1.9l0.8-1.9l0.8-1.8l0.7-1.7l0.7-1.7l0.7-1.6l0.6-1.6l0.6-1.5l0.6-1.4l0.6-1.4l0.5-1.3l0.5-1.2l0.5-1.2l0.4-1.1l0.4-1l0.4-1
		l0.3-0.9l0.3-0.8l0.3-0.7l0.3-0.7l0.2-0.6l0.2-0.5l0.2-0.5l0.1-0.4l0.1-0.3l0.1-0.2l0.1-0.2l0-0.1l0-0.1l0-0.1l0.1-0.2l0.1-0.2
		l0.1-0.3l0.1-0.4l0.1-0.4l0.2-0.5l0.2-0.5l0.2-0.6l0.2-0.7l0.2-0.7l0.3-0.8l0.3-0.8l0.3-0.9l0.3-0.9l0.3-1l0.3-1l0.3-1.1l0.4-1.1
		l0.4-1.2l0.4-1.2l0.4-1.3l0.4-1.3l0.4-1.4l0.4-1.4l0.4-1.4l0.4-1.5l0.5-1.5l0.5-1.6l0.5-1.6l0.5-1.7l0.5-1.7l0.5-1.7l0.5-1.8
		l0.5-1.8l0.5-1.8l0.8-2.8l1-3.9l1-4l1-4.1l1-4.2l1-4.3l1-4.5l1-4.5l1-4.6l1-4.7l1-4.8l0.9-4.9l0.9-4.9l0.9-5l0.8-5l0.8-5.1l0.7-5.1
		l0.7-5.1l0.6-5.2l0.6-5.2l0.5-5.2l0.4-5.2l0.4-5.2l0.3-5.2l0.2-5.2l0.1-5.2l0.1-5.1l0-5.1l-0.1-5.1l-0.2-3.8l-0.1-2.5l-0.2-2.5
		l-0.2-2.5l-0.2-2.5l-0.2-2.4l-0.3-2.4l-0.3-2.4l-0.3-2.4l-0.4-2.4l-0.4-2.4l-0.4-2.3l-0.5-2.3l-0.5-2.3l-0.5-2.3l-0.5-2.2l-0.6-2.2
		l-0.6-2.2l-0.6-2.2l-0.7-2.1l-0.7-2.1l-0.8-2.1l-0.8-2.1l-0.8-2l-0.9-2l-0.9-2l-0.9-1.9l-1-1.9l-1-1.9l-1.1-1.8l-1.1-1.8l-1.1-1.8
		l-0.6-0.9l-0.8-1.2l-1.7-2.3l-1.7-2.3l-1.8-2.3l-1.8-2.2l-1.9-2.2l-2-2.2l-2-2.1l-2.1-2.1l-2.2-2.1l-2.2-2l-2.3-2l-2.4-2l-2.5-1.9
		l-2.6-1.9l-2.7-1.8l-2.8-1.8l-2.9-1.8l-2.2-1.3l-1.5-0.9l-1.5-0.8l-1.6-0.8l-1.6-0.8l-1.6-0.8l-1.7-0.8l-1.7-0.8l-1.7-0.8l-1.8-0.8
		l-1.8-0.8l-1.8-0.8l-1.8-0.7l-1.9-0.7l-1.9-0.7l-1.9-0.7l-2-0.7l-2-0.7l-2-0.7l-2.1-0.7l-2.1-0.7l-2.1-0.6l-2.2-0.6l-2.2-0.6
		l-2.3-0.6l-2.3-0.6l-2.3-0.6l-2.4-0.6l-1.2-0.3l-2.4-0.5l-4.8-1l-4.8-0.9l-4.8-0.8l-4.7-0.8l-4.7-0.7l-4.6-0.6l-4.6-0.5l-4.5-0.5
		l-4.4-0.4l-3.3-0.3l-2.1-0.2l-2.1-0.1l-2.1-0.1l-2.1-0.1l-2-0.1l-2-0.1l-2-0.1l-1.9-0.1l-1.9-0.1l-1.9,0l-1.8,0l-1.8,0l-1.8,0
		l-1.7,0l-1.7,0l-1.6,0l-1.6,0l-1.5,0l-1.5,0l-1.5,0l-1.4,0l-1.4,0l-1.3,0l-1.3,0l-1.2,0l-1.1,0l-1.1,0l-1,0l-1,0l-0.9,0l-0.9,0
		l-0.8,0l-0.7,0l-0.7,0l-0.6,0l-0.5,0l-0.5,0l-0.4,0l-0.3,0l-0.3,0l-0.2,0l-0.1,0l0,0l0,0c-3.4,0.3-5.2-0.5-4.1-1.9
		c1.2-1.6,5.5-3.4,9.6-4l0,0l0,0l0.1,0l0.1,0l0.2,0l0.4-0.1l0.5-0.1l0.7-0.1l0.8-0.1l0.9-0.1l1-0.1l1.1-0.2l1.2-0.2l1.3-0.2l1.4-0.2
		l1.5-0.2l1.6-0.2l1.7-0.2l1.8-0.2l1.9-0.3l2-0.3l2.1-0.3l2.1-0.3l2.2-0.3l2.3-0.3l2.4-0.3l2.4-0.3l2.5-0.3l2.6-0.3l2.6-0.3l2.7-0.3
		l2.7-0.3l2.8-0.3l2.8-0.3l2.8-0.3l2.9-0.3l4.4-0.5l6-0.6l6.1-0.6l6.2-0.6l6.2-0.5l6.2-0.5l6.3-0.5l6.2-0.4l6.2-0.4l4.6-0.2l3.1-0.1
		l3-0.1l3-0.1l3-0.1l2.9-0.1l2.9-0.1l2.9,0L1643.7,309.9z"/>
</g>
</svg>
