<svg xmlns="http://www.w3.org/2000/svg" viewBox="0 0 2929.56 1721.87"><defs><style>.cls-1{isolation:isolate;}.cls-2{fill:#007cff;}</style></defs><g id="Livello_2" data-name="Livello 2"><g id="svg205"><g class="cls-1"><path class="cls-2" d="M0,1721.87V884.16H154.21v837.71Z"/><path class="cls-2" d="M135.68,1721.87V884.16H412.19v837.71ZM172,1564H375.13v-84.51h-51.9V1166.61h51.9V1082.1H172v84.51h51.89v312.85H172Z"/><path class="cls-2" d="M397.36,1721.87V884.16H707.24v837.71Zm302.47-261.69-69.69-21.5q-4.44,37.08-18.16,44.85t-22.61,7.79q-37.08,0-37.07-43.74V1297.83H672.4v-68.21H552.3V1128.06H456.67v101.56H409.23v68.21h47.44v166.06q0,51.9,33,79.69t88.59,27.8Q685.72,1571.38,699.83,1460.18Z"/><path class="cls-2" d="M692.41,1721.87V884.16h390.68v837.71Zm57.83-468.52-14.83,86.73,76.36,8.16,12.6-47.45a80.91,80.91,0,0,1,24.09-7.78,182.18,182.18,0,0,1,27.06-1.85q40.77,0,47.82,24.46a181.54,181.54,0,0,1,7,50.41v11.12q-23-3-54.86-3-57.09,0-106.38,20t-49.3,81.55q0,52.65,33.36,74.13t69.69,21.5q40.75,0,67.09-20.76t40.4-46v.74q7.39,66,73.39,66,31.14,0,60-15.57l-.74-50.41a49.19,49.19,0,0,1-14.09,2.22q-23,0-23-25.94v-145.3q0-57.08-39.29-85.26T893.31,1223q-40.77,0-70,6.3T750.24,1253.35Zm180.14,174.21q-3.72,39.3-25.58,57.45t-47.07,18.17q-21.51,0-30.4-11.12t-8.89-27.43q0-27.42,19.27-36.7t44.48-9.26a200.05,200.05,0,0,1,24.1,1.48q12.23,1.49,24.09,3Z"/><path class="cls-2" d="M1067.52,1721.87V884.16h225.37v837.71Zm20.76-157.9h184.59v-71.91h-44.48V1053.93H1084.57v72.65h48.19v365.48h-44.48Z"/><path class="cls-2" d="M1276.58,1721.87V884.16h236.48v837.71Zm31.13-157.9h184.6v-71.91h-44.48V1229.62H1304v72.66h48.18v189.78h-44.48Zm40.78-493v99.34h95.63V1071Z"/><path class="cls-2" d="M1498.23,1721.87V884.16h390.69v837.71Zm57.83-468.52-14.83,86.73,76.36,8.16,12.6-47.45a80.91,80.91,0,0,1,24.09-7.78,182.18,182.18,0,0,1,27.06-1.85q40.77,0,47.82,24.46a181.54,181.54,0,0,1,7,50.41v11.12q-23-3-54.86-3-57.09,0-106.38,20t-49.3,81.55q0,52.65,33.36,74.13t69.69,21.5q40.76,0,67.09-20.76t40.4-46v.74q7.41,66,73.39,66,31.14,0,60.05-15.57l-.74-50.41a49.19,49.19,0,0,1-14.09,2.22q-23,0-23-25.94v-145.3q0-57.08-39.29-85.26T1699.13,1223q-40.77,0-70.05,6.3T1556.06,1253.35Zm180.14,174.21q-3.72,39.3-25.58,57.45t-47.07,18.17q-21.51,0-30.39-11.12t-8.9-27.43q0-27.42,19.27-36.7t44.48-9.26a200.05,200.05,0,0,1,24.1,1.48q12.23,1.49,24.09,3Z"/><path class="cls-2" d="M1869.64,1721.87V884.16h154.2v837.71Z"/></g><g id="g8"><path id="path2-2" d="M1093,372.2c-53.61,0-87,39.84-87,108.83,0,63.43,29.3,112.21,86.13,112.21,54.49,0,90.23-44,90.23-113.82,0-74-39.84-107.22-89.35-107.22Z"/><path id="path4" d="M2530,556.62C2530,580.2,2541.39,599,2573,599c37.35,0,77.19-26.81,79.68-87.74-17-2.49-35.74-4.84-52.87-4.84-37.36-.14-69.87,10.4-69.87,50.25Z"/><path id="path6-4" d="M0,0V837.71H2929.56V0ZM852.35,665.6H698.7V459.21c0-63.43-21.09-87.74-62.55-87.74-50.38,0-70.75,35.74-70.75,87V585.91h48.78V665.6H460.67V459.21c0-63.43-21.09-87.74-62.54-87.74-50.39,0-70.75,35.74-70.75,87V585.91h69.87V665.6H173.87V585.91h48.78V378.65H173.87V299H327.38v55.22c22-39,60.2-62.54,111.32-62.54,52.88,0,101.51,25.19,119.53,78.8,20.36-48.77,61.81-78.8,119.52-78.8,65.77,0,126,39.84,126,126.7V585.91H852.5l-.15,79.69Zm236.57,8c-112.94,0-191-69-191-186,0-107.22,65-195.84,196.72-195.84s195.84,88.48,195.84,190.86C1290.47,599.68,1206,673.65,1088.92,673.65Zm591-8h-320.2l-10.54-55.23,201.55-231.58H1436.22L1420,435.63l-75.59-8.21,13-128.46h321.81l8.21,55.22L1484.11,585.91h118.65l17.14-56.83,82.91,8Zm209.18,0H1779.41V533.91h109.72Zm0-235H1779.41V299h109.72Zm68.55,235,158.49-559.11h103.26L2060.94,665.6Zm213,0L2329,106.49h103.27L2273.78,665.6Zm562.47,8c-48.78,0-75.58-28.41-80.42-73.09-21.09,37.35-58.44,73.09-117.76,73.09-52.88,0-112.94-28.41-112.94-104.88,0-90.23,87-111.32,170.65-111.32,20.36,0,41.45.88,60.2,3.22V448.52c0-37.36-.88-82-60.2-82-22,0-39,1.61-56.1,10.54l-11.87,41.31-83.64-8.93L2455.41,325c64.16-26.07,96.67-33.25,156.88-33.25,78.8,0,145.45,40.58,145.45,124.36V575.37c0,21.09,8.2,28.41,25.19,28.41a55,55,0,0,0,15.38-2.49l.88,55.22c-19.77,10.7-43.36,17.14-66.06,17.14Z"/></g></g></g></svg>