<svg xmlns="http://www.w3.org/2000/svg" viewBox="0 0 228.53 242.88"><defs><style>.cls-1{fill:#1c75bc;}</style></defs><g id="Livello_2" data-name="Livello 2"><g id="Livello_1-2" data-name="Livello 1"><path class="cls-1" d="M95.05,40.7h28V0H0V191.72H95.05ZM63.6,162.42H36.88v7.27L20,153.94l16.87-15.76v7.28H63.6v17ZM70,141.75v-7.27H43.29v-17H70v-7.27L86.89,126,70,141.75Zm22.92-106H80.07A76.5,76.5,0,0,1,65.89,60.77l10.27,9.89-5,12.86L57.53,69.86,36.7,90.5l-8.8-8.8L49.21,60.78A74.44,74.44,0,0,1,37.72,42.85l-1.34-3H49.26L49.84,41a66.29,66.29,0,0,0,7.7,11.61A62.81,62.81,0,0,0,67.76,35.71H22.16V23.16H51.37V15H63.73v8.18h29.2V35.71Zm53.69,164.7a37.88,37.88,0,0,0,40.79,0,39.1,39.1,0,0,0,12.08-12.14,39.39,39.39,0,0,0-12.07-12.14l-1-.59a20.69,20.69,0,1,1-40.13,7.08,20.47,20.47,0,0,1,1.25-7.08l-1,.59a39.17,39.17,0,0,0-12.07,12.14,39.5,39.5,0,0,0,12.07,12.14Z"/><path class="cls-1" d="M167,180.51a7.76,7.76,0,1,1-7.76-7.75A7.75,7.75,0,0,1,167,180.51Z"/><path class="cls-1" d="M228.53,51.15V242.88h-123V51.15ZM167,162.42a46.34,46.34,0,0,0-41.37,25.85,46,46,0,0,0,82.74,0A46.33,46.33,0,0,0,167,162.42ZM192.13,78.1c-8.11,0-13.94,4.24-16.8,11.09-2.51-7.54-9.38-11.09-16.8-11.09-7.19,0-12.56,3.31-15.65,8.79V79.13H120.72v11.2h7.42v29.16h-6.86v11.2h31.43v-11.2h-9.8v-18c0-7.2,2.85-12.23,9.94-12.23,5.83,0,8.8,3.43,8.8,12.34v29.05h21.57v-11.2H176.4v-18c0-7.2,2.86-12.23,9.94-12.23,5.83,0,8.8,3.43,8.8,12.34v29h21.58V119.49h-6.86V95.93c0-12.23-8.46-17.83-17.72-17.83Z"/></g></g></svg>