<svg id="svg205" xmlns="http://www.w3.org/2000/svg" viewBox="0 0 4884.58 1730"><defs><style>.cls-1,.cls-3{isolation:isolate;}.cls-2{fill:#007cff;}.cls-3{font-size:12px;font-family:ArialMT, Arial;}.cls-4{fill:#fff;}.cls-5{fill:#ff2300;}.cls-6{fill:#0b0;}</style></defs><g class="cls-1"><path class="cls-2" d="M1950,1721.87V884.16h154.2v837.71Z" transform="translate(5 4.05)"/><path class="cls-2" d="M2085.62,1721.87V884.16h276.52v837.71Zm36.32-157.9h203.13v-84.51h-51.89V1166.61h51.89V1082.1H2121.94v84.51h51.9v312.85h-51.9Z" transform="translate(5 4.05)"/><path class="cls-2" d="M2347.31,1721.87V884.16h309.87v837.71Zm302.46-261.69-69.69-21.5q-4.44,37.08-18.16,44.85t-22.61,7.79q-37.08,0-37.06-43.74V1297.83h120.09v-68.21H2502.25V1128.06h-95.64v101.56h-47.44v68.21h47.44v166.06q0,51.9,33,79.69t88.59,27.8Q2635.68,1571.38,2649.77,1460.18Z" transform="translate(5 4.05)"/><path class="cls-2" d="M2642.35,1721.87V884.16H3033v837.71Zm57.83-468.52-14.83,86.73,76.36,8.16,12.6-47.45a80.91,80.91,0,0,1,24.09-7.78,182.18,182.18,0,0,1,27.06-1.85q40.77,0,47.82,24.46a181.54,181.54,0,0,1,7,50.41v11.12q-23-3-54.86-3-57.09,0-106.38,20t-49.3,81.55q0,52.65,33.36,74.13t69.69,21.5q40.76,0,67.09-20.76t40.4-46v.74q7.41,66,73.39,66,31.14,0,60.05-15.57l-.74-50.41a49.13,49.13,0,0,1-14.09,2.22q-23,0-23-25.94v-145.3q0-57.08-39.29-85.26T2843.25,1223q-40.77,0-70.05,6.3T2700.18,1253.35Zm180.14,174.21q-3.72,39.3-25.57,57.45t-47.08,18.17q-21.51,0-30.39-11.12t-8.9-27.43q0-27.42,19.28-36.7t44.47-9.26a200.05,200.05,0,0,1,24.1,1.48q12.22,1.49,24.09,3Z" transform="translate(5 4.05)"/><path class="cls-2" d="M3017.47,1721.87V884.16h225.36v837.71Zm20.75-157.9h184.59v-71.91h-44.48V1053.93H3034.52v72.65h48.18v365.48h-44.48Z" transform="translate(5 4.05)"/><path class="cls-2" d="M3226.52,1721.87V884.16H3463v837.71Zm31.14-157.9h184.59v-71.91h-44.48V1229.62H3254v72.66h48.19v189.78h-44.48Zm40.77-493v99.34h95.63V1071Z" transform="translate(5 4.05)"/><path class="cls-2" d="M3448.18,1721.87V884.16h390.68v837.71ZM3506,1253.35l-14.83,86.73,76.36,8.16,12.6-47.45a80.88,80.88,0,0,1,24.1-7.78,182,182,0,0,1,27.06-1.85q40.76,0,47.81,24.46a181.54,181.54,0,0,1,7,50.41v11.12q-23-3-54.85-3-57.11,0-106.39,20t-49.3,81.55q0,52.65,33.36,74.13t69.69,21.5q40.76,0,67.09-20.76t40.4-46v.74q7.41,66,73.4,66,31.13,0,60-15.57l-.74-50.41a49.07,49.07,0,0,1-14.08,2.22q-23,0-23-25.94v-145.3q0-57.08-39.29-85.26T3649.08,1223q-40.78,0-70.06,6.3T3506,1253.35Zm180.14,174.21q-3.7,39.3-25.57,57.45t-47.08,18.17q-21.51,0-30.39-11.12t-8.9-27.43q0-27.42,19.28-36.7t44.48-9.26a199.76,199.76,0,0,1,24.09,1.48q12.24,1.49,24.09,3Z" transform="translate(5 4.05)"/><path class="cls-2" d="M3819.58,1721.87V884.16h154.2v837.71Z" transform="translate(5 4.05)"/></g><text class="cls-3" transform="translate(957.13 128.32)">Lorem ipsum</text><g id="g8"><path id="path2-2" d="M3043,372.16c-53.61,0-87,39.84-87,108.83,0,63.42,29.3,112.2,86.13,112.2,54.49,0,90.23-43.94,90.23-113.81,0-74-39.84-107.22-89.35-107.22Z" transform="translate(5 4.05)"/><path id="path4" d="M4480,556.57c0,23.58,11.42,42.33,43.06,42.33,37.35,0,77.2-26.8,79.69-87.74-17-2.49-35.74-4.83-52.88-4.83-37.35-.15-69.87,10.4-69.87,50.24Z" transform="translate(5 4.05)"/><path id="path6-4" d="M1950,0v837.7H4879.58V0Zm852.36,665.59H2648.72V459.16c0-63.42-21.09-87.74-62.54-87.74-50.39,0-70.75,35.74-70.75,87V585.87h48.77v79.68H2410.69V459.16c0-63.42-21.09-87.74-62.54-87.74-50.39,0-70.75,35.74-70.75,87V585.87h69.87v79.68H2123.89V585.87h48.78V378.6h-48.78V298.92H2277.4v55.22c22-39,60.2-62.55,111.32-62.55,52.88,0,101.51,25.2,119.53,78.81,20.36-48.78,61.81-78.81,119.52-78.81,65.77,0,126,39.85,126,126.71V585.87h48.77l-.14,79.68Zm236.56,8.06c-112.94,0-191-69-191-186,0-107.22,65-195.84,196.72-195.84s195.84,88.47,195.84,190.86C3240.49,599.64,3156,673.61,3038.94,673.61Zm591-8.06h-320.2l-10.55-55.22,201.55-231.58H3386.24L3370,435.58l-75.58-8.2,13-128.46h321.81l8.21,55.22L3434.14,585.87h118.64L3569.92,529l82.91,8.06Zm209.17,0H3729.44V533.87h109.71Zm0-234.95H3729.44V298.92h109.71Zm68.55,234.95,158.49-559.1h103.26L4011,665.55Zm213,0L4279,106.45h103.27L4223.8,665.55Zm562.47,8.06c-48.77,0-75.58-28.42-80.41-73.09-21.1,37.35-58.45,73.09-117.77,73.09-52.88,0-112.94-28.42-112.94-104.88,0-90.23,87-111.32,170.65-111.32,20.36,0,41.45.88,60.2,3.22V448.47c0-37.35-.88-82-60.2-82-22,0-39,1.61-56.1,10.55l-11.87,41.31-83.63-8.94L4405.43,325c64.16-26.07,96.68-33.25,156.88-33.25,78.8,0,145.45,40.57,145.45,124.36V575.32c0,21.09,8.2,28.42,25.19,28.42a55,55,0,0,0,15.38-2.49l.88,55.22c-19.77,10.69-43.35,17.14-66.06,17.14Z" transform="translate(5 4.05)"/></g><g id="Livello_2" data-name="Livello 2"><g id="Sfondo"><path id="Sfondo2" class="cls-4" d="M860,1721C385.07,1721,0,1335.88,0,861S385.07,1,860,1,1720,386,1720,861,1334.93,1721,860,1721Z" transform="translate(5 4.05)"/><path class="cls-2" d="M860,1726c-116.76,0-230-22.87-336.69-68A868.16,868.16,0,0,1,63,1197.63C17.87,1091-5,977.71-5,861s22.87-230,68-336.68A868.07,868.07,0,0,1,523.31,63.93C630,18.82,743.24-4,860-4s230,22.87,336.69,68A868.07,868.07,0,0,1,1657,524.27c45.11,106.64,68,219.92,68,336.68s-22.87,230-68,336.68A868.16,868.16,0,0,1,1196.69,1658C1090,1703.08,976.76,1726,860,1726ZM860,6C388.55,6,5,389.5,5,861s383.55,855,855,855,855-383.55,855-855S1331.45,6,860,6Z" transform="translate(5 4.05)"/><path id="Sfondo1" class="cls-2" d="M860,1672.64c-448.26,0-811.69-363.43-811.69-811.69S411.74,49.26,860,49.26,1671.69,412.69,1671.69,861,1308.26,1672.64,860,1672.64Z" transform="translate(5 4.05)"/></g><g id="Dinosauro"><g id="g133"><path id="path129" class="cls-4" d="M740.58,605.7a31.29,31.29,0,0,1,9,.89c6.48,3.53,2.06,11.3.49,17.1-34.5,103.89-54.26,188.81-114.8,195.78-84,16.42-139-52.48-103.5-77.05,56.91-34.21,56.91-34.21,88.76-55.93C645.93,666.15,668.93,643,696,624.77,709.52,615.63,724.17,607.18,740.58,605.7Z" transform="translate(5 4.05)"/><path id="path131" class="cls-4" d="M635.32,819.47c-84,16.42-139-52.48-103.5-77.05,56.91-34.21,56.91-34.21,88.76-55.93,29.38-22.6,92.48-89.34,129-79.9,6.48,3.53,2.06,11.3.49,17.1-34.5,103.79-54.26,188.71-114.8,195.78" transform="translate(5 4.05)"/></g><g id="g139"><path id="path135" class="cls-4" d="M519.54,1205.74l11.1,9.24" transform="translate(5 4.05)"/><path id="path137" class="cls-4" d="M519.54,1205.74l11.1,9.24" transform="translate(5 4.05)"/></g><path id="path141" class="cls-4" d="M484,1298.52h0" transform="translate(5 4.05)"/><g id="g147"><path id="path143" class="cls-4" d="M489.07,1298.52c-4.72-1.38-5.11-1.77-5.11-5,0-36.47,11.4-59.57,35.58-87.77,8.06,28.7,36.46,47.08,59.17,65.16,1.77,1.38-46.89,23.29-86,27.62" transform="translate(5 4.05)"/><path id="path145" class="cls-4" d="M489.07,1298.52c-4.72-1.38-5.11-1.77-5.11-5,0-36.47,11.4-59.57,35.58-87.77,8.06,28.7,36.46,47.08,59.17,65.16,1.77,1.38-46.89,23.29-86,27.62" transform="translate(5 4.05)"/></g><g id="g153"><path id="path149" class="cls-4" d="M905.31,68.37c15.92.69,25.75,9.54,31.84,23.49,18.68,45.22,20.84,55.34,29.49,69.79,23.59,39.31,43.34,65.16,37,63.69-66.84-15.43-121-29.69-198.64-17.5-28.11,4.42-52,15.73-77.65,27.72,22.51-50,59.07-94.26,101-129.25C850.27,88.13,876,69.75,905.31,68.37Z" transform="translate(5 4.05)"/><path id="path151" class="cls-4" d="M727.31,235.56C761,152.9,904.33,12.45,937.15,91.86c18.68,45.22,20.84,55.34,29.49,69.79,23.59,39.31,43.34,65.16,37,63.69-66.84-15.43-121-29.69-198.64-17.5-28.11,4.42-52,15.73-77.65,27.72" transform="translate(5 4.05)"/></g><g id="g159"><path id="path155" class="cls-4" d="M1291.87,420.43c12.48,0,70.86,1.58,53.66,28.21-15.23,22.12-18.18,48.65-29.39,63.79C1300,485.7,1300,485.7,1256.39,424.17,1268,421.32,1280,420.73,1291.87,420.43Z" transform="translate(5 4.05)"/><path id="path157" class="cls-4" d="M1316.14,512.43C1300,485.7,1300,485.7,1256.39,424.17c34.2-8.36,108.8-4.23,89.14,24.37-15.23,22.22-18.18,48.75-29.39,63.89" transform="translate(5 4.05)"/></g><g id="g165"><path id="path161" class="cls-4" d="M880.44,278.61c41.38,0,82.76,6,121.58,20.64,202.47,78.43,302.23,303.5,394.33,482.78,50.71,109.49,50.71,109.49,70.66,156.57-.49,0-1,0-1,.49C1396.25,793.13,1320.86,649,1229.26,515c-48.85-62.31-99.56-125.11-172.2-161-118.43-58.48-227.33-60.35-349.89,5.8C635.61,398.52,567.6,468.2,525.63,539.26c-49,83.15-88.85,136.91-121,242.86-23.39,77.16-35,111.26-41.67,149.5-28.6,163.45-25.85,224.19-10.81,316,9,55,36.66,99.07,72.53,124.33,16.42,11.5,52.19,21.52,59.27,22.7,63.59,10.71,95.83,2.75,157.55-14.35C814.2,1315.62,944.62,1184.9,1001.14,1013c26.14-114.11,31.74-248.57-38.43-348.82,0-.49,0-.49.49-.49,18.08,5.5,32.43,21,41.28,37,27.62,49.73,36.07,131.4,36.07,188.61,0,144.57-16.12,170.33-50.32,256.23-30.37,55.43-57.4,97.79-107.23,150.18-25.26,26.53-86.79,69.29-87.28,69.78-97.3,63.3-222.52,120.11-340.66,93.27-25.26-5.7-49.53-17.88-66.44-33.71-153.23-142.61-86.29-419.29-37.35-594,15-53.66,35.88-101.53,51.7-137.3,63.4-143,132.69-262.43,287.78-363.17,44.33-28.5,95.93-44.13,148.12-49.63,18.38-2,23.29-1.67,41.57-2.26Z" transform="translate(5 4.05)"/><path id="path163" class="cls-4" d="M1467,938.69c-.49,0-1,0-1,.5-69.78-146-145.17-290.14-236.77-424.11-48.85-62.31-99.56-125.12-172.2-161-118.43-58.48-227.33-60.35-349.89,5.8C635.61,398.52,567.6,468.2,525.63,539.26c-49,83.15-88.85,136.91-121,242.86-23.39,77.16-35,111.26-41.67,149.5-28.6,163.45-25.85,224.19-10.81,316,9,55,36.66,99.07,72.53,124.33,16.42,11.5,52.19,21.52,59.27,22.7,63.59,10.71,95.83,2.75,157.55-14.35C814.2,1315.62,944.62,1184.9,1001.14,1013c26.14-114.11,31.74-248.57-38.43-348.82,0-.49,0-.49.49-.49,18.08,5.5,32.43,21,41.28,37,27.62,49.73,36.07,131.4,36.07,188.61,0,144.57-16.12,170.33-50.32,256.23-30.37,55.43-57.4,97.79-107.23,150.18-25.26,26.53-86.79,69.29-87.28,69.78-97.3,63.3-222.52,120.11-340.66,93.27-25.26-5.7-49.53-17.88-66.44-33.71-153.23-142.61-86.29-419.29-37.35-594,15-53.66,35.88-101.53,51.7-137.3,63.4-143,132.69-262.43,287.78-363.17,93.08-60.35,226.06-64.18,311.17-31.15,202.47,78.43,302.23,303.5,394.33,482.77,50.81,109.5,50.81,109.5,70.76,156.57" transform="translate(5 4.05)"/></g><g id="g171"><path id="path167" class="cls-4" d="M1207.05,231.63c14.35.09,8.15-.2,18.47.39,6.29,1.47,22.51,2.56,26,14,1.38,4.52,3.93,5.21-16.9,55.63-6.49,15.72-12.78,37.74-20.64,70.37-4.13-1.38-43.64-43.05-67.23-60.74-12.19-9.83-57.4-41.48-68.11-47.38-4.23-2.35,82.26-26.34,82.26-26.34a229.15,229.15,0,0,1,34.7-5.3c3.83-.3,7.66-.4,11.5-.59Z" transform="translate(5 4.05)"/><path id="path169" class="cls-4" d="M1078.59,263.86c-4.23-2.35,82.26-26.34,82.26-26.34s30.86-8,64.67-5.5c6.29,1.47,22.51,2.56,26,14,1.38,4.52,3.93,5.21-16.9,55.63-6.49,15.72-12.78,37.74-20.64,70.37-4.13-1.38-43.64-43.05-67.23-60.74-12.19-9.83-57.4-41.48-68.11-47.38Z" transform="translate(5 4.05)"/></g><g id="g177"><path id="path173" class="cls-4" d="M1050.77,725.61c12.78.2,25.46,2.06,38,4.13,41.28,3.93,44.62,13.37,40.49,15.72-19.26,11.11-17.59,8.85-37.25,25.85-14.54,12.58-36,41.77-36.27,36.47s-3.73-29.59-6.29-44.33-8.25-31.55-9.14-34.69C1039.86,725.32,1049,725.71,1050.77,725.61Z" transform="translate(5 4.05)"/><path id="path175" class="cls-4" d="M1040.35,728.76c1,3.24,6.59,20,9.14,34.69s6,39.12,6.3,44.33,21.81-24,36.26-36.47c19.66-17,18-14.74,37.25-25.85,4.13-2.35.79-11.79-40.49-15.72C1067.19,726.1,1038.68,723.15,1040.35,728.76Z" transform="translate(5 4.05)"/></g></g><g id="Anelli"><path id="Rosso" class="cls-5" d="M1747.23,459.26h5.5l2.65.09h2.26l4.52.1,4.53.1,4.42.2,4.42.19,4.33.3,4.22.29,4.23.3,4.13.39,4,.4,4,.49,3.93.49,3.93.49,3.83.59,3.74.59,3.73.69,3.64.68,3.54.69,3.53.79,3.44.79,3.35.88,3.34.88,3.24.89,3.15,1,3.14,1,3,1.09,3.05,1.08,2.94,1.08,2.85,1.18,2.85,1.18,2.76,1.27,2.65,1.28,2.65,1.28,2.56,1.38,2.46,1.37,2.45,1.48,2.36,1.47,2.26,1.48,2.26,1.57,2.17,1.57,2.06,1.67,2.06,1.67,2,1.67,1.87,1.77,1.86,1.77,1.77,1.87,1.67,1.87,1.68,1.86,1.57,2,1.47,2,1.48,2.07,1.37,2.06,1.28,2.17,1.18,2.16,1.18,2.16,1.08,2.26,1,2.26,1,2.36.88,2.36.79,2.36.78,2.45.69,2.46.59,2.56.59,2.55.3,1.28h0l.19,1.18.4,2.36.39,2.36.29,2.36.3,2.36.29,2.45.2,2.46.2,2.46.19,2.45.1,2.46.1,2.46.1,2.46v10.12l-.1,2.55-.1,2.56-.2,3.83-.39,5.11-.49,5.21-.59,5.21-.69,5.21-.78,5.21L1920,622l-1,5.3-1.08,5.31-1.18,5.31-1.28,5.31-1.38,5.3-1.47,5.31-1.47,5.41-1.58,5.4-1.67,5.41-1.77,5.4-1.77,5.31-1.86,5.31-2,5.31-2,5.3-2.06,5.31-2.06,5.31-2.17,5.31-2.16,5.21-2.26,5.21-2.26,5.2-2.36,5.21-2.36,5.11-2.45,5.12-2.46,5.11-2.46,5-2.55,5-2.56,4.92-2.55,4.91-2.56,4.82-2.65,4.81L1858,783l-2.65,4.72-2.65,4.62-2.66,4.52-2.65,4.52-2.66,4.42-2.65,4.33-2.65,4.32-2.66,4.23-2.65,4.13-2.65,4-2.66,4-2.65,3.94-2.56,3.83-2.55,3.73-2.56,3.64-2.55,3.54-2.46,3.44-1.18,1.67h0l-2.75,3.73-5.5,7.47-5.51,7.38-5.5,7.37-5.61,7.27-5.6,7.27-5.6,7.18-5.6,7.17-5.6,7.08-5.7,7-5.71,7-5.7,6.88-5.7,6.88-5.7,6.78-5.7,6.78-5.7,6.68-5.7,6.69-5.7,6.58-5.7,6.59-5.7,6.48-5.7,6.39-5.7,6.39-5.7,6.29-5.7,6.29-5.7,6.19-5.7,6.2-5.71,6.09-5.7,6.09-5.7,6-5.7,5.9-5.7,5.89-5.7,5.8-5.7,5.8-5.7,5.7-5.7,5.7-5.7,5.6-5.7,5.51-5.6,5.5-5.61,5.41-5.6,5.4-5.6,5.31-5.6,5.31-5.6,5.21-5.51,5.11-5.5,5.11-5.51,5-5.5,5-5.5,4.92-5.41,4.91-5.41,4.82-5.4,4.72-5.31,4.71-5.31,4.62-5.3,4.62-5.31,4.52-5.21,4.53-5.21,4.42-5.11,4.32-5.11,4.33-5.11,4.22-5,4.23-5,4.13-5,4-4.91,4-4.92,3.93-4.81,3.93-4.82,3.83-4.72,3.74-4.72,3.73-4.71,3.64-4.62,3.64-4.62,3.53-4.52,3.54-4.53,3.44-4.42,3.34-4.32,3.35-4.33,3.24-4.22,3.14-4.23,3.15-4.13,3.05-4.13,3-4,3-3.93,2.85-3.93,2.85-3.83,2.75-3.83,2.76-3.74,2.65-3.64,2.56-3.63,2.55-3.54,2.46-3.44,2.46-3.34,2.35-3.34,2.27-3.25,2.26-3.14,2.16-3.15,2.16-3,2.06-3,2-2.85,2-2.85,1.86-2.76,1.77-2.65,1.77-2.56,1.67-2.45,1.67-2.36,1.58-2.36,1.47-2.26,1.47-1.57,1.09-1.08.68-1,.69-1,.69-1,.59-1,.59-1,.59-.88.59-.89.59-.88.59-.89.49-.78.49-.79.49-.79.49-.78.49-.79.5-.69.49-.68.39-.69.39-.69.4-.59.39-.59.39-.59.4-.59.29-.49.3-.49.29-.49.3-.49.29-.4.3-.39.19-.39.2-.4.2-.29.19-.3.2-.29.19-.2.1-.2.1-.19.1-.2.1-.1.1-.09.09h-.1l-8.16,4.92-16.41,9.83-16.52,9.83-16.51,9.73-16.51,9.73-12.38,7.17-8.26,4.82-8.26,4.72-8.15,4.71-8.16,4.72-8.16,4.62-8.06,4.62-8.06,4.62-8,4.52-8,4.52-7.86,4.42-7.77,4.43-7.76,4.32-7.67,4.33-7.57,4.22-5.6,3.15-3.73,2.06-3.74,2.07-3.64,2.06-3.63,2.06-3.64,2.07-3.64,2-3.53,2-3.54,2-3.54,2-3.44,2-3.44,1.86-3.44,1.87-3.44,1.87-3.34,1.87-3.34,1.86-3.35,1.77-3.24,1.77-3.24,1.77-3.15,1.77-3.14,1.77-3.15,1.67-3,1.67-3.05,1.67-3,1.67-3,1.67-2.95,1.58-2.85,1.57L979,1523.1l-2.85,1.57-2.75,1.48-2.75,1.47L968,1529.1l-2.66,1.47-2.55,1.38-2.56,1.37-2.46,1.38-2.45,1.37-2.46,1.28-2.36,1.28-2.36,1.28-2.26,1.18-2.26,1.18-2.16,1.18-2.16,1.18-2.07,1.08-2,1.08-2,1.08-1.87,1-1.86,1-1.77,1-1.77,1-1.67.88-1.67.89-1.58.88-1.47.79-1.47.79-1.38.78-1.38.69-1.27.69-1.18.69-1.18.59-1.08.59-1,.59-1,.49-.88.49-.79.49-.79.39-.69.4-.59.29-.58.3-.5.29-.39.2-.39.19-.3.2-.19.1-.2.1h-.1l-.29.1c-.3.19-.2.09-.4.19a8.06,8.06,0,0,1-1.57.59,7.6,7.6,0,0,1-1.38.49,7.12,7.12,0,0,1-1.47.4,6.57,6.57,0,0,1-1.47.29,4.54,4.54,0,0,1-1.38.2,4.76,4.76,0,0,1-1.57.1h-1.48c-.29,0-.19,0-.29-.1-.59-.1-.3,0-.79-.3s-.39,0-.49-.29-.2,0-.1-.4c-.1-.39-.1-.19.1-.49s0-.09.49-.59a2.35,2.35,0,0,1,.69-.68c.2-.1.1-.1.29-.2l.2-.1h0l.1-.1.1-.1.19-.09.2-.1.3-.2.29-.2.39-.19.4-.2.39-.29.49-.3.49-.29.59-.4.59-.39.69-.39.69-.4.69-.49.78-.49.79-.49.88-.49.89-.59.88-.59,1-.59,1-.59,1.08-.69,1.08-.69,1.08-.68,1.18-.69,1.18-.79,1.18-.78,1.28-.79,1.28-.79,1.37-.78,1.38-.89,1.37-.88,1.48-.89,1.47-.88,1.48-1,1.57-1,1.57-1,1.57-1,1.68-1,1.67-1.08,1.67-1.08,1.77-1.08,1.77-1.08,1.76-1.18L939,1534l1.87-1.18,1.87-1.18,2-1.18,2-1.28,2-1.27,2-1.28,2.06-1.28,2.07-1.28,2.06-1.27,2.16-1.38,2.17-1.38,2.16-1.37,2.16-1.38,2.26-1.37,2.26-1.48,2.26-1.47,2.26-1.48,2.36-1.47,2.36-1.48,2.36-1.47,2.46-1.57,2.45-1.58,2.46-1.57,2.46-1.57,2.46-1.57,2.55-1.58L999,1496l2.55-1.67,2.56-1.67,3.93-2.55,5.31-3.44,5.4-3.44,5.51-3.54,5.6-3.64,5.6-3.63,5.7-3.74,5.8-3.73,5.8-3.84,5.9-3.83,6-3.93,6-3.93,6.09-4,6.09-4,6.2-4.13,6.19-4.13,6.29-4.13,6.29-4.22,6.39-4.23,6.39-4.32,6.48-4.33,6.49-4.32,6.49-4.43,6.58-4.42,6.59-4.42,6.58-4.52,6.59-4.52,6.68-4.52,6.68-4.53,10-6.88,13.37-9.23,13.46-9.34,13.47-9.44,13.46-9.43,13.37-9.54,13.36-9.53,13.27-9.63,13.17-9.63,13.08-9.64,9.73-7.17,6.38-4.82,6.39-4.81,6.39-4.82,6.29-4.82,6.29-4.81,6.19-4.72,6.2-4.72,6.09-4.71,6-4.72,6-4.72,5.9-4.72,5.89-4.72,5.8-4.62,5.7-4.61,5.61-4.62,5.6-4.62,5.5-4.62,5.41-4.52,5.31-4.52,5.2-4.53,5.21-4.42,5.11-4.42,5-4.42,4.91-4.33,4.82-4.32,4.72-4.33,4.61-4.22,4.53-4.23,3.34-3.15,2.16-2.06,2.16-2.06,2.07-2.07,2.06-2.06,2.06-2.07,2.07-2.06,2-2.06,2-2,2-2,1.86-2,1.87-2,1.87-2,1.77-2,1.77-2,1.77-2,1.76-1.87,1.68-1.86,1.67-1.87,1.67-1.87,1.57-1.87,1.57-1.86.79-.89.29-.29,2.17-2,4.22-4,4.23-4,4.22-4,4.13-4,4.13-4,4-4,4-4,6-6.09,5.89-6.09,3.93-4,3.84-4,3.83-4,3.83-4,3.74-4,3.73-4,3.64-4,3.64-4,3.63-4,3.54-4,3.54-4,3.54-4,3.44-3.93,3.44-3.93,3.44-3.94,3.34-3.93,3.34-3.93,3.24-3.93,3.25-3.93,3.24-3.93,3.15-3.93,3.14-3.84,3.15-3.83,3-3.83,3-3.84,3-3.83,3-3.83,2.94-3.84,3-3.73,2.85-3.74,2.85-3.73,2.76-3.74,2.75-3.73,2.75-3.64,2.65-3.63,2.66-3.64,2.65-3.64,2.56-3.63,2.55-3.54,2.56-3.54,2.45-3.54,2.46-3.54,2.46-3.44,2.36-3.44,2.36-3.44,2.35-3.44,2.27-3.34,2.26-3.34,2.26-3.34,2.16-3.24,2.16-3.25,2.16-3.24,2.07-3.15,2.06-3.14,2.07-3.15,2-3.14,2-3,1.86-3.05,1.87-2.94,1.87-3,1.77-3,1.77-2.85,1.77-2.85,1.67-2.85,1.67-2.75,1.67-2.76,1.57-2.75,1.57-2.65,1.58-2.66,1.47-2.55,1.48-2.56,1.47-2.45,1.38-2.46,1.37-2.46,1.38-2.36,1.28-2.36,1.27-2.26,1.28-2.26,1.18-2.16,1.18-2.16,1.18-2.07,1.08-2.06,1.08-2,1.08-2,1.08-2,1-1.86,1-1.77,1-1.77.89-1.67.88-1.67.89-1.58.78-1.57.79-1.47.78-1.48.69-1.37.69-1.38.69-1.28.59-1.28.59-1.17L1782,757l.49-1.08.49-1,.49-1,.4-.89.39-.78.39-.79.3-.69.29-.69.3-.59.19-.49.2-.49.2-.39.19-.3.1-.29.1-.2.1-.1v-.29l.1-.2.09-.19.1-.3.1-.29.2-.4.19-.39.2-.49.2-.49.19-.59.3-.59.29-.69.3-.69.29-.78.3-.79.29-.89.4-.88.39-1,.39-1,.39-1,.4-1.08.39-1.08.39-1.18.4-1.18.49-1.18.49-1.28.49-1.27.49-1.28.49-1.38.5-1.37.49-1.48.49-1.47.49-1.48.49-1.57.79-2.36,1.08-3.24,1.08-3.34,1.08-3.44,1.08-3.54,1.08-3.64,1.08-3.73,1.09-3.84,1.08-3.93,1.08-4,1.08-4.13,1-4.12,1-4.23,1-4.23.88-4.32.89-4.33.78-4.42.79-4.42.69-4.42.69-4.53.59-4.52.59-4.52.49-4.52.39-4.52.29-4.52.2-4.52.2-4.42.1-4.43v-4.42l-.1-4.42-.2-3.25-.2-2.16-.19-2.16-.2-2.16-.19-2.17-.3-2.16-.29-2.06-.3-2.07-.39-2.06-.4-2.06-.39-2.07-.49-2.06-.49-2-.49-2-.59-2-.59-2-.59-2-.69-1.87-.69-1.87-.69-1.86-.78-1.87-.79-1.77-.79-1.77-.88-1.77-.88-1.77-1-1.67-1-1.67-1-1.67-1.08-1.57-1.09-1.57-1.17-1.58-1.18-1.47-.59-.79-.89-1-1.77-2.06-1.77-2.07-1.86-2-2-2-2-2-2.06-2-2.16-1.87-2.16-1.87-2.26-1.86-2.36-1.77-2.46-1.77-2.56-1.77-2.65-1.67-2.75-1.67-2.85-1.67-2.16-1.18-1.48-.79-1.47-.79-1.58-.78-1.57-.79-1.57-.78-1.67-.79-1.67-.69L1750,495l-1.77-.69-1.77-.68-1.77-.69-1.77-.69-1.87-.69-1.86-.69-1.87-.58-2-.59-2-.59-2-.59-2.06-.59-2.07-.59-2.16-.59-2.16-.59-2.16-.49-2.26-.5-2.27-.49-2.26-.49-2.35-.49-2.36-.49-2.46-.49-2.46-.4-2.55-.39-1.28-.2h0l-1.28-.19-2.55-.4-2.56-.39-2.46-.39-2.36-.39-2.26-.3-2.26-.29-2.16-.3-2.06-.29-2.07-.3-2-.29-1.87-.2-1.87-.2-1.77-.19-1.77-.2-1.67-.2-1.57-.19-1.57-.2-1.48-.1-1.47-.1-1.38-.09-1.27-.1-1.28-.1-1.18-.1-1.18-.1-1.08-.1-1.08-.09h-10.52l-.2.09h-.29c-2.26.4-5.6,1.38-7.67,0-.1-.09-.1-.29-.19-.39-.1-.69.88-1.67,2.55-2.55h0l.69-.3,1-.49,1.18-.49,1.28-.4,1.38-.39,1.27-.29,1.28-.3h.2l.39-.1.79-.19.88-.2.89-.2,1-.19,1.08-.2,1.08-.2,1.18-.19,1.18-.3,1.28-.29,1.37-.3,1.38-.29,1.47-.3,1.48-.29,1.57-.3,1.57-.29,1.67-.3,1.68-.29,1.76-.3,1.77-.29,1.87-.3,1.87-.29,2-.3,2-.29,2.06-.3,2.07-.29,2.06-.29,2.16-.3,2.17-.29,2.26-.3,2.26-.29,2.26-.3,2.36-.29,2.36-.3,2.35-.29,2.46-.3,2.46-.2,3.73-.29,5-.39,5.11-.4,5.21-.29,5.3-.3,5.41-.19,5.41-.1Zm-105.86,17.49Z" transform="translate(5 4.05)"/><path class="cls-2" d="M893.51,1572l-.51,0h-1.65a5.8,5.8,0,0,1-1.92-.32,5.91,5.91,0,0,1-4.8-5.8,5.06,5.06,0,0,1,.71-2.83,5,5,0,0,1,1.33-1.71,5.77,5.77,0,0,1,1-1l.72-.53h0l.29-.29,3.43-2,1.37-.9,1.16-.66.74-.52,15.7-9.83,1.26-.72,2.77-1.78,2.85-1.71,1.5-1,13.22-8.23,1.79-1.19,5.7-3.59,1.89-1.14,5.92-3.84,17.07-10.7,6.71-4.37,22-13.9,16.87-11,10.92-7,22.7-14.74,5.75-3.8,17.9-11.7,30.86-20.45,6.25-4.19,6.42-4.25,6.34-4.29,13-8.67,6.44-4.4,13.2-8.86,13.13-9,13.39-9.06,10-6.86,26.81-18.56,26.91-18.86,26.7-19,13.24-9.61,13.15-9.62,22.79-16.8,19.12-14.41,31-23.75,12-9.41,23.24-18.63,11.17-9.21,16.15-13.61,5.18-4.49,5.25-4.46,5.07-4.39,9.9-8.72,4.78-4.29,9.3-8.52,12.07-11.39,8.17-8.17,2-2.11,3.88-3.89,5.52-5.8,5.35-5.94,1.72-1.81,4.91-5.5,4.64-5.33,2.12-1.93,12.63-12.05,8.22-8,8-8,6-6.07,21.27-22.15,7.43-8,10.86-12,20.88-23.83,6.64-7.81,9.68-11.73,3.1-3.88,6.33-7.71,9.09-11.44,5.85-7.6,3-3.79,5.65-7.4,5.45-7.41,2.79-3.68,7.91-10.84,2.5-3.57,5.15-7.13,4.86-7,2.5-3.49L1708.59,872l12.61-19.07,1.93-3.09,2-3.06,1.84-3,3.74-5.91,1.74-2.89,3.55-5.72,1.63-2.79L1741,821l7.64-13.13,1.48-2.46,11.44-20.44,9.07-16.76.83-1.46,10.88-22.33.11-.34.72-1.57.26-.79.88-1.91,1-2.63,1.47-3.58,1.63-4.66,1.89-4.83,2.41-7,1.28-3.93,2.14-6.54,2.14-6.9,2.14-7.3,2.15-7.7,2.13-8,2.91-12.43,1.75-8.52,1.55-8.73,1.35-8.83,1.17-8.93.48-4.42.38-4.41.29-4.41.39-8.84.1-4.31v-4.31l-.1-4.28-.18-3.07-.77-8.46-.85-6-1.14-6-1.41-5.72-1.69-5.64-2-5.35-2.23-5.1-1.64-3.29-2.77-4.71-2-2.92-1.07-1.42-1.68-2.15-.81-.91-3.46-4-1.74-1.83-3.84-3.84-1.93-1.84-4.19-3.62-2.13-1.75-2.26-1.7-2.38-1.71-2.39-1.66-2.56-1.61-5.41-3.22-4.94-2.66-6.11-3-10.21-4-3.54-1.3-7.59-2.31-8.22-2.29-13.47-2.91-2.33-.46-17.34-2.73L1664,481.83l-11.15-.86h-9.11l-.2.09h-1l-.57.12c-2.72.54-6.85,1.36-10.32-1l-.41-.27-.35-.35a5.1,5.1,0,0,1-.75-1l-.63-.62-.23-1.65c-.25-1.72.1-5,5.16-7.68l2.09-1,1.63-.65,3-.88,6.83-1.51,3.3-.58,5.18-1.17,9.62-1.81,17.55-2.67,21-2.69,16.43-1.29,10.53-.59,5.5-.2,5.91-.11,4.67.7h5.31l2.57.09h2.27l9.16.2,9,.4,12.91.89,8.29.8,12,1.5,7.71,1.2,11.09,2.1,7.17,1.62,10.14,2.72,6.47,2,9.29,3.34,5.89,2.44,8.33,4,5.21,2.86,2.46,1.48,2.43,1.52,2.47,1.61,2.35,1.63,2.36,1.73,4.22,3.42,2.17,1.85,3.93,3.73,1.86,2,3.52,3.95,1.67,2.09,1.54,2.06,1.57,2.2,1.52,2.29,1.36,2.31,2.48,4.56,1.16,2.43,2.06,4.85.94,2.54,1.65,5.05.74,2.68,1.54,6.69,1,6.1.91,7.39.6,7.57.3,7.58V582l-.4,9.14-.39,5.11-.5,5.29-.6,5.3-.7,5.31-.8,5.3-.9,5.38-1,5.4-1.09,5.39-1.2,5.39-1.3,5.4-1.4,5.39-3,10.77-1.6,5.49-1.69,5.49-3.57,10.81-1.9,5.39-4,10.69-4.15,10.69-4.37,10.62-4.55,10.5-4.77,10.42L1878,756l-7.72,15-2.57,4.85-8,14.36-8,13.74-2.68,4.46-5.33,8.7-2.68,4.27-2.68,4.17-5.34,8.1-7.81,11.58-2.6,3.69-9,12.47-5.5,7.47-11,14.77-11.25,14.6-11.22,14.38-5.62,7.1-11.45,14-11.43,13.79-11.42,13.59-11.42,13.39-11.43,13.2-5.73,6.51L1694.64,1007l-11.43,12.61L1671.78,1032l-11.42,12.22-5.73,6-11.43,11.83-11.43,11.63-11.43,11.43-5.74,5.63-5.73,5.53-5.57,5.48-11.24,10.84-11.23,10.65-16.65,15.46-11,10.06-5.54,5-5.38,4.88-5.44,4.85-5.44,4.75-5.28,4.69-10.65,9.27-5.35,4.56-5.17,4.49-15.48,13.11-5.16,4.27-5,4.19-5.06,4.17-5.06,4.07-4.87,4-5,4-4.77,3.9-14.31,11.35-4.77,3.68-4.58,3.61-4.67,3.57-4.48,3.51-17.68,13.43-20.78,15.37-19.32,13.9-17.69,12.45-3.34,2.26-9.5,6.56-8.94,6.06L1308.77,1339l-2.36,1.47-12.7,8.29-4.47,2.73-1,.68L1282,1356l-.36.26-2.52,1.42-1.09,1.08h-.78l-7,4.2-16.43,9.84-16.52,9.83-33,19.47-20.66,12-64.82,37.08-62.7,35.24-14.2,7.83-3.48,2-26.83,14.64-6.34,3.57L993,1521.1l-3,1.69L973,1532l-15.39,8.48-18,9.6L919,1561.29l-2.44,1.26-1.39.8-2,1.05-1.23.72-1.56.82-1.09.65-5.69,3h-.23a8.7,8.7,0,0,1-1.13.43l-.53.18a2.11,2.11,0,0,0-.33.13,7.28,7.28,0,0,1-1.19.41,8.11,8.11,0,0,1-1.23.35l-.53.12-.52.13a7.58,7.58,0,0,1-1.26.24,6.5,6.5,0,0,1-1.33.21l-.32,0A8.46,8.46,0,0,1,893.51,1572Zm-6.33-1.46h0Zm-1.24-8.33-.08.1A.39.39,0,0,0,885.94,1562.17Zm5.54-.33h0Zm-4.37-.9-.23.16Zm66.19-30.08-5.34,3.47,37.3-20.33,12.1-6.68,3.15-1.68,12.78-7.08,3.35-1.77,31-17.18,3.64-2,10.86-6.16,20.67-11.52,47-26.52,48.84-28,20.61-12,33-19.44,40.76-24.38.2-.19.74-.37,20.24-12.4,2-1.4,1-.64,1.6-1.09,2.26-1.48,2.37-1.48,10-6.65,5.59-3.63,2.8-1.93,6-4.05,16.14-11.15,3.41-2.44,14.56-10.23,19.5-14.11,21-15.59,4.26-3.3,9-6.81,4.47-3.49,4.66-3.57,4.56-3.6,4.76-3.67,14.19-11.25,4.77-3.89,5-4,4.87-4,5.05-4.06,5-4.09,5-4.19,5.15-4.26,15.38-13,5.17-4.48,5.34-4.55,10.58-9.21,5.27-4.68,5.44-4.75,5.36-4.78,5.37-4.88,5.54-5,11-10L1574,1116l11.17-10.59,11.17-10.78,5.57-5.47,5.74-5.53,5.66-5.57,11.38-11.37L1636,1055.1l11.37-11.77,5.67-6,11.37-12.16,11.38-12.36,11.37-12.55,11.38-12.75,5.67-6.45L1715.63,968,1727,954.62l11.38-13.54,11.37-13.73,11.38-13.93,5.56-7,11.18-14.32,11.19-14.52,11-14.69,9.36-12.76L1817,839.5l2.52-3.68,10.46-15.75,2.63-4.09,2.62-4.18,5.28-8.6,5.26-8.86,5.28-9.1,7.92-14.18,7.61-14.54,2.54-5,7.32-15.13,4.67-10.22,4.49-10.34,4.28-10.42,4.09-10.54,3.91-10.54,1.84-5.23,3.5-10.61,1.65-5.32,1.54-5.33,2.94-10.65,1.35-5.23,1.26-5.22,1.16-5.22,1.06-5.22,1-5.22.87-5.22.78-5.14.67-5.11.58-5.12.48-5.12.38-5,.39-8.72v-9.93l-.29-7.17-.57-7.17-.86-7-.94-5.64-1.41-6.13-.64-2.26-1.49-4.58-.82-2.19-1.87-4.38-1-2.06-2.26-4.14-1.16-2-1.26-1.88-1.39-1.95-1.4-1.86-1.43-1.8-3.2-3.57-1.63-1.72L1892.1,501l-1.82-1.55-4-3.22-2-1.47-2.15-1.5-2.2-1.43-4.59-2.81-4.77-2.62-7.8-3.71-5.51-2.28-8.81-3.16-6.11-1.91-9.72-2.6-6.8-1.53-10.73-2-7.42-1.16-11.75-1.45-8-.78-12.64-.87-8.74-.39-13.88-.29h-5.78l-4.58-.68-5,.09-5.31.19-10.37.58-16.15,1.27-26.62,3.51-15.51,2.54,1.76.13,25.07,3.17,17.65,2.78,14,3,2.41.55,8.51,2.38,8.12,2.47,10.9,4.16,3.66,1.51,6.61,3.26,5.29,2.85,2.85,1.67,2.81,1.71,2.91,1.84,2.56,1.77,2.53,1.82,2.62,2,2.34,1.94,4.51,3.9,2.15,2,4,4,2,2.16,4.63,5.36.54.73,1.23,1.53,1.29,1.74,2.36,3.45,3.11,5.31,1.86,3.74,2.49,5.71,2.16,5.89,1.83,6.12,1.53,6.28,1.22,6.42.91,6.54.8,8.8.21,3.44.1,4.53V603l-.1,4.54-.4,9-.3,4.63-.4,4.63-.51,4.63-1.19,9.15-1.4,9.06-1.59,9-1.8,8.78-3,12.71-2.17,8.19-2.18,7.82-2.18,7.44-2.19,7.06-6,18-2.28,6L1796,737.2,1791.64,748v1.26l-.77.83-.37.56-1.36,3.1-9,17.8-4.58,8.39-5.36,9.92-6.08,10.89-1.31,2.42-13.32,23-10.37,17.08-3.73,5.9-1.89,3.08-2,3.05-2,3.18-12.7,19.19L1703,898l-2.51,3.52-4.88,7-5.16,7.15-2.52,3.59-8,11L1677.1,934l-5.46,7.42-5.75,7.53-3,3.8-5.86,7.62-9.19,11.56-6.34,7.73-3.1,3.88-9.78,11.85-6.73,7.92-21,24-11,12.14-7.51,8.11-11.54,12.13L1555,1075.87l-8.08,8.09-8.3,8.1-12.81,12.21-2.18,2-.65.73-3.2,3.79-5.11,5.71-1.73,1.83-5.35,5.94-5.69,6-3.89,3.89-2,2.11-8.33,8.33-7.7,7.3-4.53,4.24-9.37,8.58-4.86,4.36-10,8.78-5.14,4.45-5.25,4.46-5.17,4.48-5.34,4.55-10.94,9.17-11.24,9.26-5.73,4.65-29.64,23.53-6.12,4.75-44.18,33.55-22.85,16.84-13.19,9.64-13.28,9.65-26.77,19.09-27,18.89-26.86,18.6-10,6.89-13.39,9.06-13.14,9-13.22,8.87-6.45,4.41-13,8.68-6.36,4.3-6.43,4.26-6.26,4.2-6.34,4.16-24.56,16.31-23.68,15.53-5.85,3.76-16.89,11L999,1501.9l-4.94,3.1-23.78,15.2-2.22,1.35Z" transform="translate(5 4.05)"/><path id="Bianco" class="cls-4" d="M1664.76,326l5.31.1,2.56.1h2.26l4.42.1,4.42.19,4.33.2,4.22.2,4.23.29,4.13.3,4.13.39,4,.39,3.93.39,3.93.5,3.83.49,3.83.59,3.74.59,3.64.68,3.63.69,3.54.69,3.44.79,3.44.78,3.34.89,3.34.88,3.25,1,3.14,1,3.15,1,3,1.08,3,1.08,3,1.18,2.85,1.18,2.75,1.28,2.76,1.28,2.65,1.28,2.65,1.37,2.56,1.38,2.46,1.47,2.45,1.48,2.36,1.57,2.26,1.57,2.26,1.57,2.17,1.67,2.06,1.68,2.06,1.76,2,1.77,1.87,1.87,1.86,1.87,1.77,1.87,1.67,2,1.68,2,1.57,2.06,1.47,2.07,1.48,2.16,1.37,2.16,1.28,2.16,1.28,2.26,1.18,2.26,1.08,2.36,1.08,2.36,1,2.46.89,2.46.88,2.55.79,2.56.69,2.55.68,2.66.59,2.65.49,2.75.2,1.38h0l.2,1.27.39,2.56.39,2.56.3,2.55.29,2.56.3,2.55.2,2.56.19,2.65.2,2.65.1,2.66.1,2.65.09,2.66V456.7l-.09,2.75-.1,2.75-.2,4.13-.39,5.51-.49,5.5-.59,5.6-.69,5.61-.79,5.6-.88,5.6-1,5.7-1.08,5.7-1.18,5.7-1.18,5.7-1.27,5.7-1.38,5.7-1.47,5.7-1.58,5.7-1.57,5.71-1.67,5.7-1.77,5.7-1.77,5.7-1.87,5.7-2,5.7-2,5.7-2.06,5.6-2.06,5.6-2.17,5.61-2.16,5.6-2.26,5.5-2.26,5.51-2.36,5.5-2.36,5.41-2.36,5.4-2.45,5.41-2.46,5.3-2.46,5.31-2.46,5.21-2.55,5.21-2.56,5.11-2.55,5-2.56,5-2.55,4.91-2.56,4.91-2.55,4.82-2.56,4.72-2.55,4.62-2.56,4.62-2.56,4.52-2.55,4.42-2.56,4.33-2.55,4.22-2.56,4.13-2.55,4.13-2.46,4-2.46,3.93-2.45,3.83-2.46,3.74-1.18,1.77h0l-2.65,4-5.31,8-5.41,7.86-5.4,7.86-5.41,7.77-5.4,7.76-5.41,7.67-5.5,7.57-5.51,7.56-5.5,7.47-5.51,7.47-5.5,7.37-5.5,7.38-5.51,7.27-5.6,7.17-5.6,7.18-5.6,7.08-5.61,7.07-5.6,7-5.6,6.88-5.6,6.88-5.61,6.78-5.6,6.78-5.6,6.69-5.6,6.58-5.6,6.59-5.61,6.48-5.6,6.49-5.6,6.39-5.6,6.29-5.61,6.29-5.6,6.19-5.5,6.19-5.51,6.1-5.5,6-5.5,6-5.51,5.9-5.5,5.89-5.51,5.8-5.5,5.7-5.41,5.7-5.4,5.61-5.41,5.6-5.4,5.5-5.41,5.41-5.31,5.4-5.3,5.31-5.31,5.31-5.31,5.21-5.21,5.11-5.21,5.11-5.21,5-5.2,4.92-5.12,4.91-5.11,4.82-5.11,4.81-5,4.72-5,4.62-5,4.62-4.92,4.52-4.91,4.42-4.92,4.43-4.81,4.32-4.82,4.32-4.72,4.23-4.72,4.13-4.71,4.13-4.62,4-4.62,3.93-4.52,3.93-4.52,3.83-4.43,3.84-4.42,3.73-4.32,3.64-4.33,3.63-4.23,3.54-4.22,3.44-4.13,3.44-4.13,3.34-4,3.25-3.93,3.24-3.93,3.15-3.83,3-3.84,3-3.73,3-3.64,3-3.63,2.85-3.54,2.75-3.54,2.75-3.44,2.65-3.34,2.56-3.34,2.56-3.25,2.45-3.14,2.36-3,2.36-3,2.26-3,2.16-2.85,2.17-2.75,2.06-2.75,2-2.65,2-2.56,1.87-2.46,1.77-2.45,1.77-2.36,1.67-2.26,1.57-1.67,1.18-1.08.79-1.09.78-1,.69-1,.69-1,.69-1,.68-1,.69-.88.69-.89.59-.88.59-.89.59-.78.59-.79.59-.79.59-.78.49-.79.49-.69.49-.69.49-.68.5-.69.39-.59.39-.59.39-.59.4-.59.39-.49.39-.49.3-.49.29-.5.3-.39.29-.39.3-.4.29-.39.2-.29.2-.3.19-.29.2-.3.2-.2.19-.19.1-.2.1-.19.1-.1.1-.1.09h-.1l-8,5.21-15.92,10.52-16,10.42-16.12,10.42-16.12,10.32-12.09,7.66-8.06,5.11-8,5.11-8,5-8,5-7.87,5-7.86,4.92-7.86,4.91-7.77,4.82-7.76,4.81-7.67,4.72-7.57,4.72-7.56,4.62-7.47,4.62-5.51,3.44-3.63,2.26-3.64,2.26-3.64,2.26-3.63,2.16-3.54,2.16-3.54,2.17-3.54,2.16L986,1419.9l-3.44,2.16-3.44,2.07-3.44,2.06-3.34,2.06-3.34,2.07-3.34,2.06-3.34,2-3.25,2-3.24,2-3.24,2-3.15,2-3.14,1.87-3.15,1.87-3,1.86-3,1.87-3,1.77-3,1.77-2.95,1.77-2.85,1.77-2.85,1.67-2.85,1.67-2.75,1.67-2.75,1.67-2.65,1.57-2.66,1.58-2.65,1.57-2.56,1.57L901,1471.2l-2.46,1.48-2.46,1.47-2.36,1.48-2.36,1.37-2.26,1.38-2.26,1.38-2.16,1.27-2.16,1.28-2.06,1.28-2.07,1.18-2,1.18-2,1.18-1.87,1.08-1.87,1.08-1.76,1.08-1.77,1.08-1.67,1-1.68,1-1.57,1-1.57.88-1.47.89-1.38.79-1.38.78-1.27.79-1.28.69-1.18.68-1.08.69-1.08.59-1,.59-1,.59-.88.49-.79.49-.79.4-.68.39-.59.39-.59.3-.5.29-.39.2-.39.2-.3.19-.19.1-.1.1h-.1l-.29.1a1.32,1.32,0,0,1-.4.19,5.16,5.16,0,0,1-1.47.59,3.81,3.81,0,0,1-1.38.5,6.31,6.31,0,0,1-1.47.39c-1.18.29-.69.2-1.48.39a4.65,4.65,0,0,1-1.47.2,5.11,5.11,0,0,1-1.57.2h-2a1.55,1.55,0,0,1-.88-.3c-.59-.2-.5,0-.59-.29-.3-.1-.2,0-.2-.4-.2-.39-.2-.19,0-.49,0-.29,0-.1.39-.59s.1-.29.59-.69c.1-.1,0-.1.3-.19l.19-.1h0l.1-.1.1-.1.2-.1.19-.09.3-.2.29-.2.3-.19.39-.3.39-.29.5-.3.49-.29.59-.4.59-.39.59-.39.68-.49.69-.5.79-.49.79-.49.78-.59.89-.59.88-.59,1-.59,1-.69,1-.68,1.08-.69,1.08-.79,1.08-.78,1.18-.79,1.18-.79,1.28-.88,1.28-.89,1.27-.88,1.38-.89,1.38-.88,1.37-1,1.48-1,1.47-1,1.48-1,1.57-1.08,1.57-1.08,1.57-1.08,1.67-1.09,1.68-1.18,1.67-1.17,1.77-1.18,1.76-1.18,1.77-1.18,1.77-1.28,1.87-1.28,1.87-1.28,1.86-1.27,2-1.38,2-1.38,2-1.37,2-1.38,2.06-1.37,2.07-1.48,2.06-1.47,2.16-1.48,2.16-1.47,2.17-1.48,2.16-1.57,2.26-1.57,2.26-1.57,2.26-1.58,2.26-1.57,2.36-1.67,2.36-1.67,2.36-1.67,2.36-1.67,2.45-1.67,2.46-1.67,2.46-1.77,2.46-1.77,2.45-1.77,2.56-1.77,3.83-2.65,5.21-3.64,5.21-3.74,5.31-3.73,5.4-3.83,5.51-3.93,5.5-3.94,5.6-4,5.7-4,5.7-4.12,5.8-4.13,5.9-4.23,5.9-4.22,6-4.33,6-4.32,6.09-4.43,6.1-4.42,6.19-4.52,6.19-4.52,6.29-4.62,6.29-4.62,6.29-4.62,6.39-4.72,6.39-4.71,6.39-4.72,6.38-4.82,6.49-4.81,6.49-4.82,6.48-4.91,9.74-7.38,13.07-9.92,13.07-10,13.07-10,13.07-10.13,13.08-10.12,13-10.22,12.87-10.22,12.78-10.23,12.68-10.22,9.44-7.66,6.29-5.11,6.19-5.12L1266,1184l6.09-5.11,6.1-5.11,6-5.11,6-5.11,5.9-5.11,5.89-5,5.8-5,5.8-5,5.7-5,5.6-5,5.61-4.92,5.5-4.91,5.41-4.92,5.3-4.91,5.31-4.82,5.21-4.81,5.11-4.82,5-4.81,4.92-4.72,4.81-4.72,4.72-4.72,4.72-4.62,4.62-4.62,4.52-4.52,4.42-4.52,3.25-3.34,2.06-2.26,2.06-2.26,2.07-2.16,2.06-2.17,2-2.16,2-2.16,2-2.16,1.87-2.16,1.86-2.17,1.87-2.16,1.87-2.06,1.77-2.07,1.77-2.06,1.77-2.07,1.67-2.06,1.67-2.06,1.67-2.07,1.57-2.06,1.57-2,1.58-2,1.47-2,.79-1c.09-.1.19-.2.19-.3l2.07-2.16,4.12-4.32,4.13-4.33,4-4.32,4-4.33,4-4.32,5.9-6.49,7.76-8.65,5.7-6.48,3.84-4.33,3.73-4.32,3.74-4.33,3.63-4.32,3.64-4.33,3.64-4.32,3.54-4.33,3.53-4.32L1517,929l3.44-4.22,3.44-4.23,3.44-4.23,3.34-4.22,3.35-4.23,3.34-4.23,3.24-4.22,3.24-4.23,3.25-4.22,3.14-4.23,3.15-4.13,3.14-4.13,3-4.12,3.05-4.13,2.94-4.13,3-4.13,3-4,2.85-4,2.85-4,2.85-4,2.75-4,2.76-4,2.75-3.93,2.65-3.93,2.66-3.93,2.65-3.93,2.56-3.84,2.55-3.83,2.56-3.83,2.45-3.83,2.46-3.84,2.46-3.73,2.36-3.74,2.36-3.73,2.35-3.64,2.26-3.64,2.27-3.63,2.26-3.64,2.16-3.54,2.16-3.54,2.16-3.53,2.07-3.44,2.06-3.44,2.06-3.44,2-3.35,2-3.34,2-3.34,1.87-3.24,1.87-3.25,1.86-3.24,1.77-3.14,1.77-3.15,1.77-3,1.67-3,1.67-3,1.67-3,1.58-2.95,1.57-2.85,1.57-2.85,1.48-2.85,1.47-2.75,1.47-2.75,1.38-2.66,1.38-2.65,1.37-2.55,1.28-2.56,1.28-2.46,1.28-2.45,1.18-2.36,1.17-2.36,1.18-2.26,1.09-2.26,1.08-2.17,1.08-2.16,1.08-2.06,1-2.07,1-2,1-2,.88-1.86.89-1.87.88-1.77.79-1.77.78-1.67.79-1.57.69-1.58.69-1.47.68-1.48.59-1.37.59-1.28.59-1.28.59-1.18.49-1.18.5-1.08.49-1,.39-1,.39-.89.4-.78.29-.79.3-.69.29-.59.2-.59.19-.49.2-.39.2-.39.1-.3.09-.2.1-.09v-.3l.1-.2.1-.19.1-.3.1-.29.19-.4.2-.49.19-.49.2-.59.2-.59.19-.69.3-.68.29-.79.3-.79.29-.88.3-.89.29-1,.4-1,.39-1.08.39-1.08.4-1.18.39-1.18.39-1.18.4-1.28.39-1.28.49-1.37.49-1.38.49-1.37.49-1.48.5-1.47.49-1.58.49-1.57L1712,603l.49-1.67.79-2.56,1.08-3.44,1.08-3.54,1.08-3.73,1.08-3.83,1.08-3.93,1.09-4,1.08-4.13,1.08-4.23,1.08-4.32,1-4.33,1-4.42,1-4.52.88-4.52.89-4.62.88-4.62.79-4.72.78-4.72.69-4.72.69-4.81.59-4.82.49-4.81.49-4.82.4-4.82.29-4.81.2-4.82.09-4.81.1-4.72v-4.72l-.1-4.72-.19-3.53-.1-2.36-.2-2.26-.19-2.26-.2-2.27-.29-2.26-.3-2.26-.29-2.26-.3-2.16-.39-2.16-.4-2.16-.39-2.17-.49-2.16-.49-2.16-.49-2.06-.59-2.07-.59-2.06-.59-2.07-.69-2-.69-2-.69-2-.78-2-.79-1.87-.88-1.86-.89-1.87-.88-1.77-1-1.77-1-1.77-1.08-1.67-1.08-1.67-1.08-1.67-1.18-1.67-.59-.79-.79-1.08-1.67-2.16-1.77-2.16-1.86-2.07-1.87-2.06-2-2.07-2-2-2.07-2-2.16-2-2.26-1.87-2.26-1.87-2.36-1.87-2.46-1.77-2.55-1.76-2.66-1.77-2.75-1.67-2.85-1.68-3-1.67-2.26-1.18-1.57-.78-1.57-.79-1.57-.78-1.68-.79-1.67-.79-1.67-.78-1.77-.69-1.77-.69-1.76-.69-1.87-.69-1.87-.68-1.87-.69-2-.69-2-.69-2-.69-2.07-.68-2.06-.59-2.07-.59-2.16-.59-2.16-.59-2.16-.59-2.26-.59-2.26-.59-2.36-.59-2.36-.59-2.36-.49-2.46-.49-1.28-.3h0l-1.27-.29-2.46-.49-2.36-.5-2.36-.49-2.26-.39-2.16-.39-2.16-.4-2.07-.39-2.06-.39-2-.3-2-.29-1.87-.3-1.87-.29-1.77-.3-1.77-.19-1.67-.2-1.67-.2-1.57-.19-1.57-.2-1.48-.2-1.47-.1-1.38-.09-1.37-.1-1.28-.1-1.28-.1-1.18-.1-1.18-.1-1.08-.09h-11.6l-.78.09-.59.1h-1.18c-4.23,1-7.57.69-7.47-.68.1-1.18,2.55-2.66,5.9-3.74h0l.59-.2.78-.19.89-.2,1-.2.49-.09h.2l.59-.1.68-.1.79-.2.79-.19.88-.2,1-.2,1-.19,1.08-.2,1.18-.2,1.18-.19,1.28-.3,1.37-.29,1.38-.3,1.47-.29,1.48-.3,1.57-.29,1.67-.3,1.67-.29,1.77-.3,1.77-.29,1.87-.3,1.86-.29,2-.3,2-.29,2-.3,2.06-.29,2.07-.3,2.16-.29,2.16-.3,2.16-.29,2.27-.3,2.26-.29,2.36-.3,3.53-.39,4.82-.49,4.91-.49,5-.49,5.11-.4,5.21-.39,5.21-.29,5.3-.2,5.31-.2,5.41-.1Z" transform="translate(5 4.05)"/><path class="cls-2" d="M832.78,1513.46H830.4l-.56-.1a5.13,5.13,0,0,1-1.63-.47,4.92,4.92,0,0,1-2.2-1.19,5.07,5.07,0,0,1-1.81-3.1,5,5,0,0,1,.27-3.55,5.07,5.07,0,0,1,1-1.66,5.25,5.25,0,0,1,1.16-1.32,5.71,5.71,0,0,1,1-.77l.2-.2,1.35-.76,1.1-.79,2.49-1.6,1.56-1.1,1.4-.88.84-.62,6.71-4.5,1.25-.91,8.91-6,1.41-1,10.78-7.26,3.37-2.38,5.23-3.48,1.8-1.3,17.51-12.13,2.15-1.53,6.43-4.38,2.18-1.59,42.36-29.68,5.16-3.7,21.72-15.43,5.59-4,5.74-4.06,5.65-4.09,29.59-21.24,43.41-31.72,19.16-14.15,6.34-4.78,13-9.66,29.24-22.18,26.13-20,26.12-20.23,12.94-10.2,12.87-10.21,12.76-10.21,28.37-23,12.36-10.19L1275,1170l12-10.19,5.87-5.09,5.93-5,11.57-10,5.67-5,5.57-5,5.64-5,5.47-4.88L1338,1115l5.28-4.88,5.34-4.85,5.18-4.78,5.07-4.79,9.89-9.5,4.78-4.68,4.69-4.68,4.75-4.66,9.1-9.1,7.56-7.76,4.16-4.54,4.08-4.28,5.81-6.4,5.64-6.52,1.83-2,5.21-6.09,4.93-6.08,1.6-2.09,3.09-3.87,1.41-1.89v-.3l11.71-12.26,12-12.93,5.86-6.44,7.74-8.63,16.94-19.39,10.87-12.92,7-8.6,3.58-4.27,10.27-12.62,10-12.63,9.69-12.62,3.1-4.17,6.33-8.3,6-8.19,5.85-8.19,3-4.08,8.5-12,5.46-8,2.78-4,15.57-23.2,4.86-7.59,2.49-3.78,4.67-7.39,2.39-3.69,13.2-21.41,12-20.27,10.87-19L1660,707l15.86-30.54,3.25-6.58,1.07-2.06,7.91-16.4,3.89-8.57.51-1,1.06-2.41.4-.8.88-2.06.28-.55,1.55-3.69v-.2l1.29-3,.69-2.12.77-2,1-2.93,1.1-2.94,5.85-17.73,1.27-4.21,2.16-7,2.13-7.46,2.15-7.9,3.2-12.54,2.92-13.12,2.63-13.63,1.55-9.33,1.36-9.42.58-4.72,1-9.53.39-4.71.29-4.72.19-4.71.19-9.43v-4.62l-.09-4.58-.29-5.76-.57-6.57-1.15-8.69-1.14-6.28-1.41-6.12-1.7-5.94-2-5.66-1.45-3.54-2.52-5.22-1.83-3.29L1712,408l-2.42-3.34-1.58-2.05-1.65-2-3.61-4-1.87-2-1.88-1.88-2-1.89-2-1.85-4.39-3.62-2.22-1.77-2.37-1.7-2.48-1.71-2.49-1.66-2.66-1.62-5.6-3.22-6.77-3.44-4.8-2.25-10.67-4-7.7-2.66-10.46-2.91-9-2.31-14.36-3-19.9-3.39-9.55-1.16-10-.76-11.43,0-.9.15h-1c-5.06,1.09-8.75.68-11-1.21a5.77,5.77,0,0,1-2-4.83c.3-3.56,3.35-6.2,9.35-8.14l.91-.29,3.87-.83.57-.05.43-.06,4.41-1,3.44-.59,7-1.47,8.62-1.5,20.39-3,6.93-.9,8.47-.89,10-1,10.33-.78,5.3-.31,10.72-.39,5.68-.11,5.3.3,14.58.3,13.1.6,8.48.6,12.24,1.19,7.9,1,7.74,1.2,11,2.11,7,1.61,6.85,1.82,9.76,3,6.18,2.23,6,2.47,8.35,3.93,5.48,2.9,5.12,3.08,2.36,1.57L1802,354l2.25,1.74,2.17,1.76,2.16,1.85,2.16,1.95,3.82,3.83,2,2.07,3.51,4.14,1.67,2.18,1.53,2.16,1.56,2.29,1.47,2.31,1.27,2.16,1.41,2.49,1.29,2.49,2.26,4.94,1,2.62,1.84,5.24.84,2.73,1.43,5.42.63,2.86.9,5.52.81,5.3.9,7.86.61,8.06.29,8.15v10.79l-.4,9.81-.4,5.5-.49,5.6-.6,5.68-.7,5.68-.8,5.69-.89,5.69-1,5.77-1.09,5.78L1833,523.57l-1.29,5.78-1.4,5.78-1.49,5.78-3.17,11.47-1.69,5.78-3.56,11.48-1.89,5.77-4,11.58-4.12,11.2L1806,609.57l-4.53,11L1794.37,637,1787,653.11l-2.47,5.24-5.16,10.43-10.26,19.92-5.15,9.61-7.71,13.84L1751,721l-2.58,4.27-10.07,16.28-2.48,3.88-6.33,9.59-5.32,8-10.85,15.79-10.83,15.55-5.42,7.69-11.05,15.2-11,15-11,14.77-5.52,7.3-11.25,14.41-11.23,14.18-5.62,7-11.23,13.79L1608,917.21l-5.63,6.71-11.23,13.2-11.22,13-5.63,6.42L1563,969.15l-5.63,6.22-5.47,6.16-5.54,6.12-11,12-11,11.83-5.53,5.82-5.53,5.74-5.38,5.66L1497.05,1040l-5.44,5.54-5.43,5.43-5.28,5.38L1470.25,1067l-15.75,15.47-5.25,5-5.24,5-5.08,4.88-15.27,14.39-15,13.8-24.23,21.77-14.11,12.32-4.66,4-4.48,3.89-4.57,3.88-4.38,3.79-17.37,14.61-4.28,3.48-4.08,3.4-23.78,19.14-3.74,3-3.59,2.91-14.25,11.08L1265,1245l-11.67,8.7-2.75,2-10.11,7.36-19.54,13.85-2,1.3-1.8,1.25-2.58,1.67-.87.64-1.44.9-1.15.86-1,.59-.41.42-.6.3-1.09,1.08h-.67l-6.71,4.4-15.91,10.5-16.05,10.44-16.13,10.43L1136.33,1332l-20.17,12.79-7.94,5.09-16,10-7.84,5-31.31,19.49-7.68,4.73-7.54,4.7-7.61,4.64-23.85,14.82-17.82,10.84-3.47,2.18-6.88,4.13-10.07,6.21-9.77,5.86-3.24,2-3.19,2-6.29,3.74-6.13,3.75-8.88,5.28-2.9,1.79-19.14,11.39-2.61,1.6-7.4,4.38-2.41,1.51-11.13,6.64-2.17,1.34-9.66,5.66-8.56,5.17L859,1502l-1.45.89-2.23,1.24L854,1505l-8.48,4.84-1.09,1.08H843.4a7.26,7.26,0,0,1-1.15.46l-.41.15a7,7,0,0,1-1.56.55,5.77,5.77,0,0,1-1.29.35l-.48.11-.69.18c-.15,0-.28.09-.78.21l-.21,0a6.27,6.27,0,0,1-1.49.24l-.37,0-.33.07A7.16,7.16,0,0,1,832.78,1513.46Zm-4.14-.48.21,0Zm-3.43-9.08v0Zm.64-.86-.11.1Zm55.9-26.27-1.4,1,10.78-6.43,2.29-1.44,5-3,2.57-1.49,2.5-1.53,19.2-11.42,2.8-1.74,6-3.58,3-1.77,6-3.71,6.29-3.74,3.11-1.94,9.79-5.93,3.35-2,10-6.16,6.89-4.14,3.39-2.13,14.21-8.69,3.69-2.19,23.81-14.79,7.59-4.64,7.53-4.69,23.2-14.36,15.71-9.82,7.83-5,15.94-10,7.93-5.08,20.17-12.8,16.1-10.3,16.1-10.41,16-10.41,23.72-15.62.22-.22.5-.25,12.44-8.29,1.8-1.34,2.5-1.67.94-.72,18.23-12.94,10.63-7.8,2.83-2.15,6-4.42,3-2.33,13.09-10,14.11-11,3.57-2.9,15.36-12.2,3.87-3.2,8.19-6.61,4.08-3.4,4.27-3.48,17.23-14.48,4.37-3.8,4.56-3.86,4.48-3.9,4.66-4,14-12.24,24.13-21.68,14.89-13.72,15.2-14.31,5.07-4.88,5.24-5,5.18-5,15.69-15.4,10.58-10.58,5.27-5.38,5.44-5.43,5.38-5.48,10.78-11.17,5.37-5.67,5.54-5.73,5.47-5.77,11-11.76,11-12,5.48-6.07,5.47-6.16,5.64-6.22,11.17-12.55,5.58-6.37,11.18-12.94,11.18-13.14,5.58-6.66,11.18-13.53,11.18-13.74,5.58-6.95,11.19-14.12,11.18-14.33,5.46-7.21,11-14.72,11-14.91,11-15.11,5.36-7.61,10.79-15.5,10.8-15.71L1727.52,740l2.42-3.78,2.43-3.88,10.09-16.45,2.52-4.28,5.07-8.86,7.62-13.88,7.63-14.57,7.63-15.07,2.53-5.17,7.33-15.72,2.44-5.38,7-16.21,4.47-10.89,4.31-11.16,4.08-11.09,3.92-11.34,1.84-5.63,3.52-11.33,1.64-5.62,3.13-11.33,1.45-5.62,1.36-5.62,1.26-5.62,2.34-11.32,1.06-5.62,1-5.62.87-5.53.78-5.52.67-5.52.58-5.51.49-5.43.38-5.36.38-9.42V446.18l-.28-7.78-.58-7.66-.86-7.48-1.16-7.64-.46-2.56-.55-2.47-1.32-5-.73-2.38-1.69-4.79-.91-2.27-2-4.49-1.09-2.07-2.42-4.2-1.29-2-1.39-2.05-1.4-2-1.45-1.9-3.17-3.72-1.63-1.72-3.59-3.6-1.83-1.64-2-1.68-2-1.59-2-1.56-4.42-3.08-2.18-1.45-4.71-2.83-5-2.62-7.93-3.73-5.58-2.27-5.78-2.08-9.32-2.89-6.52-1.72-6.71-1.54-10.64-2-7.41-1.15-7.62-1-12-1.16-8.23-.58-12.85-.59-14.66-.3-5-.28-5.22.09-10.52.39-5.11.29-10.17.78-18.16,1.85-23.21,3.22-7.48,1.22,1.11.09,9.9,1.2,20.34,3.48,14.74,3.09,15.83,4.15,4.39,1.26,8,2.78,11.39,4.32,9.84,4.77,2.49,1.3,5.86,3.38,3,1.83,2.65,1.77,2.63,1.81,2.71,2,2.44,1.94,4.7,3.89,2.25,2,2.15,2.05,2,2.06,2.06,2.15,3.89,4.32,1.86,2.27,3.17,4.2,1.3,1.84,3.41,5.3,2.07,3.73,2.79,5.8,1.68,4.12,2.16,6.18,1.82,6.41,1.53,6.65,1.21,6.71,1.21,9.18.61,7,.29,6,.1,4.82v4.82l-.2,9.64-.2,4.91-.3,4.92-.4,4.92-1,9.73-.6,4.92-1.39,9.64-1.6,9.56-2.68,13.88-3,13.42-3.26,12.73-2.18,8-2.18,7.63-6,19.17-1.44,4-2,6.23-4.22,11.68v1.25l-.84.91-.34.71-.27.79-.58,1.22-.46,1.17-.65,1.37-.53,1.28-.87,1.82-.61,1.42-1.66,3.53-.64,1.46-4.48,9.65-17.36,34.74-7.08,13.35-1.5,2.91L1659,729.59l-16.83,29.12-12.72,21-6.8,10.94-2.41,3.72-4.68,7.42-2.51,3.81-4.88,7.62-15.7,23.39-2.8,4-5.47,8-8.6,12.16-3,4.09-5.86,8.21-6.14,8.32-6.34,8.32-3.11,4.18-9.78,12.74-10.07,12.74-10.36,12.73-3.58,4.28-7,8.6-11,13-7.51,8.7-9.56,10.84-7.8,8.69-5.92,6.51-12.13,13-10,10.43c-.14.19-.28.36-.44.54l-.62.78-1.52,2-3.11,3.88-1.63,2.14-5.1,6.3-5.39,6.29-1.84,2-5.64,6.53-6,6.58-4.09,4.28-4.2,4.59-7.68,7.88-9.18,9.18-4.75,4.65-4.68,4.69-4.85,4.75-10,9.57-5.14,4.85-5.25,4.85-5.34,4.84-5.27,4.88-5.44,5-5.53,4.94-5.64,5-5.57,5-5.73,5-11.63,10-5.93,5-5.86,5.08-12,10.25-12.22,10.24-12.41,10.25-15.76,12.8-12.69,10.24-12.79,10.23-12.89,10.23-13,10.24-26.18,20.27-26.16,20.07-29.31,22.22-13,9.67-6.35,4.79-50.49,37.1-36,26-5.81,4.14-5.66,4.1-5.75,4.07L963,1420l-5.32,3.74-5.18,3.71-42.37,29.69-2.25,1.64-6.44,4.39-4.21,3-2,1.34Z" transform="translate(5 4.05)"/><path id="Verde" class="cls-6" d="M1568.84,193h5.4l2.66.1h3.34l4.22.1,4.23.19,4.13.2,4.13.29,4,.3,3.93.29,3.93.4,3.83.39,3.83.49,3.74.49,3.64.59,3.63.59,3.54.69,3.54.69,3.44.69,3.34.78,3.34.79,3.25.88,3.24.89,3.14,1,3.05,1,3,1.09,3,1.08,2.95,1.08,2.85,1.18,2.75,1.18,2.75,1.27,2.65,1.28,2.66,1.38,2.55,1.37,2.46,1.48,2.46,1.47,2.36,1.58,2.26,1.57,2.26,1.57,2.16,1.67,2.16,1.67,2.07,1.77,2,1.77,2,1.87,1.86,1.87,1.77,2,1.77,2,1.67,2.06,1.67,2.06,1.58,2.17,1.47,2.16,1.48,2.16,1.37,2.26,1.28,2.26,1.28,2.36,1.18,2.36,1.18,2.46,1.08,2.45,1,2.56,1,2.56.89,2.65.78,2.65.79,2.76.69,2.75.59,2.85.59,2.85.49,2.85.2,1.47h0l.19,1.38.4,2.65.29,2.66.29,2.75.3,2.75.29,2.75.2,2.75.2,2.76.19,2.75.1,2.75.1,2.85.1,2.85v11.4l-.1,4.33-.2,5.79-.39,5.8-.49,5.9-.59,5.9-.69,5.9-.78,6-.79,6-.89,6-1,6-1.08,6-1.18,6.1-1.28,6.09-1.27,6.09-1.38,6.1-1.47,6.09-1.58,6.09-1.57,6.1-1.67,6.09-1.77,6.1-1.77,6.09-1.87,6-1.86,6-2,6-2,6-2.07,6-2.06,5.89-2.17,5.9-2.16,5.9-2.26,5.8-2.26,5.8-2.26,5.7-2.26,5.7-2.36,5.7-2.36,5.6-2.36,5.5-2.36,5.51-2.45,5.4-2.46,5.41-2.46,5.31-2.45,5.21-2.46,5.2-2.46,5.12-2.46,5-2.45,4.91-2.46,4.92-2.46,4.81-2.45,4.72-2.46,4.62-2.46,4.52-2.46,4.42-2.35,4.33-2.36,4.22-2.36,4.13-2.36,4-2.36,3.93-1.18,1.87h0l-2.55,4.23-5.12,8.45-5.11,8.35-5.11,8.36-5.21,8.25-5.21,8.26-5.2,8.16-5.21,8.06-5.21,8.06-5.21,8-5.31,7.86-5.31,7.86-5.3,7.77-5.31,7.76-5.31,7.67-5.31,7.57-5.3,7.57-5.31,7.47-5.31,7.37-5.31,7.37-5.3,7.27-5.31,7.27-5.31,7.18-5.31,7.08-5.3,7.07-5.31,7-5.31,6.88-5.31,6.88-5.3,6.78-5.31,6.78-5.31,6.69-5.31,6.58-5.3,6.59-5.31,6.48-5.31,6.39-5.31,6.39-5.3,6.29-5.21,6.19-5.21,6.2-5.21,6.09-5.21,6-5.21,6-5.21,5.9-5.11,5.8-5.11,5.8-5.11,5.7-5.11,5.7-5.11,5.6-5,5.5-5,5.51-5,5.4-5,5.31-4.92,5.31-4.91,5.21-4.92,5.11-4.81,5.11-4.82,5-4.81,4.92-4.72,4.91-4.72,4.82-4.72,4.71-4.62,4.72-4.62,4.62-4.62,4.52-4.52,4.52-4.52,4.43-4.42,4.32-4.42,4.33-4.43,4.22-4.32,4.13-4.33,4.13-4.22,4-4.23,3.93-4.13,3.93-4.12,3.83-4,3.74-4,3.73-3.93,3.64-3.94,3.54-3.83,3.44-3.83,3.44-3.74,3.34-3.73,3.24-3.64,3.25-3.54,3.14-3.54,3-3.44,3-3.44,2.94-3.34,2.85-3.24,2.85-3.24,2.76-3.15,2.65-3,2.65-3,2.56-3,2.46-2.85,2.36-2.85,2.35-2.75,2.26-2.66,2.17-2.55,2.16-2.56,2.06-2.46,2-2.35,2-2.26,1.87-2.27,1.77-1.57,1.28-1.08.88-1.08.79-1,.79-1,.78-1,.79-1,.79-1,.68-.89.69-.88.69-.89.69-.88.68-.79.69-.79.59-.78.59-.79.59-.78.59-.69.59-.69.49-.69.49-.69.5-.68.49-.59.49-.59.49-.59.39-.59.4-.49.39-.5.39-.49.4-.49.29-.39.3-.4.29-.39.3-.39.29-.39.3-.3.19-.29.2-.3.19-.29.2-.2.2-.2.19-.19.1-.2.1-.1.1-.1.1h-.1L1125,1213l-15.24,11.11-15.33,11.1-15.33,11.11-15.34,11-11.49,8.15-7.67,5.41-7.67,5.41-7.66,5.4-7.57,5.31-7.57,5.31-7.47,5.21-7.47,5.2L991.7,1308l-7.37,5.11-7.27,5-7.28,5-7.17,4.91-7.08,4.92-5.31,3.63-3.53,2.36-3.44,2.36-3.44,2.36-3.44,2.36-3.44,2.36-3.35,2.26-3.34,2.26-3.34,2.26-3.34,2.26-3.24,2.26-3.25,2.26-3.24,2.17-3.24,2.16-3.15,2.16-3.14,2.16-3.15,2.07-3,2.06-3,2.06-3,2.07-3,2.06-3,2-2.94,2-3,2-2.85,2-2.85,1.87-2.76,1.87-2.75,1.87-2.75,1.86-2.65,1.77-2.66,1.77-2.65,1.77-2.56,1.67-2.55,1.67-2.46,1.67-2.46,1.68-2.45,1.57-2.36,1.57-2.36,1.57-2.26,1.48-2.26,1.47-2.16,1.48-2.17,1.37-2.06,1.38-2.06,1.37-2,1.38-2,1.28-2,1.28-1.87,1.27-1.87,1.18-1.77,1.18-1.76,1.18-1.68,1.08-1.57,1.08-1.57,1-1.47,1-1.48,1-1.37.89-1.38.88-1.28.89-1.28.78-1.18.79-1.08.78-1.08.69-1,.69-1,.59-.89.59-.78.59-.79.49-.69.49-.69.4-.59.39-.49.29-.49.3-.39.29-.3.2-.29.2-.2.1-.1.09h-.1l-.29.2a1.56,1.56,0,0,1-.39.2,5.07,5.07,0,0,1-1.38.59,3.62,3.62,0,0,1-1.28.49,4.76,4.76,0,0,1-1.37.39,3.93,3.93,0,0,1-1.48.39,7.24,7.24,0,0,1-1.47.3c-1.28.2-.69.2-1.57.29H774c-.59,0-.29,0-1-.19s-.49,0-.69-.2-.2,0-.3-.39c-.29-.3-.29-.2-.19-.4-.1-.29-.1-.09.19-.49s.1-.29.4-.59c.1-.19,0-.1.29-.19l.2-.2h0l.1-.1.1-.1.19-.09.2-.2.29-.2.3-.19.29-.2.4-.3.39-.29.49-.3.49-.39.49-.39.59-.39.59-.5.69-.49.69-.49.69-.49.78-.59.79-.59.79-.59.88-.69.89-.69,1-.68,1-.69,1-.79,1.08-.78,1.09-.79,1.08-.89,1.18-.88,1.18-.88,1.18-.89,1.27-1,1.28-1,1.28-1,1.37-1,1.38-1.08,1.38-1.08,1.47-1.08,1.48-1.08,1.47-1.18,1.57-1.18,1.57-1.18,1.58-1.18,1.57-1.28,1.67-1.28,1.67-1.28,1.67-1.27,1.77-1.38,1.77-1.38,1.77-1.37,1.77-1.38,1.87-1.37,1.86-1.48,1.87-1.47,2-1.48,2-1.47,2-1.57,2-1.58,2.07-1.57,2.06-1.57,2.07-1.57,2.06-1.67,2.16-1.68,2.16-1.67,2.17-1.67,2.16-1.67,2.26-1.77,2.26-1.77,2.26-1.77,2.26-1.76,2.26-1.77,2.36-1.87,2.36-1.87,2.36-1.87,2.36-1.86,2.45-1.87,3.64-2.85,4.92-3.93,5-3.93,5.11-4,5.21-4.13,5.21-4.13,5.3-4.23,5.41-4.22,5.41-4.33,5.5-4.42,5.5-4.42,5.61-4.52,5.7-4.52,5.7-4.62,5.8-4.62,5.8-4.72,5.89-4.72,5.9-4.81,5.9-4.82,6-4.92,6-4.91,6-4.91,6.1-5,6.09-5,6.09-5,6.1-5.11,6.19-5.11,6.19-5.11,6.19-5.21,9.34-7.87,12.48-10.51,12.49-10.62,12.48-10.71,12.48-10.71,12.48-10.82,12.39-10.81,12.38-10.91,12.29-10.91,12.18-10.91,9-8.15,6-5.41,5.9-5.4,5.89-5.41,5.9-5.41,5.8-5.4,5.8-5.41,5.7-5.4,5.7-5.41,5.6-5.4,5.61-5.41,5.5-5.31,5.41-5.31,5.4-5.3,5.31-5.31,5.21-5.21,5.21-5.21,5.11-5.21,5-5.21,5-5.11,4.92-5.11,4.81-5.11,4.72-5,4.62-5,4.52-5,4.42-4.91,4.33-4.92,4.32-4.81,4.23-4.82,4.13-4.72,3-3.53,2-2.36,2-2.36,1.86-2.36,1.87-2.36,1.87-2.26,1.87-2.26,1.76-2.26,1.77-2.26,1.77-2.26,1.77-2.26,1.67-2.26,1.67-2.17,1.67-2.16,1.58-2.16,1.57-2.16,1.57-2.16,1.48-2.17,1.47-2.16,1.48-2.06.68-1.08c.1-.1.1-.2.2-.2l2-2.26,3.93-4.52,3.93-4.62L1372,907l5.8-6.88,7.57-9.14,7.47-9.14,7.27-9.14,7.17-9.14,5.31-6.88,3.44-4.52,3.44-4.53,3.44-4.52,3.34-4.52,3.35-4.52,3.34-4.52,3.24-4.52,3.24-4.52,3.25-4.52,3.14-4.52,3.15-4.53,3.14-4.52,3-4.42,3.05-4.42,3-4.43,3-4.42,2.95-4.42,3-4.42,2.85-4.43,2.85-4.32,2.85-4.33,2.75-4.32,2.75-4.33,2.76-4.32,2.65-4.32,2.65-4.23,2.66-4.23,2.55-4.22,2.56-4.23,2.55-4.13,2.56-4.13,2.46-4.12,2.45-4.13,2.46-4,2.36-4,2.36-4,2.36-4,2.26-3.93,2.26-3.93,2.26-3.93,2.16-3.94,2.16-3.83,2.17-3.83,2.06-3.84,2.06-3.73,2.07-3.74,2-3.73,2-3.64,2-3.63,1.87-3.64,1.87-3.54,1.87-3.54,1.77-3.44,1.77-3.44,1.76-3.44,1.77-3.34,1.67-3.34,1.68-3.24,1.67-3.25,1.57-3.24,1.57-3.15,1.57-3.14,1.48-3,1.47-3,1.48-2.95,1.37-3,1.38-2.85,1.37-2.85,1.28-2.75,1.28-2.76,1.28-2.65,1.28-2.65,1.17-2.56,1.18-2.55,1.18-2.46,1.08-2.46,1.09-2.36,1.08-2.36,1-2.26,1-2.26,1-2.16.88-2.16.88-2.07.89-2,.88-2,.79-1.86.79-1.87.78-1.77.69-1.67.69-1.67.69-1.58.59-1.57.59-1.47.59-1.38.59-1.37.49-1.28.49-1.18.49-1.18.39-1.08.4-1,.39-1,.29-.88.3-.79.29-.69.3-.69.2-.58.19-.5.2-.49.1-.39.1-.3.09-.19.1-.2v-.29l.1-.2.1-.2.1-.29.09-.39.1-.4.2-.49.2-.49.19-.59.2-.69.2-.69.29-.78.3-.79.29-.88.3-.89.29-1,.3-1,.29-1.09.39-1.08.4-1.18.39-1.18.39-1.27.4-1.28.39-1.38.39-1.37.4-1.38.39-1.47.49-1.48.49-1.57.49-1.57.49-1.67.5-1.67.49-1.67.49-1.77.49-1.77.49-1.77.79-2.75,1-3.84,1-3.93,1-4,1-4.13,1-4.22,1-4.43,1-4.42,1-4.52,1-4.62,1-4.72.88-4.81.89-4.82.88-4.91.79-4.92.78-5,.69-5,.69-5,.59-5.12.59-5.11.49-5.11.39-5.11.4-5.11.29-5.11.2-5.11.1-5.11.09-5v-5l-.09-5-.2-3.73-.1-2.46-.2-2.46-.19-2.46-.2-2.45-.2-2.36-.29-2.36-.3-2.36-.29-2.36-.39-2.36-.4-2.36-.39-2.26-.49-2.26-.49-2.26-.49-2.26-.5-2.16-.59-2.16-.58-2.17-.59-2.16-.69-2.06-.69-2.07-.79-2.06-.78-2.06-.79-2-.88-2-.89-2-.88-1.87-1-1.87-1-1.86-1.08-1.77-1.08-1.77-1.08-1.77-.59-.89-.79-1.17-1.67-2.27-1.67-2.26-1.77-2.26-1.77-2.16-1.87-2.16-2-2.16-2-2.07L1602,256.2l-2.16-2.07-2.17-2-2.26-2-2.36-2-2.45-1.87L1588,244.5l-2.65-1.77L1582.6,241l-2.85-1.76-2.17-1.28-1.47-.89-1.47-.78-1.58-.79-1.57-.79-1.57-.78-1.67-.79-1.67-.78-1.67-.79-1.77-.79-1.77-.78-1.77-.79-1.77-.69-1.87-.69-1.87-.68-1.86-.69-2-.69-2-.69-2-.69-2.06-.68-2.07-.69-2.06-.59-2.16-.59-2.17-.59-2.26-.59-2.26-.59-2.26-.59-2.36-.59-1.18-.29-2.36-.5-4.71-1-4.72-.88-4.72-.79-4.62-.79-4.62-.68-4.52-.59-4.52-.49-4.42-.5L1482,212l-3.24-.29-2.07-.2-2.06-.1-2.06-.1-2.07-.1-2-.09-2-.1-2-.1-1.87-.1-1.87-.1h-35.48c-3.34.3-5.11-.49-4-1.86,1.18-1.58,5.41-3.35,9.44-3.94h.39l.39-.09.49-.1.69-.1.79-.1.88-.1,1-.1,1.09-.19,1.17-.2,1.28-.2,1.38-.19,1.47-.2,1.58-.2,1.67-.19,1.77-.2,1.86-.29,2-.3,2.06-.29,2.07-.3,2.16-.29,2.26-.3,2.36-.29,2.36-.3,2.45-.29,2.56-.3,2.56-.29,2.65-.3,2.65-.29,2.75-.3,2.76-.29,2.75-.3,2.85-.29,4.32-.49,5.9-.59,6-.59,6.09-.59,6.09-.49,6.1-.49,6.19-.5,6.09-.39,6.1-.39,4.52-.2,3-.1,3-.1,3-.09,3-.1,2.85-.1,2.85-.1h2.85Z" transform="translate(5 4.05)"/><path class="cls-2" d="M776.73,1454.58H774a6.15,6.15,0,0,1-2.06-.28,5.15,5.15,0,0,1-2.11-.73,5,5,0,0,1-2.16-2.17,5,5,0,0,1-.89-3,5,5,0,0,1,1-3.18,5.26,5.26,0,0,1,.8-1.13,5,5,0,0,1,1.24-1.13l.36-.37,1.35-.85L786.08,1431l1.14-.92,14.4-10.88,1.52-1.21,4.64-3.48,1.61-1.31,21.6-16.59,4-3.17,6.14-4.67,2.09-1.7,35.46-27.7,4.87-3.9,31.3-24.7L954,1299.33l5.76-4.69,5.93-4.74,48-39.37,6-5.08,12.42-10.25,28-23.56,12.47-10.6,24.94-21.41,12.47-10.79,12.37-10.8,12.36-10.9,12.28-10.89,27.19-24.45,17.66-16.19,11.57-10.78,11.37-10.79,16.68-16.09,10.78-10.58,15.69-15.69,5.08-5.18,5-5.17,5-5.15,4.88-5.07,9.5-10.09,4.58-5,8.91-9.89,4.28-4.87,4.36-4.85,11.34-13,3.84-4.61,3.76-4.74,3.69-4.47,7-8.94,1.7-2.29,3.29-4.27,4.63-6.36,3-4.36,1.4-1.95,1.07-1.59a4.51,4.51,0,0,1,.52-.55l5.56-6.4L1374,896.85l7.54-9.11,7.44-9.12,7.24-9.09,7.15-9.11L1418.9,840l10-13.51,9.69-13.51,18.52-26.75,8.8-13.21,2.81-4.36,5.73-8.69,8.21-12.9,2.61-4.26,5.33-8.5,5.07-8.38,5.14-8.3,4.87-8.18,2.48-4.07,13.79-23.78,12.62-22.78,18.53-35.3,14.09-28.29,12.74-26.94,6.14-13.75,1.77-4.22,4.13-9.43,7-17.15.69-1.92,1.17-3.07v-.37l.54-1.21.31-1,.45-1.2.49-1.65,1.1-3.1,1-3.24,1.12-3.26,1.92-6.53.45-1.68,1.45-4.53,3.68-12.89,2.92-11.67,1.95-8.31,3.91-17.89,1-4.64,2.64-14.47,1.55-9.82,1.36-9.87,1.17-10.17.48-5,.78-10.12.29-5,.19-5,.19-10v-4.92l-.09-4.83-.29-6.07-.77-9.51-.86-6.88-1.14-6.74-1.91-8.69-1.7-6.25-1.3-3.9-2.25-5.81-2.53-5.52-1.84-3.5-3.64-5.89-.72-1.08-3.23-4.37-1.69-2.16-1.7-2.07-1.78-2.06-1.88-2.08-1.88-2-2-2-2.07-2-2.08-1.88-2.18-1.9-2.23-1.86-2.37-1.8-2.39-1.75-2.56-1.71-2.69-1.72-2.74-1.7-3.5-2.08-5.92-3-10.06-4.59-7.17-2.68-9.78-3.35L1534.5,226l-10.13-2.6-6.92-1.44-4.63-.87-9.24-1.56-4.57-.68-4.38-.57-8.9-1-9.44-.86-15.6-.78h-35.15c-4.46.35-7.45-.8-8.86-3.41a5.89,5.89,0,0,1,.67-6.5c2.69-3.53,9.22-5.33,12.67-5.83l14.39-2,1.69-.19,10.11-1.47,14.65-1.78,20.75-2.26,18.07-1.78,18.46-1.48,12.37-.8,22.33-.79h3.32l3.14.59h5.13l3.65.1h2.27l4.35.1,8.47.4,12.23.9,7.91.8,7.73,1,7.43,1.21,10.7,2.1,6.86,1.62,6.66,1.82,6.37,2,9.19,3.34,5.79,2.44,5.61,2.65,5.48,2.91,5.11,3.07,2.36,1.58,4.8,3.34,4.53,3.51,2.15,1.84,2.07,1.87,2,2,2,2.06,3.71,4.13,3.5,4.33,1.66,2.29,3.09,4.54,1.46,2.4,2.67,4.85,2.46,5,1.17,2.68,2,5.32L1733,269l1.63,5.61.73,2.95,1.21,5.87.52,3,.8,5.61,1.2,11.11.6,8.43.3,8.63v11.51l-.1,4.33-.21,6-.39,5.8-.5,6-.59,6-.7,6-1.58,12.07L1735,384l-1,6.08-1.1,6.07-1.19,6.16-2.57,12.26-1.39,6.17-1.49,6.17-3.17,12.26-1.69,6.16-3.56,12.26-3.76,12.09-4,12.06-4.16,12-4.39,11.95-9,23-4.76,11.4L1683,551.26l-7.39,16.15-7.4,15.59-7.41,14.91-5,9.61-4.95,9.22-7.21,13L1638.9,638l-2.44,4.07-1.18,1.87-7.62,12.6-10.23,16.73L1607,689.85l-5.22,8.18-10.43,16.14-5.23,8-10.65,15.78-10.63,15.55-5.33,7.7-10.63,15.16-5.33,7.49-10.63,14.77-10.63,14.57-5.33,7.2-10.63,14.18-5.33,7-10.64,13.78L1479.7,869l-5.33,6.71-10.64,13.2-5.33,6.51-10.64,12.81L1432,926.88l-5.23,6.12-10.45,12-15.45,17.52L1390.63,974l-15.16,16.64-5,5.44-5,5.34-4.88,5.27-4.94,5.25-5,5.14-4.78,5.08-4.85,5-4.85,5-4.68,4.87-4.76,4.85-4.75,4.76-4.58,4.68-4.66,4.66-4.66,4.55-4.48,4.49-13.41,13.11-17.34,16.56-4.27,4-4.09,3.89-16.17,15-15.39,13.82-3.79,3.29L1222,1141l-3.59,3.1-3.39,3-6.85,5.86-3.19,2.8-6.46,5.47-3,2.6-14.56,12.09-2.67,2.17-2.57,2.18-14.75,12-1,.72-4.1,3.26-.87.62-3.33,2.58-1,.83-13.91,10.35-.58.58-.39.19-1.08,1.09h-.53L1128,1217l-15.26,11.13L1082,1250.38l-15.35,11-34.53,24.4-45,31.37-34.13,23.51-3.59,2.39-33.61,23-6.49,4.33-6.32,4.34-3.15,2.07L876,1392.93l-2.85,1.86L857,1405.68l-5.14,3.37-5,3.37-2.46,1.57L833,1421.56l-2.12,1.35-4,2.69-2.06,1.44-3.88,2.52-2,1.35-1.81,1.15-6.86,4.56-1.51,1-7.07,4.68-2.22,1.41-1.25.9-3.73,2.43-1,.74-4.47,2.89-1.11,1.11H787a6.72,6.72,0,0,1-1.16.5l-.26.09a7,7,0,0,1-1.65.64,6.37,6.37,0,0,1-1.22.37l-.36.08-.38.13a5.88,5.88,0,0,1-1.5.37,8,8,0,0,1-1,.21l-.64.1-.4.07a8,8,0,0,1-1.44.26Zm1.8-.32h0Zm8-2.37h0Zm-10.25-1.11,0,0Zm-4.79-8.48h0Zm44.07-21.22-.4.32.28-.19,3.86-2.51,2-1.39,4.22-2.81,2.09-1.33,2.19-1.49,11.67-7.65,4.86-3.3,13.11-8.68,8.22-5.58,2.87-1.88,2.8-1.93,24.23-16.25,6.24-4.29,6.5-4.34,6.45-4.49,36-24.5,7-4.89,21.73-15,29.76-20.73,38.11-26.81,11.49-8.15,15.31-11,30.65-22.2L1122,1209l22.5-16.65.87-.75,3.74-2.9.85-.6,4-3.18,1-.71,2.56-2.08,2.28-1.78L1189,1156.2l3-2.59,6.43-5.45,3.18-2.79,6.83-5.84,3.38-3,3.59-3.1,7.11-6.33,3.78-3.29,15.27-13.7,16.06-14.88,4.08-3.89,4.27-4,17.25-16.47,13.33-13,4.48-4.48,4.66-4.56,4.58-4.58,4.58-4.68,4.75-4.76,4.69-4.78,4.68-4.88,4.85-5,4.78-5,4.79-5.07,4.94-5.15,4.89-5.17,4.88-5.28,5-5.34,5-5.37,15.1-16.58,10.2-11.37,15.4-17.47,10.39-12,5.19-6.06,15.7-18.65L1450.68,889l5.29-6.46,10.59-13.14,5.28-6.66,10.6-13.53L1493,835.49l5.29-7,10.59-14.13,5.29-7.15,10.59-14.52,10.6-14.72,5.29-7.44,10.6-15.11,5.29-7.64,10.6-15.51,10.59-15.7,5.17-7.9,10.41-16.1,5.19-8.13,10.4-16.49,10.19-16.65,11.18-18.44,4.67-8.07,7.14-12.92,4.87-9.06,4.88-9.46,7.33-14.77,7.34-15.46,7.32-16,7-16.53,2.35-5.68,9-22.85,4.31-11.75,4.1-11.8,3.91-11.92,3.71-11.92,3.51-12.09,1.65-6,3.12-12.12,1.46-6,1.36-6,2.54-12.11,1.16-6,1.07-5.93,1-5.92.87-5.91,1.56-11.91.68-5.83.58-5.82.49-5.81.38-5.64.29-9.93V320.37l-.29-8.27-.58-8.09-1.15-10.71-.77-5.39-.47-2.67-1.14-5.52-.64-2.57-1.51-5.2-.82-2.46-1.89-4.9-1-2.27-2.25-4.6-2.43-4.4-1.27-2.08-2.83-4.15-1.45-2-3.18-3.93-3.36-3.73-1.74-1.74-1.86-1.77-1.88-1.68-1.91-1.65-4.13-3.19-4.42-3.07-2.18-1.45-4.71-2.83-5-2.63-5.2-2.46-5.38-2.26-8.73-3.17-6-1.9-6.32-1.72-6.51-1.54-10.33-2-7.13-1.16-7.41-1-7.63-.77-12-.88-8.23-.39-10.14-.19h-5.78l-3.14-.59h-2.3l-21.93.78-12.14.78-18.3,1.47-17.89,1.76-31.25,3.52,15.7.78,9.61.88,9.14,1,4.52.59,4.81.71,9.42,1.59,4.82.91,8.45,1.81,13.56,3.56,2.33.67,10.1,3.47,7.75,2.9,10.52,4.82,6.53,3.33,6.55,4,2.82,1.81,2.9,1.94,2.56,1.86,2.71,2.07,2.44,2,2.34,2,2.25,2.05,2.24,2.14,2.15,2.15,2,2.15,2,2.26,2,2.27,1.84,2.24,1.85,2.37,3.48,4.72,1.48,2.23,3.41,5.59,2.06,3.92,2.77,6.08L1633,295l1.46,4.4,1.82,6.69,2,9.2,1.21,7.21.91,7.28.8,9.95.29,6.29.1,5v5.12l-.19,10.22-.2,5.2-.3,5.21-.8,10.32-.49,5.2-1.21,10.42-1.37,10-1.59,10-2.7,14.77-3,13.9-3,13.15-3,12.17-1,4-4.76,16.33-.47,1.42-2,6.92-3.14,9.82-.66,1.88-.56,1.76-.29.73-.24.87v.37l-.54,1.22-.21.64L1603.2,540l-7.06,16.38-.93,2.26-6.24,14-12.81,27.1L1562,628.19l-10.81,20.73-1.89,3.68-12.08,22.31-13.34,23.51-7.1,12.12-17.62,29.06-5.36,8.52-2.62,4.28-8.3,13.05-5.75,8.71-2.82,4.38-8.89,13.34-18.63,26.91L1437,832.41,1426.9,846l-10.36,13.61-5.33,6.91-7.2,9.17-7.29,9.17-7.51,9.19-7.59,9.17-13.71,16.17-6,6.84-.57.88-1.44,2-3,4.41-4.81,6.6-3.31,4.28-1.72,2.33-7.16,9.14-3.7,4.49-3.78,4.77-3.93,4.72-3.1,3.6-8.39,9.57-4.36,4.85-4.29,4.88-9,10-4.65,5.06-9.57,10.16-5,5.15-5,5.14-5,5.18-5.14,5.24-15.76,15.76-10.85,10.65-16.74,16.15-11.43,10.84L1198.66,1103l-17.72,16.25-15.07,13.59-12.2,10.92-12.3,10.92-12.4,10.93-12.4,10.82-12.5,10.83-25,21.44-12.5,10.63-28,23.6-12.42,10.25-6.06,5.09L972,1297.67l-5.93,4.75-5.77,4.7-5.84,4.65-5.66,4.59-5.75,4.55-22,17.68-5.45,4.26-34.39,27.23-2.52,1.91-41.6,32.55-3.88,2.91-3.82,3-1.81,1.34Zm538.33-500.66h0Zm71.27-708.37Zm-1.71-6.33Z" transform="translate(5 4.05)"/></g><path class="cls-4" d="M1575.59,476.66c-.85-1.86-5.14-11.36-6.75-15.53l0-.15c-11.09-29.55-46.06-80.56-89.08-130-49.12-56.41-101.4-102.41-143.44-126.21L1356,170c102.51,58,224.7,209,250.23,276.84.9,2.32,3.93,9.15,5.81,13.3Z" transform="translate(5 4.05)"/></g></svg>