<svg xmlns="http://www.w3.org/2000/svg" viewBox="0 0 4884.58 1730"><defs><style>.cls-1,.cls-2{isolation:isolate;}.cls-1{font-size:741.33px;font-family:ZillaSlabHighlight-Bold, Zilla Slab Highlight;font-weight:700;}.cls-1,.cls-4{fill:#007cff;}.cls-2{font-size:12px;font-family:ArialMT, Arial;}.cls-3,.cls-5{fill:#fff;}.cls-3,.cls-6,.cls-7{stroke:#007cff;stroke-miterlimit:10;stroke-width:10px;}.cls-6{fill:#ff2300;}.cls-7{fill:#0b0;}.cls-8{fill:none;stroke:#fff;stroke-width:40px;}</style></defs><g id="svg205"><text class="cls-1" transform="translate(1966.08 1568.02)"><tspan xml:space="preserve"> Italia </tspan></text><text class="cls-2" transform="translate(957.13 128.32)">Lorem ipsum</text><g id="g8"><path id="path2-2" d="M3043,372.16c-53.61,0-87,39.84-87,108.83,0,63.42,29.3,112.2,86.13,112.2,54.49,0,90.23-43.94,90.23-113.81,0-74-39.84-107.22-89.35-107.22Z" transform="translate(5 4.05)"/><path id="path4" d="M4480,556.57c0,23.58,11.42,42.33,43.06,42.33,37.35,0,77.2-26.8,79.69-87.74-17-2.49-35.74-4.83-52.88-4.83-37.35-.15-69.87,10.4-69.87,50.24Z" transform="translate(5 4.05)"/><path id="path6-4" d="M1950,0v837.7H4879.58V0Zm852.36,665.59H2648.72V459.16c0-63.42-21.09-87.74-62.54-87.74-50.39,0-70.75,35.74-70.75,87V585.87h48.77v79.68H2410.69V459.16c0-63.42-21.09-87.74-62.54-87.74-50.39,0-70.75,35.74-70.75,87V585.87h69.87v79.68H2123.89V585.87h48.78V378.6h-48.78V298.92H2277.4v55.22c22-39,60.2-62.55,111.32-62.55,52.88,0,101.51,25.2,119.53,78.81,20.36-48.78,61.81-78.81,119.52-78.81,65.77,0,126,39.85,126,126.71V585.87h48.77l-.14,79.68Zm236.56,8.06c-112.94,0-191-69-191-186,0-107.22,65-195.84,196.72-195.84s195.84,88.47,195.84,190.86C3240.49,599.64,3156,673.61,3038.94,673.61Zm591-8.06h-320.2l-10.55-55.22,201.55-231.58H3386.24L3370,435.58l-75.58-8.2,13-128.46h321.81l8.21,55.22L3434.14,585.87h118.64L3569.92,529l82.91,8.06Zm209.17,0H3729.44V533.87h109.71Zm0-234.95H3729.44V298.92h109.71Zm68.55,234.95,158.49-559.1h103.26L4011,665.55Zm213,0L4279,106.45h103.27L4223.8,665.55Zm562.47,8.06c-48.77,0-75.58-28.42-80.41-73.09-21.1,37.35-58.45,73.09-117.77,73.09-52.88,0-112.94-28.42-112.94-104.88,0-90.23,87-111.32,170.65-111.32,20.36,0,41.45.88,60.2,3.22V448.47c0-37.35-.88-82-60.2-82-22,0-39,1.61-56.1,10.55l-11.87,41.31-83.63-8.94L4405.43,325c64.16-26.07,96.68-33.25,156.88-33.25,78.8,0,145.45,40.57,145.45,124.36V575.32c0,21.09,8.2,28.42,25.19,28.42a55,55,0,0,0,15.38-2.49l.88,55.22c-19.77,10.69-43.35,17.14-66.06,17.14Z" transform="translate(5 4.05)"/></g></g><g id="Livello_2" data-name="Livello 2"><g id="Sfondo"><path id="Sfondo2" class="cls-3" d="M860,1721C385.07,1721,0,1335.88,0,861S385.07,1,860,1,1720,386,1720,861,1334.93,1721,860,1721Z" transform="translate(5 4.05)"/><path id="Sfondo1" class="cls-4" d="M860,1672.64c-448.26,0-811.69-363.43-811.69-811.69S411.74,49.26,860,49.26,1671.69,412.69,1671.69,861,1308.26,1672.64,860,1672.64Z" transform="translate(5 4.05)"/></g><g id="Dinosauro"><g id="g133"><path id="path129" class="cls-5" d="M740.58,605.7a31.29,31.29,0,0,1,9,.89c6.48,3.53,2.06,11.3.49,17.1-34.5,103.89-54.26,188.81-114.8,195.78-84,16.42-139-52.48-103.5-77.05,56.91-34.21,56.91-34.21,88.76-55.93C645.93,666.15,668.93,643,696,624.77,709.52,615.63,724.17,607.18,740.58,605.7Z" transform="translate(5 4.05)"/><path id="path131" class="cls-5" d="M635.32,819.47c-84,16.42-139-52.48-103.5-77.05,56.91-34.21,56.91-34.21,88.76-55.93,29.38-22.6,92.48-89.34,129-79.9,6.48,3.53,2.06,11.3.49,17.1-34.5,103.79-54.26,188.71-114.8,195.78" transform="translate(5 4.05)"/></g><g id="g139"><path id="path135" class="cls-5" d="M519.54,1205.74l11.1,9.24" transform="translate(5 4.05)"/><path id="path137" class="cls-5" d="M519.54,1205.74l11.1,9.24" transform="translate(5 4.05)"/></g><path id="path141" class="cls-5" d="M484,1298.52h0" transform="translate(5 4.05)"/><g id="g147"><path id="path143" class="cls-5" d="M489.07,1298.52c-4.72-1.38-5.11-1.77-5.11-5,0-36.47,11.4-59.57,35.58-87.77,8.06,28.7,36.46,47.08,59.17,65.16,1.77,1.38-46.89,23.29-86,27.62" transform="translate(5 4.05)"/><path id="path145" class="cls-5" d="M489.07,1298.52c-4.72-1.38-5.11-1.77-5.11-5,0-36.47,11.4-59.57,35.58-87.77,8.06,28.7,36.46,47.08,59.17,65.16,1.77,1.38-46.89,23.29-86,27.62" transform="translate(5 4.05)"/></g><g id="g153"><path id="path149" class="cls-5" d="M905.31,68.37c15.92.69,25.75,9.54,31.84,23.49,18.68,45.22,20.84,55.34,29.49,69.79,23.59,39.31,43.34,65.16,37,63.69-66.84-15.43-121-29.69-198.64-17.5-28.11,4.42-52,15.73-77.65,27.72,22.51-50,59.07-94.26,101-129.25C850.27,88.13,876,69.75,905.31,68.37Z" transform="translate(5 4.05)"/><path id="path151" class="cls-5" d="M727.31,235.56C761,152.9,904.33,12.45,937.15,91.86c18.68,45.22,20.84,55.34,29.49,69.79,23.59,39.31,43.34,65.16,37,63.69-66.84-15.43-121-29.69-198.64-17.5-28.11,4.42-52,15.73-77.65,27.72" transform="translate(5 4.05)"/></g><g id="g159"><path id="path155" class="cls-5" d="M1291.87,420.43c12.48,0,70.86,1.58,53.66,28.21-15.23,22.12-18.18,48.65-29.39,63.79C1300,485.7,1300,485.7,1256.39,424.17,1268,421.32,1280,420.73,1291.87,420.43Z" transform="translate(5 4.05)"/><path id="path157" class="cls-5" d="M1316.14,512.43C1300,485.7,1300,485.7,1256.39,424.17c34.2-8.36,108.8-4.23,89.14,24.37-15.23,22.22-18.18,48.75-29.39,63.89" transform="translate(5 4.05)"/></g><g id="g165"><path id="path161" class="cls-5" d="M880.44,278.61c41.38,0,82.76,6,121.58,20.64,202.47,78.43,302.23,303.5,394.33,482.78,50.71,109.49,50.71,109.49,70.66,156.57-.49,0-1,0-1,.49C1396.25,793.13,1320.86,649,1229.26,515c-48.85-62.31-99.56-125.11-172.2-161-118.43-58.48-227.33-60.35-349.89,5.8C635.61,398.52,567.6,468.2,525.63,539.26c-49,83.15-88.85,136.91-121,242.86-23.39,77.16-35,111.26-41.67,149.5-28.6,163.45-25.85,224.19-10.81,316,9,55,36.66,99.07,72.53,124.33,16.42,11.5,52.19,21.52,59.27,22.7,63.59,10.71,95.83,2.75,157.55-14.35C814.2,1315.62,944.62,1184.9,1001.14,1013c26.14-114.11,31.74-248.57-38.43-348.82,0-.49,0-.49.49-.49,18.08,5.5,32.43,21,41.28,37,27.62,49.73,36.07,131.4,36.07,188.61,0,144.57-16.12,170.33-50.32,256.23-30.37,55.43-57.4,97.79-107.23,150.18-25.26,26.53-86.79,69.29-87.28,69.78-97.3,63.3-222.52,120.11-340.66,93.27-25.26-5.7-49.53-17.88-66.44-33.71-153.23-142.61-86.29-419.29-37.35-594,15-53.66,35.88-101.53,51.7-137.3,63.4-143,132.69-262.43,287.78-363.17,44.33-28.5,95.93-44.13,148.12-49.63,18.38-2,23.29-1.67,41.57-2.26Z" transform="translate(5 4.05)"/><path id="path163" class="cls-5" d="M1467,938.69c-.49,0-1,0-1,.5-69.78-146-145.17-290.14-236.77-424.11-48.85-62.31-99.56-125.12-172.2-161-118.43-58.48-227.33-60.35-349.89,5.8C635.61,398.52,567.6,468.2,525.63,539.26c-49,83.15-88.85,136.91-121,242.86-23.39,77.16-35,111.26-41.67,149.5-28.6,163.45-25.85,224.19-10.81,316,9,55,36.66,99.07,72.53,124.33,16.42,11.5,52.19,21.52,59.27,22.7,63.59,10.71,95.83,2.75,157.55-14.35C814.2,1315.62,944.62,1184.9,1001.14,1013c26.14-114.11,31.74-248.57-38.43-348.82,0-.49,0-.49.49-.49,18.08,5.5,32.43,21,41.28,37,27.62,49.73,36.07,131.4,36.07,188.61,0,144.57-16.12,170.33-50.32,256.23-30.37,55.43-57.4,97.79-107.23,150.18-25.26,26.53-86.79,69.29-87.28,69.78-97.3,63.3-222.52,120.11-340.66,93.27-25.26-5.7-49.53-17.88-66.44-33.71-153.23-142.61-86.29-419.29-37.35-594,15-53.66,35.88-101.53,51.7-137.3,63.4-143,132.69-262.43,287.78-363.17,93.08-60.35,226.06-64.18,311.17-31.15,202.47,78.43,302.23,303.5,394.33,482.77,50.81,109.5,50.81,109.5,70.76,156.57" transform="translate(5 4.05)"/></g><g id="g171"><path id="path167" class="cls-5" d="M1207.05,231.63c14.35.09,8.15-.2,18.47.39,6.29,1.47,22.51,2.56,26,14,1.38,4.52,3.93,5.21-16.9,55.63-6.49,15.72-12.78,37.74-20.64,70.37-4.13-1.38-43.64-43.05-67.23-60.74-12.19-9.83-57.4-41.48-68.11-47.38-4.23-2.35,82.26-26.34,82.26-26.34a229.15,229.15,0,0,1,34.7-5.3c3.83-.3,7.66-.4,11.5-.59Z" transform="translate(5 4.05)"/><path id="path169" class="cls-5" d="M1078.59,263.86c-4.23-2.35,82.26-26.34,82.26-26.34s30.86-8,64.67-5.5c6.29,1.47,22.51,2.56,26,14,1.38,4.52,3.93,5.21-16.9,55.63-6.49,15.72-12.78,37.74-20.64,70.37-4.13-1.38-43.64-43.05-67.23-60.74-12.19-9.83-57.4-41.48-68.11-47.38Z" transform="translate(5 4.05)"/></g><g id="g177"><path id="path173" class="cls-5" d="M1050.77,725.61c12.78.2,25.46,2.06,38,4.13,41.28,3.93,44.62,13.37,40.49,15.72-19.26,11.11-17.59,8.85-37.25,25.85-14.54,12.58-36,41.77-36.27,36.47s-3.73-29.59-6.29-44.33-8.25-31.55-9.14-34.69C1039.86,725.32,1049,725.71,1050.77,725.61Z" transform="translate(5 4.05)"/><path id="path175" class="cls-5" d="M1040.35,728.76c1,3.24,6.59,20,9.14,34.69s6,39.12,6.3,44.33,21.81-24,36.26-36.47c19.66-17,18-14.74,37.25-25.85,4.13-2.35.79-11.79-40.49-15.72C1067.19,726.1,1038.68,723.15,1040.35,728.76Z" transform="translate(5 4.05)"/></g></g><g id="Anelli"><path id="Rosso" class="cls-6" d="M1747.23,459.26h5.5l2.65.09h2.26l4.52.1,4.53.1,4.42.2,4.42.19,4.33.3,4.22.29,4.23.3,4.13.39,4,.4,4,.49,3.93.49,3.93.49,3.83.59,3.74.59,3.73.69,3.64.68,3.54.69,3.53.79,3.44.79,3.35.88,3.34.88,3.24.89,3.15,1,3.14,1,3,1.09,3.05,1.08,2.94,1.08,2.85,1.18,2.85,1.18,2.76,1.27,2.65,1.28,2.65,1.28,2.56,1.38,2.46,1.37,2.45,1.48,2.36,1.47,2.26,1.48,2.26,1.57,2.17,1.57,2.06,1.67,2.06,1.67,2,1.67,1.87,1.77,1.86,1.77,1.77,1.87,1.67,1.87,1.68,1.86,1.57,2,1.47,2,1.48,2.07,1.37,2.06,1.28,2.17,1.18,2.16,1.18,2.16,1.08,2.26,1,2.26,1,2.36.88,2.36.79,2.36.78,2.45.69,2.46.59,2.56.59,2.55.3,1.28h0l.19,1.18.4,2.36.39,2.36.29,2.36.3,2.36.29,2.45.2,2.46.2,2.46.19,2.45.1,2.46.1,2.46.1,2.46v10.12l-.1,2.55-.1,2.56-.2,3.83-.39,5.11-.49,5.21-.59,5.21-.69,5.21-.78,5.21L1920,622l-1,5.3-1.08,5.31-1.18,5.31-1.28,5.31-1.38,5.3-1.47,5.31-1.47,5.41-1.58,5.4-1.67,5.41-1.77,5.4-1.77,5.31-1.86,5.31-2,5.31-2,5.3-2.06,5.31-2.06,5.31-2.17,5.31-2.16,5.21-2.26,5.21-2.26,5.2-2.36,5.21-2.36,5.11-2.45,5.12-2.46,5.11-2.46,5-2.55,5-2.56,4.92-2.55,4.91-2.56,4.82-2.65,4.81L1858,783l-2.65,4.72-2.65,4.62-2.66,4.52-2.65,4.52-2.66,4.42-2.65,4.33-2.65,4.32-2.66,4.23-2.65,4.13-2.65,4-2.66,4-2.65,3.94-2.56,3.83-2.55,3.73-2.56,3.64-2.55,3.54-2.46,3.44-1.18,1.67h0l-2.75,3.73-5.5,7.47-5.51,7.38-5.5,7.37-5.61,7.27-5.6,7.27-5.6,7.18-5.6,7.17-5.6,7.08-5.7,7-5.71,7-5.7,6.88-5.7,6.88-5.7,6.78-5.7,6.78-5.7,6.68-5.7,6.69-5.7,6.58-5.7,6.59-5.7,6.48-5.7,6.39-5.7,6.39-5.7,6.29-5.7,6.29-5.7,6.19-5.7,6.2-5.71,6.09-5.7,6.09-5.7,6-5.7,5.9-5.7,5.89-5.7,5.8-5.7,5.8-5.7,5.7-5.7,5.7-5.7,5.6-5.7,5.51-5.6,5.5-5.61,5.41-5.6,5.4-5.6,5.31-5.6,5.31-5.6,5.21-5.51,5.11-5.5,5.11-5.51,5-5.5,5-5.5,4.92-5.41,4.91-5.41,4.82-5.4,4.72-5.31,4.71-5.31,4.62-5.3,4.62-5.31,4.52-5.21,4.53-5.21,4.42-5.11,4.32-5.11,4.33-5.11,4.22-5,4.23-5,4.13-5,4-4.91,4-4.92,3.93-4.81,3.93-4.82,3.83-4.72,3.74-4.72,3.73-4.71,3.64-4.62,3.64-4.62,3.53-4.52,3.54-4.53,3.44-4.42,3.34-4.32,3.35-4.33,3.24-4.22,3.14-4.23,3.15-4.13,3.05-4.13,3-4,3-3.93,2.85-3.93,2.85-3.83,2.75-3.83,2.76-3.74,2.65-3.64,2.56-3.63,2.55-3.54,2.46-3.44,2.46-3.34,2.35-3.34,2.27-3.25,2.26-3.14,2.16-3.15,2.16-3,2.06-3,2-2.85,2-2.85,1.86-2.76,1.77-2.65,1.77-2.56,1.67-2.45,1.67-2.36,1.58-2.36,1.47-2.26,1.47-1.57,1.09-1.08.68-1,.69-1,.69-1,.59-1,.59-1,.59-.88.59-.89.59-.88.59-.89.49-.78.49-.79.49-.79.49-.78.49-.79.5-.69.49-.68.39-.69.39-.69.4-.59.39-.59.39-.59.4-.59.29-.49.3-.49.29-.49.3-.49.29-.4.3-.39.19-.39.2-.4.2-.29.19-.3.2-.29.19-.2.1-.2.1-.19.1-.2.1-.1.1-.09.09h-.1l-8.16,4.92-16.41,9.83-16.52,9.83-16.51,9.73-16.51,9.73-12.38,7.17-8.26,4.82-8.26,4.72-8.15,4.71-8.16,4.72-8.16,4.62-8.06,4.62-8.06,4.62-8,4.52-8,4.52-7.86,4.42-7.77,4.43-7.76,4.32-7.67,4.33-7.57,4.22-5.6,3.15-3.73,2.06-3.74,2.07-3.64,2.06-3.63,2.06-3.64,2.07-3.64,2-3.53,2-3.54,2-3.54,2-3.44,2-3.44,1.86-3.44,1.87-3.44,1.87-3.34,1.87-3.34,1.86-3.35,1.77-3.24,1.77-3.24,1.77-3.15,1.77-3.14,1.77-3.15,1.67-3,1.67-3.05,1.67-3,1.67-3,1.67-2.95,1.58-2.85,1.57L979,1523.1l-2.85,1.57-2.75,1.48-2.75,1.47L968,1529.1l-2.66,1.47-2.55,1.38-2.56,1.37-2.46,1.38-2.45,1.37-2.46,1.28-2.36,1.28-2.36,1.28-2.26,1.18-2.26,1.18-2.16,1.18-2.16,1.18-2.07,1.08-2,1.08-2,1.08-1.87,1-1.86,1-1.77,1-1.77,1-1.67.88-1.67.89-1.58.88-1.47.79-1.47.79-1.38.78-1.38.69-1.27.69-1.18.69-1.18.59-1.08.59-1,.59-1,.49-.88.49-.79.49-.79.39-.69.4-.59.29-.58.3-.5.29-.39.2-.39.19-.3.2-.19.1-.2.1h-.1l-.29.1c-.3.19-.2.09-.4.19a8.06,8.06,0,0,1-1.57.59,7.6,7.6,0,0,1-1.38.49,7.12,7.12,0,0,1-1.47.4,6.57,6.57,0,0,1-1.47.29,4.54,4.54,0,0,1-1.38.2,4.76,4.76,0,0,1-1.57.1h-1.48c-.29,0-.19,0-.29-.1-.59-.1-.3,0-.79-.3s-.39,0-.49-.29-.2,0-.1-.4c-.1-.39-.1-.19.1-.49s0-.09.49-.59a2.35,2.35,0,0,1,.69-.68c.2-.1.1-.1.29-.2l.2-.1h0l.1-.1.1-.1.19-.09.2-.1.3-.2.29-.2.39-.19.4-.2.39-.29.49-.3.49-.29.59-.4.59-.39.69-.39.69-.4.69-.49.78-.49.79-.49.88-.49.89-.59.88-.59,1-.59,1-.59,1.08-.69,1.08-.69,1.08-.68,1.18-.69,1.18-.79,1.18-.78,1.28-.79,1.28-.79,1.37-.78,1.38-.89,1.37-.88,1.48-.89,1.47-.88,1.48-1,1.57-1,1.57-1,1.57-1,1.68-1,1.67-1.08,1.67-1.08,1.77-1.08,1.77-1.08,1.76-1.18L939,1534l1.87-1.18,1.87-1.18,2-1.18,2-1.28,2-1.27,2-1.28,2.06-1.28,2.07-1.28,2.06-1.27,2.16-1.38,2.17-1.38,2.16-1.37,2.16-1.38,2.26-1.37,2.26-1.48,2.26-1.47,2.26-1.48,2.36-1.47,2.36-1.48,2.36-1.47,2.46-1.57,2.45-1.58,2.46-1.57,2.46-1.57,2.46-1.57,2.55-1.58L999,1496l2.55-1.67,2.56-1.67,3.93-2.55,5.31-3.44,5.4-3.44,5.51-3.54,5.6-3.64,5.6-3.63,5.7-3.74,5.8-3.73,5.8-3.84,5.9-3.83,6-3.93,6-3.93,6.09-4,6.09-4,6.2-4.13,6.19-4.13,6.29-4.13,6.29-4.22,6.39-4.23,6.39-4.32,6.48-4.33,6.49-4.32,6.49-4.43,6.58-4.42,6.59-4.42,6.58-4.52,6.59-4.52,6.68-4.52,6.68-4.53,10-6.88,13.37-9.23,13.46-9.34,13.47-9.44,13.46-9.43,13.37-9.54,13.36-9.53,13.27-9.63,13.17-9.63,13.08-9.64,9.73-7.17,6.38-4.82,6.39-4.81,6.39-4.82,6.29-4.82,6.29-4.81,6.19-4.72,6.2-4.72,6.09-4.71,6-4.72,6-4.72,5.9-4.72,5.89-4.72,5.8-4.62,5.7-4.61,5.61-4.62,5.6-4.62,5.5-4.62,5.41-4.52,5.31-4.52,5.2-4.53,5.21-4.42,5.11-4.42,5-4.42,4.91-4.33,4.82-4.32,4.72-4.33,4.61-4.22,4.53-4.23,3.34-3.15,2.16-2.06,2.16-2.06,2.07-2.07,2.06-2.06,2.06-2.07,2.07-2.06,2-2.06,2-2,2-2,1.86-2,1.87-2,1.87-2,1.77-2,1.77-2,1.77-2,1.76-1.87,1.68-1.86,1.67-1.87,1.67-1.87,1.57-1.87,1.57-1.86.79-.89.29-.29,2.17-2,4.22-4,4.23-4,4.22-4,4.13-4,4.13-4,4-4,4-4,6-6.09,5.89-6.09,3.93-4,3.84-4,3.83-4,3.83-4,3.74-4,3.73-4,3.64-4,3.64-4,3.63-4,3.54-4,3.54-4,3.54-4,3.44-3.93,3.44-3.93,3.44-3.94,3.34-3.93,3.34-3.93,3.24-3.93,3.25-3.93,3.24-3.93,3.15-3.93,3.14-3.84,3.15-3.83,3-3.83,3-3.84,3-3.83,3-3.83,2.94-3.84,3-3.73,2.85-3.74,2.85-3.73,2.76-3.74,2.75-3.73,2.75-3.64,2.65-3.63,2.66-3.64,2.65-3.64,2.56-3.63,2.55-3.54,2.56-3.54,2.45-3.54,2.46-3.54,2.46-3.44,2.36-3.44,2.36-3.44,2.35-3.44,2.27-3.34,2.26-3.34,2.26-3.34,2.16-3.24,2.16-3.25,2.16-3.24,2.07-3.15,2.06-3.14,2.07-3.15,2-3.14,2-3,1.86-3.05,1.87-2.94,1.87-3,1.77-3,1.77-2.85,1.77-2.85,1.67-2.85,1.67-2.75,1.67-2.76,1.57-2.75,1.57-2.65,1.58-2.66,1.47-2.55,1.48-2.56,1.47-2.45,1.38-2.46,1.37-2.46,1.38-2.36,1.28-2.36,1.27-2.26,1.28-2.26,1.18-2.16,1.18-2.16,1.18-2.07,1.08-2.06,1.08-2,1.08-2,1.08-2,1-1.86,1-1.77,1-1.77.89-1.67.88-1.67.89-1.58.78-1.57.79-1.47.78-1.48.69-1.37.69-1.38.69-1.28.59-1.28.59-1.17L1782,757l.49-1.08.49-1,.49-1,.4-.89.39-.78.39-.79.3-.69.29-.69.3-.59.19-.49.2-.49.2-.39.19-.3.1-.29.1-.2.1-.1v-.29l.1-.2.09-.19.1-.3.1-.29.2-.4.19-.39.2-.49.2-.49.19-.59.3-.59.29-.69.3-.69.29-.78.3-.79.29-.89.4-.88.39-1,.39-1,.39-1,.4-1.08.39-1.08.39-1.18.4-1.18.49-1.18.49-1.28.49-1.27.49-1.28.49-1.38.5-1.37.49-1.48.49-1.47.49-1.48.49-1.57.79-2.36,1.08-3.24,1.08-3.34,1.08-3.44,1.08-3.54,1.08-3.64,1.08-3.73,1.09-3.84,1.08-3.93,1.08-4,1.08-4.13,1-4.12,1-4.23,1-4.23.88-4.32.89-4.33.78-4.42.79-4.42.69-4.42.69-4.53.59-4.52.59-4.52.49-4.52.39-4.52.29-4.52.2-4.52.2-4.42.1-4.43v-4.42l-.1-4.42-.2-3.25-.2-2.16-.19-2.16-.2-2.16-.19-2.17-.3-2.16-.29-2.06-.3-2.07-.39-2.06-.4-2.06-.39-2.07-.49-2.06-.49-2-.49-2-.59-2-.59-2-.59-2-.69-1.87-.69-1.87-.69-1.86-.78-1.87-.79-1.77-.79-1.77-.88-1.77-.88-1.77-1-1.67-1-1.67-1-1.67-1.08-1.57-1.09-1.57-1.17-1.58-1.18-1.47-.59-.79-.89-1-1.77-2.06-1.77-2.07-1.86-2-2-2-2-2-2.06-2-2.16-1.87-2.16-1.87-2.26-1.86-2.36-1.77-2.46-1.77-2.56-1.77-2.65-1.67-2.75-1.67-2.85-1.67-2.16-1.18-1.48-.79-1.47-.79-1.58-.78-1.57-.79-1.57-.78-1.67-.79-1.67-.69L1750,495l-1.77-.69-1.77-.68-1.77-.69-1.77-.69-1.87-.69-1.86-.69-1.87-.58-2-.59-2-.59-2-.59-2.06-.59-2.07-.59-2.16-.59-2.16-.59-2.16-.49-2.26-.5-2.27-.49-2.26-.49-2.35-.49-2.36-.49-2.46-.49-2.46-.4-2.55-.39-1.28-.2h0l-1.28-.19-2.55-.4-2.56-.39-2.46-.39-2.36-.39-2.26-.3-2.26-.29-2.16-.3-2.06-.29-2.07-.3-2-.29-1.87-.2-1.87-.2-1.77-.19-1.77-.2-1.67-.2-1.57-.19-1.57-.2-1.48-.1-1.47-.1-1.38-.09-1.27-.1-1.28-.1-1.18-.1-1.18-.1-1.08-.1-1.08-.09h-10.52l-.2.09h-.29c-2.26.4-5.6,1.38-7.67,0-.1-.09-.1-.29-.19-.39-.1-.69.88-1.67,2.55-2.55h0l.69-.3,1-.49,1.18-.49,1.28-.4,1.38-.39,1.27-.29,1.28-.3h.2l.39-.1.79-.19.88-.2.89-.2,1-.19,1.08-.2,1.08-.2,1.18-.19,1.18-.3,1.28-.29,1.37-.3,1.38-.29,1.47-.3,1.48-.29,1.57-.3,1.57-.29,1.67-.3,1.68-.29,1.76-.3,1.77-.29,1.87-.3,1.87-.29,2-.3,2-.29,2.06-.3,2.07-.29,2.06-.29,2.16-.3,2.17-.29,2.26-.3,2.26-.29,2.26-.3,2.36-.29,2.36-.3,2.35-.29,2.46-.3,2.46-.2,3.73-.29,5-.39,5.11-.4,5.21-.29,5.3-.3,5.41-.19,5.41-.1Zm-105.86,17.49Z" transform="translate(5 4.05)"/><path id="Bianco" class="cls-3" d="M1664.76,326l5.31.1,2.56.1h2.26l4.42.1,4.42.19,4.33.2,4.22.2,4.23.29,4.13.3,4.13.39,4,.39,3.93.39,3.93.5,3.83.49,3.83.59,3.74.59,3.64.68,3.63.69,3.54.69,3.44.79,3.44.78,3.34.89,3.34.88,3.25,1,3.14,1,3.15,1,3,1.08,3,1.08,3,1.18,2.85,1.18,2.75,1.28,2.76,1.28,2.65,1.28,2.65,1.37,2.56,1.38,2.46,1.47,2.45,1.48,2.36,1.57,2.26,1.57,2.26,1.57,2.17,1.67,2.06,1.68,2.06,1.76,2,1.77,1.87,1.87,1.86,1.87,1.77,1.87,1.67,2,1.68,2,1.57,2.06,1.47,2.07,1.48,2.16,1.37,2.16,1.28,2.16,1.28,2.26,1.18,2.26,1.08,2.36,1.08,2.36,1,2.46.89,2.46.88,2.55.79,2.56.69,2.55.68,2.66.59,2.65.49,2.75.2,1.38h0l.2,1.27.39,2.56.39,2.56.3,2.55.29,2.56.3,2.55.2,2.56.19,2.65.2,2.65.1,2.66.1,2.65.09,2.66V456.7l-.09,2.75-.1,2.75-.2,4.13-.39,5.51-.49,5.5-.59,5.6-.69,5.61-.79,5.6-.88,5.6-1,5.7-1.08,5.7-1.18,5.7-1.18,5.7-1.27,5.7-1.38,5.7-1.47,5.7-1.58,5.7-1.57,5.71-1.67,5.7-1.77,5.7-1.77,5.7-1.87,5.7-2,5.7-2,5.7-2.06,5.6-2.06,5.6-2.17,5.61-2.16,5.6-2.26,5.5-2.26,5.51-2.36,5.5-2.36,5.41-2.36,5.4-2.45,5.41-2.46,5.3-2.46,5.31-2.46,5.21-2.55,5.21-2.56,5.11-2.55,5-2.56,5-2.55,4.91-2.56,4.91-2.55,4.82-2.56,4.72-2.55,4.62-2.56,4.62-2.56,4.52-2.55,4.42-2.56,4.33-2.55,4.22-2.56,4.13-2.55,4.13-2.46,4-2.46,3.93-2.45,3.83-2.46,3.74-1.18,1.77h0l-2.65,4-5.31,8-5.41,7.86-5.4,7.86-5.41,7.77-5.4,7.76-5.41,7.67-5.5,7.57-5.51,7.56-5.5,7.47-5.51,7.47-5.5,7.37-5.5,7.38-5.51,7.27-5.6,7.17-5.6,7.18-5.6,7.08-5.61,7.07-5.6,7-5.6,6.88-5.6,6.88-5.61,6.78-5.6,6.78-5.6,6.69-5.6,6.58-5.6,6.59-5.61,6.48-5.6,6.49-5.6,6.39-5.6,6.29-5.61,6.29-5.6,6.19-5.5,6.19-5.51,6.1-5.5,6-5.5,6-5.51,5.9-5.5,5.89-5.51,5.8-5.5,5.7-5.41,5.7-5.4,5.61-5.41,5.6-5.4,5.5-5.41,5.41-5.31,5.4-5.3,5.31-5.31,5.31-5.31,5.21-5.21,5.11-5.21,5.11-5.21,5-5.2,4.92-5.12,4.91-5.11,4.82-5.11,4.81-5,4.72-5,4.62-5,4.62-4.92,4.52-4.91,4.42-4.92,4.43-4.81,4.32-4.82,4.32-4.72,4.23-4.72,4.13-4.71,4.13-4.62,4-4.62,3.93-4.52,3.93-4.52,3.83-4.43,3.84-4.42,3.73-4.32,3.64-4.33,3.63-4.23,3.54-4.22,3.44-4.13,3.44-4.13,3.34-4,3.25-3.93,3.24-3.93,3.15-3.83,3-3.84,3-3.73,3-3.64,3-3.63,2.85-3.54,2.75-3.54,2.75-3.44,2.65-3.34,2.56-3.34,2.56-3.25,2.45-3.14,2.36-3,2.36-3,2.26-3,2.16-2.85,2.17-2.75,2.06-2.75,2-2.65,2-2.56,1.87-2.46,1.77-2.45,1.77-2.36,1.67-2.26,1.57-1.67,1.18-1.08.79-1.09.78-1,.69-1,.69-1,.69-1,.68-1,.69-.88.69-.89.59-.88.59-.89.59-.78.59-.79.59-.79.59-.78.49-.79.49-.69.49-.69.49-.68.5-.69.39-.59.39-.59.39-.59.4-.59.39-.49.39-.49.3-.49.29-.5.3-.39.29-.39.3-.4.29-.39.2-.29.2-.3.19-.29.2-.3.2-.2.19-.19.1-.2.1-.19.1-.1.1-.1.09h-.1l-8,5.21-15.92,10.52-16,10.42-16.12,10.42-16.12,10.32-12.09,7.66-8.06,5.11-8,5.11-8,5-8,5-7.87,5-7.86,4.92-7.86,4.91-7.77,4.82-7.76,4.81-7.67,4.72-7.57,4.72-7.56,4.62-7.47,4.62-5.51,3.44-3.63,2.26-3.64,2.26-3.64,2.26-3.63,2.16-3.54,2.16-3.54,2.17-3.54,2.16L986,1419.9l-3.44,2.16-3.44,2.07-3.44,2.06-3.34,2.06-3.34,2.07-3.34,2.06-3.34,2-3.25,2-3.24,2-3.24,2-3.15,2-3.14,1.87-3.15,1.87-3,1.86-3,1.87-3,1.77-3,1.77-2.95,1.77-2.85,1.77-2.85,1.67-2.85,1.67-2.75,1.67-2.75,1.67-2.65,1.57-2.66,1.58-2.65,1.57-2.56,1.57L901,1471.2l-2.46,1.48-2.46,1.47-2.36,1.48-2.36,1.37-2.26,1.38-2.26,1.38-2.16,1.27-2.16,1.28-2.06,1.28-2.07,1.18-2,1.18-2,1.18-1.87,1.08-1.87,1.08-1.76,1.08-1.77,1.08-1.67,1-1.68,1-1.57,1-1.57.88-1.47.89-1.38.79-1.38.78-1.27.79-1.28.69-1.18.68-1.08.69-1.08.59-1,.59-1,.59-.88.49-.79.49-.79.4-.68.39-.59.39-.59.3-.5.29-.39.2-.39.2-.3.19-.19.1-.1.1h-.1l-.29.1a1.32,1.32,0,0,1-.4.19,5.16,5.16,0,0,1-1.47.59,3.81,3.81,0,0,1-1.38.5,6.31,6.31,0,0,1-1.47.39c-1.18.29-.69.2-1.48.39a4.65,4.65,0,0,1-1.47.2,5.11,5.11,0,0,1-1.57.2h-2a1.55,1.55,0,0,1-.88-.3c-.59-.2-.5,0-.59-.29-.3-.1-.2,0-.2-.4-.2-.39-.2-.19,0-.49,0-.29,0-.1.39-.59s.1-.29.59-.69c.1-.1,0-.1.3-.19l.19-.1h0l.1-.1.1-.1.2-.1.19-.09.3-.2.29-.2.3-.19.39-.3.39-.29.5-.3.49-.29.59-.4.59-.39.59-.39.68-.49.69-.5.79-.49.79-.49.78-.59.89-.59.88-.59,1-.59,1-.69,1-.68,1.08-.69,1.08-.79,1.08-.78,1.18-.79,1.18-.79,1.28-.88,1.28-.89,1.27-.88,1.38-.89,1.38-.88,1.37-1,1.48-1,1.47-1,1.48-1,1.57-1.08,1.57-1.08,1.57-1.08,1.67-1.09,1.68-1.18,1.67-1.17,1.77-1.18,1.76-1.18,1.77-1.18,1.77-1.28,1.87-1.28,1.87-1.28,1.86-1.27,2-1.38,2-1.38,2-1.37,2-1.38,2.06-1.37,2.07-1.48,2.06-1.47,2.16-1.48,2.16-1.47,2.17-1.48,2.16-1.57,2.26-1.57,2.26-1.57,2.26-1.58,2.26-1.57,2.36-1.67,2.36-1.67,2.36-1.67,2.36-1.67,2.45-1.67,2.46-1.67,2.46-1.77,2.46-1.77,2.45-1.77,2.56-1.77,3.83-2.65,5.21-3.64,5.21-3.74,5.31-3.73,5.4-3.83,5.51-3.93,5.5-3.94,5.6-4,5.7-4,5.7-4.12,5.8-4.13,5.9-4.23,5.9-4.22,6-4.33,6-4.32,6.09-4.43,6.1-4.42,6.19-4.52,6.19-4.52,6.29-4.62,6.29-4.62,6.29-4.62,6.39-4.72,6.39-4.71,6.39-4.72,6.38-4.82,6.49-4.81,6.49-4.82,6.48-4.91,9.74-7.38,13.07-9.92,13.07-10,13.07-10,13.07-10.13,13.08-10.12,13-10.22,12.87-10.22,12.78-10.23,12.68-10.22,9.44-7.66,6.29-5.11,6.19-5.12L1266,1184l6.09-5.11,6.1-5.11,6-5.11,6-5.11,5.9-5.11,5.89-5,5.8-5,5.8-5,5.7-5,5.6-5,5.61-4.92,5.5-4.91,5.41-4.92,5.3-4.91,5.31-4.82,5.21-4.81,5.11-4.82,5-4.81,4.92-4.72,4.81-4.72,4.72-4.72,4.72-4.62,4.62-4.62,4.52-4.52,4.42-4.52,3.25-3.34,2.06-2.26,2.06-2.26,2.07-2.16,2.06-2.17,2-2.16,2-2.16,2-2.16,1.87-2.16,1.86-2.17,1.87-2.16,1.87-2.06,1.77-2.07,1.77-2.06,1.77-2.07,1.67-2.06,1.67-2.06,1.67-2.07,1.57-2.06,1.57-2,1.58-2,1.47-2,.79-1c.09-.1.19-.2.19-.3l2.07-2.16,4.12-4.32,4.13-4.33,4-4.32,4-4.33,4-4.32,5.9-6.49,7.76-8.65,5.7-6.48,3.84-4.33,3.73-4.32,3.74-4.33,3.63-4.32,3.64-4.33,3.64-4.32,3.54-4.33,3.53-4.32L1517,929l3.44-4.22,3.44-4.23,3.44-4.23,3.34-4.22,3.35-4.23,3.34-4.23,3.24-4.22,3.24-4.23,3.25-4.22,3.14-4.23,3.15-4.13,3.14-4.13,3-4.12,3.05-4.13,2.94-4.13,3-4.13,3-4,2.85-4,2.85-4,2.85-4,2.75-4,2.76-4,2.75-3.93,2.65-3.93,2.66-3.93,2.65-3.93,2.56-3.84,2.55-3.83,2.56-3.83,2.45-3.83,2.46-3.84,2.46-3.73,2.36-3.74,2.36-3.73,2.35-3.64,2.26-3.64,2.27-3.63,2.26-3.64,2.16-3.54,2.16-3.54,2.16-3.53,2.07-3.44,2.06-3.44,2.06-3.44,2-3.35,2-3.34,2-3.34,1.87-3.24,1.87-3.25,1.86-3.24,1.77-3.14,1.77-3.15,1.77-3,1.67-3,1.67-3,1.67-3,1.58-2.95,1.57-2.85,1.57-2.85,1.48-2.85,1.47-2.75,1.47-2.75,1.38-2.66,1.38-2.65,1.37-2.55,1.28-2.56,1.28-2.46,1.28-2.45,1.18-2.36,1.17-2.36,1.18-2.26,1.09-2.26,1.08-2.17,1.08-2.16,1.08-2.06,1-2.07,1-2,1-2,.88-1.86.89-1.87.88-1.77.79-1.77.78-1.67.79-1.57.69-1.58.69-1.47.68-1.48.59-1.37.59-1.28.59-1.28.59-1.18.49-1.18.5-1.08.49-1,.39-1,.39-.89.4-.78.29-.79.3-.69.29-.59.2-.59.19-.49.2-.39.2-.39.1-.3.09-.2.1-.09v-.3l.1-.2.1-.19.1-.3.1-.29.19-.4.2-.49.19-.49.2-.59.2-.59.19-.69.3-.68.29-.79.3-.79.29-.88.3-.89.29-1,.4-1,.39-1.08.39-1.08.4-1.18.39-1.18.39-1.18.4-1.28.39-1.28.49-1.37.49-1.38.49-1.37.49-1.48.5-1.47.49-1.58.49-1.57L1712,603l.49-1.67.79-2.56,1.08-3.44,1.08-3.54,1.08-3.73,1.08-3.83,1.08-3.93,1.09-4,1.08-4.13,1.08-4.23,1.08-4.32,1-4.33,1-4.42,1-4.52.88-4.52.89-4.62.88-4.62.79-4.72.78-4.72.69-4.72.69-4.81.59-4.82.49-4.81.49-4.82.4-4.82.29-4.81.2-4.82.09-4.81.1-4.72v-4.72l-.1-4.72-.19-3.53-.1-2.36-.2-2.26-.19-2.26-.2-2.27-.29-2.26-.3-2.26-.29-2.26-.3-2.16-.39-2.16-.4-2.16-.39-2.17-.49-2.16-.49-2.16-.49-2.06-.59-2.07-.59-2.06-.59-2.07-.69-2-.69-2-.69-2-.78-2-.79-1.87-.88-1.86-.89-1.87-.88-1.77-1-1.77-1-1.77-1.08-1.67-1.08-1.67-1.08-1.67-1.18-1.67-.59-.79-.79-1.08-1.67-2.16-1.77-2.16-1.86-2.07-1.87-2.06-2-2.07-2-2-2.07-2-2.16-2-2.26-1.87-2.26-1.87-2.36-1.87-2.46-1.77-2.55-1.76-2.66-1.77-2.75-1.67-2.85-1.68-3-1.67-2.26-1.18-1.57-.78-1.57-.79-1.57-.78-1.68-.79-1.67-.79-1.67-.78-1.77-.69-1.77-.69-1.76-.69-1.87-.69-1.87-.68-1.87-.69-2-.69-2-.69-2-.69-2.07-.68-2.06-.59-2.07-.59-2.16-.59-2.16-.59-2.16-.59-2.26-.59-2.26-.59-2.36-.59-2.36-.59-2.36-.49-2.46-.49-1.28-.3h0l-1.27-.29-2.46-.49-2.36-.5-2.36-.49-2.26-.39-2.16-.39-2.16-.4-2.07-.39-2.06-.39-2-.3-2-.29-1.87-.3-1.87-.29-1.77-.3-1.77-.19-1.67-.2-1.67-.2-1.57-.19-1.57-.2-1.48-.2-1.47-.1-1.38-.09-1.37-.1-1.28-.1-1.28-.1-1.18-.1-1.18-.1-1.08-.09h-11.6l-.78.09-.59.1h-1.18c-4.23,1-7.57.69-7.47-.68.1-1.18,2.55-2.66,5.9-3.74h0l.59-.2.78-.19.89-.2,1-.2.49-.09h.2l.59-.1.68-.1.79-.2.79-.19.88-.2,1-.2,1-.19,1.08-.2,1.18-.2,1.18-.19,1.28-.3,1.37-.29,1.38-.3,1.47-.29,1.48-.3,1.57-.29,1.67-.3,1.67-.29,1.77-.3,1.77-.29,1.87-.3,1.86-.29,2-.3,2-.29,2-.3,2.06-.29,2.07-.3,2.16-.29,2.16-.3,2.16-.29,2.27-.3,2.26-.29,2.36-.3,3.53-.39,4.82-.49,4.91-.49,5-.49,5.11-.4,5.21-.39,5.21-.29,5.3-.2,5.31-.2,5.41-.1Z" transform="translate(5 4.05)"/><path id="Verde" class="cls-7" d="M1568.84,193h5.4l2.66.1h3.34l4.22.1,4.23.19,4.13.2,4.13.29,4,.3,3.93.29,3.93.4,3.83.39,3.83.49,3.74.49,3.64.59,3.63.59,3.54.69,3.54.69,3.44.69,3.34.78,3.34.79,3.25.88,3.24.89,3.14,1,3.05,1,3,1.09,3,1.08,2.95,1.08,2.85,1.18,2.75,1.18,2.75,1.27,2.65,1.28,2.66,1.38,2.55,1.37,2.46,1.48,2.46,1.47,2.36,1.58,2.26,1.57,2.26,1.57,2.16,1.67,2.16,1.67,2.07,1.77,2,1.77,2,1.87,1.86,1.87,1.77,2,1.77,2,1.67,2.06,1.67,2.06,1.58,2.17,1.47,2.16,1.48,2.16,1.37,2.26,1.28,2.26,1.28,2.36,1.18,2.36,1.18,2.46,1.08,2.45,1,2.56,1,2.56.89,2.65.78,2.65.79,2.76.69,2.75.59,2.85.59,2.85.49,2.85.2,1.47h0l.19,1.38.4,2.65.29,2.66.29,2.75.3,2.75.29,2.75.2,2.75.2,2.76.19,2.75.1,2.75.1,2.85.1,2.85v11.4l-.1,4.33-.2,5.79-.39,5.8-.49,5.9-.59,5.9-.69,5.9-.78,6-.79,6-.89,6-1,6-1.08,6-1.18,6.1-1.28,6.09-1.27,6.09-1.38,6.1-1.47,6.09-1.58,6.09-1.57,6.1-1.67,6.09-1.77,6.1-1.77,6.09-1.87,6-1.86,6-2,6-2,6-2.07,6-2.06,5.89-2.17,5.9-2.16,5.9-2.26,5.8-2.26,5.8-2.26,5.7-2.26,5.7-2.36,5.7-2.36,5.6-2.36,5.5-2.36,5.51-2.45,5.4-2.46,5.41-2.46,5.31-2.45,5.21-2.46,5.2-2.46,5.12-2.46,5-2.45,4.91-2.46,4.92-2.46,4.81-2.45,4.72-2.46,4.62-2.46,4.52-2.46,4.42-2.35,4.33-2.36,4.22-2.36,4.13-2.36,4-2.36,3.93-1.18,1.87h0l-2.55,4.23-5.12,8.45-5.11,8.35-5.11,8.36-5.21,8.25-5.21,8.26-5.2,8.16-5.21,8.06-5.21,8.06-5.21,8-5.31,7.86-5.31,7.86-5.3,7.77-5.31,7.76-5.31,7.67-5.31,7.57-5.3,7.57-5.31,7.47-5.31,7.37-5.31,7.37-5.3,7.27-5.31,7.27-5.31,7.18-5.31,7.08-5.3,7.07-5.31,7-5.31,6.88-5.31,6.88-5.3,6.78-5.31,6.78-5.31,6.69-5.31,6.58-5.3,6.59-5.31,6.48-5.31,6.39-5.31,6.39-5.3,6.29-5.21,6.19-5.21,6.2-5.21,6.09-5.21,6-5.21,6-5.21,5.9-5.11,5.8-5.11,5.8-5.11,5.7-5.11,5.7-5.11,5.6-5,5.5-5,5.51-5,5.4-5,5.31-4.92,5.31-4.91,5.21-4.92,5.11-4.81,5.11-4.82,5-4.81,4.92-4.72,4.91-4.72,4.82-4.72,4.71-4.62,4.72-4.62,4.62-4.62,4.52-4.52,4.52-4.52,4.43-4.42,4.32-4.42,4.33-4.43,4.22-4.32,4.13-4.33,4.13-4.22,4-4.23,3.93-4.13,3.93-4.12,3.83-4,3.74-4,3.73-3.93,3.64-3.94,3.54-3.83,3.44-3.83,3.44-3.74,3.34-3.73,3.24-3.64,3.25-3.54,3.14-3.54,3-3.44,3-3.44,2.94-3.34,2.85-3.24,2.85-3.24,2.76-3.15,2.65-3,2.65-3,2.56-3,2.46-2.85,2.36-2.85,2.35-2.75,2.26-2.66,2.17-2.55,2.16-2.56,2.06-2.46,2-2.35,2-2.26,1.87-2.27,1.77-1.57,1.28-1.08.88-1.08.79-1,.79-1,.78-1,.79-1,.79-1,.68-.89.69-.88.69-.89.69-.88.68-.79.69-.79.59-.78.59-.79.59-.78.59-.69.59-.69.49-.69.49-.69.5-.68.49-.59.49-.59.49-.59.39-.59.4-.49.39-.5.39-.49.4-.49.29-.39.3-.4.29-.39.3-.39.29-.39.3-.3.19-.29.2-.3.19-.29.2-.2.2-.2.19-.19.1-.2.1-.1.1-.1.1h-.1L1125,1213l-15.24,11.11-15.33,11.1-15.33,11.11-15.34,11-11.49,8.15-7.67,5.41-7.67,5.41-7.66,5.4-7.57,5.31-7.57,5.31-7.47,5.21-7.47,5.2L991.7,1308l-7.37,5.11-7.27,5-7.28,5-7.17,4.91-7.08,4.92-5.31,3.63-3.53,2.36-3.44,2.36-3.44,2.36-3.44,2.36-3.44,2.36-3.35,2.26-3.34,2.26-3.34,2.26-3.34,2.26-3.24,2.26-3.25,2.26-3.24,2.17-3.24,2.16-3.15,2.16-3.14,2.16-3.15,2.07-3,2.06-3,2.06-3,2.07-3,2.06-3,2-2.94,2-3,2-2.85,2-2.85,1.87-2.76,1.87-2.75,1.87-2.75,1.86-2.65,1.77-2.66,1.77-2.65,1.77-2.56,1.67-2.55,1.67-2.46,1.67-2.46,1.68-2.45,1.57-2.36,1.57-2.36,1.57-2.26,1.48-2.26,1.47-2.16,1.48-2.17,1.37-2.06,1.38-2.06,1.37-2,1.38-2,1.28-2,1.28-1.87,1.27-1.87,1.18-1.77,1.18-1.76,1.18-1.68,1.08-1.57,1.08-1.57,1-1.47,1-1.48,1-1.37.89-1.38.88-1.28.89-1.28.78-1.18.79-1.08.78-1.08.69-1,.69-1,.59-.89.59-.78.59-.79.49-.69.49-.69.4-.59.39-.49.29-.49.3-.39.29-.3.2-.29.2-.2.1-.1.09h-.1l-.29.2a1.56,1.56,0,0,1-.39.2,5.07,5.07,0,0,1-1.38.59,3.62,3.62,0,0,1-1.28.49,4.76,4.76,0,0,1-1.37.39,3.93,3.93,0,0,1-1.48.39,7.24,7.24,0,0,1-1.47.3c-1.28.2-.69.2-1.57.29H774c-.59,0-.29,0-1-.19s-.49,0-.69-.2-.2,0-.3-.39c-.29-.3-.29-.2-.19-.4-.1-.29-.1-.09.19-.49s.1-.29.4-.59c.1-.19,0-.1.29-.19l.2-.2h0l.1-.1.1-.1.19-.09.2-.2.29-.2.3-.19.29-.2.4-.3.39-.29.49-.3.49-.39.49-.39.59-.39.59-.5.69-.49.69-.49.69-.49.78-.59.79-.59.79-.59.88-.69.89-.69,1-.68,1-.69,1-.79,1.08-.78,1.09-.79,1.08-.89,1.18-.88,1.18-.88,1.18-.89,1.27-1,1.28-1,1.28-1,1.37-1,1.38-1.08,1.38-1.08,1.47-1.08,1.48-1.08,1.47-1.18,1.57-1.18,1.57-1.18,1.58-1.18,1.57-1.28,1.67-1.28,1.67-1.28,1.67-1.27,1.77-1.38,1.77-1.38,1.77-1.37,1.77-1.38,1.87-1.37,1.86-1.48,1.87-1.47,2-1.48,2-1.47,2-1.57,2-1.58,2.07-1.57,2.06-1.57,2.07-1.57,2.06-1.67,2.16-1.68,2.16-1.67,2.17-1.67,2.16-1.67,2.26-1.77,2.26-1.77,2.26-1.77,2.26-1.76,2.26-1.77,2.36-1.87,2.36-1.87,2.36-1.87,2.36-1.86,2.45-1.87,3.64-2.85,4.92-3.93,5-3.93,5.11-4,5.21-4.13,5.21-4.13,5.3-4.23,5.41-4.22,5.41-4.33,5.5-4.42,5.5-4.42,5.61-4.52,5.7-4.52,5.7-4.62,5.8-4.62,5.8-4.72,5.89-4.72,5.9-4.81,5.9-4.82,6-4.92,6-4.91,6-4.91,6.1-5,6.09-5,6.09-5,6.1-5.11,6.19-5.11,6.19-5.11,6.19-5.21,9.34-7.87,12.48-10.51,12.49-10.62,12.48-10.71,12.48-10.71,12.48-10.82,12.39-10.81,12.38-10.91,12.29-10.91,12.18-10.91,9-8.15,6-5.41,5.9-5.4,5.89-5.41,5.9-5.41,5.8-5.4,5.8-5.41,5.7-5.4,5.7-5.41,5.6-5.4,5.61-5.41,5.5-5.31,5.41-5.31,5.4-5.3,5.31-5.31,5.21-5.21,5.21-5.21,5.11-5.21,5-5.21,5-5.11,4.92-5.11,4.81-5.11,4.72-5,4.62-5,4.52-5,4.42-4.91,4.33-4.92,4.32-4.81,4.23-4.82,4.13-4.72,3-3.53,2-2.36,2-2.36,1.86-2.36,1.87-2.36,1.87-2.26,1.87-2.26,1.76-2.26,1.77-2.26,1.77-2.26,1.77-2.26,1.67-2.26,1.67-2.17,1.67-2.16,1.58-2.16,1.57-2.16,1.57-2.16,1.48-2.17,1.47-2.16,1.48-2.06.68-1.08c.1-.1.1-.2.2-.2l2-2.26,3.93-4.52,3.93-4.62L1372,907l5.8-6.88,7.57-9.14,7.47-9.14,7.27-9.14,7.17-9.14,5.31-6.88,3.44-4.52,3.44-4.53,3.44-4.52,3.34-4.52,3.35-4.52,3.34-4.52,3.24-4.52,3.24-4.52,3.25-4.52,3.14-4.52,3.15-4.53,3.14-4.52,3-4.42,3.05-4.42,3-4.43,3-4.42,2.95-4.42,3-4.42,2.85-4.43,2.85-4.32,2.85-4.33,2.75-4.32,2.75-4.33,2.76-4.32,2.65-4.32,2.65-4.23,2.66-4.23,2.55-4.22,2.56-4.23,2.55-4.13,2.56-4.13,2.46-4.12,2.45-4.13,2.46-4,2.36-4,2.36-4,2.36-4,2.26-3.93,2.26-3.93,2.26-3.93,2.16-3.94,2.16-3.83,2.17-3.83,2.06-3.84,2.06-3.73,2.07-3.74,2-3.73,2-3.64,2-3.63,1.87-3.64,1.87-3.54,1.87-3.54,1.77-3.44,1.77-3.44,1.76-3.44,1.77-3.34,1.67-3.34,1.68-3.24,1.67-3.25,1.57-3.24,1.57-3.15,1.57-3.14,1.48-3,1.47-3,1.48-2.95,1.37-3,1.38-2.85,1.37-2.85,1.28-2.75,1.28-2.76,1.28-2.65,1.28-2.65,1.17-2.56,1.18-2.55,1.18-2.46,1.08-2.46,1.09-2.36,1.08-2.36,1-2.26,1-2.26,1-2.16.88-2.16.88-2.07.89-2,.88-2,.79-1.86.79-1.87.78-1.77.69-1.67.69-1.67.69-1.58.59-1.57.59-1.47.59-1.38.59-1.37.49-1.28.49-1.18.49-1.18.39-1.08.4-1,.39-1,.29-.88.3-.79.29-.69.3-.69.2-.58.19-.5.2-.49.1-.39.1-.3.09-.19.1-.2v-.29l.1-.2.1-.2.1-.29.09-.39.1-.4.2-.49.2-.49.19-.59.2-.69.2-.69.29-.78.3-.79.29-.88.3-.89.29-1,.3-1,.29-1.09.39-1.08.4-1.18.39-1.18.39-1.27.4-1.28.39-1.38.39-1.37.4-1.38.39-1.47.49-1.48.49-1.57.49-1.57.49-1.67.5-1.67.49-1.67.49-1.77.49-1.77.49-1.77.79-2.75,1-3.84,1-3.93,1-4,1-4.13,1-4.22,1-4.43,1-4.42,1-4.52,1-4.62,1-4.72.88-4.81.89-4.82.88-4.91.79-4.92.78-5,.69-5,.69-5,.59-5.12.59-5.11.49-5.11.39-5.11.4-5.11.29-5.11.2-5.11.1-5.11.09-5v-5l-.09-5-.2-3.73-.1-2.46-.2-2.46-.19-2.46-.2-2.45-.2-2.36-.29-2.36-.3-2.36-.29-2.36-.39-2.36-.4-2.36-.39-2.26-.49-2.26-.49-2.26-.49-2.26-.5-2.16-.59-2.16-.58-2.17-.59-2.16-.69-2.06-.69-2.07-.79-2.06-.78-2.06-.79-2-.88-2-.89-2-.88-1.87-1-1.87-1-1.86-1.08-1.77-1.08-1.77-1.08-1.77-.59-.89-.79-1.17-1.67-2.27-1.67-2.26-1.77-2.26-1.77-2.16-1.87-2.16-2-2.16-2-2.07L1602,256.2l-2.16-2.07-2.17-2-2.26-2-2.36-2-2.45-1.87L1588,244.5l-2.65-1.77L1582.6,241l-2.85-1.76-2.17-1.28-1.47-.89-1.47-.78-1.58-.79-1.57-.79-1.57-.78-1.67-.79-1.67-.78-1.67-.79-1.77-.79-1.77-.78-1.77-.79-1.77-.69-1.87-.69-1.87-.68-1.86-.69-2-.69-2-.69-2-.69-2.06-.68-2.07-.69-2.06-.59-2.16-.59-2.17-.59-2.26-.59-2.26-.59-2.26-.59-2.36-.59-1.18-.29-2.36-.5-4.71-1-4.72-.88-4.72-.79-4.62-.79-4.62-.68-4.52-.59-4.52-.49-4.42-.5L1482,212l-3.24-.29-2.07-.2-2.06-.1-2.06-.1-2.07-.1-2-.09-2-.1-2-.1-1.87-.1-1.87-.1h-35.48c-3.34.3-5.11-.49-4-1.86,1.18-1.58,5.41-3.35,9.44-3.94h.39l.39-.09.49-.1.69-.1.79-.1.88-.1,1-.1,1.09-.19,1.17-.2,1.28-.2,1.38-.19,1.47-.2,1.58-.2,1.67-.19,1.77-.2,1.86-.29,2-.3,2.06-.29,2.07-.3,2.16-.29,2.26-.3,2.36-.29,2.36-.3,2.45-.29,2.56-.3,2.56-.29,2.65-.3,2.65-.29,2.75-.3,2.76-.29,2.75-.3,2.85-.29,4.32-.49,5.9-.59,6-.59,6.09-.59,6.09-.49,6.1-.49,6.19-.5,6.09-.39,6.1-.39,4.52-.2,3-.1,3-.1,3-.09,3-.1,2.85-.1,2.85-.1h2.85Z" transform="translate(5 4.05)"/></g><path id="Linea" class="cls-8" d="M1346.12,187.4C1444.41,243,1563.82,390.85,1587.51,454c1.48,3.83,6.29,14.45,6.29,14.45" transform="translate(5 4.05)"/></g></svg>