<svg id="svg205" xmlns="http://www.w3.org/2000/svg" viewBox="0 0 4881.58 1724"><defs><style>.cls-1,.cls-2{isolation:isolate;}.cls-1{font-size:741.33px;font-family:ZillaSlabHighlight-Bold, Zilla Slab Highlight;font-weight:700;}.cls-1,.cls-4{fill:#007cff;}.cls-2{font-size:12px;font-family:ArialMT, Arial;}.cls-3,.cls-5{fill:#fff;}.cls-3,.cls-6,.cls-7{stroke:#007cff;stroke-miterlimit:10;stroke-width:4px;}.cls-6{fill:#ff2300;}.cls-7{fill:#0b0;}.cls-8{fill:none;stroke:#fff;stroke-width:40px;}</style></defs><text class="cls-1" transform="translate(1963.08 1565.07)"><tspan xml:space="preserve"> Italia </tspan></text><text class="cls-2" transform="translate(2431.76 125.37)">Lorem ipsum</text><g id="Icona"><g id="Sfondo"><path id="Sfondo2" class="cls-3" d="M860,1720.9c-475,0-860-385-860-860S385,.9,860,.9s860,385,860,860S1335,1720.9,860,1720.9Z" transform="translate(2 1.1)"/><path id="Sfondo1" class="cls-4" d="M860,1672.6c-448.3,0-811.7-363.4-811.7-811.7S411.7,49.2,860,49.2s811.7,363.4,811.7,811.7S1308.3,1672.6,860,1672.6Z" transform="translate(2 1.1)"/></g><g id="Dinosauro"><g id="g133"><path id="path129" class="cls-5" d="M742.6,609.9a29.63,29.63,0,0,1,8.9.9c6.4,3.5,2,11.1.5,16.8-34,102.1-53.4,185.6-112.9,192.5-82.6,16.2-136.6-51.6-101.7-75.8,56-33.6,56-33.6,87.2-55,24.9-20,47.6-42.8,74.1-60.7C712,619.7,726.4,611.5,742.6,609.9Z" transform="translate(2 1.1)"/><path id="path131" class="cls-5" d="M639.1,820.1c-82.6,16.2-136.6-51.6-101.7-75.8,56-33.6,56-33.6,87.2-55,28.9-22.2,91-87.8,126.9-78.6,6.4,3.5,2,11.1.5,16.8-34,102.2-53.4,185.7-112.9,192.6" transform="translate(2 1.1)"/></g><g id="g139"><path id="path135" class="cls-5" d="M525.3,1199.9l11,9.1" transform="translate(2 1.1)"/><path id="path137" class="cls-5" d="M525.3,1199.9l11,9.1" transform="translate(2 1.1)"/></g><path id="path141" class="cls-5" d="M490.3,1291.1h0" transform="translate(2 1.1)"/><g id="g147"><path id="path143" class="cls-5" d="M495.3,1291.1c-4.7-1.4-5-1.7-5-4.9,0-35.9,11.2-58.6,35-86.3,7.9,28.2,35.8,46.3,58.2,64.1,1.7,1.3-46.1,22.9-84.6,27.1" transform="translate(2 1.1)"/><path id="path145" class="cls-5" d="M495.3,1291.1c-4.7-1.4-5-1.7-5-4.9,0-35.9,11.2-58.6,35-86.3,7.9,28.2,35.8,46.3,58.2,64.1,1.7,1.3-46.1,22.9-84.6,27.1" transform="translate(2 1.1)"/></g><g id="g153"><path id="path149" class="cls-5" d="M904.6,81.7c15.7.7,25.3,9.4,31.3,23.1,18.4,44.4,20.5,54.4,29,68.6,23.2,38.7,42.6,64,36.3,62.6-65.7-15.2-119-29.2-195.3-17.2-27.7,4.4-51.1,15.4-76.3,27.3,22.1-49.2,58.1-92.7,99.4-127.1C850.5,101.1,875.7,83.1,904.6,81.7Z" transform="translate(2 1.1)"/><path id="path151" class="cls-5" d="M729.6,246.1c33.1-81.3,174-219.4,206.3-141.3,18.4,44.4,20.5,54.4,29,68.6,23.2,38.7,42.6,64,36.3,62.6-65.7-15.2-119-29.2-195.3-17.2-27.7,4.4-51.2,15.5-76.3,27.3" transform="translate(2 1.1)"/></g><g id="g159"><path id="path155" class="cls-5" d="M1284.6,427.8c12.3,0,69.7,1.6,52.8,27.7-15,21.7-17.9,47.8-28.9,62.7-15.9-26.3-15.9-26.3-58.8-86.8C1261.1,428.8,1272.9,428.2,1284.6,427.8Z" transform="translate(2 1.1)"/><path id="path157" class="cls-5" d="M1308.5,518.3c-15.9-26.3-15.9-26.3-58.8-86.8,33.6-8.2,107-4.1,87.6,24-14.9,21.8-17.8,47.9-28.8,62.8" transform="translate(2 1.1)"/></g><g id="g165"><path id="path161" class="cls-5" d="M880.1,288.4c40.6,0,81.4,5.9,119.5,20.3,199,77.1,297.2,298.4,387.6,474.7,49.9,107.6,49.9,107.6,69.5,154-.5,0-.9,0-.9.5-68.6-143.5-142.8-285.2-232.8-417-48-61.3-97.9-123-169.3-158.3-116.4-57.5-223.5-59.4-344,5.7-70.3,38-137.2,106.5-178.5,176.4C483,626.5,443.8,679.3,412.3,783.5c-23,75.9-34.4,109.4-41,147-28.1,160.7-25.4,220.4-10.7,310.7,8.9,54.2,36.1,97.4,71.4,122.2,16.1,11.3,51.4,21.2,58.2,22.4,62.6,10.5,94.2,2.7,154.9-14.1,169.8-63.6,298-192.1,353.5-361.1,25.7-112.2,31.2-244.4-37.8-342.9,0-.4,0-.4.5-.4,17.7,5.4,31.9,20.7,40.6,36.3,27.2,48.9,35.4,129.2,35.4,185.4,0,142.2-15.9,167.5-49.4,252-29.9,54.5-56.4,96.1-105.4,147.6-24.8,26.1-85.3,68.1-85.8,68.6-95.6,62.2-218.8,118-334.9,91.7-24.9-5.6-48.7-17.6-65.3-33.2-150.6-140.4-84.8-412.4-36.6-584.3,14.8-52.7,35.3-99.8,50.9-135,62.4-140.6,130.4-258,283-357,43.5-28.1,94.3-43.4,145.6-48.8,17.9-1.9,22.7-1.7,40.7-2.2Z" transform="translate(2 1.1)"/><path id="path163" class="cls-5" d="M1456.7,937.4c-.5,0-.9,0-.9.5-68.6-143.5-142.8-285.2-232.8-417-48-61.3-97.9-123-169.3-158.3-116.4-57.5-223.5-59.4-344,5.7-70.3,38-137.2,106.5-178.5,176.4C483,626.5,443.8,679.3,412.3,783.5c-23,75.9-34.4,109.4-41,147-28.1,160.7-25.4,220.4-10.7,310.7,8.9,54.2,36.1,97.4,71.4,122.2,16.1,11.3,51.4,21.2,58.2,22.4,62.6,10.5,94.2,2.7,154.9-14.1,169.8-63.6,298-192.1,353.5-361.1,25.7-112.2,31.2-244.4-37.8-342.9,0-.4,0-.4.5-.4,17.7,5.4,31.9,20.7,40.6,36.3,27.2,48.9,35.4,129.2,35.4,185.4,0,142.2-15.9,167.5-49.4,252-29.9,54.5-56.4,96.1-105.4,147.6-24.8,26.1-85.3,68.1-85.8,68.6-95.6,62.2-218.8,118-334.9,91.7-24.9-5.6-48.7-17.6-65.3-33.2-150.6-140.4-84.8-412.4-36.6-584.3,14.8-52.7,35.3-99.8,50.9-135,62.4-140.6,130.4-258,283-357,91.5-59.4,222.3-63.1,305.9-30.7,199,77.1,297.2,298.4,387.6,474.7,49.8,107.7,49.8,107.7,69.4,154" transform="translate(2 1.1)"/></g><g id="g171"><path id="path167" class="cls-5" d="M1201.2,242.2c14.1.1,8-.2,18.2.4,6.2,1.4,22.1,2.5,25.5,13.7,1.4,4.4,3.8,5.1-16.6,54.7-6.4,15.5-12.6,37.1-20.3,69.2-4.1-1.3-42.9-42.3-66.1-59.7-12-9.7-56.4-40.8-67-46.6-4.2-2.3,80.9-25.9,80.9-25.9a217.71,217.71,0,0,1,34.1-5.2c3.7-.3,7.5-.4,11.3-.6Z" transform="translate(2 1.1)"/><path id="path169" class="cls-5" d="M1074.9,273.9c-4.2-2.3,80.9-25.9,80.9-25.9s30.3-7.8,63.6-5.4c6.2,1.4,22.1,2.5,25.5,13.7,1.4,4.4,3.8,5.1-16.6,54.7-6.4,15.5-12.6,37.1-20.3,69.2-4.1-1.3-42.9-42.3-66.1-59.7-12-9.7-56.5-40.8-67-46.6Z" transform="translate(2 1.1)"/></g><g id="g177"><path id="path173" class="cls-5" d="M1047.6,727.9c12.6.2,25,2,37.4,4,40.6,3.9,43.9,13.1,39.8,15.5-18.9,10.9-17.3,8.7-36.6,25.4-14.3,12.4-35.3,41-35.7,35.9s-3.6-29.1-6.2-43.6-8.1-31-9-34.1C1036.8,727.6,1045.8,728,1047.6,727.9Z" transform="translate(2 1.1)"/><path id="path175" class="cls-5" d="M1037.3,731c.9,3.2,6.4,19.6,9,34.1s5.9,38.5,6.2,43.6,21.4-23.5,35.7-35.9c19.3-16.7,17.7-14.5,36.6-25.4,4-2.3.7-11.6-39.8-15.5C1063.7,728.4,1035.7,725.5,1037.3,731Z" transform="translate(2 1.1)"/></g></g><g id="Anelli"><path id="Rosso" class="cls-6" d="M1732.2,466h5.4l2.6.1h2.3l4.5.1,4.4.1,4.4.2,4.3.2,4.2.3,4.2.3,4.1.3,4.1.4,4,.4,3.9.4,3.9.5,3.8.5,3.8.6,3.7.6,3.6.6,3.6.7,3.5.7,3.5.7,3.4.8,3.3.8,3.3.9,3.2.9,3.1.9,3.1,1,3,1,3,1.1,2.9,1.1,2.8,1.1,2.8,1.2,2.7,1.2,2.6,1.3,2.6,1.3,2.5,1.3,2.4,1.4,2.4,1.4,2.3,1.4,2.3,1.5,2.2,1.5,2.1,1.6,2.1,1.6,2,1.6,1.9,1.7,1.9,1.7,1.8,1.8,1.7,1.8,1.7,1.8,1.6,1.9,1.5,1.9,1.5,2,1.4,2,1.3,2,1.3,2.1,1.2,2.1,1.1,2.2,1.1,2.2,1,2.2.9,2.3.9,2.3.8,2.4.7,2.4.7,2.4.6,2.5.5,2.5.2,1.3h0l.2,1.2.4,2.3.4,2.3.3,2.4.3,2.4.3,2.4.2,2.4.2,2.4.2,2.4.1,2.4.1,2.4.1,2.4v10l-.1,2.5-.1,2.5-.2,3.8-.4,5.1-.5,5.1-.6,5.1-.7,5.1-.8,5.2-.9,5.2-1,5.2-1.1,5.2-1.2,5.2-1.2,5.2-1.3,5.3-1.4,5.3-1.5,5.3-1.6,5.3-1.6,5.3-1.7,5.3-1.8,5.3-1.8,5.3-1.9,5.2-2,5.2-2,5.2-2.1,5.2-2.1,5.2-2.2,5.2-2.2,5.1-2.3,5.1-2.3,5.1-2.3,5-2.4,5-2.4,5-2.4,4.9-2.5,4.9-2.5,4.9-2.5,4.8-2.5,4.8-2.6,4.7-2.6,4.7-2.6,4.6-2.6,4.5-2.6,4.5-2.6,4.4-2.6,4.4-2.6,4.3-2.6,4.2-2.6,4.2-2.6,4.1-2.6,4-2.6,3.9-2.6,3.8-2.5,3.8-2.5,3.7-2.5,3.6-2.5,3.5-2.4,3.4-1.2,1.7h0l-2.7,3.7-5.4,7.3-5.4,7.3-5.5,7.2-5.5,7.2-5.5,7.1-5.5,7.1-5.5,7-5.5,7-5.6,6.9-5.6,6.9-5.6,6.8-5.6,6.7-5.6,6.7-5.6,6.6-5.6,6.6-5.6,6.5-5.6,6.5-5.6,6.4L1688,989l-5.6,6.3-5.6,6.3-5.7,6.2-5.7,6.2-5.7,6.1-5.7,6.1-5.6,6-5.6,5.9-5.6,5.9-5.6,5.8-5.6,5.8-5.6,5.7-5.6,5.7-5.6,5.6-5.6,5.6-5.6,5.5-5.6,5.5-5.6,5.4-5.5,5.3-5.5,5.3-5.5,5.2-5.5,5.2-5.5,5.1-5.5,5.1-5.4,5-5.4,5-5.4,4.9-5.4,4.8-5.3,4.8-5.3,4.7-5.3,4.7-5.3,4.6-5.2,4.6-5.2,4.5-5.2,4.5-5.1,4.4-5.1,4.3-5.1,4.3-5,4.2-5,4.2-5,4.1-4.9,4.1-4.9,4-4.8,3.9-4.8,3.9-4.8,3.8-4.7,3.8-4.7,3.7-4.6,3.7-4.6,3.6-4.5,3.5-4.5,3.5-4.4,3.4-4.4,3.4-4.3,3.3-4.3,3.3-4.2,3.2-4.2,3.1-4.1,3.1-4.1,3-4,3-4,2.9-3.9,2.8-3.8,2.8-3.8,2.7-3.7,2.7-3.7,2.6-3.6,2.6-3.5,2.5-3.5,2.4-3.4,2.4-3.3,2.3-3.3,2.3-3.2,2.2-3.1,2.1-3.1,2.1-3,2-2.9,2-2.8,1.9-2.8,1.8-2.7,1.8-2.6,1.7-2.5,1.7-2.4,1.6-2.4,1.5-2.3,1.5-2.2,1.4-1.6,1-1,.7-1,.7-1,.6-1,.6-.9.6-.9.6-.9.6-.9.6-.9.5-.8.5-.8.5-.8.5-.8.5-.7.5-.7.5-.7.4-.7.4-.7.4-.6.4-.6.4-.6.4-.6.3-.5.3-.5.3-.5.3-.5.3-.4.3-.4.3-.4.2-.4.2-.3.2-.3.2-.3.2-.3.2-.2.1-.2.1-.2.1-.2.1-.1.1-.1.1h-.1l-8,4.8-16.1,9.6-16.2,9.6-16.3,9.6-16.3,9.5-12.2,7.1-8.1,4.7-8.1,4.7-8.1,4.6-8,4.6-8,4.6-8,4.5-7.9,4.5-7.9,4.5-7.8,4.4-7.7,4.4-7.7,4.3-7.6,4.3-7.5,4.2-7.4,4.2-5.5,3.1-3.7,2-3.6,2-3.6,2-3.6,2-3.6,2-3.5,2-3.5,2-3.5,1.9-3.5,1.9-3.4,1.9-3.4,1.9-3.4,1.9-3.3,1.8-3.3,1.8-3.3,1.8-3.2,1.8-3.2,1.8-3.2,1.7-3.1,1.7-3.1,1.7-3.1,1.7-3,1.7-3,1.6-3,1.6-2.9,1.6-2.9,1.6-2.8,1.6-2.8,1.5-2.8,1.5-2.7,1.5-2.7,1.5L966,1518l-2.6,1.4-2.6,1.4-2.5,1.4-2.5,1.3-2.4,1.3-2.4,1.3-2.3,1.3-2.3,1.2-2.2,1.2L942,1531l-2.1,1.2-2.1,1.1-2,1.1-2,1.1-1.9,1-1.9,1-1.8,1-1.8,1-1.7.9-1.7.9-1.6.9-1.5.8-1.5.8-1.4.8-1.4.7-1.3.7-1.3.7-1.2.6-1.1.6-1.1.6-1,.5-.9.5-.9.5-.8.4-.8.4-.7.4-.6.3-.6.3-.5.3-.4.2-.4.2-.3.2-.2.1-.1.1h-.1l-.2.1c-.3.2-.1.1-.4.2a11.64,11.64,0,0,1-1.5.6,8.18,8.18,0,0,1-1.4.5,6.2,6.2,0,0,1-1.4.4,5,5,0,0,1-1.4.3,4.64,4.64,0,0,1-1.4.2,4,4,0,0,1-1.5.1h-1.4c-.3,0-.1,0-.3-.1-.5-.1-.3,0-.7-.3s-.4,0-.5-.3-.2,0-.1-.4c-.1-.4-.1-.2.1-.5s0-.1.5-.5a2.34,2.34,0,0,1,.7-.7c.2-.1.1-.1.3-.2l.2-.1h0l.1-.1.1-.1.2-.1.2-.1.3-.2.3-.2.3-.2.4-.2.4-.3.5-.3.5-.3.6-.3.6-.4.6-.4.7-.4.7-.4.8-.5.8-.5.8-.5.9-.5.9-.6.9-.6,1-.6,1-.6,1.1-.7,1.1-.7,1.1-.7,1.2-.7,1.2-.7,1.2-.8,1.3-.8,1.3-.8,1.3-.8,1.4-.9,1.4-.9,1.4-.9,1.5-.9,1.5-.9,1.5-1,1.6-1,1.6-1,1.6-1,1.7-1,1.7-1.1,1.7-1.1,1.8-1.1,1.8-1.1,1.8-1.1,1.9-1.2,1.9-1.2,1.9-1.2,1.9-1.2,2-1.2,2-1.3,2-1.3,2.1-1.3,2.1-1.3,2.1-1.3,2.1-1.4,2.2-1.4,2.2-1.4,2.2-1.4,2.2-1.4,2.3-1.4,2.3-1.5,2.3-1.5,2.3-1.5,2.4-1.5,2.4-1.5,2.4-1.5,2.4-1.6,2.5-1.6,2.5-1.6,2.5-1.6,2.5-1.6,2.5-1.6,3.9-2.5,5.2-3.4,5.3-3.4,5.4-3.5,5.5-3.5,5.5-3.6,5.6-3.6,5.7-3.7,5.7-3.7,5.8-3.8,5.9-3.8,5.9-3.9,6-3.9,6-4,6.1-4,6.1-4.1,6.2-4.1,6.2-4.1,6.3-4.2,6.3-4.2,6.3-4.3,6.4-4.3,6.4-4.3,6.4-4.3,6.5-4.4,6.5-4.4,6.5-4.4,6.5-4.5,6.5-4.5,9.9-6.8,13.2-9.1,13.2-9.2,13.2-9.3,13.2-9.3,13.2-9.4,13.1-9.4,13-9.4,12.9-9.4,12.8-9.5,9.5-7.1,6.3-4.7,6.3-4.7,6.2-4.7,6.2-4.7,6.1-4.7,6.1-4.7,6-4.7,6-4.7,5.9-4.6,5.9-4.6,5.8-4.6,5.8-4.6,5.7-4.6,5.6-4.6,5.6-4.5,5.5-4.5,5.4-4.5,5.3-4.5,5.2-4.4,5.2-4.4,5.1-4.4,5-4.4,4.9-4.3,4.8-4.3,4.7-4.3,4.6-4.2,4.5-4.2,4.4-4.2,3.2-3.1,2.1-2.1,2.1-2,2.1-2,2-2,2-2,2-2,2-2,1.9-2,1.9-2,1.9-2,1.8-1.9,1.8-1.9,1.8-1.9,1.8-1.9,1.7-1.9,1.7-1.9,1.7-1.9,1.6-1.9,1.6-1.8,1.6-1.8,1.5-1.8.8-.9.3-.3,2.1-2,4.2-3.9,4.1-4,4.1-4,4.1-4,4-4,4-4,4-4,5.9-5.9,5.8-5.9,3.8-4,3.8-4,3.8-4,3.7-4,3.7-4,3.6-3.9,3.6-3.9,3.6-3.9,3.5-3.9,3.5-3.9,3.5-3.9,3.4-3.9,3.4-3.9,3.4-3.9,3.3-3.9,3.3-3.9,3.3-3.9,3.2-3.9,3.2-3.8,3.2-3.8,3.1-3.8,3.1-3.8,3.1-3.8,3-3.8,3-3.8,3-3.8,2.9-3.7,2.9-3.7,2.9-3.7,2.8-3.7,2.8-3.7,2.8-3.7,2.7-3.6,2.7-3.6,2.6-3.6,2.6-3.6,2.6-3.6,2.5-3.5,2.5-3.5,2.5-3.5,2.4-3.5,2.4-3.4,2.4-3.4,2.3-3.4,2.3-3.4,2.3-3.3,2.2-3.3,2.2-3.3,2.2-3.3,2.1-3.2,2.1-3.2,2.1-3.2,2-3.1,2-3.1,2-3.1,1.9-3,1.9-3,1.9-3,1.9-2.9,1.8-2.9,1.8-2.9,1.8-2.8,1.7-2.8,1.7-2.8,1.7-2.7,1.6-2.7,1.6-2.7,1.6-2.6,1.5-2.6,1.5-2.5,1.5-2.5,1.4-2.5,1.4-2.4,1.4-2.4,1.3-2.3,1.3-2.3,1.3-2.2,1.2-2.2,1.2-2.2,1.2-2.1,1.1-2.1,1.1-2,1.1-2,1-1.9,1-1.9,1-1.8,1-1.8.9-1.7.9-1.7.9-1.6.8-1.6.8-1.5.8-1.5.7-1.4.7-1.4.7-1.3.6-1.3.6-1.2.6-1.2.5-1.1.5-1,.5-1,.5-.9.4-.9.4-.8.4-.8.3-.7.3-.6.3-.6.2-.5.2-.4.2-.4.1-.3.1-.3.1-.2.1-.1v-.1h0v-.1l.1-.2.1-.2.1-.3.1-.3.2-.4.2-.4.2-.5.2-.5.2-.6.2-.6.3-.7.3-.7.3-.7.3-.8.3-.8.3-.9.4-.9.4-1,.4-1,.4-1,.4-1.1.4-1.1.4-1.2.4-1.2.5-1.2.5-1.3.5-1.3.5-1.3.5-1.4.5-1.4.5-1.4.5-1.5.5-1.5.8-2.3,1.1-3.2,1.1-3.3,1.1-3.4,1.1-3.5,1.1-3.6,1.1-3.7,1.1-3.8,1.1-3.9,1-3.9,1-4,1-4.1,1-4.1.9-4.2.9-4.2.9-4.3.8-4.3.8-4.4.7-4.4.7-4.4.6-4.4.5-4.4.5-4.4.4-4.4.3-4.4.2-4.4.1-4.4.1-4.4v-4.3l-.1-4.3-.2-3.2-.1-2.1-.2-2.1-.2-2.1-.2-2.1-.3-2.1-.3-2.1-.3-2-.3-2-.4-2-.4-2-.4-2-.5-2-.5-1.9-.5-1.9-.6-1.9-.6-1.9-.6-1.9-.7-1.8-.7-1.8-.7-1.8-.8-1.8-.8-1.7-.9-1.7-.9-1.7-.9-1.7-1-1.6-1-1.6-1-1.6-1.1-1.5-1.1-1.5-1.2-1.5-.6-.7-.8-1-1.7-2-1.8-2-1.8-2-1.9-1.9-2-1.9-2-1.9-2.1-1.9-2.2-1.8-2.2-1.8-2.3-1.8-2.4-1.7-2.5-1.7-2.6-1.7-2.7-1.6-2.8-1.6-2.2-1.2-1.5-.8-1.5-.8-1.5-.8-1.5-.7-1.6-.7-1.6-.7-1.6-.7-1.7-.7-1.7-.7-1.7-.7-1.8-.7-1.8-.7-1.8-.7-1.8-.6-1.9-.6-1.9-.6-1.9-.6-2-.6-2-.6-2-.6-2.1-.6-2.1-.5-2.2-.5-2.2-.5-2.2-.5-2.3-.5-2.3-.5-2.3-.5-2.4-.4-2.4-.4-2.5-.4-1.3-.2h0l-1.3-.2-2.5-.4-2.5-.4-2.4-.4-2.3-.3-2.3-.3-2.2-.3-2.1-.3-2.1-.3-2-.3-1.9-.2-1.9-.2-1.8-.2-1.8-.2-1.7-.2-1.6-.2-1.6-.2-1.5-.1-1.5-.1-1.4-.1-1.4-.1-1.3-.1-1.2-.1-1.2-.1-1.1-.1-1.1-.1-1-.1h-10.3l-.2.1h-.3c-2.2.4-5.5,1.4-7.6,0-.1-.1-.1-.3-.2-.4-.1-.7.8-1.6,2.5-2.5h0l.7-.3,1-.4,1.2-.4,1.3-.4,1.3-.4,1.3-.3,1.3-.3h.2l.4-.1.8-.2.8-.2.9-.2,1-.2,1-.2,1.1-.2,1.1-.2,1.2-.2,1.3-.3,1.3-.3,1.4-.3,1.4-.3,1.5-.3,1.5-.3,1.6-.3,1.6-.3,1.7-.3,1.7-.3,1.8-.3,1.8-.3,1.9-.3,1.9-.3,1.9-.3,2-.3,2-.3,2.1-.3,2.1-.3,2.1-.3,2.2-.3,2.2-.3,2.2-.3,2.3-.3,2.3-.3,2.3-.3,2.4-.2,2.4-.2,3.7-.3,5-.4,5-.4,5.1-.3,5.2-.2,5.3-.2,5.3-.1Zm-104,17.2Z" transform="translate(2 1.1)"/><path id="Bianco" class="cls-3" d="M1651.2,335l5.3.1,2.5.1h2.2l4.4.1,4.3.1,4.3.2,4.2.2,4.1.3,4.1.3,4,.4,4,.4,3.9.4,3.8.5,3.8.5,3.7.6,3.7.6,3.6.6,3.5.7,3.5.7,3.4.8,3.4.8,3.3.8,3.2.9,3.2.9,3.1,1,3.1,1,3,1,2.9,1.1,2.9,1.1,2.8,1.2,2.7,1.2,2.7,1.3,2.6,1.3,2.6,1.3,2.5,1.4,2.4,1.4,2.4,1.5,2.3,1.5,2.3,1.5,2.2,1.6,2.1,1.6,2.1,1.7,2,1.7,1.9,1.8,1.9,1.8,1.8,1.8,1.7,1.9,1.7,1.9,1.6,2,1.6,2,1.5,2,1.4,2.1,1.4,2.1,1.3,2.2,1.2,2.2,1.2,2.3,1.1,2.3,1,2.3,1,2.4.9,2.4.8,2.5.8,2.5.7,2.6.7,2.6.6,2.6.5,2.7.2,1.4h0l.2,1.2.4,2.5.3,2.5.3,2.5.3,2.5.3,2.5.2,2.5.2,2.6.2,2.6.1,2.6.1,2.6.1,2.6v10.5l-.1,2.7-.1,2.7-.2,4-.4,5.4-.5,5.4-.6,5.5-.7,5.5-.8,5.5-.9,5.5-.9,5.6-1,5.6-1.1,5.6-1.2,5.6-1.3,5.6-1.4,5.6-1.4,5.6-1.5,5.6-1.6,5.6-1.7,5.6-1.7,5.6-1.8,5.6-1.8,5.6-1.9,5.6-2,5.6-2,5.6-2.1,5.5-2.1,5.5-2.2,5.5-2.2,5.5-2.2,5.4-2.3,5.4-2.3,5.4-2.3,5.3-2.4,5.3-2.4,5.2-2.4,5.2-2.5,5.1-2.5,5.1-2.5,5-2.5,5-2.5,4.9-2.5,4.9-2.5,4.8L1747,694l-2.5,4.7-2.5,4.6-2.5,4.5-2.5,4.4-2.5,4.4-2.5,4.3-2.5,4.2-2.5,4.1-2.5,4-2.5,3.9-2.4,3.8-2.4,3.7-2.4,3.6-1.2,1.8h0l-2.6,3.9-5.3,7.8-5.3,7.8-5.3,7.7-5.3,7.6-5.3,7.6-5.4,7.5-5.4,7.5-5.4,7.4-5.4,7.4-5.4,7.3-5.4,7.3-5.4,7.2-5.5,7.1-5.5,7.1-5.5,7-5.5,7-5.5,6.9-5.5,6.9-5.5,6.8-5.5,6.7-5.5,6.7-5.5,6.6-5.5,6.6-5.5,6.5-5.5,6.5-5.5,6.4-5.5,6.3-5.5,6.3-5.5,6.2-5.5,6.2-5.5,6.1-5.5,6.1-5.4,6-5.4,5.9-5.4,5.9-5.4,5.8-5.4,5.8-5.4,5.7-5.4,5.6-5.4,5.6-5.3,5.5-5.3,5.5-5.3,5.4-5.3,5.4-5.3,5.3-5.2,5.2-5.2,5.2-5.2,5.1-5.2,5.1-5.1,5-5.1,4.9-5.1,4.9-5.1,4.8-5,4.8-5,4.7-5,4.6-4.9,4.6-4.9,4.5-4.9,4.5-4.8,4.4-4.8,4.3-4.8,4.3-4.7,4.2-4.7,4.2-4.6,4.1-4.6,4-4.6,4-4.5,3.9-4.5,3.8-4.4,3.8-4.4,3.7-4.3,3.7-4.3,3.6-4.2,3.5-4.2,3.5-4.1,3.4-4.1,3.4-4,3.3-4,3.2-3.9,3.2-3.9,3.1-3.8,3-3.7,3-3.7,2.9-3.6,2.9-3.6,2.8-3.5,2.7-3.4,2.7-3.4,2.6-3.3,2.5-3.2,2.5-3.2,2.4-3.1,2.3-3,2.3-3,2.2-2.9,2.2-2.8,2.1-2.8,2-2.7,2-2.6,1.9-2.5,1.8-2.5,1.8-2.4,1.7-2.3,1.6-2.2,1.6-1.6,1.1-1,.7-1,.7-1,.7-1,.7-1,.7-.9.7-.9.6-.9.6-.9.6-.9.6-.8.6-.8.6-.8.5-.8.5-.8.5-.7.5-.7.5-.7.5-.7.5-.6.4-.6.4-.6.4-.6.4-.5.4-.5.4-.5.3-.5.3-.5.3-.4.3-.4.3-.4.3-.4.2-.3.2-.3.2-.3.2-.3.2-.2.2-.2.1-.2.1-.2.1-.1.1-.1.1h-.1l-7.8,5.2-15.7,10.3-15.8,10.3-15.8,10.2-15.8,10.2-11.9,7.6-7.9,5-7.9,5-7.8,5-7.8,4.9-7.8,4.9-7.7,4.9-7.7,4.8-7.6,4.8-7.6,4.7-7.5,4.7-7.5,4.6-7.4,4.6-7.3,4.5-5.4,3.4-3.6,2.2-3.6,2.2-3.6,2.2-3.5,2.2-3.5,2.2-3.5,2.1-3.5,2.1-3.4,2.1-3.4,2.1-3.4,2.1-3.4,2-3.3,2-3.3,2-3.3,2-3.2,2-3.2,2-3.2,1.9-3.2,1.9-3.1,1.9-3.1,1.9-3.1,1.8-3,1.8-3,1.8-3,1.8-2.9,1.8-2.9,1.7-2.8,1.7-2.8,1.7-2.8,1.7-2.7,1.6-2.7,1.6-2.6,1.6-2.6,1.6-2.6,1.5-2.5,1.5-2.5,1.5-2.4,1.5-2.4,1.4-2.4,1.4-2.3,1.4-2.3,1.3-2.2,1.3-2.2,1.3L882,1472l-2.1,1.2-2,1.2-2,1.2-1.9,1.1-1.9,1.1-1.8,1.1-1.8,1-1.7,1-1.7,1-1.6,1-1.6.9-1.5.9-1.4.9-1.4.8-1.3.8-1.3.8-1.2.7-1.2.7-1.1.6-1,.6-1,.6-.9.5-.9.5-.8.5-.7.4-.7.4-.6.4-.5.3-.5.3-.4.2-.3.2-.3.2-.2.1-.1.1h-.1l-.3.1a1.42,1.42,0,0,1-.4.2,6.45,6.45,0,0,1-1.4.6,7.91,7.91,0,0,1-1.3.5,4.86,4.86,0,0,1-1.4.4c-1.1.3-.7.2-1.4.4a4.14,4.14,0,0,1-1.4.2c-1.2.2-.7.1-1.5.2h-2c-.6-.1-.3,0-.8-.3s-.4,0-.6-.3c-.3-.1-.2,0-.2-.4-.2-.3-.2-.2,0-.4,0-.3,0-.1.3-.5s.1-.3.6-.6c.1-.1,0-.1.3-.2l.2-.1h0l.1-.1.1-.1.2-.1.2-.1.3-.2.3-.2.3-.2.4-.3.4-.3.5-.3.5-.3.5-.4.6-.4.6-.4.7-.4.7-.5.7-.5.8-.5.8-.5.9-.6.9-.6.9-.6,1-.7,1-.7,1-.7,1.1-.7,1.1-.8,1.1-.8,1.2-.8,1.2-.8,1.2-.8,1.3-.9,1.3-.9,1.3-.9,1.4-.9,1.4-1,1.4-1,1.5-1,1.5-1,1.5-1.1,1.6-1.1,1.6-1.1,1.6-1.1,1.7-1.1,1.7-1.2,1.7-1.2,1.8-1.2,1.8-1.2,1.8-1.2,1.8-1.3,1.9-1.3,1.9-1.3,1.9-1.3,1.9-1.4,2-1.4,2-1.4,2-1.4,2.1-1.4,2.1-1.4,2.1-1.5,2.1-1.5,2.2-1.5,2.2-1.5,2.2-1.5,2.2-1.6,2.3-1.6,2.3-1.6,2.3-1.6,2.3-1.6,2.4-1.6,2.4-1.7,2.4-1.7,2.4-1.7,2.4-1.7,2.5-1.7,2.5-1.7,3.8-2.7,5.1-3.6,5.2-3.7,5.2-3.7,5.3-3.8,5.4-3.8,5.5-3.9,5.5-3.9,5.6-4,5.6-4.1,5.7-4.1,5.8-4.2,5.8-4.2,5.9-4.2,5.9-4.3,6-4.3,6-4.4,6.1-4.4,6.1-4.5,6.1-4.5,6.2-4.5,6.2-4.6,6.2-4.6,6.3-4.6,6.3-4.7,6.3-4.7,6.3-4.7,6.4-4.8,6.4-4.8,9.6-7.2,12.8-9.7,12.8-9.8,12.9-9.9,12.8-9.9,12.8-10,12.8-10,12.7-10.1,12.6-10.1,12.5-10.1,9.3-7.6,6.1-5,6.1-5,6.1-5,6-5,6-5,5.9-5,5.9-5,5.8-5,5.8-5,5.7-5,5.7-4.9,5.6-4.9,5.5-4.9,5.5-4.9,5.4-4.9,5.3-4.8,5.3-4.8,5.2-4.8,5.1-4.8,5-4.7,4.9-4.7,4.9-4.7,4.8-4.6,4.7-4.6,4.6-4.6,4.5-4.5,4.4-4.5,4.3-4.4,3.2-3.3,2.1-2.2,2-2.2,2-2.2,2-2.2,2-2.1,1.9-2.1,1.9-2.1,1.9-2.1,1.9-2.1,1.8-2.1,1.8-2.1,1.8-2.1,1.7-2.1,1.7-2,1.7-2,1.7-2,1.6-2,1.6-2,1.6-2,1.5-2,1.5-1.9.7-1c.1-.1.1-.2.2-.3l2-2.1,4.1-4.2,4-4.2,4-4.2,4-4.2,3.9-4.2,5.8-6.4,7.7-8.5,5.7-6.4,3.7-4.2,3.7-4.2,3.7-4.2,3.6-4.2,3.6-4.2,3.6-4.2,3.5-4.2,3.5-4.2,3.5-4.2,3.4-4.2,3.4-4.2,3.3-4.2,3.3-4.2,3.3-4.2,3.2-4.2,3.2-4.1,3.2-4.1,3.1-4.1,3.1-4.1,3.1-4.1,3-4.1,3-4.1,3-4.1,2.9-4,2.9-4,2.9-4,2.8-4,2.8-4,2.8-4,2.7-3.9,2.7-3.9,2.7-3.9,2.6-3.9,2.6-3.9,2.6-3.8,2.5-3.8,2.5-3.8,2.5-3.8,2.4-3.7,2.4-3.7,2.4-3.7,2.3-3.7,2.3-3.6,2.3-3.6,2.3-3.6,2.2-3.6,2.2-3.5,2.2-3.5,2.1-3.5,2.1-3.4,2.1-3.4,2-3.4,2-3.4,2-3.3,1.9-3.3,1.9-3.3,1.9-3.2,1.8-3.2,1.8-3.1,1.8-3.1,1.7-3.1,1.7-3,1.7-3,1.6-3,1.6-2.9,1.6-2.9,1.5-2.8,1.5-2.8,1.5-2.8,1.5-2.7,1.4-2.7,1.4-2.6,1.4-2.6,1.3-2.5,1.3-2.5,1.3-2.4,1.2-2.4,1.2-2.4,1.2-2.3,1.1-2.3,1.1-2.2,1.1-2.2,1-2.1,1-2.1,1-2,1-2,.9-1.9.9-1.9.9-1.8.8-1.7.8-1.7.8-1.6.7-1.6.7-1.5.7-1.5.7-1.4.6-1.4.6-1.3.6-1.2.5-1.2.5-1.1.5-1.1.4-1,.4-.9.4-.9.4-.8.3-.7.3-.7.3-.6.2-.5.2-.5.2-.4.1-.3.1-.3.1-.2.1-.1v-.3l.1-.2.1-.2.1-.3.1-.3.1-.4.2-.4.2-.5.2-.5.2-.6.2-.6.3-.7.3-.7.3-.8.3-.8.3-.9.3-.9.3-1,.4-1,.4-1.1.4-1.1.4-1.2.4-1.2.4-1.2.4-1.3.4-1.3.4-1.4.5-1.4.5-1.4.5-1.5.5-1.5.5-1.5.5-1.6.5-1.6.8-2.5,1-3.4,1-3.5,1-3.6,1.1-3.8,1.1-3.9,1-4,1-4,1-4.1,1-4.2,1-4.3,1-4.4.9-4.4.9-4.5.9-4.5.8-4.6.8-4.6.7-4.6.7-4.7.6-4.7.6-4.7.5-4.7.5-4.7.4-4.7.3-4.7.2-4.7.1-4.7.1-4.7v-4.6l-.1-4.6-.2-3.4-.1-2.3-.2-2.3-.2-2.2-.2-2.2-.3-2.2-.3-2.2-.3-2.2-.3-2.2-.4-2.2-.4-2.1-.4-2.1-.5-2.1-.5-2.1-.5-2.1-.6-2-.6-2-.6-2-.7-2-.7-1.9-.7-1.9-.8-1.9-.8-1.9-.8-1.8-.9-1.8-.9-1.8-.9-1.8-1-1.7-1-1.7-1.1-1.7-1.1-1.6-1.1-1.6-.6-.8-.8-1.1-1.7-2.1-1.7-2.1-1.8-2.1-1.8-2-1.9-2-2-2-2-1.9-2.1-1.9-2.2-1.9-2.3-1.9-2.4-1.8-2.4-1.8-2.5-1.7-2.6-1.7-2.7-1.7-2.8-1.6-2.9-1.6-2.3-1.2-1.5-.8-1.6-.8-1.6-.8-1.6-.7-1.7-.7-1.7-.7-1.7-.7-1.7-.7-1.8-.7-1.8-.7-1.8-.7-1.9-.7-1.9-.7-1.9-.7-2-.6-2-.6-2-.6-2.1-.6-2.1-.6-2.1-.6-2.2-.6-2.2-.6-2.2-.6-2.3-.5-2.3-.5-2.4-.5-2.4-.5-1.2-.3h0l-1.2-.3-2.4-.5-2.3-.5-2.3-.4-2.2-.4-2.2-.4-2.1-.4-2.1-.4-2-.3-2-.3-1.9-.3-1.9-.3-1.8-.3-1.8-.2-1.7-.2-1.7-.2-1.6-.2-1.6-.2-1.5-.2-1.5-.2-1.4-.1-1.4-.1-1.3-.1-1.3-.1-1.2-.1-1.2-.1-1.1-.1-1.1-.1h-11.5l-.7.1-.6.1h-1.1c-4.1,1-7.4.7-7.3-.7.1-1.1,2.5-2.6,5.8-3.7h0l.6-.2.8-.2.9-.2,1-.2.5-.1h.1l.6-.1.7-.1.7-.2.8-.2.9-.2.9-.2,1-.2,1.1-.2,1.1-.2,1.2-.2,1.3-.2,1.3-.3,1.4-.3,1.4-.3,1.5-.3,1.5-.3,1.6-.3,1.6-.3,1.7-.3,1.7-.3,1.8-.3,1.8-.3,1.9-.3,1.9-.3,2-.3,2-.3,2.1-.3,2.1-.3,2.1-.3,2.2-.3,2.2-.3,2.2-.3,2.3-.3,3.5-.4,4.7-.5,4.8-.5,4.9-.4,5-.4,5.1-.3,5.1-.3,5.2-.2,5.2-.2,5.3-.1Z" transform="translate(2 1.1)"/><path id="Verde" class="cls-7" d="M1556.9,204.3h11.2l4.2.1,4.1.2,4.1.2,4,.2,4,.3,3.9.3,3.8.4,3.8.4,3.7.5,3.7.5,3.6.5,3.6.6,3.5.6,3.4.7,3.4.7,3.3.8,3.3.8,3.2.8,3.2.9,3.1.9,3,1,3,1,2.9,1.1,2.9,1.1,2.8,1.2,2.7,1.2,2.7,1.2,2.6,1.3,2.6,1.3,2.5,1.4,2.4,1.4,2.4,1.5,2.3,1.5,2.3,1.5,2.2,1.6,2.1,1.6,2.1,1.7,2,1.7,2,1.8,1.9,1.8,1.8,1.9,1.8,1.9,1.7,1.9,1.7,2,1.6,2,1.5,2.1,1.5,2.1,1.4,2.2,1.4,2.2,1.3,2.3,1.2,2.3,1.2,2.4,1.1,2.4,1.1,2.4,1,2.5.9,2.5.9,2.6.8,2.6.7,2.7.7,2.7.6,2.8.6,2.8.5,2.8.2,1.4h0l.2,1.3.4,2.6.3,2.7.3,2.7.3,2.7.2,2.7.2,2.7.2,2.7.2,2.7.1,2.7.1,2.8.1,2.8v11.2l-.1,4.2-.2,5.7-.3,5.7-.4,5.8-.5,5.8-.6,5.8-.7,5.9-.8,5.9-.9,5.9-1,5.9-1.1,5.9-1.1,6-1.2,6-1.3,6-1.4,6-1.4,6-1.5,6-1.6,6-1.6,6-1.7,6-1.8,5.9-1.8,5.9-1.9,5.9-1.9,5.9-2,5.9-2,5.9-2.1,5.8-2.1,5.8-2.1,5.8-2.2,5.7-2.2,5.7-2.2,5.6-2.3,5.6-2.3,5.6-2.3,5.5-2.3,5.5-2.4,5.4-2.4,5.3-2.4,5.3-2.4,5.2-2.4,5.2-2.4,5.1-2.4,5-2.4,4.9-2.4,4.9-2.4,4.8-2.4,4.7-2.4,4.6-2.4,4.5-2.4,4.5-2.4,4.4-2.4,4.3-2.3,4.2-2.3,4.1-2.3,4-2.3,3.9-1.1,1.9h0l-2.5,4.2-5,8.3-5,8.2L1601,674l-5.1,8.1-5.1,8.1-5.1,8-5.1,8-5.1,7.9-5.2,7.8-5.2,7.8-5.2,7.7-5.2,7.7-5.2,7.6-5.2,7.5-5.2,7.5-5.2,7.4-5.2,7.4-5.2,7.3-5.2,7.2-5.2,7.2-5.3,7.1-5.3,7-5.3,7-5.3,6.9-5.3,6.9-5.2,6.8-5.2,6.7-5.2,6.7-5.2,6.6-5.2,6.6-5.2,6.5-5.2,6.4-5.2,6.4-5.2,6.3-5.2,6.2-5.2,6.2-5.2,6.1-5.1,6.1-5.1,6-5.1,5.9-5.1,5.9-5.1,5.8-5.1,5.7-5,5.7-5,5.6-5,5.6-5,5.5-5,5.4-4.9,5.4-4.9,5.3-4.9,5.2-4.9,5.2-4.8,5.1-4.8,5.1-4.8,5-4.7,4.9-4.7,4.9-4.7,4.8-4.6,4.7-4.6,4.7-4.6,4.6-4.5,4.5-4.5,4.5-4.5,4.4-4.4,4.3-4.4,4.3-4.3,4.2-4.3,4.2-4.3,4.1-4.2,4-4.2,4-4.1,3.9-4.1,3.8-4,3.8-4,3.7-3.9,3.6-3.9,3.6-3.8,3.5-3.8,3.4-3.7,3.4-3.7,3.3-3.6,3.2-3.6,3.2-3.5,3.1-3.5,3-3.4,3-3.3,2.9-3.3,2.8-3.2,2.8-3.2,2.7-3.1,2.6-3,2.6-3,2.5-2.9,2.4-2.8,2.4-2.8,2.3-2.7,2.2-2.6,2.2-2.6,2.1-2.5,2-2.4,2-2.3,1.9-2.3,1.8-2.2,1.7-1.6,1.3-1,.8-1,.8-1,.8-1,.8-1,.8-.9.7-.9.7-.9.7-.9.7-.9.7-.8.7-.8.6-.8.6-.8.6-.8.6-.7.6-.7.5-.7.5-.7.5-.7.5-.6.5-.6.5-.6.4-.6.4-.5.4-.5.4-.5.4-.5.4-.5.3-.4.3-.4.3-.4.3-.4.3-.3.3-.3.2-.3.2-.3.2-.2.2-.2.2-.2.1-.2.1-.1.1-.1.1-.1.1h-.1l-7.5,5.5-15,10.9-15.1,10.9-15.1,10.9-15.1,10.8-11.3,8.1-7.5,5.3-7.5,5.3-7.5,5.3-7.5,5.2-7.4,5.2-7.4,5.2-7.3,5.1-7.3,5.1-7.2,5-7.2,5-7.1,4.9-7.1,4.9-7,4.8-5.2,3.6-3.4,2.4-3.4,2.3-3.4,2.3-3.4,2.3-3.4,2.3-3.3,2.3-3.3,2.3-3.3,2.2-3.3,2.2-3.2,2.2-3.2,2.2-3.2,2.2-3.2,2.1-3.1,2.1-3.1,2.1-3.1,2.1-3,2.1-3,2-3,2-3,2-2.9,2-2.9,1.9-2.9,1.9-2.8,1.9-2.8,1.9-2.8,1.8-2.7,1.8-2.7,1.8-2.6,1.8-2.6,1.7-2.6,1.7-2.5,1.7-2.5,1.7-2.5,1.6-2.4,1.6-2.4,1.6-2.3,1.5-2.3,1.5-2.2,1.5-2.2,1.5-2.2,1.4-2.1,1.4-2.1,1.4-2,1.3-2,1.3-1.9,1.3-1.9,1.2-1.8,1.2-1.8,1.2-1.7,1.1-1.7,1.1-1.6,1.1-1.6,1-1.5,1-1.5,1-1.4.9-1.4.9-1.3.9-1.3.8-1.2.8-1.2.8-1.1.7-1.1.7-1,.7-.9.6-.9.6-.8.5-.8.5-.7.5-.6.4-.6.4-.5.3-.5.3-.4.3-.3.2-.3.2-.2.1-.1.1h-.1l-.3.2a1.42,1.42,0,0,1-.4.2,4,4,0,0,1-1.3.6,3.62,3.62,0,0,1-1.3.5,4.86,4.86,0,0,1-1.4.4c-1.2.4-.7.3-1.4.4a6.12,6.12,0,0,1-1.4.3,5.29,5.29,0,0,1-1.6.2h-2.1c-.6,0-.3,0-.9-.2s-.5,0-.7-.2-.2,0-.3-.4c-.3-.3-.3-.2-.2-.4-.1-.3-.1-.1.2-.5s.1-.3.4-.6c.1-.1,0-.1.3-.2l.2-.1h0l.1-.1.1-.1.2-.1.2-.2.2-.2.3-.2.3-.2.4-.3.4-.3.4-.3.5-.4.5-.4.6-.4.6-.4.6-.5.7-.5.7-.5.7-.6.8-.6.8-.6.8-.6.9-.7.9-.7,1-.7,1-.7,1-.8,1.1-.8,1.1-.8,1.1-.9,1.2-.9,1.2-.9,1.2-.9,1.3-1,1.3-1,1.3-1,1.3-1,1.4-1.1,1.4-1.1,1.4-1.1,1.5-1.1,1.5-1.1,1.5-1.2,1.6-1.2,1.6-1.2,1.6-1.2,1.6-1.3,1.7-1.3,1.7-1.3,1.7-1.3,1.8-1.4,1.8-1.4,1.8-1.4,1.8-1.4,1.9-1.4,1.9-1.5,1.9-1.5,1.9-1.5,2-1.5,2-1.5,2-1.6,2-1.6,2.1-1.6,2.1-1.6,2.1-1.6,2.1-1.7,2.2-1.7,2.2-1.7,2.2-1.7,2.2-1.7,2.2-1.8,2.3-1.8,2.3-1.8,2.3-1.8,2.3-1.8,2.4-1.8,2.4-1.9,3.6-2.8,4.9-3.8,4.9-3.9,5-4,5.1-4,5.1-4.1,5.2-4.1,5.3-4.2,5.3-4.3,5.4-4.3,5.5-4.4,5.5-4.4,5.6-4.5,5.6-4.5,5.7-4.6,5.7-4.6,5.8-4.7,5.8-4.7,5.8-4.7,5.9-4.8,5.9-4.8,5.9-4.9,6-4.9,6-4.9,6-5,6-5,6.1-5,6.1-5.1,6.1-5.1,9.2-7.7,12.3-10.3,12.3-10.4,12.3-10.5,12.3-10.6,12.2-10.6,12.2-10.7,12.1-10.7,12-10.7,11.9-10.7,8.9-8,5.9-5.4,5.8-5.4,5.8-5.4,5.8-5.3,5.7-5.3,5.7-5.3,5.6-5.3,5.6-5.3,5.5-5.3,5.5-5.3,5.4-5.2,5.4-5.2,5.3-5.2,5.2-5.2,5.2-5.2,5.1-5.1,5-5.1,5-5.1,4.9-5.1,4.8-5,4.7-5,4.6-5,4.6-4.9,4.5-4.9,4.4-4.9,4.3-4.8,4.2-4.8,4.1-4.7,4-4.7,2.9-3.5,1.9-2.3,1.9-2.3,1.9-2.3,1.9-2.3,1.8-2.3,1.8-2.2,1.8-2.2,1.7-2.2,1.7-2.2,1.7-2.2,1.7-2.2,1.6-2.2,1.6-2.2,1.6-2.1,1.5-2.1,1.5-2.1,1.5-2.1,1.5-2.1,1.4-2.1.7-1c.1-.1.1-.2.2-.2l2-2.2,3.9-4.5,3.9-4.5,3.8-4.5,5.7-6.7,7.5-9,7.3-9,7.2-9,7.1-9,5.2-6.7,3.4-4.5,3.4-4.5,3.4-4.5,3.3-4.5,3.3-4.5,3.3-4.5,3.2-4.5,3.2-4.4,3.2-4.4,3.1-4.4,3.1-4.4,3.1-4.4,3-4.4,3-4.4,3-4.4,2.9-4.4,2.9-4.3,2.9-4.3,2.8-4.3,2.8-4.3,2.8-4.3,2.8-4.3,2.7-4.2,2.7-4.2,2.7-4.2,2.6-4.2,2.6-4.2,2.6-4.1,2.5-4.1,2.5-4.1,2.5-4.1,2.4-4.1,2.4-4,2.4-4,2.3-4,2.3-4,2.3-3.9,2.2-3.9,2.2-3.9,2.2-3.8,2.2-3.8,2.1-3.8,2.1-3.8,2.1-3.7,2-3.7,2-3.7,2-3.6,1.9-3.6,1.9-3.6,1.9-3.5,1.8-3.5,1.8-3.5,1.8-3.4,1.8-3.4,1.7-3.3,1.7-3.3,1.7-3.3,1.6-3.2,1.6-3.2,1.6-3.1,1.5-3.1,1.5-3.1,1.5-3,1.4-3,1.4-2.9,1.4-2.9,1.4-2.8,1.3-2.8,1.3-2.7,1.3-2.7,1.2-2.7,1.2-2.6,1.2-2.6,1.1-2.5,1.1-2.5,1.1-2.4,1.1-2.4,1-2.3,1-2.2,1-2.2.9-2.1.9-2.1.9-2,.9-2,.8-1.9.8-1.9.8-1.8.7-1.7.7-1.7.7-1.6.7-1.6.6-1.5.6-1.4.6-1.4.5-1.3.5-1.3.5-1.2.5-1.1.4-1.1.4-1,.4-.9.3-.9.3-.8.3-.7.3-.6.2-.6.2-.5.2-.4.1-.4.1-.3.1-.2.1-.1v-.3l.1-.2.1-.2.1-.3.1-.4.1-.4.2-.5.2-.5.2-.6.2-.6.2-.7.2-.7.3-.8.3-.8.3-.9.3-.9.3-1,.3-1,.3-1.1.4-1.1.4-1.2.4-1.2.4-1.3.4-1.3.4-1.4.4-1.4.4-1.4.4-1.5.4-1.5.5-1.6.5-1.6.5-1.6.5-1.7.5-1.7.5-1.7.5-1.8.7-2.7,1-3.7,1-3.9,1-4,1-4.1,1-4.2,1-4.3,1-4.4,1-4.5,1-4.6.9-4.6.9-4.7.9-4.8.8-4.8.8-4.9.8-4.9.7-4.9.7-5,.6-5,.6-5,.5-5,.4-5,.4-5,.3-5,.2-5,.1-5,.1-5v-4.9l-.1-4.9-.2-3.7-.1-2.4-.2-2.4-.2-2.4-.2-2.4-.2-2.4-.3-2.3-.3-2.3-.3-2.3-.3-2.3-.4-2.3-.4-2.3-.4-2.2-.5-2.2-.5-2.2-.5-2.2-.6-2.1-.6-2.1-.6-2.1-.7-2.1-.7-2-.7-2-.8-2-.8-2-.8-1.9-.9-1.9-.9-1.9-.9-1.8-1-1.8-1-1.8-1.1-1.7-1.1-1.7-.6-.8-.8-1.1-1.6-2.3-1.7-2.2-1.7-2.2-1.8-2.2-1.8-2.1-1.9-2.1-2-2.1-2-2-2.1-2-2.2-2-2.2-1.9-2.3-1.9-2.4-1.9-2.5-1.8-2.6-1.8-2.7-1.7-2.8-1.7-2.2-1.3-1.5-.8-1.5-.8-1.5-.8-1.5-.8-1.6-.8-1.6-.8-1.6-.8-1.7-.8-1.7-.7-1.7-.7-1.8-.7-1.8-.7-1.8-.7-1.8-.7-1.9-.7-1.9-.7-1.9-.7-2-.7-2-.6-2-.6-2.1-.6-2.1-.6-2.1-.6-2.2-.6-2.2-.6-2.2-.6-2.3-.6-1.2-.3-2.3-.5-4.6-1-4.6-.9-4.6-.8-4.6-.7-4.5-.7-4.5-.6-4.4-.5-4.4-.4-4.3-.4-3.2-.2-2.1-.1-2-.1-2-.1-2-.1-2-.1-1.9-.1-1.9-.1-1.9-.1-1.8-.1h-34.8c-3.3.3-5-.5-4-1.9,1.2-1.5,5.3-3.3,9.3-3.9h.4l.4-.1.5-.1.6-.1.8-.1.9-.1,1-.1,1.1-.2,1.2-.2,1.3-.2,1.4-.2,1.5-.2,1.6-.2,1.7-.2,1.8-.2,1.8-.2,1.9-.3,2-.3,2.1-.3,2.1-.3,2.2-.3,2.3-.3,2.3-.3,2.4-.3,2.5-.3,2.5-.3,2.6-.3,2.6-.3,2.7-.3,2.7-.3,2.8-.3,2.8-.3,4.3-.4,5.8-.6,5.9-.6,6-.5,6-.5,6-.5,6-.4,6-.4,6-.4,4.4-.2,2.9-.1,2.9-.1,2.9-.1,2.9-.1,2.8-.1,2.8-.1h2.8Z" transform="translate(2 1.1)"/></g><path id="Linea" class="cls-8" d="M1344.7,181.3c96.6,54.7,214.1,200,237.3,262.1,1.4,3.8,6.2,14.2,6.2,14.2" transform="translate(2 1.1)"/></g><g id="g8"><path id="path2-2" d="M3043,372.16c-53.61,0-87,39.84-87,108.83,0,63.42,29.3,112.2,86.13,112.2,54.49,0,90.23-43.94,90.23-113.81,0-74-39.84-107.22-89.35-107.22Z" transform="translate(2 1.1)"/><path id="path4" d="M4480,556.57c0,23.58,11.42,42.33,43.06,42.33,37.35,0,77.2-26.8,79.69-87.74-17-2.49-35.74-4.83-52.88-4.83-37.35-.15-69.87,10.4-69.87,50.24Z" transform="translate(2 1.1)"/><path id="path6-4" d="M1950,0v837.7H4879.58V0Zm852.36,665.59H2648.72V459.16c0-63.42-21.09-87.74-62.54-87.74-50.39,0-70.75,35.74-70.75,87V585.87h48.77v79.68H2410.69V459.16c0-63.42-21.09-87.74-62.54-87.74-50.39,0-70.75,35.74-70.75,87V585.87h69.87v79.68H2123.89V585.87h48.78V378.6h-48.78V298.92H2277.4v55.22c22-39,60.2-62.55,111.32-62.55,52.88,0,101.51,25.2,119.53,78.81,20.36-48.78,61.81-78.81,119.52-78.81,65.77,0,126,39.85,126,126.71V585.87h48.77l-.14,79.68Zm236.56,8.06c-112.94,0-191-69-191-186,0-107.22,65-195.84,196.72-195.84s195.84,88.47,195.84,190.86C3240.49,599.64,3156,673.61,3038.94,673.61Zm591-8.06h-320.2l-10.55-55.22,201.55-231.58H3386.24L3370,435.58l-75.58-8.2,13-128.46h321.81l8.21,55.22L3434.14,585.87h118.64L3569.92,529l82.91,8.06Zm209.17,0H3729.44V533.87h109.71Zm0-234.95H3729.44V298.92h109.71Zm68.55,234.95,158.49-559.1h103.26L4011,665.55Zm213,0L4279,106.45h103.27L4223.8,665.55Zm562.47,8.06c-48.77,0-75.58-28.42-80.41-73.09-21.1,37.35-58.45,73.09-117.77,73.09-52.88,0-112.94-28.42-112.94-104.88,0-90.23,87-111.32,170.65-111.32,20.36,0,41.45.88,60.2,3.22V448.47c0-37.35-.88-82-60.2-82-22,0-39,1.61-56.1,10.55l-11.87,41.31-83.63-8.94L4405.43,325c64.16-26.07,96.68-33.25,156.88-33.25,78.8,0,145.45,40.57,145.45,124.36V575.32c0,21.09,8.2,28.42,25.19,28.42a55,55,0,0,0,15.38-2.49l.88,55.22c-19.77,10.69-43.35,17.14-66.06,17.14Z" transform="translate(2 1.1)"/></g></svg>