<?xml version="1.0" encoding="utf-8"?>
<!-- Generator: Adobe Illustrator 24.3.0, SVG Export Plug-In . SVG Version: 6.00 Build 0)  -->
<svg version="1.1" xmlns="http://www.w3.org/2000/svg" xmlns:xlink="http://www.w3.org/1999/xlink" x="0px" y="0px"
	 viewBox="0 0 4879.5 1721.9" style="enable-background:new 0 0 4879.5 1721.9;" xml:space="preserve">
<style type="text/css">
	.st0{fill:#007CFF;}
	.st1{font-family:'ZillaSlabHighlight-Bold';}
	.st2{font-size:741.3333px;}
	.st3{font-family:'ArialMT';}
	.st4{font-size:12px;}
	.st5{fill:#FFFFFF;stroke:#007CFF;stroke-width:10;stroke-miterlimit:10;}
	.st6{fill:#FFFFFF;}
	.st7{fill:#FF2300;stroke:#007CFF;stroke-width:10;stroke-miterlimit:10;}
	.st8{fill:#00BB00;stroke:#007CFF;stroke-width:10;stroke-miterlimit:10;}
	.st9{fill:none;stroke:#FFFFFF;stroke-width:40;}
</style>
<g id="svg205" inkscape:export-filename="Z:\Documents\Mozilla\Logo\Png\Colorato\mozita logo scuro.png" inkscape:export-xdpi="10.230179" inkscape:export-ydpi="10.230179" inkscape:version="0.92.4 (5da689c313, 2019-01-14)" sodipodi:docname="mozita logo tricolore-azzurro.svg" xmlns:cc="http://creativecommons.org/ns#" xmlns:dc="http://purl.org/dc/elements/1.1/" xmlns:inkscape="http://www.inkscape.org/namespaces/inkscape" xmlns:rdf="http://www.w3.org/1999/02/22-rdf-syntax-ns#" xmlns:sodipodi="http://sodipodi.sourceforge.net/DTD/sodipodi-0.dtd" xmlns:svg="http://www.w3.org/2000/svg">
	
		<sodipodi:namedview  bordercolor="#666666" borderopacity="1" gridtolerance="10" guidetolerance="10" id="namedview207" inkscape:current-layer="svg205" inkscape:cx="1824.9658" inkscape:cy="1099.4443" inkscape:pageopacity="0" inkscape:pageshadow="2" inkscape:window-height="801" inkscape:window-maximized="1" inkscape:window-width="1536" inkscape:window-x="-8" inkscape:window-y="-8" inkscape:zoom="0.125" objecttolerance="10" pagecolor="#ffffff" showgrid="false">
		</sodipodi:namedview>
	<text transform="matrix(1 0 0 1 1961.079 1563.9667)" class="st0 st1 st2"> Italia </text>
	<text transform="matrix(1 0 0 1 952.1266 124.2686)" class="st3 st4">Lorem ipsum</text>
	
		<g id="g8" transform="matrix(1.4647787,0,0,1.4647787,-100.08243,-546.11372)" inkscape:export-filename="Z:\Documents\Mozilla\Logo\Png\Colorato\mozita logo scuro.png" inkscape:export-xdpi="59.022247" inkscape:export-ydpi="59.022247">
		<path id="path2-2" inkscape:connector-curvature="0" d="M2145.8,626.9c-36.6,0-59.4,27.2-59.4,74.3c0,43.3,20,76.6,58.8,76.6
			c37.2,0,61.6-30,61.6-77.7C2206.8,649.6,2179.6,626.9,2145.8,626.9L2145.8,626.9z"/>
		<path id="path4" inkscape:connector-curvature="0" d="M3126.8,752.8c0,16.1,7.8,28.9,29.4,28.9c25.5,0,52.7-18.3,54.4-59.9
			c-11.6-1.7-24.4-3.3-36.1-3.3C3149,718.4,3126.8,725.6,3126.8,752.8L3126.8,752.8z"/>
		<path id="path6-4" inkscape:connector-curvature="0" d="M1399.6,372.8v571.9h2000V372.8H1399.6z M1981.5,827.2h-104.9V686.3
			c0-43.3-14.4-59.9-42.7-59.9c-34.4,0-48.3,24.4-48.3,59.4v87h33.3v54.4h-104.8V686.3c0-43.3-14.4-59.9-42.7-59.9
			c-34.4,0-48.3,24.4-48.3,59.4v87h47.7v54.4h-152.5v-54.4h33.3V631.3h-33.3v-54.4h104.8v37.7c15-26.6,41.1-42.7,76-42.7
			c36.1,0,69.3,17.2,81.6,53.8c13.9-33.3,42.2-53.8,81.6-53.8c44.9,0,86,27.2,86,86.5v114.4h33.3L1981.5,827.2L1981.5,827.2z
			 M2143,832.7c-77.1,0-130.4-47.1-130.4-127c0-73.2,44.4-133.7,134.3-133.7s133.7,60.4,133.7,130.3
			C2280.6,782.2,2222.9,832.7,2143,832.7z M2546.5,827.2h-218.6l-7.2-37.7l137.6-158.1h-78.2l-11.1,38.8l-51.6-5.6l8.9-87.7H2546
			l5.6,37.7l-138.8,158.2h81l11.7-38.8l56.6,5.5L2546.5,827.2z M2689.3,827.2h-74.9v-89.9h74.9V827.2z M2689.3,666.8h-74.9v-89.9
			h74.9V666.8z M2736.1,827.2l108.2-381.7h70.5l-108.2,381.7H2736.1z M2881.5,827.2l108.1-381.7h70.5l-108.2,381.7H2881.5z
			 M3265.5,832.7c-33.3,0-51.6-19.4-54.9-49.9c-14.4,25.5-39.9,49.9-80.4,49.9c-36.1,0-77.1-19.4-77.1-71.6c0-61.6,59.4-76,116.5-76
			c13.9,0,28.3,0.6,41.1,2.2V679c0-25.5-0.6-56-41.1-56c-15,0-26.6,1.1-38.3,7.2l-8.1,28.2l-57.1-6.1l9.8-57.6
			c43.8-17.8,66-22.7,107.1-22.7c53.8,0,99.3,27.7,99.3,84.9v108.7c0,14.4,5.6,19.4,17.2,19.4c3.3,0,6.7-0.6,10.5-1.7l0.6,37.7
			C3297.1,828.3,3281,832.7,3265.5,832.7L3265.5,832.7z"/>
	</g>
</g>
<g id="Livello_2">
	
		<g id="Sfondo_2_" transform="translate(-25,-92)" inkscape:export-filename="Z:\Documents\Mozilla\Icon\Png\Tricolour\tricolour 33x30.png" inkscape:export-xdpi="1.6044568" inkscape:export-ydpi="1.6044568">
		<path id="Sfondo2_2_" inkscape:connector-curvature="0" class="st5" d="M885,1812.9c-474.9,0-860-385.1-860-860S410.1,93,885,93
			s860,385.1,860,860S1359.9,1812.9,885,1812.9z"/>
		<path id="Sfondo1_2_" inkscape:connector-curvature="0" class="st0" d="M885,1764.6c-448.3,0-811.7-363.4-811.7-811.7
			S436.7,141.3,885,141.3s811.7,363.4,811.7,811.7S1333.3,1764.6,885,1764.6z"/>
	</g>
	
		<g id="Dinosauro_1_" transform="translate(-25,-92)" inkscape:export-filename="Z:\Documents\Mozilla\Icon\Png\Tricolour\tricolour 33x30.png" inkscape:export-xdpi="1.6044568" inkscape:export-ydpi="1.6044568">
		<g id="g133_1_">
			<path id="path129_1_" inkscape:connector-curvature="0" class="st6" d="M765.6,697.7c3-0.2,6.1,0.2,9,0.9
				c6.5,3.5,2.1,11.3,0.5,17.1c-34.5,103.9-54.3,188.8-114.8,195.8c-84,16.4-139-52.5-103.5-77.1c56.9-34.2,56.9-34.2,88.8-55.9
				c25.4-20.3,48.4-43.5,75.4-61.7C734.5,707.6,749.2,699.2,765.6,697.7z"/>
			<path id="path131_1_" inkscape:connector-curvature="0" class="st6" d="M660.3,911.5c-84,16.4-139-52.5-103.5-77.1
				c56.9-34.2,56.9-34.2,88.8-55.9c29.4-22.6,92.5-89.3,129-79.9c6.5,3.5,2.1,11.3,0.5,17.1C740.6,819.5,720.9,904.4,660.3,911.5"/>
		</g>
		<g id="g139_1_">
			<path id="path135_1_" inkscape:connector-curvature="0" class="st6" d="M544.5,1297.7l11.1,9.2"/>
			<path id="path137_1_" inkscape:connector-curvature="0" class="st6" d="M544.5,1297.7l11.1,9.2"/>
		</g>
		<path id="path141_1_" inkscape:connector-curvature="0" class="st6" d="M509,1390.5L509,1390.5"/>
		<g id="g147_1_">
			<path id="path143_1_" inkscape:connector-curvature="0" class="st6" d="M514.1,1390.5c-4.7-1.4-5.1-1.8-5.1-5
				c0-36.5,11.4-59.6,35.6-87.8c8.1,28.7,36.5,47.1,59.2,65.2c1.8,1.4-46.9,23.3-86,27.6"/>
			<path id="path145_1_" inkscape:connector-curvature="0" class="st6" d="M514.1,1390.5c-4.7-1.4-5.1-1.8-5.1-5
				c0-36.5,11.4-59.6,35.6-87.8c8.1,28.7,36.5,47.1,59.2,65.2c1.8,1.4-46.9,23.3-86,27.6"/>
		</g>
		<g id="g153_1_">
			<path id="path149_1_" inkscape:connector-curvature="0" class="st6" d="M930.3,160.4c15.9,0.7,25.8,9.5,31.8,23.5
				c18.7,45.2,20.8,55.3,29.5,69.8c23.6,39.3,43.3,65.2,37,63.7c-66.8-15.4-121-29.7-198.6-17.5c-28.1,4.4-52,15.7-77.6,27.7
				c22.5-50,59.1-94.3,101-129.2C875.3,180.1,901,161.8,930.3,160.4z"/>
			<path id="path151_1_" inkscape:connector-curvature="0" class="st6" d="M752.3,327.6c33.7-82.7,177-223.1,209.8-143.7
				c18.7,45.2,20.8,55.3,29.5,69.8c23.6,39.3,43.3,65.2,37,63.7c-66.8-15.4-121-29.7-198.6-17.5C801.9,304.3,778,315.6,752.3,327.6"
				/>
		</g>
		<g id="g159_1_">
			<path id="path155_1_" inkscape:connector-curvature="0" class="st6" d="M1316.9,512.4c12.5,0,70.9,1.6,53.7,28.2
				c-15.2,22.1-18.2,48.7-29.4,63.8c-16.1-26.7-16.1-26.7-59.8-88.3C1293,513.3,1305,512.7,1316.9,512.4z"/>
			<path id="path157_1_" inkscape:connector-curvature="0" class="st6" d="M1341.1,604.4c-16.1-26.7-16.1-26.7-59.8-88.3
				c34.2-8.4,108.8-4.2,89.1,24.4C1355.3,562.8,1352.3,589.3,1341.1,604.4"/>
		</g>
		<g id="g165_1_">
			<path id="path161_1_" inkscape:connector-curvature="0" class="st6" d="M905.4,370.6c41.4,0,82.8,6,121.6,20.6
				c202.5,78.4,302.2,303.5,394.3,482.8c50.7,109.5,50.7,109.5,70.7,156.6c-0.5,0-1,0-1,0.5c-69.8-146-145.2-290.1-236.8-424.1
				c-48.8-62.3-99.6-125.1-172.2-161c-118.4-58.5-227.3-60.3-349.9,5.8c-71.6,38.7-139.6,108.4-181.5,179.5
				c-49,83.1-88.9,136.9-121,242.9c-23.4,77.2-35,111.3-41.7,149.5c-28.6,163.4-25.8,224.2-10.8,316c9,55,36.7,99.1,72.5,124.3
				c16.4,11.5,52.2,21.5,59.3,22.7c63.6,10.7,95.8,2.8,157.6-14.3c172.7-64.7,303.1-195.4,359.6-367.3
				c26.1-114.1,31.7-248.6-38.4-348.8c0-0.5,0-0.5,0.5-0.5c18.1,5.5,32.4,21,41.3,37c27.6,49.7,36.1,131.4,36.1,188.6
				c0,144.6-16.1,170.3-50.3,256.2c-30.4,55.4-57.4,97.8-107.2,150.2c-25.3,26.5-86.8,69.3-87.3,69.8
				c-97.3,63.3-222.5,120.1-340.7,93.3c-25.3-5.7-49.5-17.9-66.4-33.7c-153.2-142.6-86.3-419.3-37.3-594
				c15-53.7,35.9-101.5,51.7-137.3c63.4-143,132.7-262.4,287.8-363.2c44.3-28.5,95.9-44.1,148.1-49.6
				C882.2,370.9,887.2,371.2,905.4,370.6L905.4,370.6z"/>
			<path id="path163_1_" inkscape:connector-curvature="0" class="st6" d="M1492,1030.7c-0.5,0-1,0-1,0.5
				c-69.8-146-145.2-290.1-236.8-424.1c-48.8-62.3-99.6-125.1-172.2-161c-118.4-58.5-227.3-60.3-349.9,5.8
				c-71.6,38.6-139.6,108.3-181.5,179.4c-49,83.1-88.9,136.9-121,242.9c-23.4,77.2-35,111.3-41.7,149.5
				c-28.6,163.4-25.8,224.2-10.8,316c9,55,36.7,99.1,72.5,124.3c16.4,11.5,52.2,21.5,59.3,22.7c63.6,10.7,95.8,2.8,157.6-14.3
				c172.7-64.7,303.1-195.4,359.6-367.3c26.1-114.1,31.7-248.6-38.4-348.8c0-0.5,0-0.5,0.5-0.5c18.1,5.5,32.4,21,41.3,37
				c27.6,49.7,36.1,131.4,36.1,188.6c0,144.6-16.1,170.3-50.3,256.2c-30.4,55.4-57.4,97.8-107.2,150.2
				c-25.3,26.5-86.8,69.3-87.3,69.8c-97.3,63.3-222.5,120.1-340.7,93.3c-25.3-5.7-49.5-17.9-66.4-33.7
				c-153.2-142.6-86.3-419.3-37.3-594c15-53.7,35.9-101.5,51.7-137.3c63.4-143,132.7-262.4,287.8-363.2
				c93.1-60.3,226.1-64.2,311.2-31.2c202.5,78.4,302.2,303.5,394.3,482.8C1472.1,983.6,1472.1,983.6,1492,1030.7"/>
		</g>
		<g id="g171_1_">
			<path id="path167_1_" inkscape:connector-curvature="0" class="st6" d="M1232,323.6c14.3,0.1,8.2-0.2,18.5,0.4
				c6.3,1.5,22.5,2.6,25.9,14c1.4,4.5,3.9,5.2-16.9,55.6c-6.5,15.7-12.8,37.7-20.6,70.4c-4.1-1.4-43.6-43-67.2-60.7
				c-12.2-9.8-57.4-41.5-68.1-47.4c-4.2-2.4,82.3-26.3,82.3-26.3c11.4-2.7,23-4.4,34.7-5.3C1224.4,323.9,1228.2,323.8,1232,323.6
				L1232,323.6z"/>
			<path id="path169_1_" inkscape:connector-curvature="0" class="st6" d="M1103.6,355.9c-4.2-2.4,82.3-26.3,82.3-26.3
				s30.9-8,64.7-5.5c6.3,1.5,22.5,2.6,25.9,14c1.4,4.5,3.9,5.2-16.9,55.6c-6.5,15.7-12.8,37.7-20.6,70.4c-4.1-1.4-43.6-43-67.2-60.7
				C1159.5,393.4,1114.3,361.8,1103.6,355.9L1103.6,355.9z"/>
		</g>
		<g id="g177_1_">
			<path id="path173_1_" inkscape:connector-curvature="0" class="st6" d="M1075.8,817.6c12.8,0.2,25.5,2.1,38,4.1
				c41.3,3.9,44.6,13.4,40.5,15.7c-19.3,11.1-17.6,8.8-37.3,25.8c-14.5,12.6-36,41.8-36.3,36.5c-0.3-5.3-3.7-29.6-6.3-44.3
				c-2.7-14.7-8.3-31.5-9.1-34.7C1064.9,817.3,1074,817.7,1075.8,817.6z"/>
			<path id="path175_1_" inkscape:connector-curvature="0" class="st6" d="M1065.4,820.8c1,3.2,6.6,20,9.1,34.7
				c2.7,14.7,6,39.1,6.3,44.3c0.3,5.2,21.8-24,36.3-36.5c19.7-17,18-14.7,37.3-25.8c4.1-2.4,0.8-11.8-40.5-15.7
				C1092.2,818.1,1063.7,815.2,1065.4,820.8z"/>
		</g>
	</g>
	<g id="Anelli_1_" transform="translate(-25,-92)" inkscape:export-xdpi="9.0919218" inkscape:export-ydpi="9.0919218">
		<path id="Rosso_1_" inkscape:connector-curvature="0" class="st7" d="M1772.2,551.3h5.5l2.7,0.1h2.3l4.5,0.1l4.5,0.1l4.4,0.2
			l4.4,0.2l4.3,0.3l4.2,0.3l4.2,0.3l4.1,0.4l4,0.4l4,0.5l3.9,0.5l3.9,0.5l3.8,0.6l3.7,0.6l3.7,0.7l3.6,0.7l3.5,0.7l3.5,0.8l3.4,0.8
			l3.3,0.9l3.3,0.9l3.2,0.9l3.1,1l3.1,1l3,1.1l3,1.1l2.9,1.1l2.9,1.2l2.9,1.2l2.8,1.3l2.7,1.3l2.7,1.3l2.6,1.4l2.5,1.4l2.5,1.5
			l2.4,1.5l2.3,1.5l2.3,1.6l2.2,1.6l2.1,1.7l2.1,1.7l2,1.7l1.9,1.8l1.9,1.8l1.8,1.9l1.7,1.9l1.7,1.9l1.6,2l1.5,2l1.5,2.1l1.4,2.1
			l1.3,2.2l1.2,2.2l1.2,2.2l1.1,2.3l1,2.3l1,2.4l0.9,2.4l0.8,2.4l0.8,2.5l0.7,2.5l0.6,2.6l0.6,2.6l0.3,1.3l0,0l0.2,1.2l0.4,2.4
			l0.4,2.4l0.3,2.4l0.3,2.4l0.3,2.5l0.2,2.5l0.2,2.5l0.2,2.5l0.1,2.5l0.1,2.5l0.1,2.5v2.5v2.6v2.6v2.6l-0.1,2.6l-0.1,2.6l-0.2,3.8
			l-0.4,5.1l-0.5,5.2l-0.6,5.2l-0.7,5.2l-0.8,5.2l-0.9,5.3l-1,5.3l-1.1,5.3l-1.2,5.3l-1.3,5.3l-1.4,5.3l-1.5,5.3l-1.5,5.4l-1.6,5.4
			l-1.7,5.4l-1.8,5.4l-1.8,5.3l-1.9,5.3l-2,5.3l-2,5.3l-2.1,5.3l-2.1,5.3l-2.2,5.3l-2.2,5.2l-2.3,5.2l-2.3,5.2l-2.4,5.2l-2.4,5.1
			l-2.5,5.1l-2.5,5.1l-2.5,5l-2.6,5l-2.6,4.9l-2.6,4.9l-2.6,4.8l-2.7,4.8l-2.7,4.7l-2.7,4.7l-2.7,4.6l-2.7,4.5l-2.7,4.5l-2.7,4.4
			l-2.7,4.3l-2.7,4.3l-2.7,4.2l-2.7,4.1l-2.7,4l-2.7,4l-2.7,3.9l-2.6,3.8l-2.6,3.7l-2.6,3.6l-2.6,3.5l-2.5,3.4l-1.2,1.7l0,0
			l-2.8,3.7l-5.5,7.5l-5.5,7.4l-5.5,7.4l-5.6,7.3l-5.6,7.3l-5.6,7.2l-5.6,7.2l-5.6,7.1l-5.7,7l-5.7,7l-5.7,6.9l-5.7,6.9l-5.7,6.8
			l-5.7,6.8l-5.7,6.7l-5.7,6.7l-5.7,6.6l-5.7,6.6l-5.7,6.5l-5.7,6.4l-5.7,6.4l-5.7,6.3l-5.7,6.3l-5.7,6.2l-5.7,6.2l-5.7,6.1
			l-5.7,6.1l-5.7,6l-5.7,5.9l-5.7,5.9l-5.7,5.8l-5.7,5.8l-5.7,5.7l-5.7,5.7l-5.7,5.6l-5.7,5.5l-5.6,5.5l-5.6,5.4l-5.6,5.4l-5.6,5.3
			l-5.6,5.3l-5.6,5.2l-5.5,5.1l-5.5,5.1l-5.5,5l-5.5,5l-5.5,4.9l-5.4,4.9l-5.4,4.8l-5.4,4.7l-5.3,4.7l-5.3,4.6l-5.3,4.6l-5.3,4.5
			l-5.2,4.5l-5.2,4.4l-5.1,4.3l-5.1,4.3l-5.1,4.2l-5,4.2l-5,4.1l-5,4l-4.9,4l-4.9,3.9l-4.8,3.9l-4.8,3.8l-4.7,3.7l-4.7,3.7l-4.7,3.6
			l-4.6,3.6l-4.6,3.5l-4.5,3.5l-4.5,3.4l-4.4,3.3l-4.3,3.3l-4.3,3.2l-4.2,3.1l-4.2,3.1l-4.1,3l-4.1,3l-4,2.9l-3.9,2.9l-3.9,2.9
			l-3.8,2.8l-3.8,2.8l-3.7,2.7l-3.6,2.6l-3.6,2.6l-3.5,2.5l-3.4,2.5l-3.3,2.4l-3.3,2.3l-3.2,2.3l-3.1,2.2l-3.1,2.2l-3,2.1l-2.9,2
			l-2.9,2l-2.9,1.9l-2.8,1.8l-2.7,1.8l-2.6,1.7l-2.5,1.7l-2.4,1.6l-2.4,1.5l-2.3,1.5l-1.6,1.1l-1.1,0.7l-1,0.7l-1,0.7l-1,0.6l-1,0.6
			l-1,0.6l-0.9,0.6l-0.9,0.6l-0.9,0.6l-0.9,0.5l-0.8,0.5l-0.8,0.5l-0.8,0.5l-0.8,0.5l-0.8,0.5l-0.7,0.5l-0.7,0.4l-0.7,0.4l-0.7,0.4
			l-0.6,0.4l-0.6,0.4l-0.6,0.4l-0.6,0.3l-0.5,0.3l-0.5,0.3l-0.5,0.3l-0.5,0.3l-0.4,0.3l-0.4,0.2l-0.4,0.2l-0.4,0.2l-0.3,0.2
			l-0.3,0.2l-0.3,0.2l-0.2,0.1l-0.2,0.1l-0.2,0.1l-0.2,0.1l-0.1,0.1l-0.1,0.1h-0.1l0,0l0,0l-8.2,4.9l-16.4,9.8l-16.5,9.8l-16.5,9.7
			l-16.5,9.7l-12.4,7.2l-8.3,4.8l-8.3,4.7l-8.2,4.7l-8.2,4.7l-8.2,4.6l-8.1,4.6l-8.1,4.6l-8,4.5l-8,4.5l-7.9,4.4l-7.8,4.4l-7.8,4.3
			l-7.7,4.3l-7.6,4.2l-5.6,3.1l-3.7,2.1l-3.7,2.1l-3.6,2.1l-3.6,2.1l-3.6,2.1l-3.6,2l-3.5,2l-3.5,2l-3.5,2l-3.4,2l-3.4,1.9l-3.4,1.9
			l-3.4,1.9l-3.3,1.9l-3.3,1.9l-3.3,1.8l-3.2,1.8l-3.2,1.8l-3.1,1.8l-3.1,1.8l-3.1,1.7l-3,1.7l-3,1.7l-3,1.7l-2.9,1.7l-2.9,1.6
			l-2.9,1.6l-2.9,1.6l-2.9,1.6l-2.8,1.5l-2.8,1.5l-2.7,1.5l-2.7,1.5l-2.6,1.4l-2.6,1.4l-2.5,1.4l-2.5,1.4l-2.5,1.3l-2.4,1.3
			l-2.4,1.3l-2.3,1.2l-2.3,1.2l-2.2,1.2l-2.2,1.2l-2.1,1.1l-2,1.1l-2,1.1l-1.9,1l-1.9,1l-1.8,1l-1.8,1l-1.7,0.9l-1.7,0.9l-1.6,0.9
			l-1.5,0.8l-1.5,0.8l-1.4,0.8l-1.4,0.7l-1.3,0.7l-1.2,0.7l-1.2,0.6l-1.1,0.6l-1,0.6l-1,0.5l-0.9,0.5l-0.8,0.5l-0.8,0.4l-0.7,0.4
			l-0.6,0.3l-0.6,0.3l-0.5,0.3l-0.4,0.2l-0.4,0.2l-0.3,0.2l-0.2,0.1l-0.2,0.1h-0.1l0,0l-0.3,0.1c-0.3,0.2-0.2,0.1-0.4,0.2
			c-0.9,0.4-0.4,0.2-1.6,0.6c-1.1,0.4-0.6,0.3-1.4,0.5c-0.8,0.3-0.3,0.1-1.5,0.4s-0.7,0.2-1.5,0.3c-0.8,0.2-0.3,0.1-1.4,0.2
			c-1.2,0.2-0.7,0.1-1.6,0.1c-0.3,0-0.1,0-0.4,0h-0.3h-0.3h-0.3h-0.2c-0.3,0-0.2,0-0.3-0.1c-0.6-0.1-0.3,0-0.8-0.3
			c-0.5-0.2-0.4,0-0.5-0.3c-0.2-0.2-0.2,0-0.1-0.4c-0.1-0.4-0.1-0.2,0.1-0.5c0.1-0.4,0-0.1,0.5-0.6c0.4-0.5,0.2-0.3,0.7-0.7
			c0.2-0.1,0.1-0.1,0.3-0.2l0.2-0.1l0,0l0,0l0.1-0.1l0.1-0.1l0.2-0.1l0.2-0.1l0.3-0.2l0.3-0.2l0.4-0.2l0.4-0.2l0.4-0.3l0.5-0.3
			l0.5-0.3l0.6-0.4l0.6-0.4l0.7-0.4l0.7-0.4l0.7-0.5l0.8-0.5l0.8-0.5l0.9-0.5l0.9-0.6l0.9-0.6l1-0.6l1-0.6l1.1-0.7l1.1-0.7l1.1-0.7
			l1.2-0.7l1.2-0.8l1.2-0.8l1.3-0.8l1.3-0.8l1.4-0.8l1.4-0.9l1.4-0.9l1.5-0.9l1.5-0.9l1.5-1l1.6-1l1.6-1l1.6-1l1.7-1l1.7-1.1
			l1.7-1.1l1.8-1.1l1.8-1.1l1.8-1.2l1.9-1.2l1.9-1.2l1.9-1.2l2-1.2l2-1.3l2-1.3l2-1.3l2.1-1.3l2.1-1.3l2.1-1.3l2.2-1.4l2.2-1.4
			l2.2-1.4l2.2-1.4l2.3-1.4l2.3-1.5l2.3-1.5l2.3-1.5l2.4-1.5l2.4-1.5l2.4-1.5l2.5-1.6l2.5-1.6l2.5-1.6l2.5-1.6l2.5-1.6l2.6-1.6
			l2.6-1.7l2.6-1.7l2.6-1.7l3.9-2.6l5.3-3.4l5.4-3.4l5.5-3.5l5.6-3.6l5.6-3.6l5.7-3.7l5.8-3.7l5.8-3.8l5.9-3.8l6-3.9l6-3.9l6.1-4
			l6.1-4l6.2-4.1l6.2-4.1l6.3-4.1l6.3-4.2l6.4-4.2l6.4-4.3l6.5-4.3l6.5-4.3l6.5-4.4l6.6-4.4l6.6-4.4l6.6-4.5l6.6-4.5l6.7-4.5
			l6.7-4.5l10-6.9l13.4-9.2l13.5-9.3l13.5-9.4l13.5-9.4l13.4-9.5l13.4-9.5l13.3-9.6l13.2-9.6l13.1-9.6l9.7-7.2l6.4-4.8l6.4-4.8
			l6.4-4.8l6.3-4.8l6.3-4.8l6.2-4.7l6.2-4.7l6.1-4.7l6-4.7l6-4.7l5.9-4.7l5.9-4.7l5.8-4.6l5.7-4.6l5.6-4.6l5.6-4.6l5.5-4.6l5.4-4.5
			l5.3-4.5l5.2-4.5l5.2-4.4l5.1-4.4l5-4.4l4.9-4.3l4.8-4.3l4.7-4.3l4.6-4.2l4.5-4.2l3.3-3.1l2.2-2.1l2.2-2.1l2.1-2.1l2.1-2.1
			l2.1-2.1l2.1-2.1l2-2.1l2-2l2-2l1.9-2l1.9-2l1.9-2l1.8-2l1.8-2l1.8-2l1.8-1.9l1.7-1.9l1.7-1.9l1.7-1.9l1.6-1.9l1.6-1.9l0.8-0.9
			c0.1-0.1,0.2-0.2,0.3-0.3l2.2-2l4.2-4l4.2-4l4.2-4l4.1-4l4.1-4l4-4l4-4l6-6.1l5.9-6.1l3.9-4l3.8-4l3.8-4l3.8-4l3.7-4l3.7-4l3.6-4
			l3.6-4l3.6-4l3.5-4l3.5-4l3.5-4l3.4-3.9l3.4-3.9l3.4-3.9l3.3-3.9l3.3-3.9l3.2-3.9l3.2-3.9l3.2-3.9l3.1-3.9l3.1-3.8l3.1-3.8l3-3.8
			l3-3.8l3-3.8l2.9-3.8l2.9-3.8l2.9-3.7l2.9-3.7l2.9-3.7l2.8-3.7l2.8-3.7l2.8-3.6l2.7-3.6l2.7-3.6l2.7-3.6l2.6-3.6l2.6-3.5l2.6-3.5
			l2.5-3.5l2.5-3.5l2.5-3.4l2.4-3.4l2.4-3.4l2.4-3.4l2.3-3.3l2.3-3.3l2.3-3.3l2.2-3.2l2.2-3.2l2.2-3.2l2.1-3.1l2.1-3.1l2.1-3.1
			l2-3.1l2-3l1.9-3l1.9-2.9l1.9-2.9l1.8-2.9l1.8-2.9l1.8-2.9l1.7-2.9l1.7-2.8l1.7-2.8l1.6-2.8l1.6-2.7l1.6-2.7l1.5-2.6l1.5-2.6
			l1.5-2.5l1.4-2.5l1.4-2.5l1.4-2.4l1.3-2.4l1.3-2.3l1.3-2.3l1.2-2.2l1.2-2.2l1.2-2.1l1.1-2.1l1.1-2l1.1-2l1.1-2l1-1.9l1-1.8l1-1.8
			l0.9-1.7l0.9-1.7l0.9-1.6l0.8-1.6l0.8-1.5l0.8-1.5l0.7-1.4l0.7-1.4l0.7-1.3l0.6-1.3l0.6-1.2l0.6-1.1l0.5-1.1l0.5-1l0.5-1l0.4-0.9
			l0.4-0.8l0.4-0.8l0.3-0.7l0.3-0.7l0.3-0.6l0.2-0.5l0.2-0.5l0.2-0.4l0.2-0.3l0.1-0.3l0.1-0.2l0.1-0.1v-0.1V839v-0.1l0.1-0.2
			l0.1-0.2l0.1-0.3l0.1-0.3l0.2-0.4l0.2-0.4l0.2-0.5l0.2-0.5l0.2-0.6l0.3-0.6l0.3-0.7l0.3-0.7l0.3-0.8l0.3-0.8l0.3-0.9l0.4-0.9
			l0.4-1l0.4-1l0.4-1l0.4-1.1l0.4-1.1l0.4-1.2l0.4-1.2l0.5-1.2l0.5-1.3l0.5-1.3l0.5-1.3l0.5-1.4l0.5-1.4l0.5-1.5l0.5-1.5l0.5-1.5
			l0.5-1.6l0.8-2.4l1.1-3.2l1.1-3.3l1.1-3.4l1.1-3.5l1.1-3.6l1.1-3.7l1.1-3.8l1.1-3.9l1.1-4l1.1-4.1l1-4.1l1-4.2l1-4.2l0.9-4.3
			l0.9-4.3l0.8-4.4l0.8-4.4l0.7-4.4l0.7-4.5l0.6-4.5l0.6-4.5l0.5-4.5l0.4-4.5l0.3-4.5l0.2-4.5l0.2-4.4l0.1-4.4v-4.4l-0.1-4.4
			l-0.2-3.2l-0.2-2.2l-0.2-2.2l-0.2-2.2l-0.2-2.2l-0.3-2.2l-0.3-2.1l-0.3-2.1l-0.4-2.1l-0.4-2.1l-0.4-2.1l-0.5-2.1l-0.5-2l-0.5-2
			l-0.6-2l-0.6-2l-0.6-2l-0.7-1.9l-0.7-1.9l-0.7-1.9l-0.8-1.9l-0.8-1.8l-0.8-1.8l-0.9-1.8l-0.9-1.8l-1-1.7l-1-1.7l-1-1.7l-1.1-1.6
			l-1.1-1.6l-1.2-1.6l-1.2-1.5l-0.6-0.8l-0.9-1l-1.8-2.1l-1.8-2.1l-1.9-2l-2-2l-2-2l-2.1-2l-2.2-1.9l-2.2-1.9l-2.3-1.9l-2.4-1.8
			l-2.5-1.8l-2.6-1.8l-2.7-1.7l-2.8-1.7l-2.9-1.7l-2.2-1.2l-1.5-0.8l-1.5-0.8l-1.6-0.8l-1.6-0.8l-1.6-0.8l-1.7-0.8l-1.7-0.7
			l-1.7-0.7l-1.8-0.7l-1.8-0.7l-1.8-0.7l-1.8-0.7l-1.9-0.7l-1.9-0.7l-1.9-0.6l-2-0.6l-2-0.6l-2-0.6l-2.1-0.6l-2.1-0.6l-2.2-0.6
			l-2.2-0.6l-2.2-0.5l-2.3-0.5l-2.3-0.5l-2.3-0.5l-2.4-0.5l-2.4-0.5l-2.5-0.5l-2.5-0.4l-2.6-0.4l-1.3-0.2l0,0l-1.3-0.2l-2.6-0.4
			l-2.6-0.4l-2.5-0.4l-2.4-0.4l-2.3-0.3l-2.3-0.3l-2.2-0.3l-2.1-0.3l-2.1-0.3l-2-0.3l-1.9-0.2l-1.9-0.2l-1.8-0.2l-1.8-0.2l-1.7-0.2
			l-1.6-0.2l-1.6-0.2l-1.5-0.1l-1.5-0.1l-1.4-0.1l-1.3-0.1l-1.3-0.1l-1.2-0.1l-1.2-0.1l-1.1-0.1l-1.1-0.1h-1h-1h-0.9h-0.9h-0.8h-0.8
			h-0.7h-0.7h-0.6h-0.6h-0.5h-0.5h-0.4h-0.5h-0.6h-0.1h-0.1l-0.2,0.1h-0.2h-0.1c-2.3,0.4-5.6,1.4-7.7,0c-0.1-0.1-0.1-0.3-0.2-0.4
			c-0.1-0.7,0.9-1.7,2.6-2.6l0,0l0.7-0.3l1-0.5l1.2-0.5l1.3-0.4l1.4-0.4l1.3-0.3l1.3-0.3h0.2l0.4-0.1l0.8-0.2l0.9-0.2l0.9-0.2l1-0.2
			l1.1-0.2l1.1-0.2l1.2-0.2l1.2-0.3l1.3-0.3l1.4-0.3l1.4-0.3l1.5-0.3l1.5-0.3l1.6-0.3l1.6-0.3l1.7-0.3l1.7-0.3l1.8-0.3l1.8-0.3
			l1.9-0.3l1.9-0.3l2-0.3l2-0.3l2.1-0.3l2.1-0.3l2.1-0.3l2.2-0.3l2.2-0.3l2.3-0.3l2.3-0.3l2.3-0.3l2.4-0.3l2.4-0.3l2.4-0.3l2.5-0.3
			l2.5-0.2l3.7-0.3l5-0.4l5.1-0.4l5.2-0.3l5.3-0.3l5.4-0.2l5.4-0.1L1772.2,551.3z M1666.4,568.8L1666.4,568.8L1666.4,568.8
			L1666.4,568.8L1666.4,568.8z"/>
		<path id="Bianco_2_" inkscape:connector-curvature="0" class="st5" d="M1689.8,418l5.3,0.1l2.6,0.1h2.3l4.4,0.1l4.4,0.2l4.3,0.2
			l4.2,0.2l4.2,0.3l4.1,0.3l4.1,0.4l4,0.4l3.9,0.4l3.9,0.5l3.8,0.5l3.8,0.6l3.7,0.6l3.6,0.7l3.6,0.7l3.5,0.7l3.4,0.8l3.4,0.8
			l3.3,0.9l3.3,0.9l3.2,1l3.1,1l3.1,1l3,1.1l2.9,1.1l2.9,1.2l2.9,1.2l2.8,1.3l2.8,1.3l2.7,1.3l2.7,1.4l2.6,1.4l2.5,1.5l2.5,1.5
			l2.4,1.6l2.3,1.6l2.3,1.6l2.2,1.7l2.1,1.7l2.1,1.8l2,1.8l1.9,1.9l1.9,1.9l1.8,1.9l1.7,2l1.7,2l1.6,2.1l1.5,2.1l1.5,2.2l1.4,2.2
			l1.3,2.2l1.3,2.3l1.2,2.3l1.1,2.4l1.1,2.4l1,2.5l0.9,2.5l0.9,2.6l0.8,2.6l0.7,2.6l0.7,2.7l0.6,2.7l0.5,2.8l0.2,1.4l0,0l0.2,1.3
			l0.4,2.6l0.4,2.6l0.3,2.6l0.3,2.6l0.3,2.6l0.2,2.6l0.2,2.7l0.2,2.7l0.1,2.7l0.1,2.7l0.1,2.7v2.7v2.7v2.7v2.7l-0.1,2.8l-0.1,2.8
			l-0.2,4.1l-0.4,5.5l-0.5,5.5l-0.6,5.6l-0.7,5.6l-0.8,5.6l-0.9,5.6l-1,5.7l-1.1,5.7l-1.2,5.7l-1.2,5.7l-1.3,5.7l-1.4,5.7l-1.5,5.7
			l-1.6,5.7l-1.6,5.7l-1.7,5.7l-1.8,5.7l-1.8,5.7l-1.9,5.7l-2,5.7l-2,5.7l-2.1,5.6l-2.1,5.6l-2.2,5.6l-2.2,5.6l-2.3,5.5l-2.3,5.5
			l-2.4,5.5l-2.4,5.4l-2.4,5.4l-2.5,5.4l-2.5,5.3l-2.5,5.3l-2.5,5.2l-2.6,5.2l-2.6,5.1l-2.6,5l-2.6,5l-2.6,4.9l-2.6,4.9l-2.6,4.8
			l-2.6,4.7l-2.6,4.6l-2.6,4.6l-2.6,4.5l-2.6,4.4l-2.6,4.3l-2.6,4.2l-2.6,4.1l-2.6,4.1l-2.5,4l-2.5,3.9l-2.5,3.8l-2.5,3.7l-1.2,1.8
			l0,0l-2.7,4l-5.3,8l-5.4,7.9l-5.4,7.9l-5.4,7.8l-5.4,7.8l-5.4,7.7l-5.5,7.6l-5.5,7.6l-5.5,7.5l-5.5,7.5l-5.5,7.4l-5.5,7.4
			l-5.5,7.3l-5.6,7.2l-5.6,7.2l-5.6,7.1l-5.6,7.1l-5.6,7l-5.6,6.9l-5.6,6.9l-5.6,6.8l-5.6,6.8l-5.6,6.7l-5.6,6.6l-5.6,6.6l-5.6,6.5
			l-5.6,6.5l-5.6,6.4l-5.6,6.3l-5.6,6.3l-5.6,6.2l-5.5,6.2l-5.5,6.1l-5.5,6l-5.5,6l-5.5,5.9l-5.5,5.9l-5.5,5.8l-5.5,5.7l-5.4,5.7
			l-5.4,5.6l-5.4,5.6l-5.4,5.5l-5.4,5.4l-5.3,5.4l-5.3,5.3l-5.3,5.3l-5.3,5.2l-5.2,5.1l-5.2,5.1l-5.2,5l-5.2,4.9l-5.1,4.9l-5.1,4.8
			l-5.1,4.8l-5,4.7l-5,4.6l-5,4.6l-4.9,4.5l-4.9,4.4l-4.9,4.4l-4.8,4.3l-4.8,4.3l-4.7,4.2l-4.7,4.1l-4.7,4.1l-4.6,4l-4.6,3.9
			l-4.5,3.9l-4.5,3.8l-4.4,3.8l-4.4,3.7l-4.3,3.6l-4.3,3.6l-4.2,3.5l-4.2,3.4l-4.1,3.4l-4.1,3.3l-4,3.2l-3.9,3.2l-3.9,3.1l-3.8,3
			l-3.8,3l-3.7,2.9l-3.6,2.9l-3.6,2.9l-3.5,2.8l-3.5,2.8l-3.4,2.7l-3.3,2.6l-3.3,2.6l-3.2,2.5l-3.1,2.4l-3,2.4l-3,2.3l-2.9,2.2
			l-2.9,2.2l-2.8,2.1l-2.8,2l-2.7,2l-2.6,1.9l-2.5,1.8l-2.5,1.8l-2.4,1.7l-2.3,1.6l-1.7,1.2l-1.1,0.8l-1.1,0.8l-1,0.7l-1,0.7l-1,0.7
			l-1,0.7l-1,0.7l-0.9,0.7l-0.9,0.6l-0.9,0.6l-0.9,0.6l-0.8,0.6l-0.8,0.6l-0.8,0.6l-0.8,0.5l-0.8,0.5l-0.7,0.5l-0.7,0.5l-0.7,0.5
			l-0.7,0.4l-0.6,0.4l-0.6,0.4l-0.6,0.4l-0.6,0.4l-0.5,0.4l-0.5,0.3l-0.5,0.3l-0.5,0.3l-0.4,0.3l-0.4,0.3l-0.4,0.3l-0.4,0.2
			l-0.3,0.2l-0.3,0.2l-0.3,0.2l-0.3,0.2l-0.2,0.2l-0.2,0.1l-0.2,0.1l-0.2,0.1l-0.1,0.1l-0.1,0.1h-0.1l0,0l0,0l-8,5.2l-15.9,10.5
			l-16,10.4l-16.1,10.4l-16.1,10.3l-12.1,7.7l-8.1,5.1l-8,5.1l-8,5l-8,5l-7.9,5l-7.9,4.9l-7.9,4.9l-7.8,4.8l-7.8,4.8l-7.7,4.7
			l-7.6,4.7l-7.6,4.6l-7.5,4.6l-5.5,3.4l-3.6,2.3l-3.6,2.3l-3.6,2.3l-3.6,2.2l-3.5,2.2l-3.5,2.2l-3.5,2.2l-3.5,2.2l-3.4,2.2
			l-3.4,2.1l-3.4,2.1l-3.3,2.1l-3.3,2.1l-3.3,2.1l-3.3,2l-3.2,2l-3.2,2l-3.2,2l-3.1,2l-3.1,1.9l-3.1,1.9l-3,1.9l-3,1.9l-3,1.8
			l-2.9,1.8l-2.9,1.8l-2.9,1.8l-2.9,1.7l-2.9,1.7l-2.8,1.7l-2.8,1.7l-2.7,1.6l-2.7,1.6l-2.7,1.6l-2.6,1.6l-2.6,1.5l-2.5,1.5
			l-2.5,1.5l-2.4,1.5l-2.4,1.4l-2.3,1.4l-2.3,1.4l-2.2,1.3l-2.2,1.3l-2.1,1.3l-2.1,1.2l-2,1.2l-2,1.2l-1.9,1.1l-1.9,1.1l-1.8,1.1
			l-1.8,1.1l-1.7,1l-1.7,1l-1.6,1l-1.6,0.9l-1.5,0.9l-1.4,0.8l-1.4,0.8l-1.3,0.8l-1.3,0.7l-1.2,0.7l-1.1,0.7l-1.1,0.6l-1,0.6l-1,0.6
			l-0.9,0.5l-0.8,0.5l-0.8,0.4l-0.7,0.4l-0.6,0.4l-0.6,0.3l-0.5,0.3l-0.4,0.2l-0.4,0.2l-0.3,0.2l-0.2,0.1l-0.1,0.1h-0.1l0,0
			l-0.3,0.1c-0.3,0.2-0.2,0.1-0.4,0.2c-0.8,0.4-0.3,0.2-1.5,0.6c-1.1,0.5-0.6,0.3-1.4,0.5c-0.7,0.3-0.3,0.1-1.5,0.4
			c-1.2,0.3-0.7,0.2-1.5,0.4c-0.8,0.2-0.3,0.1-1.5,0.2c-1.2,0.2-0.7,0.2-1.6,0.2c-0.3,0-0.1,0-0.5,0H857h-0.3h-0.3h-0.2
			c-0.3,0-0.2,0-0.4,0c-0.6-0.1-0.3,0-0.9-0.3c-0.6-0.2-0.5,0-0.6-0.3c-0.3-0.1-0.2,0-0.2-0.4c-0.2-0.4-0.2-0.2,0-0.5
			c0-0.3,0-0.1,0.4-0.6c0.3-0.5,0.1-0.3,0.6-0.7c0.1-0.1,0-0.1,0.3-0.2l0.2-0.1l0,0l0,0l0.1-0.1l0.1-0.1l0.2-0.1l0.2-0.1l0.3-0.2
			l0.3-0.2l0.3-0.2l0.4-0.3l0.4-0.3l0.5-0.3l0.5-0.3l0.6-0.4l0.6-0.4l0.6-0.4l0.7-0.5l0.7-0.5l0.8-0.5l0.8-0.5l0.8-0.6l0.9-0.6
			l0.9-0.6l1-0.6l1-0.7l1-0.7l1.1-0.7l1.1-0.8l1.1-0.8l1.2-0.8l1.2-0.8l1.3-0.9l1.3-0.9l1.3-0.9l1.4-0.9l1.4-0.9l1.4-1l1.5-1l1.5-1
			l1.5-1l1.6-1.1l1.6-1.1l1.6-1.1l1.7-1.1l1.7-1.2l1.7-1.2l1.8-1.2l1.8-1.2l1.8-1.2l1.8-1.3l1.9-1.3l1.9-1.3l1.9-1.3l2-1.4l2-1.4
			l2-1.4l2-1.4l2.1-1.4l2.1-1.5l2.1-1.5l2.2-1.5l2.2-1.5l2.2-1.5l2.2-1.6l2.3-1.6l2.3-1.6l2.3-1.6l2.3-1.6l2.4-1.7l2.4-1.7l2.4-1.7
			l2.4-1.7l2.5-1.7l2.5-1.7l2.5-1.8l2.5-1.8l2.5-1.8l2.6-1.8l3.8-2.7l5.2-3.6l5.2-3.7l5.3-3.7l5.4-3.8l5.5-3.9l5.5-3.9l5.6-4l5.7-4
			l5.7-4.1l5.8-4.1l5.9-4.2l5.9-4.2l6-4.3l6-4.3l6.1-4.4l6.1-4.4l6.2-4.5l6.2-4.5l6.3-4.6l6.3-4.6l6.3-4.6l6.4-4.7l6.4-4.7l6.4-4.7
			l6.4-4.8l6.5-4.8l6.5-4.8l6.5-4.9l9.7-7.4l13.1-9.9l13.1-10l13.1-10l13.1-10.1l13.1-10.1l13-10.2l12.9-10.2l12.8-10.2l12.7-10.2
			l9.4-7.7l6.3-5.1l6.2-5.1l6.2-5.1l6.1-5.1l6.1-5.1l6-5.1l6-5.1l5.9-5.1l5.9-5l5.8-5l5.8-5l5.7-5l5.6-5l5.6-4.9l5.5-4.9l5.4-4.9
			l5.3-4.9l5.3-4.8l5.2-4.8l5.1-4.8l5-4.8l4.9-4.7l4.8-4.7l4.7-4.7l4.7-4.6l4.6-4.6l4.5-4.5l4.4-4.5l3.2-3.3l2.1-2.3l2.1-2.3
			l2.1-2.2l2.1-2.2l2-2.2l2-2.2l2-2.2l1.9-2.2l1.9-2.2l1.9-2.2l1.9-2.1l1.8-2.1l1.8-2.1l1.8-2.1l1.7-2.1l1.7-2.1l1.7-2.1l1.6-2.1
			l1.6-2l1.6-2l1.5-2l0.8-1c0.1-0.1,0.2-0.2,0.2-0.3l2.1-2.2l4.1-4.3l4.1-4.3l4-4.3l4-4.3l4-4.3l5.9-6.5l7.8-8.6l5.7-6.5l3.8-4.3
			l3.7-4.3l3.7-4.3l3.6-4.3l3.6-4.3l3.6-4.3l3.5-4.3l3.5-4.3l3.5-4.2l3.4-4.2l3.4-4.2l3.4-4.2l3.3-4.2l3.3-4.2l3.3-4.2l3.2-4.2
			l3.2-4.2l3.2-4.2l3.1-4.2l3.1-4.1l3.1-4.1l3-4.1l3-4.1l2.9-4.1l2.9-4.1l2.9-4l2.9-4l2.9-4l2.9-4l2.8-4l2.8-4l2.8-3.9l2.7-3.9
			l2.7-3.9l2.7-3.9l2.6-3.8l2.6-3.8l2.6-3.8l2.5-3.8l2.5-3.8l2.5-3.7l2.4-3.7l2.4-3.7l2.4-3.6l2.3-3.6l2.3-3.6l2.3-3.6l2.2-3.5
			l2.2-3.5l2.2-3.5l2.1-3.4l2.1-3.4l2.1-3.4l2-3.3l2-3.3l2-3.3l1.9-3.2l1.9-3.2l1.9-3.2l1.8-3.1l1.8-3.1l1.8-3l1.7-3l1.7-3l1.7-2.9
			l1.6-2.9l1.6-2.9l1.6-2.9l1.5-2.9l1.5-2.8l1.5-2.8l1.4-2.7l1.4-2.7l1.4-2.6l1.3-2.6l1.3-2.5l1.3-2.5l1.2-2.4l1.2-2.4l1.2-2.3
			l1.1-2.3l1.1-2.2l1.1-2.2l1.1-2.1l1-2.1l1-2l1-2l0.9-1.9l0.9-1.9l0.9-1.8l0.8-1.8l0.8-1.7l0.8-1.6l0.7-1.6l0.7-1.5l0.7-1.5
			l0.6-1.4l0.6-1.3l0.6-1.3l0.6-1.2l0.5-1.2l0.5-1.1l0.5-1l0.4-1l0.4-0.9l0.4-0.8l0.3-0.8l0.3-0.7l0.3-0.6l0.2-0.6l0.2-0.5l0.2-0.4
			l0.2-0.4l0.1-0.3l0.1-0.2l0.1-0.1v-0.1v-0.1v-0.1l0.1-0.2l0.1-0.2l0.1-0.3l0.1-0.3l0.2-0.4l0.2-0.5l0.2-0.5l0.2-0.6l0.2-0.6
			l0.2-0.7l0.3-0.7l0.3-0.8l0.3-0.8l0.3-0.9l0.3-0.9l0.3-1l0.4-1l0.4-1.1l0.4-1.1l0.4-1.2l0.4-1.2l0.4-1.2l0.4-1.3l0.4-1.3l0.5-1.4
			l0.5-1.4l0.5-1.4l0.5-1.5l0.5-1.5l0.5-1.6l0.5-1.6l0.5-1.6l0.5-1.7l0.8-2.6l1.1-3.4l1.1-3.5l1.1-3.7l1.1-3.8l1.1-3.9l1.1-4
			l1.1-4.1l1.1-4.2l1.1-4.3l1-4.3l1-4.4l1-4.5l0.9-4.5l0.9-4.6l0.9-4.6l0.8-4.7l0.8-4.7l0.7-4.7l0.7-4.8l0.6-4.8l0.5-4.8l0.5-4.8
			l0.4-4.8l0.3-4.8l0.2-4.8l0.1-4.8l0.1-4.7v-4.7l-0.1-4.7l-0.2-3.5l-0.1-2.4l-0.2-2.3l-0.2-2.3l-0.2-2.3l-0.3-2.3l-0.3-2.3
			l-0.3-2.3l-0.3-2.2l-0.4-2.2l-0.4-2.2l-0.4-2.2l-0.5-2.2l-0.5-2.2l-0.5-2.1l-0.6-2.1l-0.6-2.1l-0.6-2.1l-0.7-2l-0.7-2l-0.7-2
			l-0.8-2l-0.8-1.9l-0.9-1.9l-0.9-1.9l-0.9-1.8l-1-1.8l-1-1.8l-1.1-1.7l-1.1-1.7l-1.1-1.7l-1.2-1.7l-0.6-0.8l-0.8-1.1l-1.7-2.2
			l-1.8-2.2l-1.9-2.1l-1.9-2.1l-2-2.1l-2-2l-2.1-2l-2.2-2l-2.3-1.9l-2.3-1.9l-2.4-1.9l-2.5-1.8l-2.6-1.8l-2.7-1.8l-2.8-1.7l-2.9-1.7
			l-2.9-1.7l-2.3-1.2l-1.6-0.8l-1.6-0.8l-1.6-0.8l-1.7-0.8l-1.7-0.8l-1.7-0.8l-1.8-0.7l-1.8-0.7l-1.8-0.7l-1.9-0.7l-1.9-0.7
			l-1.9-0.7l-2-0.7l-2-0.7l-2-0.7l-2.1-0.7l-2.1-0.6l-2.1-0.6l-2.2-0.6l-2.2-0.6l-2.2-0.6l-2.3-0.6l-2.3-0.6l-2.4-0.6l-2.4-0.6
			l-2.4-0.5l-2.5-0.5l-1.3-0.3l0,0l-1.3-0.3l-2.5-0.5l-2.4-0.5l-2.4-0.5l-2.3-0.4l-2.2-0.4l-2.2-0.4l-2.1-0.4l-2.1-0.4l-2-0.3
			l-2-0.3l-1.9-0.3l-1.9-0.3l-1.8-0.3l-1.8-0.2l-1.7-0.2l-1.7-0.2l-1.6-0.2l-1.6-0.2l-1.5-0.2l-1.5-0.1l-1.4-0.1l-1.4-0.1l-1.3-0.1
			l-1.3-0.1l-1.2-0.1l-1.2-0.1l-1.1-0.1h-1.1h-1h-1h-1h-0.9h-0.9h-0.8h-0.8h-0.7h-0.7h-0.6h-0.6h-0.6h-0.5h-0.6l-0.8,0.1l-0.6,0.1
			h-0.4h-0.3l0,0h-0.2h-0.2h-0.1l0,0c-4.2,1-7.6,0.7-7.5-0.7c0.1-1.2,2.6-2.7,5.9-3.7l0,0l0.6-0.2l0.8-0.2l0.9-0.2l1-0.2l0.5-0.1
			h0.2l0.6-0.1l0.7-0.1l0.8-0.2l0.8-0.2l0.9-0.2l1-0.2l1-0.2l1.1-0.2l1.2-0.2l1.2-0.2l1.3-0.3l1.4-0.3l1.4-0.3l1.5-0.3l1.5-0.3
			l1.6-0.3l1.7-0.3l1.7-0.3l1.8-0.3l1.8-0.3l1.9-0.3l1.9-0.3l2-0.3l2-0.3l2-0.3l2.1-0.3l2.1-0.3l2.2-0.3l2.2-0.3l2.2-0.3l2.3-0.3
			l2.3-0.3l2.4-0.3l3.5-0.4l4.8-0.5l4.9-0.5l5-0.5l5.1-0.4l5.2-0.4l5.2-0.3l5.3-0.2l5.3-0.2l5.4-0.1L1689.8,418z"/>
		<path id="Verde_2_" inkscape:connector-curvature="0" class="st8" d="M1593.8,285h2.8h2.7l2.7,0.1h1.2h2.2l4.2,0.1l4.2,0.2
			l4.1,0.2l4.1,0.3l4,0.3l3.9,0.3l3.9,0.4l3.8,0.4l3.8,0.5l3.7,0.5l3.6,0.6l3.6,0.6l3.5,0.7l3.5,0.7l3.4,0.7l3.3,0.8l3.3,0.8
			l3.2,0.9l3.2,0.9l3.1,1l3,1l3,1.1l2.9,1.1l2.9,1.1l2.9,1.2l2.8,1.2l2.8,1.3l2.7,1.3l2.7,1.4l2.6,1.4l2.5,1.5l2.5,1.5l2.4,1.6
			l2.3,1.6l2.3,1.6l2.2,1.7l2.2,1.7l2.1,1.8l2,1.8l2,1.9l1.9,1.9l1.8,2l1.8,2l1.7,2.1l1.7,2.1l1.6,2.2l1.5,2.2l1.5,2.2l1.4,2.3
			l1.3,2.3l1.3,2.4l1.2,2.4l1.2,2.5l1.1,2.5l1,2.6l1,2.6l0.9,2.7l0.8,2.7l0.8,2.8l0.7,2.8l0.6,2.9l0.6,2.9l0.5,2.9l0.2,1.5l0,0
			l0.2,1.4l0.4,2.7l0.3,2.7l0.3,2.8l0.3,2.8l0.3,2.8l0.2,2.8l0.2,2.8l0.2,2.8l0.1,2.8l0.1,2.9l0.1,2.9v2.9v2.9v2.9v2.9l-0.1,4.3
			l-0.2,5.8l-0.4,5.8l-0.5,5.9l-0.6,5.9l-0.7,5.9l-0.8,6l-0.8,6l-0.9,6l-1,6l-1.1,6l-1.2,6.1l-1.3,6.1l-1.3,6.1l-1.4,6.1l-1.5,6.1
			l-1.6,6.1l-1.6,6.1l-1.7,6.1l-1.8,6.1l-1.8,6.1l-1.9,6l-1.9,6l-2,6l-2,6l-2.1,6l-2.1,5.9l-2.2,5.9l-2.2,5.9l-2.3,5.8l-2.3,5.8
			l-2.3,5.7l-2.3,5.7l-2.4,5.7l-2.4,5.6l-2.4,5.5l-2.4,5.5l-2.5,5.4l-2.5,5.4l-2.5,5.3l-2.5,5.2l-2.5,5.2l-2.5,5.1l-2.5,5l-2.5,4.9
			l-2.5,4.9l-2.5,4.8l-2.5,4.7l-2.5,4.6l-2.5,4.5l-2.5,4.4l-2.4,4.3l-2.4,4.2l-2.4,4.1l-2.4,4l-2.4,3.9l-1.2,1.9l0,0l-2.6,4.2
			l-5.1,8.5l-5.1,8.4l-5.1,8.4l-5.2,8.3l-5.2,8.3l-5.2,8.2l-5.2,8.1l-5.2,8.1l-5.2,8l-5.3,7.9l-5.3,7.9l-5.3,7.8l-5.3,7.8l-5.3,7.7
			l-5.3,7.6l-5.3,7.6l-5.3,7.5l-5.3,7.4l-5.3,7.4l-5.3,7.3l-5.3,7.3l-5.3,7.2l-5.3,7.1l-5.3,7.1l-5.3,7l-5.3,6.9l-5.3,6.9l-5.3,6.8
			l-5.3,6.8l-5.3,6.7l-5.3,6.6l-5.3,6.6l-5.3,6.5l-5.3,6.4l-5.3,6.4l-5.3,6.3l-5.2,6.2l-5.2,6.2l-5.2,6.1l-5.2,6l-5.2,6l-5.2,5.9
			l-5.1,5.8l-5.1,5.8l-5.1,5.7l-5.1,5.7l-5.1,5.6l-5,5.5l-5,5.5l-5,5.4l-5,5.3l-4.9,5.3l-4.9,5.2l-4.9,5.1l-4.8,5.1l-4.8,5l-4.8,4.9
			l-4.7,4.9l-4.7,4.8l-4.7,4.7l-4.6,4.7l-4.6,4.6l-4.6,4.5l-4.5,4.5l-4.5,4.4l-4.4,4.3l-4.4,4.3l-4.4,4.2l-4.3,4.1l-4.3,4.1l-4.2,4
			l-4.2,3.9l-4.1,3.9l-4.1,3.8l-4,3.7l-4,3.7l-3.9,3.6l-3.9,3.5l-3.8,3.4l-3.8,3.4l-3.7,3.3l-3.7,3.2l-3.6,3.2l-3.5,3.1l-3.5,3
			l-3.4,3l-3.4,2.9l-3.3,2.9l-3.2,2.9l-3.2,2.8l-3.1,2.7l-3,2.7l-3,2.6l-2.9,2.5l-2.9,2.4l-2.9,2.4l-2.8,2.3l-2.7,2.2l-2.6,2.2
			l-2.6,2.1l-2.5,2l-2.4,2l-2.3,1.9l-2.3,1.8l-1.6,1.3l-1.1,0.9l-1.1,0.8l-1,0.8l-1,0.8l-1,0.8l-1,0.8l-1,0.7l-0.9,0.7l-0.9,0.7
			l-0.9,0.7l-0.9,0.7l-0.8,0.7l-0.8,0.6l-0.8,0.6l-0.8,0.6l-0.8,0.6l-0.7,0.6l-0.7,0.5l-0.7,0.5l-0.7,0.5l-0.7,0.5l-0.6,0.5
			l-0.6,0.5l-0.6,0.4l-0.6,0.4l-0.5,0.4l-0.5,0.4l-0.5,0.4l-0.5,0.3l-0.4,0.3l-0.4,0.3l-0.4,0.3l-0.4,0.3l-0.4,0.3l-0.3,0.2
			l-0.3,0.2l-0.3,0.2l-0.3,0.2l-0.2,0.2l-0.2,0.2l-0.2,0.1l-0.2,0.1l-0.1,0.1l-0.1,0.1h-0.1l0,0l0,0l-7.6,5.6l-15.2,11.1l-15.3,11.1
			l-15.3,11.1l-15.3,11l-11.5,8.2l-7.7,5.4l-7.7,5.4l-7.7,5.4l-7.6,5.3l-7.6,5.3l-7.5,5.2l-7.5,5.2l-7.5,5.2l-7.4,5.1l-7.3,5l-7.3,5
			l-7.2,4.9l-7.1,4.9l-5.3,3.6l-3.5,2.4l-3.4,2.4l-3.4,2.4l-3.4,2.4l-3.4,2.4l-3.3,2.3l-3.3,2.3l-3.3,2.3l-3.3,2.3l-3.2,2.3
			l-3.2,2.3l-3.2,2.2l-3.2,2.2l-3.1,2.2l-3.1,2.2l-3.1,2.1l-3,2.1l-3,2.1l-3,2.1l-3,2.1l-2.9,2l-2.9,2l-2.9,2l-2.9,2l-2.9,1.9
			l-2.8,1.9l-2.8,1.9l-2.8,1.9l-2.7,1.8l-2.7,1.8l-2.7,1.8l-2.6,1.7l-2.6,1.7l-2.5,1.7l-2.5,1.7l-2.5,1.6l-2.4,1.6l-2.4,1.6
			l-2.3,1.5l-2.3,1.5l-2.2,1.5l-2.2,1.4l-2.1,1.4l-2.1,1.4l-2,1.4l-2,1.3l-2,1.3l-1.9,1.3l-1.9,1.2l-1.8,1.2l-1.8,1.2l-1.7,1.1
			l-1.6,1.1l-1.6,1l-1.5,1l-1.5,1l-1.4,0.9l-1.4,0.9l-1.3,0.9l-1.3,0.8l-1.2,0.8l-1.1,0.8l-1.1,0.7l-1,0.7l-1,0.6l-0.9,0.6l-0.8,0.6
			l-0.8,0.5l-0.7,0.5l-0.7,0.4l-0.6,0.4l-0.5,0.3l-0.5,0.3l-0.4,0.3l-0.3,0.2l-0.3,0.2l-0.2,0.1l-0.1,0.1h-0.1l0,0l-0.3,0.2
			c-0.3,0.2-0.2,0.1-0.4,0.2c-0.7,0.4-0.3,0.2-1.4,0.6c-1,0.5-0.6,0.3-1.3,0.5c-0.7,0.3-0.2,0.1-1.4,0.4c-1.2,0.4-0.7,0.3-1.5,0.4
			c-0.7,0.2-0.3,0.1-1.5,0.3c-1.3,0.2-0.7,0.2-1.6,0.3c-0.3,0-0.1,0-0.5,0h-0.3H800h-0.3h-0.3c-0.4,0-0.2,0-0.4,0
			c-0.6,0-0.3,0-1-0.2c-0.7-0.1-0.5,0-0.7-0.2c-0.3-0.1-0.2,0-0.3-0.4c-0.3-0.3-0.3-0.2-0.2-0.4c-0.1-0.3-0.1-0.1,0.2-0.5
			c0.2-0.5,0.1-0.3,0.4-0.6c0.1-0.2,0-0.1,0.3-0.2l0.2-0.2l0,0l0,0l0.1-0.1l0.1-0.1l0.2-0.1l0.2-0.2l0.3-0.2l0.3-0.2l0.3-0.2
			l0.4-0.3l0.4-0.3l0.5-0.3l0.5-0.4l0.5-0.4l0.6-0.4l0.6-0.5l0.7-0.5l0.7-0.5l0.7-0.5l0.8-0.6l0.8-0.6l0.8-0.6l0.9-0.7l0.9-0.7
			l1-0.7l1-0.7l1-0.8l1.1-0.8l1.1-0.8l1.1-0.9l1.2-0.9l1.2-0.9l1.2-0.9l1.3-1l1.3-1l1.3-1l1.4-1l1.4-1.1l1.4-1.1l1.5-1.1l1.5-1.1
			l1.5-1.2l1.6-1.2l1.6-1.2l1.6-1.2l1.6-1.3l1.7-1.3l1.7-1.3l1.7-1.3l1.8-1.4l1.8-1.4l1.8-1.4l1.8-1.4l1.9-1.4l1.9-1.5l1.9-1.5
			l2-1.5l2-1.5l2-1.6l2-1.6l2.1-1.6l2.1-1.6l2.1-1.6l2.1-1.7l2.2-1.7l2.2-1.7l2.2-1.7l2.2-1.7l2.3-1.8l2.3-1.8l2.3-1.8l2.3-1.8
			l2.3-1.8l2.4-1.9l2.4-1.9l2.4-1.9l2.4-1.9l2.5-1.9l3.6-2.9l4.9-3.9l5-3.9l5.1-4l5.2-4.1l5.2-4.1l5.3-4.2l5.4-4.2l5.4-4.3l5.5-4.4
			l5.5-4.4l5.6-4.5l5.7-4.5l5.7-4.6l5.8-4.6l5.8-4.7l5.9-4.7l5.9-4.8l5.9-4.8l6-4.9l6-4.9l6-4.9l6.1-5l6.1-5l6.1-5l6.1-5.1l6.2-5.1
			l6.2-5.1l6.2-5.2l9.3-7.9l12.5-10.5l12.5-10.6l12.5-10.7l12.5-10.7l12.5-10.8l12.4-10.8l12.4-10.9l12.3-10.9l12.2-10.9l9-8.2
			l6-5.4l5.9-5.4l5.9-5.4l5.9-5.4l5.8-5.4l5.8-5.4l5.7-5.4l5.7-5.4l5.6-5.4l5.6-5.4l5.5-5.3l5.4-5.3l5.4-5.3l5.3-5.3l5.2-5.2
			l5.2-5.2l5.1-5.2l5-5.2l5-5.1l4.9-5.1l4.8-5.1l4.7-5l4.6-5l4.5-5l4.4-4.9l4.3-4.9l4.3-4.8l4.2-4.8l4.1-4.7l3-3.5l2-2.4l2-2.4
			l1.9-2.4l1.9-2.4l1.9-2.3l1.9-2.3l1.8-2.3l1.8-2.3l1.8-2.3l1.8-2.3l1.7-2.3l1.7-2.2l1.7-2.2l1.6-2.2l1.6-2.2l1.6-2.2l1.5-2.2
			l1.5-2.2l1.5-2.1l0.7-1.1c0.1-0.1,0.1-0.2,0.2-0.2l2-2.3l3.9-4.5l3.9-4.6l3.9-4.6l5.8-6.9l7.6-9.1l7.5-9.1l7.3-9.1l7.2-9.1
			l5.3-6.9l3.4-4.5l3.4-4.5l3.4-4.5l3.3-4.5l3.3-4.5l3.3-4.5l3.2-4.5l3.2-4.5l3.2-4.5l3.1-4.5l3.1-4.5l3.1-4.5l3-4.4l3-4.4l3-4.4
			l2.9-4.4l2.9-4.4l2.9-4.4l2.9-4.4l2.9-4.3l2.9-4.3l2.8-4.3l2.8-4.3l2.8-4.3l2.7-4.3l2.7-4.2l2.7-4.2l2.6-4.2l2.6-4.2l2.6-4.1
			l2.6-4.1l2.5-4.1l2.5-4.1l2.5-4l2.4-4l2.4-4l2.4-4l2.3-3.9l2.3-3.9l2.3-3.9l2.2-3.9l2.2-3.8l2.2-3.8l2.1-3.8l2.1-3.7l2.1-3.7
			l2-3.7l2-3.6l2-3.6l1.9-3.6l1.9-3.5l1.9-3.5l1.8-3.4l1.8-3.4l1.8-3.4l1.8-3.3l1.7-3.3l1.7-3.2l1.7-3.2l1.6-3.2l1.6-3.1l1.6-3.1
			l1.5-3l1.5-3l1.5-2.9l1.4-2.9l1.4-2.9l1.4-2.9l1.3-2.8l1.3-2.8l1.3-2.7l1.3-2.7l1.2-2.6l1.2-2.6l1.2-2.5l1.1-2.5l1.1-2.4l1.1-2.4
			l1-2.3l1-2.3l1-2.2l0.9-2.2l0.9-2.1l0.9-2l0.9-2l0.8-1.9l0.8-1.9l0.8-1.8l0.7-1.7l0.7-1.7l0.7-1.6l0.6-1.6l0.6-1.5l0.6-1.4
			l0.6-1.4l0.5-1.3l0.5-1.2l0.5-1.2l0.4-1.1l0.4-1l0.4-1l0.3-0.9l0.3-0.8l0.3-0.7l0.3-0.7l0.2-0.6l0.2-0.5l0.2-0.5l0.1-0.4l0.1-0.3
			l0.1-0.2l0.1-0.2v-0.1v-0.1v-0.1l0.1-0.2l0.1-0.2l0.1-0.3l0.1-0.4l0.1-0.4l0.2-0.5l0.2-0.5l0.2-0.6l0.2-0.7l0.2-0.7l0.3-0.8
			l0.3-0.8l0.3-0.9l0.3-0.9l0.3-1l0.3-1l0.3-1.1l0.4-1.1l0.4-1.2l0.4-1.2l0.4-1.3l0.4-1.3l0.4-1.4l0.4-1.4l0.4-1.4l0.4-1.5l0.5-1.5
			l0.5-1.6l0.5-1.6l0.5-1.7l0.5-1.7l0.5-1.7l0.5-1.8l0.5-1.8l0.5-1.8l0.8-2.8l1-3.8l1-3.9l1-4l1-4.1l1-4.2l1-4.4l1-4.4l1-4.5l1-4.6
			l1-4.7l0.9-4.8l0.9-4.8l0.9-4.9l0.8-4.9l0.8-5l0.7-5l0.7-5l0.6-5.1l0.6-5.1l0.5-5.1l0.4-5.1l0.4-5.1l0.3-5.1l0.2-5.1l0.1-5.1
			l0.1-5v-5l-0.1-5l-0.2-3.7l-0.1-2.5l-0.2-2.5l-0.2-2.5l-0.2-2.5l-0.2-2.4l-0.3-2.4l-0.3-2.4l-0.3-2.4l-0.4-2.4l-0.4-2.4l-0.4-2.3
			l-0.5-2.3l-0.5-2.3l-0.5-2.3l-0.5-2.2l-0.6-2.2l-0.6-2.2l-0.6-2.2l-0.7-2.1l-0.7-2.1l-0.8-2.1l-0.8-2.1l-0.8-2l-0.9-2l-0.9-2
			l-0.9-1.9l-1-1.9l-1-1.9l-1.1-1.8l-1.1-1.8l-1.1-1.8l-0.6-0.9l-0.8-1.2l-1.7-2.3l-1.7-2.3l-1.8-2.3l-1.8-2.2l-1.9-2.2l-2-2.2
			l-2-2.1l-2.1-2.1l-2.2-2.1l-2.2-2l-2.3-2l-2.4-2l-2.5-1.9l-2.6-1.9l-2.7-1.8l-2.8-1.8l-2.9-1.8l-2.2-1.3l-1.5-0.9l-1.5-0.8
			l-1.6-0.8l-1.6-0.8l-1.6-0.8l-1.7-0.8l-1.7-0.8l-1.7-0.8l-1.8-0.8l-1.8-0.8l-1.8-0.8l-1.8-0.7l-1.9-0.7l-1.9-0.7l-1.9-0.7l-2-0.7
			l-2-0.7l-2-0.7l-2.1-0.7l-2.1-0.7l-2.1-0.6l-2.2-0.6l-2.2-0.6l-2.3-0.6l-2.3-0.6l-2.3-0.6l-2.4-0.6l-1.2-0.3l-2.4-0.5l-4.7-1
			l-4.7-0.9l-4.7-0.8l-4.6-0.8l-4.6-0.7l-4.5-0.6l-4.5-0.5l-4.4-0.5l-4.3-0.4l-3.2-0.3l-2.1-0.2l-2.1-0.1l-2.1-0.1l-2.1-0.1l-2-0.1
			l-2-0.1l-2-0.1l-1.9-0.1l-1.9-0.1h-1.9h-1.8h-1.8h-1.8h-1.7h-1.7h-1.6h-1.6h-1.5h-1.5h-1.5h-1.4h-1.4h-1.3h-1.3h-1.2h-1.1h-1.1h-1
			h-1h-0.9h-0.9h-0.8h-0.7h-0.7h-0.6h-0.5h-0.5h-0.4h-0.3h-0.3h-0.2h-0.1l0,0l0,0c-3.3,0.3-5.1-0.5-4-1.9c1.2-1.6,5.4-3.3,9.4-3.9
			l0,0l0,0h0.1h0.1h0.2l0.4-0.1l0.5-0.1l0.7-0.1l0.8-0.1l0.9-0.1l1-0.1l1.1-0.2l1.2-0.2l1.3-0.2l1.4-0.2l1.5-0.2l1.6-0.2l1.7-0.2
			l1.8-0.2l1.9-0.3l2-0.3l2.1-0.3l2.1-0.3l2.2-0.3l2.3-0.3l2.4-0.3l2.4-0.3l2.5-0.3l2.6-0.3l2.6-0.3l2.7-0.3l2.7-0.3l2.8-0.3
			l2.8-0.3l2.8-0.3l2.9-0.3l4.3-0.5l5.9-0.6l6-0.6l6.1-0.6l6.1-0.5l6.1-0.5l6.2-0.5l6.1-0.4l6.1-0.4l4.5-0.2l3-0.1l2.9-0.1l2.9-0.1
			l2.9-0.1l2.9-0.1l2.9-0.1h2.9L1593.8,285z"/>
	</g>
	
		<path id="Linea_2_" inkscape:connector-curvature="0" inkscape:label="Intersezione anelli-fondo" sodipodi:nodetypes="csc" class="st9" d="
		M1346.1,187.4c98.3,55.6,217.7,203.5,241.4,266.6c1.5,3.8,6.3,14.4,6.3,14.4"/>
</g>
</svg>
