<svg xmlns="http://www.w3.org/2000/svg" viewBox="0 0 1934 1729.9"><defs><style>.cls-1{fill:#fff;}.cls-2{fill:#007cff;}.cls-3{fill:#ff2300;}.cls-4,.cls-5{fill:#0b0;}.cls-4{stroke:#0b0;stroke-miterlimit:10;}</style></defs><g id="Livello_2" data-name="Livello 2"><g id="svg205"><g id="Sfondo"><path id="Sfondo2" class="cls-1" d="M865,1724.9c-474.9,0-860-385.1-860-860S390.1,4.9,865,4.9s860,385.1,860,860S1339.9,1724.9,865,1724.9Z"/><path class="cls-1" d="M865,1729.9A865.2,865.2,0,0,1,528.4,67.9C635,22.8,748.2,0,865,0a865,865,0,1,1,0,1729.9ZM865,10C393.6,10,10,393.5,10,865s383.6,855,855,855,855-383.6,855-855S1336.4,10,865,10Z"/><path id="Sfondo1" class="cls-2" d="M865,1676.6c-448.3,0-811.7-363.4-811.7-811.7S416.7,53.3,865,53.3,1676.7,416.7,1676.7,865,1313.3,1676.6,865,1676.6Z"/></g><g id="Dinosauro"><g id="g133"><path id="path129" class="cls-1" d="M745.6,609.7a30.29,30.29,0,0,1,9,.9c6.5,3.5,2.1,11.3.5,17.1-34.5,103.9-54.3,188.8-114.8,195.8-84,16.4-139-52.5-103.5-77.1,56.9-34.2,56.9-34.2,88.8-55.9C651,670.2,674,647,701,628.8,714.5,619.6,729.2,611.2,745.6,609.7Z"/><path id="path131" class="cls-1" d="M640.3,823.5c-84,16.4-139-52.5-103.5-77.1,56.9-34.2,56.9-34.2,88.8-55.9,29.4-22.6,92.5-89.3,129-79.9,6.5,3.5,2.1,11.3.5,17.1-34.5,103.8-54.2,188.7-114.8,195.8"/></g><g id="g139"><path id="path135" class="cls-1" d="M524.5,1209.7l11.1,9.2"/><path id="path137" class="cls-1" d="M524.5,1209.7l11.1,9.2"/></g><g id="g147"><path id="path143" class="cls-1" d="M494.1,1302.5c-4.7-1.4-5.1-1.8-5.1-5,0-36.5,11.4-59.6,35.6-87.8,8.1,28.7,36.5,47.1,59.2,65.2,1.8,1.4-46.9,23.3-86,27.6"/><path id="path145" class="cls-1" d="M494.1,1302.5c-4.7-1.4-5.1-1.8-5.1-5,0-36.5,11.4-59.6,35.6-87.8,8.1,28.7,36.5,47.1,59.2,65.2,1.8,1.4-46.9,23.3-86,27.6"/></g><g id="g153"><path id="path149" class="cls-1" d="M910.3,72.4c15.9.7,25.8,9.5,31.8,23.5,18.7,45.2,20.8,55.3,29.5,69.8,23.6,39.3,43.3,65.2,37,63.7-66.8-15.4-121-29.7-198.6-17.5-28.1,4.4-52,15.7-77.6,27.7,22.5-50,59.1-94.3,101-129.2C855.3,92.1,881,73.7,910.3,72.4Z"/><path id="path151" class="cls-1" d="M732.3,239.6C766,156.9,909.3,16.5,942.1,95.9c18.7,45.2,20.8,55.3,29.5,69.8,23.6,39.3,43.3,65.2,37,63.7-66.8-15.4-121-29.7-198.6-17.5-28.1,4.4-52,15.7-77.7,27.7"/></g><g id="g159"><path id="path155" class="cls-1" d="M1296.9,424.4c12.5,0,70.9,1.6,53.7,28.2-15.2,22.1-18.2,48.7-29.4,63.8-16.1-26.7-16.1-26.7-59.8-88.3C1273,425.3,1285,424.7,1296.9,424.4Z"/><path id="path157" class="cls-1" d="M1321.1,516.4c-16.1-26.7-16.1-26.7-59.8-88.3,34.2-8.4,108.8-4.2,89.1,24.4-15.1,22.3-18.1,48.8-29.3,63.9"/></g><g id="g165"><path id="path161" class="cls-1" d="M885.4,282.6c41.4,0,82.8,6,121.6,20.6,202.5,78.4,302.2,303.5,394.3,482.8C1452,895.5,1452,895.5,1472,942.6c-.5,0-1,0-1,.5-69.8-146-145.2-290.1-236.8-424.1-48.8-62.3-99.6-125.1-172.2-161-118.4-58.5-227.3-60.3-349.9,5.8-71.6,38.7-139.6,108.4-181.5,179.5-49,83.1-88.9,136.9-121,242.9-23.4,77.2-35,111.3-41.7,149.5-28.6,163.4-25.8,224.2-10.8,316,9,55,36.7,99.1,72.5,124.3,16.4,11.5,52.2,21.5,59.3,22.7,63.6,10.7,95.8,2.8,157.6-14.3,172.7-64.7,303.1-195.4,359.6-367.3,26.1-114.1,31.7-248.6-38.4-348.8,0-.5,0-.5.5-.5,18.1,5.5,32.4,21,41.3,37,27.6,49.7,36.1,131.4,36.1,188.6,0,144.6-16.1,170.3-50.3,256.2-30.4,55.4-57.4,97.8-107.2,150.2-25.3,26.5-86.8,69.3-87.3,69.8-97.3,63.3-222.5,120.1-340.7,93.3-25.3-5.7-49.5-17.9-66.4-33.7-153.2-142.6-86.3-419.3-37.3-594,15-53.7,35.9-101.5,51.7-137.3,63.4-143,132.7-262.4,287.8-363.2,44.3-28.5,95.9-44.1,148.1-49.6,18.2-2.2,23.2-1.9,41.4-2.5Z"/><path id="path163" class="cls-1" d="M1472,942.7c-.5,0-1,0-1,.5-69.8-146-145.2-290.1-236.8-424.1-48.8-62.3-99.6-125.1-172.2-161-118.4-58.5-227.3-60.3-349.9,5.8-71.6,38.6-139.6,108.3-181.5,179.4-49,83.1-88.9,136.9-121,242.9-23.4,77.2-35,111.3-41.7,149.5-28.6,163.4-25.8,224.2-10.8,316,9,55,36.7,99.1,72.5,124.3,16.4,11.5,52.2,21.5,59.3,22.7,63.6,10.7,95.8,2.8,157.6-14.3,172.7-64.7,303.1-195.4,359.6-367.3,26.1-114.1,31.7-248.6-38.4-348.8,0-.5,0-.5.5-.5,18.1,5.5,32.4,21,41.3,37,27.6,49.7,36.1,131.4,36.1,188.6,0,144.6-16.1,170.3-50.3,256.2-30.4,55.4-57.4,97.8-107.2,150.2-25.3,26.5-86.8,69.3-87.3,69.8-97.3,63.3-222.5,120.1-340.7,93.3-25.3-5.7-49.5-17.9-66.4-33.7-153.2-142.6-86.3-419.3-37.3-594,15-53.7,35.9-101.5,51.7-137.3,63.4-143,132.7-262.4,287.8-363.2,93.1-60.3,226.1-64.2,311.2-31.2,202.5,78.4,302.2,303.5,394.3,482.8,50.7,109.3,50.7,109.3,70.6,156.4"/></g><g id="g171"><path id="path167" class="cls-1" d="M1212,235.6c14.3.1,8.2-.2,18.5.4,6.3,1.5,22.5,2.6,25.9,14,1.4,4.5,3.9,5.2-16.9,55.6-6.5,15.7-12.8,37.7-20.6,70.4-4.1-1.4-43.6-43-67.2-60.7-12.2-9.8-57.4-41.5-68.1-47.4-4.2-2.4,82.3-26.3,82.3-26.3a225.44,225.44,0,0,1,34.7-5.3c3.8-.4,7.6-.5,11.4-.7Z"/><path id="path169" class="cls-1" d="M1083.6,267.9c-4.2-2.4,82.3-26.3,82.3-26.3s30.9-8,64.7-5.5c6.3,1.5,22.5,2.6,25.9,14,1.4,4.5,3.9,5.2-16.9,55.6-6.5,15.7-12.8,37.7-20.6,70.4-4.1-1.4-43.6-43-67.2-60.7-12.3-10-57.5-41.6-68.2-47.5Z"/></g><g id="g177"><path id="path173" class="cls-1" d="M1055.8,729.6c12.8.2,25.5,2.1,38,4.1,41.3,3.9,44.6,13.4,40.5,15.7-19.3,11.1-17.6,8.8-37.3,25.8-14.5,12.6-36,41.8-36.3,36.5s-3.7-29.6-6.3-44.3-8.3-31.5-9.1-34.7C1044.9,729.3,1054,729.7,1055.8,729.6Z"/><path id="path175" class="cls-1" d="M1045.4,732.8c1,3.2,6.6,20,9.1,34.7,2.7,14.7,6,39.1,6.3,44.3s21.8-24,36.3-36.5c19.7-17,18-14.7,37.3-25.8,4.1-2.4.8-11.8-40.5-15.7C1072.2,730.1,1043.7,727.2,1045.4,732.8Z"/></g></g><g id="Anelli"><path id="Rosso" class="cls-3" d="M1752.2,463.3h5.5l2.7.1h2.3l4.5.1,4.5.1,4.4.2,4.4.2,4.3.3,4.2.3,4.2.3,4.1.4,4,.4,4,.5,3.9.5,3.9.5,3.8.6,3.7.6,3.7.7,3.6.7,3.5.7,3.5.8,3.4.8,3.3.9,3.3.9,3.2.9,3.1,1,3.1,1,3,1.1,3,1.1,2.9,1.1,2.9,1.2,2.9,1.2,2.8,1.3,2.7,1.3,2.7,1.3,2.6,1.4,2.5,1.4,2.5,1.5,2.4,1.5,2.3,1.5,2.3,1.6,2.2,1.6,2.1,1.7,2.1,1.7,2,1.7,1.9,1.8,1.9,1.8,1.8,1.9,1.7,1.9,1.7,1.9,1.6,2,1.5,2,1.5,2.1,1.4,2.1,1.3,2.2,1.2,2.2,1.2,2.2,1.1,2.3,1,2.3,1,2.4.9,2.4.8,2.4.8,2.5.7,2.5.6,2.6.6,2.6.3,1.3h0l.2,1.2.4,2.4.4,2.4.3,2.4.3,2.4.3,2.5.2,2.5.2,2.5.2,2.5.1,2.5.1,2.5.1,2.5V588l-.1,2.6-.1,2.6-.2,3.8-.4,5.1-.5,5.2-.6,5.2-.7,5.2-.8,5.2-.9,5.3-1,5.3-1.1,5.3-1.2,5.3-1.3,5.3-1.4,5.3-1.5,5.3-1.5,5.4-1.6,5.4-1.7,5.4-1.8,5.4-1.8,5.3-1.9,5.3-2,5.3-2,5.3-2.1,5.3-2.1,5.3-2.2,5.3-2.2,5.2-2.3,5.2-2.3,5.2-2.4,5.2-2.4,5.1-2.5,5.1-2.5,5.1-2.5,5-2.6,5-2.6,4.9-2.6,4.9-2.6,4.8-2.7,4.8-2.7,4.7-2.7,4.7-2.7,4.6-2.7,4.5-2.7,4.5-2.7,4.4-2.7,4.3-2.7,4.3-2.7,4.2-2.7,4.1-2.7,4-2.7,4-2.7,3.9-2.6,3.8-2.6,3.7-2.6,3.6-2.6,3.5-2.5,3.4-1.2,1.7h0l-2.8,3.7-5.5,7.5-5.5,7.4-5.5,7.4-5.6,7.3-5.6,7.3-5.6,7.2-5.6,7.2-5.6,7.1-5.7,7-5.7,7-5.7,6.9-5.7,6.9-5.7,6.8-5.7,6.8-5.7,6.7-5.7,6.7-5.7,6.6-5.7,6.6-5.7,6.5-5.7,6.4-5.7,6.4-5.7,6.3-5.7,6.3-5.7,6.2-5.7,6.2-5.7,6.1-5.7,6.1-5.7,6-5.7,5.9-5.7,5.9-5.7,5.8-5.7,5.8-5.7,5.7-5.7,5.7-5.7,5.6-5.7,5.5-5.6,5.5-5.6,5.4-5.6,5.4-5.6,5.3-5.6,5.3-5.6,5.2-5.5,5.1-5.5,5.1-5.5,5-5.5,5-5.5,4.9-5.4,4.9-5.4,4.8-5.4,4.7-5.3,4.7-5.3,4.6-5.3,4.6-5.3,4.5-5.2,4.5-5.2,4.4-5.1,4.3-5.1,4.3-5.1,4.2-5,4.2-5,4.1-5,4-4.9,4-4.9,3.9-4.8,3.9-4.8,3.8-4.7,3.7-4.7,3.7-4.7,3.6-4.6,3.6-4.6,3.5-4.5,3.5-4.5,3.4-4.4,3.3-4.3,3.3-4.3,3.2-4.2,3.1-4.2,3.1-4.1,3-4.1,3-4,2.9-3.9,2.9-3.9,2.9-3.8,2.8-3.8,2.8-3.7,2.7-3.6,2.6-3.6,2.6-3.5,2.5-3.4,2.5-3.3,2.4-3.3,2.3-3.2,2.3-3.1,2.2-3.1,2.2-3,2.1-2.9,2-2.9,2-2.9,1.9-2.8,1.8-2.7,1.8-2.6,1.7-2.5,1.7-2.4,1.6-2.4,1.5-2.3,1.5-1.6,1.1-1.1.7-1,.7-1,.7-1,.6-1,.6-1,.6-.9.6-.9.6-.9.6-.9.5-.8.5-.8.5-.8.5-.8.5-.8.5-.7.5-.7.4-.7.4-.7.4-.6.4-.6.4-.6.4-.6.3-.5.3-.5.3-.5.3-.5.3-.4.3-.4.2-.4.2-.4.2-.3.2-.3.2-.3.2-.2.1-.2.1-.2.1-.2.1-.1.1-.1.1h-.1l-8.2,4.9-16.4,9.8-16.5,9.8-16.5,9.7-16.5,9.7-12.4,7.2-8.3,4.8-8.3,4.7-8.2,4.7-8.2,4.7-8.2,4.6-8.1,4.6-8.1,4.6-8,4.5-8,4.5-7.9,4.4-7.8,4.4-7.8,4.3-7.7,4.3-7.6,4.2-5.6,3.1-3.7,2.1-3.7,2.1-3.6,2.1-3.6,2.1-3.6,2.1-3.6,2-3.5,2-3.5,2-3.5,2-3.4,2-3.4,1.9-3.4,1.9-3.4,1.9-3.3,1.9-3.3,1.9-3.3,1.8-3.2,1.8-3.2,1.8-3.1,1.8-3.1,1.8-3.1,1.7-3,1.7-3,1.7-3,1.7-2.9,1.7-2.9,1.6-2.9,1.6-2.9,1.6-2.9,1.6-2.8,1.5-2.8,1.5-2.7,1.5-2.7,1.5-2.6,1.4-2.6,1.4-2.5,1.4-2.5,1.4-2.5,1.3-2.4,1.3-2.4,1.3-2.3,1.2-2.3,1.2-2.2,1.2-2.2,1.2-2.1,1.1-2,1.1-2,1.1-1.9,1-1.9,1-1.8,1-1.8,1-1.7.9-1.7.9-1.6.9-1.5.8-1.5.8-1.4.8-1.4.7-1.3.7-1.2.7-1.2.6-1.1.6-1,.6-1,.5-.9.5-.8.5-.8.4-.7.4-.6.3-.6.3-.5.3-.4.2-.4.2-.3.2-.2.1-.2.1h-.1l-.3.1a1.42,1.42,0,0,1-.4.2,9.12,9.12,0,0,1-1.6.6,8.18,8.18,0,0,1-1.4.5,7.54,7.54,0,0,1-1.5.4,6.36,6.36,0,0,1-1.5.3,19,19,0,0,1-3,.3h-1.5c-.3,0-.2,0-.3-.1-.6-.1-.3,0-.8-.3s-.4,0-.5-.3-.2,0-.1-.4c-.1-.4-.1-.2.1-.5s0-.1.5-.6a2.34,2.34,0,0,1,.7-.7c.2-.1.1-.1.3-.2l.2-.1h0l.1-.1.1-.1.2-.1.2-.1.3-.2.3-.2.4-.2.4-.2.4-.3.5-.3.5-.3.6-.4.6-.4.7-.4.7-.4.7-.5.8-.5.8-.5.9-.5.9-.6.9-.6,1-.6,1-.6,1.1-.7,1.1-.7,1.1-.7,1.2-.7,1.2-.8,1.2-.8,1.3-.8,1.3-.8,1.4-.8,1.4-.9,1.4-.9,1.5-.9,1.5-.9,1.5-1,1.6-1,1.6-1,1.6-1,1.7-1,1.7-1.1,1.7-1.1,1.8-1.1,1.8-1.1,1.8-1.2,1.9-1.2,1.9-1.2,1.9-1.2,2-1.2,2-1.3,2-1.3,2-1.3,2.1-1.3,2.1-1.3,2.1-1.3,2.2-1.4,2.2-1.4,2.2-1.4,2.2-1.4,2.3-1.4,2.3-1.5,2.3-1.5,2.3-1.5,2.4-1.5,2.4-1.5,2.4-1.5,2.5-1.6,2.5-1.6,2.5-1.6,2.5-1.6,2.5-1.6,2.6-1.6,2.6-1.7,2.6-1.7,2.6-1.7,3.9-2.6,5.3-3.4,5.4-3.4,5.5-3.5,5.6-3.6,5.6-3.6,5.7-3.7,5.8-3.7,5.8-3.8,5.9-3.8,6-3.9,6-3.9,6.1-4,6.1-4,6.2-4.1,6.2-4.1,6.3-4.1,6.3-4.2,6.4-4.2,6.4-4.3,6.5-4.3,6.5-4.3,6.5-4.4,6.6-4.4,6.6-4.4,6.6-4.5,6.6-4.5,6.7-4.5,6.7-4.5,10-6.9,13.4-9.2,13.5-9.3,13.5-9.4,13.5-9.4,13.4-9.5,13.4-9.5,13.3-9.6,13.2-9.6,13.1-9.6,9.7-7.2,6.4-4.8,6.4-4.8,6.4-4.8,6.3-4.8,6.3-4.8,6.2-4.7,6.2-4.7,6.1-4.7,6-4.7,6-4.7,5.9-4.7,5.9-4.7,5.8-4.6,5.7-4.6,5.6-4.6,5.6-4.6,5.5-4.6,5.4-4.5,5.3-4.5,5.2-4.5,5.2-4.4,5.1-4.4,5-4.4,4.9-4.3,4.8-4.3,4.7-4.3,4.6-4.2,4.5-4.2,3.3-3.1,2.2-2.1,2.2-2.1,2.1-2.1,2.1-2.1,2.1-2.1,2.1-2.1,2-2.1,2-2,2-2,1.9-2,1.9-2,1.9-2,1.8-2,1.8-2,1.8-2,1.8-1.9,1.7-1.9,1.7-1.9,1.7-1.9,1.6-1.9,1.6-1.9.8-.9.3-.3,2.2-2,4.2-4,4.2-4,4.2-4,4.1-4,4.1-4,4-4,4-4,6-6.1,5.9-6.1,3.9-4,3.8-4,3.8-4,3.8-4,3.7-4,3.7-4,3.6-4,3.6-4,3.6-4,3.5-4,3.5-4,3.5-4,3.4-3.9,3.4-3.9,3.4-3.9,3.3-3.9,3.3-3.9,3.2-3.9,3.2-3.9,3.2-3.9,3.1-3.9,3.1-3.8,3.1-3.8,3-3.8,3-3.8,3-3.8,2.9-3.8,2.9-3.8,2.9-3.7,2.9-3.7,2.9-3.7,2.8-3.7,2.8-3.7,2.8-3.6,2.7-3.6,2.7-3.6,2.7-3.6,2.6-3.6,2.6-3.5,2.6-3.5,2.5-3.5,2.5-3.5,2.5-3.4,2.4-3.4,2.4-3.4,2.4-3.4,2.3-3.3,2.3-3.3,2.3-3.3,2.2-3.2,2.2-3.2,2.2-3.2,2.1-3.1,2.1-3.1,2.1-3.1,2-3.1,2-3,1.9-3,1.9-2.9,1.9-2.9,1.8-2.9,1.8-2.9,1.8-2.9,1.7-2.9,1.7-2.8,1.7-2.8,1.6-2.8,1.6-2.7,1.6-2.7,1.5-2.6,1.5-2.6,1.5-2.5,1.4-2.5,1.4-2.5,1.4-2.4,1.3-2.4,1.3-2.3,1.3-2.3,1.2-2.2,1.2-2.2,1.2-2.1,1.1-2.1,1.1-2,1.1-2,1.1-2,1-1.9,1-1.8,1-1.8.9-1.7.9-1.7.9-1.6.8-1.6.8-1.5.8-1.5.7-1.4.7-1.4.7-1.3.6-1.3.6-1.2.6-1.1.5-1.1.5-1,.5-1,.4-.9.4-.8.4-.8.3-.7.3-.7.3-.6.2-.5.2-.5.2-.4.2-.3.1-.3.1-.2.1-.1v-3.9l.1-.2.1-.2.1-.3.1-.3.2-.4.2-.4.2-.5.2-.5.2-.6.3-.6.3-.7.3-.7.3-.8.3-.8.3-.9.4-.9.4-1,.4-1,.4-1,.4-1.1.4-1.1.4-1.2.4-1.2.5-1.2.5-1.3.5-1.3.5-1.3.5-1.4.5-1.4.5-1.5.5-1.5.5-1.5.5-1.6.8-2.4,1.1-3.2,1.1-3.3,1.1-3.4,1.1-3.5,1.1-3.6,1.1-3.7,1.1-3.8,1.1-3.9,1.1-4,1.1-4.1,1-4.1,1-4.2,1-4.2.9-4.3.9-4.3.8-4.4.8-4.4.7-4.4.7-4.5.6-4.5.6-4.5.5-4.5.4-4.5.3-4.5.2-4.5.2-4.4.1-4.4v-4.4l-.1-4.4-.2-3.2-.2-2.2-.2-2.2-.2-2.2-.2-2.2-.3-2.2-.3-2.1-.3-2.1-.4-2.1-.4-2.1-.4-2.1-.5-2.1-.5-2-.5-2-.6-2-.6-2-.6-2-.7-1.9-.7-1.9-.7-1.9-.8-1.9-.8-1.8-.8-1.8-.9-1.8-.9-1.8-1-1.7-1-1.7-1-1.7-1.1-1.6-1.1-1.6-1.2-1.6-1.2-1.5-.6-.8-.9-1-1.8-2.1-1.8-2.1-1.9-2-2-2-2-2-2.1-2-2.2-1.9-2.2-1.9-2.3-1.9-2.4-1.8-2.5-1.8-2.6-1.8-2.7-1.7-2.8-1.7-2.9-1.7-2.2-1.2-1.5-.8-1.5-.8-1.6-.8-1.6-.8-1.6-.8-1.7-.8-1.7-.7-1.7-.7-1.8-.7-1.8-.7-1.8-.7-1.8-.7-1.9-.7-1.9-.7-1.9-.6-2-.6-2-.6-2-.6-2.1-.6-2.1-.6-2.2-.6-2.2-.6-2.2-.5-2.3-.5-2.3-.5-2.3-.5-2.4-.5-2.4-.5-2.5-.5-2.5-.4-2.6-.4-1.3-.2h0l-1.3-.2-2.6-.4-2.6-.4-2.5-.4-2.4-.4-2.3-.3-2.3-.3-2.2-.3-2.1-.3-2.1-.3-2-.3-1.9-.2-1.9-.2-1.8-.2-1.8-.2-1.7-.2-1.6-.2-1.6-.2-1.5-.1-1.5-.1-1.4-.1-1.3-.1-1.3-.1-1.2-.1-1.2-.1-1.1-.1-1.1-.1h-10.7l-.2.1h-.3c-2.3.4-5.6,1.4-7.7,0-.1-.1-.1-.3-.2-.4-.1-.7.9-1.7,2.6-2.6h0l.7-.3,1-.5,1.2-.5,1.3-.4,1.4-.4,1.3-.3,1.3-.3h.2l.4-.1.8-.2.9-.2.9-.2,1-.2,1.1-.2,1.1-.2,1.2-.2,1.2-.3,1.3-.3,1.4-.3,1.4-.3,1.5-.3,1.5-.3,1.6-.3,1.6-.3,1.7-.3,1.7-.3,1.8-.3,1.8-.3,1.9-.3,1.9-.3,2-.3,2-.3,2.1-.3,2.1-.3,2.1-.3,2.2-.3,2.2-.3,2.3-.3,2.3-.3,2.3-.3,2.4-.3,2.4-.3,2.4-.3,2.5-.3,2.5-.2,3.7-.3,5-.4,5.1-.4,5.2-.3,5.3-.3,5.4-.2,5.4-.1Z"/><path class="cls-3" d="M898.5,1576h-2.2a5.41,5.41,0,0,1-1.9-.3,6.12,6.12,0,0,1-1.2-.5,4.63,4.63,0,0,1-2.4-1.7,4.8,4.8,0,0,1-1.2-3.6,5.3,5.3,0,0,1,.7-2.8,5.5,5.5,0,0,1,1.3-1.7,9.43,9.43,0,0,1,1-1l.7-.5h0l.3-.3,3.4-2,1.4-.9,1.2-.7.7-.5,15.7-9.8,1.3-.7,2.8-1.8,2.8-1.7,1.5-1,13.2-8.2,1.8-1.2,5.7-3.6,1.9-1.1,5.9-3.8,17.1-10.7,6.7-4.4,22-13.9,16.9-11,10.9-7,22.7-14.7,5.7-3.8,17.9-11.7,30.9-20.4,6.2-4.2,6.4-4.2,6.3-4.3,13-8.7,6.4-4.4,13.2-8.9,13.1-9,13.4-9.1,10-6.9,26.8-18.6,26.9-18.9,26.7-19,13.2-9.6,13.2-9.6,22.8-16.8,19.1-14.4,31-23.7,12-9.4,23.2-18.6,11.2-9.2,16.2-13.6,5.2-4.5,5.2-4.5,5.1-4.4,9.9-8.7,4.8-4.3,9.3-8.5,12.1-11.4,8.2-8.2,2-2.1,3.9-3.9,5.5-5.8,5.3-5.9,1.7-1.8,4.9-5.5,4.6-5.3,2.1-1.9,12.6-12,8.2-8,8-8,6-6.1,21.3-22.2,7.4-8,10.9-12,20.9-23.8,6.6-7.8,9.7-11.7,3.1-3.9,6.3-7.7,9.1-11.4,5.8-7.6,3-3.8,5.7-7.4,5.5-7.4,2.8-3.7,7.9-10.8,2.5-3.6,5.1-7.1,4.9-7,2.5-3.5,13.8-20.2,12.6-19.1,1.9-3.1,2-3.1,1.8-3,3.7-5.9,1.7-2.9,3.5-5.7,1.6-2.8,3.3-5.5,7.6-13.1,1.5-2.5,11.4-20.4,9.1-16.8.8-1.5,10.9-22.3.1-.3.7-1.6.3-.8.9-1.9,1-2.6,1.5-3.6,1.6-4.7,1.9-4.8,2.4-7,1.3-3.9,2.1-6.5,2.1-6.9,2.1-7.3,2.1-7.7,2.1-8,2.9-12.4,1.7-8.5,1.6-8.7,1.4-8.8,1.2-8.9.5-4.4.4-4.4.3-4.4.4-8.8.1-4.3v-4.3l-.1-4.3-.2-3.1-.8-8.5-.8-6-1.1-6-1.4-5.7-1.7-5.6-2-5.4-2.2-5.1-1.6-3.3-2.8-4.7-2-2.9-1.1-1.4-1.7-2.1-.8-.9-3.5-4-1.7-1.8-3.8-3.8-1.9-1.8-4.2-3.6-2.1-1.8-2.3-1.7-2.4-1.7-2.4-1.7-2.6-1.6-5.4-3.2-4.9-2.7-6.1-3-10.2-4-3.5-1.3-7.6-2.3-8.2-2.3-13.5-2.9-2.3-.5-17.3-2.7-24.6-3.1-11.2-.9h-9.1l-.2.1h-1c-.2,0-.4.1-.6.1-2.7.5-6.9,1.4-10.3-1l-.4-.3-.4-.4a2.76,2.76,0,0,1-.7-.9l-.6-.6-.2-1.7c-.2-1.7.1-5,5.2-7.7l2.1-1,1.6-.7,3-.9,6.8-1.5,3.3-.6,5.2-1.2,9.6-1.8,17.6-2.7,20.9-2.7,16.4-1.3,10.5-.6,5.5-.2,5.9-.1,4.7.7h5.3l2.6.1h2.3l9.2.2,9,.4,12.9.9,8.3.8,12,1.5,7.7,1.2,11.1,2.1,7.2,1.6,10.1,2.7,6.5,2,9.3,3.3,5.9,2.4,8.3,4,5.2,2.9,2.5,1.5,2.4,1.5,2.5,1.6,2.3,1.6,2.4,1.7,4.2,3.4,2.2,1.9,3.9,3.7,1.9,2,3.5,3.9,1.7,2.1,1.5,2.1,1.6,2.2,1.5,2.3,1.4,2.3,2.5,4.6,1.2,2.4,2.1,4.9.9,2.5,1.6,5,.7,2.7,1.5,6.7,1,6.1.9,7.4.6,7.6.3,7.6v10.3l-.4,9.1-.4,5.1-.5,5.3-.6,5.3-.7,5.3-.8,5.3-.9,5.4-1,5.4-1.1,5.4-1.2,5.4-1.3,5.4-1.4,5.4-3,10.8-1.6,5.5-1.7,5.5-3.6,10.8-1.9,5.4-4,10.7-4.2,10.7-4.4,10.6-4.6,10.5-4.8,10.4L1883,760l-7.7,14.9-2.6,4.9-8,14.4-8,13.7-2.7,4.5-5.3,8.7-2.7,4.3-2.7,4.2-5.3,8.1-7.8,11.6-2.6,3.7-9,12.5-5.5,7.5-11,14.8-11.2,14.6-11.2,14.4-5.6,7.1-11.4,14-11.4,13.8-11.4,13.6-11.4,13.4-11.4,13.2-5.7,6.5-11.4,12.8-11.4,12.6-11.4,12.4-11.4,12.2-5.7,6-11.4,11.8-11.4,11.6-11.4,11.4-5.7,5.6-5.7,5.5-5.6,5.5-11.2,10.8-11.2,10.6-16.6,15.5-11,10.1-5.5,4.9-5.4,4.9-5.4,4.8-5.4,4.8-5.3,4.7-10.7,9.3-5.3,4.6-5.2,4.5-15.5,13.1-5.2,4.3-5,4.2-5.1,4.2-5.1,4.1-4.9,4-5,4-4.8,3.9-14.3,11.4-4.8,3.7-4.6,3.6-4.7,3.6-4.5,3.5-17.7,13.4-20.8,15.4-19.3,13.9-17.7,12.5-3.3,2.3-9.5,6.6-8.9,6.1-15.7,10.4-2.4,1.5-12.7,8.3-4.5,2.7-1,.7-6.3,3.8-.4.3-2.5,1.4-1.1,1.1h-.8l-7,4.2-16.4,9.8-16.5,9.8-33,19.5-20.7,12-64.8,37.1-62.7,35.2-14.2,7.8-3.5,2-26.8,14.6-6.3,3.6-12.2,6.7-3,1.7-17,9.2-15.4,8.5-18,9.6-20.6,11.2-2.4,1.3-1.4.8-2,1-1.2.7-1.6.8-1.1.7-5.7,3h-.2a7.6,7.6,0,0,1-1.1.4l-.5.2a.77.77,0,0,1-.3.1,4.23,4.23,0,0,1-1.2.4,2.38,2.38,0,0,1-1.2.3,1.34,1.34,0,0,0-.5.1l-.5.1a5.07,5.07,0,0,1-1.3.2,5.85,5.85,0,0,1-1.3.2h-.3A9.1,9.1,0,0,0,898.5,1576Zm-6.4-11.1-.2.2Zm66.2-30-5.3,3.5,37.3-20.3,12.1-6.7,3.2-1.7,12.8-7.1,3.3-1.8,31-17.2,3.6-2,10.9-6.2,20.7-11.5,46.9-26.5,48.8-28,20.6-12,33-19.4,40.8-24.4.2-.2.7-.4,20.2-12.4,2-1.4,1-.6,1.6-1.1,2.3-1.5,2.4-1.5,10-6.6,5.6-3.6,2.8-1.9,6-4.1,16.1-11.2,3.4-2.4,14.6-10.2,19.5-14.1,21-15.6,4.3-3.3,9-6.8,4.5-3.5,4.7-3.6,4.6-3.6,4.8-3.7,14.2-11.3,4.8-3.9,5-4,4.9-4,5.1-4.1,5-4.1,5-4.2,5.1-4.3,15.4-13,5.2-4.5,5.3-4.6,10.6-9.2,5.3-4.7,5.4-4.7,5.4-4.8,5.4-4.9,5.5-4.9,11-10,16.6-15.4,11.2-10.6,11.2-10.8,5.6-5.5,5.7-5.5,5.7-5.6,11.4-11.4,11.4-11.6,11.4-11.8,5.7-6,11.4-12.2,11.4-12.4,11.4-12.6,11.4-12.7,5.7-6.5,11.4-13.1,11.4-13.3,11.4-13.5,11.4-13.7,11.4-13.9,5.6-7,11.2-14.3,11.2-14.5,11-14.7,9.4-12.8,7.6-10.6,2.5-3.7,10.5-15.8,2.6-4.1,2.6-4.2,5.3-8.6,5.3-8.9,5.3-9.1,7.9-14.2,7.6-14.5,2.5-5,7.3-15.1,4.7-10.2,4.5-10.3L1896,709l4.1-10.5L1904,688l1.8-5.2,3.5-10.6,1.6-5.3,1.5-5.3,2.9-10.7,1.4-5.2,1.3-5.2,1.2-5.2,1.1-5.2,1-5.2.9-5.2.8-5.1.7-5.1.6-5.1.5-5.1.4-5,.4-8.7v-9.9l-.3-7.2-.6-7.2-.9-7-.9-5.6-1.4-6.1-.6-2.3-1.5-4.6-.8-2.2-1.9-4.4-1-2.1-2.3-4.1-1.2-2-1.3-1.9-1.4-1.9-1.4-1.9-1.4-1.8-3.2-3.6-1.6-1.7-3.5-3.4-1.8-1.5-4-3.2-2-1.5-2.2-1.5-2.2-1.4-4.6-2.8-4.8-2.6-7.8-3.7-5.5-2.3-8.8-3.2-6.1-1.9-9.7-2.6-6.8-1.5-10.7-2-7.4-1.2-11.8-1.5-8-.8-12.6-.9-8.7-.4-13.9-.3h-5.8l-4.6-.7-5,.1-5.3.2-10.4.6-16.2,1.3-26.6,3.5-15.5,2.5,1.8.1,25.1,3.2,17.7,2.8,14,3,2.4.6,8.5,2.4,8.1,2.5,10.9,4.2,3.7,1.5,6.6,3.3,5.3,2.9,2.9,1.7,2.8,1.7,2.9,1.8,2.6,1.8,2.5,1.8,2.6,2,2.3,1.9,4.5,3.9,2.2,2.1,4,4,2,2.2,4.6,5.4.5.7,1.2,1.5,1.3,1.7,2.4,3.4,3.1,5.3,1.9,3.7,2.5,5.7,2.2,5.9,1.8,6.1,1.5,6.3,1.2,6.4.9,6.5.8,8.8.2,3.4.1,4.5v4.5l-.1,4.5-.4,9-.3,4.6-.4,4.6-.5,4.6-1.2,9.1-1.4,9.1-1.6,9-1.8,8.8-3,12.7-2.2,8.2-2.2,7.8-2.2,7.4-2.2,7.1-6,18-2.3,6-1.3,3.6-4.4,10.7v1.3l-.8.8-.4.6-1.4,3.1-9,17.8-4.6,8.4-5.4,9.9-6.1,10.9-1.3,2.4-13.3,23L1745,846.7l-3.7,5.9-1.9,3.1-2,3-2,3.2-12.7,19.2L1708,902l-2.5,3.5-4.9,7-5.2,7.2-2.5,3.6-8,11-2.8,3.7-5.5,7.4-5.8,7.5-3,3.8-5.9,7.6-9.2,11.6-6.3,7.7-3.1,3.9-9.8,11.9-6.7,7.9-21,23.9-11,12.1-7.5,8.1-11.5,12.1-15.9,16.3-8.1,8.1-8.3,8.1-12.8,12.2-2.2,2-.6.7-3.2,3.8-5.1,5.7-1.7,1.8-5.4,5.9-5.7,6-3.9,3.9-2,2.1-8.3,8.3-7.7,7.3-4.5,4.2-9.4,8.6-4.9,4.4-10,8.8-5.1,4.5-5.2,4.5-5.2,4.5-5.3,4.6-10.9,9.2-11.2,9.3-5.7,4.6-29.6,23.5-6.1,4.7-44.2,33.6-22.8,16.8-13.2,9.6-13.3,9.6-26.8,19.1-27,18.9-26.9,18.6-10,6.9-13.4,9.1-13.1,9-13.2,8.9-6.5,4.4-13,8.7-6.4,4.3-6.4,4.3-6.3,4.2-6.3,4.2-24.6,16.3-23.7,15.5-5.8,3.8-16.9,11-27.9,18-4.9,3.1-23.8,15.2-2.2,1.4Z"/><path id="Bianco" class="cls-1" d="M1669.8,330l5.3.1,2.6.1h2.3l4.4.1,4.4.2,4.3.2,4.2.2,4.2.3,4.1.3,4.1.4,4,.4,3.9.4,3.9.5,3.8.5,3.8.6,3.7.6,3.6.7,3.6.7,3.5.7,3.4.8,3.4.8,3.3.9,3.3.9,3.2,1,3.1,1,3.1,1,3,1.1,2.9,1.1,2.9,1.2,2.9,1.2,2.8,1.3,2.8,1.3,2.7,1.3,2.7,1.4,2.6,1.4,2.5,1.5,2.5,1.5,2.4,1.6,2.3,1.6,2.3,1.6,2.2,1.7,2.1,1.7,2.1,1.8,2,1.8,1.9,1.9,1.9,1.9,1.8,1.9,1.7,2,1.7,2,1.6,2.1,1.5,2.1,1.5,2.2,1.4,2.2,1.3,2.2,1.3,2.3,1.2,2.3,1.1,2.4,1.1,2.4,1,2.5.9,2.5.9,2.6.8,2.6.7,2.6.7,2.7.6,2.7.5,2.8.2,1.4h0l.2,1.3.4,2.6.4,2.6.3,2.6.3,2.6.3,2.6.2,2.6.2,2.7.2,2.7.1,2.7.1,2.7.1,2.7V463l-.1,2.8-.1,2.8-.2,4.1-.4,5.5-.5,5.5-.6,5.6-.7,5.6-.8,5.6-.9,5.6-1,5.7-1.1,5.7-1.2,5.7-1.2,5.7-1.3,5.7-1.4,5.7-1.5,5.7-1.6,5.7-1.6,5.7-1.7,5.7-1.8,5.7-1.8,5.7-1.9,5.7-2,5.7-2,5.7-2.1,5.6-2.1,5.6-2.2,5.6-2.2,5.6-2.3,5.5-2.3,5.5-2.4,5.5-2.4,5.4-2.4,5.4-2.5,5.4-2.5,5.3-2.5,5.3-2.5,5.2-2.6,5.2-2.6,5.1-2.6,5-2.6,5-2.6,4.9-2.6,4.9-2.6,4.8-2.6,4.7-2.6,4.6-2.6,4.6-2.6,4.5-2.6,4.4-2.6,4.3-2.6,4.2-2.6,4.1-2.6,4.1-2.5,4-2.5,3.9-2.5,3.8-2.5,3.7-1.2,1.8h0l-2.7,4-5.3,8-5.4,7.9-5.4,7.9-5.4,7.8-5.4,7.8-5.4,7.7-5.5,7.6-5.5,7.6-5.5,7.5-5.5,7.5-5.5,7.4-5.5,7.4-5.5,7.3-5.6,7.2-5.6,7.2-5.6,7.1-5.6,7.1-5.6,7-5.6,6.9-5.6,6.9-5.6,6.8-5.6,6.8-5.6,6.7-5.6,6.6-5.6,6.6-5.6,6.5-5.6,6.5-5.6,6.4-5.6,6.3-5.6,6.3-5.6,6.2-5.5,6.2-5.5,6.1-5.5,6-5.5,6-5.5,5.9-5.5,5.9-5.5,5.8-5.5,5.7-5.4,5.7-5.4,5.6-5.4,5.6-5.4,5.5-5.4,5.4-5.3,5.4-5.3,5.3-5.3,5.3-5.3,5.2-5.2,5.1-5.2,5.1-5.2,5-5.2,4.9-5.1,4.9-5.1,4.8-5.1,4.8-5,4.7-5,4.6-5,4.6-4.9,4.5-4.9,4.4-4.9,4.4-4.8,4.3-4.8,4.3-4.7,4.2-4.7,4.1-4.7,4.1-4.6,4-4.6,3.9-4.5,3.9-4.5,3.8-4.4,3.8-4.4,3.7-4.3,3.6-4.3,3.6-4.2,3.5-4.2,3.4-4.1,3.4-4.1,3.3-4,3.2-3.9,3.2-3.9,3.1-3.8,3-3.8,3-3.7,2.9-3.6,2.9-3.6,2.9-3.5,2.8-3.5,2.8-3.4,2.7-3.3,2.6-3.3,2.6-3.2,2.5-3.1,2.4-3,2.4-3,2.3-2.9,2.2-2.9,2.2-2.8,2.1-2.8,2-2.7,2-2.6,1.9-2.5,1.8-2.5,1.8-2.4,1.7-2.3,1.6-1.7,1.2-1.1.8-1.1.8-1,.7-1,.7-1,.7-1,.7-1,.7-.9.7-.9.6-.9.6-.9.6-.8.6-.8.6-.8.6-.8.5-.8.5-.7.5-.7.5-.7.5-.7.4-.6.4-.6.4-.6.4-.6.4-.5.4-.5.3-.5.3-.5.3-.4.3-.4.3-.4.3-.4.2-.3.2-.3.2-.3.2-.3.2-.2.2-.2.1-.2.1-.2.1-.1.1-.1.1h-.1l-8,5.2-15.9,10.5-16,10.4-16.1,10.4-16.1,10.3-12.1,7.7-8.1,5.1-8,5.1-8,5-8,5-7.9,5-7.9,4.9-7.9,4.9-7.8,4.8-7.8,4.8-7.7,4.7-7.6,4.7-7.6,4.6-7.5,4.6-5.5,3.4-3.6,2.3-3.6,2.3-3.6,2.3-3.6,2.2-3.5,2.2-3.5,2.2-3.5,2.2-3.5,2.2-3.4,2.2-3.4,2.1-3.4,2.1-3.3,2.1-3.3,2.1-3.3,2.1-3.3,2-3.2,2-3.2,2-3.2,2-3.1,2-3.1,1.9-3.1,1.9-3,1.9-3,1.9-3,1.8-2.9,1.8-2.9,1.8-2.9,1.8-2.9,1.7-2.9,1.7-2.8,1.7-2.8,1.7-2.7,1.6L913,1474l-2.7,1.6-2.6,1.6-2.6,1.5-2.5,1.5-2.5,1.5-2.4,1.5-2.4,1.4L893,1486l-2.3,1.4-2.2,1.3-2.2,1.3-2.1,1.3-2.1,1.2-2,1.2-2,1.2-1.9,1.1-1.9,1.1-1.8,1.1-1.8,1.1-1.7,1-1.7,1-1.6,1-1.6.9-1.5.9-1.4.8-1.4.8-1.3.8-1.3.7-1.2.7-1.1.7-1.1.6-1,.6-1,.6-.9.5-.8.5-.8.4-.7.4-.6.4-.6.3-.5.3-.4.2-.4.2-.3.2-.2.1-.1.1h-.1l-.3.1a1.42,1.42,0,0,1-.4.2,5.71,5.71,0,0,1-1.5.6,3.94,3.94,0,0,1-1.4.5,5.92,5.92,0,0,1-1.5.4c-1.2.3-.7.2-1.5.4a4.87,4.87,0,0,1-1.5.2,5.29,5.29,0,0,1-1.6.2h.1a1.61,1.61,0,0,1-.9-.3c-.6-.2-.5,0-.6-.3-.3-.1-.2,0-.2-.4-.2-.4-.2-.2,0-.5,0-.3,0-.1.4-.6s.1-.3.6-.7c.1-.1,0-.1.3-.2l.2-.1h0l.1-.1.1-.1.2-.1.2-.1.3-.2.3-.2.3-.2.4-.3.4-.3.5-.3.5-.3.6-.4.6-.4.6-.4.7-.5.7-.5.8-.5.8-.5.8-.6.9-.6.9-.6,1-.6,1-.7,1-.7,1.1-.7,1.1-.8,1.1-.8,1.2-.8,1.2-.8,1.3-.9,1.3-.9,1.3-.9,1.4-.9,1.4-.9,1.4-1,1.5-1,1.5-1,1.5-1,1.6-1.1,1.6-1.1,1.6-1.1,1.7-1.1,1.7-1.2,1.7-1.2,1.8-1.2,1.8-1.2,1.8-1.2,1.8-1.3,1.9-1.3,1.9-1.3,1.9-1.3,2-1.4,2-1.4,2-1.4,2-1.4,2.1-1.4,2.1-1.5,2.1-1.5,2.2-1.5,2.2-1.5,2.2-1.5,2.2-1.6,2.3-1.6,2.3-1.6,2.3-1.6,2.3-1.6,2.4-1.7,2.4-1.7,2.4-1.7,2.4-1.7,2.5-1.7,2.5-1.7,2.5-1.8,2.5-1.8,2.5-1.8,2.6-1.8,3.8-2.7,5.2-3.6,5.2-3.7,5.3-3.7,5.4-3.8,5.5-3.9,5.5-3.9,5.6-4,5.7-4,5.7-4.1,5.8-4.1,5.9-4.2,5.9-4.2,6-4.3,6-4.3,6.1-4.4,6.1-4.4,6.2-4.5,6.2-4.5,6.3-4.6,6.3-4.6,6.3-4.6,6.4-4.7,6.4-4.7,6.4-4.7,6.4-4.8,6.5-4.8,6.5-4.8,6.5-4.9,9.7-7.4,13.1-9.9,13.1-10,13.1-10,13.1-10.1,13.1-10.1,13-10.2,12.9-10.2,12.8-10.2,12.7-10.2,9.4-7.7,6.3-5.1,6.2-5.1,6.2-5.1,6.1-5.1,6.1-5.1,6-5.1,6-5.1,5.9-5.1,5.9-5,5.8-5,5.8-5,5.7-5,5.6-5,5.6-4.9,5.5-4.9,5.4-4.9,5.3-4.9,5.3-4.8,5.2-4.8,5.1-4.8,5-4.8,4.9-4.7,4.8-4.7,4.7-4.7,4.7-4.6,4.6-4.6,4.5-4.5,4.4-4.5,3.2-3.3,2.1-2.3,2.1-2.3,2.1-2.2,2.1-2.2,2-2.2,2-2.2,2-2.2,1.9-2.2,1.9-2.2,1.9-2.2,1.9-2.1,1.8-2.1,1.8-2.1,1.8-2.1,1.7-2.1,1.7-2.1,1.7-2.1,1.6-2.1,1.6-2,1.6-2,1.5-2,.8-1c.1-.1.2-.2.2-.3l2.1-2.2,4.1-4.3,4.1-4.3,4-4.3,4-4.3,4-4.3,5.9-6.5,7.8-8.6,5.7-6.5,3.8-4.3,3.7-4.3,3.7-4.3,3.6-4.3,3.6-4.3,3.6-4.3,3.5-4.3,3.5-4.3,3.5-4.2,3.4-4.2,3.4-4.2,3.4-4.2,3.3-4.2,3.3-4.2,3.3-4.2,3.2-4.2,3.2-4.2,3.2-4.2,3.1-4.2,3.1-4.1,3.1-4.1,3-4.1,3-4.1,2.9-4.1,2.9-4.1,2.9-4,2.9-4,2.9-4,2.9-4,2.8-4,2.8-4,2.8-3.9,2.7-3.9,2.7-3.9,2.7-3.9,2.6-3.8,2.6-3.8,2.6-3.8,2.5-3.8,2.5-3.8,2.5-3.7,2.4-3.7,2.4-3.7,2.4-3.6,2.3-3.6,2.3-3.6,2.3-3.6,2.2-3.5,2.2-3.5,2.2-3.5,2.1-3.4,2.1-3.4,2.1-3.4,2-3.3,2-3.3,2-3.3,1.9-3.2,1.9-3.2,1.9-3.2,1.8-3.1,1.8-3.1,1.8-3,1.7-3,1.7-3,1.7-2.9,1.6-2.9,1.6-2.9,1.6-2.9,1.5-2.9,1.5-2.8,1.5-2.8,1.4-2.7,1.4-2.7,1.4-2.6,1.3-2.6,1.3-2.5,1.3-2.5,1.2-2.4,1.2-2.4,1.2-2.3,1.1-2.3,1.1-2.2,1.1-2.2,1.1-2.1,1-2.1,1-2,1-2,.9-1.9.9-1.9.9-1.8.8-1.8.8-1.7.8-1.6.7-1.6.7-1.5.7-1.5.6-1.4.6-1.3.6-1.3.6-1.2.5-1.2.5-1.1.5-1,.4-1,.4-.9.4-.8.3-.8.3-.7.3-.6.2-.6.2-.5.2-.4.2-.4.1-.3.1-.2.1-.1v-.3l.1-.2.1-.2.1-.3.1-.3.2-.4.2-.5.2-.5.2-.6.2-.6.2-.7.3-.7.3-.8.3-.8.3-.9.3-.9.3-1,.4-1,.4-1.1.4-1.1.4-1.2.4-1.2.4-1.2.4-1.3.4-1.3.5-1.4.5-1.4.5-1.4.5-1.5.5-1.5.5-1.6.5-1.6.5-1.6.5-1.7.8-2.6,1.1-3.4,1.1-3.5,1.1-3.7,1.1-3.8,1.1-3.9,1.1-4,1.1-4.1,1.1-4.2,1.1-4.3,1-4.3,1-4.4,1-4.5.9-4.5.9-4.6.9-4.6.8-4.7.8-4.7.7-4.7.7-4.8.6-4.8.5-4.8.5-4.8.4-4.8.3-4.8.2-4.8.1-4.8.1-4.7v-4.7l-.1-4.7-.2-3.5-.1-2.4-.2-2.3-.2-2.3-.2-2.3-.3-2.3-.3-2.3-.3-2.3-.3-2.2-.4-2.2-.4-2.2-.4-2.2-.5-2.2-.5-2.2-.5-2.1-.6-2.1-.6-2.1-.6-2.1-.7-2-.7-2-.7-2-.8-2-.8-1.9-.9-1.9-.9-1.9-.9-1.8-1-1.8-1-1.8-1.1-1.7-1.1-1.7-1.1-1.7-1.2-1.7-.6-.8-.8-1.1-1.7-2.2-1.8-2.2-1.9-2.1-1.9-2.1-2-2.1-2-2-2.1-2-2.2-2-2.3-1.9-2.3-1.9-2.4-1.9-2.5-1.8-2.6-1.8-2.7-1.8-2.8-1.7-2.9-1.7-2.9-1.7-2.3-1.2-1.6-.8-1.6-.8-1.6-.8-1.7-.8-1.7-.8-1.7-.8-1.8-.7-1.8-.7-1.8-.7-1.9-.7-1.9-.7-1.9-.7-2-.7-2-.7-2-.7-2.1-.7-2.1-.6-2.1-.6-2.2-.6-2.2-.6-2.2-.6-2.3-.6-2.3-.6-2.4-.6-2.4-.6-2.4-.5-2.5-.5-1.3-.3h0l-1.3-.3-2.5-.5-2.4-.5-2.4-.5-2.3-.4-2.2-.4-2.2-.4-2.1-.4-2.1-.4-2-.3-2-.3-1.9-.3-1.9-.3-1.8-.3-1.8-.2-1.7-.2-1.7-.2-1.6-.2-1.6-.2-1.5-.2-1.5-.1-1.4-.1-1.4-.1-1.3-.1-1.3-.1-1.2-.1-1.2-.1-1.1-.1h-11.8l-.8.1-.6.1H1562c-4.2,1-7.6.7-7.5-.7.1-1.2,2.6-2.7,5.9-3.7h0l.6-.2.8-.2.9-.2,1-.2.5-.1h.2l.6-.1.7-.1.8-.2.8-.2.9-.2,1-.2,1-.2,1.1-.2,1.2-.2,1.2-.2,1.3-.3,1.4-.3,1.4-.3,1.5-.3,1.5-.3,1.6-.3,1.7-.3,1.7-.3,1.8-.3,1.8-.3,1.9-.3,1.9-.3,2-.3,2-.3,2-.3,2.1-.3,2.1-.3,2.2-.3,2.2-.3,2.2-.3,2.3-.3,2.3-.3,2.4-.3,3.5-.4,4.8-.5,4.9-.5,5-.5,5.1-.4,5.2-.4,5.2-.3,5.3-.2,5.3-.2,5.4-.1Z"/><path class="cls-1" d="M837.8,1517.5h-2.4l-.6-.1a4.28,4.28,0,0,1-1.6-.5,4.77,4.77,0,0,1-2.2-1.2,5.46,5.46,0,0,1-1.8-3.1,5.26,5.26,0,0,1,.3-3.5,5.85,5.85,0,0,1,1-1.7,3.8,3.8,0,0,1,1.2-1.3,8.74,8.74,0,0,1,1-.8l.2-.2,1.3-.8,1.1-.8,2.5-1.6,1.6-1.1,1.4-.9.8-.6,6.7-4.5,1.2-.9,8.9-6,1.4-1,10.8-7.3,3.4-2.4,5.2-3.5,1.8-1.3,17.5-12.1,2.2-1.5,6.4-4.4,2.2-1.6,42.4-29.7,5.2-3.7,21.7-15.4,5.6-4,5.7-4.1,5.7-4.1,29.6-21.2,43.4-31.7,19.2-14.1,6.3-4.8,13-9.7,29.2-22.2,26.1-20,26.1-20.2,12.9-10.2,12.9-10.2,12.8-10.2,28.4-23,12.4-10.2,12.2-10.2,12-10.2,5.9-5.1,5.9-5,11.6-10,5.7-5,5.6-5,5.6-4.9,5.5-4.9,5.4-4.9,5.3-4.9,5.3-4.8,5.2-4.8,5.1-4.8,9.9-9.5,4.8-4.7,4.7-4.7,4.8-4.7,9.1-9.1,7.6-7.8,4.2-4.5,4.1-4.3,5.8-6.4,5.6-6.5,1.8-2,5.2-6.1,4.9-6.1,1.6-2.1,3.1-3.9,1.4-1.9v-.3l11.7-12.3,12-12.9,5.9-6.4,7.7-8.6,16.9-19.4,10.9-12.9,7-8.6,3.6-4.3,10.3-12.6,10-12.6,9.7-12.6,3.1-4.2,6.3-8.3,6-8.2,5.9-8.2,3-4.1,8.5-12,5.5-8,2.8-4,15.6-23.2,4.9-7.6,2.5-3.8,4.7-7.4,2.4-3.7,13.2-21.4,12-20.3,10.9-19,9.7-17.6,15.9-30.5,3.2-6.6,1.1-2.1,7.9-16.4,3.9-8.6.5-1,1.1-2.4.4-.8.9-2.1.3-.6,1.6-3.7v-.2l1.3-3,.7-2.1.8-2,1-2.9,1.1-2.9,5.8-17.7,1.3-4.2,2.2-7,2.1-7.5,2.1-7.9,3.2-12.5,2.9-13.1,2.6-13.6,1.6-9.3,1.4-9.4.6-4.7,1-9.5.4-4.7.3-4.7.2-4.7.2-9.4v-4.6l-.1-4.6-.3-5.8-.6-6.6-1.1-8.7-1.1-6.3-1.4-6.1-1.7-5.9-2-5.7-1.5-3.5-2.5-5.2-1.8-3.3-3.1-4.8-2.4-3.3-1.6-2.1-1.6-2-3.6-4-1.9-2-1.9-1.9-2-1.9-2-1.8-4.4-3.6-2.2-1.8-2.4-1.7-2.5-1.7-2.5-1.7-2.7-1.6-5.6-3.2-6.8-3.4-4.8-2.3-10.7-4-7.7-2.7-10.5-2.9-9-2.3-14.4-3-19.9-3.4-9.5-1.2-10-.8h-11.4l-.9.1h-1c-5.1,1.1-8.7.7-11-1.2a5.6,5.6,0,0,1-2-4.8c.3-3.6,3.4-6.2,9.3-8.1l.9-.3,3.9-.8h.6l.4-.1,4.4-1,3.4-.6,7-1.5,8.6-1.5,20.4-3,6.9-.9,8.5-.9,10.1-1,10.3-.8,5.3-.3,10.7-.4,5.7-.1,5.3.3,14.6.3,13.1.6,8.5.6,12.2,1.2,7.9,1,7.7,1.2,11,2.1,7,1.6,6.9,1.8,9.8,3,6.2,2.2,6,2.5,8.4,3.9,5.5,2.9,5.1,3.1,2.4,1.6,4.8,3.3,2.3,1.7,2.2,1.8,2.2,1.8,2.2,2,3.8,3.8,1.9,2.1,3.5,4.1,1.7,2.2,1.5,2.2,1.6,2.3,1.5,2.3,1.3,2.2,1.4,2.5,1.3,2.5,2.3,4.9,1,2.6,1.8,5.2.8,2.7,1.4,5.4.6,2.9.9,5.5.8,5.3.9,7.9.6,8.1.3,8.1v10.8l-.4,9.8-.4,5.5-.5,5.6-.6,5.7-.7,5.7-.8,5.7-.9,5.7-1,5.8-1.1,5.8-2.4,11.5-1.3,5.8-1.4,5.8-1.5,5.8-3.2,11.5-1.7,5.8-3.6,11.5-1.9,5.8-4,11.6-4.1,11.2-4.4,11.4-4.5,11-7.1,16.4-7.4,16.1-2.5,5.2-5.2,10.4-10.3,19.9-5.2,9.6-7.7,13.8-5.2,8.8L1754,729l-10.1,16.3-2.5,3.9-6.3,9.6-5.3,8-10.9,15.8-10.8,15.6-5.4,7.7-11.1,15.2-11,15-11,14.8-5.5,7.3-11.3,14.4-11.2,14.2-5.6,7-11.2,13.8-11.2,13.6-5.6,6.7-11.2,13.2-11.2,13-5.6,6.4-11.2,12.6-5.6,6.2-5.5,6.2-5.5,6.1-11,12-11,11.8-5.5,5.8-5.5,5.7-5.4,5.7-10.8,11.2-5.4,5.5-5.4,5.4-5.3,5.4-10.6,10.6-15.8,15.5-5.2,5-5.2,4.9-5.1,4.9-15.3,14.4-15,13.8-24.2,21.8-14.1,12.3-4.7,4-4.5,3.9-4.6,3.9-4.4,3.8-17.4,14.6-4.3,3.5-4.1,3.4-23.8,19.1-3.7,3-3.6,2.9-14.2,11.1L1270,1249l-11.7,8.7-2.8,2-10.1,7.4-19.5,13.8-2,1.3-1.8,1.3-2.6,1.7-.9.6-1.4.9-1.1.9-1,.6-.4.4-.6.3-1.1,1.1h-.7l-6.7,4.4-15.9,10.5-16.1,10.4-16.1,10.4-16.1,10.3-20.2,12.8-7.9,5.1-16,10-7.8,5-31.3,19.5-7.7,4.7-7.5,4.7-7.6,4.6-23.8,14.8L993.8,1428l-3.5,2.2-6.9,4.1-10.1,6.2-9.8,5.9-3.2,2-3.2,2-6.3,3.7-6.1,3.8-8.9,5.3-2.9,1.8-19.1,11.4-2.6,1.6-7.4,4.4-2.4,1.5-11.1,6.6-2.2,1.3-9.7,5.7-8.6,5.2-5.7,3.3-1.5.9-2.2,1.2-1.3.8-8.5,4.8-1.1,1.1h-1.1c-.4.2-.7.3-1.2.5l-.4.2a13.78,13.78,0,0,1-1.6.6,5,5,0,0,1-1.3.4,1.34,1.34,0,0,0-.5.1c-.5.1-.6.2-.7.2s-.3.1-.8.2l-.2.1a6.8,6.8,0,0,1-1.5.2h-.4c-.2,0-.3,0-.3.1A9.15,9.15,0,0,1,837.8,1517.5Zm-4.2-.5h0Zm-2.8-10a.1.1,0,0,0-.1.1C830.8,1507.1,830.8,1507.1,830.8,1507Zm55.9-26.2-1.4,1,10.8-6.4,2.3-1.4,5-3,2.6-1.5,2.5-1.5,19.2-11.4,2.8-1.7,6-3.6,3.1-1.8,6-3.7,6.3-3.7,3.1-1.9,9.8-5.9,3.4-2,10-6.2,6.9-4.1,3.4-2.1,14.2-8.7,3.7-2.2,23.8-14.8,7.6-4.6,7.5-4.7,23.2-14.4,15.7-9.8,7.8-5,15.9-10,7.9-5.1,20.2-12.8,16.1-10.3,16.1-10.4,16-10.4,23.7-15.6.2-.2.5-.2,12.4-8.3,1.8-1.3,2.5-1.7.9-.7,18.2-12.9,10.6-7.8,2.8-2.1,6-4.4,3-2.3,13.1-9.9,14.1-11,3.6-2.9,15.4-12.2,3.9-3.2,8.2-6.6,4.1-3.4,4.3-3.5,17.2-14.5,4.4-3.8,4.6-3.9,4.5-3.9,4.7-4,14-12.2,24.1-21.7,14.9-13.7,15.2-14.3,5.1-4.9,5.2-4.9,5.2-5,15.7-15.4,10.6-10.6,5.3-5.4,5.4-5.4,5.4-5.5,10.8-11.2,5.4-5.7,5.5-5.7,5.5-5.8,11-11.8,11-12,5.5-6.1,5.5-6.2,5.6-6.2,11.2-12.6,5.6-6.4,11.2-12.9,11.2-13.1,5.6-6.7,11.2-13.5,11.2-13.7,5.6-7,11.2-14.1,11.2-14.3,5.5-7.2,11-14.7,11-14.9,11-15.1,5.4-7.6,10.8-15.5,10.8-15.7,11.5-17.4,2.4-3.8,2.4-3.9,10.1-16.4,2.5-4.3,5.1-8.9,7.6-13.9,7.6-14.6,7.6-15.1,2.5-5.2,7.3-15.7,2.4-5.4,7-16.2L1802,610l4.3-11.2,4.1-11.1,3.9-11.3,1.8-5.6,3.5-11.3,1.6-5.6,3.1-11.3,1.5-5.6,1.4-5.6,1.3-5.6,2.3-11.3,1.1-5.6,1-5.6.9-5.5.8-5.5.7-5.5.6-5.5.5-5.4.4-5.4.4-9.4V450.7l-.3-7.8-.6-7.7-.9-7.5-1.2-7.6-.5-2.6-.5-2.5-1.3-5-.7-2.4-1.7-4.8-.9-2.3-2.1-4.5-1.1-2.1-2.4-4.2-1.3-2-1.4-2-1.4-2-1.4-1.9-3.2-3.7-1.6-1.7-3.6-3.6-1.8-1.6-2-1.7-2-1.6-2-1.6-4.4-3.1-2.2-1.5-4.7-2.8-5-2.6-7.9-3.7-5.6-2.3-5.8-2.1-9.3-2.9-6.5-1.7-6.7-1.5-10.6-2-7.4-1.2-7.6-1-12-1.2-8.2-.6-12.9-.6-14.7-.3-5-.3-5.2.1-10.5.4-5.1.3-10.2.8-18.2,1.9-23.2,3.2-7.5,1.2,1.1.1,9.9,1.2,20.3,3.5,14.7,3.1,15.8,4.2,4.4,1.3,8,2.8,11.4,4.3,9.8,4.8,2.5,1.3,5.9,3.4,3,1.8,2.7,1.8,2.6,1.8,2.7,2,2.4,1.9,4.7,3.9,2.2,2,2.2,2.1,2.1,2.1,2.1,2.2,3.9,4.3,1.9,2.3,3.2,4.2,1.3,1.8,3.4,5.3,2.1,3.7,2.8,5.8,1.7,4.1,2.2,6.2,1.8,6.4,1.5,6.7,1.2,6.7,1.2,9.2.6,7,.3,6,.1,4.8v4.8l-.2,9.6-.2,4.9-.3,4.9-.4,4.9-1,9.7-.6,4.9-1.4,9.6-1.6,9.6-2.7,13.9-3,13.4-3.3,12.7-2.2,8-2.2,7.6-6,19.2-1.4,4-2,6.2-4.2,11.7v1.3l-.8.9-.3.7-.3.8-.6,1.2-.5,1.2-.6,1.4-.5,1.3-.9,1.8-.6,1.4-1.7,3.5-.6,1.5-4.5,9.7-17.4,34.7-7.1,13.4-1.5,2.9-9.8,17.8-16.8,29.1-12.7,21-6.8,10.9-2.4,3.7-4.7,7.4-2.5,3.8-4.9,7.6-15.7,23.4-2.8,4-5.5,8-8.6,12.2-3,4.1-5.9,8.2-6.1,8.3-6.3,8.3-3.1,4.2-9.8,12.7-10.1,12.7-10.4,12.7-3.6,4.3-7,8.6-11,13-7.5,8.7-9.6,10.8-7.8,8.7-5.9,6.5-12.1,13-10,10.4a2.18,2.18,0,0,1-.4.5l-.6.8-1.5,2-3.1,3.9-1.6,2.1-5.1,6.3-5.4,6.3-1.8,2-5.6,6.5-6,6.6-4.1,4.3-4.2,4.6-7.7,7.9-9.2,9.2-4.8,4.7-4.7,4.7-4.9,4.8-10,9.6-5.1,4.8-5.2,4.8-5.3,4.8-5.3,4.9-5.4,4.9-5.5,4.9-5.6,4.9-5.6,5-5.7,5-11.6,10.1-5.9,5-5.9,5.1-12,10.2-12.2,10.2-12.4,10.2-15.8,12.8-12.7,10.2-12.8,10.2-12.9,10.2-13,10.2-26.2,20.3-26.2,20.1-29.3,22.2-13,9.7-6.4,4.8-50.5,37.1-36,26-5.8,4.1-5.7,4.1-5.7,4.1-22,15.7-5.3,3.7-5.2,3.7-42.4,29.7-2.2,1.6-6.4,4.4-4.2,3-2,1.3Z"/><path id="Verde" class="cls-4" d="M1573.8,197h5.5l2.7.1h3.4l4.2.1,4.2.2,4.1.2,4.1.3,4,.3,3.9.3,3.9.4,3.8.4,3.8.5,3.7.5,3.6.6,3.6.6,3.5.7,3.5.7,3.4.7,3.3.8,3.3.8,3.2.9,3.2.9,3.1,1,3,1,3,1.1,2.9,1.1,2.9,1.1,2.9,1.2,2.8,1.2,2.8,1.3,2.7,1.3,2.7,1.4,2.6,1.4,2.5,1.5,2.5,1.5,2.4,1.6,2.3,1.6,2.3,1.6,2.2,1.7,2.2,1.7,2.1,1.8,2,1.8,2,1.9,1.9,1.9,1.8,2,1.8,2,1.7,2.1,1.7,2.1,1.6,2.2,1.5,2.2,1.5,2.2,1.4,2.3,1.3,2.3,1.3,2.4,1.2,2.4,1.2,2.5,1.1,2.5,1,2.6,1,2.6.9,2.7.8,2.7.8,2.8.7,2.8.6,2.9.6,2.9.5,2.9.2,1.5h0l.2,1.4.4,2.7.3,2.7.3,2.8.3,2.8.3,2.8.2,2.8.2,2.8.2,2.8.1,2.8.1,2.9.1,2.9v11.6l-.1,4.3-.2,5.8-.4,5.8-.5,5.9-.6,5.9-.7,5.9-.8,6-.8,6-.9,6-1,6-1.1,6-1.2,6.1-1.3,6.1-1.3,6.1-1.4,6.1-1.5,6.1-1.6,6.1-1.6,6.1-1.7,6.1-1.8,6.1-1.8,6.1-1.9,6-1.9,6-2,6-2,6-2.1,6-2.1,5.9-2.2,5.9-2.2,5.9-2.3,5.8-2.3,5.8-2.3,5.7-2.3,5.7-2.4,5.7-2.4,5.6-2.4,5.5-2.4,5.5-2.5,5.4-2.5,5.4-2.5,5.3-2.5,5.2-2.5,5.2-2.5,5.1-2.5,5-2.5,4.9-2.5,4.9-2.5,4.8-2.5,4.7-2.5,4.6-2.5,4.5-2.5,4.4-2.4,4.3-2.4,4.2-2.4,4.1-2.4,4-2.4,3.9-1.2,1.9h0l-2.6,4.2-5.1,8.5-5.1,8.4-5.1,8.4-5.2,8.3-5.2,8.3-5.2,8.2-5.2,8.1-5.2,8.1-5.2,8-5.3,7.9-5.3,7.9-5.3,7.8-5.3,7.8-5.3,7.7-5.3,7.6-5.3,7.6-5.3,7.5-5.3,7.4-5.3,7.4-5.3,7.3-5.3,7.3-5.3,7.2-5.3,7.1-5.3,7.1-5.3,7-5.3,6.9-5.3,6.9-5.3,6.8-5.3,6.8-5.3,6.7-5.3,6.6-5.3,6.6-5.3,6.5-5.3,6.4-5.3,6.4-5.3,6.3-5.2,6.2-5.2,6.2-5.2,6.1-5.2,6-5.2,6-5.2,5.9-5.1,5.8-5.1,5.8-5.1,5.7-5.1,5.7-5.1,5.6-5,5.5-5,5.5-5,5.4-5,5.3-4.9,5.3-4.9,5.2-4.9,5.1-4.8,5.1-4.8,5-4.8,4.9-4.7,4.9-4.7,4.8-4.7,4.7-4.6,4.7-4.6,4.6-4.6,4.5-4.5,4.5-4.5,4.4-4.4,4.3-4.4,4.3-4.4,4.2-4.3,4.1-4.3,4.1-4.2,4-4.2,3.9-4.1,3.9-4.1,3.8-4,3.7-4,3.7-3.9,3.6-3.9,3.5-3.8,3.4-3.8,3.4-3.7,3.3-3.7,3.2-3.6,3.2-3.5,3.1-3.5,3-3.4,3-3.4,2.9-3.3,2.9-3.2,2.9-3.2,2.8-3.1,2.7-3,2.7-3,2.6-2.9,2.5-2.9,2.4-2.9,2.4-2.8,2.3-2.7,2.2-2.6,2.2-2.6,2.1-2.5,2-2.4,2-2.3,1.9-2.3,1.8-1.6,1.3-1.1.9-1.1.8-1,.8-1,.8-1,.8-1,.8-1,.7-.9.7-.9.7-.9.7-.9.7-.8.7-.8.6-.8.6-.8.6-.8.6-.7.6-.7.5-.7.5-.7.5-.7.5-.6.5-.6.5-.6.4-.6.4-.5.4-.5.4-.5.4-.5.3-.4.3-.4.3-.4.3-.4.3-.4.3-.3.2-.3.2-.3.2-.3.2-.2.2-.2.2-.2.1-.2.1-.1.1-.1.1h-.1l-7.6,5.6-15.2,11.1-15.3,11.1-15.3,11.1-15.3,11-11.5,8.2-7.7,5.4-7.7,5.4-7.7,5.4-7.6,5.3-7.6,5.3-7.5,5.2-7.5,5.2-7.5,5.2-7.4,5.1-7.3,5-7.3,5-7.2,4.9-7.1,4.9-5.3,3.6-3.5,2.4-3.4,2.4-3.4,2.4-3.4,2.4-3.4,2.4-3.3,2.3-3.3,2.3-3.3,2.3-3.3,2.3-3.2,2.3-3.2,2.3-3.2,2.2-3.2,2.2-3.1,2.2-3.1,2.2-3.1,2.1-3,2.1-3,2.1-3,2.1-3,2.1-2.9,2-2.9,2-2.9,2-2.9,2-2.9,1.9-2.8,1.9-2.8,1.9-2.8,1.9-2.7,1.8-2.7,1.8-2.7,1.8-2.6,1.7-2.6,1.7-2.5,1.7-2.5,1.7-2.5,1.6-2.4,1.6-2.4,1.6-2.3,1.5-2.3,1.5-2.2,1.5-2.2,1.4-2.1,1.4-2.1,1.4-2,1.4-2,1.3-2,1.3-1.9,1.3-1.9,1.2-1.8,1.2-1.8,1.2-1.7,1.1-1.6,1.1-1.6,1-1.5,1-1.5,1-1.4.9-1.4.9-1.3.9-1.3.8-1.2.8-1.1.8-1.1.7-1,.7-1,.6-.9.6-.8.6-.8.5-.7.5-.7.4-.6.4-.5.3-.5.3-.4.3-.3.2-.3.2-.2.1-.1.1h-.1l-.3.2a1.42,1.42,0,0,1-.4.2,4.78,4.78,0,0,1-1.4.6,3.62,3.62,0,0,1-1.3.5,4.86,4.86,0,0,1-1.4.4,4.12,4.12,0,0,1-1.5.4,7.52,7.52,0,0,1-1.5.3c-1.3.2-.7.2-1.6.3H779c-.6,0-.3,0-1-.2s-.5,0-.7-.2-.2,0-.3-.4c-.3-.3-.3-.2-.2-.4-.1-.3-.1-.1.2-.5s.1-.3.4-.6c.1-.2,0-.1.3-.2l.2-.2h0l.1-.1.1-.1.2-.1.2-.2.3-.2.3-.2.3-.2.4-.3.4-.3.5-.3.5-.4.5-.4.6-.4.6-.5.7-.5.7-.5.7-.5.8-.6.8-.6.8-.6.9-.7.9-.7,1-.7,1-.7,1-.8,1.1-.8,1.1-.8,1.1-.9,1.2-.9,1.2-.9,1.2-.9,1.3-1,1.3-1,1.3-1,1.4-1,1.4-1.1,1.4-1.1,1.5-1.1,1.5-1.1,1.5-1.2,1.6-1.2,1.6-1.2,1.6-1.2,1.6-1.3,1.7-1.3,1.7-1.3,1.7-1.3,1.8-1.4,1.8-1.4,1.8-1.4,1.8-1.4,1.9-1.4,1.9-1.5,1.9-1.5,2-1.5,2-1.5,2-1.6,2-1.6,2.1-1.6,2.1-1.6,2.1-1.6,2.1-1.7,2.2-1.7,2.2-1.7,2.2-1.7,2.2-1.7,2.3-1.8,2.3-1.8,2.3-1.8,2.3-1.8,2.3-1.8,2.4-1.9,2.4-1.9,2.4-1.9,2.4-1.9,2.5-1.9,3.6-2.9,4.9-3.9,5-3.9,5.1-4,5.2-4.1,5.2-4.1,5.3-4.2,5.4-4.2,5.4-4.3,5.5-4.4,5.5-4.4,5.6-4.5,5.7-4.5,5.7-4.6,5.8-4.6,5.8-4.7,5.9-4.7,5.9-4.8,5.9-4.8,6-4.9,6-4.9,6-4.9,6.1-5,6.1-5,6.1-5,6.1-5.1,6.2-5.1,6.2-5.1,6.2-5.2,9.3-7.9,12.5-10.5,12.5-10.6,12.5-10.7,12.5-10.7,12.5-10.8,12.4-10.8,12.4-10.9,12.3-10.9,12.2-10.9,9-8.2,6-5.4,5.9-5.4,5.9-5.4,5.9-5.4,5.8-5.4,5.8-5.4,5.7-5.4,5.7-5.4,5.6-5.4,5.6-5.4,5.5-5.3,5.4-5.3,5.4-5.3,5.3-5.3,5.2-5.2,5.2-5.2,5.1-5.2,5-5.2,5-5.1,4.9-5.1,4.8-5.1,4.7-5,4.6-5,4.5-5,4.4-4.9,4.3-4.9,4.3-4.8,4.2-4.8,4.1-4.7,3-3.5,2-2.4,2-2.4,1.9-2.4,1.9-2.4,1.9-2.3,1.9-2.3,1.8-2.3,1.8-2.3,1.8-2.3,1.8-2.3,1.7-2.3,1.7-2.2,1.7-2.2,1.6-2.2,1.6-2.2,1.6-2.2,1.5-2.2,1.5-2.2,1.5-2.1.7-1.1c.1-.1.1-.2.2-.2l2-2.3,3.9-4.5,3.9-4.6,3.9-4.6,5.8-6.9,7.6-9.1,7.5-9.1,7.3-9.1,7.2-9.1,5.3-6.9,3.4-4.5,3.4-4.5,3.4-4.5,3.3-4.5,3.3-4.5,3.3-4.5,3.2-4.5,3.2-4.5,3.2-4.5,3.1-4.5,3.1-4.5,3.1-4.5,3-4.4,3-4.4,3-4.4,2.9-4.4,2.9-4.4,2.9-4.4,2.9-4.4,2.9-4.3,2.9-4.3,2.8-4.3,2.8-4.3,2.8-4.3,2.7-4.3,2.7-4.2,2.7-4.2,2.6-4.2,2.6-4.2,2.6-4.1,2.6-4.1,2.5-4.1,2.5-4.1,2.5-4,2.4-4,2.4-4,2.4-4,2.3-3.9,2.3-3.9,2.3-3.9,2.2-3.9,2.2-3.8,2.2-3.8,2.1-3.8,2.1-3.7,2.1-3.7,2-3.7,2-3.6,2-3.6,1.9-3.6,1.9-3.5,1.9-3.5,1.8-3.4,1.8-3.4,1.8-3.4,1.8-3.3,1.7-3.3,1.7-3.2,1.7-3.2,1.6-3.2,1.6-3.1,1.6-3.1,1.5-3,1.5-3,1.5-2.9,1.4-2.9,1.4-2.9,1.4-2.9,1.3-2.8,1.3-2.8,1.3-2.7,1.3-2.7,1.2-2.6,1.2-2.6,1.2-2.5,1.1-2.5,1.1-2.4,1.1-2.4,1-2.3,1-2.3,1-2.2.9-2.2.9-2.1.9-2,.9-2,.8-1.9.8-1.9.8-1.8.7-1.7.7-1.7.7-1.6.6-1.6.6-1.5.6-1.4.6-1.4.5-1.3.5-1.2.5-1.2.4-1.1.4-1,.4-1,.3-.9.3-.8.3-.7.3-.7.2-.6.2-.5.2-.5.1-.4.1-.3.1-.2.1-.2v-.3l.1-.2.1-.2.1-.3.1-.4.1-.4.2-.5.2-.5.2-.6.2-.7.2-.7.3-.8.3-.8.3-.9.3-.9.3-1,.3-1,.3-1.1.4-1.1.4-1.2.4-1.2.4-1.3.4-1.3.4-1.4.4-1.4.4-1.4.4-1.5.5-1.5.5-1.6.5-1.6.5-1.7.5-1.7.5-1.7.5-1.8.5-1.8.5-1.8.8-2.8,1-3.8,1-3.9,1-4,1-4.1,1-4.2,1-4.4,1-4.4,1-4.5,1-4.6,1-4.7.9-4.8.9-4.8.9-4.9.8-4.9.8-5,.7-5,.7-5,.6-5.1.6-5.1.5-5.1.4-5.1.4-5.1.3-5.1.2-5.1.1-5.1.1-5v-5l-.1-5-.2-3.7-.1-2.5-.2-2.5-.2-2.5-.2-2.5-.2-2.4-.3-2.4-.3-2.4-.3-2.4-.4-2.4-.4-2.4-.4-2.3-.5-2.3-.5-2.3-.5-2.3-.5-2.2-.6-2.2-.6-2.2-.6-2.2-.7-2.1-.7-2.1-.8-2.1-.8-2.1-.8-2-.9-2-.9-2-.9-1.9-1-1.9-1-1.9-1.1-1.8-1.1-1.8-1.1-1.8-.6-.9-.8-1.2-1.7-2.3-1.7-2.3-1.8-2.3-1.8-2.2-1.9-2.2-2-2.2-2-2.1-2.1-2.1-2.2-2.1-2.2-2-2.3-2-2.4-2-2.5-1.9-2.6-1.9-2.7-1.8-2.8-1.8-2.9-1.8-2.2-1.3-1.5-.9-1.5-.8-1.6-.8-1.6-.8-1.6-.8-1.7-.8-1.7-.8-1.7-.8-1.8-.8-1.8-.8-1.8-.8-1.8-.7-1.9-.7-1.9-.7-1.9-.7-2-.7-2-.7-2-.7-2.1-.7-2.1-.7-2.1-.6-2.2-.6-2.2-.6-2.3-.6-2.3-.6-2.3-.6-2.4-.6-1.2-.3-2.4-.5-4.7-1-4.7-.9-4.7-.8-4.6-.8-4.6-.7-4.5-.6-4.5-.5-4.4-.5-4.3-.4-3.2-.3-2.1-.2-2.1-.1-2.1-.1-2.1-.1-2-.1-2-.1-2-.1-1.9-.1-1.9-.1h-36.1c-3.3.3-5.1-.5-4-1.9,1.2-1.6,5.4-3.3,9.4-3.9h.4l.4-.1.5-.1.7-.1.8-.1.9-.1,1-.1,1.1-.2,1.2-.2,1.3-.2,1.4-.2,1.5-.2,1.6-.2,1.7-.2,1.8-.2,1.9-.3,2-.3,2.1-.3,2.1-.3,2.2-.3,2.3-.3,2.4-.3,2.4-.3,2.5-.3,2.6-.3,2.6-.3,2.7-.3,2.7-.3,2.8-.3,2.8-.3,2.8-.3,2.9-.3,4.3-.5,5.9-.6,6-.6,6.1-.6,6.1-.5,6.1-.5,6.2-.5,6.1-.4,6.1-.4,4.5-.2,3-.1,2.9-.1,2.9-.1,2.9-.1,2.9-.1,2.9-.1h2.9Z"/><path class="cls-5" d="M781.7,1458.6H779a5.86,5.86,0,0,1-2.1-.3,4.76,4.76,0,0,1-2.1-.7,5.19,5.19,0,0,1-2.2-2.2,5.29,5.29,0,0,1-.9-3,5.5,5.5,0,0,1,1-3.2,3.83,3.83,0,0,1,.8-1.1,6.28,6.28,0,0,1,1.2-1.1l.4-.4,1.4-.9,14.6-10.8,1.1-.9,14.4-10.9,1.5-1.2,4.6-3.5,1.6-1.3,21.6-16.6,4-3.2,6.1-4.7,2.1-1.7,35.5-27.7,4.9-3.9,31.3-24.7,39.2-31.4,5.8-4.7,5.9-4.7,48-39.4,6.1-5.1,12.4-10.2,28-23.6,12.5-10.6,24.9-21.4,12.5-10.8,12.4-10.8,12.4-10.9,12.3-10.9,27.2-24.4,17.7-16.2,11.6-10.8,11.4-10.8,16.7-16.1,10.8-10.6,15.7-15.7,5.1-5.2,5-5.2,5-5.1,4.9-5.1,9.5-10.1,4.6-5,8.9-9.9,4.3-4.9,4.4-4.9,11.3-13,3.8-4.6,3.8-4.7,3.7-4.5,7-8.9,1.7-2.3,3.3-4.3,4.6-6.4,3-4.4,1.4-2,1.1-1.6c.2-.2.3-.4.5-.6l5.6-6.4,13.6-16.1,7.5-9.1,7.4-9.1,7.2-9.1,7.2-9.1,15.6-20.4,10-13.5,9.7-13.5,18.5-26.8,8.8-13.2,2.8-4.4,5.7-8.7,8.2-12.9,2.6-4.3,5.3-8.5,5.1-8.4,5.1-8.3,4.9-8.2,2.5-4.1,13.8-23.8,12.6-22.8,18.5-35.3,14.1-28.3,12.7-26.9,6.1-13.8,1.8-4.2,4.1-9.4,7-17.1.7-1.9,1.2-3.1v-.4l.5-1.2.3-1,.5-1.2.5-1.7,1.1-3.1,1-3.2,1.1-3.3,1.9-6.5.5-1.7,1.4-4.5,3.7-12.9,2.9-11.7,2-8.3,3.9-17.9,1-4.6,2.6-14.5,1.6-9.8,1.4-9.9,1.2-10.2.5-5,.8-10.1.3-5,.2-5,.2-10v-4.9l-.1-4.8-.3-6.1-.8-9.5-.9-6.9-1.1-6.7-1.9-8.7-1.7-6.2-1.3-3.9-2.3-5.8-2.5-5.5-1.8-3.5-3.6-5.9-.7-1.1-3.2-4.4-1.7-2.2-1.7-2.1-1.8-2.1-1.9-2.1-1.9-2-2-2-2.1-2-2.1-1.9-2.2-1.9-2.2-1.9-2.4-1.8-2.4-1.7-2.6-1.7-2.7-1.7-2.7-1.7-3.5-2.1-5.9-3-10.1-4.6-7.2-2.7-9.8-3.4-6.2-1.7-10.1-2.6-6.9-1.4-4.6-.9-9.2-1.6-4.6-.7-4.4-.6-8.9-1-9.4-.9-15.6-.8h-35.1c-4.5.3-7.5-.8-8.9-3.4a5.79,5.79,0,0,1,.7-6.5c2.7-3.5,9.2-5.3,12.7-5.8l14.4-2,1.7-.2,10.1-1.5,14.6-1.8,20.7-2.3,18.1-1.8,18.5-1.5,12.4-.8,22.3-.8h3.3l3.1.6h5.1l3.6.1h2.3l4.3.1,8.5.4,12.2.9,7.9.8,7.7,1,7.4,1.2,10.7,2.1,6.9,1.6,6.7,1.8,6.4,2,9.2,3.3,5.8,2.4,5.6,2.7,5.5,2.9,5.1,3.1,2.4,1.6,4.8,3.3,4.5,3.5,2.2,1.8,2.1,1.9,2.1,2,2,2.1,3.7,4.1,3.5,4.3,1.7,2.3,3.1,4.5,1.5,2.4,2.7,4.8,2.5,5,1.2,2.7,2,5.3.9,2.8,1.6,5.6.7,3,1.2,5.9.5,3,.8,5.6,1.2,11.1.6,8.4.3,8.6v11.5l-.1,4.3-.2,6-.4,5.8-.5,6-.6,6-.7,6-1.6,12.1-.9,6.1-1,6.1-1.1,6.1-1.2,6.2-2.6,12.3-1.4,6.2-1.5,6.2-3.2,12.3-1.7,6.2-3.6,12.3-3.8,12.1-4,12.1-4.2,12-4.4,12-9.1,23-4.8,11.4-4.8,11.1-7.4,16.2-7.4,15.6-7.4,14.9-5,9.6-5,9.2-7.2,13-4.8,8.2-2.4,4.1-1.2,1.9-7.6,12.6-10.2,16.7L1612,692.9l-5.2,8.2-10.4,16.1-5.2,8L1580.5,741l-10.6,15.6-5.3,7.7L1554,779.5l-5.3,7.5-10.6,14.8-10.6,14.6-5.3,7.2-10.6,14.2-5.3,7-10.6,13.8-10.6,13.6-5.3,6.7-10.6,13.2-5.3,6.5-10.6,12.8-15.7,18.7-5.2,6.1-10.4,12-15.5,17.5-10.3,11.4L1381,993.7l-5,5.4-5,5.3-4.9,5.3-4.9,5.2-4.9,5.1-4.8,5.1-4.8,5-4.9,5-4.7,4.9-4.8,4.9-4.8,4.8-4.6,4.7-4.7,4.7-4.7,4.6-4.5,4.5-13.4,13.1-17.3,16.6-4.3,4-4.1,3.9-16.2,15-15.4,13.8-3.8,3.3-7.1,6.4-3.6,3.1-3.4,3-6.9,5.9-3.2,2.8-6.5,5.5-3,2.6-14.6,12.1-2.7,2.2-2.6,2.2-14.7,11.9-1,.7-4.1,3.3-.9.6-3.3,2.6-1,.8-13.9,10.3-.6.6-.4.2-1.1,1.1h-.5l-6.2,4.6-15.3,11.1-30.7,22.2-15.3,11-34.5,24.4-44.9,31.4L958.4,1344l-3.6,2.4-33.6,23-6.5,4.3-6.3,4.3-3.1,2.1-23.9,16.1-2.8,1.9L862.4,1409l-5.1,3.4-5,3.4-2.5,1.6-11.4,7.6-2.1,1.3-4,2.7-2.1,1.4-3.9,2.5-2,1.3-1.8,1.1-6.9,4.6-1.5.9-7.1,4.7-2.2,1.4-1.3.9-3.7,2.4-1,.7-4.5,2.9-1.1,1.1H792c-.4.2-.7.3-1.2.5-.1,0-.2.1-.3.1a5.23,5.23,0,0,1-1.6.6c-.4.1-.7.3-1.2.4a.76.76,0,0,0-.4.1.76.76,0,0,1-.4.1,8.33,8.33,0,0,1-1.5.4c-.4.1-.6.1-1,.2l-.6.1c-.2,0-.3.1-.4.1-.4.1-.8.2-1.4.3Zm-5.2-12.3Zm44-21.2-.4.3.3-.2,3.9-2.5,2-1.4,4.2-2.8,2.1-1.3,2.2-1.5,11.7-7.7,4.9-3.3,13.1-8.7,8.2-5.6,2.9-1.9,2.8-1.9,24.2-16.3,6.2-4.3,6.5-4.3,6.4-4.5,36-24.5,7.1-4.9,21.7-15,29.8-20.7,38.1-26.8,11.5-8.1,15.3-11,30.6-22.2,15.2-11.1,22.5-16.7.9-.8,3.7-2.9.9-.6,4-3.2,1-.7,2.6-2.1,2.3-1.8,29.2-24.1,3-2.6,6.4-5.4,3.2-2.8,6.8-5.8,3.4-3,3.6-3.1,7.1-6.3,3.8-3.3,15.3-13.7,16.1-14.9,4.1-3.9,4.3-4,17.2-16.5,13.3-13,4.5-4.5,4.7-4.6,4.6-4.6,4.6-4.7,4.8-4.8,4.7-4.8,4.7-4.9,4.9-5,4.8-5,4.8-5.1,4.9-5.1,4.9-5.2,4.9-5.3,5-5.3,5-5.4,15.1-16.6,10.2-11.4,15.4-17.5,10.4-12,5.2-6.1,15.7-18.6,10.6-12.7,5.3-6.5,10.6-13.1,5.3-6.7,10.6-13.5,10.6-13.7,5.3-7,10.6-14.1,5.3-7.1,10.6-14.5,10.6-14.7,5.3-7.4,10.6-15.1,5.3-7.6,10.6-15.5,10.6-15.7,5.2-7.9,10.4-16.1,5.2-8.1,10.4-16.5,10.2-16.6,11.2-18.4,4.7-8.1,7.1-12.9,4.9-9.1,4.9-9.5,7.3-14.8,7.3-15.5,7.3-16,7-16.5,2.3-5.7,9-22.9L1702,494l4.1-11.8,3.9-11.9,3.7-11.9,3.5-12.1,1.7-6,3.1-12.1,1.5-6,1.4-6,2.5-12.1,1.2-6,1.1-5.9,1-5.9.9-5.9,1.6-11.9.7-5.8.6-5.8.5-5.8.4-5.6.3-9.9V324.4l-.3-8.3-.6-8.1-1.2-10.7-.8-5.4-.5-2.7-1.1-5.5-.6-2.6-1.5-5.2-.8-2.5-1.9-4.9-1-2.3-2.3-4.6-2.4-4.4-1.3-2.1-2.8-4.2-1.5-2-3.2-3.9-3.4-3.7-1.7-1.7-1.9-1.8-1.9-1.7-1.9-1.6-4.1-3.2-4.4-3.1-2.2-1.5-4.7-2.8-5-2.6-5.2-2.5-5.4-2.3-8.7-3.2-6-1.9-6.3-1.7-6.5-1.5-10.3-2-7.1-1.2-7.4-1-7.6-.8-11.9-.9-8.2-.4-10.1-.2h-5.8l-3.1-.6h-2.3l-21.9.8-12.1.8-18.3,1.5-17.9,1.8-31.3,3.5,15.7.8,9.6.9,9.1,1,4.5.6,4.8.7,9.4,1.6,4.8.9,8.4,1.8,13.6,3.6,2.3.7,10.1,3.5,7.8,2.9,10.5,4.8,6.5,3.3,6.6,4,2.8,1.8,2.9,1.9,2.6,1.9,2.7,2.1,2.4,2,2.3,2,2.3,2,2.2,2.1,2.1,2.2,2,2.1,2,2.3,2,2.3,1.8,2.2,1.9,2.4,3.5,4.7,1.5,2.2,3.4,5.6,2.1,3.9,2.8,6.1,2.5,6.4,1.5,4.4,1.8,6.7,2,9.2,1.2,7.2.9,7.3.8,9.9.3,6.3.1,5v5.1l-.2,10.2-.2,5.2-.3,5.2-.8,10.3-.5,5.2-1.2,10.4-1.4,10-1.6,10-2.7,14.8-3,13.9-3,13.1-3,12.2-1,4-4.8,16.3-.5,1.4-2,6.9-3.1,9.8-.7,1.9-.6,1.8-.3.7-.2.9v.4l-.5,1.2-.2.6-6.8,17.3-7.1,16.4-.9,2.3-6.2,14-12.8,27.1-14.2,28.5-10.8,20.7-1.9,3.7-12.1,22.3-13.3,23.5-7.1,12.1-17.6,29.1-5.4,8.5-2.6,4.3-8.3,13-5.7,8.7-2.8,4.4-8.9,13.3-18.6,26.9-9.8,13.6-10.1,13.6-10.4,13.6-5.3,6.9-7.2,9.2-7.3,9.2-7.5,9.2-7.6,9.2-13.7,16.2-6,6.8-.6.9-1.4,2-3,4.4-4.8,6.6-3.3,4.3-1.7,2.3-7.2,9.1-3.7,4.5-3.8,4.8-3.9,4.7-3.1,3.6-8.4,9.6-4.4,4.9-4.3,4.9-9,10-4.7,5.1-9.6,10.2-4.9,5.1-5,5.1-5,5.2-5.1,5.2-15.8,15.8-10.8,10.6-16.7,16.2-11.4,10.8-11.6,10.8-17.7,16.2-15.1,13.6-12.2,10.9-12.3,10.9-12.4,10.9-12.4,10.8-12.5,10.8-25,21.4-12.5,10.6-28,23.6-12.4,10.3-6.1,5.1-48.1,39.5-5.9,4.7-5.8,4.7-5.8,4.7-5.7,4.6-5.7,4.6-22,17.7-5.4,4.3L887,1373.7l-2.5,1.9-41.6,32.6-3.9,2.9-3.8,3-1.8,1.3Z"/></g><path class="cls-1" d="M1580.6,480.7c-.8-1.9-5.1-11.4-6.7-15.5l-.1-.1c-11.1-29.5-46.1-80.6-89.1-130-49.1-56.4-101.4-102.4-143.4-126.2L1361,174c102.5,58,224.7,209,250.2,276.8.9,2.3,3.9,9.2,5.8,13.3Z"/></g></g></svg>