<?xml version="1.0" encoding="utf-8"?>
<!-- Generator: Adobe Illustrator 24.3.0, SVG Export Plug-In . SVG Version: 6.00 Build 0)  -->
<svg version="1.1"
	 id="svg205" inkscape:export-filename="Z:\Documents\Mozilla\Logo\Png\Colorato\mozita logo scuro.png" inkscape:export-xdpi="10.230179" inkscape:export-ydpi="10.230179" inkscape:version="0.92.4 (5da689c313, 2019-01-14)" sodipodi:docname="mozita logo tricolore-azzurro.svg" xmlns:cc="http://creativecommons.org/ns#" xmlns:dc="http://purl.org/dc/elements/1.1/" xmlns:inkscape="http://www.inkscape.org/namespaces/inkscape" xmlns:rdf="http://www.w3.org/1999/02/22-rdf-syntax-ns#" xmlns:sodipodi="http://sodipodi.sourceforge.net/DTD/sodipodi-0.dtd" xmlns:svg="http://www.w3.org/2000/svg"
	 xmlns="http://www.w3.org/2000/svg" xmlns:xlink="http://www.w3.org/1999/xlink" x="0px" y="0px" viewBox="0 0 4879.5 1721.9"
	 style="enable-background:new 0 0 4879.5 1721.9;" xml:space="preserve">
<style type="text/css">
	.st0{enable-background:new    ;}
	.st1{fill:#FFFFFF;}
	.st2{fill:#007CFF;}
	.st3{fill:#FF2300;}
	.st4{fill:#00BB00;stroke:#00BB00;stroke-miterlimit:10;}
	.st5{fill:#00BB00;}
</style>
<g class="st0">
	<path class="st1" d="M1950,1721.9V884.2h154.2v837.7H1950z"/>
	<path class="st1" d="M2085.6,1721.9V884.2h276.5v837.7H2085.6z M2121.9,1564H2325v-84.5h-51.9v-312.8h51.9v-84.5h-203.1v84.5h51.9
		v312.8h-51.9V1564z"/>
	<path class="st1" d="M2347.3,1721.9V884.2h309.9v837.7H2347.3z M2649.8,1460.2l-69.7-21.5c-3,24.7-9,39.7-18.2,44.9
		c-9.2,5.2-16.7,7.8-22.6,7.8c-24.7,0-37.1-14.6-37.1-43.7V1298h120.1v-68.2h-120.1v-101.6h-95.6v101.6h-47.4v68.2h47.4v166.1
		c0,34.6,11,61.2,33,79.7s51.5,27.8,88.6,27.8C2599.8,1571.4,2640.4,1534.3,2649.8,1460.2z"/>
	<path class="st1" d="M2642.4,1721.9V884.2H3033v837.7H2642.4z M2700.2,1253.3l-14.8,86.7l76.4,8.2l12.6-47.4
		c7.9-4,15.9-6.5,24.1-7.8c8.2-1.2,17.2-1.9,27.1-1.9c27.2,0,43.1,8.2,47.8,24.5s7,33.1,7,50.4v11.1c-15.3-2-33.6-3-54.9-3
		c-38.1,0-73.5,6.7-106.4,20s-49.3,40.5-49.3,81.5c0,35.1,11.1,59.8,33.4,74.1c22.2,14.3,45.5,21.5,69.7,21.5
		c27.2,0,49.5-6.9,67.1-20.8c17.5-13.8,31-29.2,40.4-46v0.7c4.9,44,29.4,66,73.4,66c20.8,0,40.8-5.2,60-15.6l-0.7-50.4
		c-4.9,1.5-9.6,2.2-14.1,2.2c-15.3,0-23-8.6-23-25.9v-145.3c0-38.1-13.1-66.5-39.3-85.3s-57.3-28.2-93.4-28.2
		c-27.2,0-50.5,2.1-70.1,6.3C2753.7,1233.5,2729.3,1241.5,2700.2,1253.3z M2880.3,1427.6c-2.5,26.2-11,45.3-25.6,57.5
		c-14.6,12.1-30.3,18.2-47.1,18.2c-14.3,0-24.5-3.7-30.4-11.1s-8.9-16.6-8.9-27.4c0-18.3,6.4-30.5,19.3-36.7
		c12.8-6.2,27.7-9.3,44.5-9.3c7.9,0,15.9,0.5,24.1,1.5c8.2,1,16.2,2,24.1,3L2880.3,1427.6L2880.3,1427.6z"/>
	<path class="st1" d="M3017.5,1721.9V884.2h225.4v837.7H3017.5z M3038.2,1564h184.6v-71.9h-44.5V1054h-143.8v72.7h48.2v365.5h-44.5
		V1564z"/>
	<path class="st1" d="M3226.5,1721.9V884.2H3463v837.7H3226.5z M3257.7,1564h184.6v-71.9h-44.5v-262.4H3254v72.7h48.2v189.8h-44.5
		V1564z M3298.4,1071v99.3h95.6V1071H3298.4z"/>
	<path class="st1" d="M3448.2,1721.9V884.2h390.7v837.7H3448.2z M3506,1253.3l-14.8,86.7l76.4,8.2l12.6-47.4
		c7.9-4,15.9-6.5,24.1-7.8c8.2-1.2,17.2-1.9,27.1-1.9c27.2,0,43.1,8.2,47.8,24.5s7,33.1,7,50.4v11.1c-15.3-2-33.6-3-54.9-3
		c-38.1,0-73.5,6.7-106.4,20s-49.3,40.5-49.3,81.5c0,35.1,11.1,59.8,33.4,74.1c22.2,14.3,45.5,21.5,69.7,21.5
		c27.2,0,49.5-6.9,67.1-20.8c17.5-13.8,31-29.2,40.4-46v0.7c4.9,44,29.4,66,73.4,66c20.8,0,40.8-5.2,60-15.6l-0.7-50.4
		c-4.9,1.5-9.6,2.2-14.1,2.2c-15.3,0-23-8.6-23-25.9v-145.3c0-38.1-13.1-66.5-39.3-85.3s-57.3-28.2-93.4-28.2
		c-27.2,0-50.5,2.1-70.1,6.3C3559.5,1233.5,3535.2,1241.5,3506,1253.3z M3686.1,1427.6c-2.5,26.2-11,45.3-25.6,57.5
		c-14.6,12.1-30.3,18.2-47.1,18.2c-14.3,0-24.5-3.7-30.4-11.1s-8.9-16.6-8.9-27.4c0-18.3,6.4-30.5,19.3-36.7
		c12.8-6.2,27.7-9.3,44.5-9.3c7.9,0,15.9,0.5,24.1,1.5c8.2,1,16.2,2,24.1,3L3686.1,1427.6L3686.1,1427.6z"/>
	<path class="st1" d="M3819.6,1721.9V884.2h154.2v837.7H3819.6z"/>
</g>
<g id="g8" transform="matrix(1.4647787,0,0,1.4647787,-100.08243,-546.11372)" inkscape:export-filename="Z:\Documents\Mozilla\Logo\Png\Tricolore\mozita logo tricolore-azzurro.png" inkscape:export-xdpi="59.022247" inkscape:export-ydpi="59.022247">
	<path id="path2-2" inkscape:connector-curvature="0" class="st1" d="M2145.8,626.9c-36.6,0-59.4,27.2-59.4,74.3
		c0,43.3,20,76.6,58.8,76.6c37.2,0,61.6-30,61.6-77.7C2206.8,649.6,2179.6,626.9,2145.8,626.9L2145.8,626.9z"/>
	<path id="path4" inkscape:connector-curvature="0" class="st1" d="M3126.8,752.8c0,16.1,7.8,28.9,29.4,28.9
		c25.5,0,52.7-18.3,54.4-59.9c-11.6-1.7-24.4-3.3-36.1-3.3C3149,718.4,3126.8,725.6,3126.8,752.8L3126.8,752.8z"/>
	<path id="path6-4" inkscape:connector-curvature="0" class="st1" d="M1399.6,372.8v571.9h2000V372.8H1399.6z M1981.5,827.2h-104.9
		V686.3c0-43.3-14.4-59.9-42.7-59.9c-34.4,0-48.3,24.4-48.3,59.4v87h33.3v54.4h-104.8V686.3c0-43.3-14.4-59.9-42.7-59.9
		c-34.4,0-48.3,24.4-48.3,59.4v87h47.7v54.4h-152.5v-54.4h33.3V631.3h-33.3v-54.4h104.8v37.7c15-26.6,41.1-42.7,76-42.7
		c36.1,0,69.3,17.2,81.6,53.8c13.9-33.3,42.2-53.8,81.6-53.8c44.9,0,86,27.2,86,86.5v114.4h33.3L1981.5,827.2L1981.5,827.2z
		 M2143,832.7c-77.1,0-130.4-47.1-130.4-127c0-73.2,44.4-133.7,134.3-133.7s133.7,60.4,133.7,130.3
		C2280.6,782.2,2222.9,832.7,2143,832.7z M2546.5,827.2h-218.6l-7.2-37.7l137.6-158.1h-78.2l-11.1,38.8l-51.6-5.6l8.9-87.7H2546
		l5.6,37.7l-138.8,158.2h81l11.7-38.8l56.6,5.5L2546.5,827.2z M2689.3,827.2h-74.9v-89.9h74.9V827.2z M2689.3,666.8h-74.9v-89.9
		h74.9V666.8z M2736.1,827.2l108.2-381.7h70.5l-108.2,381.7H2736.1z M2881.5,827.2l108.1-381.7h70.5l-108.2,381.7H2881.5z
		 M3265.5,832.7c-33.3,0-51.6-19.4-54.9-49.9c-14.4,25.5-39.9,49.9-80.4,49.9c-36.1,0-77.1-19.4-77.1-71.6c0-61.6,59.4-76,116.5-76
		c13.9,0,28.3,0.6,41.1,2.2V679c0-25.5-0.6-56-41.1-56c-15,0-26.6,1.1-38.3,7.2l-8.1,28.2l-57.1-6.1l9.8-57.6
		c43.8-17.8,66-22.7,107.1-22.7c53.8,0,99.3,27.7,99.3,84.9v108.7c0,14.4,5.6,19.4,17.2,19.4c3.3,0,6.7-0.6,10.5-1.7l0.6,37.7
		C3297.1,828.3,3281,832.7,3265.5,832.7L3265.5,832.7z"/>
</g>
<g>
	
		<g id="Sfondo_2_" transform="translate(-25,-92)" inkscape:export-filename="Z:\Documents\Mozilla\Icon\Png\Tricolour\tricolour 33x30.png" inkscape:export-xdpi="1.6044568" inkscape:export-ydpi="1.6044568">
		<g>
			<path id="Sfondo2_1_" inkscape:connector-curvature="0" class="st1" d="M890,1812.9c-474.9,0-860-385.1-860-860
				s385.1-860,860-860s860,385.1,860,860S1364.9,1812.9,890,1812.9z"/>
			<path class="st1" d="M890,1817.9c-116.8,0-230-22.9-336.7-68c-103-43.6-195.5-105.9-275-185.4c-79.4-79.4-141.8-171.9-185.4-275
				C47.9,1183,25,1069.7,25,953s22.9-230,68-336.7c43.6-103,105.9-195.5,185.4-275s171.9-141.8,275-185.4C660,110.8,773.2,88,890,88
				s230,22.9,336.7,68c103,43.6,195.5,105.9,275,185.4s141.8,171.9,185.4,275c45.1,106.6,68,219.9,68,336.7s-22.9,230-68,336.7
				c-43.6,103-105.9,195.5-185.4,275c-79.4,79.4-171.9,141.8-275,185.4C1120,1795.1,1006.8,1817.9,890,1817.9z M890,98
				C418.6,98,35,481.5,35,953c0,471.4,383.6,855,855,855s855-383.6,855-855C1745,481.5,1361.4,98,890,98z"/>
		</g>
		<path id="Sfondo1_2_" inkscape:connector-curvature="0" class="st2" d="M890,1764.6c-448.3,0-811.7-363.4-811.7-811.7
			S441.7,141.3,890,141.3s811.7,363.4,811.7,811.7S1338.3,1764.6,890,1764.6z"/>
	</g>
	
		<g id="Dinosauro_1_" transform="translate(-25,-92)" inkscape:export-filename="Z:\Documents\Mozilla\Icon\Png\Tricolour\tricolour 33x30.png" inkscape:export-xdpi="1.6044568" inkscape:export-ydpi="1.6044568">
		<g id="g133_1_">
			<path id="path129_1_" inkscape:connector-curvature="0" class="st1" d="M770.6,697.7c3-0.2,6.1,0.2,9,0.9
				c6.5,3.5,2.1,11.3,0.5,17.1c-34.5,103.9-54.3,188.8-114.8,195.8c-84,16.4-139-52.5-103.5-77.1c56.9-34.2,56.9-34.2,88.8-55.9
				C676,758.2,699,735,726,716.8C739.5,707.6,754.2,699.2,770.6,697.7z"/>
			<path id="path131_1_" inkscape:connector-curvature="0" class="st1" d="M665.3,911.5c-84,16.4-139-52.5-103.5-77.1
				c56.9-34.2,56.9-34.2,88.8-55.9c29.4-22.6,92.5-89.3,129-79.9c6.5,3.5,2.1,11.3,0.5,17.1C745.6,819.5,725.9,904.4,665.3,911.5"/>
		</g>
		<g id="g139_1_">
			<path id="path135_1_" inkscape:connector-curvature="0" class="st1" d="M549.5,1297.7l11.1,9.2"/>
			<path id="path137_1_" inkscape:connector-curvature="0" class="st1" d="M549.5,1297.7l11.1,9.2"/>
		</g>
		<path id="path141_1_" inkscape:connector-curvature="0" class="st1" d="M514,1390.5L514,1390.5"/>
		<g id="g147_1_">
			<path id="path143_1_" inkscape:connector-curvature="0" class="st1" d="M519.1,1390.5c-4.7-1.4-5.1-1.8-5.1-5
				c0-36.5,11.4-59.6,35.6-87.8c8.1,28.7,36.5,47.1,59.2,65.2c1.8,1.4-46.9,23.3-86,27.6"/>
			<path id="path145_1_" inkscape:connector-curvature="0" class="st1" d="M519.1,1390.5c-4.7-1.4-5.1-1.8-5.1-5
				c0-36.5,11.4-59.6,35.6-87.8c8.1,28.7,36.5,47.1,59.2,65.2c1.8,1.4-46.9,23.3-86,27.6"/>
		</g>
		<g id="g153_1_">
			<path id="path149_1_" inkscape:connector-curvature="0" class="st1" d="M935.3,160.4c15.9,0.7,25.8,9.5,31.8,23.5
				c18.7,45.2,20.8,55.3,29.5,69.8c23.6,39.3,43.3,65.2,37,63.7c-66.8-15.4-121-29.7-198.6-17.5c-28.1,4.4-52,15.7-77.6,27.7
				c22.5-50,59.1-94.3,101-129.2C880.3,180.1,906,161.7,935.3,160.4z"/>
			<path id="path151_1_" inkscape:connector-curvature="0" class="st1" d="M757.3,327.6c33.7-82.7,177-223.1,209.8-143.7
				c18.7,45.2,20.8,55.3,29.5,69.8c23.6,39.3,43.3,65.2,37,63.7c-66.8-15.4-121-29.7-198.6-17.5C806.9,304.3,783,315.6,757.3,327.6"
				/>
		</g>
		<g id="g159_1_">
			<path id="path155_1_" inkscape:connector-curvature="0" class="st1" d="M1321.9,512.4c12.5,0,70.9,1.6,53.7,28.2
				c-15.2,22.1-18.2,48.7-29.4,63.8c-16.1-26.7-16.1-26.7-59.8-88.3C1298,513.3,1310,512.7,1321.9,512.4z"/>
			<path id="path157_1_" inkscape:connector-curvature="0" class="st1" d="M1346.1,604.4c-16.1-26.7-16.1-26.7-59.8-88.3
				c34.2-8.4,108.8-4.2,89.1,24.4C1360.3,562.8,1357.3,589.3,1346.1,604.4"/>
		</g>
		<g id="g165_1_">
			<path id="path161_1_" inkscape:connector-curvature="0" class="st1" d="M910.4,370.6c41.4,0,82.8,6,121.6,20.6
				c202.5,78.4,302.2,303.5,394.3,482.8c50.7,109.5,50.7,109.5,70.7,156.6c-0.5,0-1,0-1,0.5c-69.8-146-145.2-290.1-236.8-424.1
				c-48.8-62.3-99.6-125.1-172.2-161c-118.4-58.5-227.3-60.3-349.9,5.8c-71.6,38.7-139.6,108.4-181.5,179.5
				c-49,83.1-88.9,136.9-121,242.9c-23.4,77.2-35,111.3-41.7,149.5c-28.6,163.4-25.8,224.2-10.8,316c9,55,36.7,99.1,72.5,124.3
				c16.4,11.5,52.2,21.5,59.3,22.7c63.6,10.7,95.8,2.8,157.6-14.3c172.7-64.7,303.1-195.4,359.6-367.3
				c26.1-114.1,31.7-248.6-38.4-348.8c0-0.5,0-0.5,0.5-0.5c18.1,5.5,32.4,21,41.3,37c27.6,49.7,36.1,131.4,36.1,188.6
				c0,144.6-16.1,170.3-50.3,256.2c-30.4,55.4-57.4,97.8-107.2,150.2c-25.3,26.5-86.8,69.3-87.3,69.8
				c-97.3,63.3-222.5,120.1-340.7,93.3c-25.3-5.7-49.5-17.9-66.4-33.7c-153.2-142.6-86.3-419.3-37.3-594
				c15-53.7,35.9-101.5,51.7-137.3c63.4-143,132.7-262.4,287.8-363.2c44.3-28.5,95.9-44.1,148.1-49.6
				C887.2,370.9,892.2,371.2,910.4,370.6L910.4,370.6z"/>
			<path id="path163_1_" inkscape:connector-curvature="0" class="st1" d="M1497,1030.7c-0.5,0-1,0-1,0.5
				c-69.8-146-145.2-290.1-236.8-424.1c-48.8-62.3-99.6-125.1-172.2-161c-118.4-58.5-227.3-60.3-349.9,5.8
				c-71.6,38.6-139.6,108.3-181.5,179.4c-49,83.1-88.9,136.9-121,242.9c-23.4,77.2-35,111.3-41.7,149.5
				c-28.6,163.4-25.8,224.2-10.8,316c9,55,36.7,99.1,72.5,124.3c16.4,11.5,52.2,21.5,59.3,22.7c63.6,10.7,95.8,2.8,157.6-14.3
				c172.7-64.7,303.1-195.4,359.6-367.3c26.1-114.1,31.7-248.6-38.4-348.8c0-0.5,0-0.5,0.5-0.5c18.1,5.5,32.4,21,41.3,37
				c27.6,49.7,36.1,131.4,36.1,188.6c0,144.6-16.1,170.3-50.3,256.2c-30.4,55.4-57.4,97.8-107.2,150.2
				c-25.3,26.5-86.8,69.3-87.3,69.8c-97.3,63.3-222.5,120.1-340.7,93.3c-25.3-5.7-49.5-17.9-66.4-33.7
				c-153.2-142.6-86.3-419.3-37.3-594c15-53.7,35.9-101.5,51.7-137.3c63.4-143,132.7-262.4,287.8-363.2
				c93.1-60.3,226.1-64.2,311.2-31.2c202.5,78.4,302.2,303.5,394.3,482.8C1477.1,983.6,1477.1,983.6,1497,1030.7"/>
		</g>
		<g id="g171_1_">
			<path id="path167_1_" inkscape:connector-curvature="0" class="st1" d="M1237,323.6c14.3,0.1,8.2-0.2,18.5,0.4
				c6.3,1.5,22.5,2.6,25.9,14c1.4,4.5,3.9,5.2-16.9,55.6c-6.5,15.7-12.8,37.7-20.6,70.4c-4.1-1.4-43.6-43-67.2-60.7
				c-12.2-9.8-57.4-41.5-68.1-47.4c-4.2-2.4,82.3-26.3,82.3-26.3c11.4-2.7,23-4.4,34.7-5.3C1229.4,323.9,1233.2,323.8,1237,323.6
				L1237,323.6z"/>
			<path id="path169_1_" inkscape:connector-curvature="0" class="st1" d="M1108.6,355.9c-4.2-2.4,82.3-26.3,82.3-26.3
				s30.9-8,64.7-5.5c6.3,1.5,22.5,2.6,25.9,14c1.4,4.5,3.9,5.2-16.9,55.6c-6.5,15.7-12.8,37.7-20.6,70.4c-4.1-1.4-43.6-43-67.2-60.7
				C1164.5,393.4,1119.3,361.8,1108.6,355.9L1108.6,355.9z"/>
		</g>
		<g id="g177_1_">
			<path id="path173_1_" inkscape:connector-curvature="0" class="st1" d="M1080.8,817.6c12.8,0.2,25.5,2.1,38,4.1
				c41.3,3.9,44.6,13.4,40.5,15.7c-19.3,11.1-17.6,8.8-37.3,25.8c-14.5,12.6-36,41.8-36.3,36.5s-3.7-29.6-6.3-44.3
				c-2.7-14.7-8.3-31.5-9.1-34.7C1069.9,817.3,1079,817.7,1080.8,817.6z"/>
			<path id="path175_1_" inkscape:connector-curvature="0" class="st1" d="M1070.4,820.8c1,3.2,6.6,20,9.1,34.7
				c2.7,14.7,6,39.1,6.3,44.3s21.8-24,36.3-36.5c19.7-17,18-14.7,37.3-25.8c4.1-2.4,0.8-11.8-40.5-15.7
				C1097.2,818.1,1068.7,815.2,1070.4,820.8z"/>
		</g>
	</g>
	<g id="Anelli_1_" transform="translate(-25,-92)" inkscape:export-xdpi="9.0919218" inkscape:export-ydpi="9.0919218">
		<g>
			<path id="Rosso_2_" inkscape:connector-curvature="0" class="st3" d="M1777.2,551.3h5.5l2.7,0.1h2.3l4.5,0.1l4.5,0.1l4.4,0.2
				l4.4,0.2l4.3,0.3l4.2,0.3l4.2,0.3l4.1,0.4l4,0.4l4,0.5l3.9,0.5l3.9,0.5l3.8,0.6l3.7,0.6l3.7,0.7l3.6,0.7l3.5,0.7l3.5,0.8l3.4,0.8
				l3.3,0.9l3.3,0.9l3.2,0.9l3.1,1l3.1,1l3,1.1l3,1.1l2.9,1.1l2.9,1.2l2.9,1.2l2.8,1.3l2.7,1.3l2.7,1.3l2.6,1.4l2.5,1.4l2.5,1.5
				l2.4,1.5l2.3,1.5l2.3,1.6l2.2,1.6l2.1,1.7l2.1,1.7l2,1.7l1.9,1.8l1.9,1.8l1.8,1.9l1.7,1.9l1.7,1.9l1.6,2l1.5,2l1.5,2.1l1.4,2.1
				l1.3,2.2l1.2,2.2l1.2,2.2l1.1,2.3l1,2.3l1,2.4l0.9,2.4l0.8,2.4l0.8,2.5l0.7,2.5l0.6,2.6l0.6,2.6l0.3,1.3l0,0l0.2,1.2l0.4,2.4
				l0.4,2.4l0.3,2.4l0.3,2.4l0.3,2.5l0.2,2.5l0.2,2.5l0.2,2.5l0.1,2.5l0.1,2.5l0.1,2.5v2.5v2.6v2.6v2.6l-0.1,2.6l-0.1,2.6l-0.2,3.8
				l-0.4,5.1l-0.5,5.2l-0.6,5.2l-0.7,5.2l-0.8,5.2l-0.9,5.3l-1,5.3l-1.1,5.3l-1.2,5.3l-1.3,5.3l-1.4,5.3l-1.5,5.3l-1.5,5.4l-1.6,5.4
				l-1.7,5.4l-1.8,5.4l-1.8,5.3l-1.9,5.3l-2,5.3l-2,5.3l-2.1,5.3l-2.1,5.3l-2.2,5.3l-2.2,5.2l-2.3,5.2l-2.3,5.2l-2.4,5.2l-2.4,5.1
				l-2.5,5.1l-2.5,5.1l-2.5,5l-2.6,5l-2.6,4.9l-2.6,4.9l-2.6,4.8l-2.7,4.8l-2.7,4.7l-2.7,4.7l-2.7,4.6l-2.7,4.5l-2.7,4.5l-2.7,4.4
				l-2.7,4.3l-2.7,4.3l-2.7,4.2l-2.7,4.1l-2.7,4l-2.7,4l-2.7,3.9l-2.6,3.8l-2.6,3.7l-2.6,3.6l-2.6,3.5l-2.5,3.4l-1.2,1.7l0,0
				l-2.8,3.7l-5.5,7.5l-5.5,7.4l-5.5,7.4l-5.6,7.3l-5.6,7.3l-5.6,7.2l-5.6,7.2l-5.6,7.1l-5.7,7l-5.7,7l-5.7,6.9l-5.7,6.9l-5.7,6.8
				l-5.7,6.8l-5.7,6.7l-5.7,6.7l-5.7,6.6l-5.7,6.6l-5.7,6.5l-5.7,6.4l-5.7,6.4l-5.7,6.3l-5.7,6.3l-5.7,6.2l-5.7,6.2l-5.7,6.1
				l-5.7,6.1l-5.7,6l-5.7,5.9l-5.7,5.9l-5.7,5.8l-5.7,5.8l-5.7,5.7l-5.7,5.7l-5.7,5.6l-5.7,5.5l-5.6,5.5l-5.6,5.4l-5.6,5.4l-5.6,5.3
				l-5.6,5.3l-5.6,5.2l-5.5,5.1l-5.5,5.1l-5.5,5l-5.5,5l-5.5,4.9l-5.4,4.9l-5.4,4.8l-5.4,4.7l-5.3,4.7l-5.3,4.6l-5.3,4.6l-5.3,4.5
				l-5.2,4.5l-5.2,4.4l-5.1,4.3l-5.1,4.3l-5.1,4.2l-5,4.2l-5,4.1l-5,4l-4.9,4l-4.9,3.9l-4.8,3.9l-4.8,3.8l-4.7,3.7l-4.7,3.7
				l-4.7,3.6l-4.6,3.6l-4.6,3.5l-4.5,3.5l-4.5,3.4l-4.4,3.3l-4.3,3.3l-4.3,3.2l-4.2,3.1l-4.2,3.1l-4.1,3l-4.1,3l-4,2.9l-3.9,2.9
				l-3.9,2.9l-3.8,2.8l-3.8,2.8l-3.7,2.7l-3.6,2.6l-3.6,2.6l-3.5,2.5l-3.4,2.5l-3.3,2.4l-3.3,2.3l-3.2,2.3l-3.1,2.2l-3.1,2.2l-3,2.1
				l-2.9,2l-2.9,2l-2.9,1.9l-2.8,1.8l-2.7,1.8l-2.6,1.7l-2.5,1.7l-2.4,1.6l-2.4,1.5l-2.3,1.5l-1.6,1.1l-1.1,0.7l-1,0.7l-1,0.7
				l-1,0.6l-1,0.6l-1,0.6l-0.9,0.6l-0.9,0.6l-0.9,0.6l-0.9,0.5l-0.8,0.5l-0.8,0.5l-0.8,0.5l-0.8,0.5l-0.8,0.5l-0.7,0.5l-0.7,0.4
				l-0.7,0.4l-0.7,0.4l-0.6,0.4l-0.6,0.4l-0.6,0.4l-0.6,0.3l-0.5,0.3l-0.5,0.3l-0.5,0.3l-0.5,0.3l-0.4,0.3l-0.4,0.2l-0.4,0.2
				l-0.4,0.2l-0.3,0.2l-0.3,0.2l-0.3,0.2l-0.2,0.1l-0.2,0.1l-0.2,0.1l-0.2,0.1l-0.1,0.1l-0.1,0.1h-0.1l0,0l0,0l-8.2,4.9l-16.4,9.8
				l-16.5,9.8l-16.5,9.7l-16.5,9.7l-12.4,7.2l-8.3,4.8l-8.3,4.7l-8.2,4.7l-8.2,4.7l-8.2,4.6l-8.1,4.6l-8.1,4.6l-8,4.5l-8,4.5
				l-7.9,4.4l-7.8,4.4l-7.8,4.3l-7.7,4.3l-7.6,4.2l-5.6,3.1l-3.7,2.1l-3.7,2.1l-3.6,2.1l-3.6,2.1l-3.6,2.1l-3.6,2l-3.5,2l-3.5,2
				l-3.5,2l-3.4,2l-3.4,1.9l-3.4,1.9l-3.4,1.9l-3.3,1.9l-3.3,1.9l-3.3,1.8l-3.2,1.8l-3.2,1.8l-3.1,1.8l-3.1,1.8l-3.1,1.7l-3,1.7
				l-3,1.7l-3,1.7l-2.9,1.7l-2.9,1.6l-2.9,1.6l-2.9,1.6l-2.9,1.6l-2.8,1.5l-2.8,1.5l-2.7,1.5l-2.7,1.5l-2.6,1.4l-2.6,1.4l-2.5,1.4
				l-2.5,1.4l-2.5,1.3l-2.4,1.3l-2.4,1.3l-2.3,1.2l-2.3,1.2l-2.2,1.2l-2.2,1.2l-2.1,1.1l-2,1.1l-2,1.1l-1.9,1l-1.9,1l-1.8,1l-1.8,1
				l-1.7,0.9l-1.7,0.9l-1.6,0.9l-1.5,0.8l-1.5,0.8l-1.4,0.8l-1.4,0.7l-1.3,0.7l-1.2,0.7l-1.2,0.6l-1.1,0.6l-1,0.6l-1,0.5l-0.9,0.5
				l-0.8,0.5l-0.8,0.4l-0.7,0.4l-0.6,0.3l-0.6,0.3l-0.5,0.3l-0.4,0.2l-0.4,0.2l-0.3,0.2l-0.2,0.1l-0.2,0.1h-0.1l0,0l-0.3,0.1
				c-0.3,0.2-0.2,0.1-0.4,0.2c-0.9,0.4-0.4,0.2-1.6,0.6c-1.1,0.4-0.6,0.3-1.4,0.5c-0.8,0.3-0.3,0.1-1.5,0.4s-0.7,0.2-1.5,0.3
				c-0.8,0.2-0.3,0.1-1.4,0.2c-1.2,0.2-0.7,0.1-1.6,0.1c-0.3,0-0.1,0-0.4,0h-0.3h-0.3h-0.3h-0.2c-0.3,0-0.2,0-0.3-0.1
				c-0.6-0.1-0.3,0-0.8-0.3c-0.5-0.2-0.4,0-0.5-0.3c-0.2-0.2-0.2,0-0.1-0.4c-0.1-0.4-0.1-0.2,0.1-0.5c0.1-0.4,0-0.1,0.5-0.6
				c0.4-0.5,0.2-0.3,0.7-0.7c0.2-0.1,0.1-0.1,0.3-0.2l0.2-0.1l0,0l0,0l0.1-0.1l0.1-0.1l0.2-0.1l0.2-0.1l0.3-0.2l0.3-0.2l0.4-0.2
				l0.4-0.2l0.4-0.3l0.5-0.3l0.5-0.3l0.6-0.4l0.6-0.4l0.7-0.4l0.7-0.4l0.7-0.5l0.8-0.5l0.8-0.5l0.9-0.5l0.9-0.6l0.9-0.6l1-0.6l1-0.6
				l1.1-0.7l1.1-0.7l1.1-0.7l1.2-0.7l1.2-0.8l1.2-0.8l1.3-0.8l1.3-0.8l1.4-0.8l1.4-0.9l1.4-0.9l1.5-0.9l1.5-0.9l1.5-1l1.6-1l1.6-1
				l1.6-1l1.7-1l1.7-1.1l1.7-1.1l1.8-1.1l1.8-1.1l1.8-1.2l1.9-1.2l1.9-1.2l1.9-1.2l2-1.2l2-1.3l2-1.3l2-1.3l2.1-1.3l2.1-1.3l2.1-1.3
				l2.2-1.4l2.2-1.4l2.2-1.4l2.2-1.4l2.3-1.4l2.3-1.5l2.3-1.5l2.3-1.5l2.4-1.5l2.4-1.5l2.4-1.5l2.5-1.6l2.5-1.6l2.5-1.6l2.5-1.6
				l2.5-1.6l2.6-1.6l2.6-1.7l2.6-1.7l2.6-1.7l3.9-2.6l5.3-3.4l5.4-3.4l5.5-3.5l5.6-3.6l5.6-3.6l5.7-3.7l5.8-3.7l5.8-3.8l5.9-3.8
				l6-3.9l6-3.9l6.1-4l6.1-4l6.2-4.1l6.2-4.1l6.3-4.1l6.3-4.2l6.4-4.2l6.4-4.3l6.5-4.3l6.5-4.3l6.5-4.4l6.6-4.4l6.6-4.4l6.6-4.5
				l6.6-4.5l6.7-4.5l6.7-4.5l10-6.9l13.4-9.2l13.5-9.3l13.5-9.4l13.5-9.4l13.4-9.5l13.4-9.5l13.3-9.6l13.2-9.6l13.1-9.6l9.7-7.2
				l6.4-4.8l6.4-4.8l6.4-4.8l6.3-4.8l6.3-4.8l6.2-4.7l6.2-4.7l6.1-4.7l6-4.7l6-4.7l5.9-4.7l5.9-4.7l5.8-4.6l5.7-4.6l5.6-4.6l5.6-4.6
				l5.5-4.6l5.4-4.5l5.3-4.5l5.2-4.5l5.2-4.4l5.1-4.4l5-4.4l4.9-4.3l4.8-4.3l4.7-4.3l4.6-4.2l4.5-4.2l3.3-3.1l2.2-2.1l2.2-2.1
				l2.1-2.1l2.1-2.1l2.1-2.1l2.1-2.1l2-2.1l2-2l2-2l1.9-2l1.9-2l1.9-2l1.8-2l1.8-2l1.8-2l1.8-1.9l1.7-1.9l1.7-1.9l1.7-1.9l1.6-1.9
				l1.6-1.9l0.8-0.9c0.1-0.1,0.2-0.2,0.3-0.3l2.2-2l4.2-4l4.2-4l4.2-4l4.1-4l4.1-4l4-4l4-4l6-6.1l5.9-6.1l3.9-4l3.8-4l3.8-4l3.8-4
				l3.7-4l3.7-4l3.6-4l3.6-4l3.6-4l3.5-4l3.5-4l3.5-4l3.4-3.9l3.4-3.9l3.4-3.9l3.3-3.9l3.3-3.9l3.2-3.9l3.2-3.9l3.2-3.9l3.1-3.9
				l3.1-3.8l3.1-3.8l3-3.8l3-3.8l3-3.8l2.9-3.8l2.9-3.8l2.9-3.7l2.9-3.7l2.9-3.7l2.8-3.7l2.8-3.7l2.8-3.6l2.7-3.6l2.7-3.6l2.7-3.6
				l2.6-3.6l2.6-3.5l2.6-3.5l2.5-3.5l2.5-3.5l2.5-3.4l2.4-3.4l2.4-3.4l2.4-3.4l2.3-3.3l2.3-3.3l2.3-3.3l2.2-3.2l2.2-3.2l2.2-3.2
				l2.1-3.1l2.1-3.1l2.1-3.1l2-3.1l2-3l1.9-3l1.9-2.9l1.9-2.9l1.8-2.9l1.8-2.9l1.8-2.9l1.7-2.9l1.7-2.8l1.7-2.8l1.6-2.8l1.6-2.7
				l1.6-2.7l1.5-2.6l1.5-2.6l1.5-2.5l1.4-2.5l1.4-2.5l1.4-2.4l1.3-2.4l1.3-2.3l1.3-2.3l1.2-2.2l1.2-2.2l1.2-2.1l1.1-2.1l1.1-2l1.1-2
				l1.1-2l1-1.9l1-1.8l1-1.8l0.9-1.7l0.9-1.7l0.9-1.6l0.8-1.6l0.8-1.5l0.8-1.5l0.7-1.4l0.7-1.4l0.7-1.3l0.6-1.3l0.6-1.2l0.6-1.1
				l0.5-1.1l0.5-1l0.5-1l0.4-0.9l0.4-0.8l0.4-0.8l0.3-0.7l0.3-0.7l0.3-0.6l0.2-0.5l0.2-0.5l0.2-0.4l0.2-0.3l0.1-0.3l0.1-0.2l0.1-0.1
				v-0.1V839v-0.1l0.1-0.2l0.1-0.2l0.1-0.3l0.1-0.3l0.2-0.4l0.2-0.4l0.2-0.5l0.2-0.5l0.2-0.6l0.3-0.6l0.3-0.7l0.3-0.7l0.3-0.8
				l0.3-0.8l0.3-0.9l0.4-0.9l0.4-1l0.4-1l0.4-1l0.4-1.1l0.4-1.1l0.4-1.2l0.4-1.2l0.5-1.2l0.5-1.3l0.5-1.3l0.5-1.3l0.5-1.4l0.5-1.4
				l0.5-1.5l0.5-1.5l0.5-1.5l0.5-1.6l0.8-2.4l1.1-3.2l1.1-3.3l1.1-3.4l1.1-3.5l1.1-3.6l1.1-3.7l1.1-3.8l1.1-3.9l1.1-4l1.1-4.1l1-4.1
				l1-4.2l1-4.2l0.9-4.3l0.9-4.3l0.8-4.4l0.8-4.4l0.7-4.4l0.7-4.5l0.6-4.5l0.6-4.5l0.5-4.5l0.4-4.5l0.3-4.5l0.2-4.5l0.2-4.4l0.1-4.4
				v-4.4l-0.1-4.4l-0.2-3.2l-0.2-2.2l-0.2-2.2l-0.2-2.2l-0.2-2.2l-0.3-2.2l-0.3-2.1l-0.3-2.1l-0.4-2.1l-0.4-2.1l-0.4-2.1l-0.5-2.1
				l-0.5-2l-0.5-2l-0.6-2l-0.6-2l-0.6-2l-0.7-1.9l-0.7-1.9l-0.7-1.9l-0.8-1.9l-0.8-1.8l-0.8-1.8l-0.9-1.8l-0.9-1.8l-1-1.7l-1-1.7
				l-1-1.7l-1.1-1.6l-1.1-1.6l-1.2-1.6l-1.2-1.5l-0.6-0.8l-0.9-1l-1.8-2.1l-1.8-2.1l-1.9-2l-2-2l-2-2l-2.1-2l-2.2-1.9l-2.2-1.9
				l-2.3-1.9l-2.4-1.8l-2.5-1.8l-2.6-1.8l-2.7-1.7l-2.8-1.7l-2.9-1.7l-2.2-1.2l-1.5-0.8l-1.5-0.8l-1.6-0.8l-1.6-0.8l-1.6-0.8
				l-1.7-0.8l-1.7-0.7l-1.7-0.7l-1.8-0.7l-1.8-0.7l-1.8-0.7l-1.8-0.7l-1.9-0.7l-1.9-0.7l-1.9-0.6l-2-0.6l-2-0.6l-2-0.6l-2.1-0.6
				l-2.1-0.6l-2.2-0.6l-2.2-0.6l-2.2-0.5l-2.3-0.5l-2.3-0.5l-2.3-0.5l-2.4-0.5l-2.4-0.5l-2.5-0.5l-2.5-0.4l-2.6-0.4l-1.3-0.2l0,0
				l-1.3-0.2l-2.6-0.4l-2.6-0.4l-2.5-0.4l-2.4-0.4l-2.3-0.3l-2.3-0.3l-2.2-0.3l-2.1-0.3l-2.1-0.3l-2-0.3l-1.9-0.2l-1.9-0.2l-1.8-0.2
				l-1.8-0.2l-1.7-0.2l-1.6-0.2l-1.6-0.2l-1.5-0.1l-1.5-0.1l-1.4-0.1l-1.3-0.1l-1.3-0.1l-1.2-0.1l-1.2-0.1l-1.1-0.1l-1.1-0.1h-1h-1
				h-0.9h-0.9h-0.8h-0.8h-0.7h-0.7h-0.6h-0.6h-0.5h-0.5h-0.4h-0.5h-0.6h-0.1h-0.1l-0.2,0.1h-0.2h-0.1c-2.3,0.4-5.6,1.4-7.7,0
				c-0.1-0.1-0.1-0.3-0.2-0.4c-0.1-0.7,0.9-1.7,2.6-2.6l0,0l0.7-0.3l1-0.5l1.2-0.5l1.3-0.4l1.4-0.4l1.3-0.3l1.3-0.3h0.2l0.4-0.1
				l0.8-0.2l0.9-0.2l0.9-0.2l1-0.2l1.1-0.2l1.1-0.2l1.2-0.2l1.2-0.3l1.3-0.3l1.4-0.3l1.4-0.3l1.5-0.3l1.5-0.3l1.6-0.3l1.6-0.3
				l1.7-0.3l1.7-0.3l1.8-0.3l1.8-0.3l1.9-0.3l1.9-0.3l2-0.3l2-0.3l2.1-0.3l2.1-0.3l2.1-0.3l2.2-0.3l2.2-0.3l2.3-0.3l2.3-0.3l2.3-0.3
				l2.4-0.3l2.4-0.3l2.4-0.3l2.5-0.3l2.5-0.2l3.7-0.3l5-0.4l5.1-0.4l5.2-0.3l5.3-0.3l5.4-0.2l5.4-0.1L1777.2,551.3z M1671.4,568.8
				L1671.4,568.8L1671.4,568.8L1671.4,568.8L1671.4,568.8z"/>
			<path class="st3" d="M923.5,1664c-0.2,0-0.3,0-0.5,0c0,0-0.1,0-0.2,0h-1.5c-0.7,0-1.4-0.1-1.9-0.3c-0.4-0.1-0.8-0.3-1.2-0.5
				c-1-0.3-1.8-0.9-2.4-1.7c-0.9-1-1.3-2.3-1.2-3.6c0-1,0.2-2,0.7-2.8c0.3-0.7,0.8-1.2,1.3-1.7c0.3-0.4,0.6-0.6,1-1l0.7-0.5l0,0
				l0.3-0.3l3.4-2l1.4-0.9l1.2-0.7l0.7-0.5l15.7-9.8l1.3-0.7l2.8-1.8l2.8-1.7l1.5-1l13.2-8.2l1.8-1.2l5.7-3.6l1.9-1.1l5.9-3.8
				l17.1-10.7l6.7-4.4l22-13.9l16.9-11l10.9-7l22.7-14.7l5.7-3.8l17.9-11.7l30.9-20.4l6.2-4.2l6.4-4.2l6.3-4.3l13-8.7l6.4-4.4
				l13.2-8.9l13.1-9l13.4-9.1l10-6.9l26.8-18.6l26.9-18.9l26.7-19l13.2-9.6l13.2-9.6l22.8-16.8l19.1-14.4l31-23.7l12-9.4l23.2-18.6
				l11.2-9.2l16.2-13.6l5.2-4.5l5.2-4.5l5.1-4.4l9.9-8.7l4.8-4.3l9.3-8.5l12.1-11.4l8.2-8.2l2-2.1l3.9-3.9l5.5-5.8l5.3-5.9l1.7-1.8
				l4.9-5.5l4.6-5.3l2.1-1.9l12.6-12l8.2-8l8-8l6-6.1l21.3-22.2l7.4-8l10.9-12l20.9-23.8l6.6-7.8l9.7-11.7l3.1-3.9l6.3-7.7l9.1-11.4
				l5.8-7.6l3-3.8l5.7-7.4l5.5-7.4l2.8-3.7l7.9-10.8l2.5-3.6l5.1-7.1l4.9-7l2.5-3.5l13.8-20.2l12.6-19.1l1.9-3.1l2-3.1l1.8-3
				l3.7-5.9l1.7-2.9l3.5-5.7l1.6-2.8l3.3-5.5l7.6-13.1l1.5-2.5l11.4-20.4l9.1-16.8l0.8-1.5l10.9-22.3l0.1-0.3l0.7-1.6l0.3-0.8
				l0.9-1.9l1-2.6l1.5-3.6l1.6-4.7l1.9-4.8l2.4-7l1.3-3.9l2.1-6.5l2.1-6.9l2.1-7.3l2.1-7.7l2.1-8l2.9-12.4l1.7-8.5l1.6-8.7l1.4-8.8
				l1.2-8.9l0.5-4.4l0.4-4.4l0.3-4.4l0.4-8.8l0.1-4.3v-4.3l-0.1-4.3l-0.2-3.1l-0.8-8.5l-0.8-6l-1.1-6l-1.4-5.7l-1.7-5.6l-2-5.4
				l-2.2-5.1l-1.6-3.3l-2.8-4.7l-2-2.9l-1.1-1.4l-1.7-2.1l-0.8-0.9l-3.5-4l-1.7-1.8l-3.8-3.8l-1.9-1.8l-4.2-3.6l-2.1-1.8l-2.3-1.7
				l-2.4-1.7l-2.4-1.7l-2.6-1.6l-5.4-3.2l-4.9-2.7l-6.1-3l-10.2-4l-3.5-1.3l-7.6-2.3l-8.2-2.3l-13.5-2.9l-2.3-0.5l-17.3-2.7
				l-24.6-3.1l-11.2-0.9h-9.1l-0.2,0.1h-1c-0.2,0-0.4,0.1-0.6,0.1c-2.7,0.5-6.9,1.4-10.3-1l-0.4-0.3l-0.4-0.4
				c-0.3-0.3-0.6-0.6-0.7-0.9l-0.6-0.6l-0.2-1.7c-0.2-1.7,0.1-5,5.2-7.7l2.1-1l1.6-0.7l3-0.9l6.8-1.5l3.3-0.6l5.2-1.2l9.6-1.8
				l17.6-2.7l20.9-2.7l16.4-1.3l10.5-0.6l5.5-0.2l5.9-0.1l4.7,0.7h5.3l2.6,0.1h2.3l9.2,0.2l9,0.4l12.9,0.9l8.3,0.8l12,1.5l7.7,1.2
				l11.1,2.1l7.2,1.6l10.1,2.7l6.5,2l9.3,3.3l5.9,2.4l8.3,4l5.2,2.9l2.5,1.5l2.4,1.5l2.5,1.6l2.3,1.6l2.4,1.7l4.2,3.4l2.2,1.9
				l3.9,3.7l1.9,2l3.5,3.9l1.7,2.1l1.5,2.1l1.6,2.2l1.5,2.3l1.4,2.3l2.5,4.6l1.2,2.4l2.1,4.9l0.9,2.5l1.6,5l0.7,2.7l1.5,6.7l1,6.1
				l0.9,7.4l0.6,7.6l0.3,7.6v10.3l-0.4,9.1l-0.4,5.1l-0.5,5.3l-0.6,5.3l-0.7,5.3l-0.8,5.3l-0.9,5.4l-1,5.4l-1.1,5.4l-1.2,5.4
				l-1.3,5.4l-1.4,5.4l-3,10.8l-1.6,5.5l-1.7,5.5l-3.6,10.8l-1.9,5.4l-4,10.7l-4.2,10.7l-4.4,10.6l-4.6,10.5l-4.8,10.4L1908,848
				l-7.7,14.9l-2.6,4.9l-8,14.4l-8,13.7l-2.7,4.5l-5.3,8.7l-2.7,4.3l-2.7,4.2l-5.3,8.1l-7.8,11.6l-2.6,3.7l-9,12.5l-5.5,7.5
				l-11,14.8l-11.2,14.6l-11.2,14.4l-5.6,7.1l-11.4,14l-11.4,13.8l-11.4,13.6l-11.4,13.4l-11.4,13.2l-5.7,6.5l-11.4,12.8l-11.4,12.6
				l-11.4,12.4l-11.4,12.2l-5.7,6l-11.4,11.8l-11.4,11.6l-11.4,11.4l-5.7,5.6l-5.7,5.5l-5.6,5.5l-11.2,10.8l-11.2,10.6l-16.6,15.5
				l-11,10.1l-5.5,4.9l-5.4,4.9l-5.4,4.8l-5.4,4.8l-5.3,4.7l-10.7,9.3l-5.3,4.6l-5.2,4.5l-15.5,13.1l-5.2,4.3l-5,4.2l-5.1,4.2
				l-5.1,4.1l-4.9,4l-5,4l-4.8,3.9l-14.3,11.4l-4.8,3.7l-4.6,3.6l-4.7,3.6l-4.5,3.5l-17.7,13.4l-20.8,15.4l-19.3,13.9l-17.7,12.5
				l-3.3,2.3l-9.5,6.6l-8.9,6.1l-15.7,10.4l-2.4,1.5l-12.7,8.3l-4.5,2.7l-1,0.7l-6.3,3.8l-0.4,0.3l-2.5,1.4l-1.1,1.1h-0.8l-7,4.2
				l-16.4,9.8l-16.5,9.8l-33,19.5l-20.7,12l-64.8,37.1l-62.7,35.2l-14.2,7.8l-3.5,2l-26.8,14.6l-6.3,3.6l-12.2,6.7l-3,1.7l-17,9.2
				l-15.4,8.5l-18,9.6l-20.6,11.2l-2.4,1.3l-1.4,0.8l-2,1l-1.2,0.7l-1.6,0.8l-1.1,0.7l-5.7,3h-0.2c-0.5,0.2-0.7,0.3-1.1,0.4
				l-0.5,0.2c-0.2,0.1-0.3,0.1-0.3,0.1c-0.4,0.2-0.7,0.3-1.2,0.4c-0.4,0.2-0.7,0.3-1.2,0.3c-0.1,0-0.2,0-0.5,0.1l-0.5,0.1
				c-0.5,0.1-0.7,0.2-1.3,0.2c-0.5,0.1-0.8,0.2-1.3,0.2c-0.1,0-0.2,0-0.3,0C924.5,1663.9,924,1664,923.5,1664z M917.2,1662.5
				L917.2,1662.5L917.2,1662.5z M915.9,1654.2L915.9,1654.2L915.9,1654.2z M921.5,1653.8L921.5,1653.8L921.5,1653.8z M917.1,1652.9
				c0,0-0.1,0.1-0.2,0.2C917,1653,917,1653,917.1,1652.9z M983.3,1622.9l-5.3,3.5l37.3-20.3l12.1-6.7l3.2-1.7l12.8-7.1l3.3-1.8
				l31-17.2l3.6-2l10.9-6.2l20.7-11.5l46.9-26.5l48.8-28l20.6-12l33-19.4l40.8-24.4l0.2-0.2l0.7-0.4l20.2-12.4l2-1.4l1-0.6l1.6-1.1
				l2.3-1.5l2.4-1.5l10-6.6l5.6-3.6l2.8-1.9l6-4.1l16.1-11.2l3.4-2.4l14.6-10.2l19.5-14.1l21-15.6l4.3-3.3l9-6.8l4.5-3.5l4.7-3.6
				l4.6-3.6l4.8-3.7l14.2-11.3l4.8-3.9l5-4l4.9-4l5.1-4.1l5-4.1l5-4.2l5.1-4.3l15.4-13l5.2-4.5l5.3-4.6l10.6-9.2l5.3-4.7l5.4-4.7
				l5.4-4.8l5.4-4.9l5.5-4.9l11-10l16.6-15.4l11.2-10.6l11.2-10.8l5.6-5.5l5.7-5.5l5.7-5.6l11.4-11.4l11.4-11.6l11.4-11.8l5.7-6
				l11.4-12.2l11.4-12.4l11.4-12.6l11.4-12.7l5.7-6.5l11.4-13.1l11.4-13.3l11.4-13.5l11.4-13.7l11.4-13.9l5.6-7l11.2-14.3l11.2-14.5
				l11-14.7l9.4-12.8l7.6-10.6l2.5-3.7l10.5-15.8l2.6-4.1l2.6-4.2l5.3-8.6l5.3-8.9l5.3-9.1l7.9-14.2l7.6-14.5l2.5-5l7.3-15.1
				l4.7-10.2l4.5-10.3l4.3-10.4l4.1-10.5l3.9-10.5l1.8-5.2l3.5-10.6l1.6-5.3l1.5-5.3l2.9-10.7l1.4-5.2l1.3-5.2l1.2-5.2l1.1-5.2
				l1-5.2l0.9-5.2l0.8-5.1l0.7-5.1l0.6-5.1l0.5-5.1l0.4-5l0.4-8.7v-9.9l-0.3-7.2l-0.6-7.2l-0.9-7l-0.9-5.6l-1.4-6.1l-0.6-2.3
				l-1.5-4.6l-0.8-2.2l-1.9-4.4l-1-2.1l-2.3-4.1l-1.2-2l-1.3-1.9l-1.4-1.9l-1.4-1.9l-1.4-1.8l-3.2-3.6l-1.6-1.7l-3.5-3.4l-1.8-1.5
				l-4-3.2l-2-1.5l-2.2-1.5l-2.2-1.4l-4.6-2.8l-4.8-2.6l-7.8-3.7l-5.5-2.3l-8.8-3.2l-6.1-1.9l-9.7-2.6l-6.8-1.5l-10.7-2l-7.4-1.2
				l-11.8-1.5l-8-0.8l-12.6-0.9l-8.7-0.4l-13.9-0.3h-5.8l-4.6-0.7l-5,0.1l-5.3,0.2l-10.4,0.6l-16.2,1.3l-26.6,3.5l-15.5,2.5l1.8,0.1
				l25.1,3.2l17.7,2.8l14,3l2.4,0.6l8.5,2.4l8.1,2.5l10.9,4.2l3.7,1.5l6.6,3.3l5.3,2.9l2.9,1.7l2.8,1.7l2.9,1.8l2.6,1.8l2.5,1.8
				l2.6,2l2.3,1.9l4.5,3.9l2.2,2.1l4,4l2,2.2l4.6,5.4l0.5,0.7l1.2,1.5l1.3,1.7l2.4,3.4l3.1,5.3l1.9,3.7l2.5,5.7l2.2,5.9l1.8,6.1
				l1.5,6.3l1.2,6.4l0.9,6.5l0.8,8.8l0.2,3.4l0.1,4.5v4.5l-0.1,4.5l-0.4,9l-0.3,4.6l-0.4,4.6l-0.5,4.6l-1.2,9.1l-1.4,9.1l-1.6,9
				l-1.8,8.8l-3,12.7l-2.2,8.2l-2.2,7.8l-2.2,7.4l-2.2,7.1l-6,18l-2.3,6l-1.3,3.6l-4.4,10.7v1.3l-0.8,0.8l-0.4,0.6l-1.4,3.1l-9,17.8
				l-4.6,8.4l-5.4,9.9l-6.1,10.9l-1.3,2.4l-13.3,23l-10.4,17.1l-3.7,5.9l-1.9,3.1l-2,3l-2,3.2l-12.7,19.2L1733,990l-2.5,3.5l-4.9,7
				l-5.2,7.2l-2.5,3.6l-8,11l-2.8,3.7l-5.5,7.4l-5.8,7.5l-3,3.8l-5.9,7.6l-9.2,11.6l-6.3,7.7l-3.1,3.9l-9.8,11.9l-6.7,7.9l-21,23.9
				l-11,12.1l-7.5,8.1l-11.5,12.1l-15.9,16.3l-8.1,8.1l-8.3,8.1l-12.8,12.2l-2.2,2l-0.6,0.7l-3.2,3.8l-5.1,5.7l-1.7,1.8l-5.4,5.9
				l-5.7,6l-3.9,3.9l-2,2.1l-8.3,8.3l-7.7,7.3l-4.5,4.2l-9.4,8.6l-4.9,4.4l-10,8.8l-5.1,4.5l-5.2,4.5l-5.2,4.5l-5.3,4.6l-10.9,9.2
				l-11.2,9.3l-5.7,4.6l-29.6,23.5l-6.1,4.7l-44.2,33.6l-22.8,16.8l-13.2,9.6l-13.3,9.6l-26.8,19.1l-27,18.9l-26.9,18.6l-10,6.9
				l-13.4,9.1l-13.1,9l-13.2,8.9l-6.5,4.4l-13,8.7l-6.4,4.3l-6.4,4.3l-6.3,4.2l-6.3,4.2l-24.6,16.3l-23.7,15.5l-5.8,3.8l-16.9,11
				l-27.9,18l-4.9,3.1l-23.8,15.2l-2.2,1.4L983.3,1622.9z"/>
		</g>
		<g>
			<path id="Bianco_1_" inkscape:connector-curvature="0" class="st1" d="M1694.8,418l5.3,0.1l2.6,0.1h2.3l4.4,0.1l4.4,0.2l4.3,0.2
				l4.2,0.2l4.2,0.3l4.1,0.3l4.1,0.4l4,0.4l3.9,0.4l3.9,0.5l3.8,0.5l3.8,0.6l3.7,0.6l3.6,0.7l3.6,0.7l3.5,0.7l3.4,0.8l3.4,0.8
				l3.3,0.9l3.3,0.9l3.2,1l3.1,1l3.1,1l3,1.1l2.9,1.1l2.9,1.2l2.9,1.2l2.8,1.3l2.8,1.3l2.7,1.3l2.7,1.4l2.6,1.4l2.5,1.5l2.5,1.5
				l2.4,1.6l2.3,1.6l2.3,1.6l2.2,1.7l2.1,1.7l2.1,1.8l2,1.8l1.9,1.9l1.9,1.9l1.8,1.9l1.7,2l1.7,2l1.6,2.1l1.5,2.1l1.5,2.2l1.4,2.2
				l1.3,2.2l1.3,2.3l1.2,2.3l1.1,2.4l1.1,2.4l1,2.5l0.9,2.5l0.9,2.6l0.8,2.6l0.7,2.6l0.7,2.7l0.6,2.7l0.5,2.8l0.2,1.4l0,0l0.2,1.3
				l0.4,2.6l0.4,2.6l0.3,2.6l0.3,2.6l0.3,2.6l0.2,2.6l0.2,2.7l0.2,2.7l0.1,2.7l0.1,2.7l0.1,2.7v2.7v2.7v2.7v2.7l-0.1,2.8l-0.1,2.8
				l-0.2,4.1l-0.4,5.5l-0.5,5.5l-0.6,5.6l-0.7,5.6l-0.8,5.6l-0.9,5.6l-1,5.7l-1.1,5.7l-1.2,5.7l-1.2,5.7l-1.3,5.7l-1.4,5.7l-1.5,5.7
				l-1.6,5.7l-1.6,5.7l-1.7,5.7l-1.8,5.7l-1.8,5.7l-1.9,5.7l-2,5.7l-2,5.7l-2.1,5.6l-2.1,5.6l-2.2,5.6l-2.2,5.6l-2.3,5.5l-2.3,5.5
				l-2.4,5.5l-2.4,5.4l-2.4,5.4l-2.5,5.4l-2.5,5.3l-2.5,5.3l-2.5,5.2l-2.6,5.2l-2.6,5.1l-2.6,5l-2.6,5l-2.6,4.9l-2.6,4.9l-2.6,4.8
				l-2.6,4.7l-2.6,4.6l-2.6,4.6l-2.6,4.5l-2.6,4.4l-2.6,4.3l-2.6,4.2l-2.6,4.1l-2.6,4.1l-2.5,4l-2.5,3.9l-2.5,3.8l-2.5,3.7l-1.2,1.8
				l0,0l-2.7,4l-5.3,8l-5.4,7.9l-5.4,7.9l-5.4,7.8l-5.4,7.8l-5.4,7.7l-5.5,7.6l-5.5,7.6l-5.5,7.5l-5.5,7.5l-5.5,7.4l-5.5,7.4
				l-5.5,7.3l-5.6,7.2l-5.6,7.2l-5.6,7.1l-5.6,7.1l-5.6,7l-5.6,6.9l-5.6,6.9l-5.6,6.8l-5.6,6.8l-5.6,6.7l-5.6,6.6l-5.6,6.6l-5.6,6.5
				l-5.6,6.5l-5.6,6.4l-5.6,6.3l-5.6,6.3l-5.6,6.2l-5.5,6.2l-5.5,6.1l-5.5,6l-5.5,6l-5.5,5.9l-5.5,5.9l-5.5,5.8l-5.5,5.7l-5.4,5.7
				l-5.4,5.6l-5.4,5.6l-5.4,5.5l-5.4,5.4l-5.3,5.4l-5.3,5.3l-5.3,5.3l-5.3,5.2l-5.2,5.1l-5.2,5.1l-5.2,5l-5.2,4.9l-5.1,4.9l-5.1,4.8
				l-5.1,4.8l-5,4.7l-5,4.6l-5,4.6l-4.9,4.5l-4.9,4.4l-4.9,4.4l-4.8,4.3l-4.8,4.3l-4.7,4.2l-4.7,4.1l-4.7,4.1l-4.6,4l-4.6,3.9
				l-4.5,3.9l-4.5,3.8l-4.4,3.8l-4.4,3.7l-4.3,3.6l-4.3,3.6l-4.2,3.5l-4.2,3.4l-4.1,3.4l-4.1,3.3l-4,3.2l-3.9,3.2l-3.9,3.1l-3.8,3
				l-3.8,3l-3.7,2.9l-3.6,2.9l-3.6,2.9l-3.5,2.8l-3.5,2.8l-3.4,2.7l-3.3,2.6l-3.3,2.6l-3.2,2.5l-3.1,2.4l-3,2.4l-3,2.3l-2.9,2.2
				l-2.9,2.2l-2.8,2.1l-2.8,2l-2.7,2l-2.6,1.9l-2.5,1.8l-2.5,1.8l-2.4,1.7l-2.3,1.6l-1.7,1.2l-1.1,0.8l-1.1,0.8l-1,0.7l-1,0.7
				l-1,0.7l-1,0.7l-1,0.7l-0.9,0.7l-0.9,0.6l-0.9,0.6l-0.9,0.6l-0.8,0.6l-0.8,0.6l-0.8,0.6l-0.8,0.5l-0.8,0.5l-0.7,0.5l-0.7,0.5
				l-0.7,0.5l-0.7,0.4l-0.6,0.4l-0.6,0.4l-0.6,0.4l-0.6,0.4l-0.5,0.4l-0.5,0.3l-0.5,0.3l-0.5,0.3l-0.4,0.3l-0.4,0.3l-0.4,0.3
				l-0.4,0.2l-0.3,0.2l-0.3,0.2l-0.3,0.2l-0.3,0.2l-0.2,0.2l-0.2,0.1l-0.2,0.1l-0.2,0.1l-0.1,0.1l-0.1,0.1h-0.1l0,0l0,0l-8,5.2
				l-15.9,10.5l-16,10.4l-16.1,10.4l-16.1,10.3l-12.1,7.7l-8.1,5.1l-8,5.1l-8,5l-8,5l-7.9,5l-7.9,4.9l-7.9,4.9l-7.8,4.8l-7.8,4.8
				l-7.7,4.7l-7.6,4.7l-7.6,4.6l-7.5,4.6l-5.5,3.4l-3.6,2.3l-3.6,2.3l-3.6,2.3l-3.6,2.2l-3.5,2.2l-3.5,2.2l-3.5,2.2l-3.5,2.2
				l-3.4,2.2l-3.4,2.1l-3.4,2.1l-3.3,2.1l-3.3,2.1l-3.3,2.1l-3.3,2l-3.2,2l-3.2,2l-3.2,2l-3.1,2l-3.1,1.9l-3.1,1.9l-3,1.9l-3,1.9
				l-3,1.8l-2.9,1.8l-2.9,1.8l-2.9,1.8l-2.9,1.7l-2.9,1.7l-2.8,1.7l-2.8,1.7l-2.7,1.6l-2.7,1.6l-2.7,1.6l-2.6,1.6l-2.6,1.5l-2.5,1.5
				l-2.5,1.5l-2.4,1.5l-2.4,1.4l-2.3,1.4l-2.3,1.4l-2.2,1.3l-2.2,1.3l-2.1,1.3l-2.1,1.2l-2,1.2l-2,1.2l-1.9,1.1l-1.9,1.1l-1.8,1.1
				l-1.8,1.1l-1.7,1l-1.7,1l-1.6,1l-1.6,0.9l-1.5,0.9l-1.4,0.8l-1.4,0.8l-1.3,0.8l-1.3,0.7l-1.2,0.7l-1.1,0.7l-1.1,0.6l-1,0.6
				l-1,0.6l-0.9,0.5l-0.8,0.5l-0.8,0.4l-0.7,0.4l-0.6,0.4l-0.6,0.3l-0.5,0.3l-0.4,0.2l-0.4,0.2l-0.3,0.2l-0.2,0.1l-0.1,0.1h-0.1l0,0
				l-0.3,0.1c-0.3,0.2-0.2,0.1-0.4,0.2c-0.8,0.4-0.3,0.2-1.5,0.6c-1.1,0.5-0.6,0.3-1.4,0.5c-0.7,0.3-0.3,0.1-1.5,0.4
				s-0.7,0.2-1.5,0.4c-0.8,0.2-0.3,0.1-1.5,0.2c-1.2,0.2-0.7,0.2-1.6,0.2c-0.3,0-0.1,0-0.5,0h1.8h-0.3h-0.3h-0.2c-0.3,0-0.2,0-0.4,0
				c-0.6-0.1-0.3,0-0.9-0.3c-0.6-0.2-0.5,0-0.6-0.3c-0.3-0.1-0.2,0-0.2-0.4c-0.2-0.4-0.2-0.2,0-0.5c0-0.3,0-0.1,0.4-0.6
				c0.3-0.5,0.1-0.3,0.6-0.7c0.1-0.1,0-0.1,0.3-0.2l0.2-0.1l0,0l0,0l0.1-0.1l0.1-0.1l0.2-0.1l0.2-0.1l0.3-0.2l0.3-0.2l0.3-0.2
				l0.4-0.3l0.4-0.3l0.5-0.3l0.5-0.3l0.6-0.4l0.6-0.4l0.6-0.4l0.7-0.5l0.7-0.5l0.8-0.5l0.8-0.5l0.8-0.6l0.9-0.6l0.9-0.6l1-0.6l1-0.7
				l1-0.7l1.1-0.7l1.1-0.8l1.1-0.8l1.2-0.8l1.2-0.8l1.3-0.9l1.3-0.9l1.3-0.9l1.4-0.9l1.4-0.9l1.4-1l1.5-1l1.5-1l1.5-1l1.6-1.1
				l1.6-1.1l1.6-1.1l1.7-1.1l1.7-1.2l1.7-1.2l1.8-1.2l1.8-1.2l1.8-1.2l1.8-1.3l1.9-1.3l1.9-1.3l1.9-1.3l2-1.4l2-1.4l2-1.4l2-1.4
				l2.1-1.4l2.1-1.5l2.1-1.5l2.2-1.5l2.2-1.5l2.2-1.5l2.2-1.6l2.3-1.6l2.3-1.6l2.3-1.6l2.3-1.6l2.4-1.7l2.4-1.7l2.4-1.7l2.4-1.7
				l2.5-1.7l2.5-1.7l2.5-1.8l2.5-1.8l2.5-1.8l2.6-1.8l3.8-2.7l5.2-3.6l5.2-3.7l5.3-3.7l5.4-3.8l5.5-3.9l5.5-3.9l5.6-4l5.7-4l5.7-4.1
				l5.8-4.1l5.9-4.2l5.9-4.2l6-4.3l6-4.3l6.1-4.4l6.1-4.4l6.2-4.5l6.2-4.5l6.3-4.6l6.3-4.6l6.3-4.6l6.4-4.7l6.4-4.7l6.4-4.7l6.4-4.8
				l6.5-4.8l6.5-4.8l6.5-4.9l9.7-7.4l13.1-9.9l13.1-10l13.1-10l13.1-10.1l13.1-10.1l13-10.2l12.9-10.2l12.8-10.2l12.7-10.2l9.4-7.7
				l6.3-5.1l6.2-5.1l6.2-5.1l6.1-5.1l6.1-5.1l6-5.1l6-5.1l5.9-5.1l5.9-5l5.8-5l5.8-5l5.7-5l5.6-5l5.6-4.9l5.5-4.9l5.4-4.9l5.3-4.9
				l5.3-4.8l5.2-4.8l5.1-4.8l5-4.8l4.9-4.7l4.8-4.7l4.7-4.7l4.7-4.6l4.6-4.6l4.5-4.5l4.4-4.5l3.2-3.3l2.1-2.3l2.1-2.3l2.1-2.2
				l2.1-2.2l2-2.2l2-2.2l2-2.2l1.9-2.2l1.9-2.2l1.9-2.2l1.9-2.1l1.8-2.1l1.8-2.1l1.8-2.1l1.7-2.1l1.7-2.1l1.7-2.1l1.6-2.1l1.6-2
				l1.6-2l1.5-2l0.8-1c0.1-0.1,0.2-0.2,0.2-0.3l2.1-2.2l4.1-4.3l4.1-4.3l4-4.3l4-4.3l4-4.3l5.9-6.5l7.8-8.6l5.7-6.5l3.8-4.3l3.7-4.3
				l3.7-4.3l3.6-4.3l3.6-4.3l3.6-4.3l3.5-4.3l3.5-4.3l3.5-4.2l3.4-4.2l3.4-4.2l3.4-4.2l3.3-4.2l3.3-4.2l3.3-4.2l3.2-4.2l3.2-4.2
				l3.2-4.2l3.1-4.2l3.1-4.1l3.1-4.1l3-4.1l3-4.1l2.9-4.1l2.9-4.1l2.9-4l2.9-4l2.9-4l2.9-4l2.8-4l2.8-4l2.8-3.9l2.7-3.9l2.7-3.9
				l2.7-3.9l2.6-3.8l2.6-3.8l2.6-3.8l2.5-3.8l2.5-3.8l2.5-3.7l2.4-3.7l2.4-3.7l2.4-3.6l2.3-3.6l2.3-3.6l2.3-3.6l2.2-3.5l2.2-3.5
				l2.2-3.5l2.1-3.4l2.1-3.4l2.1-3.4l2-3.3l2-3.3l2-3.3l1.9-3.2l1.9-3.2l1.9-3.2l1.8-3.1l1.8-3.1l1.8-3l1.7-3l1.7-3l1.7-2.9l1.6-2.9
				l1.6-2.9l1.6-2.9l1.5-2.9l1.5-2.8l1.5-2.8l1.4-2.7l1.4-2.7l1.4-2.6l1.3-2.6l1.3-2.5l1.3-2.5l1.2-2.4l1.2-2.4l1.2-2.3l1.1-2.3
				l1.1-2.2l1.1-2.2l1.1-2.1l1-2.1l1-2l1-2l0.9-1.9l0.9-1.9l0.9-1.8l0.8-1.8l0.8-1.7l0.8-1.6l0.7-1.6l0.7-1.5l0.7-1.5l0.6-1.4
				l0.6-1.3l0.6-1.3l0.6-1.2l0.5-1.2l0.5-1.1l0.5-1l0.4-1l0.4-0.9l0.4-0.8l0.3-0.8l0.3-0.7l0.3-0.6l0.2-0.6l0.2-0.5l0.2-0.4l0.2-0.4
				l0.1-0.3l0.1-0.2l0.1-0.1v-0.1v-0.1v-0.1l0.1-0.2l0.1-0.2l0.1-0.3l0.1-0.3l0.2-0.4l0.2-0.5l0.2-0.5l0.2-0.6l0.2-0.6l0.2-0.7
				l0.3-0.7l0.3-0.8l0.3-0.8l0.3-0.9l0.3-0.9l0.3-1l0.4-1l0.4-1.1l0.4-1.1l0.4-1.2l0.4-1.2l0.4-1.2l0.4-1.3l0.4-1.3l0.5-1.4l0.5-1.4
				l0.5-1.4l0.5-1.5l0.5-1.5l0.5-1.6l0.5-1.6l0.5-1.6l0.5-1.7l0.8-2.6l1.1-3.4l1.1-3.5l1.1-3.7l1.1-3.8l1.1-3.9l1.1-4l1.1-4.1
				l1.1-4.2l1.1-4.3l1-4.3l1-4.4l1-4.5l0.9-4.5l0.9-4.6l0.9-4.6l0.8-4.7l0.8-4.7l0.7-4.7l0.7-4.8l0.6-4.8l0.5-4.8l0.5-4.8l0.4-4.8
				l0.3-4.8l0.2-4.8l0.1-4.8l0.1-4.7v-4.7l-0.1-4.7l-0.2-3.5l-0.1-2.4l-0.2-2.3l-0.2-2.3l-0.2-2.3l-0.3-2.3l-0.3-2.3l-0.3-2.3
				l-0.3-2.2l-0.4-2.2l-0.4-2.2l-0.4-2.2l-0.5-2.2l-0.5-2.2l-0.5-2.1l-0.6-2.1l-0.6-2.1l-0.6-2.1l-0.7-2l-0.7-2l-0.7-2l-0.8-2
				l-0.8-1.9l-0.9-1.9l-0.9-1.9l-0.9-1.8l-1-1.8l-1-1.8l-1.1-1.7l-1.1-1.7l-1.1-1.7l-1.2-1.7l-0.6-0.8l-0.8-1.1l-1.7-2.2l-1.8-2.2
				l-1.9-2.1l-1.9-2.1l-2-2.1l-2-2l-2.1-2l-2.2-2l-2.3-1.9l-2.3-1.9l-2.4-1.9l-2.5-1.8l-2.6-1.8l-2.7-1.8l-2.8-1.7l-2.9-1.7
				l-2.9-1.7l-2.3-1.2l-1.6-0.8l-1.6-0.8l-1.6-0.8l-1.7-0.8l-1.7-0.8l-1.7-0.8l-1.8-0.7l-1.8-0.7l-1.8-0.7l-1.9-0.7l-1.9-0.7
				l-1.9-0.7l-2-0.7l-2-0.7l-2-0.7l-2.1-0.7l-2.1-0.6l-2.1-0.6l-2.2-0.6l-2.2-0.6l-2.2-0.6l-2.3-0.6l-2.3-0.6l-2.4-0.6l-2.4-0.6
				l-2.4-0.5l-2.5-0.5l-1.3-0.3l0,0l-1.3-0.3l-2.5-0.5l-2.4-0.5l-2.4-0.5l-2.3-0.4l-2.2-0.4l-2.2-0.4l-2.1-0.4l-2.1-0.4l-2-0.3
				l-2-0.3l-1.9-0.3l-1.9-0.3l-1.8-0.3l-1.8-0.2l-1.7-0.2l-1.7-0.2l-1.6-0.2l-1.6-0.2l-1.5-0.2l-1.5-0.1l-1.4-0.1l-1.4-0.1l-1.3-0.1
				l-1.3-0.1l-1.2-0.1l-1.2-0.1l-1.1-0.1h-1.1h-1h-1h-1h-0.9h-0.9h-0.8h-0.8h-0.7h-0.7h-0.6h-0.6h-0.6h-0.5h-0.6l-0.8,0.1l-0.6,0.1
				h-0.4h-0.3l0,0h-0.2h-0.2h-0.1l0,0c-4.2,1-7.6,0.7-7.5-0.7c0.1-1.2,2.6-2.7,5.9-3.7l0,0l0.6-0.2l0.8-0.2l0.9-0.2l1-0.2l0.5-0.1
				h0.2l0.6-0.1l0.7-0.1l0.8-0.2l0.8-0.2l0.9-0.2l1-0.2l1-0.2l1.1-0.2l1.2-0.2l1.2-0.2l1.3-0.3l1.4-0.3l1.4-0.3l1.5-0.3l1.5-0.3
				l1.6-0.3l1.7-0.3l1.7-0.3l1.8-0.3l1.8-0.3l1.9-0.3l1.9-0.3l2-0.3l2-0.3l2-0.3l2.1-0.3l2.1-0.3l2.2-0.3l2.2-0.3l2.2-0.3l2.3-0.3
				l2.3-0.3l2.4-0.3l3.5-0.4l4.8-0.5l4.9-0.5l5-0.5l5.1-0.4l5.2-0.4l5.2-0.3l5.3-0.2l5.3-0.2l5.4-0.1L1694.8,418z"/>
			<path class="st1" d="M862.8,1605.5h-2.4l-0.6-0.1c-0.6-0.1-1.1-0.2-1.6-0.5c-0.8-0.2-1.6-0.6-2.2-1.2c-0.9-0.8-1.6-1.9-1.8-3.1
				c-0.3-1.2-0.2-2.4,0.3-3.5c0.2-0.6,0.6-1.2,1-1.7c0.4-0.6,0.7-1,1.2-1.3c0.3-0.3,0.6-0.5,1-0.8l0.2-0.2l1.3-0.8l1.1-0.8l2.5-1.6
				l1.6-1.1l1.4-0.9l0.8-0.6l6.7-4.5l1.2-0.9l8.9-6l1.4-1l10.8-7.3l3.4-2.4l5.2-3.5l1.8-1.3l17.5-12.1l2.2-1.5l6.4-4.4l2.2-1.6
				l42.4-29.7l5.2-3.7l21.7-15.4l5.6-4l5.7-4.1l5.7-4.1l29.6-21.2l43.4-31.7l19.2-14.1l6.3-4.8l13-9.7l29.2-22.2l26.1-20l26.1-20.2
				l12.9-10.2l12.9-10.2l12.8-10.2l28.4-23l12.4-10.2l12.2-10.2l12-10.2l5.9-5.1l5.9-5l11.6-10l5.7-5l5.6-5l5.6-4.9l5.5-4.9l5.4-4.9
				l5.3-4.9l5.3-4.8l5.2-4.8l5.1-4.8l9.9-9.5l4.8-4.7l4.7-4.7l4.8-4.7l9.1-9.1l7.6-7.8l4.2-4.5l4.1-4.3l5.8-6.4l5.6-6.5l1.8-2
				l5.2-6.1l4.9-6.1l1.6-2.1l3.1-3.9l1.4-1.9v-0.3l11.7-12.3l12-12.9l5.9-6.4l7.7-8.6l16.9-19.4l10.9-12.9l7-8.6l3.6-4.3l10.3-12.6
				l10-12.6l9.7-12.6l3.1-4.2l6.3-8.3l6-8.2l5.9-8.2l3-4.1l8.5-12l5.5-8l2.8-4l15.6-23.2l4.9-7.6l2.5-3.8l4.7-7.4l2.4-3.7l13.2-21.4
				l12-20.3l10.9-19l9.7-17.6l15.9-30.5l3.2-6.6l1.1-2.1l7.9-16.4l3.9-8.6l0.5-1l1.1-2.4l0.4-0.8l0.9-2.1l0.3-0.6l1.6-3.7v-0.2
				l1.3-3l0.7-2.1l0.8-2l1-2.9l1.1-2.9l5.8-17.7l1.3-4.2l2.2-7l2.1-7.5l2.1-7.9l3.2-12.5l2.9-13.1l2.6-13.6l1.6-9.3l1.4-9.4l0.6-4.7
				l1-9.5l0.4-4.7l0.3-4.7l0.2-4.7l0.2-9.4v-4.6l-0.1-4.6l-0.3-5.8l-0.6-6.6l-1.1-8.7l-1.1-6.3l-1.4-6.1l-1.7-5.9l-2-5.7l-1.5-3.5
				l-2.5-5.2l-1.8-3.3l-3.1-4.8l-2.4-3.3l-1.6-2.1l-1.6-2l-3.6-4l-1.9-2l-1.9-1.9l-2-1.9l-2-1.8l-4.4-3.6l-2.2-1.8l-2.4-1.7
				l-2.5-1.7l-2.5-1.7l-2.7-1.6l-5.6-3.2l-6.8-3.4l-4.8-2.3l-10.7-4l-7.7-2.7l-10.5-2.9l-9-2.3l-14.4-3l-19.9-3.4l-9.5-1.2l-10-0.8
				h-11.4l-0.9,0.1h-1c-5.1,1.1-8.7,0.7-11-1.2c-1.4-1.2-2.2-3-2-4.8c0.3-3.6,3.4-6.2,9.3-8.1l0.9-0.3l3.9-0.8h0.6l0.4-0.1l4.4-1
				l3.4-0.6l7-1.5l8.6-1.5l20.4-3l6.9-0.9l8.5-0.9l10.1-1l10.3-0.8l5.3-0.3l10.7-0.4l5.7-0.1l5.3,0.3l14.6,0.3l13.1,0.6l8.5,0.6
				l12.2,1.2l7.9,1l7.7,1.2l11,2.1l7,1.6l6.9,1.8l9.8,3l6.2,2.2l6,2.5l8.4,3.9l5.5,2.9l5.1,3.1l2.4,1.6l4.8,3.3l2.3,1.7l2.2,1.8
				l2.2,1.8l2.2,2l3.8,3.8l1.9,2.1l3.5,4.1l1.7,2.2l1.5,2.2l1.6,2.3l1.5,2.3l1.3,2.2l1.4,2.5l1.3,2.5l2.3,4.9l1,2.6l1.8,5.2l0.8,2.7
				l1.4,5.4l0.6,2.9l0.9,5.5l0.8,5.3l0.9,7.9l0.6,8.1l0.3,8.1v10.8l-0.4,9.8l-0.4,5.5l-0.5,5.6l-0.6,5.7l-0.7,5.7l-0.8,5.7l-0.9,5.7
				l-1,5.8l-1.1,5.8l-2.4,11.5l-1.3,5.8l-1.4,5.8l-1.5,5.8l-3.2,11.5l-1.7,5.8l-3.6,11.5l-1.9,5.8l-4,11.6l-4.1,11.2l-4.4,11.4
				l-4.5,11l-7.1,16.4l-7.4,16.1l-2.5,5.2l-5.2,10.4l-10.3,19.9l-5.2,9.6l-7.7,13.8l-5.2,8.8l-2.6,4.3l-10.1,16.3l-2.5,3.9l-6.3,9.6
				l-5.3,8l-10.9,15.8l-10.8,15.6l-5.4,7.7l-11.1,15.2l-11,15l-11,14.8l-5.5,7.3l-11.3,14.4l-11.2,14.2l-5.6,7l-11.2,13.8
				l-11.2,13.6l-5.6,6.7l-11.2,13.2l-11.2,13l-5.6,6.4l-11.2,12.6l-5.6,6.2l-5.5,6.2l-5.5,6.1l-11,12l-11,11.8l-5.5,5.8l-5.5,5.7
				l-5.4,5.7l-10.8,11.2l-5.4,5.5l-5.4,5.4l-5.3,5.4l-10.6,10.6l-15.8,15.5l-5.2,5l-5.2,4.9l-5.1,4.9l-15.3,14.4l-15,13.8
				l-24.2,21.8l-14.1,12.3l-4.7,4l-4.5,3.9l-4.6,3.9l-4.4,3.8l-17.4,14.6l-4.3,3.5l-4.1,3.4l-23.8,19.1l-3.7,3l-3.6,2.9l-14.2,11.1
				L1295,1337l-11.7,8.7l-2.8,2l-10.1,7.4l-19.5,13.8l-2,1.3l-1.8,1.3l-2.6,1.7l-0.9,0.6l-1.4,0.9l-1.1,0.9l-1,0.6l-0.4,0.4
				l-0.6,0.3l-1.1,1.1h-0.7l-6.7,4.4l-15.9,10.5l-16.1,10.4l-16.1,10.4l-16.1,10.3l-20.2,12.8l-7.9,5.1l-16,10l-7.8,5l-31.3,19.5
				l-7.7,4.7l-7.5,4.7l-7.6,4.6l-23.8,14.8l-17.8,10.8l-3.5,2.2l-6.9,4.1l-10.1,6.2l-9.8,5.9l-3.2,2l-3.2,2l-6.3,3.7l-6.1,3.8
				l-8.9,5.3l-2.9,1.8l-19.1,11.4l-2.6,1.6l-7.4,4.4l-2.4,1.5l-11.1,6.6l-2.2,1.3l-9.7,5.7l-8.6,5.2l-5.7,3.3l-1.5,0.9l-2.2,1.2
				l-1.3,0.8l-8.5,4.8l-1.1,1.1h-1.1c-0.4,0.2-0.7,0.3-1.2,0.5l-0.4,0.2c-0.5,0.2-0.9,0.4-1.6,0.6c-0.4,0.2-0.8,0.3-1.3,0.4
				c-0.1,0-0.2,0-0.5,0.1c-0.5,0.1-0.6,0.2-0.7,0.2c-0.1,0-0.3,0.1-0.8,0.2l-0.2,0.1c-0.5,0.1-0.9,0.2-1.5,0.2c-0.1,0-0.2,0-0.4,0
				s-0.3,0-0.3,0.1C863.9,1605.5,863.5,1605.5,862.8,1605.5z M858.6,1605c0.1,0,0.2,0,0.2,0S858.7,1605,858.6,1605z M855.2,1595.9
				L855.2,1595.9L855.2,1595.9z M855.8,1595C855.8,1595,855.7,1595,855.8,1595C855.8,1595.1,855.8,1595.1,855.8,1595z M911.7,1568.8
				l-1.4,1l10.8-6.4l2.3-1.4l5-3l2.6-1.5l2.5-1.5l19.2-11.4l2.8-1.7l6-3.6l3.1-1.8l6-3.7l6.3-3.7l3.1-1.9l9.8-5.9l3.4-2l10-6.2
				l6.9-4.1l3.4-2.1l14.2-8.7l3.7-2.2l23.8-14.8l7.6-4.6l7.5-4.7l23.2-14.4l15.7-9.8l7.8-5l15.9-10l7.9-5.1l20.2-12.8l16.1-10.3
				l16.1-10.4l16-10.4l23.7-15.6l0.2-0.2l0.5-0.2l12.4-8.3l1.8-1.3l2.5-1.7l0.9-0.7l18.2-12.9l10.6-7.8l2.8-2.1l6-4.4l3-2.3
				l13.1-9.9l14.1-11l3.6-2.9l15.4-12.2l3.9-3.2l8.2-6.6l4.1-3.4l4.3-3.5l17.2-14.5l4.4-3.8l4.6-3.9l4.5-3.9l4.7-4l14-12.2
				l24.1-21.7l14.9-13.7l15.2-14.3l5.1-4.9l5.2-4.9l5.2-5l15.7-15.4l10.6-10.6l5.3-5.4l5.4-5.4l5.4-5.5l10.8-11.2l5.4-5.7l5.5-5.7
				l5.5-5.8l11-11.8l11-12l5.5-6.1l5.5-6.2l5.6-6.2l11.2-12.6l5.6-6.4l11.2-12.9l11.2-13.1l5.6-6.7l11.2-13.5l11.2-13.7l5.6-7
				l11.2-14.1l11.2-14.3l5.5-7.2l11-14.7l11-14.9l11-15.1l5.4-7.6l10.8-15.5l10.8-15.7l11.5-17.4l2.4-3.8l2.4-3.9l10.1-16.4l2.5-4.3
				l5.1-8.9l7.6-13.9l7.6-14.6l7.6-15.1l2.5-5.2l7.3-15.7l2.4-5.4l7-16.2l4.5-10.9l4.3-11.2l4.1-11.1l3.9-11.3l1.8-5.6l3.5-11.3
				l1.6-5.6l3.1-11.3l1.5-5.6l1.4-5.6l1.3-5.6l2.3-11.3l1.1-5.6l1-5.6l0.9-5.5l0.8-5.5l0.7-5.5l0.6-5.5l0.5-5.4l0.4-5.4l0.4-9.4
				v-10.4l-0.3-7.8l-0.6-7.7l-0.9-7.5l-1.2-7.6l-0.5-2.6l-0.5-2.5l-1.3-5l-0.7-2.4l-1.7-4.8l-0.9-2.3l-2.1-4.5l-1.1-2.1l-2.4-4.2
				l-1.3-2l-1.4-2l-1.4-2l-1.4-1.9l-3.2-3.7l-1.6-1.7l-3.6-3.6l-1.8-1.6l-2-1.7l-2-1.6l-2-1.6l-4.4-3.1l-2.2-1.5l-4.7-2.8l-5-2.6
				l-7.9-3.7l-5.6-2.3l-5.8-2.1l-9.3-2.9l-6.5-1.7l-6.7-1.5l-10.6-2l-7.4-1.2l-7.6-1l-12-1.2l-8.2-0.6l-12.9-0.6l-14.7-0.3l-5-0.3
				l-5.2,0.1l-10.5,0.4l-5.1,0.3l-10.2,0.8l-18.2,1.9l-23.2,3.2l-7.5,1.2l1.1,0.1l9.9,1.2l20.3,3.5l14.7,3.1l15.8,4.2l4.4,1.3l8,2.8
				l11.4,4.3l9.8,4.8l2.5,1.3l5.9,3.4l3,1.8l2.7,1.8l2.6,1.8l2.7,2l2.4,1.9l4.7,3.9l2.2,2l2.2,2.1l2.1,2.1l2.1,2.2l3.9,4.3l1.9,2.3
				l3.2,4.2l1.3,1.8l3.4,5.3l2.1,3.7l2.8,5.8l1.7,4.1l2.2,6.2l1.8,6.4l1.5,6.7l1.2,6.7l1.2,9.2l0.6,7l0.3,6l0.1,4.8v4.8l-0.2,9.6
				l-0.2,4.9l-0.3,4.9l-0.4,4.9l-1,9.7l-0.6,4.9l-1.4,9.6l-1.6,9.6l-2.7,13.9l-3,13.4l-3.3,12.7l-2.2,8l-2.2,7.6l-6,19.2l-1.4,4
				l-2,6.2l-4.2,11.7v1.3l-0.8,0.9l-0.3,0.7l-0.3,0.8l-0.6,1.2l-0.5,1.2l-0.6,1.4l-0.5,1.3l-0.9,1.8l-0.6,1.4l-1.7,3.5l-0.6,1.5
				l-4.5,9.7l-17.4,34.7l-7.1,13.4l-1.5,2.9l-9.8,17.8l-16.8,29.1l-12.7,21l-6.8,10.9l-2.4,3.7l-4.7,7.4l-2.5,3.8l-4.9,7.6
				l-15.7,23.4l-2.8,4l-5.5,8l-8.6,12.2l-3,4.1l-5.9,8.2l-6.1,8.3l-6.3,8.3l-3.1,4.2l-9.8,12.7l-10.1,12.7l-10.4,12.7l-3.6,4.3
				l-7,8.6l-11,13l-7.5,8.7l-9.6,10.8l-7.8,8.7l-5.9,6.5l-12.1,13l-10,10.4c-0.1,0.2-0.3,0.4-0.4,0.5l-0.6,0.8l-1.5,2l-3.1,3.9
				l-1.6,2.1l-5.1,6.3l-5.4,6.3l-1.8,2l-5.6,6.5l-6,6.6l-4.1,4.3l-4.2,4.6l-7.7,7.9l-9.2,9.2l-4.8,4.7l-4.7,4.7l-4.9,4.8l-10,9.6
				l-5.1,4.8l-5.2,4.8l-5.3,4.8l-5.3,4.9l-5.4,4.9l-5.5,4.9l-5.6,4.9l-5.6,5l-5.7,5l-11.6,10.1l-5.9,5l-5.9,5.1l-12,10.2l-12.2,10.2
				l-12.4,10.2l-15.8,12.8l-12.7,10.2l-12.8,10.2l-12.9,10.2l-13,10.2l-26.2,20.3l-26.2,20.1l-29.3,22.2l-13,9.7l-6.4,4.8
				l-50.5,37.1l-36,26l-5.8,4.1l-5.7,4.1l-5.7,4.1l-22,15.7l-5.3,3.7l-5.2,3.7l-42.4,29.7l-2.2,1.6l-6.4,4.4l-4.2,3l-2,1.3
				L911.7,1568.8z"/>
		</g>
		<g>
			<path id="Verde_1_" inkscape:connector-curvature="0" class="st4" d="M1598.8,285h2.8h2.7l2.7,0.1h1.2h2.2l4.2,0.1l4.2,0.2
				l4.1,0.2l4.1,0.3l4,0.3l3.9,0.3l3.9,0.4l3.8,0.4l3.8,0.5l3.7,0.5l3.6,0.6l3.6,0.6l3.5,0.7l3.5,0.7l3.4,0.7l3.3,0.8l3.3,0.8
				l3.2,0.9l3.2,0.9l3.1,1l3,1l3,1.1l2.9,1.1l2.9,1.1l2.9,1.2l2.8,1.2l2.8,1.3l2.7,1.3l2.7,1.4l2.6,1.4l2.5,1.5l2.5,1.5l2.4,1.6
				l2.3,1.6l2.3,1.6l2.2,1.7l2.2,1.7l2.1,1.8l2,1.8l2,1.9l1.9,1.9l1.8,2l1.8,2l1.7,2.1l1.7,2.1l1.6,2.2l1.5,2.2l1.5,2.2l1.4,2.3
				l1.3,2.3l1.3,2.4l1.2,2.4l1.2,2.5l1.1,2.5l1,2.6l1,2.6l0.9,2.7l0.8,2.7l0.8,2.8l0.7,2.8l0.6,2.9l0.6,2.9l0.5,2.9l0.2,1.5l0,0
				l0.2,1.4l0.4,2.7l0.3,2.7l0.3,2.8l0.3,2.8l0.3,2.8l0.2,2.8l0.2,2.8l0.2,2.8l0.1,2.8l0.1,2.9l0.1,2.9v2.9v2.9v2.9v2.9l-0.1,4.3
				l-0.2,5.8l-0.4,5.8l-0.5,5.9l-0.6,5.9l-0.7,5.9l-0.8,6l-0.8,6l-0.9,6l-1,6l-1.1,6l-1.2,6.1l-1.3,6.1l-1.3,6.1l-1.4,6.1l-1.5,6.1
				l-1.6,6.1l-1.6,6.1l-1.7,6.1l-1.8,6.1l-1.8,6.1l-1.9,6l-1.9,6l-2,6l-2,6l-2.1,6l-2.1,5.9l-2.2,5.9l-2.2,5.9l-2.3,5.8l-2.3,5.8
				l-2.3,5.7l-2.3,5.7l-2.4,5.7l-2.4,5.6l-2.4,5.5l-2.4,5.5l-2.5,5.4l-2.5,5.4l-2.5,5.3l-2.5,5.2l-2.5,5.2l-2.5,5.1l-2.5,5l-2.5,4.9
				l-2.5,4.9l-2.5,4.8l-2.5,4.7l-2.5,4.6l-2.5,4.5l-2.5,4.4l-2.4,4.3l-2.4,4.2l-2.4,4.1l-2.4,4l-2.4,3.9l-1.2,1.9l0,0l-2.6,4.2
				l-5.1,8.5l-5.1,8.4l-5.1,8.4l-5.2,8.3l-5.2,8.3l-5.2,8.2l-5.2,8.1l-5.2,8.1l-5.2,8l-5.3,7.9l-5.3,7.9l-5.3,7.8l-5.3,7.8l-5.3,7.7
				l-5.3,7.6l-5.3,7.6l-5.3,7.5l-5.3,7.4l-5.3,7.4l-5.3,7.3l-5.3,7.3l-5.3,7.2l-5.3,7.1l-5.3,7.1l-5.3,7l-5.3,6.9l-5.3,6.9l-5.3,6.8
				l-5.3,6.8l-5.3,6.7l-5.3,6.6l-5.3,6.6l-5.3,6.5l-5.3,6.4l-5.3,6.4l-5.3,6.3l-5.2,6.2l-5.2,6.2l-5.2,6.1l-5.2,6l-5.2,6l-5.2,5.9
				l-5.1,5.8l-5.1,5.8l-5.1,5.7l-5.1,5.7l-5.1,5.6l-5,5.5l-5,5.5l-5,5.4l-5,5.3l-4.9,5.3l-4.9,5.2l-4.9,5.1l-4.8,5.1l-4.8,5
				l-4.8,4.9l-4.7,4.9l-4.7,4.8l-4.7,4.7l-4.6,4.7l-4.6,4.6l-4.6,4.5l-4.5,4.5l-4.5,4.4l-4.4,4.3l-4.4,4.3l-4.4,4.2l-4.3,4.1
				l-4.3,4.1l-4.2,4l-4.2,3.9l-4.1,3.9l-4.1,3.8l-4,3.7l-4,3.7l-3.9,3.6l-3.9,3.5l-3.8,3.4l-3.8,3.4l-3.7,3.3l-3.7,3.2l-3.6,3.2
				l-3.5,3.1l-3.5,3l-3.4,3l-3.4,2.9l-3.3,2.9l-3.2,2.9l-3.2,2.8l-3.1,2.7l-3,2.7l-3,2.6l-2.9,2.5l-2.9,2.4l-2.9,2.4l-2.8,2.3
				l-2.7,2.2l-2.6,2.2l-2.6,2.1l-2.5,2l-2.4,2l-2.3,1.9l-2.3,1.8l-1.6,1.3l-1.1,0.9l-1.1,0.8l-1,0.8l-1,0.8l-1,0.8l-1,0.8l-1,0.7
				l-0.9,0.7l-0.9,0.7l-0.9,0.7l-0.9,0.7l-0.8,0.7l-0.8,0.6l-0.8,0.6l-0.8,0.6l-0.8,0.6l-0.7,0.6l-0.7,0.5l-0.7,0.5l-0.7,0.5
				l-0.7,0.5l-0.6,0.5l-0.6,0.5l-0.6,0.4l-0.6,0.4l-0.5,0.4l-0.5,0.4l-0.5,0.4l-0.5,0.3l-0.4,0.3l-0.4,0.3l-0.4,0.3l-0.4,0.3
				l-0.4,0.3l-0.3,0.2l-0.3,0.2l-0.3,0.2l-0.3,0.2l-0.2,0.2l-0.2,0.2l-0.2,0.1l-0.2,0.1l-0.1,0.1l-0.1,0.1h-0.1l0,0l0,0l-7.6,5.6
				l-15.2,11.1l-15.3,11.1l-15.3,11.1l-15.3,11l-11.5,8.2l-7.7,5.4l-7.7,5.4l-7.7,5.4l-7.6,5.3l-7.6,5.3l-7.5,5.2l-7.5,5.2l-7.5,5.2
				l-7.4,5.1l-7.3,5l-7.3,5l-7.2,4.9l-7.1,4.9l-5.3,3.6l-3.5,2.4l-3.4,2.4l-3.4,2.4l-3.4,2.4l-3.4,2.4l-3.3,2.3l-3.3,2.3l-3.3,2.3
				l-3.3,2.3l-3.2,2.3l-3.2,2.3l-3.2,2.2l-3.2,2.2l-3.1,2.2l-3.1,2.2l-3.1,2.1l-3,2.1l-3,2.1l-3,2.1l-3,2.1l-2.9,2l-2.9,2l-2.9,2
				l-2.9,2l-2.9,1.9l-2.8,1.9l-2.8,1.9l-2.8,1.9l-2.7,1.8l-2.7,1.8l-2.7,1.8l-2.6,1.7l-2.6,1.7l-2.5,1.7l-2.5,1.7l-2.5,1.6l-2.4,1.6
				l-2.4,1.6l-2.3,1.5l-2.3,1.5l-2.2,1.5l-2.2,1.4l-2.1,1.4l-2.1,1.4l-2,1.4l-2,1.3l-2,1.3l-1.9,1.3l-1.9,1.2l-1.8,1.2l-1.8,1.2
				l-1.7,1.1l-1.6,1.1l-1.6,1l-1.5,1l-1.5,1l-1.4,0.9l-1.4,0.9l-1.3,0.9l-1.3,0.8l-1.2,0.8l-1.1,0.8l-1.1,0.7l-1,0.7l-1,0.6
				l-0.9,0.6l-0.8,0.6l-0.8,0.5l-0.7,0.5l-0.7,0.4l-0.6,0.4l-0.5,0.3l-0.5,0.3l-0.4,0.3l-0.3,0.2l-0.3,0.2l-0.2,0.1l-0.1,0.1h-0.1
				l0,0l-0.3,0.2c-0.3,0.2-0.2,0.1-0.4,0.2c-0.7,0.4-0.3,0.2-1.4,0.6c-1,0.5-0.6,0.3-1.3,0.5c-0.7,0.3-0.2,0.1-1.4,0.4
				c-1.2,0.4-0.7,0.3-1.5,0.4c-0.7,0.2-0.3,0.1-1.5,0.3c-1.3,0.2-0.7,0.2-1.6,0.3c-0.3,0-0.1,0-0.5,0H804h1h-0.3h-0.3
				c-0.4,0-0.2,0-0.4,0c-0.6,0-0.3,0-1-0.2c-0.7-0.1-0.5,0-0.7-0.2c-0.3-0.1-0.2,0-0.3-0.4c-0.3-0.3-0.3-0.2-0.2-0.4
				c-0.1-0.3-0.1-0.1,0.2-0.5c0.2-0.5,0.1-0.3,0.4-0.6c0.1-0.2,0-0.1,0.3-0.2l0.2-0.2l0,0l0,0l0.1-0.1l0.1-0.1l0.2-0.1l0.2-0.2
				l0.3-0.2l0.3-0.2l0.3-0.2l0.4-0.3l0.4-0.3l0.5-0.3l0.5-0.4l0.5-0.4l0.6-0.4l0.6-0.5l0.7-0.5l0.7-0.5l0.7-0.5l0.8-0.6l0.8-0.6
				l0.8-0.6l0.9-0.7l0.9-0.7l1-0.7l1-0.7l1-0.8l1.1-0.8l1.1-0.8l1.1-0.9l1.2-0.9l1.2-0.9l1.2-0.9l1.3-1l1.3-1l1.3-1l1.4-1l1.4-1.1
				l1.4-1.1l1.5-1.1l1.5-1.1l1.5-1.2l1.6-1.2l1.6-1.2l1.6-1.2l1.6-1.3l1.7-1.3l1.7-1.3l1.7-1.3l1.8-1.4l1.8-1.4l1.8-1.4l1.8-1.4
				l1.9-1.4l1.9-1.5l1.9-1.5l2-1.5l2-1.5l2-1.6l2-1.6l2.1-1.6l2.1-1.6l2.1-1.6l2.1-1.7l2.2-1.7l2.2-1.7l2.2-1.7l2.2-1.7l2.3-1.8
				l2.3-1.8l2.3-1.8l2.3-1.8l2.3-1.8l2.4-1.9l2.4-1.9l2.4-1.9l2.4-1.9l2.5-1.9l3.6-2.9l4.9-3.9l5-3.9l5.1-4l5.2-4.1l5.2-4.1l5.3-4.2
				l5.4-4.2l5.4-4.3l5.5-4.4l5.5-4.4l5.6-4.5l5.7-4.5l5.7-4.6l5.8-4.6l5.8-4.7l5.9-4.7l5.9-4.8l5.9-4.8l6-4.9l6-4.9l6-4.9l6.1-5
				l6.1-5l6.1-5l6.1-5.1l6.2-5.1l6.2-5.1l6.2-5.2l9.3-7.9l12.5-10.5l12.5-10.6l12.5-10.7l12.5-10.7l12.5-10.8l12.4-10.8l12.4-10.9
				l12.3-10.9l12.2-10.9l9-8.2l6-5.4l5.9-5.4l5.9-5.4l5.9-5.4l5.8-5.4l5.8-5.4l5.7-5.4l5.7-5.4l5.6-5.4l5.6-5.4l5.5-5.3l5.4-5.3
				l5.4-5.3l5.3-5.3l5.2-5.2l5.2-5.2l5.1-5.2l5-5.2l5-5.1l4.9-5.1l4.8-5.1l4.7-5l4.6-5l4.5-5l4.4-4.9l4.3-4.9l4.3-4.8l4.2-4.8
				l4.1-4.7l3-3.5l2-2.4l2-2.4l1.9-2.4l1.9-2.4l1.9-2.3l1.9-2.3l1.8-2.3l1.8-2.3l1.8-2.3l1.8-2.3l1.7-2.3l1.7-2.2l1.7-2.2l1.6-2.2
				l1.6-2.2l1.6-2.2l1.5-2.2l1.5-2.2l1.5-2.1l0.7-1.1c0.1-0.1,0.1-0.2,0.2-0.2l2-2.3l3.9-4.5l3.9-4.6l3.9-4.6l5.8-6.9l7.6-9.1
				l7.5-9.1l7.3-9.1l7.2-9.1l5.3-6.9l3.4-4.5l3.4-4.5l3.4-4.5l3.3-4.5l3.3-4.5l3.3-4.5l3.2-4.5l3.2-4.5l3.2-4.5l3.1-4.5l3.1-4.5
				l3.1-4.5l3-4.4l3-4.4l3-4.4l2.9-4.4l2.9-4.4l2.9-4.4l2.9-4.4l2.9-4.3l2.9-4.3l2.8-4.3l2.8-4.3l2.8-4.3l2.7-4.3l2.7-4.2l2.7-4.2
				l2.6-4.2l2.6-4.2l2.6-4.1l2.6-4.1l2.5-4.1l2.5-4.1l2.5-4l2.4-4l2.4-4l2.4-4l2.3-3.9l2.3-3.9l2.3-3.9l2.2-3.9l2.2-3.8l2.2-3.8
				l2.1-3.8l2.1-3.7l2.1-3.7l2-3.7l2-3.6l2-3.6l1.9-3.6l1.9-3.5l1.9-3.5l1.8-3.4l1.8-3.4l1.8-3.4l1.8-3.3l1.7-3.3l1.7-3.2l1.7-3.2
				l1.6-3.2l1.6-3.1l1.6-3.1l1.5-3l1.5-3l1.5-2.9l1.4-2.9l1.4-2.9l1.4-2.9l1.3-2.8l1.3-2.8l1.3-2.7l1.3-2.7l1.2-2.6l1.2-2.6l1.2-2.5
				l1.1-2.5l1.1-2.4l1.1-2.4l1-2.3l1-2.3l1-2.2l0.9-2.2l0.9-2.1l0.9-2l0.9-2l0.8-1.9l0.8-1.9l0.8-1.8l0.7-1.7l0.7-1.7l0.7-1.6
				l0.6-1.6l0.6-1.5l0.6-1.4l0.6-1.4l0.5-1.3l0.5-1.2l0.5-1.2l0.4-1.1l0.4-1l0.4-1l0.3-0.9l0.3-0.8l0.3-0.7l0.3-0.7l0.2-0.6l0.2-0.5
				l0.2-0.5l0.1-0.4l0.1-0.3l0.1-0.2l0.1-0.2v-0.1v-0.1v-0.1l0.1-0.2l0.1-0.2l0.1-0.3l0.1-0.4l0.1-0.4l0.2-0.5l0.2-0.5l0.2-0.6
				l0.2-0.7l0.2-0.7l0.3-0.8l0.3-0.8l0.3-0.9l0.3-0.9l0.3-1l0.3-1l0.3-1.1l0.4-1.1l0.4-1.2l0.4-1.2l0.4-1.3l0.4-1.3l0.4-1.4l0.4-1.4
				l0.4-1.4l0.4-1.5l0.5-1.5l0.5-1.6l0.5-1.6l0.5-1.7l0.5-1.7l0.5-1.7l0.5-1.8l0.5-1.8l0.5-1.8l0.8-2.8l1-3.8l1-3.9l1-4l1-4.1l1-4.2
				l1-4.4l1-4.4l1-4.5l1-4.6l1-4.7l0.9-4.8l0.9-4.8l0.9-4.9l0.8-4.9l0.8-5l0.7-5l0.7-5l0.6-5.1l0.6-5.1l0.5-5.1l0.4-5.1l0.4-5.1
				l0.3-5.1l0.2-5.1l0.1-5.1l0.1-5v-5l-0.1-5l-0.2-3.7l-0.1-2.5l-0.2-2.5l-0.2-2.5l-0.2-2.5l-0.2-2.4l-0.3-2.4l-0.3-2.4l-0.3-2.4
				l-0.4-2.4l-0.4-2.4l-0.4-2.3l-0.5-2.3l-0.5-2.3l-0.5-2.3l-0.5-2.2l-0.6-2.2l-0.6-2.2l-0.6-2.2l-0.7-2.1l-0.7-2.1l-0.8-2.1
				l-0.8-2.1l-0.8-2l-0.9-2l-0.9-2l-0.9-1.9l-1-1.9l-1-1.9l-1.1-1.8l-1.1-1.8l-1.1-1.8l-0.6-0.9l-0.8-1.2l-1.7-2.3l-1.7-2.3
				l-1.8-2.3l-1.8-2.2l-1.9-2.2l-2-2.2l-2-2.1l-2.1-2.1l-2.2-2.1l-2.2-2l-2.3-2l-2.4-2l-2.5-1.9l-2.6-1.9l-2.7-1.8l-2.8-1.8
				l-2.9-1.8l-2.2-1.3l-1.5-0.9l-1.5-0.8l-1.6-0.8l-1.6-0.8l-1.6-0.8l-1.7-0.8l-1.7-0.8l-1.7-0.8l-1.8-0.8l-1.8-0.8l-1.8-0.8
				l-1.8-0.7l-1.9-0.7l-1.9-0.7l-1.9-0.7l-2-0.7l-2-0.7l-2-0.7l-2.1-0.7l-2.1-0.7l-2.1-0.6l-2.2-0.6l-2.2-0.6l-2.3-0.6l-2.3-0.6
				l-2.3-0.6l-2.4-0.6l-1.2-0.3l-2.4-0.5l-4.7-1l-4.7-0.9l-4.7-0.8l-4.6-0.8l-4.6-0.7l-4.5-0.6l-4.5-0.5l-4.4-0.5l-4.3-0.4l-3.2-0.3
				l-2.1-0.2l-2.1-0.1l-2.1-0.1l-2.1-0.1l-2-0.1l-2-0.1l-2-0.1l-1.9-0.1l-1.9-0.1h-1.9h-1.8h-1.8h-1.8h-1.7h-1.7h-1.6h-1.6h-1.5
				h-1.5h-1.5h-1.4h-1.4h-1.3h-1.3h-1.2h-1.1h-1.1h-1h-1h-0.9h-0.9h-0.8h-0.7h-0.7h-0.6h-0.5h-0.5h-0.4h-0.3h-0.3h-0.2h-0.1l0,0l0,0
				c-3.3,0.3-5.1-0.5-4-1.9c1.2-1.6,5.4-3.3,9.4-3.9l0,0l0,0h0.1h0.1h0.2l0.4-0.1l0.5-0.1l0.7-0.1l0.8-0.1l0.9-0.1l1-0.1l1.1-0.2
				l1.2-0.2l1.3-0.2l1.4-0.2l1.5-0.2l1.6-0.2l1.7-0.2l1.8-0.2l1.9-0.3l2-0.3l2.1-0.3l2.1-0.3l2.2-0.3l2.3-0.3l2.4-0.3l2.4-0.3
				l2.5-0.3l2.6-0.3l2.6-0.3l2.7-0.3l2.7-0.3l2.8-0.3l2.8-0.3l2.8-0.3l2.9-0.3l4.3-0.5l5.9-0.6l6-0.6l6.1-0.6l6.1-0.5l6.1-0.5
				l6.2-0.5l6.1-0.4l6.1-0.4l4.5-0.2l3-0.1l2.9-0.1l2.9-0.1l2.9-0.1l2.9-0.1l2.9-0.1h2.9L1598.8,285z"/>
			<path class="st5" d="M806.7,1546.6H804c-0.6,0-1.2,0-2.1-0.3c-0.8-0.1-1.5-0.3-2.1-0.7c-0.9-0.5-1.7-1.2-2.2-2.2
				c-0.6-0.9-0.9-1.9-0.9-3s0.3-2.2,1-3.2c0.2-0.4,0.4-0.7,0.8-1.1c0.3-0.4,0.8-0.8,1.2-1.1l0.4-0.4l1.4-0.9l14.6-10.8l1.1-0.9
				l14.4-10.9l1.5-1.2l4.6-3.5l1.6-1.3l21.6-16.6l4-3.2l6.1-4.7l2.1-1.7l35.5-27.7l4.9-3.9l31.3-24.7l39.2-31.4l5.8-4.7l5.9-4.7
				l48-39.4l6.1-5.1l12.4-10.2l28-23.6l12.5-10.6l24.9-21.4l12.5-10.8l12.4-10.8l12.4-10.9l12.3-10.9l27.2-24.4l17.7-16.2l11.6-10.8
				l11.4-10.8l16.7-16.1l10.8-10.6l15.7-15.7l5.1-5.2l5-5.2l5-5.1l4.9-5.1l9.5-10.1l4.6-5l8.9-9.9l4.3-4.9l4.4-4.9l11.3-13l3.8-4.6
				l3.8-4.7l3.7-4.5l7-8.9l1.7-2.3l3.3-4.3l4.6-6.4l3-4.4l1.4-2l1.1-1.6c0.2-0.2,0.3-0.4,0.5-0.6l5.6-6.4l13.6-16.1l7.5-9.1l7.4-9.1
				l7.2-9.1l7.2-9.1l15.6-20.4l10-13.5l9.7-13.5l18.5-26.8l8.8-13.2l2.8-4.4l5.7-8.7l8.2-12.9l2.6-4.3l5.3-8.5l5.1-8.4l5.1-8.3
				l4.9-8.2l2.5-4.1l13.8-23.8l12.6-22.8l18.5-35.3l14.1-28.3l12.7-26.9l6.1-13.8l1.8-4.2l4.1-9.4l7-17.1l0.7-1.9l1.2-3.1v-0.4
				l0.5-1.2l0.3-1l0.5-1.2l0.5-1.7l1.1-3.1l1-3.2l1.1-3.3l1.9-6.5l0.5-1.7l1.4-4.5l3.7-12.9l2.9-11.7l2-8.3l3.9-17.9l1-4.6l2.6-14.5
				l1.6-9.8l1.4-9.9l1.2-10.2l0.5-5l0.8-10.1l0.3-5l0.2-5l0.2-10v-4.9l-0.1-4.8l-0.3-6.1l-0.8-9.5l-0.9-6.9l-1.1-6.7l-1.9-8.7
				l-1.7-6.2l-1.3-3.9l-2.3-5.8l-2.5-5.5l-1.8-3.5l-3.6-5.9l-0.7-1.1l-3.2-4.4l-1.7-2.2l-1.7-2.1l-1.8-2.1l-1.9-2.1l-1.9-2l-2-2
				l-2.1-2l-2.1-1.9l-2.2-1.9l-2.2-1.9l-2.4-1.8l-2.4-1.7l-2.6-1.7l-2.7-1.7l-2.7-1.7l-3.5-2.1l-5.9-3l-10.1-4.6l-7.2-2.7l-9.8-3.4
				l-6.2-1.7l-10.1-2.6l-6.9-1.4l-4.6-0.9l-9.2-1.6l-4.6-0.7l-4.4-0.6l-8.9-1l-9.4-0.9l-15.6-0.8h-35.1c-4.5,0.3-7.5-0.8-8.9-3.4
				c-1.1-2.1-0.9-4.5,0.7-6.5c2.7-3.5,9.2-5.3,12.7-5.8l14.4-2l1.7-0.2l10.1-1.5l14.6-1.8l20.7-2.3l18.1-1.8l18.5-1.5l12.4-0.8
				l22.3-0.8h3.3l3.1,0.6h5.1l3.6,0.1h2.3l4.3,0.1l8.5,0.4l12.2,0.9l7.9,0.8l7.7,1l7.4,1.2l10.7,2.1l6.9,1.6l6.7,1.8l6.4,2l9.2,3.3
				l5.8,2.4l5.6,2.7l5.5,2.9l5.1,3.1l2.4,1.6l4.8,3.3l4.5,3.5l2.2,1.8l2.1,1.9l2.1,2l2,2.1l3.7,4.1l3.5,4.3l1.7,2.3l3.1,4.5l1.5,2.4
				l2.7,4.8l2.5,5l1.2,2.7l2,5.3l0.9,2.8l1.6,5.6l0.7,3l1.2,5.9l0.5,3l0.8,5.6l1.2,11.1l0.6,8.4l0.3,8.6v11.5l-0.1,4.3l-0.2,6
				l-0.4,5.8l-0.5,6l-0.6,6l-0.7,6l-1.6,12.1l-0.9,6.1l-1,6.1l-1.1,6.1l-1.2,6.2l-2.6,12.3l-1.4,6.2l-1.5,6.2l-3.2,12.3l-1.7,6.2
				l-3.6,12.3l-3.8,12.1l-4,12.1l-4.2,12l-4.4,12l-9.1,23l-4.8,11.4l-4.8,11.1l-7.4,16.2l-7.4,15.6l-7.4,14.9l-5,9.6l-5,9.2l-7.2,13
				l-4.8,8.2l-2.4,4.1l-1.2,1.9l-7.6,12.6l-10.2,16.7l-10.5,16.6l-5.2,8.2l-10.4,16.1l-5.2,8l-10.7,15.8l-10.6,15.6l-5.3,7.7
				l-10.6,15.2l-5.3,7.5l-10.6,14.8l-10.6,14.6l-5.3,7.2l-10.6,14.2l-5.3,7l-10.6,13.8l-10.6,13.6l-5.3,6.7l-10.6,13.2l-5.3,6.5
				l-10.6,12.8l-15.7,18.7l-5.2,6.1l-10.4,12l-15.5,17.5l-10.3,11.4l-15.2,16.6l-5,5.4l-5,5.3l-4.9,5.3l-4.9,5.2l-4.9,5.1l-4.8,5.1
				l-4.8,5l-4.9,5l-4.7,4.9l-4.8,4.9l-4.8,4.8l-4.6,4.7l-4.7,4.7l-4.7,4.6l-4.5,4.5l-13.4,13.1l-17.3,16.6l-4.3,4l-4.1,3.9l-16.2,15
				l-15.4,13.8l-3.8,3.3l-7.1,6.4l-3.6,3.1l-3.4,3l-6.9,5.9l-3.2,2.8l-6.5,5.5l-3,2.6l-14.6,12.1l-2.7,2.2l-2.6,2.2l-14.7,11.9
				l-1,0.7l-4.1,3.3l-0.9,0.6l-3.3,2.6l-1,0.8l-13.9,10.3l-0.6,0.6l-0.4,0.2l-1.1,1.1h-0.5l-6.2,4.6l-15.3,11.1l-30.7,22.2l-15.3,11
				l-34.5,24.4l-44.9,31.4l-34.1,23.5l-3.6,2.4l-33.6,23l-6.5,4.3l-6.3,4.3l-3.1,2.1l-23.9,16.1l-2.8,1.9l-16.2,10.9l-5.1,3.4
				l-5,3.4l-2.5,1.6l-11.4,7.6l-2.1,1.3l-4,2.7l-2.1,1.4l-3.9,2.5l-2,1.3l-1.8,1.1l-6.9,4.6l-1.5,0.9l-7.1,4.7l-2.2,1.4l-1.3,0.9
				l-3.7,2.4l-1,0.7l-4.5,2.9l-1.1,1.1H817c-0.4,0.2-0.7,0.3-1.2,0.5c-0.1,0-0.2,0.1-0.3,0.1c-0.6,0.3-1,0.5-1.6,0.6
				c-0.4,0.1-0.7,0.3-1.2,0.4c-0.1,0-0.2,0-0.4,0.1s-0.3,0.1-0.4,0.1c-0.6,0.2-0.9,0.3-1.5,0.4c-0.4,0.1-0.6,0.1-1,0.2l-0.6,0.1
				c-0.2,0-0.3,0.1-0.4,0.1c-0.4,0.1-0.8,0.2-1.4,0.3L806.7,1546.6z M808.5,1546.3L808.5,1546.3L808.5,1546.3z M816.5,1543.9
				L816.5,1543.9L816.5,1543.9z M806.2,1542.8L806.2,1542.8L806.2,1542.8z M801.5,1534.3C801.4,1534.3,801.4,1534.3,801.5,1534.3
				C801.4,1534.3,801.4,1534.3,801.5,1534.3z M845.5,1513.1l-0.4,0.3l0.3-0.2l3.9-2.5l2-1.4l4.2-2.8l2.1-1.3l2.2-1.5l11.7-7.7
				l4.9-3.3l13.1-8.7l8.2-5.6l2.9-1.9l2.8-1.9l24.2-16.3l6.2-4.3l6.5-4.3l6.4-4.5l36-24.5l7.1-4.9l21.7-15l29.8-20.7l38.1-26.8
				l11.5-8.1l15.3-11l30.6-22.2l15.2-11.1l22.5-16.7l0.9-0.8l3.7-2.9l0.9-0.6l4-3.2l1-0.7l2.6-2.1l2.3-1.8l29.2-24.1l3-2.6l6.4-5.4
				l3.2-2.8l6.8-5.8l3.4-3l3.6-3.1l7.1-6.3l3.8-3.3l15.3-13.7l16.1-14.9l4.1-3.9l4.3-4l17.2-16.5l13.3-13l4.5-4.5l4.7-4.6l4.6-4.6
				l4.6-4.7l4.8-4.8l4.7-4.8l4.7-4.9l4.9-5l4.8-5l4.8-5.1l4.9-5.1l4.9-5.2l4.9-5.3l5-5.3l5-5.4l15.1-16.6l10.2-11.4l15.4-17.5
				l10.4-12l5.2-6.1l15.7-18.6l10.6-12.7l5.3-6.5l10.6-13.1l5.3-6.7l10.6-13.5l10.6-13.7l5.3-7l10.6-14.1l5.3-7.1l10.6-14.5
				l10.6-14.7l5.3-7.4l10.6-15.1l5.3-7.6l10.6-15.5l10.6-15.7l5.2-7.9l10.4-16.1l5.2-8.1l10.4-16.5l10.2-16.6l11.2-18.4l4.7-8.1
				l7.1-12.9l4.9-9.1l4.9-9.5l7.3-14.8l7.3-15.5l7.3-16l7-16.5l2.3-5.7l9-22.9l4.3-11.7l4.1-11.8l3.9-11.9l3.7-11.9l3.5-12.1l1.7-6
				l3.1-12.1l1.5-6l1.4-6l2.5-12.1l1.2-6l1.1-5.9l1-5.9l0.9-5.9l1.6-11.9l0.7-5.8l0.6-5.8l0.5-5.8l0.4-5.6l0.3-9.9v-11.2l-0.3-8.3
				l-0.6-8.1l-1.2-10.7l-0.8-5.4l-0.5-2.7l-1.1-5.5l-0.6-2.6l-1.5-5.2l-0.8-2.5l-1.9-4.9l-1-2.3l-2.3-4.6l-2.4-4.4l-1.3-2.1
				l-2.8-4.2l-1.5-2l-3.2-3.9l-3.4-3.7l-1.7-1.7l-1.9-1.8l-1.9-1.7l-1.9-1.6l-4.1-3.2l-4.4-3.1l-2.2-1.5l-4.7-2.8l-5-2.6l-5.2-2.5
				l-5.4-2.3l-8.7-3.2l-6-1.9l-6.3-1.7l-6.5-1.5l-10.3-2l-7.1-1.2l-7.4-1l-7.6-0.8l-11.9-0.9l-8.2-0.4l-10.1-0.2h-5.8l-3.1-0.6h-2.3
				l-21.9,0.8l-12.1,0.8l-18.3,1.5l-17.9,1.8l-31.3,3.5l15.7,0.8l9.6,0.9l9.1,1l4.5,0.6l4.8,0.7l9.4,1.6l4.8,0.9l8.4,1.8l13.6,3.6
				l2.3,0.7l10.1,3.5l7.8,2.9l10.5,4.8l6.5,3.3l6.6,4l2.8,1.8l2.9,1.9l2.6,1.9l2.7,2.1l2.4,2l2.3,2l2.3,2l2.2,2.1l2.1,2.2l2,2.1
				l2,2.3l2,2.3l1.8,2.2l1.9,2.4l3.5,4.7l1.5,2.2l3.4,5.6l2.1,3.9l2.8,6.1l2.5,6.4l1.5,4.4l1.8,6.7l2,9.2l1.2,7.2l0.9,7.3l0.8,9.9
				l0.3,6.3l0.1,5v5.1l-0.2,10.2l-0.2,5.2l-0.3,5.2l-0.8,10.3l-0.5,5.2l-1.2,10.4l-1.4,10l-1.6,10l-2.7,14.8l-3,13.9l-3,13.1
				l-3,12.2l-1,4l-4.8,16.3l-0.5,1.4l-2,6.9l-3.1,9.8l-0.7,1.9l-0.6,1.8l-0.3,0.7l-0.2,0.9v0.4l-0.5,1.2l-0.2,0.6l-6.8,17.3
				l-7.1,16.4l-0.9,2.3l-6.2,14l-12.8,27.1l-14.2,28.5l-10.8,20.7l-1.9,3.7l-12.1,22.3l-13.3,23.5l-7.1,12.1l-17.6,29.1l-5.4,8.5
				l-2.6,4.3l-8.3,13l-5.7,8.7l-2.8,4.4l-8.9,13.3l-18.6,26.9l-9.8,13.6l-10.1,13.6l-10.4,13.6l-5.3,6.9l-7.2,9.2l-7.3,9.2l-7.5,9.2
				l-7.6,9.2l-13.7,16.2l-6,6.8l-0.6,0.9l-1.4,2l-3,4.4l-4.8,6.6l-3.3,4.3l-1.7,2.3l-7.2,9.1l-3.7,4.5l-3.8,4.8l-3.9,4.7l-3.1,3.6
				l-8.4,9.6l-4.4,4.9l-4.3,4.9l-9,10l-4.7,5.1l-9.6,10.2l-4.9,5.1l-5,5.1l-5,5.2l-5.1,5.2l-15.8,15.8l-10.8,10.6l-16.7,16.2
				l-11.4,10.8l-11.6,10.8l-17.7,16.2l-15.1,13.6l-12.2,10.9l-12.3,10.9l-12.4,10.9l-12.4,10.8l-12.5,10.8l-25,21.4l-12.5,10.6
				l-28,23.6l-12.4,10.3l-6.1,5.1l-48.1,39.5l-5.9,4.7l-5.8,4.7l-5.8,4.7l-5.7,4.6l-5.7,4.6l-22,17.7l-5.4,4.3l-34.4,27.2l-2.5,1.9
				l-41.6,32.6l-3.9,2.9l-3.8,3l-1.8,1.3L845.5,1513.1z M1383.8,1012.4L1383.8,1012.4L1383.8,1012.4z M1455.1,304L1455.1,304
				L1455.1,304z M1453.4,297.7L1453.4,297.7L1453.4,297.7z"/>
		</g>
	</g>
	<path class="st1" d="M1583.4,465.4c-0.8-1.9-5.1-11.4-6.7-15.5l-0.1-0.1c-11.1-29.5-46.1-80.6-89.1-130
		c-49.1-56.4-101.4-102.4-143.4-126.2l19.7-34.9c102.5,58,224.7,209,250.2,276.8c0.9,2.3,3.9,9.2,5.8,13.3L1583.4,465.4z"/>
</g>
</svg>
